<svg width="654" height="656" viewBox="0 0 654 656" fill="none" xmlns="http://www.w3.org/2000/svg">
<path d="M344.114 655.34C154.017 664.146 6.74022 513.861 0.342408 325.434C-5.42196 155.634 168.776 15.1695 329.735 1.991C769.791 -34.0598 747.24 628.666 344.114 655.34ZM263.54 389.173C246.817 396.712 232.311 403.301 216.285 410.524C207.733 401.844 200.828 394.875 195.824 389.806C196.141 354.959 240.356 298.57 247.894 262.773C236.449 221.675 233.556 181.907 239.215 143.47C250.997 132.382 265.947 118.19 279.566 105.328C301.927 105.011 320.677 104.695 336.639 104.441C381.994 124.589 397.324 158.359 392.573 206.511C385.542 220.26 377.053 236.986 368.122 254.346C393.143 290.651 485.309 355.466 476.378 403.238C427.602 446.892 398.591 347.039 353.933 348.18C334.929 425.033 442.425 507.905 403.025 574.622C386.555 565.878 373.949 559.226 365.525 554.79C354.503 534.326 339.047 478.064 305.411 488.581C290.461 524.695 276.335 560.81 262.463 597.304C589.575 691.201 745.213 134.98 403.151 58.1896C71.6685 -16.2562 -102.783 477.05 233.008 587.23C229.144 522.098 285.457 451.834 263.54 389.299V389.173Z" fill="black"/>
</svg>
