<svg width="645" height="522" viewBox="0 0 645 522" fill="none" xmlns="http://www.w3.org/2000/svg">
<path d="M114.137 37.6406C118.634 22.0545 121.865 10.7769 124.715 0.893004C161.645 -1.32453 375.814 220.112 379.614 265.033C338.314 356.079 212.321 453.333 140.488 521.253C128.643 511.876 119.394 504.59 111.793 498.571C117.684 393.586 297.013 356.459 299.483 253.058C231.324 184.125 172.351 115.381 114.2 37.6406H114.137Z" fill="black"/>
<path d="M640.023 6.84887C663.271 67.9894 529.93 192.742 499.525 238.169C515.171 315.846 665.171 361.401 642.43 451.243C638.376 454.601 632.295 459.669 627.481 463.598C577.819 456.375 461.328 298.74 428.262 259.141C419.837 194.579 563.376 35.2331 608.985 1.14648C618.613 2.92051 630.142 5.07484 639.96 6.84887H640.023Z" fill="black"/>
<path d="M6.45051 458.909C4.80355 450.038 2.58647 438.571 0.496094 427.547C45.7242 360.767 128.389 335.614 169.12 266.237C135.99 188.75 -5.26831 123.364 26.7841 31.1149C74.2293 20.2807 223.026 236.902 244.88 271.242C224.99 314.072 59.47 484.949 6.45051 458.972V458.909Z" fill="black"/>
</svg>
