<svg width="602" height="302" viewBox="0 0 602 302" fill="none" xmlns="http://www.w3.org/2000/svg">
<path d="M559.397 9.4433C573.966 26.3599 587.965 43.7833 601.331 61.6503C560.79 199.201 422.382 316.033 273.142 299.75C130.426 284.164 61.0637 166.381 0.632812 51.5762C20.9031 -24.3902 492.631 6.71896 559.397 9.50672V9.4433ZM341.997 231.323C411.55 244.438 512.458 145.726 521.706 80.911C493.011 36.0535 368.856 60.2562 333.383 79.2637C325.908 131.851 329.329 181.144 341.997 231.387V231.323ZM104.708 88.6409C95.5865 136.16 204.793 267.247 260.409 231.894C274.852 178.039 273.522 129.253 255.975 77.0463C204.096 60.5732 154.054 70.5839 104.645 88.6409H104.708Z" fill="black"/>
</svg>
