<svg width="571" height="378" viewBox="0 0 571 378" fill="none" xmlns="http://www.w3.org/2000/svg">
<path d="M531.483 0.999882C546.559 4.73801 557.835 7.52577 566.893 9.80666C591.915 70.0602 486.889 189.997 456.547 235.805C460.854 284.147 500.571 314.116 499.368 367.653C498.291 368.857 493.033 374.876 491.196 377.03C428.992 376.27 433.046 313.609 400.614 295.298C338.979 293.968 296.792 364.422 227.112 360.114C158.89 355.869 147.615 298.276 91.1745 280.156C55.1947 303.345 54.4344 354.095 23.3322 377.727C-34.4382 373.609 42.2722 248.92 52.5974 228.012C48.9868 178.656 7.68614 142.922 0.464844 90.9684C12.9437 87.6738 22.3189 85.1394 35.4312 81.6547C52.5343 106.301 68.9405 129.997 87.2472 156.354C148.438 134.052 174.663 87.6738 243.835 88.4341C309.967 89.1944 365.52 132.595 408.151 178.909C464.401 187.97 515.647 35.53 531.483 0.936523V0.999882ZM125.127 219.459C182.834 339.142 283.299 339.776 360.643 236.629C324.029 112.7 177.957 103.196 125.127 219.459Z" fill="black"/>
</svg>
