<svg width="510" height="539" viewBox="0 0 510 539" fill="none" xmlns="http://www.w3.org/2000/svg">
<path d="M268.465 538.753C-63.8409 519.175 -101.531 37.7803 238.82 2.04633C387.87 -13.6031 493.402 83.7783 507.528 230.199C524.631 407.221 426.004 495.163 268.465 538.753ZM223.491 61.3498C-12.9117 122.49 2.41768 513.029 270.302 477.739C484.281 449.545 520.894 74.5282 281.198 83.3983C263.588 76.6823 245.915 69.9662 223.491 61.4128V61.3498Z" fill="black"/>
<path d="M347.901 189.84C358.733 198.33 374.696 210.875 387.681 221.012C401.681 298.816 393.826 314.529 333.712 336.64C308.754 334.486 292.348 319.281 278.412 299.576C261.372 247.686 286.203 182.87 347.901 189.84Z" fill="black"/>
<path d="M214.433 293.177C196.317 332.332 163.884 343.293 123.66 337.211C102.714 316.345 93.8039 284.898 96.9289 242.871C147.858 183.504 229.826 200.991 214.433 293.241V293.177Z" fill="black"/>
</svg>
