<svg width="511" height="398" viewBox="0 0 511 398" fill="none" xmlns="http://www.w3.org/2000/svg">
<path d="M376.399 355.995C305.327 343.07 389.765 252.721 398.57 219.965C355.432 198.55 313.245 206.85 268.967 211.792C250.913 264.442 265.736 318.296 254.144 368.159C245.783 379.31 234.254 382.858 219.431 378.867C180.981 331.602 213.413 273.883 190.926 221.169C182.754 219.901 171.669 218.191 162.991 216.86C119.537 264.886 184.402 356.692 131.826 397.938C123.971 395.847 114.469 393.313 104.587 390.652C80.2627 337.177 98.7595 280.155 85.3938 230.165C68.5441 212.488 -36.2915 219.268 14.0042 173.016C36.1115 168.898 60.3727 164.4 87.0408 159.394C92.9319 114.79 92.995 67.0183 114.532 26.976C164.004 35.7828 152.666 121.823 161.217 158.127C172.556 156.29 180.284 155.023 188.772 153.692C206.762 114.093 180.664 66.3213 216.707 30.2706C223.042 30.524 231.023 30.8408 236.471 31.0308C276.315 62.0763 252.624 109.595 272.831 147.42C312.864 154.262 353.279 162.562 398.633 146.913C386.851 104.21 327.054 46.1734 347.324 2.26621L384.824 0.0488281C422.197 51.0521 474.773 91.0309 509.803 141.844C511.386 159.648 508.219 176.628 500.238 192.721C455.39 251.77 416.18 303.471 376.336 355.995H376.399Z" fill="black"/>
</svg>
