<svg width="614" height="651" viewBox="0 0 614 651" fill="none" xmlns="http://www.w3.org/2000/svg">
<path d="M1.40309 351.087C-25.5184 -31.913 600.074 -167.816 613.82 286.588C619.331 469.566 491.628 646.589 300.263 650.137C98.0671 653.875 39.7266 520.38 1.40309 351.087ZM226.657 413.748C243.823 390.242 256.999 365.279 257.569 334.17C251.108 332.206 245.977 330.622 237.995 328.215C232.548 358.183 224.757 385.743 228.177 414.951C214.305 411.593 200.432 408.236 186.243 404.814C169.773 351.72 187.827 302.428 186.433 258.33C209.871 218.415 252.502 236.472 281.513 216.387C271.758 195.986 262.89 177.485 255.099 161.266C257.126 97.7809 321.927 39.7449 370.196 112.163L373.553 169.376C362.088 184.772 352.396 201.181 344.415 218.605C369.436 225.764 390.466 231.847 409.786 237.359C438.672 321.118 440.635 334.93 430.373 382.386C422.962 382.259 415.107 382.195 411.307 382.132C384.385 363.251 391.226 327.327 362.341 311.488C357.337 318.901 352.966 325.427 347.138 334.107C372.856 386.694 420.112 454.107 418.085 513.6C402.565 522.787 388.376 531.214 374.44 539.45C370.513 552.819 364.115 564.667 381.725 576.134C583.097 508.911 633.9 56.3449 379.318 34.7398C240.91 61.0967 112.446 92.5222 65.508 242.047C27.6279 362.744 67.4717 592.038 229.444 591.024C244.52 569.799 240.466 548.954 237.995 528.553C228.43 516.832 219.245 505.617 211.707 496.367C217.028 466.905 221.843 440.295 226.657 413.748ZM306.851 529.376C292.662 555.924 292.345 555.86 292.915 590.39C298.236 592.924 304.697 596.029 313.819 600.337C325.284 572.903 326.805 551.362 306.915 529.376H306.851Z" fill="black"/>
</svg>
