<svg width="622" height="714" viewBox="0 0 622 714" fill="none" xmlns="http://www.w3.org/2000/svg">
<path d="M0.765625 419.348C1.019 265.958 102.941 28.4281 277.202 2.38794C424.922 -19.724 580.053 164.965 612.802 295.989C655.243 465.726 539.196 673.73 361.514 709.148C190.673 743.234 2.47593 592.189 0.765625 419.348ZM344.98 71.6383C47.8939 19.6213 -66.4432 554.427 237.865 643.192C382.354 685.325 537.739 538.081 555.412 398.756C573.782 253.983 458.114 141.015 344.98 71.6383Z" fill="black"/>
<path d="M142.656 364.416C152.981 82.5357 523.675 155.841 481.931 410.097C445.064 634.448 153.171 577.679 142.656 364.416ZM300.511 224.458C144.557 246.76 186.871 544.606 347.133 483.656C497.513 426.507 391.221 270.456 300.511 224.458Z" fill="black"/>
</svg>
