<svg width="412" height="504" viewBox="0 0 412 504" fill="none" xmlns="http://www.w3.org/2000/svg">
<path d="M411.496 193.703C414.727 290.134 267.704 395.752 234.258 483.503C218.675 498.012 201.699 509.226 174.587 501.116C167.746 486.227 163.629 478.307 160.335 464.495C106.175 392.71 37.1925 320.609 0.199219 238.117C57.1461 154.738 127.902 55.8988 213.354 0.207031C288.988 42.0234 351.952 130.978 411.496 193.703ZM62.0869 241.601C98.1301 312.372 156.661 381.94 199.355 406.586C263.46 357.23 327.248 265.994 340.614 201.496C297.412 157.779 266.12 99.4259 205.943 62.4882C151.53 119.891 103.641 179.574 62.0869 241.601Z" fill="black"/>
</svg>
