<svg width="559" height="558" viewBox="0 0 559 558" fill="none" xmlns="http://www.w3.org/2000/svg">
<path d="M278.805 557.017C119.049 519.509 47.5967 472.941 0.214844 315.116C50.5105 115.981 228.382 -113.058 449.139 63.584C687.631 254.419 492.846 484.028 278.805 557.017ZM146.034 114.904C100.49 155.01 72.2378 198.854 75.4684 260.881C129.121 266.52 178.214 261.388 228.383 249.223C239.658 211.018 257.268 108.568 221.098 79.2337C193.796 92.2221 169.852 103.563 145.971 114.968L146.034 114.904ZM309.464 76.3191C296.541 123.901 299.392 198.347 315.988 241.874C358.936 239.339 451.166 252.645 479.544 213.743C459.21 158.748 386.174 39.5714 309.464 76.3191ZM316.748 472.814C398.526 460.713 466.558 388.865 474.793 305.739C420.127 286.731 369.705 302.824 313.898 313.785C292.551 361.114 300.532 425.612 316.685 472.814H316.748ZM76.7353 331.779C70.9076 416.932 145.084 486.943 229.65 481.938C249.856 432.265 242.572 369.414 225.342 320.564C173.462 318.474 123.864 313.849 76.7353 331.779Z" fill="black"/>
</svg>
