<svg width="602" height="598" viewBox="0 0 602 598" fill="none" xmlns="http://www.w3.org/2000/svg">
<path d="M597.536 546.757C575.872 577.612 62.4634 619.049 28.8274 583.125C9.38055 511.466 -25.3955 70.8106 32.6283 27.2836C75.8927 -5.15575 200.682 20.1875 251.864 18.2234C321.923 15.6258 508.854 -29.4849 556.489 35.1403C605.328 169.966 604.568 403.314 597.536 546.694V546.757ZM499.858 82.5955C443.355 28.4243 164.639 70.494 86.4713 77.3367C29.1443 146.84 69.1149 434.359 102.751 520.273C190.04 530.6 457.164 538.267 521.459 483.842C550.724 388.108 512.527 181.814 499.858 82.5955Z" fill="black"/>
<path d="M422.26 149.692C431.508 158.879 438.857 166.165 447.345 174.591C447.662 251.825 448.041 329.122 448.422 409.143C369.811 446.271 267.763 413.135 182.121 422.448C145.127 367.453 164.827 258.224 169.705 193.916C212.526 134.676 359.422 153.366 422.324 149.628L422.26 149.692ZM369.241 349.08C369.304 302.702 385.267 259.808 359.169 214.38C316.601 218.435 272.387 204.687 231.973 234.528C219.811 273.05 214.87 310.938 234.633 351.361C277.454 357.063 319.198 370.368 369.241 349.08Z" fill="black"/>
</svg>
