<svg width="540" height="523" viewBox="0 0 540 523" fill="none" xmlns="http://www.w3.org/2000/svg">
<path d="M538.951 267.605C557.195 617.531 -34.0014 607.774 2.10511 238.017C14.8374 107.626 135.762 3.40139 265.112 0.676994C412.769 -2.49091 503.732 139.685 539.015 267.605H538.951ZM335.298 68.7237C311.607 169.21 317.752 361.501 375.585 448.555C385.087 441.903 391.548 437.278 400.036 431.322C393.702 324.12 387.367 217.298 380.653 104.394C369.884 95.9042 355.632 84.7533 335.298 68.7237ZM230.019 65.5558C233.187 164.458 205.505 398.883 269.23 473.202C279.935 470.541 292.667 467.373 307.236 463.761C301.725 370.752 310.847 131.512 253.267 60.994C248.263 61.9444 242.562 63.0849 230.019 65.5558ZM190.175 465.599C199.107 363.846 209.622 185.746 165.154 92.6731C124.107 101.416 132.722 413.772 149.825 453.434C159.2 456.285 170.475 459.643 190.175 465.599ZM83.6297 183.972C30.6735 215.271 46.5097 340.023 88.1905 371.956C98.4524 318.291 96.362 235.799 83.6297 183.972ZM448.812 207.288C435.256 244.732 425.438 337.425 459.644 362.135C486.439 324.881 503.162 233.011 448.812 207.288Z" fill="black"/>
</svg>
