<svg width="583" height="397" viewBox="0 0 583 397" fill="none" xmlns="http://www.w3.org/2000/svg">
<path d="M16.6515 388.607C10.5704 381.258 5.37617 374.922 0.308594 368.713C32.9311 245.545 211.753 103.876 294.735 0.982445C309.557 -6.93732 594.735 352.557 581.94 376.569C524.043 403.116 367.201 384.742 299.296 388.734C204.912 394.31 110.845 402.419 16.7149 388.544L16.6515 388.607ZM470.896 323.855C447.142 256.886 346.741 133.591 291.504 85.8189C238.865 148.987 112.745 254.415 95.6424 336.02C188.442 372.768 373.092 329.621 470.896 323.792V323.855Z" fill="black"/>
<path d="M269.396 148.48C283.015 152.282 294.037 155.386 306.452 158.871C311.52 213.423 322.162 276.717 281.178 319.04C240.574 268.798 250.265 207.91 269.332 148.544L269.396 148.48Z" fill="black"/>
</svg>
