<svg width="619" height="616" viewBox="0 0 619 616" fill="none" xmlns="http://www.w3.org/2000/svg">
<path d="M615.734 294.194C669.387 704.121 -8.14769 728.387 0.277155 329.295C3.95115 155.503 139.509 14.3414 308.766 1.35296C510.075 -14.1064 596.287 107.731 615.797 294.258L615.734 294.194ZM193.415 238.249C171.181 205.493 156.422 170.266 123.419 144.859C23.3346 244.205 26.5021 427.056 137.102 518.925C184.104 557.954 414.805 624.353 428.234 523.297C403.846 470.583 300.215 320.741 243.204 308.006C221.73 369.907 235.539 434.342 225.151 493.519C215.586 504.163 203.804 506.38 189.931 500.108C175.299 414.194 191.388 328.598 193.415 238.312V238.249ZM217.233 156.58C334.927 72.7575 387.947 84.0353 447.364 213.603C471.625 221.396 498.547 198.587 514.89 231.47C501.651 273.666 471.878 304.078 431.401 331.132C391.684 309.337 345.886 276.834 328.213 232.357C347.533 223.55 363.686 216.2 381.929 207.837C373.758 172.927 359.061 148.09 320.548 144.986C287.102 158.228 262.144 178.185 257.203 218.418C311.046 307.309 403.72 431.554 492.846 490.351C605.853 443.212 553.846 172.293 493.796 101.839C430.894 28.0901 234.019 1.47967 177.199 98.671C179.733 110.012 182.52 122.24 185.56 135.672C195.442 142.198 205.577 148.914 217.233 156.58Z" fill="black"/>
</svg>
