<svg width="417" height="404" viewBox="0 0 417 404" fill="none" xmlns="http://www.w3.org/2000/svg">
<path d="M17.8387 49.9895C69.7813 141.289 39.3758 361.965 197.864 355.312C368.008 348.153 334.689 120.57 350.525 15.1426C356.796 11.5945 365.158 6.84267 377.256 0C473.477 138.121 385.935 389.779 206.416 402.704C21.3226 416.009 -32.3304 189.821 17.7753 50.0529L17.8387 49.9895Z" fill="black"/>
<path d="M191.593 272.376C138.763 252.292 135.153 171.827 182.028 142.492C207.957 141.479 232.45 153.369 255.508 178.163C264.376 204.076 252.467 226.252 238.975 252.229C224.279 258.501 207.239 265.724 191.593 272.376Z" fill="black"/>
</svg>
