<svg width="738" height="587" viewBox="0 0 738 587" fill="none" xmlns="http://www.w3.org/2000/svg">
<path d="M737.232 532.352C729.441 560.103 707.143 565.045 690.547 576.639C567.722 576.639 444.896 576.639 322.008 576.513C233.642 576.513 78.8272 605.784 0.976562 566.249C15.2291 467.663 128.426 374.907 184.866 293.935C252.645 196.681 312.316 85.9306 395.171 0.523926C470.994 40.1227 514.005 171.338 559.36 244.263C618.207 338.983 689.597 431.359 737.232 532.289V532.352ZM465.8 399.934C480.939 386.819 492.911 376.428 506.024 365.087C549.795 390.937 579.06 423.123 588.499 472.605C571.079 487.684 556.066 504.855 543.461 524.179C587.295 527.41 623.338 532.225 666.096 517.336C588.499 382.763 506.214 185.783 391.813 81.8759C335.183 161.01 278.616 240.144 222.05 319.279C195.571 356.343 89.4058 464.559 92.3196 513.978C130.77 563.968 428.617 545.277 477.455 515.752C423.929 474.569 154.524 470.324 274.182 318.518C282.734 321.306 290.145 323.714 298.38 326.438C300.85 346.206 295.593 426.987 336.07 414.886C340.504 391.317 345.065 367.051 349.879 341.264C368.059 335.688 383.642 330.873 389.976 328.909C441.349 332.014 449.774 368.508 465.863 400.06L465.8 399.934Z" fill="black"/>
</svg>
