<svg width="722" height="665" viewBox="0 0 722 665" fill="none" xmlns="http://www.w3.org/2000/svg">
<path d="M0.320312 326.576C97.6811 210.947 193.395 99.8805 294.05 2.24562C370.76 -17.332 431.888 115.023 477.813 160.134C547.302 228.434 664.046 267.209 721.056 344.696C600.005 443.091 481.043 598.382 341.051 664.781C330.6 651.286 321.985 640.135 316.347 632.849C194.028 548.076 65.7553 464.506 0.383622 326.576H0.320312ZM52.643 344.569C106.233 458.741 245.274 534.2 341.875 607.062C438.286 541.17 564.658 429.533 634.211 336.016C581.508 293.313 522.217 260.81 471.668 215.192C421.626 170.018 381.845 85.4348 318.817 57.4939C261.047 98.5499 95.3374 276.776 52.5797 344.569H52.643Z" fill="black"/>
<path d="M312.608 533.884C290.247 472.68 195.42 434.411 184.905 376.059C174.706 319.29 274.918 231.476 306.653 191.243C357.836 199.1 400.467 227.611 489.213 311.56C518.922 364.337 366.324 540.093 312.545 533.884H312.608Z" fill="black"/>
</svg>
