<svg width="947" height="531" viewBox="0 0 947 531" fill="none" xmlns="http://www.w3.org/2000/svg">
<path d="M428.057 530.392C303.711 505.682 267.035 434.214 220.73 327.456C193.492 313.073 165.05 310.476 133.631 313.2C104.936 339.937 84.0954 386.505 30.3158 362.176C-20.2966 312.63 -3.76383 218.226 64.9652 195.988C111.207 195.354 121.152 234.826 143.829 255.544C166.127 266.252 186.08 260.93 208.124 256.368C271.722 65.5966 452.445 -11.1933 623.539 105.196C686.693 79.1553 734.012 32.2071 791.592 0.908151C843.598 -2.76662 914.544 164.816 946.47 200.676C878.881 271.764 819.147 136.621 785.068 88.2788C733.252 106.716 706.71 125.534 671.364 167.983C668.767 367.308 646.216 484.774 428.12 530.455L428.057 530.392ZM506.985 97.3392C429.071 101.964 306.309 123.569 274.446 213.475C247.081 290.898 301.621 429.335 379.028 457.656C593.513 536.094 691.508 199.409 506.985 97.3392Z" fill="black"/>
</svg>
