<svg width="660" height="443" viewBox="0 0 660 443" fill="none" xmlns="http://www.w3.org/2000/svg">
<path d="M335.921 442.49C236.977 428.361 140.376 432.67 42.2552 435.267C17.044 360.378 -31.3514 80.2085 30.9798 19.3214C136.069 30.4091 253.446 27.1778 355.748 51.5707C360.626 78.8146 364.996 102.954 370.064 131.529C434.422 110.937 562.442 -21.7981 627.94 4.1154C686.344 62.4682 644.156 329.459 649.287 416.07C633.831 424.433 621.352 431.149 607.797 438.435C526.969 411.318 462.484 353.155 380.136 320.336C364.933 350.051 361.639 381.413 370.127 414.486C356.445 425.7 345.55 434.634 335.858 442.553L335.921 442.49ZM309.95 368.298C309.57 321.92 337.568 134.506 290.123 103.017C219.937 106.122 148.231 76.9772 79.0584 92.2465C33.8937 144.327 63.919 314.443 82.9224 374.253C141.516 383.567 252.56 380.969 309.95 368.361V368.298ZM363.096 240.441C425.871 276.112 516.517 348.72 588.477 353.028C606.656 304.75 613.688 129.248 582.522 83.7566C511.576 97.0618 392.868 174.169 363.033 240.441H363.096Z" fill="black"/>
</svg>
