<svg width="507" height="764" viewBox="0 0 507 764" fill="none" xmlns="http://www.w3.org/2000/svg">
<path d="M27.1513 356.966C16.7628 346.258 8.84471 338.022 0.863281 329.722C29.2417 250.017 153.651 236.649 223.14 218.972C235.175 150.799 203.503 60.8935 238.533 0.259766C311.316 0.76663 257.093 171.2 299.217 212.319C386.189 228.856 449.534 282.077 504.39 339.162C509.395 362.098 508.571 375.847 489.821 381.105C420.839 376.29 364.335 296.142 287.118 286.512C198.372 275.424 103.292 318.444 27.1513 356.966Z" fill="black"/>
<path d="M385.43 349.87C391.004 354.939 396.895 360.261 401.836 364.696C387.457 420.641 341.722 447.252 317.144 493.883C316.764 532.278 305.426 571.877 271.663 603.999C272.043 651.835 272.423 699.734 272.803 749.406C259.311 754.792 248.922 758.973 237.14 763.662C216.68 719.628 168.474 541.338 184.311 500.599C193.686 489.258 208.255 471.581 222.064 454.854C243.348 451.433 261.781 448.455 275.717 446.238C316.764 419.817 327.85 368.687 385.43 349.807V349.87Z" fill="black"/>
</svg>
