<svg width="588" height="629" viewBox="0 0 588 629" fill="none" xmlns="http://www.w3.org/2000/svg">
<path d="M197.148 12.5893C372.233 -22.5744 536.295 12.1458 580.32 215.715C610.472 355.04 538.133 534.85 408.91 601.756C269.678 673.858 99.5973 593.837 34.9224 460.595C-52.0499 281.545 35.6824 108.007 197.148 12.5259V12.5893ZM403.905 71.0057C94.6564 21.4597 -28.866 292.379 146.726 533.076C296.346 600.363 426.899 558.736 488.534 401.672C530.848 293.773 522.867 130.246 403.969 71.0057H403.905Z" fill="black"/>
<path d="M263.026 328.43C272.338 343.256 279.685 354.977 287.35 367.205C308.254 362.2 326.307 357.828 344.551 353.456C389.969 370.563 406.628 403.953 399.09 447.67C377.68 441.904 360.07 437.152 338.216 431.197C319.086 439.813 295.648 451.155 263.343 433.604C249.85 420.362 230.72 401.608 209.816 381.207C191.066 395.969 174.913 408.705 155.91 423.657C148.562 418.969 140.517 413.773 132.409 408.578C134.88 374.174 151.539 351.112 174.597 330.837C193.663 323.424 212.983 315.948 234.647 307.522C234.647 277.997 217.861 261.397 198.478 240.235C175.04 261.46 155.34 279.327 133.106 299.475C124.301 294.09 116.32 289.148 108.465 284.396C111.569 230.478 151.159 206.972 181.501 176.117C195.691 175.99 208.043 175.863 221.028 175.673C239.398 193.984 256.945 211.597 276.201 230.795C302.49 216.856 327.954 203.361 350.568 191.386C396.81 210.901 404.918 220.721 432.663 288.388C424.872 297.511 415.877 307.965 407.262 317.976C382.241 313.161 362.667 299.095 348.541 275.779C322.253 291.999 296.092 308.092 262.963 328.493L263.026 328.43Z" fill="black"/>
</svg>
