<svg width="574" height="424" viewBox="0 0 574 424" fill="none" xmlns="http://www.w3.org/2000/svg">
<path d="M294.742 47.5712C439.992 -22.6296 580.68 3.41057 573.269 200.011C567.061 363.855 434.797 423.665 289.738 386.03C-141.893 603.032 -49.9163 -195.851 294.742 47.5712ZM234.185 336.801C205.109 251.584 191.427 171.753 228.547 95.5966C222.086 71.1404 210.684 57.7085 181.609 54.4772C99.9573 88.1837 16.7223 141.468 31.6717 243.601C46.1776 342.947 149.429 396.611 234.185 336.801ZM338.197 332.809C463.873 429.177 624.895 95.5333 424.789 53.2734C386.824 68.775 359.882 87.3601 343.961 109.029C371.896 244.615 369.932 212.746 338.197 332.809ZM272.255 278.321C297.339 257.92 330.975 164.34 274.219 156.547C245.397 193.041 255.722 230.803 272.255 278.321Z" fill="black"/>
</svg>
