<svg width="827" height="657" viewBox="0 0 827 657" fill="none" xmlns="http://www.w3.org/2000/svg">
<path d="M526.083 290.943C577.076 247.733 612.929 200.404 624.394 134.829C630.222 101.566 600.767 23.9519 637.887 1.0163C677.287 -6.33324 681.278 66.4019 686.852 88.7673C705.665 78.1865 721.248 69.4431 739.618 59.1157C746.966 66.6553 753.554 73.3713 761.535 81.6078C750.323 102.263 740.505 120.32 729.61 140.341C754.124 163.023 787.76 144.206 817.849 161.312C820.003 168.282 823.233 178.989 826.464 189.507C786.113 212.886 717.511 204.269 672.473 206.993C628.068 252.991 582.46 296.265 560.986 356.519C605.201 449.592 666.075 527.902 724.289 611.472C720.805 621.736 717.004 633.077 713.9 642.264C628.828 674.513 479.018 642.01 389.829 640.426C291.074 638.716 169.643 658.167 74.4989 632.76C99.8368 529.676 192.13 452.633 214.237 350.31C181.488 309.824 151.716 259.074 112.949 225.051C80.4532 196.539 30.981 194.702 0.765625 167.331C1.90583 134.005 36.8088 141.608 51.2514 121.017C48.4008 105.114 45.1704 86.9932 42.8266 73.9415C52.455 46.6341 75.5758 49.9288 90.5251 41.122C98.3799 28.2603 105.728 16.2222 114.216 2.28346C124.288 6.59181 131.446 9.633 139.554 13.0543C154.503 74.7651 140.884 292.97 256.362 294.998C305.897 260.594 331.045 121.84 405.855 141.735C452.667 180.953 474.394 246.782 526.083 290.88V290.943ZM165.842 578.082C258.325 613.056 539.132 625.157 623.951 579.476C592.912 520.299 449.816 213.963 382.607 218.145C319.389 287.585 199.668 485.326 165.842 578.018V578.082Z" fill="black"/>
</svg>
