<svg width="761" height="354" viewBox="0 0 761 354" fill="none" xmlns="http://www.w3.org/2000/svg">
<path d="M228.019 69.2076C176.583 57.9298 129.771 53.7482 81.7559 77.1274C62.1824 161.457 73.2045 249.271 51.414 336.896C36.8447 333.981 25.696 331.764 14.1672 329.483C-3.25255 262.83 -15.5415 65.7862 46.5997 18.8378C259.185 -18.6068 490.393 13.389 706.081 6.54634C780.131 42.8505 753.97 234.319 760.177 300.275C758.467 304.9 753.4 318.332 748.586 331.13C653.315 336.769 704.561 128.954 673.585 73.2626C627.027 64.3291 579.835 69.3342 532.77 75.8601C486.085 126.483 518.708 261.69 507.179 326.632C495.08 326.251 485.198 325.998 471.706 325.555C449.219 243.759 467.145 160.95 457.833 82.0061C412.479 63.5688 346.6 59.5771 302.512 71.5518C281.165 131.552 283.255 245.47 308.15 322.323C303.082 330.75 296.875 341.077 289.273 353.686C273.88 349.06 260.451 345.005 246.516 340.824C225.232 250.348 236.444 159.303 228.145 69.0807L228.019 69.2076Z" fill="black"/>
</svg>
