<svg width="752" height="1002" viewBox="0 0 752 1002" fill="none" xmlns="http://www.w3.org/2000/svg">
<path d="M629.76 940.259L594.857 942.35C566.732 894.008 594.731 838.633 566.162 790.1C420.976 838.569 315.127 843.701 166.14 808.791C148.087 872.593 178.556 934.747 165.887 999.119L127.247 1001.4C87.0228 927.334 101.149 829.319 70.7433 749.551C33.2433 651.093 -8.05772 559.794 2.01409 451.135C19.1172 265.622 160.566 194.408 320.765 146.762C334.574 133.204 349.46 118.568 365.233 102.982C367.64 69.4654 370.047 36.5192 372.454 4.07985C399.249 -6.94446 410.778 6.23405 419.963 24.101C421.356 47.4168 422.686 70.3525 424.143 94.3018C467.091 160.131 570.343 167.1 630.14 215.126C711.095 280.131 756.766 372.571 751.192 477.238C746.695 561.695 703.937 599.393 669.351 669.213C624.059 760.702 646.167 840.597 629.824 940.323L629.76 940.259ZM299.798 362.18C303.218 351.282 306.132 342.095 309.109 332.718C333.434 333.605 354.908 326.953 373.531 312.824C373.341 295.337 373.088 276.9 372.898 259.35C349.397 237.364 328.24 217.597 309.426 199.983C117.998 236.667 -14.7089 435.739 87.9729 621.378C113.501 632.339 140.866 627.65 162.593 628.347C231.259 603.384 278.894 551.114 340.275 527.671C406.09 548.453 447.327 600.406 500.854 630.375C540.507 613.141 581.238 609.593 623.109 619.857C754.169 506.89 678.536 185.474 480.204 205.939C466.268 220.511 450.558 237.048 437.509 250.733C431.238 277.217 432.821 296.984 450.621 312.317C467.598 315.675 483.751 318.906 501.867 322.518C504.591 333.479 506.998 342.919 509.659 353.5C460.06 379.92 348.826 394.112 299.798 362.243V362.18ZM338.818 586.087C294.604 615.169 249.566 644.757 205.034 674.028C202.374 701.272 201.17 728.643 201.36 756.014C291.436 809.678 417.429 803.469 493.316 742.962C513.46 672.571 387.023 607.756 338.818 586.087Z" fill="black"/>
</svg>
