<svg width="701" height="482" viewBox="0 0 701 482" fill="none" xmlns="http://www.w3.org/2000/svg">
<path d="M539.771 479.845C469.585 499.042 370.641 322.653 329.34 281.217C283.225 322.527 263.525 385.631 213.102 422.823C152.165 436.381 24.3351 281.977 0.960938 238.007C38.0809 152.347 129.044 72.2622 187.321 0.414062C238.694 21.3222 317.304 152.664 357.655 199.295C414.539 166.602 467.621 55.4722 506.198 3.77203C562.512 40.393 665.637 142.083 700.033 198.472C683.753 287.933 596.084 409.01 539.708 479.845H539.771ZM392.051 266.645C449.399 344.153 491.544 387.976 518.487 398.113C554.087 375.177 630.987 244.533 628.58 200.055C613.948 174.079 542.241 98.3657 512.216 93.6772C476.68 125.103 412.385 217.352 392.051 266.645ZM192.008 89.3055C142.79 119.527 91.3538 176.613 64.749 228.63C99.9687 279 156.472 332.727 194.099 351.735C241.291 315.621 278.157 256.698 288.356 197.775C257.38 162.928 224.441 125.8 192.008 89.3055Z" fill="black"/>
</svg>
