<svg width="1246" height="547" viewBox="0 0 1246 547" fill="none" xmlns="http://www.w3.org/2000/svg">
<path d="M916.323 195.062C971.94 177.258 1011.09 277.997 1033.95 310.563C1076.9 280.658 1093.62 235.104 1127.2 197.533C1137.33 195.695 1151.14 193.098 1164.76 190.627C1202.89 220.468 1272.64 325.516 1234.44 375.315C1132.45 422.327 929.942 391.598 823.839 374.935C809.333 383.489 796.918 390.838 787.986 396.097C703.548 399.708 613.219 423.341 543.223 366.572C556.588 315.822 605.807 236.181 665.921 168.641C672.382 167.628 680.491 166.297 692.716 164.333C742.632 211.091 758.468 284.143 811.551 333.816C850.191 288.958 883.954 244.734 916.323 195.188V195.062ZM617.336 340.975C656.8 347.121 693.16 348.895 729.456 336.604C716.66 289.339 708.426 275.907 673.333 245.368C646.981 271.725 623.417 299.159 617.336 340.912V340.975ZM901.944 325.389C925.064 337.427 947.362 348.261 974.41 332.295C964.148 307.332 947.7 287.522 925.064 272.865C910.559 287.691 902.83 305.178 901.944 325.389ZM1147.34 276.857C1137.27 289.719 1130.24 298.715 1121.75 309.55C1129.92 316.202 1135.81 320.954 1143.54 327.227C1152.47 321.905 1160.45 317.089 1171.79 310.31C1162.92 298.209 1156.53 289.465 1147.34 276.857Z" fill="black"/>
<path d="M0.293682 509.952C24.9981 319.814 269.889 198.42 280.911 2.45309L314.927 0.425781C398.669 145.896 524.724 350.289 553.61 515.654C548.225 520.976 539.42 529.529 532.959 535.928C364.462 556.393 165.56 548.22 0.230469 509.952H0.293682ZM301.308 105.157C247.275 186.952 77.7009 364.671 83.6553 465.157C150.357 501.018 403.229 510.775 475.126 473.964C441.87 343.256 357.621 226.677 301.308 105.22V105.157Z" fill="black"/>
</svg>
