<svg width="525" height="560" viewBox="0 0 525 560" fill="none" xmlns="http://www.w3.org/2000/svg">
<path d="M467.261 83.5472C522.688 196.261 557.148 349.905 476.51 461.035C382.57 590.476 149.081 593.897 55.2042 461.732C-134.957 193.98 216.733 -164.563 467.261 83.4842V83.5472ZM152.248 456.283C205.395 503.548 335.314 523.696 378.959 449.124C365.34 415.924 308.963 337.74 266.079 334.509C229.339 357.635 183.921 405.47 152.248 456.283ZM165.741 114.91C180.943 166.04 226.298 207.096 270.83 232.059C311.053 190.749 358.245 159.387 386.307 107.624C365.277 84.8147 339.495 68.9115 308.9 59.7879C209.955 74.487 198.11 78.9855 165.677 114.91H165.741ZM211.539 282.112C173.849 237.191 143.633 194.994 102.776 158.69C50.39 209.63 54.1907 344.773 99.5455 399.451C143.95 365.935 179.17 329.567 211.539 282.112ZM434.829 396.917C457 344.583 490.002 208.046 422.16 174.086C383.203 202.597 348.87 234.72 322.646 280.021C351.341 322.344 387.447 355.607 434.829 396.917Z" fill="black"/>
</svg>
