<svg width="392" height="561" viewBox="0 0 392 561" fill="none" xmlns="http://www.w3.org/2000/svg">
<path d="M210.684 560.137C203.843 560.01 195.798 559.884 184.079 559.693C178.442 532.703 173.057 506.853 168.117 483.03C136.318 463.263 108.953 502.354 76.2034 479.672C74.9365 474.287 72.7195 464.846 69.6789 451.921C102.491 431.583 134.1 411.943 166.28 391.985C163.999 381.151 162.352 373.484 160.515 364.804C118.834 353.526 80.0675 410.739 43.3275 377.602C58.5936 322.988 156.778 313.357 159.058 266.662C145.756 224.086 47.2549 239.862 19.7633 203.368C-13.366 159.397 4.49724 69.6184 18.4964 21.783C28.2515 20.4525 36.1062 19.4388 41.934 18.6785C80.4475 44.7187 60.2406 125.184 59.4171 162.502C86.0219 190.506 113.83 191.33 143.349 183.98C171.03 150.97 149.24 64.4232 147.72 24.761C156.968 9.93524 169.764 5.24687 186.106 10.6323C209.417 62.5859 186.677 124.487 219.426 177.264C255.216 181.192 291.702 188.732 330.786 175.68C338.767 117.137 325.148 57.0104 349.346 4.29649C420.989 -32.5146 381.208 207.232 370.503 227.127C354.477 233.399 339.084 239.418 324.515 245.12C319.257 264.698 314.506 282.439 310.959 295.68C284.861 322.734 241.533 304.551 225.697 342.059C224.557 351.626 227.914 359.608 235.705 365.944C260.156 360.242 284.101 353.019 307.665 344.339C317.927 354.223 327.809 363.727 336.423 372.027C325.021 407.127 266.744 425.945 237.859 439.313C218.792 481.129 248.564 526.621 210.684 560.2V560.137Z" fill="black"/>
</svg>
