<svg width="766" height="630" viewBox="0 0 766 630" fill="none" xmlns="http://www.w3.org/2000/svg">
<path d="M0.351562 583.939C57.1718 485.163 120.77 390.633 182.341 294.709C231.56 217.982 296.171 48.8796 375.479 0.410675C443.511 -3.7076 521.044 206.831 546.572 248.901C616.252 363.769 694.989 472.618 765.998 586.726C763.211 598.764 760.868 608.648 758.904 617.012C670.601 649.388 483.735 610.993 384.473 610.486C304.216 610.042 41.4619 652.619 0.414582 583.939H0.351562ZM315.301 199.862L317.201 198.088C228.139 294.456 129.195 430.802 87.0071 555.301C261.332 562.334 495.01 598.511 661.924 553.337C637.092 475.533 580.779 420.348 536.058 354.329C478.984 270.126 438.57 174.455 375.289 94.5607C345.327 127.57 325.626 160.897 315.301 199.862Z" fill="black"/>
<path d="M436.163 326.705C461.311 339.503 481.835 349.894 500.965 359.588C524.086 405.712 541.886 449.873 541.506 497.581C534.348 508.162 524.403 512.027 511.607 509.366C445.919 452.597 475.057 414.076 385.678 373.78C359.136 326.008 369.778 257.011 389.542 210.506C402.654 217.285 411.396 221.784 420.517 226.472C428.119 260.369 412.346 296.42 436.037 326.641L436.163 326.705Z" fill="black"/>
<path d="M315.302 199.862C326.387 205.311 337.472 210.759 350.205 217.032C363.127 270.253 345.518 321.002 345.011 374.096C324.867 380.622 307.258 386.388 290.978 391.647C249.867 422.946 260.826 490.232 228.583 530.338C177.337 516.272 227.443 394.878 233.144 366.113C253.161 354.202 274.255 341.657 294.525 329.556C302.253 284.825 309.728 241.425 317.202 198.088L315.302 199.862Z" fill="black"/>
</svg>
