<svg width="481" height="404" viewBox="0 0 481 404" fill="none" xmlns="http://www.w3.org/2000/svg">
<path d="M66.9466 375.879C59.0919 387.854 48.3866 392.162 34.7675 388.804C-3.23931 339.701 -9.19376 65.7408 16.2075 10.2391C81.3892 -13.9637 170.515 15.9413 237.724 18.9192C312.471 22.2138 388.168 20.313 463.041 21.2634C466.652 26.142 472.543 33.9985 480.588 44.7694C412.555 101.348 333.374 137.082 264.519 190.683C269.523 216.787 286.056 232.056 304.046 247.769C337.619 249.226 356.369 198.54 399.76 224.2C409.515 273.556 435.043 346.798 423.577 396.534C353.898 415.351 281.558 389.944 212.893 373.535C210.929 370.113 206.875 363.207 201.174 353.513C218.53 334.442 235.19 316.069 254.827 294.464C233.86 262.912 188.378 224.136 178.307 187.135C215.933 150.514 307.783 130.429 326.977 77.5888C268.193 47.4937 141.757 50.2183 77.7152 54.0198C27.2295 78.5394 68.0235 330.705 67.0099 375.879H66.9466Z" fill="black"/>
</svg>
