<svg width="737" height="714" viewBox="0 0 737 714" fill="none" xmlns="http://www.w3.org/2000/svg">
<path d="M736.057 361.91C638.633 491.35 512.261 599.756 395.58 711.266C344.587 732.871 254.131 614.708 221.635 589.999C180.651 558.827 20.0721 486.535 3.09577 435.025C-29.02 337.263 253.434 72.0464 329.258 7.42112C340.913 5.77381 357.129 3.42948 376.259 0.705078C435.423 71.9196 503.076 135.404 571.615 197.369C616.146 237.601 725.099 302.86 735.931 361.973L736.057 361.91ZM355.419 57.9809C248.113 149.787 120.537 284.549 53.9616 408.795C92.0951 438.003 125.604 468.541 168.425 482.353C190.089 472.216 201.745 458.911 203.265 436.419C194.777 412.596 160.697 400.051 170.009 362.036C195.03 321.36 324.19 166.64 380.82 177.728C391.272 186.344 403.878 196.798 415.66 206.492C435.867 200.727 447.459 190.653 446.255 163.726C419.714 132.807 389.942 98.2133 355.482 58.1076L355.419 57.9809ZM556.095 386.366C508.016 433.821 414.203 492.174 390.195 556.799C354.785 563.388 335.022 540.073 308.1 526.894C298.535 538.109 289.731 548.373 279.405 560.411C308.924 594.624 337.302 624.276 374.296 646.134C482.615 583.029 591.441 461.445 660.36 358.678C625.774 322.184 594.925 285.69 546.53 264.211C536.015 278.594 526.64 291.329 516.758 304.887C531.137 322.438 542.983 336.947 553.941 350.378L556.095 386.366ZM249.38 388.647C272.184 373.061 377.97 280.621 368.088 248.309C363.59 246.851 358.206 245.077 353.962 243.683C322.797 273.208 233.86 330.991 233.227 378.319C237.598 381.107 242.539 384.275 249.38 388.71V388.647ZM481.602 358.552C452.843 367.042 378.35 430.083 385.571 461.445C445.875 431.097 468.109 408.415 481.602 358.552Z" fill="black"/>
</svg>
