<svg width="384" height="904" viewBox="0 0 384 904" fill="none" xmlns="http://www.w3.org/2000/svg">
<path d="M206.874 303.323C259.893 388.729 300.687 581.782 154.994 597.494C65.2984 558.846 52.2495 317.071 160.632 294.706C170.514 296.543 184.83 299.204 206.874 303.259V303.323Z" fill="black"/>
<path d="M139.219 705.393C42.8719 659.015 41.6051 657.938 21.7148 601.613C25.7056 597.875 30.0763 593.756 36.284 587.991C86.6431 605.034 118.315 654.2 175.579 655.214C237.403 656.354 299.861 607.125 346.419 573.292C363.586 570.757 377.839 571.074 383.92 593.503C347.18 657.748 269.962 664.02 213.079 703.366C198.89 765.267 219.097 828.625 207.442 894.961C195.026 897.749 182.167 900.6 169.878 903.324C137.825 850.673 183.941 750.378 139.346 705.393H139.219Z" fill="black"/>
<path d="M186.097 179.837C236.266 204.04 287.258 211.833 313.799 257.071C308.541 279.056 292.959 276.142 279.846 275.445C252.671 261.569 226.7 248.264 205.227 237.303C116.734 250.165 91.3963 270.82 21.7805 318.782C14.1158 315.044 7.08446 311.559 1.51013 308.835C-7.1681 252.382 83.0981 215.318 120.661 192.192C143.909 142.71 128.706 55.4021 132.063 0.977539C145.873 1.54776 155.501 1.99128 165.003 2.37143C192.304 47.6725 182.549 128.771 186.033 179.837H186.097Z" fill="black"/>
</svg>
