<svg width="590" height="644" viewBox="0 0 590 644" fill="none" xmlns="http://www.w3.org/2000/svg">
<path d="M163.583 618.683C124.689 594.607 75.7237 614.691 38.477 590.235C12.0622 526.687 34.9298 383.688 26.695 306.517C17.3199 218.576 -9.53814 116.063 4.20766 28.8191C85.7323 5.44 180.433 20.2022 264.998 15.0702C364.449 9.1145 460.226 -13.3775 558.41 14.4367C578.301 109.347 571.459 226.053 574.753 322.801C578.047 419.232 600.091 538.218 583.685 632.622C567.025 636.677 553.533 639.971 539.47 643.393C525.598 627.11 513.436 612.854 500.703 597.965C446.67 574.649 215.145 590.995 163.71 618.62L163.583 618.683ZM502.92 512.051C503.237 373.36 518.567 205.208 480.434 72.5994C430.645 44.5951 105.559 57.7104 73.5702 93.6978C65.3987 224.786 70.2762 413.656 115.504 538.155C218.503 559.19 403.849 546.011 502.984 512.051H502.92Z" fill="black"/>
<path d="M201.335 127.151C271.521 125.883 343.86 125.82 403.278 179.738C424.245 246.518 405.748 296.824 349.688 334.268C323.274 341.301 297.049 348.334 271.711 355.05C242.635 401.491 271.077 452.748 252.834 502.294C240.799 504.892 227.56 507.806 218.185 509.834C159.337 474.163 153.003 172.198 201.335 127.151ZM259.802 279.527C315.292 282.505 323.844 274.395 331.382 215.218C312.695 197.985 290.588 191.903 264.11 197.035C248.4 223.582 254.608 249.369 259.802 279.527Z" fill="black"/>
</svg>
