<svg width="336" height="336" viewBox="0 0 336 336" fill="none" xmlns="http://www.w3.org/2000/svg">
<rect width="336" height="336" fill="white"/>
<path d="M306.716 265.356C307.06 266.799 306.936 268.504 306.923 270.03C306.813 273.37 307.184 276.627 305.122 279.857C299.912 288.201 292.724 294.95 284.573 300.393C263.446 314.495 235.626 320.117 212.094 326.055C208.479 327.169 205.634 329.643 201.785 330C171.628 327.938 140.509 332.007 110.902 324.681C80.291 316.09 49.0068 303.802 24.0317 283.665C21.2552 279.459 22.6572 273.191 22.3273 268.023C22.2311 260.6 25.3375 256.449 31.894 263.006C70.1745 299.266 110.366 315.403 162.776 316.763C197.071 317.739 245.206 310.812 277.769 289.644C287.143 283.569 295.294 276.297 301.548 267.72C302.648 266.03 305.823 262.882 306.661 265.219L306.716 265.356Z" fill="black"/>
<path d="M104.386 203.681C105.445 206.733 105.101 209.661 105.156 212.739C105.417 217.303 104.579 221.853 101.871 225.674C92.689 240.477 82.7512 242.759 67.8514 242.141C63.0405 241.811 59.1506 239.309 55.3982 237.44C51.8657 235.46 47.8658 234.127 44.9655 231.172C32.8697 214.1 36.3473 194.472 53.5013 181.497C56.8139 179.215 60.3602 179.146 64.0989 178.734C67.7964 178.376 71.81 177.565 75.6587 178.569C87.4383 182.679 98.0084 190.349 104.249 203.393L104.345 203.668L104.386 203.681Z" fill="black"/>
<path d="M27.6604 136.893C28.5126 127.766 47.3161 120.577 54.9859 115.863C58.2023 113.98 61.8586 113.375 65.5423 113.87C81.3218 115.519 96.7028 116.344 112.579 116.522C116.331 116.426 119.863 117.746 122.448 120.481C127.959 125.938 133.471 131.436 139.011 136.948C140.797 138.776 142.777 141.168 142.598 143.807C142.447 146.35 139.822 148.384 137.526 149.58C102.517 168.644 62.9994 166.143 31.3166 141.539C29.8184 140.412 27.9765 138.762 27.7154 137.113L27.6741 136.907L27.6604 136.893ZM41.227 135.546C40.8558 136.563 41.6943 137.841 42.4228 138.707C49.103 146.666 62.3534 150.556 72.7173 149.14C74.7516 148.892 76.7309 147.944 77.2945 145.855C78.1879 141.374 77.102 136.563 78.724 132.343C79.1913 130.845 79.6449 129.072 78.4491 127.835C70.4768 122.832 60.2504 126.845 52.6905 129.993C49.8865 131.189 47.0137 132.426 44.1547 133.47C43.0963 133.896 41.8043 134.378 41.2957 135.395L41.227 135.546ZM128.056 143.298C128.097 138.226 122.406 136.467 119.053 134.611C118.132 134.048 117.101 133.745 117.046 135.202C116.922 139.216 117.032 143.023 117.004 147.119C116.949 148.521 117.472 149.648 118.998 148.893C121.637 147.587 124.193 146.171 126.736 144.851C127.3 144.535 127.808 144.123 128.001 143.518L128.056 143.298Z" fill="black"/>
<path d="M190.239 143.779C190.692 142.432 191.82 141.319 192.988 140.425C199.063 135.917 205.441 131.216 212.231 126.213C214.939 124.069 218.252 122.79 221.619 123.739C235.255 126.845 258.924 123.23 273.15 122.543C276.092 122.364 278.745 123.478 281.012 125.361C288.504 131.615 296.132 138.116 304.132 144.851C305.493 146.047 307.719 147.752 307.486 149.552C285.356 169.648 195.971 186.032 190.17 143.972L190.239 143.766V143.779ZM205.207 146.35C205.139 147.463 205.95 148.618 206.774 149.484C213.771 156.672 225.056 159.174 234.705 157.648C236.877 157.346 238.567 155.93 238.842 153.69C239.254 147.518 238.925 141.126 238.993 135.45C238.952 134.281 238.691 133.03 237.811 132.288C236.327 131.079 234.004 131.299 232.148 131.271C225.44 130.927 221.757 131.601 216.781 136.054C213.62 138.487 210.334 140.989 207.256 143.367C206.348 144.095 205.386 145.003 205.235 146.157V146.35H205.207ZM279.528 137.223C278.841 137.594 279.061 140.068 279.019 141.786C279.019 143.752 279.019 145.979 279.019 147.71C279.006 151.944 278.277 154.721 283.926 154.212C286.882 154.02 290.703 150.707 290.414 147.188C290.222 146.281 289.493 145.662 288.779 145.003C287.157 143.477 285.727 142.13 283.968 140.48C282.868 139.642 281.012 137.127 279.665 137.154L279.528 137.209V137.223Z" fill="black"/>
<path d="M34.2716 53.9269C33.4057 53.2946 33.3507 51.3015 33.337 50.0369C33.337 39.9342 33.337 30.2713 33.337 20.7321C33.0896 15.2615 35.5087 11.3303 41.323 11.2891C45.4328 11.2204 49.9137 11.2204 54.3122 11.2891C55.0132 11.3303 55.6318 11.4128 56.1403 11.5503C58.6832 12.1413 57.5973 15.1378 60.1264 14.7942C62.2707 14.423 65.0335 12.2375 67.5076 11.6465C73.4868 10.4919 79.7821 11.2616 85.8163 11.1379C88.7303 11.1517 90.7096 13.2409 92.8264 14.6979C93.871 15.3715 95.273 15.4952 96.5788 15.399C103.96 14.8492 114.118 12.0726 122.324 11.1517C127.244 10.5469 125.485 13.076 122.722 15.4402C97.4035 37.8862 64.0713 35.7007 38.5877 52.3737C37.4331 53.1296 35.4125 54.5729 34.3954 54.0093L34.2854 53.9406L34.2716 53.9269Z" fill="black"/>
<path d="M191.861 12.76C192.988 12.004 194.514 12.004 195.875 11.9628C200.177 11.7154 204.232 12.4988 207.036 15.8939C232.712 45.5011 271.515 63.1638 309.754 71.5071C312.489 72.6617 312.874 76.428 312.228 79.1495C311.775 81.4312 309.919 82.4621 307.733 82.6271C285.769 84.3315 254.594 72.5793 234.856 61.803C219.077 52.0714 199.572 35.5771 192.342 19.9075C191.407 17.5708 190.143 14.0108 191.737 12.8562L191.861 12.76Z" fill="black"/>
<path d="M192.397 114.694C187.738 116.206 183.531 118.79 181.758 123.203C174.432 142.996 178.542 173.332 178.789 194.747C178.762 197.922 175.999 199.214 173.209 199.324C165.621 199.86 157.897 199.64 150.57 197.331C149.457 196.946 148.371 196.437 147.478 195.695C144.33 194.362 143.904 179.764 149.553 184.644C150.996 186.005 152.22 188.122 154.034 189.139C155.477 190.018 157.141 190.348 158.831 190.431C163.353 190.403 168.425 191.118 171.449 187.654C172.838 185.95 173.126 183.654 173.044 181.496C172.137 161.882 166.79 127.175 177.648 111.712C179.71 108.701 183.49 108.152 187.064 108.248C226.018 108.495 264.958 110.791 303.692 111.052C305.823 110.928 309.438 111.67 309.644 113.636C309.905 115.753 306.483 116.839 304.407 116.962C269.041 121.567 228.382 112.77 192.658 114.626L192.411 114.694H192.397Z" fill="black"/>
<path d="M272.793 204.575C272.793 214.513 261.453 228.299 250.965 227.461C247.735 226.829 245.069 224.767 242.251 223.117C238.416 220.574 234.389 218.458 230.348 216.478C222.155 211.613 223.736 201.345 227.97 194.197C229.413 191.063 231.433 188.383 234.622 187.173C243.447 184.314 254.855 181.937 262.594 188.562C266.553 191.984 268.972 196.507 271.515 200.74C272.133 201.867 272.6 203.049 272.765 204.314L272.793 204.561V204.575Z" fill="black"/>
<path d="M228.561 14.9042C229.248 14.1482 230.966 14.2994 232.066 14.2444C239.186 14.5468 247.639 12.7324 253.619 17.8594C270.498 30.505 287.006 41.1438 307.816 46.0371C311.981 47.1642 314.276 50.2707 313.933 54.7654C313.892 58.2292 311.335 59.9886 308.009 59.1639C281.15 54.463 251.9 35.1097 230.884 17.8731C230.046 17.1859 228.19 15.7014 228.506 14.9729L228.547 14.8904L228.561 14.9042Z" fill="black"/>
<path d="M163.972 12.2239C165.401 11.3992 167.161 11.3304 168.81 11.3167C174.047 11.2342 178.184 10.9868 176.123 16.7735C170.088 36.0994 157.525 55.6313 142.474 69.5553C140.55 71.191 138.227 71.4109 136 70.4762C133.622 69.5552 131.313 68.2357 130.832 66.4763C130.2 64.5108 131.519 61.9679 132.509 59.59C134.653 54.9028 137.292 50.738 140.426 46.1609C143.904 41.1164 147.794 36.0031 151.436 30.9174C155.079 25.8316 158.487 20.7596 160.989 15.8388C161.676 14.5056 162.501 13.131 163.779 12.3338L163.972 12.2239Z" fill="black"/>
<path d="M137.018 220.629C134.901 216.505 137.238 213.756 141.554 214.059C156.99 214.059 172.357 214.045 188.287 214.059C190.212 214.073 192.384 214.457 193.016 216.396C193.648 218.65 193.95 222.512 192.48 223.9C191.545 224.863 189.703 224.918 188.274 224.863C175.339 223.955 147.134 228.34 137.128 220.808L137.004 220.629H137.018Z" fill="black"/>
<path d="M111.726 47.6452C109.073 47.549 106.709 45.0749 105.843 42.8894C105.321 41.3637 106.201 39.8517 107.204 38.6421C114.352 30.1063 128.22 21.5705 137.237 14.1206C139.492 12.1412 142.323 11.0691 145.32 11.0966C147.89 11.0966 150.941 10.9454 152.22 11.564C153.319 12.0588 153.154 13.1309 152.742 14.0518C148.838 22.9588 136.303 34.1612 117.54 45.556C115.877 46.5594 113.733 47.6315 111.987 47.6315H111.712L111.726 47.6452Z" fill="black"/>
<path d="M273.92 15.8113C274.745 15.0554 276.614 14.9042 277.934 15.0554C283.721 15.5227 289.411 17.7219 294.758 17.4883C296.572 17.4333 298.387 17.4333 300.119 18.0518C302.181 18.7666 303.94 20.2098 305.741 21.4194C309.466 23.8798 313.094 26.1753 312.833 30.7662C312.599 33.2541 313.891 38.9308 310.29 38.8621C302.304 37.9137 284.38 25.4055 275.913 20.0449C274.566 19.2339 272.367 17.4608 273.81 15.9213L273.934 15.8113H273.92Z" fill="black"/>
<path d="M148.014 240.958C146.832 239.309 146.955 235.818 148.302 234.498C149.045 233.728 150.295 233.412 151.423 233.357C158.818 233.027 165.786 238.141 173.456 238.333C174.391 238.416 175.738 238.374 176.205 239.048C176.549 239.515 175.999 240.601 175.614 241.233C174.652 242.883 173.401 244.683 171.724 245.247C170.666 245.659 169.456 245.618 168.315 245.439C162.68 244.491 157.003 243.515 151.409 242.567C150.227 242.374 148.838 241.976 148.151 241.123L148.014 240.958Z" fill="black"/>
</svg>
