<svg width="597" height="765" viewBox="0 0 597 765" fill="none" xmlns="http://www.w3.org/2000/svg">
<path d="M33.8781 158.293C91.2432 137.645 223.137 99.8318 275.578 157.589C306.565 191.709 286.622 286.119 289.858 330.123C263.585 309.159 297.174 296.355 242.235 310.179C242.235 310.144 278.814 289.637 274.593 282.918C275.824 284.853 171.892 304.762 169.958 316.37C169.043 321.822 247.933 308.877 243.255 309.335C163.345 404.941 14.2523 145.313 19.6687 338.002C21.9549 419.714 24.03 501.848 28.8486 583.384C30.8533 617.398 61.8748 747.862 33.6319 764.184C48.4392 755.601 16.1164 500.335 14.3578 466.18C7.18277 328.153 3.34905 190.373 0.183594 52.2048C12.564 48.1597 7.49931 109.188 14.1819 113.656C31.6271 125.299 60.7141 94.9777 76.8228 86.7819C132.394 58.4308 147.764 30.4666 213.184 41.9689C258.731 49.9888 261.51 45.9436 273.222 86.6411C289.612 143.554 279.834 120.867 250.219 116.083C182.901 105.249 73.2353 71.5159 34.7222 158.996C32.1899 160.192 29.6575 161.388 27.1251 162.584C30.3258 164.026 32.6119 162.584 33.9485 158.293H33.8781ZM205.376 53.2248C200.029 47.1043 195.527 46.7527 191.87 52.2048C196.407 53.8229 201.12 53.8932 205.973 52.3806C212.023 59.6619 220.112 59.0991 228.307 58.079C232.915 63.7422 239.07 63.8829 245.506 62.9684C248.039 70.9883 251.802 72.7119 256.832 68.1391C255.003 63.496 251.028 62.0538 244.909 63.8125C240.16 58.7122 234.287 57.5865 227.674 58.9584C222.082 49.848 213.465 52.451 205.34 53.2248H205.376ZM217.439 289.25C207.591 287.28 201.647 289.566 199.572 296.179C205.798 299.732 211.46 297.199 216.63 288.546C222.997 290.27 227.217 288.581 229.292 283.446C224.65 283.305 220.675 285.24 217.404 289.215L217.439 289.25ZM168.586 265.084C172.912 268.672 177.344 269.516 181.846 267.617C178.786 262.481 174.178 261.919 168.023 265.964C138.338 236.804 60.9604 257.803 39.189 210.915C58.85 209.473 132.676 257.803 98.77 186.714C86.0378 160.087 34.265 172.222 40.3849 211.724C0.35945 208.03 32.2954 229.909 45.6606 240.427C73.6925 262.446 134.047 276.059 168.621 265.084H168.586ZM226.971 242.854C229.011 242.291 230.734 246.442 232.95 243.276C230.734 243.381 228.519 243.522 226.303 243.628C236.256 232.618 248.039 224.914 263.127 223.05C265.941 226.497 268.544 226.955 270.971 224.528C268.157 224.352 265.343 224.141 262.494 223.965C278.181 200.538 272.624 188.895 247.687 177.956C200.205 157.132 227.78 178.905 213.043 196.001C205.2 205.111 189.9 233.849 190.498 244.894C201.331 251.261 213.5 250.627 226.971 242.889V242.854ZM253.983 274.933L256.48 273.526L253.737 272.788L253.983 274.933Z" fill="black"/>
<path d="M378.631 25.0844C386.58 16.1148 428.751 -2.28172 441.553 1.05991C456.325 4.89399 446.723 31.2401 463.465 41.4057C474.228 47.9483 539.401 80.7315 549.003 80.5204C582.17 79.7466 563.001 72.5709 575.03 31.7326C608.056 79.9224 599.193 242.713 578.301 298.078L579.11 298.676C577.07 279.365 581.537 254.848 564.795 245.105C564.443 244.894 471.871 272.717 467.826 275.039C442.221 289.847 414.682 348.906 365.336 302.159C376.696 303.038 424.143 311.797 433.78 298.184C436.172 294.807 339.274 275.742 339.063 277.466C337.55 290.445 361.221 292.908 366.497 302.862C370.577 303.354 328.476 301.103 330.129 307.189C316.131 255.516 320.211 201.065 318.558 149.253C317.96 131.067 295.837 37.2902 327.843 54.1039L327.315 53.3652C324.924 85.8318 428.575 12.738 430.966 18.1902C425.972 6.82861 366.567 26.8433 377.681 24.2755L378.631 25.0141V25.0844ZM369.24 209.437C454.567 184.287 291.546 127.725 354.011 204.513C347.82 203.809 341.63 203.141 335.405 202.437C310.468 201.452 414.33 246.019 384.399 235.326C406.381 243.17 434.519 249.994 457.978 249.783C479.996 249.572 575.241 230.226 568.945 196.071C559.273 190.126 548.335 190.689 536.2 197.724C556.354 174.93 516.821 143.625 497.019 155.725C472.434 170.709 489.105 210.176 515.238 207.045C485.131 243.135 400.719 237.19 369.24 209.437ZM417.777 118.615C445 115.801 474.298 115.238 500.958 122.871C514.359 126.705 550.726 153.227 558.57 150.73C581.888 143.273 570 140.142 550.726 116.153C520.83 78.9727 459.456 62.7218 414.823 71.4101C396.146 75.0331 299.072 116.962 329.566 148.092C329.039 147.564 408.457 119.565 417.777 118.615Z" fill="black"/>
<path d="M268.369 631.256C263.656 611.734 262.425 592.142 264.606 572.444C297.913 596.539 287.291 530.234 286.025 515.425C303.646 530.128 282.051 565.092 299.707 580.886C327.915 606.106 336.18 554.715 335.899 540.821C347.857 552.992 356.298 584.122 350.46 592.353C342.37 603.714 313.952 586.478 305.053 594.463C280.996 615.99 316.062 616.166 319.227 623.236C318.805 622.322 341.702 640.261 345.36 647.718C354.891 667.24 352.816 689.26 340.436 705.687C320.81 731.787 295.451 688.662 292.286 746.455C285.744 728.726 289.155 599.739 279.307 600.337C268.545 605.403 265.872 615.287 271.253 629.99C270.268 630.412 269.283 630.834 268.299 631.256H268.369Z" fill="black"/>
<path d="M578.3 298.114C586.742 329.174 602.85 751.486 587.339 752.119C564.9 753.069 572.778 329.631 579.144 298.712L578.335 298.114H578.3Z" fill="black"/>
<path d="M377.295 738.26C370.261 706.039 364.915 672.271 365.196 637.94L377.295 738.26Z" fill="black"/>
<path d="M331.292 359.143C333.227 375.218 335.161 391.293 337.131 407.579C327.036 406.629 329.217 366.213 328.514 358.932C329.428 359.002 330.343 359.072 331.292 359.143Z" fill="black"/>
<path d="M462.129 415.668C455.341 401.774 455.271 387.071 452.316 369.202C463.782 381.232 467.053 396.709 462.129 415.668Z" fill="black"/>
<path d="M162.925 678.039C164.543 691.581 166.196 705.124 168.763 726.546C160.99 706.109 161.694 692.426 162.925 678.039Z" fill="black"/>
<path d="M265.098 662.316C276.388 670.618 279.202 683.386 273.539 700.657C265.731 694.502 265.871 668.789 265.098 662.316Z" fill="black"/>
<path d="M157.438 506.842C159.83 526.645 161.166 537.69 162.503 548.7C161.975 549.791 161.447 550.916 160.92 552.007C157.121 540.153 156.418 528.017 157.473 506.842H157.438Z" fill="black"/>
<path d="M282.225 366.282C293.058 378.277 287.043 388.97 292.319 401.668C281.662 389.744 286.094 379.297 282.225 366.282Z" fill="black"/>
<path d="M286.552 431.11C288.768 440.995 289.823 451.019 289.682 461.15C283.07 455.416 284.406 438.145 284.09 431.392C284.899 431.286 285.743 431.181 286.552 431.075V431.11Z" fill="black"/>
<path d="M339.555 495.27C332.309 484.295 333.892 474.341 333.787 463.718C340.786 469.1 339.273 489.571 339.555 495.27Z" fill="black"/>
<path d="M165.209 635.724C160.989 626.79 158.562 617.468 161.551 605.403L165.209 635.724Z" fill="black"/>
<path d="M463.783 502.163C467.652 509.902 467.934 517.113 464.592 523.901C459.879 518.344 458.578 511.449 460.583 503.183C461.638 502.831 462.693 502.515 463.748 502.163H463.783Z" fill="black"/>
<path d="M463.57 646.769L460.791 623.659C467.438 631.855 464.484 639.418 463.57 646.769Z" fill="black"/>
<path d="M465.434 702.626C465.118 704.877 464.836 707.163 464.52 709.485C461.178 702.731 461.565 701.465 462.691 693.762C464.449 696.47 465.364 699.425 465.434 702.626Z" fill="black"/>
<path d="M153.85 366.178C150.051 359.389 149.664 352.741 152.724 346.163C155.749 352.495 156.136 359.178 153.85 366.178Z" fill="black"/>
<path d="M464.309 584.685L462.516 569.771C462.867 569.735 463.254 569.7 463.606 569.63L465.4 584.544C465.048 584.579 464.661 584.614 464.309 584.685Z" fill="black"/>
<path d="M354.751 754.229C353.027 745.013 351.339 739.174 352.148 730.169C355.173 738.119 354.469 745.576 354.751 754.229Z" fill="black"/>
<path d="M156.733 449.823C153.251 443.456 152.618 437.089 154.904 430.688C157.717 436.738 158.351 443.104 156.733 449.823Z" fill="black"/>
<path d="M356.862 35.3545C362.067 27.5809 370.333 26.2442 378.668 25.0834L377.719 24.3447C372.654 32.5053 364.142 33.3144 355.877 34.6159L356.897 35.3193L356.862 35.3545Z" fill="black"/>
<path d="M327.844 54.2094C330.693 48.089 336.285 46.2599 342.229 44.9233L341.631 44.0791C338.923 50.3403 333.683 52.8377 327.281 53.506L327.809 54.2446L327.844 54.2094Z" fill="black"/>
<path d="M342.229 44.9235C344.937 38.4161 350.705 36.6222 356.825 35.3559L355.805 34.6523C353.413 41.3004 347.751 43.0592 341.631 44.0441L342.229 44.8883V44.9235Z" fill="black"/>
<path d="M514.43 207.96C520.409 200.784 528.815 198.674 537.397 196.915C532.086 205.498 522.59 205.322 514.43 207.96Z" fill="black"/>
<path d="M352.885 203.844C358.688 205.919 364.456 207.994 370.26 210.105C364.456 208.03 358.688 205.954 352.885 203.844Z" fill="black"/>
</svg>
