<svg width="616" height="654" viewBox="0 0 616 654" fill="none" xmlns="http://www.w3.org/2000/svg">
<path d="M513.516 539.599C508.653 545.885 503.791 552.171 498.928 558.458L499.414 559.131C476.597 540.797 443.381 539.899 413.643 556.774H413.755C402.085 561.975 390.452 567.176 378.781 572.377C379.005 573.424 379.23 574.435 379.454 575.482C413.306 577.69 447.159 579.898 481.011 582.105L480.3 581.731C475.849 586.745 471.36 591.759 466.011 597.783C458.867 583.49 445.662 583.003 433.618 581.17C413.044 578.064 380.39 582.367 370.215 589.215C385.589 591.385 400.065 593.405 414.541 595.426C392.658 597.746 370.701 592.545 346.163 602.198C361.687 615.033 378.033 604.181 392.621 612.638C376.873 613.723 362.248 609.195 346.949 618.812C351.999 621.955 355.066 625.135 358.582 625.771C365.951 627.118 373.544 627.193 381.063 627.642C390.975 628.241 400.289 627.979 406.835 618.213C411.96 610.58 416.598 615.407 422.171 621.693C395.052 639.69 364.941 643.919 334.38 646.613C332.186 633.716 324.667 628.378 311.825 630.598C313.358 627.418 314.855 624.2 318.558 616.417C303.409 623.489 292.524 628.615 281.601 633.704C280.928 632.282 280.217 630.823 279.544 629.401C294.207 621.955 308.87 614.509 323.496 607.063C322.972 605.528 322.448 604.032 321.887 602.498C315.79 603.583 309.581 604.331 303.558 605.828C294.095 608.223 284.781 611.141 275.392 613.835C288.521 607.212 301.613 600.589 314.743 593.967C308.945 591.347 303.221 590.711 298.022 592.021C282.761 595.912 267.686 600.552 252.537 604.93C256.876 601.151 261.215 597.371 265.554 593.592C265.068 592.47 264.582 591.347 264.095 590.225C248.609 596.698 233.123 603.171 217.638 609.644C223.361 605.154 228.485 599.242 234.956 596.474C247.936 590.861 261.739 587.044 275.055 582.217C278.459 580.983 281.489 578.625 286.838 575.52C266.826 567.4 251.751 571.778 237.388 581.319C242.55 576.792 243.223 571.067 236.378 569.346C230.355 567.849 223.061 569.383 216.815 571.179C205.481 574.435 194.483 578.85 183.374 582.741C184.197 580.01 184.982 577.316 185.992 573.873C175.519 571.067 167.963 572.227 159.958 585.361C170.656 583.939 177.352 583.041 184.01 582.143C181.84 586.259 179.633 590.375 176.416 596.474C196.241 590.375 213.298 585.136 230.393 579.86C218.46 588.99 200.955 589.402 191.229 603.62C199.982 613.087 209.895 608.709 219.021 608.859C216.253 611.665 213.448 614.509 210.68 617.315C214.421 618.063 218.086 619.074 221.864 619.485C223.136 619.635 224.52 618.363 225.867 617.727C229.084 632.132 229.345 632.244 248.721 626.969C248.534 629.775 247.076 633.891 248.385 635.2C258.709 645.378 277.898 646.725 290.84 639.316C297.873 635.275 305.391 632.095 312.685 628.54C307.411 633.517 302.174 638.53 294.319 645.977H334.942C294.057 662.29 255.829 651.514 219.77 632.095C187.189 614.546 157.751 591.909 127.789 565.529C141.367 557.597 153.113 550.151 165.382 543.64C186.628 532.303 207.426 519.544 229.794 510.975C261.963 498.627 293.87 503.08 324.505 522.948C330.528 517.972 336.7 513.706 341.862 508.468C367.073 482.762 398.606 476.663 432.009 482.575C463.205 488.076 493.803 497.355 524.551 505.288C527.843 506.148 530.573 509.254 533.753 511.461C532.107 525.717 522.119 532.827 512.88 540.497C512.693 534.061 511.945 527.663 503.304 528.449C490.325 529.609 477.083 530.357 461.298 540.011C482.021 540.572 497.619 553.743 513.554 539.749L513.516 539.599ZM481.572 511.948C489.277 512.472 497.02 513.033 507.419 513.744C496.871 501.359 489.24 510.676 481.46 512.023C482.32 508.954 483.143 505.849 484.527 500.872C470.986 503.379 464.403 509.553 463.505 522.724C469.49 519.132 475.512 515.577 481.572 511.985V511.948ZM234.059 545.324C242.363 549.44 250.929 553.182 258.933 557.859C266.265 562.124 273.035 566.016 280.591 558.757C285.08 560.703 289.568 562.686 295.067 565.08C294.581 561.152 294.169 557.709 293.758 554.304C298.621 559.43 303.109 565.043 308.496 569.533C311.563 572.077 316.164 572.714 320.054 574.248C308.571 552.321 294.656 534.211 280.554 516.251C278.796 514.006 276.103 512.023 273.409 511.012C266.714 508.468 263.796 512.434 262.487 518.384C255.866 516.7 249.245 515.016 237.5 512.06C246.477 524.894 252.2 533.089 257.923 541.283C250.891 536.082 244.121 530.395 236.64 525.904C233.086 523.772 228.186 523.884 219.882 522.125C226.54 532.789 230.655 539.412 234.807 545.998C227.887 541.62 221.154 536.98 214.046 532.939C207.949 529.459 201.927 529.309 193.548 537.691C211.129 546.596 226.353 554.304 241.577 562.012C242.55 560.703 243.485 559.43 244.457 558.121L234.059 545.287V545.324ZM380.726 535.67C382.522 538.701 384.354 541.732 386.973 546.11C392.023 541.62 395.314 536.98 399.766 535.221C403.805 533.65 409.154 535.857 413.793 535.221C416.448 534.847 419.591 532.714 421.124 530.469C429.391 518.346 437.246 505.924 445.55 493.127C422.583 481.752 422.77 506.485 409.267 514.455C414.092 504.165 417.608 496.644 421.536 488.225C403.918 482.8 402.534 499.488 393.781 504.427C394.23 499.862 394.716 495.26 395.726 485.007C387.123 492.341 381.96 499.75 378.744 498.964C360.265 494.549 361.986 509.404 358.432 518.833C354.729 528.673 351.475 538.739 348.856 548.916C347.734 553.294 348.669 558.196 348.669 567.924C354.841 559.543 358.769 551.722 360.564 552.171C375.714 556.1 374.779 541.882 380.726 535.633V535.67ZM433.132 526.017C451.011 526.428 456.66 521.452 466.273 496.869C449.665 495.11 441.884 501.957 433.132 526.017ZM354.28 514.006L348.445 512.247C341.6 521.714 335.952 531.554 344.742 545.773C347.921 535.184 351.101 524.595 354.28 514.006ZM159.995 554.828C166.728 563.546 173.012 566.091 182.85 557.784C175.519 551.236 169.758 545.623 159.995 554.828ZM202.974 556.998C204.77 555.427 205.593 555.053 205.78 554.491C205.967 553.893 205.78 552.695 205.368 552.433C199.084 548.542 194.596 540.123 183.523 547.345C190.182 550.637 196.84 553.967 202.974 556.998ZM362.435 638.082C362.21 635.949 361.986 633.816 361.761 631.683C357.31 632.394 352.821 633.105 348.37 633.816C348.595 635.575 348.819 637.333 349.043 639.129C353.495 638.792 357.946 638.456 362.397 638.119L362.435 638.082Z" fill="black"/>
<path d="M400.549 65.5969C459.575 35.3637 532.179 50.1062 560.159 96.3913C554.323 96.6907 549.236 98.1874 544.897 96.9526C512.653 88.0473 481.307 94.5579 451.158 104.623C428.416 112.219 406.346 122.958 385.699 135.193C359.253 150.833 349.639 178.298 342.906 207.034C314.89 210.514 286.648 214.031 259.978 217.324C244.268 200.299 230.69 181.74 213.446 167.634C168.11 130.553 102.201 125.24 53.1998 168.195C44.185 176.09 37.8262 189.56 20.3203 188.775C22.4524 173.433 28.0632 160.45 35.694 148.476C63.2994 105.147 104.221 83.5946 154.232 78.0943C166.165 76.7847 178.359 77.7201 190.441 77.9446C219.281 78.5059 242.697 90.8161 262.821 110.909C269.741 117.831 278.12 123.257 285.676 129.58C298.768 140.544 301.237 140.993 310.925 127.971C331.049 100.956 359.627 85.3532 387.906 69.2264C391.758 67.0562 396.546 66.5323 400.848 65.2975C393.928 75.0635 387.12 84.792 380.275 94.5205C379.265 91.8639 378.255 89.2446 376.572 84.8668C363.143 95.4933 365.163 106.157 371.821 117.457C373.392 121.386 374.963 125.352 376.385 128.982C393.591 127.261 398.604 112.593 408.105 103.239C409.489 106.082 410.835 108.926 412.93 113.192C421.571 104.249 428.528 97.0274 435.523 89.8059C434.85 93.2483 434.214 96.6907 433.541 100.096C434.438 100.619 435.298 101.181 436.196 101.705C445.622 91.1155 455.049 80.5638 464.512 69.9747C463.502 68.8896 462.492 67.7671 461.482 66.682C452.617 74.6145 443.715 82.5844 434.85 90.5168C440.124 80.8632 445.398 71.1721 450.672 61.5184C449.475 60.6204 448.278 59.7224 447.081 58.787C440.049 64.7363 432.979 70.6482 425.947 76.5976C425.423 72.8559 424.9 69.1141 423.965 62.379C417.007 70.0495 412.332 75.2131 408.03 79.9277C405.411 74.8764 402.98 70.1618 400.586 65.4846L400.549 65.5969ZM63.8979 133.584C71.0424 134.37 78.2242 135.156 85.3687 135.941C85.5931 134.445 85.855 132.911 86.0794 131.414C79.7578 128.832 73.4363 126.213 66.1422 123.257C65.3567 128.458 64.9078 131.264 64.6459 134.183C61.6909 135.605 58.7358 137.027 55.7808 138.448L56.2296 141.629C60.2695 142.078 64.3467 142.527 70.5186 143.238C67.2269 138.448 65.5811 136.016 63.8979 133.584ZM171.477 109.338C177.91 114.501 177.424 126.213 188.421 128.196C185.242 94.7449 181.277 86.9248 167.661 88.197C169.12 95.5307 170.541 102.79 171.925 110.011C164.295 103.95 165.866 87.8228 147.574 88.9079C154.158 101.031 155.13 113.678 169.868 119.178C170.541 114.913 170.99 112.144 171.439 109.375L171.477 109.338ZM271.686 176.277C274.379 185.706 272.472 196.483 282.122 204.602V141.03C279.392 142.564 277.447 143.687 275.464 144.809C274.379 140.693 273.332 136.578 272.247 132.499C267.572 139.197 267.833 145.483 266.487 151.357C265.701 154.8 262.298 157.643 259.904 160.562C261.587 146.98 267.534 133.472 261.138 118.842C257.547 120.451 254.891 121.648 252.273 122.808C251.3 118.505 251.861 112.481 249.168 110.198C232.036 95.7552 213.969 82.6592 188.346 87.0744C185.13 103.239 195.304 117.046 197.249 132.125C199.606 150.16 219.917 147.204 226.837 160.225V136.054C230.914 152.143 233.682 163.144 237.423 177.924C238.919 169.318 239.667 164.977 240.827 158.28C243.482 163.63 244.679 166.025 247.335 171.376C249.43 152.854 251.15 137.475 252.946 122.022C250.589 136.016 254.068 148.85 260.502 161.161C248.757 172.872 249.505 180.318 263.195 188.4C263.906 193.901 260.277 201.235 271.649 201.684C268.694 197.418 265.739 193.152 262.746 188.887C262.26 182.227 260.614 174.743 271.649 176.165L271.686 176.277ZM139.532 117.906C149.033 120.338 152.138 134.632 169.232 132.312C157.449 116.26 147.761 102.827 137.587 89.8059C136.764 88.7582 132.425 90.4794 128.198 91.1529C132.612 101.293 136.353 109.974 140.093 118.58C129.395 114.015 129.807 94.9695 113.385 96.3165C113.161 99.3847 112.376 101.443 113.012 102.116C121.091 110.535 129.395 118.804 138.784 128.196C139.121 123.444 139.308 120.675 139.495 117.906H139.532ZM335.051 116.372C325.401 116.933 322.147 123.93 321.847 131.676C321.211 149.412 321.66 167.185 321.66 184.958C335.313 163.181 330.899 138.785 334.79 115.811C336.884 119.216 338.941 122.658 341.036 126.063C342.196 125.577 343.393 125.053 344.552 124.566C343.243 120.413 341.934 116.222 340.625 112.069C338.792 113.528 336.922 114.95 335.089 116.41L335.051 116.372ZM338.381 195.023C339.166 189.635 339.54 184.21 340.812 178.934C342.196 173.209 342.981 164.004 346.423 162.695C361.946 156.858 360.188 143.5 360.45 132.312C360.712 120.451 367.407 107.841 359.216 94.1089C339.166 108.926 352.071 129.281 346.498 145.109C333.929 150.908 331.76 161.011 338.418 195.023H338.381ZM301.873 204.003C310.326 187.128 311.224 155.473 303.107 151.769C300.713 155.585 298.282 159.514 295.775 163.481C294.429 160.338 293.082 157.269 291.624 153.827C279.99 168.681 284.965 183.312 289.865 200.075C292.484 195.472 294.055 192.703 295.626 189.972C297.496 194.163 299.366 198.316 301.873 203.929V204.003ZM125.505 128.271C117.425 116.971 111.029 103.314 91.1666 103.501C99.6951 118.954 108.373 129.131 125.505 128.271ZM315.825 175.828C315.152 175.828 314.441 175.866 313.768 175.903V192.404C314.441 192.367 315.152 192.329 315.825 192.254V175.791V175.828Z" fill="black"/>
<path d="M145.629 447.478C145.33 459.339 144.731 471.163 144.956 483.025C145.03 486.205 147.686 489.311 149.182 492.454C152.137 490.882 157.561 489.423 157.674 487.664C158.459 475.017 168.895 484.933 175.329 476.626C147.35 523.622 84.9569 537.729 48.5612 508.73L47.9253 509.254C72.0519 496.981 96.9268 486.991 124.195 484.259C125.018 484.184 125.617 481.977 126.702 480.031C119.183 469.966 108.41 472.398 98.1985 472.922C104.296 470.378 110.393 467.833 116.527 465.289C115.106 454.176 107.737 452.567 99.9192 453.315C93.2236 453.989 86.4905 455.785 80.2064 458.179C64.7953 464.017 49.6086 470.49 34.3471 476.739L34.983 477.3C47.8505 470.153 60.4563 462.445 73.7353 456.084C82.2264 452.006 91.6899 449.873 101.977 446.468C97.5252 434.457 89.1464 433.933 81.4034 435.692C70.5558 438.161 60.0821 442.464 49.4589 445.944L50.0201 446.356C50.282 443.4 50.5438 440.444 51.0675 434.644C40.7061 437.937 31.8409 440.706 21.891 443.849C35.5815 430.229 55.8554 424.055 86.1165 424.541C82.2264 419.49 80.1317 414.663 76.4285 412.418C69.8825 408.377 64.3464 405.459 63.2991 396.067C62.2517 386.825 54.0972 384.767 45.7184 388.097C31.8409 393.597 18.1505 399.472 5.32031 404.823C15.6069 361.344 32.215 330.362 110.505 303.122C108.71 300.615 107.625 297.921 105.642 296.425C66.9274 267.202 67.9374 214.967 107.961 187.952C115.48 182.901 123.522 178.635 131.49 174.22C134.744 172.424 138.26 170.216 141.814 169.842C167.1 167.41 187.897 177.438 204.692 195.286C219.767 211.3 219.243 230.982 213.782 250.776C204.618 283.89 177.835 295.414 148.397 303.347C143.422 304.694 138.148 304.843 130.779 305.816C146.227 317.64 159.881 328.08 175.666 340.203C165.903 344.057 159.544 330.923 153.933 341.512C158.459 336.012 156.177 331.41 150.978 328.978C148.547 327.855 144.207 329.389 141.365 330.886C138.223 332.532 135.791 335.526 133.061 337.92L133.322 338.369C135.081 332.233 141.215 325.947 133.734 319.997C127.749 315.208 123.148 319.062 117.724 322.692C115.517 324.151 109.57 319.998 103.735 317.79C99.807 322.018 95.2809 326.882 90.7174 331.747V319.212C67.0521 333.979 58.0124 347.013 63.5983 358.313C67.3762 353.898 70.7802 349.894 74.1467 345.965C74.7078 353.561 75.2689 360.969 75.7925 368.341C74.4459 369.95 71.7153 371.82 71.9398 373.167C75.83 396.067 87.725 414.439 104.707 431.763C106.877 427.834 108.223 425.365 109.532 422.97C110.393 429.106 111.291 435.579 112.562 444.634C117.911 439.957 121.091 437.151 124.27 434.345C120.866 448.451 120.156 461.884 134.033 473.184C138.26 464.204 142.113 456.047 145.966 447.852L145.704 447.441L145.629 447.478ZM188.571 209.317C189.88 204.116 191.189 198.953 192.536 193.752C183.184 197.83 174.843 202.283 189.207 208.756C196.351 216.614 196.8 216.501 202.972 202.807C197.286 205.388 192.91 207.371 188.608 209.28L188.571 209.317ZM64.4212 513.071C93.822 523.061 114.694 510.115 138.447 499.077C114.133 485.419 87.2761 490.358 64.4212 513.071ZM159.88 235.622C160.03 227.24 152.474 219.495 144.282 219.57C134.781 219.682 121.427 232.815 122.4 241.795C123.373 250.551 128.909 254.854 137.811 254.555C148.247 254.181 159.693 244.302 159.843 235.622H159.88ZM16.5795 387.798C37.0029 388.209 43.4367 385.029 50.0949 367.929C36.8907 375.525 23.4247 373.616 16.5795 387.798ZM165.267 213.957C172.898 202.17 183.371 196.558 176.189 181.703C166.052 189.898 163.135 198.429 165.267 213.957ZM196.875 267.763C191.663 261.128 184.992 259.182 176.863 261.926C185.167 264.321 191.039 266.042 196.875 267.763ZM190.665 236.707C199.082 241.646 205.553 242.02 211.425 230.72C202.111 233.414 196.388 235.06 190.665 236.707ZM138.522 275.359C132.948 287.893 131.602 293.955 146.003 298.745C143.272 290.176 141.626 285.087 138.522 275.359ZM196.538 222.526C196.875 223.723 197.211 224.883 197.548 226.08C201.176 225.219 204.767 224.322 208.396 223.461L206.488 218.148C203.159 219.607 199.867 221.066 196.538 222.563V222.526ZM153.297 295.04C154.681 294.367 156.102 293.693 157.486 293.057C156.364 286.946 152.138 281.171 144.806 275.733C148.771 284.788 151.015 289.914 153.297 295.078V295.04ZM95.8794 260.803C93.635 264.695 91.5403 266.94 91.2411 269.409C91.0915 270.756 94.0465 272.44 95.6175 273.937C97.1885 271.654 99.2833 269.522 100.106 267.015C100.443 265.93 98.1611 264.021 95.8794 260.803ZM166.501 277.342C165.267 278.651 164.07 279.961 162.835 281.271C165.192 283.366 167.511 285.574 170.055 287.444C170.354 287.669 172.037 286.06 173.047 285.274C170.878 282.618 168.671 279.961 166.501 277.304V277.342ZM96.7772 236.033L97.8619 230.832C94.7572 230.346 91.6525 229.747 88.5104 229.56C88.2112 229.56 87.7249 232.104 87.3509 233.489C90.493 234.349 93.6351 235.173 96.7772 236.033ZM84.0218 244.864C86.7524 246.697 88.099 248.156 89.7075 248.53C90.7174 248.755 93.2236 246.959 93.1114 246.66C92.5877 244.976 91.7274 242.431 90.5304 242.132C89.109 241.795 87.1639 243.442 84.0218 244.864ZM44.5588 349.071C45.9802 351.129 47.1024 352.738 48.2246 354.347C49.7208 353.261 52.601 351.989 52.4888 351.166C52.1521 348.921 50.5438 346.863 49.4216 344.768C47.9254 346.077 46.4665 347.387 44.5588 349.071ZM42.3519 361.119C38.7609 359.323 36.741 357.49 35.4318 357.864C33.7112 358.388 31.8035 360.558 31.3921 362.316C31.1302 363.364 34.0852 366.432 34.7585 366.208C37.0403 365.385 38.948 363.514 42.3893 361.082L42.3519 361.119Z" fill="black"/>
<path d="M440.049 444.858C432.194 439.545 424.339 434.195 415.549 428.245C412.332 431.837 408.928 434.756 406.609 438.348C388.916 465.887 362.47 478.833 331.236 483.473C301.087 487.963 272.472 484.109 246.288 467.122C226.613 454.4 209.219 427.048 217.86 401.155C222.61 386.937 227.211 382.708 241.874 381.885C247.149 381.586 252.498 381.885 257.734 381.212C266.637 380.127 269.891 375.786 269.629 365.871C268.769 332.607 268.545 299.418 258.969 267.052C257.323 261.551 258.744 255.115 258.744 247.146C284.853 236.482 311.823 235.883 339.054 237.455C340.027 280.522 343.019 320.671 349.939 359.547C368.231 359.547 383.193 359.397 398.155 359.584C407.881 359.697 410.836 352.55 413.604 345.478C419.327 330.811 428.08 319.024 442.78 312.401C434.626 321.232 431.334 330.885 437.693 342.185L437.992 341.849C433.466 340.352 428.977 338.818 425.274 337.583C413.978 352.737 413.529 366.918 420.711 382.334C425.237 392.1 427.706 402.839 431.072 413.166C429.987 416.833 427.145 421.211 428.229 424.092C431.11 431.575 435.71 438.423 439.638 445.532L440.124 444.933L440.049 444.858ZM292.97 376.048C298.394 377.171 303.818 378.256 311.524 379.865C298.918 362.915 290.876 358.275 276.475 358.948C282.534 365.197 288.108 370.922 293.681 376.684C289.903 377.395 286.125 378.106 276.624 379.865C289.005 386.562 296.337 390.491 303.668 394.457C304.229 393.41 304.828 392.399 305.389 391.352C301.237 386.263 297.085 381.137 292.933 376.048H292.97ZM326.374 367.704C323.83 375.599 321.287 383.532 318.743 391.427L322.82 393.597C327.197 388.995 331.61 384.392 335.987 379.79C332.284 393.073 319.94 403.812 323.157 424.167C330.114 418.442 334.079 415.149 338.044 411.856C317.995 429.368 322.184 451.93 324.204 474.044C336.585 476.738 346.087 475.279 352.857 463.605C356.111 457.992 362.47 454.138 367.408 449.498C365.35 454.699 363.33 459.9 360.712 466.523C388.804 456.907 409.003 430.902 404.926 407.741C396.809 416.908 390.038 424.578 383.23 432.249C386.821 425.851 390.337 419.415 394.041 413.091C397.033 408.002 400.661 403.176 402.943 397.788C403.28 396.964 397.893 393.709 394.976 391.427C397.37 387.198 400.624 381.474 404.963 373.766C400.063 372.793 396.509 372.905 393.779 371.446C377.844 362.877 377.357 362.952 367.221 374.701C359.403 383.756 351.248 392.549 343.281 401.417C349.49 394.308 355.064 386.937 353.867 376.085C346.722 377.769 341.037 379.154 335.314 380.576C336.698 374.439 338.044 368.34 340.139 358.986C333.556 363.289 329.628 365.871 325.7 368.415C329.142 361.006 332.471 353.523 335.987 346.152C339.129 339.641 343.206 333.243 336.922 325.235C324.242 333.355 321.474 346.152 317.546 357.901C315.302 364.636 320.314 367.18 326.336 367.667L326.374 367.704ZM328.955 294.853C330.675 287.669 332.359 280.522 334.079 273.338L329.404 271.804C325.738 278.838 322.035 285.873 317.06 295.377C324.092 294.553 327.01 294.216 329.89 293.88C324.466 308.211 311.037 320.147 316.274 343.458C326.822 328.191 334.977 317.228 337.708 303.309C338.83 297.659 336.772 292.57 328.955 294.815V294.853ZM224.443 406.206C219.244 420.874 226.875 424.129 233.159 427.908C260.128 444.11 287.21 460.2 314.367 476.401C321.773 445.794 320.576 442.426 296.973 428.694C278.083 417.693 259.156 406.768 240.191 395.917C237.423 394.345 234.318 393.372 231.363 392.138C241.351 417.357 267.983 421.473 283.17 440.294C264.131 429.255 245.091 418.18 224.443 406.206ZM304.417 330.025C303.17 309.42 296.823 297.434 285.377 294.067C288.781 299.53 291.811 304.319 296.786 312.252C287.098 307.762 281.487 305.142 275.839 302.523C275.278 303.533 274.716 304.581 274.193 305.591C283.095 312.775 291.96 319.922 304.417 329.988V330.025ZM251.076 446.954C261.176 462.482 276.4 468.88 292.035 474.53C292.783 473.146 293.569 471.799 294.317 470.415C279.916 462.594 265.515 454.774 251.076 446.954ZM280.739 338.182C279.804 339.791 278.906 341.362 277.971 342.971C286.013 349.819 293.419 357.751 305.202 358.088C306.062 356.591 306.923 355.094 307.783 353.598C298.768 348.472 289.753 343.308 280.739 338.182ZM291.362 270.457L294.467 265.705C289.38 257.398 283.058 251.037 270.34 254.704C277.335 259.942 284.367 265.218 291.362 270.457ZM294.541 288.342C295.701 286.621 296.861 284.862 298.02 283.141C292.933 280.035 287.809 276.93 282.721 273.787C281.898 274.984 281.113 276.144 280.29 277.341C285.04 281.008 289.791 284.675 294.504 288.342H294.541ZM254.518 401.118C256.612 399.022 258.707 396.927 260.802 394.794C257.323 391.988 253.882 389.144 250.403 386.338C248.495 388.396 246.55 390.454 244.642 392.512C247.934 395.393 251.226 398.237 254.48 401.118H254.518ZM302.397 256.874C304.117 257.173 305.838 257.435 307.559 257.735C308.082 254.592 308.793 251.449 308.98 248.306C308.98 247.894 306.736 247.295 305.539 246.771L302.397 256.874Z" fill="black"/>
<path d="M521.369 252.534C487.666 291.972 441.658 285.424 413.641 262.599C386.896 240.785 381.06 212.984 405.748 183.087C417.082 169.393 431.67 156.933 447.306 148.551C475.397 133.509 524.96 147.279 536.219 179.982C545.196 206.099 541.306 232.216 520.583 253.357C519.91 249.765 520.172 243.628 518.414 242.955C509.998 239.774 501.282 235.247 490.883 238.989C498.764 248.867 508.925 253.369 521.369 252.496V252.534ZM512.691 199.663C517.479 194.986 522.454 190.496 527.017 185.632C531.917 180.431 530.384 176.464 521.93 173.059C515.683 179.42 508.838 186.38 499.374 195.996C507.267 197.493 510.634 198.129 513.963 198.765C502.255 204.378 509.96 213.47 507.304 223.498C517.591 221.777 524.922 220.579 537.266 218.521C530.122 213.582 527.915 212.086 525.745 210.589C529.037 206.772 532.778 202.395 537.566 196.819C526.344 191.319 519.274 193.938 512.653 199.663H512.691ZM459.313 228.287C471.283 228.512 482.467 220.467 483.103 211.412C483.739 202.619 477.342 197.006 466.944 197.231C453.216 197.53 443.416 205.575 443.528 216.613C443.64 227.651 452.655 226.678 459.313 228.287ZM466.532 149.187V176.128C474.799 168.831 480.859 163.481 489.35 155.997C480.821 153.453 475.472 151.881 466.532 149.187ZM496.232 181.553C511.232 177.849 514.524 175.342 516.207 165.389C516.656 162.807 514.599 159.776 513.701 156.97C511.831 157.943 509.998 158.916 508.127 159.851C504.387 166.661 500.646 173.471 496.195 181.516L496.232 181.553ZM439.937 182.676C441.957 173.471 438.603 167.534 429.875 164.865C434.064 172.274 437.019 177.475 439.937 182.676ZM472.816 269.371C474.911 269.072 477.006 268.773 479.063 268.511C483.253 260.055 476.594 255.377 469.076 250.775C470.31 256.986 471.545 263.198 472.779 269.409L472.816 269.371ZM452.767 251.187C444.164 258.969 443.116 263.609 451.458 272.215C451.944 264.171 452.243 259.493 452.767 251.187ZM523.239 234.087C523.389 231.992 523.538 229.896 523.688 227.801H510.447C510.297 228.961 510.11 230.158 509.96 231.318C514.374 232.254 518.825 233.189 523.239 234.087ZM492.604 264.208L497.691 259.381C493.651 255.901 489.574 252.421 485.534 248.942C484.412 250.139 483.29 251.374 482.168 252.571C485.647 256.425 489.125 260.316 492.604 264.17V264.208ZM461.894 250.513C456.657 261.589 455.685 266.977 467.206 272.552C465.298 264.657 464.138 259.793 461.894 250.513ZM499.187 157.045C497.055 156.409 494.96 155.773 492.828 155.137C491.407 160.113 490.023 165.127 488.602 170.103C490.509 170.665 492.417 171.263 494.362 171.825C495.971 166.886 497.579 161.946 499.187 157.007V157.045Z" fill="black"/>
<path d="M471.472 295.077C496.945 285.723 521.82 275.545 550.248 277.005C595.471 279.362 618.438 317.752 614.997 356.367C614.137 366.17 614.174 376.31 611.593 385.664C599.249 430.228 570.297 457.356 520.024 465.999C494.738 470.34 468.255 471.986 446.11 453.614C443.492 451.444 442.033 447.777 440.051 444.784L439.564 445.382C452.731 444.11 453.218 443.362 447.981 432.81C449.477 434.27 450.973 435.766 452.469 437.225C460.175 427.46 466.908 436.215 475.661 440.556C481.983 423.269 488.566 407.591 493.279 391.389C495.336 384.317 497.693 385.141 502.331 387.573C505.286 389.369 508.84 393.447 510.972 392.811C542.468 383.382 573.776 373.354 605.122 363.364C605.496 363.252 605.571 362.092 606.506 359.098C601.568 358.5 596.668 356.629 592.554 357.676C567.829 363.925 543.178 370.436 518.752 377.769C512.618 379.603 507.456 384.729 501.845 388.321C505.473 373.055 503.565 355.656 519.65 345.216C521.857 343.795 522.605 337.995 521.969 334.59C519.239 320.035 515.76 305.629 512.842 292.533C496.907 293.506 484.189 294.291 471.434 295.077H471.472ZM530.834 299.792C532.48 301.326 534.089 304.057 535.772 304.132C545.123 304.544 545.647 296.649 546.582 290.512C546.919 288.23 543.066 285.349 541.121 282.73C538.166 286.396 534.911 289.914 532.405 293.843C531.321 295.564 531.732 298.22 531.433 300.391C528.889 299.343 526.346 298.258 522.867 296.836C520.136 307.2 517.892 315.881 530.834 323.028V299.754V299.792ZM580.846 422.408C597.229 416.122 597.267 400.145 601.905 386.899L601.718 387.311C604.486 381.661 604.823 375.973 597.005 376.011C588.065 376.048 578.788 377.096 570.297 379.678C550.098 385.814 530.161 392.811 510.373 400.108C492.344 406.768 489.539 412.119 489.95 436.627C501.845 432.773 512.992 428.807 524.363 425.551C538.091 421.622 551.894 418.068 565.809 414.85C572.841 413.241 579.723 413.615 581.369 423.007C579.985 422.446 578.564 421.361 577.18 421.398C544.188 422.633 514.039 435.579 483.03 444.784C479.663 445.794 477.643 451.294 472.033 458.479C508.204 449.498 538.951 442.239 569.4 433.895C573.926 432.661 577.068 426.374 580.883 422.408H580.846ZM533.864 342.111C556.943 337.508 581.22 339.043 602.279 328.079C599.586 317.341 593.339 317.341 587.354 318.688C568.128 322.991 548.378 326.358 533.864 342.148V342.111ZM600.633 346.713C600.409 344.58 600.184 342.41 599.997 340.277C575.422 339.978 552.38 348.809 529.001 355.132C524.961 356.217 521.894 360.819 518.378 363.813C519.126 365.347 519.874 366.881 520.622 368.453C547.293 361.194 574 353.972 600.671 346.713H600.633ZM546.171 316.742C571.345 317.191 577.255 315.432 589.748 305.292C571.532 298.707 558.664 307.388 546.171 316.742ZM555.372 286.733C555.036 289.016 554.699 291.336 554.362 293.618C560.422 301.176 566.033 299.68 575.272 288.529C566.183 287.706 560.759 287.22 555.372 286.733ZM523.69 454.587C524.026 455.597 524.401 456.608 524.737 457.618C528.216 456.495 531.695 455.335 535.173 454.213C534.724 453.016 534.313 451.818 533.864 450.621C530.46 451.93 527.056 453.278 523.652 454.587H523.69Z" fill="black"/>
<path d="M293.832 15.3083C312.535 4.23275 314.63 4.83143 332.286 24.251C325.777 23.5401 319.268 22.7917 312.76 22.0808C312.348 23.7646 311.974 25.4483 311.563 27.1321C313.62 28.0301 315.64 28.8907 317.697 29.7887C331.275 35.9626 332.847 45.7659 321.438 55.1576C315.041 60.4335 307.71 64.6991 301.65 70.3117C298.396 73.305 296.937 78.2441 294.693 82.2852C295.965 83.5948 297.199 84.9044 298.471 86.214C313.134 77.0468 327.797 67.8795 342.647 58.6C341.525 71.4716 337.298 84.1934 322.672 89.0951C310.702 93.0987 297.685 96.6534 285.304 96.2418C259.98 95.4186 247.263 81.8736 245.879 58.3755C244.083 27.6185 256.464 6.17844 279.244 0.977441C289.83 -1.41726 291.513 6.59004 293.907 15.3083H293.832ZM271.688 63.0901C272.025 71.3219 275.017 76.0739 288.072 75.4378C280.179 69.4885 275.915 66.308 271.688 63.0901ZM258.671 39.3302C257.549 40.7146 256.389 42.1364 255.267 43.5209C258.634 45.6537 262 47.7864 265.367 49.8818C266.003 49.0212 266.639 48.1232 267.274 47.2626C264.432 44.606 261.551 41.9493 258.709 39.2927L258.671 39.3302Z" fill="black"/>
<path d="M48.5622 508.73C27.8021 505.138 18.8247 488.375 9.21149 472.735C5.39611 466.524 3.33882 459.265 0.458581 452.455L0.271484 452.791C4.94719 457.431 12.1665 461.323 13.775 466.86C17.4407 479.432 25.67 478.422 34.9466 477.262L34.3106 476.701C33.6748 482.052 33.0015 487.365 32.3656 492.716C37.0787 492.379 41.7918 492.154 46.4675 491.668C48.637 491.443 50.8066 490.732 52.9387 490.246C51.2555 496.57 49.5722 502.893 47.8889 509.217L48.5248 508.693L48.5622 508.73Z" fill="black"/>
<path d="M188.909 367.742C198.597 393.26 199.158 404.673 189.32 418.48C190.442 414.027 192.2 409.574 192.537 405.047C192.911 400.257 193.285 394.682 191.265 390.641C186.44 380.913 185.879 381.212 188.909 367.742Z" fill="black"/>
<path d="M145.854 447.89C144.919 432.586 143.984 417.245 160.069 408.003V407.965C155.206 421.061 150.343 434.157 145.555 447.366C145.63 447.478 145.854 447.89 145.854 447.89Z" fill="black"/>
<path d="M160.069 408.003C160.892 396.74 161.715 385.477 162.537 374.215C164.071 374.402 165.642 374.626 167.176 374.814C164.782 385.852 162.425 396.89 160.031 407.928V407.965L160.069 408.003Z" fill="black"/>
<path d="M139.047 381.848C143.723 368.64 148.398 355.431 153.037 342.186C148.361 355.394 143.685 368.602 139.047 381.848Z" fill="black"/>
<path d="M9.1731 420.351L35.5067 410.023C28.5867 418.48 20.2452 423.232 8.91124 420.238C8.83643 420.201 9.1731 420.351 9.1731 420.351Z" fill="black"/>
<path d="M472.07 294.553C462.718 300.054 453.404 305.554 444.053 311.054C448.878 297.883 461.259 297.509 472.07 294.553Z" fill="black"/>
<path d="M49.4228 445.906C43.3256 449.423 37.2659 452.978 31.1688 456.495C30.5329 455.074 29.9344 453.614 29.3359 452.192C36.1812 450.209 43.0263 448.226 49.9464 446.28C49.9838 446.28 49.4228 445.906 49.4228 445.906Z" fill="black"/>
<path d="M498.927 558.458C492.717 566.203 486.508 573.948 480.299 581.731L481.01 582.105C487.144 574.435 493.279 566.802 499.413 559.131L498.927 558.458Z" fill="black"/>
<path d="M499.376 340.427C497.281 329.688 495.224 318.949 493.129 308.248C494.139 307.911 495.111 307.575 496.121 307.238C497.056 312.439 497.917 317.602 498.889 322.803C499.974 328.566 501.134 334.29 502.256 340.053C501.283 340.202 500.348 340.315 499.376 340.464V340.427Z" fill="black"/>
<path d="M478.466 327.069C480.336 335.974 482.206 344.879 484.039 353.747C483.216 353.897 482.393 354.084 481.57 354.234L476.67 327.368C477.268 327.256 477.867 327.144 478.466 327.069Z" fill="black"/>
<path d="M445.361 398.087C440.199 391.39 435.037 384.654 429.838 377.957C431.446 376.946 433.092 375.936 434.701 374.963C438.067 382.858 441.471 390.791 444.837 398.686L445.361 398.125V398.087Z" fill="black"/>
<path d="M437.694 342.111C439.115 349.444 440.574 356.816 442.781 368.116C435.038 357.976 434.365 350.417 437.918 341.886C437.993 341.774 437.731 342.111 437.731 342.111H437.694Z" fill="black"/>
<path d="M444.838 398.648C447.194 402.689 449.551 406.768 451.908 410.809L448.092 412.044C447.157 407.404 446.222 402.764 445.324 398.087L444.838 398.611V398.648Z" fill="black"/>
<path d="M446.932 431.725C436.908 429.368 431.82 422.633 430.324 412.792C435.86 419.116 441.396 425.439 446.932 431.725Z" fill="black"/>
<path d="M94.123 389.78C97.1903 378.667 100.295 367.592 103.362 356.479C104.447 356.741 105.494 357.003 106.579 357.302C103.699 368.453 100.819 379.603 97.9385 390.753L94.1605 389.78H94.123Z" fill="black"/>
<path d="M75.082 367.779C79.8325 357.751 84.5457 347.723 89.2962 337.658C87.5382 346.376 86.2289 355.282 83.6105 363.738C82.9746 365.759 78.0371 366.47 75.082 367.742V367.779Z" fill="black"/>
<path d="M126.777 364.711C124.458 372.007 122.139 379.304 119.782 386.6C118.511 386.039 117.201 385.44 115.93 384.879C119.67 378.368 123.373 371.858 127.076 365.272C127.039 365.197 126.74 364.711 126.74 364.711H126.777Z" fill="black"/>
<path d="M132.95 337.92C130.855 346.788 128.798 355.694 126.74 364.636C126.778 364.711 127.077 365.198 127.114 365.272C129.209 356.405 131.266 347.499 133.249 338.482C133.174 338.407 132.95 337.92 132.95 337.92Z" fill="black"/>
<path d="M413.641 556.774L457.405 554.716C457.405 556.25 457.405 557.821 457.368 559.356C442.892 558.495 428.378 557.634 413.828 556.774C413.753 556.774 413.641 556.774 413.641 556.774Z" fill="black"/>
<path d="M225.305 618.512C234.731 613.76 244.157 609.009 253.546 604.294C244.12 609.046 234.694 613.798 225.305 618.512Z" fill="black"/>
<path d="M294.428 554.903C283.543 542.48 272.696 530.02 261.811 517.598C276.025 527.102 287.658 538.851 294.428 554.903Z" fill="black"/>
<path d="M280.814 559.393C271.163 555.314 261.176 551.61 257.211 540.422C265.066 546.746 272.959 553.069 280.814 559.393Z" fill="black"/>
<path d="M205.443 106.606C207.275 113.379 209.146 120.152 210.979 126.961L207.911 127.597C206.64 120.675 205.33 113.753 204.059 106.831L205.443 106.606Z" fill="black"/>
<path d="M426.472 75.812C420.188 85.2037 413.866 94.5955 407.582 103.987C411.173 92.7995 415.063 81.7988 426.472 75.812Z" fill="black"/>
<path d="M371.223 117.682C374.402 109.749 377.619 101.817 380.798 93.9219C377.619 101.854 374.402 109.787 371.223 117.682Z" fill="black"/>
<path d="M98.7237 472.286C83.2378 478.497 67.7145 484.671 52.2285 490.882C65.8442 479.956 81.1805 473.408 98.7237 472.286Z" fill="black"/>
<path d="M360.787 429.48C365.051 424.279 369.652 418.704 374.253 413.129C375.188 413.765 376.086 414.401 377.021 415.037C373.131 420.725 369.241 426.449 365.276 432.099C364.939 432.586 363.78 432.885 363.219 432.698C362.657 432.511 362.321 431.576 360.825 429.48H360.787Z" fill="black"/>
<path d="M342.086 433.633C344.181 431.65 346.313 429.667 348.408 427.684C349.006 428.283 349.567 428.844 350.165 429.443L344.48 435.953C343.694 435.168 342.871 434.382 342.086 433.633Z" fill="black"/>
<path d="M383.23 431.126C377.694 437.45 372.157 443.773 366.584 450.097C372.12 443.773 377.656 437.45 383.23 431.126Z" fill="black"/>
<path d="M373.766 393.035L379.676 385.776C380.574 386.375 381.509 387.011 382.407 387.61C380.948 390.229 379.489 392.811 377.993 395.43C376.571 394.644 375.15 393.821 373.729 393.035H373.766Z" fill="black"/>
<path d="M601.904 386.899C586.119 391.539 570.296 395.992 554.623 400.893C540.671 405.234 526.868 410.098 512.467 412.717C540.11 397.002 568.8 385.066 601.642 387.423C601.717 387.311 601.904 386.899 601.904 386.899Z" fill="black"/>
</svg>
