<svg width="638" height="720" viewBox="0 0 638 720" fill="none" xmlns="http://www.w3.org/2000/svg">
<path d="M3.40379 11.2672C28.6133 10.7058 54.2343 9.95729 79.8926 9.62046C105.738 9.28364 131.658 10.5187 157.429 8.87203C182.638 7.26275 207.773 7.82406 232.982 7.63694C258.566 7.41239 284.149 6.06509 309.695 5.54114C335.503 5.01719 361.312 5.12947 387.082 4.49325C412.89 3.85702 438.66 2.54714 464.431 1.79864C490.276 1.05014 516.122 0.451364 541.93 0.189389C567.551 -0.0725865 593.209 0.11458 621.748 0.11458C622.87 23.3555 624.328 44.4258 624.814 65.5335C626.273 128.183 627.358 190.87 628.517 253.52C629.901 326.611 630.986 399.664 632.594 472.755C634.016 536.939 636.036 601.086 637.719 665.27C637.906 672.643 638.205 680.053 637.794 687.426C636.821 705.165 634.764 707.074 616.287 707.336C577.949 707.935 539.611 708.234 501.273 708.87C445.281 709.843 389.251 710.816 333.259 712.164C264.775 713.81 196.328 715.944 127.843 717.628C96.1629 718.414 64.4451 719.05 32.7649 719.05C13.9513 719.05 12.8667 718.002 12.2682 698.728C9.94926 624.289 7.8174 549.888 6.05947 475.45C4.48855 409.021 3.21666 342.591 2.3564 276.162C1.27171 190.608 0.710654 105.054 0 19.5007C0 18.1534 1.04741 16.8061 3.40379 11.1924V11.2672ZM429.534 294.986C436.155 285.892 440.493 280.99 443.71 275.413C457.026 252.509 470.64 229.717 482.833 206.214C489.753 192.854 498.58 186.005 513.99 186.491C521.994 186.753 531.12 186.342 538.489 175.563C530.223 174.328 524.687 172.719 519.226 172.869C480.215 173.842 441.204 175.601 402.193 176.274C341.75 177.322 281.269 177.734 220.826 178.37C181.74 178.782 142.692 179.081 103.606 179.53C96.9108 179.605 89.9539 179.68 89.6547 191.768C97.9956 193.19 106.523 196.259 114.827 195.698C129.788 194.725 137.792 202.098 144.6 213.961C157.391 236.341 170.781 258.385 184.321 280.353C188.024 286.341 193.111 291.469 199.133 298.916C219.555 275.264 239.116 254.343 256.509 231.776C266.869 218.34 279.324 214.223 294.809 214.373C307.339 214.485 320.019 215.683 332.362 214.223C349.717 212.202 362.06 218.527 372.458 231.813C380.611 242.217 389.85 251.798 398.789 261.641C408.065 271.858 417.491 281.888 429.609 294.986H429.534ZM160.907 502.284C160.122 503.893 159.336 505.502 158.551 507.112C162.74 510.705 166.854 514.447 171.155 517.89C191.951 534.619 216.45 545.585 237.845 561.64C257.78 576.61 280.596 587.763 301.504 601.573C313.623 609.581 324.058 609.844 335.99 601.61C379.04 571.969 422.428 542.778 465.516 513.175C469.219 510.63 471.575 506.139 478.083 498.279C369.016 499.664 264.962 500.937 160.907 502.246V502.284Z" fill="black"/>
</svg>
