<svg width="545" height="664" viewBox="0 0 545 664" fill="none" xmlns="http://www.w3.org/2000/svg">
<path d="M248.642 3.84197C320.814 -1.25842 339.842 -10.7557 349.057 61.107C357.815 129.347 353.665 200.822 356.865 269.59C358.765 309.795 389.364 432.028 365.482 462.912C345.681 488.519 295.209 485.987 263.027 485.6C217.796 485.037 218.957 487.921 201.687 453.802C175.062 401.25 191.945 277.75 187.619 217.988C184.031 168.567 165.179 97.0208 176.258 48.444C187.724 -1.78604 187.513 7.0429 248.677 4.54547C248.677 4.29925 248.677 4.0882 248.677 3.84197H248.642Z" fill="black"/>
<path d="M535.611 537.167C537.158 614.869 554.005 635.692 473.603 642.27C409.063 647.546 343.854 649.27 279.103 652.014C224.974 654.3 161.876 667.983 108.309 661.265C43.1008 653.069 53.6523 632.069 54.3558 560.805C54.8833 504.947 57.9784 504.278 117.278 500.128C179.989 495.731 243.193 493.163 306.009 489.892C363.058 486.937 423.659 479.058 480.672 482.048C533.993 484.826 531.566 477.686 534.872 537.132C535.083 537.132 535.329 537.132 535.54 537.132L535.611 537.167Z" fill="black"/>
<path d="M159.588 111.089C161.593 162.129 179.038 208.63 135.214 231.388C122.799 237.825 56.9925 241.026 40.6377 235.082C-0.302215 220.203 10.2845 220.343 4.76253 172.751C-0.900121 124.034 -6.10555 98.2506 30.9655 76.3717C72.9957 51.5733 154.594 61.7037 160.538 111.019C160.222 111.054 159.905 111.089 159.588 111.16V111.089Z" fill="black"/>
<path d="M479.755 208.279C387.711 210.636 375.717 216.088 378.742 119.04C380.922 48.1268 406.949 57.5537 480.529 58.5034C542.712 59.3125 539.688 67.7193 543.134 129.698C546.968 198.113 547.285 202.053 479.72 207.4C479.72 207.681 479.72 207.962 479.72 208.244L479.755 208.279Z" fill="black"/>
</svg>
