<svg width="626" height="507" viewBox="0 0 626 507" fill="none" xmlns="http://www.w3.org/2000/svg">
<path d="M333.972 403.28C295.388 411.476 258.88 413.199 222.196 411.863C195.254 410.878 169.122 405.778 144.783 394.416C134.829 389.773 126.388 381.612 118.017 374.225C116.329 372.713 116.716 366.381 118.51 364.095C120.268 361.844 125.685 360.191 128.323 361.211C142.427 366.663 155.722 374.472 170.072 378.833C207.143 390.125 245.093 389.562 283.113 384.18C291.906 382.949 300.629 381.26 309.316 379.502C323.526 376.653 336.785 378.06 348.638 390.617C362.566 373.733 370.234 356.99 372.625 338.03C377.163 302.539 376.705 267.188 368.405 232.188C361.933 205.069 355.708 177.878 348.673 150.899C342.202 126.065 339.493 100.985 341.604 75.5187C344.382 41.8561 362.813 25.9218 396.894 26.766C441.738 27.8565 477.261 67.8857 476.136 116.674C475.714 134.402 474.025 152.095 473.181 169.823C472.197 190.823 478.668 209.958 489.22 227.651C501.108 247.595 518.412 259.59 542.47 257.69C565.156 255.896 578.696 241.299 587.841 221.847C596.107 204.189 598.71 185.581 596.564 166.2C591.429 119.734 575.25 77.6644 546.514 40.625C538.847 30.7056 530.968 20.9621 524.075 12.2035C525.974 2.63593 531.144 -1.69061 537.897 0.947519C544.65 3.58565 551.298 8.29912 556.187 13.7513C593.609 55.6096 614.748 105.382 623.998 160.185C628.535 187.094 623.47 213.44 611.09 237.816C590.198 278.936 549.961 291.951 508.037 273.906C472.408 258.535 453.943 228.319 448.667 191.174C445.677 170.069 447.295 148.226 447.893 126.734C448.456 107.211 445.361 88.7445 435.513 71.8605C425.313 54.4488 409.45 47.9414 390.247 52.5142C382.298 54.4136 376.002 58.8105 374.349 67.0063C370.832 84.2421 365.345 101.091 370.41 119.417C376.459 141.366 380.785 163.808 385.428 186.109C390.598 210.908 396.226 235.671 400.13 260.68C416.625 366.487 365.802 445.596 274.074 487.982C233.627 506.66 191.315 511.408 147.843 501.7C111.229 493.539 82.3178 474.404 67.7567 438.35C56.3259 410.069 58.0848 381.331 67.6163 352.839C77.5699 323.151 97.0901 299.795 118.475 277.986C132.649 263.529 148.722 250.831 162.545 236.023C178.9 218.47 195.219 200.496 208.83 180.798C222.618 160.853 231.27 138.06 228.457 112.699C226.909 98.5584 216.393 90.2219 202.078 91.6992C184.14 93.5987 171.865 103.729 163.354 119.03C155.968 132.291 149.989 146.608 141.055 158.743C132.192 170.773 121.323 181.818 109.646 191.174C88.4378 208.094 65.0133 206.687 41.7648 194.903C3.35722 175.381 -10.1133 137.814 8.1408 98.8046C25.6563 61.4135 53.8287 32.1126 83.1267 3.83187C84.8853 2.14347 87.4176 0.384728 89.6686 0.244028C93.2562 0.0329774 98.5323 -0.0725538 100.15 2.03795C102.823 5.55546 105.637 12.3443 103.984 15.1231C98.919 23.7058 91.8846 31.1629 85.3778 38.8663C70.6408 56.2779 55.1655 73.0916 41.2023 91.0661C34.3438 99.9302 28.7164 110.342 25.0234 120.93C18.4815 139.502 23.8623 155.964 38.6696 168.944C56.6072 184.667 75.2485 186.215 93.4675 170.245C105.567 159.622 115.204 145.798 124.384 132.362C131.453 121.985 135.427 109.533 141.969 98.6991C158.254 71.6846 186.778 60.112 217.272 67.7098C234.4 71.966 246.464 82.3075 252.444 99.2619C257.227 112.839 257.368 126.593 254.519 140.522C247.766 173.692 232.818 202.817 209.71 227.299C190.576 247.56 169.438 265.921 150.375 286.253C133.106 304.684 116.4 323.82 101.487 344.151C89.3525 360.718 83.8657 380.487 84.3229 401.521C85.0615 436.837 101.873 461.565 133.422 476.515C157.304 487.841 182.803 488.65 208.022 484.288C255.609 476.022 296.795 454.952 329.294 418.37C330.947 416.506 332.248 414.255 333.374 412.039C333.901 411.019 333.62 409.612 334.007 403.28H333.972Z" fill="black"/>
<path d="M78.5522 111.538C88.7168 112.453 97.0877 122.513 96.1381 132.678C94.8719 146.326 83.7576 157.266 71.4827 156.914C59.7353 156.597 49.9926 144.99 51.9974 133.699C54.4242 120.086 65.9959 110.413 78.5522 111.538Z" fill="black"/>
<path d="M520.524 204.893C510.184 205.42 499.281 194.481 498.929 183.189C498.613 172.285 508.32 160.572 518.731 159.376C528.333 158.25 538.216 166.728 539.306 176.964C540.749 190.823 531.674 204.33 520.524 204.928V204.893Z" fill="black"/>
<path d="M219.699 300.534C207.987 301.308 200.073 294.344 198.631 285.128C197.47 277.917 203.766 269.756 210.765 269.264C219.453 268.666 228.632 275.525 227.929 284.706C227.472 290.685 222.02 296.313 219.699 300.534Z" fill="black"/>
<path d="M316.493 285.971C329.577 287.378 335.943 295.116 333.938 304.438C332.496 311.156 328.064 315.518 320.713 314.92C311.463 314.146 304.077 305.317 306.785 296.629C308.263 291.915 314.031 288.503 316.493 285.971Z" fill="black"/>
</svg>
