<svg width="541" height="539" viewBox="0 0 541 539" fill="none" xmlns="http://www.w3.org/2000/svg">
<path d="M522.853 186.834C457.526 188.699 394.353 186.166 333.58 179.059C319.879 160.448 330.19 141.239 322.069 121.502C313.876 184.477 312.393 244.496 314.017 305.431C329.661 282.879 329.66 282.668 355.827 284.427C365.855 285.096 375.778 287.031 388.031 288.684C390.009 298.992 392.869 308.597 393.505 318.342C395.836 353.489 394.035 355.177 357.734 360.243C354.167 360.736 350.812 362.812 346.61 364.43C340.96 376.532 340.502 388.353 348.164 401.863C388.102 411.643 430.229 410.06 470.768 415.83C474.899 437.572 470.309 510.679 463.105 535.166C454.312 536.08 444.284 538.824 434.644 537.839C313.523 525.35 191.131 530.662 68.4215 514.585C67.7153 502.236 66.5853 492.315 66.6913 482.429C66.9384 459.596 67.2564 436.763 68.5629 413.965C69.587 396.48 74.9897 391.027 91.9748 390.499C109.772 389.937 127.605 391.098 145.402 391.238C157.903 391.344 170.403 391.027 181.95 390.922C192.296 377.553 192.897 365.943 185.976 352.222C175.982 349.126 165.353 345.854 154.089 342.371C148.615 325.379 150.487 308.949 151.97 292.73C152.747 284.181 158.609 278.939 167.154 278.376C175.982 277.813 184.916 278.376 193.815 278.728C203.808 279.08 213.766 279.713 223.089 280.206C231.775 255.614 235.342 206.641 234.954 120.552C234.954 114.993 232.799 109.4 231.74 104.439C221.535 104.193 221.535 110.244 221.182 114.817C220.122 128.714 220.299 142.716 218.887 156.578C217.404 170.967 210.376 176.033 195.58 175.048C160.056 172.691 124.533 170.017 89.0088 167.906C73.7892 166.992 58.4635 167.59 43.244 166.569C37.135 166.147 31.2028 163.262 24.5288 161.292C17.5723 136.911 21.5274 113.692 26.8595 88.4666C39.8897 86.7075 52.1782 85.0188 66.868 83.0486C70.4698 76.9622 74.813 69.5741 79.4742 61.6231C90.3504 53.7073 103.275 56.3459 115.775 57.331C133.537 58.7382 151.229 60.9195 168.991 62.186C175.17 62.6434 181.738 62.2213 187.635 60.5677C190.178 59.8641 192.191 55.1145 193.073 51.8075C193.462 50.3298 190.743 46.6358 188.942 46.2136C180.361 44.2786 171.674 42.6251 162.917 41.8159C118.529 37.8756 74.1423 34.463 29.7903 30.2764C21.1741 29.4673 12.2754 27.1453 4.50671 23.4512C1.46987 22.0088 -0.613479 14.4799 0.163387 10.3637C0.904941 6.49375 5.70727 1.00552 9.3091 0.548158C17.9959 -0.61283 27.0005 0.548136 35.8639 1.07586C86.6427 4.27737 137.422 7.61957 188.2 10.8211C200.807 11.5951 213.731 10.8211 225.949 20.883C227.15 33.3725 228.421 46.9876 229.869 62.2564C240.003 66.2671 250.279 70.3833 259.919 74.218C261.473 77.2436 263.627 79.4953 263.556 81.6766C261.755 162.77 259.849 243.828 257.73 324.921C257.554 331.113 255.929 337.27 254.799 344.658C244.311 348.985 234.071 353.207 224.713 357.077C214.331 376.708 225.843 399.541 210.2 418.504C193.568 425.646 174.429 421.213 155.678 421.389C138.057 421.53 120.295 417.8 101.898 423.007C92.9991 438.135 91.4097 454.178 92.6809 470.748C93.5284 481.866 98.119 488.198 108.148 489.394C145.861 493.827 183.539 500.16 221.182 495.199C224.96 485.243 219.028 481.971 212.672 481.268C193.745 479.157 174.641 478.418 155.713 476.377C144.519 475.146 133.361 472.894 122.485 470.009C120.119 469.376 117.541 463.923 117.753 460.897C118 457.837 121.143 453.017 123.791 452.454C132.372 450.625 141.376 449.323 150.134 449.675C231.458 452.735 312.782 456.078 394.105 459.737C402.827 460.124 411.832 461.953 419.954 465.119C423.555 466.527 426.875 472.648 427.404 476.975C428.323 484.399 422.425 489.219 415.822 489.183C398.06 489.183 380.263 487.952 362.501 486.967C346.01 486.052 329.519 484.328 312.993 483.871C307.308 483.695 301.552 486.158 296.714 487.213C294.913 497.592 301.658 497.873 305.825 498.295C343.786 502.377 381.781 506.176 419.777 509.553C432.171 510.644 438.987 505.015 440.682 492.702C442.553 478.981 443.295 465.119 444.778 448.795C434.396 445.805 425.18 441.759 415.61 440.633C394.141 438.1 372.494 437.08 350.954 435.215C343.362 434.582 335.734 433.773 328.284 432.295C318.396 430.325 312.746 423.992 312.534 413.719C312.322 403.587 312.11 393.419 312.605 383.287C313.417 367.983 309.427 355.916 293.819 349.654C290.535 348.352 288.169 344.834 284.355 341.421C286.756 254.769 289.193 167.59 291.665 78.9676C302.329 74.7106 312.569 70.6295 324.54 65.8801C326.588 50.0836 328.672 34.0056 330.967 16.1686C338.03 14.4799 345.198 11.1025 352.296 11.3488C408.265 13.143 464.2 15.5705 520.134 17.9277C523.912 18.1036 527.797 18.7018 531.363 19.898C538.179 22.1496 541.357 27.3563 540.968 34.4278C540.58 41.4641 537.225 47.058 529.668 46.9876C510.6 46.8117 491.531 45.8266 472.498 45.123C445.802 44.1379 419.071 42.9066 392.375 42.1678C384.783 41.9567 377.085 42.414 369.599 43.6806C362.501 44.8767 359.252 50.3651 358.899 57.3662C358.546 64.121 360.312 70.5241 367.162 72.7757C374.295 75.1329 381.922 76.4697 389.444 77.1382C408.442 78.8621 427.546 79.7416 446.544 81.36C464.694 82.908 484.575 82.2395 483.586 107.394C500.889 110.631 514.343 113.129 526.985 115.486C533.376 143.807 532.952 151.547 522.888 186.834H522.853ZM70.3992 124.95C64.9258 120.904 61.7476 116.928 57.8986 116.084C52.3546 114.853 46.634 123.085 49.4943 128.749C51.1893 132.162 56.592 135.891 60.0172 135.61C63.16 135.363 65.8793 129.91 70.3992 124.95ZM189.154 108.309C188.094 108.309 187 108.239 185.94 108.239V125.196C186.752 125.196 187.565 125.266 188.412 125.302C188.66 119.637 188.907 113.973 189.154 108.344V108.309ZM353.108 316.829C351.978 318.729 349.718 320.84 350 322.423C350.353 324.253 353.037 325.625 354.697 327.208C356.251 324.569 357.84 321.931 359.393 319.292C357.31 318.483 355.226 317.639 353.108 316.829ZM492.626 151.336C491.743 149.401 491.32 146.375 489.872 145.812C488.353 145.214 485.917 146.938 483.868 147.642C484.716 149.542 485.14 152.638 486.482 153.095C488.141 153.658 490.542 152.039 492.626 151.336ZM187.564 313.593L184.669 313.382L185.94 316.407L187.564 313.593Z" fill="black"/>
</svg>
