<svg width="639" height="555" viewBox="0 0 639 555" fill="none" xmlns="http://www.w3.org/2000/svg">
<path d="M472.973 164.84C431.189 118.058 457.603 193.227 457.885 192.981C439.279 207.719 441.249 182.815 430.275 201.669C426.512 208.176 440.053 217.744 432.456 228.789C422.432 243.351 400.836 237.794 392.993 256.542C371.644 307.546 450.78 374.238 432.35 431.432C429.044 441.668 402.841 421.9 408.785 456.055C407.484 448.668 438.47 480.607 440.686 484.969C448.494 500.27 413.815 485.11 415.925 494.044C419.653 510.049 446.911 513.285 432.139 532.948C416.488 553.771 383.215 550.254 361.514 552.822C334.643 555.987 248.894 557.816 298.451 527.953C315.932 517.4 417.859 522.993 348.325 487.994C310.972 469.21 218.682 528.691 204.437 518.35C165.045 489.717 400.52 410.925 282.167 393.971C252.658 389.75 237.956 439.523 222.41 430.272C206.09 420.563 236.197 328.721 242.563 330.832C255.577 335.123 223.922 360.062 249.07 365.936C238.941 363.58 321.207 367.484 310.48 370.685C371.433 352.429 354.339 281.903 348.747 217.181C339.672 111.796 345.616 54.039 458.658 45.7728C515.25 41.6222 586.437 24.1401 626.885 88.2995C661.564 143.313 611.48 156.293 585.734 178.559C584.186 179.895 524.254 272.124 504.98 231.357C499.528 219.854 524.043 205.292 523.937 205.116C514.124 189.006 558.019 212.151 520.701 174.795C510.044 164.137 487.359 196.181 472.024 163.961C480.254 171.453 487.992 172.368 495.202 166.634C495.132 166.67 480.465 143.032 477.159 145.529C470.898 150.102 469.491 156.539 472.938 164.84H472.973ZM541.91 67.5814C475.4 103.39 559.39 130.721 598.361 123.791C658.61 113.063 571.278 73.7722 541.91 67.5814ZM487.464 122.068C498.121 126.042 504.874 123.862 507.723 115.525C510.009 108.068 463.688 102.299 465.482 119.183C469.386 126.605 476.702 127.59 487.429 122.068H487.464ZM356.942 428.407C354.902 420.915 344.385 410.538 336.085 412.543C329.754 414.056 337.386 443.568 356.942 428.407ZM411.986 178.137C409.418 172.192 405.092 168.464 399.077 166.986C395.384 177.855 404.213 193.016 411.986 178.137ZM328.453 457.145C323.529 452.08 318.71 451.693 313.962 456.055C309.003 464.321 326.202 459.784 328.453 457.145ZM281.885 462.14C280.021 457.11 271.474 455.985 271.299 466.185C274.605 470.512 278.122 469.175 281.885 462.14ZM390.707 431.925C388.456 428.478 385.607 428.618 382.16 432.347C384.481 435.759 387.33 435.618 390.707 431.925Z" fill="black"/>
<path d="M168.245 172.439C144.68 162.731 148.443 162.062 131.807 165.474C113.694 169.203 96.4244 199.277 89.988 200.192C43.913 206.77 54.9921 158.404 95.2285 140.816C90.8672 145.706 90.4452 151.123 93.9624 157.032C100.082 160.233 171.938 119.008 173.767 125.164C166.17 99.2747 104.092 140.359 94.3844 141.661C96.6706 118.304 125.089 114.154 127.411 90.9734C129.591 69.0945 69.7642 82.0741 127.094 54.4968C164.271 36.5927 333.623 49.3612 262.576 111.586C240.91 130.58 238.975 66.8784 227.509 126.887C220.686 162.59 236.549 161.359 227.791 197.941C209.924 272.547 158.502 245.814 184.811 206.523C181.786 211.026 156.92 194.74 167.331 171.841C170.672 168.781 170.988 166.142 168.315 163.891C168.315 166.74 168.245 169.59 168.21 172.439H168.245ZM194.343 180.705C195.644 176.238 196.91 171.806 198.211 167.338C196.488 161.253 180.204 179.826 194.343 180.705Z" fill="black"/>
<path d="M266.936 0.537344C287.898 -4.31682 316.668 39.1948 299.54 50.8729C277.206 66.1037 244.672 3.87898 266.936 0.537344Z" fill="black"/>
<path d="M28.8249 111.164C28.6138 111.657 9.90243 145.108 3.18463 139.656C-9.54754 129.35 27.6994 112.008 29.8097 111.903L28.8249 111.129V111.164Z" fill="black"/>
<path d="M29.809 111.938C29.9497 104.199 34.7329 90.7622 44.7921 98.3952C49.1885 101.737 25.8697 112.676 28.8242 111.199L29.809 111.973V111.938Z" fill="black"/>
<path d="M121.326 244.301C124.597 245.919 126.18 248.733 126.074 252.708C120.482 253.024 117.879 250.351 118.266 244.653L121.361 244.266L121.326 244.301Z" fill="black"/>
</svg>
