<svg width="734" height="732" viewBox="0 0 734 732" fill="none" xmlns="http://www.w3.org/2000/svg">
<path d="M561.7 630.587C552.098 645.607 542.356 661.682 531.664 677.124C527.408 683.28 521.886 689.119 515.696 693.234C463.712 728.057 408.106 743.218 346.907 720.776C334.737 716.309 323.939 712.405 310.504 715.887C285.004 722.465 259.54 718.068 236.362 707.128C212.445 695.837 188.634 683.104 167.496 667.345C143.227 649.265 121.491 627.633 99.614 606.563C88.8514 596.186 78.3703 584.227 84.7012 565.478C89.0273 563.72 93.3884 561.257 98.1014 560.061C192.397 535.755 245.049 445.637 235.342 358.895C227.393 287.912 190.392 236.275 137.107 194.241C114.949 176.794 87.3744 169.266 58.4632 170.603C44.5704 171.236 30.7124 173.452 16.8196 173.593C11.2976 173.663 5.70563 170.04 0.0078125 168.07C0.887106 162.161 0.57044 158.116 2.08282 154.95C28.4968 99.7601 67.854 55.6506 119.908 23.9579C169.149 -6.0113 221.168 -7.20728 272.167 19.3147C289.682 28.4251 304.067 43.6208 322.568 58.1129C332.627 57.6205 346.696 54.9119 360.061 56.8817C373.285 58.8163 385.806 65.4645 401.458 71.0574C406.874 65.957 414.261 59.3792 421.189 52.3442C469.726 2.95837 528.146 -10.1618 591.983 12.4206C653.252 34.1236 698.342 75.3488 718.883 139.473C723.138 152.734 728.239 165.749 731.896 179.186C736.609 196.597 732.389 202.647 715.225 205.602C700.242 208.17 685.224 210.351 670.311 213.2C635.28 219.883 607.142 238.737 583.471 264.52C541.687 310.072 518.791 363.855 515.239 425.693C512.073 480.636 514.922 534.806 538.17 585.88C544.888 600.618 553.294 614.547 561.806 630.517L561.7 630.587ZM344.62 683.913C357.423 699.671 370.331 703.576 384.646 704.068C420.873 705.264 455.447 697.631 487.418 680.958C508.063 670.195 523.715 653.803 528.85 630.024C522.625 619.402 515.696 610.186 511.545 599.844C506.832 588.166 504.265 575.574 501.275 563.297C489.106 513.49 488.191 462.908 491.251 412.08C495.085 348.518 521.464 294.806 563.951 248.621C591.174 219.004 623.638 197.793 664.085 190.406C676.255 188.19 688.108 184.427 701.508 181.015C691.871 107.921 654.202 59.7661 588.431 34.0883C537.643 14.2847 479.187 28.7769 442.152 69.0876C431.108 81.1174 421.084 94.0971 411.306 105.846C395.901 108.343 386.193 102.258 376.662 92.3382C361.468 76.5094 355.101 76.2632 337.304 86.6399C332.943 89.1725 329.391 93.0419 324.994 95.5393C317.749 99.6899 309.906 97.7552 305.087 90.6147C301.535 85.3736 298.334 79.8511 295.732 74.0824C284.899 50.2337 265.062 37.6409 241.18 30.2893C205.059 19.1388 170.801 25.4704 138.549 43.3394C100.106 64.5851 69.2256 94.2377 45.9771 131.523C43.7613 135.076 44.4649 140.458 43.5504 146.86C53.1523 147.844 60.5382 148.759 67.9594 149.322C115.828 152.804 155.256 173.628 188.106 207.853C209.315 229.943 227.323 254.425 241.286 281.686C292.426 381.513 256.198 501.46 164.576 553.659C152.477 560.554 140.097 567.026 128.173 574.272C123.355 577.227 119.416 581.659 114.421 586.021C139.569 616.693 168.34 639.663 198.517 660.31C214.942 671.566 234.709 678.461 253.631 685.46C267.102 690.455 281.733 692.179 298.827 685.636C231.156 661.788 222.785 654.682 205.446 606.774C195.422 604.136 184.413 601.533 173.615 598.261C165.667 595.87 159.793 589.995 160.602 581.764C161.129 576.277 164.752 568.996 169.219 566.358C195.387 550.916 221.519 535.122 249.023 522.424C268.79 513.279 290.737 511.801 311.981 520.911C317.749 523.374 323.764 525.238 327.879 526.75C343.143 522.354 356.473 515.178 369.733 515.283C419.747 515.67 459.878 537.971 490.161 577.332C499.869 589.925 493.925 601.076 477.007 603.995C463.501 606.317 449.819 607.688 435.363 609.588C433.288 644.165 411.658 659.361 383.204 668.682C371.351 672.551 359.99 677.933 344.831 684.089L344.62 683.913ZM381.551 633.014C338.325 628.969 295.415 624.608 250.782 630.623C277.864 662.737 332.486 664.074 381.551 633.014ZM458.225 578.036C438.177 555.875 418.973 546.976 397.765 543.494C387.073 541.735 375.325 543.388 364.633 545.921C360.237 546.976 355.734 553.976 354.433 559.112C353.765 561.679 359.463 568.081 363.367 569.312C392.032 578.423 421.4 581.694 458.26 578.036H458.225ZM213.148 578.212C246.386 581.905 276.774 580.85 305.193 565.373C308.604 563.508 311.066 557.669 311.524 553.413C311.77 551.057 307.162 547.82 304.278 545.639C302.379 544.197 299.671 543.634 297.244 543.177C269.634 538.253 237.522 551.056 213.148 578.176V578.212ZM319.402 600.196H353.976C341.431 588.33 329.907 588.33 319.402 600.196Z" fill="black"/>
<path d="M272.234 341.307C277.792 288.474 282.294 243.133 287.499 197.898C288.941 185.376 291.861 172.924 295.413 160.824C302.693 136.025 325.414 118.051 350.738 115.905C373.107 114.006 390.412 123.327 399.873 143.905C404.058 152.98 407.048 162.934 408.701 172.783C415.489 212.883 418.127 253.264 414.153 293.856C412.429 311.514 409.475 329.066 408.736 346.759C406.907 390.552 392.029 430.933 377.363 471.349C371.243 488.198 362.239 504.414 341.171 505.962C317.958 507.65 302.693 494.741 293.197 475.324C287.148 462.943 281.309 449.576 279.726 436.104C275.716 402.265 274.204 368.111 272.199 341.307H272.234ZM337.373 481.796C357.807 445.601 374.373 412.044 377.996 373.422C379.192 360.865 380.036 348.237 381.794 335.749C388.618 287.982 388.864 240.003 385.066 192.059C384.081 179.678 380.775 167.085 376.308 155.442C369.836 138.488 353.235 135.076 339.835 147.668C333.574 153.542 327.735 160.964 324.57 168.844C319.435 181.647 315.038 195.155 313.104 208.768C304.1 272.645 298.191 336.805 302.658 401.386C303.713 416.371 306.703 431.426 310.431 446.023C313.843 459.495 320.42 471.666 337.337 481.796H337.373Z" fill="black"/>
<path d="M278.462 146.297C280.96 169.302 261.404 192.974 232.176 197.864C210.229 201.522 184.589 180.663 180.544 156.885C176.887 135.322 199.818 108.448 223.419 108.554C234.533 108.589 245.929 111.403 256.621 114.85C271.393 119.634 278.849 130.75 278.462 146.297ZM238.121 129.87C222.153 129.448 207.064 142.287 207.732 154.95C208.014 160.472 211.496 167.613 215.857 170.568C220.042 173.382 228.202 173.769 232.88 171.553C239.246 168.528 245.331 162.829 248.918 156.744C251.591 152.242 252.119 144.327 249.938 139.649C247.722 134.865 241.04 132.156 238.085 129.87H238.121Z" fill="black"/>
<path d="M517.175 164.448C517.843 189.844 503.353 207.783 481.23 208.839C453.972 210.175 430.899 190.125 430.266 164.623C429.633 138.277 448.063 119.881 475.004 119.916C497.444 119.951 516.507 140.106 517.175 164.448ZM490.691 165.186C491.078 155.584 484.149 147.177 475.954 147.282C465.508 147.423 456.222 156.393 456.855 165.749C457.418 174.191 464.629 182.633 472.613 184.146C481.335 185.834 490.233 176.478 490.691 165.151V165.186Z" fill="black"/>
</svg>
