<svg width="545" height="566" viewBox="0 0 545 566" fill="none" xmlns="http://www.w3.org/2000/svg">
<path d="M450.85 562.74C371.101 563.713 293.11 564.948 215.119 565.471C178.761 565.696 142.403 564.536 106.082 564.012C83.3018 563.676 81.7682 563.788 80.1972 540.29C77.8406 505.604 77.6536 470.768 77.2048 436.008C77.13 429.535 80.1598 423.024 82.2919 414.381H206.067C207.077 406.336 208.386 400.611 208.386 394.886C208.312 353.989 207.638 313.092 207.788 272.195C207.9 248.472 206.179 247.125 182.352 246.078C129.423 243.72 76.494 240.877 23.6024 237.21C2.58044 235.75 -0.224972 230.4 1.23385 209.446C2.35602 192.833 2.3186 176.145 3.0293 159.532C3.32855 152.273 4.26367 145.051 5.34844 133.377C14.4006 140.187 20.7222 143.966 25.8093 148.905C64.9356 186.921 110.533 195.153 162.153 180.785C196.94 171.093 219.01 131.132 190.731 94.5376C173.973 72.873 153.512 63.5561 125.682 65.9134C85.1347 69.3184 46.4573 77.6999 10.286 100.375C7.5554 94.5377 4.45073 90.8333 4.2637 86.9794C3.17893 67.2979 2.35599 47.5789 2.4308 27.8975C2.4308 13.4918 5.04919 11.2094 20.1985 11.0223C54.275 10.6108 88.389 10.7604 122.466 10.6482C182.315 10.4985 242.164 10.7978 302.013 9.93721C332.985 9.48821 363.919 6.71933 394.891 5.26006C436.411 3.27694 477.894 0.545502 519.414 0.0216598C542.494 -0.277678 544.813 4.73626 544.139 27.5234C543.429 52.4059 543.99 77.2883 543.99 103.331C534.676 105.613 527.606 99.4394 520.462 94.6125C478.792 66.5121 431.848 60.8247 383.52 64.08C356.737 65.876 339.306 82.7886 330.254 107.559C322.661 128.4 328.945 146.735 344.468 161.327C350.827 167.314 359.43 173.002 367.772 174.349C401.437 179.812 435.326 183.965 468.879 172.066C490.874 164.283 513.28 157.698 537.93 149.803C545.823 177.38 542.755 204.432 544.214 231.223C532.394 240.203 520.462 244.095 505.948 244.319C462.857 244.993 419.766 247.537 376.674 248.772C365.415 249.109 354.081 246.639 342.785 246.564C323.97 246.489 320.566 249.258 321.389 267.144C323.184 306.507 325.541 345.87 328.608 385.12C330.104 404.278 332.536 406.111 350.229 407.084C380.415 408.731 410.639 409.853 440.862 411.275C443.855 411.425 446.81 412.061 451.822 412.734C452.795 418.16 455.488 424.072 454.59 429.385C447.67 469.234 447.409 509.121 452.421 549.157C452.758 551.964 451.822 554.957 450.925 562.74H450.85ZM16.6824 151.262C14.7373 151.861 12.7548 152.422 10.8097 153.021C10.6227 172.366 9.87454 191.748 10.3982 211.093C10.8471 227.968 17.7298 233.543 34.8615 233.056C41.632 232.869 48.3649 232.345 55.1353 232.495C105.072 233.805 154.971 235.414 204.908 236.499C218.935 236.798 221.815 239.193 220.693 254.085C219.608 268.453 217.102 282.784 217.102 297.115C217.102 331.913 218.261 366.711 218.897 401.509C219.234 419.282 216.017 423.099 198.698 423.323C182.015 423.548 165.332 422.874 148.687 422.912C133.687 422.949 118.613 422.687 103.688 423.997C89.4364 425.269 86.444 429.085 86.1821 442.518C85.8081 460.628 85.2096 478.738 85.8455 496.811C86.4814 514.808 88.5012 532.769 90.1097 553.199C112.815 554.471 133.725 556.865 154.634 556.641C240.144 555.668 325.69 554.097 411.2 552.263C420.551 552.076 429.828 548.933 439.591 547.1V423.51C405.926 420.779 373.57 418.384 341.214 415.503C320.416 413.632 319.406 413.108 318.022 392.828C315.628 357.394 314.02 321.885 312.561 286.376C311.925 270.736 312.449 255.02 312.449 238.407C322.81 237.397 331.788 235.75 340.765 235.825C376.3 236.05 411.836 237.621 447.371 237.172C471.535 236.835 495.624 233.917 519.751 232.196C528.092 231.597 535.349 229.539 534.04 219.062C531.908 202 529.215 185.013 526.297 165.032C514.477 168.437 505.013 170.383 496.148 173.787C456.348 189.054 415.427 193.431 373.42 186.621C351.463 183.067 333.359 173.488 323.334 152.011C303.023 108.382 329.618 60.937 380.826 56.3721C429.416 52.0317 477.632 57.1953 520.798 84.2105C523.005 85.595 526.297 85.2207 531.197 86.0065V10.9849C488.817 7.91668 446.211 13.2299 403.606 14.9511C359.767 16.7097 315.965 18.9174 272.126 19.778C229.146 20.6012 186.055 21.574 143.151 19.516C99.274 17.4207 27.0064 16.7845 11.0716 22.1726C11.5204 42.1909 6.69509 63.0698 16.2709 84.435C24.0513 81.741 29.737 80.0197 35.2356 77.8495C66.4694 65.427 98.713 57.4946 132.415 56.7088C165.706 55.923 190.731 70.5906 207.376 99.2148C226.79 132.591 217.214 166.903 181.941 182.805C139.485 201.963 96.4312 201.177 55.285 178.016C41.7068 170.383 29.5125 160.242 16.7198 151.225L16.6824 151.262Z" fill="black"/>
<path d="M402.596 144.302C384.903 144.826 372.073 134.237 371.624 118.784C371.213 104.453 384.716 93.3774 402.596 93.3774C416.923 93.3774 428.481 105.95 428.668 121.702C428.818 133.414 416.736 143.891 402.559 144.302H402.596ZM397.808 109.878C394.591 114.294 391.038 117.1 391.187 119.644C391.337 121.964 395.863 126.118 397.846 125.781C400.539 125.332 404.055 121.627 404.504 118.859C404.841 116.726 401.025 113.92 397.846 109.878H397.808Z" fill="black"/>
<path d="M107.84 123.199C107.653 108.494 114.012 101.31 127.253 101.348C145.62 101.348 156.767 109.093 157.253 122.04C157.739 135.921 147.303 147.97 134.51 148.194C119.735 148.456 108.027 137.493 107.84 123.199ZM131.518 134.013C134.099 128.962 136.306 125.145 137.69 121.067C137.839 120.618 132.416 116.801 131.031 117.512C123.962 121.029 124.635 126.118 131.555 134.013H131.518Z" fill="black"/>
<path d="M129.012 494.341C136.718 476.867 150.333 471.255 163.65 466.952C204.908 453.594 247.363 446.709 290.791 449.141C316.938 450.6 341.027 460.067 363.62 472.789C369.343 476.007 374.692 481.133 378.208 486.633C384.38 496.324 380.565 507.175 369.867 509.944C327.449 520.87 285.33 534.752 240.556 529.438C201.99 524.874 165.333 513.798 128.975 494.304L129.012 494.341ZM368.296 495.912C357.748 482.742 351.089 477.129 336.838 471.629C278.448 449.178 220.805 456.812 163.799 477.054C158.413 478.963 154.448 484.837 149.174 489.402C205.357 527.343 322.586 529.813 368.296 495.912Z" fill="black"/>
</svg>
