<svg width="555" height="585" viewBox="0 0 555 585" fill="none" xmlns="http://www.w3.org/2000/svg">
<path d="M274.646 325.652H286.098C276.128 316.68 289.062 310.51 285.802 303.315H296.957V312.961C309.648 317.192 308.004 309.459 308.112 303.315C314.902 308.624 321.692 313.932 329.263 319.832C330.071 314.174 330.799 309.081 331.553 303.881H342.708C340.526 309.566 338.882 313.824 336.996 318.755C346.346 320.452 353.917 314.875 363.941 314.47C357.07 321.341 350.199 328.185 343.113 335.299C342.628 334.841 340.661 333.035 338.37 330.934C321.934 338.559 305.04 339.637 287.822 332.981C284.724 334.329 281.005 335.945 274.646 338.694V325.652ZM323.039 325.652H321.18V331.23H323.039V325.652Z" fill="black"/>
<path d="M413.379 61.5159C416.047 58.6059 417.825 56.6928 418.822 55.615C414.942 52.0853 411.196 48.6633 407.451 45.2414C408.286 43.7863 409.122 42.3314 409.957 40.9033C415.103 42.6547 420.25 44.433 427.094 46.7772C428.71 45.4569 431.324 43.3014 433.291 41.6847C441.617 48.5017 449.808 55.1839 459.319 62.9709C453.014 71.3237 445.766 80.9159 438.141 90.9932C431.001 88.676 422.863 86.0085 414.753 83.3679C416.639 80.6465 418.525 77.9251 420.304 75.3654C417.771 70.2459 415.535 65.7731 413.406 61.5428L413.379 61.5159Z" fill="black"/>
<path d="M123.406 91.0739C121.062 89.8883 116.535 87.5981 110.123 84.3647C108.452 88.4603 106.997 92.0709 104.222 98.8609C101.554 94.0917 99.5335 90.508 96.6504 85.3347C99.0754 83.718 103.413 80.7811 108.775 77.1705C103.306 75.0688 100.153 73.8564 96.7852 72.59C103.521 63.9677 110.23 55.3724 117.586 45.9688C127.771 49.9835 133.726 58.1746 137.498 68.7908C139.519 66.9855 141.432 65.261 143.803 63.1594C144.8 65.5035 145.743 67.7669 146.282 69.0333C138.738 76.2813 131.759 83.0175 123.379 91.1008L123.406 91.0739Z" fill="black"/>
<path d="M296.984 275.401C293.266 273.542 289.547 271.683 285.829 269.824C281.976 255.463 275.482 269.905 270.471 268.477C269.986 266.752 269.527 265.109 268.611 261.741C274.108 258.965 279.982 256.028 285.829 253.091C287.392 261.175 291.73 259.72 296.688 256.325C295.502 251.232 301.753 243.553 291.406 241.936C291.864 232.129 295.529 224.234 306.953 215.827C302.993 229.138 301.538 242.691 302.561 256.513C306.765 258.076 309.971 259.289 313.528 260.636C313.339 263.384 313.151 265.89 312.935 268.989C308.004 267.049 303.747 265.378 296.957 262.711V275.455L296.984 275.401Z" fill="black"/>
<path d="M263.494 317.273V335.838C258.59 336.215 253.551 336.592 246.061 337.158C247.542 328.967 248.701 322.635 250.021 315.36C249.159 313.285 247.623 309.567 246.95 308.004C250.399 311.453 255.114 316.195 259.856 320.91L263.494 317.273Z" fill="black"/>
<path d="M291.407 174.951C294.317 173.254 297.227 171.583 302.777 168.35C300.891 175.301 299.49 180.448 297.631 187.292C298.978 189.905 301.241 194.405 305.876 203.512C297.011 196.21 288.47 196.722 280.225 205.048V191.684C288.577 191.199 284.967 184.759 285.802 180.529C287.661 178.669 289.521 176.81 291.38 174.951H291.407Z" fill="black"/>
<path d="M380.7 403.792C370.219 416.968 377.763 433.162 374.261 447.9H363.51C365.45 444.99 366.501 443.374 368.602 440.248C367.444 438.685 365.8 436.422 363.725 433.593C369.438 424.62 364.264 412.306 372.509 403.792C375.258 403.792 377.979 403.792 380.727 403.792H380.7Z" fill="black"/>
<path d="M358.387 465.2C363.264 461.697 368.141 458.194 376.44 452.239C373.288 461.535 371.24 467.598 369.111 473.903C364.019 476.489 358.657 479.238 352.891 482.175C349.28 480.289 345.454 478.322 341.655 476.355C342.49 472.124 338.88 465.658 347.232 465.2C348.633 467.059 350.035 468.918 351.463 470.777C353.78 468.918 356.097 467.059 358.414 465.2H358.387Z" fill="black"/>
<path d="M343.567 384.849C349.333 387.839 350.842 388.621 354.399 390.453C345.642 398.456 340.819 408.317 339.956 420.065H332.574C323.493 403.602 344.106 399.21 343.567 384.849Z" fill="black"/>
<path d="M246.816 414.111C247.462 405.408 243.205 394.442 256.192 386.816C257.028 393.876 257.809 400.289 258.941 409.773C261.015 411.201 265.353 414.192 269.665 417.183C268.991 418.369 268.344 419.554 267.671 420.739C260.8 418.557 253.902 416.348 246.816 414.111Z" fill="black"/>
<path d="M269.066 147.038C265.563 142.188 262.034 137.338 255.863 128.797C264.459 132.03 269.551 133.943 274.644 135.856C276.045 137.716 277.446 139.575 278.874 141.434C281.191 139.575 283.508 137.716 285.826 135.856H295.984C294.205 142.377 292.804 147.496 291.403 152.589C288.008 151.969 284.559 151.565 281.218 150.73C277.122 149.679 273.108 148.278 269.066 147.011V147.038Z" fill="black"/>
<path d="M224.073 419.366C218.495 414.247 213.511 409.693 208.688 405.274V387.571H216.959C219.411 398.565 221.756 408.965 224.073 419.366Z" fill="black"/>
<path d="M315.734 389.403C303.312 401.798 294.959 410.177 285.852 419.258C285.475 401.959 298.004 397.109 315.734 389.403Z" fill="black"/>
<path d="M268.798 97.0015C265.592 96.7051 262.116 96.4086 256.08 95.8697C259.394 89.6725 261.685 85.3614 263.921 81.2119H285.908C285.504 84.9303 285.234 87.4361 284.695 92.2862C279.306 90.1845 275.076 88.5139 269.741 86.4122C269.445 89.8341 269.121 93.3101 268.798 97.0015Z" fill="black"/>
<path d="M223.805 308.894H232.75C235.014 313.367 237.304 317.867 239.918 322.986C237.681 327.055 234.96 332.013 232.292 336.863C230.244 336.674 228.493 336.512 224.209 336.108C226.122 330.342 227.846 325.169 229.867 319.052C228.304 316.412 226.149 312.774 223.832 308.867L223.805 308.894Z" fill="black"/>
<path d="M171.612 432.028C176.192 436.581 180.8 441.135 187.159 447.44C182.713 452.048 178.294 456.628 173.848 461.236C172.528 460.32 171.181 459.376 169.86 458.46C171.288 455.658 172.743 452.829 174.225 449.919C172.151 444.692 170.049 439.384 167.947 434.076C169.16 433.375 170.372 432.702 171.612 432.001V432.028Z" fill="black"/>
<path d="M174.165 403.792C175.674 404.358 178.53 405.22 178.477 405.463C175.863 417.48 187.422 422.707 190.925 431.706C178.045 433.7 175.108 422.087 167.402 416.806C170.232 411.39 172.225 407.591 174.192 403.819L174.165 403.792Z" fill="black"/>
<path d="M193.489 421.845C191.333 414.408 189.474 408.049 187.184 400.208C188.719 397.029 191.171 392.044 195.456 383.206C194.243 395.547 196.722 407.052 202.811 417.749C199.901 419.042 197.072 420.255 193.462 421.845H193.489Z" fill="black"/>
<path d="M45.7802 95.3564C43.6246 84.2283 50.5493 80.6447 66.6082 84.5786C67.4705 88.8359 67.9824 91.3417 68.7907 95.3564H45.7802Z" fill="black"/>
<path d="M296.979 476.353V465.198H308.134C311.582 468.108 315.058 471.018 319.235 474.521C319.073 475.788 318.777 478.212 318.507 480.395C311.205 483.44 304.011 482.093 296.979 476.38V476.353Z" fill="black"/>
<path d="M270.765 489.556C266.885 486.781 264.999 485.434 261.631 483.036C267.128 476.596 272.085 470.722 277.851 463.959C282.297 473.255 279.953 481.769 270.792 489.529L270.765 489.556Z" fill="black"/>
<path d="M258.991 465.63C256.162 472.716 253.306 479.83 250.046 487.967C246.893 487.159 243.848 486.35 237.301 484.653C244.953 476.273 250.665 470.049 256.351 463.798C257.24 464.391 258.102 465.01 258.991 465.603V465.63Z" fill="black"/>
<path d="M269.068 107.969V96.8136C279.388 96.3825 285.343 100.613 286.151 114.813C279.011 111.956 274.053 109.962 269.068 107.996V107.969Z" fill="black"/>
<path d="M274.648 135.855C273.327 131.059 272.034 126.263 270.768 121.682C278.24 120.676 283.252 125.401 285.803 135.855H274.648Z" fill="black"/>
<path d="M442.564 533.017V516.607C445.394 516.068 447.9 515.583 452.211 514.748C452.642 520.272 453.046 525.229 453.504 530.915C449.974 531.588 447.468 532.073 442.564 533.043V533.017Z" fill="black"/>
<path d="M224.425 308.894C220.195 309.729 213.728 306.118 213.27 314.471H203.92C203.22 311.804 202.439 308.813 200.93 303.101C210.172 304.879 218.578 298.601 224.425 308.894Z" fill="black"/>
<path d="M285.318 266.616C287.662 281.921 277.719 285.343 269.178 294.746C268.801 278.822 279.228 275.723 285.318 266.616Z" fill="black"/>
<path d="M508.66 80.7812V94.4421C503.11 101.205 495.916 99.2113 487.051 88.4605C493.652 86.1163 500.092 83.826 508.66 80.7812Z" fill="black"/>
<path d="M292.132 215.019C291.27 219.384 290.758 221.917 290.138 225.069C279.333 225.392 275.184 220.192 274.402 209.953C280.465 211.678 285.611 213.133 292.132 214.992V215.019Z" fill="black"/>
<path d="M229.566 384.796C236.491 389.915 240.263 392.691 248.859 399.023C239.482 402.633 235.144 404.277 230.994 405.867C230.725 401.96 230.267 395.116 229.566 384.796Z" fill="black"/>
<path d="M287.281 409.368H275.776C275.453 402.227 275.102 395.006 274.752 387.785C275.83 387.596 276.881 387.381 277.958 387.192C281.003 394.414 284.021 401.608 287.281 409.368Z" fill="black"/>
<path d="M274.646 241.936V230.781C280.224 234.5 285.802 238.218 291.379 241.936C290.544 246.167 294.154 252.633 285.802 253.091C282.083 249.373 278.365 245.655 274.646 241.936Z" fill="black"/>
<path d="M329.507 403.279C327.19 405.031 324.495 407.052 321.397 409.369C316.385 399.588 318.783 392.582 329.507 387.328V403.279Z" fill="black"/>
<path d="M547.73 251.07V268.099C542.754 264.489 538.91 260.393 536.197 255.813C539.269 254.546 542.152 253.361 547.73 251.07Z" fill="black"/>
<path d="M365.099 401.26C360.573 410.61 358.148 415.621 355.75 420.552H350.199C346.858 417.534 352.22 409.208 365.099 401.26Z" fill="black"/>
<path d="M199.177 580.196C193.707 581.382 190.636 582.056 186.352 582.999V563.006C191.579 570.011 194.731 574.215 199.177 580.196Z" fill="black"/>
<path d="M300.702 273.327C304.017 286.584 298.655 290.949 288.955 292.512C281.302 286.53 285.209 280.144 300.702 273.327Z" fill="black"/>
<path d="M396.974 166.168V186.645C392.582 185.568 389.187 184.732 382.963 183.17C388.109 176.918 391.262 173.065 396.974 166.141V166.168Z" fill="black"/>
<path d="M291.191 152.884C295.961 150.513 300.46 148.277 308.059 144.531C305.418 155.525 297.928 158.084 292.458 167.407C291.757 159.512 291.461 156.09 291.191 152.884Z" fill="black"/>
<path d="M380.482 404.033C380.752 400.449 381.021 397.108 381.318 393.417C384.659 393.147 387.084 392.932 390.802 392.608C391.179 395.976 391.503 399.021 391.961 403.117C387.407 403.467 384.093 403.737 380.482 404.006V404.033Z" fill="black"/>
<path d="M86.5977 399.265L94.1691 391.693C95.0043 398.133 95.6779 403.118 96.3246 408.129C95.0313 408.83 93.7379 409.504 92.4446 410.204C90.5046 406.567 88.5377 402.929 86.5977 399.292V399.265Z" fill="black"/>
<path d="M52.8379 387.571C58.3615 394.334 60.8673 397.406 64.6935 402.094C59.3585 403.172 56.8796 403.684 52.8379 404.493V387.571Z" fill="black"/>
<path d="M546.707 62.7815C541.184 56.0184 538.678 52.9468 534.852 48.2585C540.187 47.1807 542.666 46.6687 546.707 45.8604V62.7815Z" fill="black"/>
<path d="M251.475 54.4027C253.98 51.331 256.486 48.2593 261.202 42.4932C262.495 49.4449 263.088 52.5705 263.815 56.4235C260.151 57.1241 257.672 57.609 255.166 58.0671C253.927 56.8546 252.687 55.6152 251.475 54.4027Z" fill="black"/>
<path d="M285.826 64.7744V72.8578C282.997 73.4506 279.925 74.0972 276.019 74.9056C275.291 71.2681 274.779 68.7891 273.971 64.7744H285.826Z" fill="black"/>
<path d="M173.225 405.679C168.78 401.206 166.166 398.592 163.256 395.629C165.708 392.53 168.187 389.431 173.225 383.072V405.679Z" fill="black"/>
<path d="M132.889 386.468C134.667 390.267 136.446 394.039 138.251 397.865C138.008 398.108 135.503 400.614 131.326 404.79C130.518 398.296 129.871 393.258 129.225 388.219C130.437 387.626 131.677 387.034 132.889 386.468Z" fill="black"/>
<path d="M68.0639 581.95H58.1213C57.5824 579.121 57.0975 576.615 56.5586 573.732C63.9683 569.394 68.5759 569.502 68.0908 581.95H68.0639Z" fill="black"/>
<path d="M325.735 373.615C323.229 376.686 320.723 379.758 316.008 385.524C314.715 378.573 314.122 375.447 313.395 371.594C317.059 370.893 319.538 370.408 322.044 369.95C323.283 371.163 324.523 372.402 325.762 373.615H325.735Z" fill="black"/>
<path d="M451.024 391.801C454.095 394.307 457.167 396.813 462.933 401.528C455.982 402.822 452.856 403.415 449.003 404.142C448.302 400.478 447.817 397.999 447.359 395.493L451.024 391.774V391.801Z" fill="black"/>
<path d="M499.389 565.675H507.472C508.065 568.504 508.712 571.576 509.52 575.483C505.882 576.21 503.403 576.722 499.389 577.53V565.675Z" fill="black"/>
<path d="M425.59 566.724C425.186 572.598 424.836 577.501 424.324 584.803C420.12 579.953 417.83 577.313 414.004 572.921C417.022 571.304 420.659 569.364 425.59 566.724Z" fill="black"/>
<path d="M380.944 566.724C380.539 572.598 380.189 577.501 379.677 584.803C375.474 579.953 373.184 577.313 369.357 572.921C372.375 571.304 376.013 569.364 380.944 566.724Z" fill="black"/>
<path d="M1.64258 56.2609C8.40565 50.7373 11.4773 48.2314 16.1656 44.4053C17.2434 49.7403 17.7554 52.2193 18.5637 56.2609H1.64258Z" fill="black"/>
<path d="M276.043 564.274C279.95 568.181 282.483 570.714 286.363 574.594C282.779 576.561 279.169 578.528 276.043 580.226V564.301V564.274Z" fill="black"/>
<path d="M476.136 402.337C482.899 396.813 485.971 394.308 490.633 390.481C491.71 395.816 492.222 398.295 493.03 402.337H476.109H476.136Z" fill="black"/>
<path d="M212.782 80.1048V90.0473C209.953 90.5862 207.447 91.0712 204.564 91.6101C200.226 84.2004 200.334 79.5929 212.782 80.0779V80.1048Z" fill="black"/>
<path d="M509.927 44.2963C507.421 47.368 504.915 50.4396 500.2 56.2058C498.906 49.2541 498.313 46.1286 497.586 42.2755C501.25 41.5749 503.729 41.0899 506.235 40.6318C507.475 41.8443 508.714 43.0838 509.927 44.2963Z" fill="black"/>
<path d="M147.304 578.393C148.22 577.315 145.93 579.956 141.727 584.833C141.215 577.531 140.891 572.627 140.541 567.75C141.727 566.807 142.912 565.837 144.071 564.894C145.041 568.962 146.011 573.058 147.304 578.42V578.393Z" fill="black"/>
<path d="M393.338 80.0518H401.421C402.014 82.8809 402.661 85.9526 403.469 89.8595C399.832 90.587 397.353 91.099 393.338 91.9073V80.0518Z" fill="black"/>
<path d="M513.215 408.856C507.691 402.093 505.185 399.021 501.359 394.333C506.694 393.255 509.173 392.743 513.215 391.935V408.856Z" fill="black"/>
<path d="M337.506 342.925C343.029 349.688 345.535 352.76 349.361 357.421C344.026 358.499 341.548 359.011 337.506 359.82V342.898V342.925Z" fill="black"/>
<path d="M536.008 76.2549C543.148 83.3952 545.654 85.901 548.187 88.4338C545.681 90.9396 543.148 93.4724 538.918 97.7027C538.056 91.2899 537.382 86.3591 536.008 76.2819V76.2549Z" fill="black"/>
<path d="M401.58 52.1378H393.497C392.904 49.3086 392.258 46.237 391.449 42.33C395.087 41.6025 397.566 41.0906 401.58 40.2822V52.1378Z" fill="black"/>
<path d="M377.382 52.9725C374.31 50.4666 371.239 47.9608 365.473 43.2455C372.424 41.9521 375.55 41.3593 379.403 40.6318C380.103 44.2963 380.589 46.7752 381.047 49.281C379.834 50.5205 378.595 51.7599 377.382 52.9994V52.9725Z" fill="black"/>
<path d="M331.93 40.9824H340.013C340.606 43.8116 341.253 46.8832 342.061 50.7902C338.423 51.5177 335.944 52.0297 331.93 52.838V40.9824Z" fill="black"/>
<path d="M8.19141 80.5645C13.715 87.3275 16.2209 90.3992 20.047 95.0875C14.712 96.1653 12.2331 96.6773 8.19141 97.4856V80.5645Z" fill="black"/>
<path d="M359.464 56.0193C352.432 48.9868 349.899 46.4541 347.043 43.5979C349.684 41.3076 352.324 39.0174 356.5 35.3799C357.282 40.9035 357.982 45.7535 359.464 55.9924V56.0193Z" fill="black"/>
<path d="M28.2085 556.784C30.7144 553.712 33.2203 550.64 37.9355 544.874C39.2289 551.826 39.8217 554.951 40.5492 558.804C36.8847 559.505 34.4058 559.99 31.8999 560.448C30.6605 559.236 29.4211 557.996 28.1816 556.784H28.2085Z" fill="black"/>
<path d="M286.339 553.037C293.103 547.514 296.174 545.008 300.836 541.182C301.913 546.517 302.425 548.996 303.234 553.037H286.312H286.339Z" fill="black"/>
<path d="M280.223 25.6787V33.7621C277.394 34.3548 274.322 35.0015 270.415 35.8098C269.687 32.1723 269.176 29.6934 268.367 25.6787H280.223Z" fill="black"/>
<path d="M419.257 410.852C412.494 416.375 409.423 418.881 404.761 422.707C403.684 417.372 403.172 414.893 402.363 410.852H419.284H419.257Z" fill="black"/>
<path d="M540.319 6.62853C543.391 9.13437 546.462 11.6402 552.228 16.3555C545.277 17.6488 542.151 18.2416 538.298 18.9691C537.597 15.3046 537.112 12.8258 536.654 10.3199L540.319 6.60156V6.62853Z" fill="black"/>
<path d="M458.327 8.94629C451.564 14.4699 448.493 16.9758 443.804 20.8019C442.727 15.4669 442.215 12.988 441.406 8.94629H458.327Z" fill="black"/>
<path d="M264.004 17.1916C270.767 11.668 273.839 9.16206 278.527 5.33594C279.605 10.671 280.117 13.1499 280.925 17.1916H264.004Z" fill="black"/>
<path d="M552.28 532.182H544.196C543.603 529.353 542.957 526.281 542.148 522.374C545.786 521.646 548.265 521.135 552.28 520.326V532.182Z" fill="black"/>
<path d="M206.205 23.7116C200.682 16.9485 198.176 13.8768 194.35 9.2154C199.685 8.13762 202.164 7.62572 206.205 6.81738V23.7385V23.7116Z" fill="black"/>
<path d="M281.087 524.341C278.581 527.413 276.075 530.485 271.36 536.251C270.066 529.299 269.474 526.173 268.746 522.32C272.411 521.62 274.889 521.135 277.395 520.677C278.635 521.889 279.874 523.129 281.114 524.341H281.087Z" fill="black"/>
<path d="M230.211 522.079C229.807 527.953 229.457 532.857 228.945 540.159C224.741 535.309 222.451 532.668 218.625 528.276C221.643 526.66 225.28 524.72 230.211 522.079Z" fill="black"/>
<path d="M180.178 529.838C183.411 526.12 185.701 523.479 189.905 518.629C190.417 525.931 190.74 530.835 191.441 540.912C185.755 535.308 183.196 532.802 180.178 529.811V529.838Z" fill="black"/>
<path d="M147.359 541.64C140.326 534.607 137.794 532.074 134.938 529.218C137.578 526.928 140.219 524.638 144.395 521C145.176 526.524 145.877 531.374 147.359 541.613V541.64Z" fill="black"/>
<path d="M100.155 532.182H92.0712C91.4785 529.353 90.8318 526.281 90.0234 522.374C93.6609 521.646 96.1399 521.135 100.155 520.326V532.182Z" fill="black"/>
<path d="M1.64416 318.594C8.40724 313.07 11.4789 310.564 16.1403 306.738C17.2181 312.073 17.73 314.552 18.5383 318.594H1.61719H1.64416Z" fill="black"/>
<path d="M537.519 435.828C544.282 430.305 547.354 427.799 552.015 423.973C553.093 429.308 553.605 431.787 554.413 435.828H537.492H537.519Z" fill="black"/>
<path d="M480.663 3.36719C473.9 8.89082 470.829 11.3966 466.14 15.2228C465.063 9.88775 464.551 7.40887 463.742 3.36719H480.663Z" fill="black"/>
<path d="M16.1391 531.131C15.2769 531.993 12.744 534.526 8.56764 538.702C7.73236 532.263 7.05878 527.278 6.41211 522.266C7.70545 521.566 8.99879 520.892 10.2921 520.191C12.2321 523.829 14.1991 527.466 16.1391 531.104V531.131Z" fill="black"/>
<path d="M129.523 441.408V433.324C132.353 432.731 135.424 432.085 139.331 431.276C140.059 434.914 140.571 437.393 141.379 441.408H129.523Z" fill="black"/>
<path d="M190.686 431.491C194.269 431.761 197.61 432.03 201.302 432.326C201.571 435.668 201.787 438.093 202.11 441.811C198.742 442.188 195.67 442.511 191.602 442.969C191.251 438.416 190.982 435.102 190.712 431.491H190.686Z" fill="black"/>
<path d="M363.969 303.315H374.666V314.47H363.969V303.315Z" fill="black"/>
<path d="M152.369 313.016C159.132 307.492 162.204 304.986 166.892 301.16C167.97 306.495 168.482 308.974 169.29 313.016H152.369Z" fill="black"/>
<path d="M448.17 442.807V432.864C450.999 432.326 453.505 431.841 456.388 431.302C460.726 438.712 460.618 443.319 448.17 442.834V442.807Z" fill="black"/>
<path d="M481.658 442.807V432.864C484.487 432.326 486.993 431.841 489.876 431.302C494.214 438.712 494.107 443.319 481.658 442.834V442.807Z" fill="black"/>
<path d="M502.516 115.324L514.695 127.503L505.426 136.772C504.563 130.359 503.89 125.428 502.516 115.351V115.324Z" fill="black"/>
<path d="M272.357 309.97C273.92 301.698 277.1 293.776 287.797 301.321C281.869 304.635 277.1 307.303 272.357 309.97Z" fill="black"/>
<path d="M130.356 128.014C127.85 131.086 125.345 134.157 120.629 139.924C119.336 132.972 118.743 129.846 118.016 125.993C121.68 125.293 124.159 124.808 126.665 124.35C127.904 125.562 129.144 126.802 130.383 128.014H130.356Z" fill="black"/>
<path d="M359.601 306.226C359.008 298.439 358.604 293.427 358.227 288.389L361.891 285.748C363.211 289.871 364.505 293.993 365.987 298.628C366.768 297.685 364.235 300.729 359.601 306.226Z" fill="black"/>
<path d="M242.631 124.7H250.714C251.307 127.529 251.954 130.601 252.762 134.508C249.124 135.235 246.646 135.747 242.631 136.556V124.7Z" fill="black"/>
<path d="M252.334 288.037V296.12C249.505 296.713 246.433 297.36 242.526 298.168C241.799 294.531 241.287 292.052 240.479 288.037H252.334Z" fill="black"/>
<path d="M353.27 135.802V125.86C356.099 125.321 358.605 124.836 361.488 124.297C365.826 131.707 365.718 136.314 353.27 135.829V135.802Z" fill="black"/>
<path d="M430.949 134.399V126.315C433.778 125.723 436.85 125.076 440.757 124.268C441.485 127.905 441.997 130.384 442.805 134.399H430.949Z" fill="black"/>
<path d="M473.336 123.864C476.408 126.37 479.48 128.876 485.246 133.591C478.294 134.884 475.169 135.477 471.315 136.204C470.615 132.54 470.13 130.061 469.672 127.555C470.884 126.316 472.124 125.076 473.336 123.837V123.864Z" fill="black"/>
<path d="M532.881 124.7H540.964C541.557 127.529 542.204 130.601 543.012 134.508C539.375 135.235 536.896 135.747 532.881 136.556V124.7Z" fill="black"/>
<path d="M17.4047 436.475V447.306C14.5755 447.845 12.0696 448.33 8.32432 449.031C7.67765 445.555 7.08492 442.429 6.35742 438.576C10.0219 437.876 12.5008 437.391 17.3777 436.475H17.4047Z" fill="black"/>
<path d="M62.4604 447.98H52.5179C51.979 445.15 51.494 442.644 50.9551 439.761C58.3648 435.423 62.9723 435.531 62.4873 447.98H62.4604Z" fill="black"/>
<path d="M95.546 437.366V447.308C92.7168 447.847 90.2109 448.332 87.3278 448.871C82.9898 441.461 83.0976 436.854 95.546 437.339V437.366Z" fill="black"/>
<path d="M404.488 448.465H412.572C413.164 451.294 413.811 454.366 414.619 458.273C410.982 459 408.503 459.512 404.488 460.32V448.465Z" fill="black"/>
<path d="M246.732 273.945V265.861C249.562 265.269 252.633 264.622 256.54 263.813C257.268 267.451 257.78 269.93 258.588 273.945H246.732Z" fill="black"/>
<path d="M503.512 268.369V260.286C506.341 259.693 509.413 259.047 513.32 258.238C514.047 261.876 514.559 264.355 515.367 268.369H503.512Z" fill="black"/>
<path d="M479.721 269.822H471.637C471.045 266.993 470.398 263.922 469.59 260.015C473.227 259.287 475.706 258.775 479.721 257.967V269.822Z" fill="black"/>
<path d="M438.79 270.687C435.719 268.181 432.647 265.676 426.881 260.96C433.833 259.667 436.958 259.074 440.811 258.347C441.512 262.011 441.997 264.49 442.455 266.996C441.242 268.235 440.003 269.475 438.79 270.714V270.687Z" fill="black"/>
<path d="M323.793 254.788C330.825 261.821 333.358 264.353 336.214 267.209C333.574 269.5 330.933 271.79 326.757 275.428C325.975 269.904 325.275 265.054 323.793 254.815V254.788Z" fill="black"/>
<path d="M269.073 147.037V158.192H260.828C258.582 151.348 261.33 147.63 269.073 147.037Z" fill="black"/>
<path d="M257.67 465.413C257.939 461.829 258.209 458.488 258.505 454.797C261.846 454.527 264.271 454.312 267.99 453.988C268.367 457.356 268.69 460.428 269.148 464.497C264.595 464.847 261.28 465.116 257.67 465.386V465.413Z" fill="black"/>
<path d="M307.924 465.413C308.193 461.829 308.463 458.488 308.759 454.797C312.1 454.527 314.525 454.312 318.244 453.988C318.621 457.356 318.944 460.428 319.402 464.497C314.849 464.847 311.534 465.116 307.924 465.386V465.413Z" fill="black"/>
<path d="M347.208 465.198C347.315 459.055 345.672 451.322 358.363 455.552V465.198H347.208Z" fill="black"/>
<path d="M364.802 172.689C362.296 175.761 359.79 178.832 355.075 184.598C353.781 177.647 353.188 174.521 352.461 170.668C356.125 169.968 358.604 169.482 361.11 169.024L364.828 172.689H364.802Z" fill="black"/>
<path d="M426.83 169.348H434.913C435.506 172.177 436.153 175.249 436.961 179.156C433.324 179.883 430.845 180.395 426.83 181.203V169.348Z" fill="black"/>
<path d="M471.479 169.348H479.562C480.155 172.177 480.801 175.249 481.61 179.156C477.972 179.883 475.493 180.395 471.479 181.203V169.348Z" fill="black"/>
<path d="M492.869 179.048C499.632 173.524 502.704 171.019 507.392 167.192C508.47 172.527 508.982 175.006 509.79 179.048H492.869Z" fill="black"/>
<path d="M204.347 477.216C201.275 474.71 198.204 472.204 192.438 467.489C199.389 466.195 202.515 465.603 206.368 464.875C207.068 468.539 207.553 471.018 208.011 473.524L204.347 477.243V477.216Z" fill="black"/>
<path d="M386.361 471.26H396.303C396.842 474.089 397.327 476.595 397.866 479.478C390.456 483.816 385.849 483.708 386.334 471.26H386.361Z" fill="black"/>
<path d="M494.624 493.948C491.553 491.442 488.481 488.936 482.715 484.221C489.667 482.928 492.792 482.335 496.645 481.607C497.346 485.272 497.831 487.751 498.289 490.257C497.076 491.496 495.837 492.736 494.624 493.975V493.948Z" fill="black"/>
<path d="M525.852 229.3V221.217C528.681 220.624 531.752 219.977 535.659 219.169C536.387 222.806 536.899 225.285 537.707 229.3H525.852Z" fill="black"/>
<path d="M497.99 220.085H507.932C508.471 222.914 508.956 225.42 509.495 228.303C502.085 232.641 497.478 232.533 497.963 220.085H497.99Z" fill="black"/>
<path d="M457.385 208.442H449.302C448.709 205.613 448.062 202.542 447.254 198.635C450.891 197.907 453.37 197.395 457.385 196.587V208.442Z" fill="black"/>
<path d="M89.3477 478.078L101.769 490.5C99.1286 492.79 96.488 495.08 92.3116 498.718C91.5302 493.194 90.8296 488.344 89.3477 478.105V478.078Z" fill="black"/>
<path d="M352.869 220.085H362.811C363.35 222.914 363.835 225.42 364.374 228.303C356.964 232.641 352.357 232.533 352.842 220.085H352.869Z" fill="black"/>
<path d="M17.4071 482.01V491.953C14.578 492.492 12.0721 492.976 9.18899 493.515C4.87787 486.106 4.95875 481.498 17.4071 481.983V482.01Z" fill="black"/>
<path d="M479.802 232.154L469.482 221.835C473.066 219.868 476.677 217.901 479.802 216.203V232.127V232.154Z" fill="black"/>
<path d="M427.531 220.219L434.645 213.105C435.507 219.518 436.18 224.449 436.854 229.407C435.534 230.134 434.24 230.862 432.92 231.616C431.115 227.817 429.337 224.018 427.531 220.246V220.219Z" fill="black"/>
<path d="M206.258 216.526V233.043C202.458 228.328 200.276 225.634 196.611 221.107C199.414 219.787 203.213 217.981 206.258 216.553V216.526Z" fill="black"/>
<path d="M159.73 215.638C162.478 217.362 165.927 219.518 171.505 222.994C162.487 223.712 158.562 221.26 159.73 215.638Z" fill="black"/>
<path d="M297.17 476.38C296.928 479.668 296.685 482.982 296.362 487.427C292.455 487.158 289.437 486.97 285.719 486.727C289.087 481.5 291.647 477.539 294.206 473.578C295.203 474.521 296.173 475.437 297.17 476.38Z" fill="black"/>
<path d="M242.555 217.04C244.576 219.061 247.432 221.917 249.937 224.423C248.86 224.611 246.408 225.043 242.555 225.716V217.04Z" fill="black"/>
<path d="M316.762 223.775L324.145 216.393C324.333 217.47 324.764 219.922 325.438 223.775H316.762Z" fill="black"/>
<path d="M396.489 214.883V229.702C395.546 229.81 394.603 229.891 393.66 229.999C392.96 225.122 392.259 220.245 391.559 215.368C393.202 215.206 394.846 215.044 396.489 214.883Z" fill="black"/>
<path d="M82.3145 223.775C84.3353 221.755 87.1914 218.898 89.6972 216.393C89.8858 217.47 90.317 219.922 90.9906 223.775H82.3145Z" fill="black"/>
<path d="M41.4395 223.102C49.2264 220.299 53.322 218.845 55.1812 218.171C56.1153 222.069 51.5347 223.712 41.4395 223.102Z" fill="black"/>
<path d="M341.632 476.352V491.683C335.866 483.788 333.171 480.07 330.477 476.352H341.632Z" fill="black"/>
<path d="M453.715 488.315V479.154C456.679 481.121 460.101 483.385 464.547 486.321C461.044 486.968 458.565 487.426 453.715 488.315Z" fill="black"/>
<path d="M21.8511 221.89C20.1266 224.639 17.998 228.088 14.4952 233.665C13.7767 224.648 16.2286 220.723 21.8511 221.89Z" fill="black"/>
<path d="M184.894 481.176V490.337C181.93 488.37 178.508 486.107 174.062 483.17C177.565 482.523 180.044 482.065 184.894 481.176Z" fill="black"/>
<path d="M228.598 490.096L221.215 482.713C222.293 482.525 224.745 482.094 228.598 481.42V490.096Z" fill="black"/>
<path d="M517.231 483.333L509.848 490.716C509.66 489.638 509.228 487.186 508.555 483.333H517.231Z" fill="black"/>
<path d="M538.383 482.415H547.248V498.878C542.613 490.31 540.673 486.672 538.383 482.415Z" fill="black"/>
<path d="M533.985 170.747C531.964 172.768 529.108 175.624 526.602 178.13C526.413 177.052 525.982 174.6 525.309 170.747H533.985Z" fill="black"/>
<path d="M449.301 245.224C451.025 242.476 453.181 239.027 456.657 233.449C457.375 242.467 454.923 246.392 449.301 245.224Z" fill="black"/>
<path d="M318.863 173.523V179.559H309.244C308.651 178.751 308.085 177.942 307.492 177.134C311.696 175.787 315.926 174.466 318.863 173.523Z" fill="black"/>
<path d="M280.225 169.348C284.455 170.184 290.922 166.573 291.38 174.926C289.521 176.785 287.661 178.644 285.802 180.503H280.225V169.348Z" fill="black"/>
<path d="M66.876 489.582C59.089 492.384 54.9935 493.839 53.1343 494.513C52.2002 490.615 56.7808 488.971 66.876 489.582Z" fill="black"/>
<path d="M410.908 243.526C413.656 245.251 417.105 247.406 422.683 250.882C413.665 251.601 409.74 249.149 410.908 243.526Z" fill="black"/>
<path d="M54.0255 182.227C51.2772 177.836 49.1216 174.387 46.9121 170.857C54.241 168.324 60.0611 167.624 54.0255 182.227Z" fill="black"/>
<path d="M7.67969 185.057V170.238C8.64969 170.157 9.61966 170.076 10.5897 169.995C11.2633 174.98 11.9369 179.965 12.6105 184.949C10.9669 184.976 9.3233 185.03 7.67969 185.057Z" fill="black"/>
<path d="M260.203 165.387C262.951 167.111 266.4 169.24 271.977 172.743C262.96 173.461 259.035 171.009 260.203 165.387Z" fill="black"/>
<path d="M386.76 463.825V454.96H403.223C394.654 459.594 391.017 461.535 386.76 463.825Z" fill="black"/>
<path d="M274.215 497.907V507.068C271.251 505.101 267.829 502.838 263.383 499.901C266.886 499.254 269.365 498.796 274.215 497.907Z" fill="black"/>
<path d="M330.287 465.17C330.53 461.883 330.772 458.569 331.095 454.123C335.002 454.392 338.02 454.581 341.739 454.824C338.37 460.051 335.811 464.012 333.251 467.973C332.254 467.03 331.284 466.113 330.287 465.17Z" fill="black"/>
<path d="M269.068 158.19H280.223V169.345C276.505 165.627 272.787 161.909 269.068 158.19Z" fill="black"/>
<path d="M234.174 455.524C238.889 454.635 241.341 454.15 245.005 453.449C245.706 456.844 246.353 459.889 248.347 469.293C241.314 462.449 238.512 459.727 234.174 455.497V455.524Z" fill="black"/>
<path d="M360.681 260.285C363.43 262.01 366.878 264.138 372.456 267.641C363.439 268.36 359.514 265.908 360.681 260.285Z" fill="black"/>
<path d="M398.43 274.539V259.719C399.373 259.612 400.316 259.531 401.259 259.423C401.959 264.3 402.66 269.177 403.361 274.054L398.43 274.539Z" fill="black"/>
<path d="M321.881 500.092L314.498 507.475C314.31 506.397 313.879 503.945 313.205 500.092H321.881Z" fill="black"/>
<path d="M343.057 509.416H337.021V499.796C337.83 499.204 338.638 498.638 339.446 498.045C340.794 502.248 342.114 506.479 343.057 509.416Z" fill="black"/>
<path d="M47.0449 273.352C54.8319 270.55 58.9274 269.095 60.7866 268.421C61.7206 272.319 57.1401 273.963 47.0449 273.352Z" fill="black"/>
<path d="M201.303 264.704H210.464C208.497 267.668 206.234 271.09 203.297 275.536C202.65 272.033 202.192 269.554 201.303 264.704Z" fill="black"/>
<path d="M251.848 505.641V514.505H235.385C243.953 509.871 247.591 507.931 251.848 505.641Z" fill="black"/>
<path d="M16.2729 272.114C14.5485 274.862 12.4198 278.311 8.91705 283.889C8.19853 274.871 10.6505 270.946 16.2729 272.114Z" fill="black"/>
<path d="M201.626 452.615V458.651H192.007C191.414 457.842 190.849 457.034 190.256 456.226C194.459 454.879 198.69 453.558 201.626 452.615Z" fill="black"/>
<path d="M435.29 283.052C427.503 285.854 423.408 287.309 421.548 287.983C420.614 284.085 425.195 282.441 435.29 283.052Z" fill="black"/>
<path d="M259.393 449.84C258.504 445.125 258.019 442.673 257.318 439.008C260.713 438.308 263.758 437.661 273.162 435.667C266.318 442.7 263.596 445.502 259.393 449.84Z" fill="black"/>
<path d="M400.046 143.105C397.352 138.767 395.196 135.345 392.609 131.222C399.723 129.983 406.378 128.259 400.046 143.105Z" fill="black"/>
<path d="M71.5111 285.936C72.9661 290.031 74.4481 294.127 75.6337 297.441C69.7328 300.647 68.4395 295.851 71.5111 285.936Z" fill="black"/>
<path d="M231.43 297.306H225.395V287.687C226.203 287.094 227.011 286.528 227.82 285.936C229.167 290.139 230.487 294.369 231.43 297.306Z" fill="black"/>
<path d="M323.496 124.7V141.433H320.693V124.7H323.496Z" fill="black"/>
<path d="M407.212 515.45V532.183H404.41V515.45H407.212Z" fill="black"/>
<path d="M518.872 515.45V532.183H516.07V515.45H518.872Z" fill="black"/>
<path d="M2.74805 133.564C4.4725 130.815 6.62801 127.367 10.1039 121.789C10.8224 130.806 8.37047 134.731 2.74805 133.564Z" fill="black"/>
<path d="M441.186 298.708V313.527C440.216 313.608 439.246 313.716 438.276 313.797C437.575 308.866 436.902 303.935 436.201 298.977C437.872 298.897 439.542 298.789 441.186 298.708Z" fill="black"/>
<path d="M482.602 308.462H476.566V298.843C477.375 298.25 478.183 297.685 478.991 297.092C480.339 301.295 481.659 305.525 482.602 308.462Z" fill="black"/>
<path d="M357.933 430.926V440.087C354.969 438.12 351.547 435.857 347.102 432.92C350.604 432.273 353.083 431.815 357.933 430.926Z" fill="black"/>
<path d="M317.135 12.6125H309.105V2.99327C309.995 2.3466 310.884 1.67304 311.773 1.02637C313.551 4.85249 315.303 8.65164 317.135 12.6125Z" fill="black"/>
<path d="M223.966 435.856V441.892H214.347C213.754 441.084 213.188 440.275 212.596 439.467C216.799 438.12 221.029 436.8 223.966 435.856Z" fill="black"/>
<path d="M389.673 1.26758C391.128 5.36315 392.61 9.45866 393.823 12.8267C387.733 16.1678 386.656 11.1293 389.673 1.26758Z" fill="black"/>
<path d="M298.469 120.524C297.58 115.809 297.095 113.357 296.395 109.693C299.79 108.992 302.834 108.345 312.238 106.352C305.421 113.357 302.673 116.186 298.469 120.524Z" fill="black"/>
<path d="M271.846 110.742C267.885 113.302 263.924 115.862 258.697 119.23C258.454 115.511 258.239 112.494 257.996 108.587C262.469 108.263 265.729 108.021 269.016 107.778C269.959 108.775 270.903 109.745 271.846 110.742Z" fill="black"/>
<path d="M503.994 313.124V304.26H520.457C511.889 308.894 508.251 310.834 503.994 313.124Z" fill="black"/>
<path d="M412.71 0.512695C413.599 5.22799 414.084 7.67991 414.785 11.3444C411.39 12.0449 408.345 12.6916 398.941 14.6855C405.758 7.65294 408.507 4.85076 412.71 0.512695Z" fill="black"/>
<path d="M429.982 2.77539V17.5949C429.039 17.7027 428.096 17.7835 427.152 17.8912C426.452 13.0143 425.751 8.13733 425.051 3.26037C426.694 3.09871 428.338 2.93706 429.982 2.77539Z" fill="black"/>
<path d="M63.3193 531.751H54.1582C56.1252 528.787 58.3885 525.365 61.3255 520.893C61.9721 524.395 62.4302 526.874 63.3193 531.751Z" fill="black"/>
<path d="M52.1631 18.1892H43.002C44.9689 15.2253 47.2322 11.8033 50.1691 7.35742C50.8158 10.8602 51.2739 13.3392 52.1631 18.1892Z" fill="black"/>
<path d="M88.1634 318.459C85.4151 316.734 81.9662 314.578 76.3887 311.103C85.4061 310.384 89.331 312.836 88.1634 318.459Z" fill="black"/>
<path d="M58.5801 16.3558C60.3045 13.6075 62.4331 10.1586 65.9359 4.58105C66.6544 13.5985 64.2025 17.5234 58.5801 16.3558Z" fill="black"/>
<path d="M359.764 521.484H368.628V537.947C363.994 529.379 362.054 525.742 359.764 521.484Z" fill="black"/>
<path d="M130.762 16.5715C138.549 13.7693 142.644 12.3142 144.503 11.6406C145.438 15.5386 140.857 17.1823 130.762 16.5715Z" fill="black"/>
<path d="M154.447 17.2465C155.848 14.2556 157.599 10.4295 161.048 2.96582C162.423 10.9145 162.854 13.3665 163.527 17.2465H154.42H154.447Z" fill="black"/>
<path d="M260.875 8.86426C259.474 11.8551 257.723 15.6812 254.274 23.1179C252.9 15.1693 252.469 12.7173 251.795 8.86426H260.902H260.875Z" fill="black"/>
<path d="M306.899 9.53913C299.112 12.3414 295.017 13.7964 293.158 14.47C292.224 10.5721 296.804 8.92839 306.899 9.53913Z" fill="black"/>
<path d="M356.773 9.75449C355.048 12.5028 352.893 15.9517 349.417 21.5292C348.699 12.5118 351.151 8.58689 356.773 9.75449Z" fill="black"/>
<path d="M500.09 7.92285H508.119V17.542C507.23 18.1887 506.341 18.8623 505.452 19.509C503.673 15.6828 501.922 11.8837 500.09 7.92285Z" fill="black"/>
<path d="M174.654 22.85V13.9854H191.117C182.549 18.6198 178.912 20.5598 174.654 22.85Z" fill="black"/>
<path d="M254.627 25.8408C257.375 27.5653 260.824 29.7208 266.401 33.1966C257.384 33.9151 253.459 31.4632 254.627 25.8408Z" fill="black"/>
<path d="M391.423 413.545V419.58H381.804C381.211 418.772 380.646 417.964 380.053 417.156C384.256 415.808 388.486 414.488 391.423 413.545Z" fill="black"/>
<path d="M295.584 32.7922C292.593 31.3911 288.767 29.6397 281.33 26.1908C289.279 24.8167 291.731 24.3855 295.584 23.7119V32.8192V32.7922Z" fill="black"/>
<path d="M302.103 84.8486V94.0098C299.139 92.0428 295.717 89.7795 291.271 86.8425C294.774 86.1958 297.253 85.7378 302.103 84.8486Z" fill="black"/>
<path d="M249.287 87.0332C247.267 89.054 244.41 91.9101 241.905 94.416C241.716 93.3382 241.285 90.8863 240.611 87.0332H249.287Z" fill="black"/>
<path d="M519.488 543.795H528.649C526.683 546.759 524.419 550.181 521.482 554.627C520.835 551.124 520.377 548.645 519.488 543.795Z" fill="black"/>
<path d="M199.5 39.3145C202.194 43.6525 204.35 47.0745 206.91 51.197C199.796 52.4365 193.141 54.1609 199.5 39.3145Z" fill="black"/>
<path d="M54.3461 346.345C57.0405 350.683 59.196 354.105 61.7827 358.227C54.6694 359.467 48.0141 361.191 54.3461 346.345Z" fill="black"/>
<path d="M87.8382 346.345C90.5327 350.683 92.6883 354.105 95.275 358.227C88.1616 359.467 81.5063 361.191 87.8382 346.345Z" fill="black"/>
<path d="M128.125 356.126L120.742 348.743C121.82 348.555 124.272 348.124 128.125 347.45V356.126Z" fill="black"/>
<path d="M172.55 350.279C170.826 353.027 168.697 356.476 165.194 362.054C164.476 353.036 166.928 349.111 172.55 350.279Z" fill="black"/>
<path d="M238.187 50.7361C239.588 47.7453 241.34 43.9191 244.788 36.4824C246.163 44.4311 246.594 46.883 247.267 50.7361H238.16H238.187Z" fill="black"/>
<path d="M276.043 43.5699C279.034 44.971 282.86 46.7224 290.297 50.1713C282.348 51.5455 279.896 51.9765 276.043 52.6502V43.543V43.5699Z" fill="black"/>
<path d="M292.807 43.5699C295.797 44.971 299.624 46.7224 307.06 50.1713C299.112 51.5455 296.66 51.9765 292.807 52.6502V43.543V43.5699Z" fill="black"/>
<path d="M544.01 403.361H537.975V393.742C538.783 393.149 539.591 392.583 540.4 391.99C541.747 396.194 543.067 400.424 544.01 403.361Z" fill="black"/>
<path d="M473.55 56.4766C470.748 48.6896 469.293 44.594 468.619 42.7349C472.517 41.8008 474.161 46.3814 473.55 56.4766Z" fill="black"/>
<path d="M352.031 348.421H361.192C359.226 351.385 356.962 354.807 354.025 359.253C353.379 355.75 352.92 353.271 352.031 348.421Z" fill="black"/>
<path d="M377.736 360.787C375.041 356.449 372.886 353.027 370.299 348.904C377.412 347.665 384.068 345.94 377.736 360.787Z" fill="black"/>
<path d="M401.639 349.472C406.354 348.583 408.806 348.098 412.47 347.397C413.171 350.792 413.818 353.837 415.812 363.241C408.779 356.424 405.977 353.676 401.639 349.472Z" fill="black"/>
<path d="M450.703 89.8076L458.086 82.4248C458.275 83.5026 458.706 85.9545 459.379 89.8076H450.703Z" fill="black"/>
<path d="M483.786 360.787C481.092 356.449 478.936 353.027 476.35 348.904C483.463 347.665 490.118 345.94 483.786 360.787Z" fill="black"/>
<path d="M493.596 357.07C501.383 354.267 505.478 352.812 507.337 352.139C508.271 356.037 503.691 357.68 493.596 357.07Z" fill="black"/>
<path d="M552.253 346.59C553.142 351.305 553.627 353.757 554.328 357.421C550.933 358.122 547.888 358.769 538.484 360.763C545.301 353.73 548.05 350.928 552.28 346.59H552.253Z" fill="black"/>
<path d="M354.184 83.0693L361.566 90.4521C360.489 90.6407 358.037 91.0719 354.184 91.7455V83.0693Z" fill="black"/>
<path d="M172.525 88.218C176.863 85.5235 180.285 83.3679 184.408 80.7812C185.647 87.8946 187.372 94.5499 172.525 88.218Z" fill="black"/>
<path d="M222.775 573.866C227.113 571.172 230.535 569.016 234.658 566.43C235.897 573.543 237.622 580.198 222.775 573.866Z" fill="black"/>
<path d="M325.332 577.611V568.45C328.296 570.417 331.718 572.681 336.164 575.618C332.661 576.264 330.182 576.722 325.332 577.611Z" fill="black"/>
<path d="M50.9235 45.7793V54.9404C47.9596 52.9735 44.5376 50.7101 40.0918 47.7732C43.5946 47.1265 46.0735 46.6685 50.9235 45.7793Z" fill="black"/>
<path d="M461.154 567.29C463.902 569.014 467.351 571.17 472.929 574.646C463.911 575.365 459.986 572.912 461.154 567.29Z" fill="black"/>
<path d="M534.823 565.053C536.278 569.148 537.76 573.244 538.972 576.639C533.799 578.768 531.077 575.804 534.823 565.053Z" fill="black"/>
<path d="M11.8556 573.434V581.463H2.23651C1.58984 580.574 0.9162 579.685 0.269531 578.796C4.09565 577.017 7.8948 575.266 11.8556 573.434Z" fill="black"/>
<path d="M380.268 59.8721V67.9015H370.649C370.002 67.0123 369.328 66.1232 368.682 65.234C372.508 63.4557 376.307 61.7043 380.268 59.8721Z" fill="black"/>
<path d="M293.023 72.1859C294.748 69.4375 296.877 65.9887 300.379 60.4111C301.098 69.4286 298.646 73.3535 293.023 72.1859Z" fill="black"/>
<path d="M205.616 78.7871C202.814 71.0002 201.359 66.9046 200.686 65.0454C204.584 64.1113 206.227 68.6919 205.616 78.7871Z" fill="black"/>
<path d="M172.473 71.5371C176.865 68.7888 180.314 66.6333 183.843 64.4238C186.376 71.7527 187.077 77.5727 172.473 71.5371Z" fill="black"/>
<path d="M354.86 53.3779C357.663 61.1649 359.118 65.2605 359.791 67.1197C355.893 68.0537 354.25 63.4731 354.86 53.3779Z" fill="black"/>
<path d="M9.69762 390.992C12.3921 395.33 14.5477 398.752 17.1343 402.875C10.021 404.114 3.36566 405.839 9.69762 390.992Z" fill="black"/>
<path d="M516.069 67.3887C511.354 68.2779 508.902 68.763 505.238 69.4635C504.537 66.0685 503.89 63.0238 501.896 53.6201C508.929 60.464 511.731 63.1854 516.069 67.3887Z" fill="black"/>
<path d="M482.577 67.3887C477.862 68.2779 475.41 68.763 471.745 69.4635C471.045 66.0685 470.398 63.0238 468.404 53.6201C475.437 60.464 478.239 63.1854 482.577 67.3887Z" fill="black"/>
<path d="M388.971 66.6879C394.548 63.2121 397.997 61.0565 400.745 59.332C401.913 64.9545 397.988 67.4064 388.971 66.6879Z" fill="black"/>
<path d="M83.4744 55.1301C80.4835 53.729 76.6574 51.9776 69.2207 48.5287C77.1693 47.1545 79.6213 46.7234 83.4744 46.0498V55.1571V55.1301Z" fill="black"/>
<path d="M415.594 403.793V392.638H418.396V403.793H415.594Z" fill="black"/>
<path d="M256.944 371.189V380.458C256.055 380.593 255.166 380.755 254.277 380.889C253.549 377.872 252.822 374.827 252.121 371.809C253.738 371.621 255.328 371.405 256.944 371.216V371.189Z" fill="black"/>
<path d="M16.8688 358.201H7.59992C7.4652 357.284 7.35738 356.368 7.22266 355.452L16.6532 353.404C16.7341 354.994 16.788 356.611 16.8688 358.201Z" fill="black"/>
<path d="M441.16 349.014V358.283C440.244 358.417 439.328 358.525 438.411 358.66C437.738 355.561 437.064 352.436 436.391 349.337C437.98 349.229 439.57 349.121 441.16 349.041V349.014Z" fill="black"/>
<path d="M315.117 359.145V347.99H317.919V359.145H315.117Z" fill="black"/>
<path d="M301.618 348.853V358.121C300.729 358.256 299.84 358.418 298.951 358.553C298.223 355.535 297.495 352.49 296.795 349.472C298.412 349.284 300.001 349.068 301.618 348.88V348.853Z" fill="black"/>
<path d="M274.646 349.363H285.802V352.166H274.646V349.363Z" fill="black"/>
<path d="M256.944 348.853V358.121C256.055 358.256 255.166 358.418 254.277 358.553C253.549 355.535 252.822 352.49 252.121 349.472C253.738 349.284 255.328 349.068 256.944 348.88V348.853Z" fill="black"/>
<path d="M231.398 359.145V347.99H234.201V359.145H231.398Z" fill="black"/>
<path d="M202.084 349.363H213.239V352.166H202.084V349.363Z" fill="black"/>
<path d="M101.607 332.63H112.762V335.432H101.607V332.63Z" fill="black"/>
<path d="M309.105 419.527V410.258C310.022 410.123 310.938 410.016 311.854 409.881C312.527 412.979 313.201 416.105 313.875 419.204C312.285 419.312 310.695 419.419 309.105 419.5V419.527Z" fill="black"/>
<path d="M156.035 414.975V426.13H153.232V414.975H156.035Z" fill="black"/>
<path d="M246.893 419.284C243.337 419.58 239.753 419.904 236.196 420.2C236.035 418.988 235.9 417.802 235.738 416.589C239.376 415.889 243.013 415.161 246.651 414.461C246.732 416.078 246.812 417.667 246.893 419.284Z" fill="black"/>
<path d="M270.311 325.813C270.014 322.257 269.691 318.673 269.395 315.116C270.607 314.955 271.793 314.82 273.005 314.658C273.706 318.296 274.433 321.933 275.134 325.571C273.517 325.652 271.927 325.732 270.311 325.813Z" fill="black"/>
<path d="M217.575 314.334C217.871 317.891 218.195 321.474 218.491 325.031C217.279 325.193 216.093 325.327 214.881 325.489C214.18 321.852 213.453 318.214 212.752 314.577C214.369 314.496 215.958 314.415 217.575 314.334Z" fill="black"/>
<path d="M118.367 310.293H129.522V313.095H118.367V310.293Z" fill="black"/>
<path d="M153.232 442.862V431.707H156.035V442.862H153.232Z" fill="black"/>
<path d="M552.876 307.949H543.607C543.472 307.06 543.311 306.171 543.176 305.282C546.194 304.554 549.238 303.827 552.256 303.126C552.445 304.743 552.66 306.332 552.849 307.949H552.876Z" fill="black"/>
<path d="M407.212 303.315V314.47H404.41V303.315H407.212Z" fill="black"/>
<path d="M52.3281 313.607V304.338C53.2173 304.204 54.1064 304.042 54.9956 303.907C55.7231 306.925 56.4507 309.97 57.1512 312.988C55.5345 313.176 53.9448 313.392 52.3281 313.58V313.607Z" fill="black"/>
<path d="M312.775 432.73V441.999C311.859 442.134 310.943 442.242 310.027 442.377C309.353 439.278 308.679 436.152 308.006 433.054C309.596 432.946 311.185 432.838 312.775 432.757V432.73Z" fill="black"/>
<path d="M387.678 442.862V431.707H390.48V442.862H387.678Z" fill="black"/>
<path d="M403.977 441.999V432.73C404.866 432.595 405.755 432.434 406.644 432.299C407.372 435.317 408.099 438.361 408.8 441.379C407.183 441.568 405.593 441.783 403.977 441.972V441.999Z" fill="black"/>
<path d="M424.404 432.73V441.999C423.488 442.134 422.572 442.242 421.656 442.377C420.982 439.278 420.308 436.152 419.635 433.054C421.224 432.946 422.814 432.838 424.404 432.757V432.73Z" fill="black"/>
<path d="M351.546 297.602C351.842 301.158 352.165 304.742 352.462 308.298C351.249 308.46 350.064 308.595 348.851 308.756C348.151 305.119 347.423 301.481 346.723 297.844C348.339 297.763 349.929 297.682 351.546 297.602Z" fill="black"/>
<path d="M296.979 303.314C299.296 301.455 301.613 299.596 303.93 297.736C305.331 299.596 306.732 301.455 308.16 303.314H297.005H296.979Z" fill="black"/>
<path d="M342.9 297.901C342.604 294.344 342.281 290.761 341.984 287.204C343.197 287.042 344.382 286.908 345.595 286.746C346.295 290.384 347.023 294.021 347.724 297.659C346.107 297.739 344.517 297.82 342.9 297.901Z" fill="black"/>
<path d="M111.386 286.583V297.738H108.584V286.583H111.386Z" fill="black"/>
<path d="M463.5 282.03V291.299C462.584 291.434 461.667 291.542 460.751 291.676C460.078 288.578 459.404 285.452 458.73 282.354C460.32 282.246 461.91 282.138 463.5 282.057V282.03Z" fill="black"/>
<path d="M503.512 438.685H514.667V441.487H503.512V438.685Z" fill="black"/>
<path d="M312.775 282.03V291.299C311.859 291.434 310.943 291.542 310.027 291.676C309.353 288.578 308.679 285.452 308.006 282.354C309.596 282.246 311.185 282.138 312.775 282.057V282.03Z" fill="black"/>
<path d="M128.496 274.459H119.227C119.092 273.543 118.984 272.626 118.85 271.71C121.948 271.037 125.074 270.363 128.172 269.689L128.469 274.459H128.496Z" fill="black"/>
<path d="M152.801 458.595V449.326C153.717 449.192 154.633 449.084 155.549 448.949C156.223 452.048 156.896 455.173 157.57 458.272C155.98 458.38 154.391 458.488 152.801 458.568V458.595Z" fill="black"/>
<path d="M86.25 281.005V269.85H89.0523V281.005H86.25Z" fill="black"/>
<path d="M161.613 264.245V275.4H158.811V264.245H161.613Z" fill="black"/>
<path d="M223.53 458.678H214.261C214.126 457.788 213.965 456.899 213.83 456.01C216.848 455.283 219.893 454.555 222.91 453.854C223.099 455.471 223.315 457.061 223.503 458.678H223.53Z" fill="black"/>
<path d="M106.323 252.12H97.0542C96.9194 251.231 96.7578 250.342 96.623 249.452C99.6408 248.725 102.686 247.997 105.703 247.297C105.892 248.914 106.108 250.503 106.296 252.12H106.323Z" fill="black"/>
<path d="M290.434 454.934V464.203C289.545 464.337 288.656 464.499 287.767 464.634C287.039 461.616 286.312 458.571 285.611 455.553C287.228 455.365 288.818 455.149 290.434 454.961V454.934Z" fill="black"/>
<path d="M487.777 242.879H497.046C497.181 243.795 497.289 244.711 497.423 245.627C494.325 246.301 491.199 246.975 488.101 247.648C487.993 246.058 487.885 244.469 487.804 242.879H487.777Z" fill="black"/>
<path d="M268.125 255.732C270.146 248.645 271.089 245.277 272.059 241.909C276.505 248.026 275.211 252.633 268.125 255.732Z" fill="black"/>
<path d="M139.735 242.798V252.067C138.846 252.201 137.957 252.363 137.068 252.498C136.34 249.48 135.613 246.435 134.912 243.418C136.529 243.229 138.119 243.013 139.735 242.825V242.798Z" fill="black"/>
<path d="M67.1734 242.933V252.201C66.2573 252.336 65.3413 252.444 64.4251 252.579C63.7515 249.48 63.0779 246.355 62.4043 243.256C63.994 243.148 65.5837 243.04 67.1734 242.96V242.933Z" fill="black"/>
<path d="M230.941 475.357V466.088C231.858 465.953 232.774 465.846 233.69 465.711C234.363 468.81 235.037 471.935 235.711 475.034C234.121 475.142 232.531 475.249 230.941 475.33V475.357Z" fill="black"/>
<path d="M261.121 224.312C267.911 226.253 271.279 227.196 274.647 228.166C268.585 232.611 264.058 231.345 261.121 224.312Z" fill="black"/>
<path d="M330.476 476.354C328.617 474.037 326.758 471.719 324.898 469.402C326.758 468.001 328.617 466.6 330.476 465.172V476.327V476.354Z" fill="black"/>
<path d="M119.309 224.288V215.019C120.198 214.884 121.087 214.723 121.976 214.588C122.704 217.606 123.431 220.65 124.132 223.668C122.515 223.857 120.925 224.072 119.309 224.261V224.288Z" fill="black"/>
<path d="M420.742 486.646V477.377C421.631 477.243 422.521 477.081 423.41 476.946C424.137 479.964 424.865 483.009 425.565 486.027C423.949 486.215 422.359 486.431 420.742 486.619V486.646Z" fill="black"/>
<path d="M488.156 208.445V197.29H490.959V208.445H488.156Z" fill="black"/>
<path d="M136.047 492.222V482.954C136.936 482.819 137.825 482.657 138.714 482.522C139.442 485.54 140.169 488.585 140.87 491.603C139.253 491.791 137.664 492.007 136.047 492.195V492.222Z" fill="black"/>
<path d="M418.828 198.286V207.555C417.912 207.69 416.996 207.798 416.079 207.932C415.406 204.834 414.732 201.708 414.059 198.609C415.648 198.502 417.238 198.394 418.828 198.313V198.286Z" fill="black"/>
<path d="M273.757 201.897H264.488C264.353 201.008 264.191 200.119 264.057 199.23C267.074 198.502 270.119 197.775 273.137 197.074C273.326 198.691 273.541 200.281 273.73 201.897H273.757Z" fill="black"/>
<path d="M106.323 201.897H97.0542C96.9194 201.008 96.7578 200.119 96.623 199.23C99.6408 198.502 102.686 197.775 105.703 197.074C105.892 198.691 106.108 200.281 106.296 201.897H106.323Z" fill="black"/>
<path d="M280.224 191.684C278.365 189.367 276.506 187.049 274.646 184.732C276.506 183.331 278.365 181.93 280.224 180.502V191.657V191.684Z" fill="black"/>
<path d="M245.79 170.237V179.506C244.901 179.641 244.012 179.803 243.122 179.937C242.395 176.92 241.667 173.875 240.967 170.857C242.583 170.668 244.173 170.453 245.79 170.264V170.237Z" fill="black"/>
<path d="M203.025 179.505V170.236C203.942 170.101 204.858 169.993 205.774 169.858C206.447 172.957 207.121 176.083 207.795 179.181L203.025 179.478V179.505Z" fill="black"/>
<path d="M122.974 170.371V179.64C122.058 179.775 121.142 179.883 120.226 180.017C119.552 176.919 118.879 173.793 118.205 170.694C119.795 170.587 121.385 170.479 122.974 170.398V170.371Z" fill="black"/>
<path d="M80.2422 179.505V170.236C81.1583 170.101 82.0745 169.993 82.9906 169.858C83.6642 172.957 84.3378 176.083 85.0114 179.181C83.4217 179.289 81.8319 179.397 80.2422 179.478V179.505Z" fill="black"/>
<path d="M161.613 163.77V174.925H158.811V163.77H161.613Z" fill="black"/>
<path d="M292.807 515.449V504.294H295.609V515.449H292.807Z" fill="black"/>
<path d="M46.668 131.246H55.9369C56.0716 132.135 56.2333 133.024 56.368 133.914C53.3502 134.641 50.3055 135.369 47.2877 136.069C47.0991 134.453 46.8836 132.863 46.6949 131.246H46.668Z" fill="black"/>
<path d="M206.718 125.724V134.992C205.802 135.127 204.886 135.235 203.97 135.37C203.296 132.271 202.623 129.146 201.949 126.047C203.539 125.939 205.129 125.831 206.718 125.751V125.724Z" fill="black"/>
<path d="M162.068 125.724V134.992C161.152 135.127 160.236 135.235 159.32 135.37C158.646 132.271 157.972 129.146 157.299 126.047C158.889 125.939 160.478 125.831 162.068 125.751V125.724Z" fill="black"/>
<path d="M89.4841 125.724V134.992C88.568 135.127 87.6518 135.235 86.7357 135.37C86.0621 132.271 85.3885 129.146 84.7148 126.047C86.3046 125.939 87.8944 125.831 89.4841 125.751V125.724Z" fill="black"/>
<path d="M320.262 531.292V522.023C321.151 521.888 322.04 521.727 322.929 521.592C323.657 524.61 324.384 527.654 325.085 530.672C323.468 530.861 321.878 531.076 320.262 531.265V531.292Z" fill="black"/>
<path d="M485.809 521.915V531.184C484.92 531.319 484.031 531.48 483.142 531.615C482.414 528.597 481.687 525.552 480.986 522.535C482.603 522.346 484.193 522.13 485.809 521.942V521.915Z" fill="black"/>
<path d="M480.313 90.2635H471.044C470.91 89.3744 470.748 88.4851 470.613 87.596C473.631 86.8685 476.676 86.141 479.694 85.4404C479.882 87.0571 480.098 88.6469 480.286 90.2635H480.313Z" fill="black"/>
<path d="M145.31 86.6533V95.9222C144.394 96.0569 143.478 96.1647 142.562 96.2994C141.888 93.2008 141.215 90.0753 140.541 86.9766C142.131 86.8689 143.72 86.761 145.31 86.6802V86.6533Z" fill="black"/>
<path d="M83.4761 85.6299V96.7849H80.6738V85.6299H83.4761Z" fill="black"/>
<path d="M379.33 80.0518V91.2067H376.527V80.0518H379.33Z" fill="black"/>
<path d="M323.496 80.0518V91.2067H320.693V80.0518H323.496Z" fill="black"/>
<path d="M262.602 73.5047H253.333C253.199 72.6156 253.037 71.7264 252.902 70.8641C255.947 70.1366 258.992 69.4091 262.036 68.6816C262.225 70.2983 262.414 71.915 262.602 73.5047Z" fill="black"/>
<path d="M41.2227 69.8428H50.4916C50.6263 70.7589 50.734 71.6751 50.8688 72.5912C47.7701 73.2648 44.6446 73.9384 41.546 74.612C41.4382 73.0223 41.3304 71.4325 41.2495 69.8428H41.2227Z" fill="black"/>
<path d="M106.244 572.276V581.545C105.328 581.68 104.412 581.788 103.495 581.922C102.822 578.824 102.148 575.698 101.475 572.6C103.064 572.492 104.654 572.384 106.244 572.303V572.276Z" fill="black"/>
<path d="M487.723 73.5848V64.3159C488.612 64.1812 489.501 64.0195 490.39 63.8848C491.118 66.9026 491.845 69.9473 492.546 72.9651C490.929 73.1537 489.339 73.3692 487.723 73.5578V73.5848Z" fill="black"/>
<path d="M218.84 47.9336H229.995V50.7358H218.84V47.9336Z" fill="black"/>
<path d="M175.143 56.826V47.5571L177.81 47.126C178.538 50.1438 179.265 53.1885 179.966 56.2063C178.349 56.3949 176.759 56.6104 175.143 56.7991V56.826Z" fill="black"/>
<path d="M163.014 50.7358H151.859V47.9336H163.014V50.7358Z" fill="black"/>
<path d="M135.1 47.9336H146.255V50.7358H135.1V47.9336Z" fill="black"/>
<path d="M96.9727 56.826V47.5571L99.6401 47.126C100.368 50.1438 101.095 53.1885 101.796 56.2063C100.179 56.3949 98.5893 56.6104 96.9727 56.7991V56.826Z" fill="black"/>
<path d="M66.7144 46.5605V57.7155H63.9121V46.5605H66.7144Z" fill="black"/>
<path d="M487.723 51.1159V41.847C488.639 41.7123 489.555 41.6044 490.471 41.4697C491.145 44.6222 491.845 47.7478 492.519 50.9003L487.723 51.1159Z" fill="black"/>
<path d="M457.466 40.9824V52.1374H454.664V40.9824H457.466Z" fill="black"/>
<path d="M314.684 51.1159V41.847C315.6 41.7123 316.516 41.6044 317.432 41.4697C318.106 44.6222 318.806 47.7478 319.48 50.9003C317.89 50.9811 316.273 51.0351 314.684 51.1159Z" fill="black"/>
<path d="M487.723 17.6217V8.35277C488.639 8.21804 489.555 8.11031 490.471 7.97559L492.519 17.4062C490.929 17.487 489.312 17.5409 487.723 17.6217Z" fill="black"/>
<path d="M363.969 8.86426H375.124V11.6665H363.969V8.86426Z" fill="black"/>
<path d="M239.751 7.49121V18.6462H236.949V7.49121H239.751Z" fill="black"/>
<path d="M105.781 7.49121V18.6462H102.979V7.49121H105.781Z" fill="black"/>
<path d="M83.4761 7.49121V18.6462H80.6738V7.49121H83.4761Z" fill="black"/>
<path d="M7.67969 17.6217V8.35277C8.5958 8.21804 9.51189 8.11031 10.428 7.97559C11.1016 11.0742 11.7752 14.1997 12.4488 17.2984C10.8591 17.4061 9.26941 17.514 7.67969 17.5948V17.6217Z" fill="black"/>
<path d="M150.456 286.583V297.738H147.654V286.583H150.456Z" fill="black"/>
<path d="M118.367 14.9268H123.945V16.7859H118.367V14.9268Z" fill="black"/>
<path d="M163.015 67.0125H157.438V65.1533H163.015V67.0125Z" fill="black"/>
<path d="M62.5371 70.7285H68.1146V72.5877H62.5371V70.7285Z" fill="black"/>
<path d="M79.2715 70.7285H84.849V72.5877H79.2715V70.7285Z" fill="black"/>
<path d="M163.015 89.3504H157.438V87.4912H163.015V89.3504Z" fill="black"/>
<path d="M290.812 213.51C292.106 212.001 293.399 210.465 294.693 208.956L296.444 210.707C294.935 212.001 293.399 213.294 291.89 214.587C291.54 214.237 291.163 213.86 290.812 213.51Z" fill="black"/>
<path d="M501.656 281.004V286.581H499.797V281.004H501.656Z" fill="black"/>
<path d="M458.863 321.934H464.441V323.793H458.863V321.934Z" fill="black"/>
</svg>
