<svg width="663" height="672" viewBox="0 0 663 672" fill="none" xmlns="http://www.w3.org/2000/svg">
<path d="M374.718 6.69215C368.284 18.965 352.462 24.4653 352.574 42.1637C365.441 44.2964 377.898 46.8409 390.466 48.3751C443.133 54.736 493.481 69.2911 537.657 98.7011C614.264 149.701 657.243 220.457 661.545 314.412C665.173 393.063 649.762 467.411 613.628 536.259C593.578 574.424 564.776 607.314 520.189 621.271C502.982 626.659 486.673 635.041 470.252 642.749C423.869 664.6 374.344 669.203 324.033 671.223C259.396 673.805 198.724 658.501 142.579 628.268C94.6993 602.525 60.7725 561.852 35.8229 513.547C9.07787 461.798 -1.5829 406.833 0.362197 349.023C2.68135 279.614 27.8553 219.409 73.5276 167.512C96.5695 141.357 120.734 116.587 149.087 95.7078C194.049 62.6309 244.434 46.4666 299.42 44.97C317.6 44.4835 331.776 42.65 340.342 24.091C343.971 16.2334 351.788 10.0971 358.409 3.88585C363.197 -0.604221 368.995 -2.47512 374.755 6.6547L374.718 6.69215ZM318.984 56.3075C267.626 55.5217 221.617 65.0256 179.685 90.0952C140.372 113.631 107.193 144.388 77.7545 179.597C35.8228 229.736 13.9779 286.948 10.9106 352.166C7.95557 415.476 22.9179 474.071 54.4134 528.439C72.7422 560.094 96.2702 587.483 127.242 608.025C173.214 638.52 224.16 654.086 278.585 658.651C298.149 660.297 317.936 658.464 337.649 658.875C379.992 659.773 420.503 651.654 459.404 635.303C476.162 628.268 492.246 619.176 509.528 613.825C548.991 601.627 577.008 575.397 595.935 540.824C640.934 458.693 659.038 370.8 644.301 277.444C637.455 234.04 622.418 194.078 590.174 162.348C582.095 154.378 575.474 144.837 566.908 137.503C549.739 122.798 533.43 105.81 513.717 95.7078C470.215 73.4445 422.56 62.1072 374.119 57.5049C339.781 54.2496 338.435 46.8035 326.577 88.2992C325.081 93.4628 325.904 101.358 313.672 99.2999C315.28 86.1665 316.889 73.1451 318.946 56.3822L318.984 56.3075Z" fill="black"/>
<path d="M356.501 527.391C409.019 525.445 461.536 522.863 499.316 476.129C477.172 457.757 450.203 460.9 425.739 457.907C400.603 454.839 374.83 457.233 347.449 457.233C345.878 447.056 343.297 436.13 342.774 425.092C342.399 417.272 345.916 410.312 355.342 408.703C359.045 408.067 362.636 406.683 366.264 405.598C375.952 402.716 382.723 397.815 380.441 386.141C378.271 375.102 372.399 370.874 359.007 371.436C356.127 371.548 353.284 372.446 348.796 373.269C347.262 367.806 345.13 363.092 344.681 358.227C342.362 334.131 340.753 309.996 338.397 285.9C336.564 267.116 339.407 263.3 358.297 261.653C383.059 259.483 407.785 257.201 432.547 255.218C435.39 254.993 438.345 256.49 437.073 256.153C446.799 269.062 452.858 280.587 462.023 288.556C482.035 305.993 506.984 301.428 519.365 278.117C532.233 253.833 532.383 227.866 518.917 203.993C504.141 177.801 474.441 185.883 457.16 207.885C449.828 217.201 445.714 229.063 438.981 242.009C410.141 242.009 380.778 242.383 351.414 241.86C332.637 241.523 326.913 234.9 329.382 216.004C339.444 138.251 412.123 99.8611 472.309 115.202C530.363 129.982 572.407 165.416 599.937 219.409C629.114 276.695 634.837 335.777 621.782 398.002C607.231 467.299 577.531 528.476 526.323 577.792C500.7 602.45 468.232 613.413 432.772 610.981C397.909 608.586 360.691 572.329 354.968 537.83C354.519 535.099 355.791 532.105 356.539 527.391H356.501ZM350.704 272.205C352.05 293.795 353.584 312.391 354.257 331.025C354.855 347.414 357.885 359.724 377.823 363.503C390.952 365.973 395.029 377.497 394.543 392.24C394.131 405.223 385.79 410.724 375.316 414.578C369.144 416.86 362.898 418.881 355.866 421.313C357.1 429.657 358.072 436.167 359.045 442.94C389.493 444.811 419.044 445.297 448.145 448.889C468.98 451.471 489.403 457.72 509.715 463.407C515.55 465.054 520.338 470.442 528.904 476.428C502.383 493.266 480.501 511.601 455.364 521.891C429.405 532.517 400.266 535.286 372.623 541.46C376.252 572.03 407.448 602.899 440.44 601.103C470.888 599.419 499.428 589.653 522.358 566.754C552.507 536.633 573.08 500.525 588.94 461.911C612.094 405.56 623.765 346.628 608.915 286.349C591.745 216.753 558.38 158.831 486.299 130.917C439.168 112.658 362.636 127.961 343.783 203.694C341.801 211.664 343.559 220.569 343.596 229.4C369.631 229.4 392.336 229.25 415.004 229.474C425.103 229.587 432.136 225.733 437.148 216.715C441.562 208.82 446.125 200.401 452.634 194.452C467.858 180.495 485.7 174.247 506.835 180.009C527.37 185.584 535.45 200.364 539.378 219.484C544.203 242.87 539.976 264.46 528.904 285.226C517.981 305.731 498.231 313.551 475.376 307.527C458.918 303.186 447.921 292.448 437.185 280.399C432.996 275.722 426.674 269.96 421.251 269.885C398.695 269.511 376.139 271.157 350.704 272.168V272.205Z" fill="black"/>
<path d="M231.192 267.415H321.228C322.911 304.795 324.482 339.893 326.053 374.653C312.886 382.174 295.455 379.218 291.565 396.655C296.428 416.074 315.505 408.067 328.634 415.214C330.392 429.245 332.262 443.913 334.245 459.703C281.503 466.924 228.237 462.172 178.45 493.341C231.342 520.356 284.72 521.554 339.482 522.526C341.053 551.974 327.998 571.693 309.034 587.67C280.119 612.028 247.165 618.801 209.198 613.039C102.816 596.875 35.6356 501.685 30.511 406.57C29.0522 379.33 28.8278 352.54 31.4836 325.3C36.7952 270.97 62.3807 227.977 99.5994 190.111C124.287 164.967 150.695 142.928 185.483 132.9C244.06 116.025 302.675 152.881 311.989 212.823C315.156 233.203 306.328 244.591 285.505 246.985C271.965 248.52 258.311 249.118 244.845 251.139C231.641 253.122 224.31 249.081 218.774 235.947C208.525 211.626 188.288 202.496 165.882 207.847C149.76 211.701 142.728 224.423 135.845 236.846C121.182 263.187 139.436 307.227 167.977 315.946C194.011 323.915 216.679 312.653 225.918 286.91C228.162 280.624 229.472 273.963 231.23 267.415H231.192ZM308.435 277.855C295.941 277.855 285.954 278.977 276.379 277.63C256.404 274.749 242.751 278.004 233.138 299.594C222.253 324.102 198.911 332.97 172.204 329.491C148.563 326.422 134.835 310.408 126.344 289.978C122.342 280.399 121.108 269.473 119.836 258.997C114.412 214.47 168.463 183.863 199.959 203.843C208.786 209.456 219.746 214.994 224.198 223.488C233.773 241.635 248.362 241.859 264.521 239.839C276.304 238.342 287.899 235.573 301.739 232.954C295.568 214.62 301.403 196.098 289.396 181.393C254.721 138.85 213.799 124.369 165.583 153.218C116.656 182.516 76.7818 222.253 56.9194 277.518C41.5831 320.174 37.9923 364.551 43.9772 409.601C48.204 441.368 55.685 471.901 71.1709 500.525C102.629 558.634 149.91 593.582 215.557 602.525C239.459 605.78 263.174 602.038 283.523 589.354C302.413 577.605 321.303 563.835 320.555 535.173C307.911 533.377 296.054 530.421 284.196 530.272C245.668 529.823 209.497 519.009 173.588 506.811C167.827 504.865 162.815 500.749 154.025 495.586C206.243 458.618 263.66 457.869 320.367 450.76C318.497 440.77 317.151 433.586 315.804 426.476C308.173 423.932 301.515 422.36 295.38 419.554C274.059 409.863 272.039 391.678 290.518 377.721C293.51 375.439 296.69 373.082 300.168 371.847C310.418 368.217 313.971 360.921 313.26 350.631C311.615 327.32 310.156 304.009 308.435 277.892V277.855Z" fill="black"/>
<path d="M467.746 248.183C467.297 233.141 476.798 218.848 487.159 218.96C498.157 219.11 508.219 231.345 508.106 244.479C508.032 255.218 497.745 265.395 486.037 266.331C475.339 267.191 468.082 260.007 467.746 248.146V248.183Z" fill="black"/>
<path d="M207.253 269.174C206.131 280.586 198.051 288.294 188.176 287.434C176.506 286.386 166.705 275.311 167.753 264.347C168.837 253.085 178.488 244.217 188.999 244.816C200.221 245.452 208.487 256.49 207.253 269.174Z" fill="black"/>
</svg>
