<svg width="597" height="579" viewBox="0 0 597 579" fill="none" xmlns="http://www.w3.org/2000/svg">
<path d="M358.47 564.153C333.762 578.676 209.09 589.104 196.588 558.576H220.137C209.44 550.007 200.953 543.217 192.249 536.239C179.774 536.05 166.086 538.637 157.518 525.084C166.517 526.7 175.517 528.317 185.379 530.069C175.463 510.615 162.152 509.645 146.363 497.169C154.015 495.903 161.102 497.412 167.622 501.642C163.473 476.233 147.71 492.616 140.786 474.832C149.731 476.476 158.677 478.093 167.622 479.736C155.928 464.701 125.723 458.288 124.053 435.763C129.63 439.481 135.208 443.199 140.786 446.918C142.645 448.777 144.504 450.636 146.632 452.199C146.524 452.28 146.147 452.63 145.797 453.007C147.09 454.516 148.384 456.052 149.677 457.561L151.428 455.809C149.92 454.516 148.384 453.223 146.605 452.199C144.504 450.636 142.645 448.777 140.759 446.918V435.763C153.692 439.373 157.006 457.184 174.25 458.504V446.918H185.405C185.405 453.896 180.933 479.655 174.655 483.616C177.942 485.475 187.453 514.522 190.229 518.617C200.683 534.002 216.041 544.403 230.106 556.205C267.613 565.851 297.899 563.668 336.133 558.576C338.316 560.435 340.31 563.507 342.735 563.911C347.854 564.746 353.216 564.153 358.47 564.153Z" fill="black"/>
<path d="M26.8075 211.152C12.9041 211.529 11.8533 201.156 12.3922 190.136C15.2753 193.773 18.1584 197.411 21.4995 201.668C28.3704 181.702 7.73075 145.111 29.1517 128.756C29.1517 163.326 40.3067 197.087 40.3067 229.232C38.4476 230.525 34.8371 232.169 34.9987 233.031C36.346 239.309 38.4476 245.399 40.3067 251.569H31.954C13.7395 290.261 8.10805 325.693 12.3922 368.886C15.6525 401.65 45.8841 441.42 45.8841 469.281C-12.855 435.223 -9.48669 290.288 28.2626 243.54C26.3765 233.301 24.9753 225.702 26.8345 211.179C23.0353 207.353 21.715 211.961 26.1608 218.077C27.1308 214.709 28.0739 211.341 26.8345 211.179L26.8075 211.152Z" fill="black"/>
<path d="M564.996 245.965C569.469 284.469 581.244 317.314 577.795 356.168C576.098 375.137 568.904 438.484 548.264 446.917C554.704 400.168 603.177 304.812 556.428 263.102C553.491 265.958 550.824 268.517 548.264 270.996V290.612C546.405 289.184 542.929 287.756 542.956 286.355C543.091 277.005 536.381 279.915 531.531 279.457C542.686 268.302 553.868 257.12 565.023 245.965H564.996Z" fill="black"/>
<path d="M431.029 11.5213C431.137 1.41712 469.533 2.95295 474.706 2.41406C502.621 13.2188 585.475 28.658 576.152 78.5054C570.575 71.2034 564.944 63.9284 559.42 56.5995C550.394 44.6361 543.577 30.0322 525.928 28.2808C525.443 19.928 519.003 23.5386 514.773 22.7033C514.773 8.74603 440.675 11.5483 431.056 11.5483L431.029 11.5213Z" fill="black"/>
<path d="M84.9551 28.2805C95.0862 6.05123 149.676 6.50929 169.399 0.743164C179.585 9.74264 192.841 4.46151 205.262 6.26679C213.4 15.9668 230.86 13.4071 235.683 28.2805C192.168 28.2805 164.522 -4.6188 118.474 22.703C107.319 24.5621 96.1371 26.4213 84.982 28.2805H84.9551Z" fill="black"/>
<path d="M576.178 78.5059C608.08 106.07 598.38 194.179 576.178 223.629C586.713 169.201 583.48 133.257 576.178 78.5059Z" fill="black"/>
<path d="M235.656 28.2793C264.109 30.6504 277.959 74.0042 288.117 94.6976C294.826 87.4495 301.508 80.1745 308.218 72.9264C308.164 86.7759 297.925 95.5867 292.482 112.05C283.455 98.2542 235.629 39.0841 235.629 28.2793H235.656Z" fill="black"/>
<path d="M12.3934 190.163C0.941931 184.263 11.2616 169.443 1.23828 162.949C3.23218 127.571 0.564629 99.037 29.1528 72.9277C12.7436 119.596 8.00142 141.421 12.4203 190.136L12.3934 190.163Z" fill="black"/>
<path d="M548.264 446.917C547.671 470.116 521.4 487.954 506.823 502.746H498.039C506.284 493.558 514.529 484.397 522.774 475.209C531.261 465.778 539.776 456.348 548.264 446.917Z" fill="black"/>
<path d="M425.453 541.815C406.134 558.252 383.689 565.392 358.469 564.152C362.51 554.372 412.304 543.432 425.453 541.815Z" fill="black"/>
<path d="M364.043 28.2794C376.006 14.1065 394.14 16.5046 409.552 11.8701C416.154 9.87624 423.833 11.5468 431.027 11.5468C428.198 18.6332 373.474 30.8391 364.043 28.2794Z" fill="black"/>
<path d="M498.012 502.746C481.441 520.961 466.621 529.179 447.787 530.661C461.421 519.317 477.076 511.18 492.569 502.854C493.997 502.1 496.18 502.746 498.039 502.746H498.012Z" fill="black"/>
<path d="M29.125 72.9286C38.7711 62.3663 48.148 51.5616 58.2252 41.4304C60.2191 39.4365 64.7996 40.0293 68.1946 39.4365C58.5484 49.9988 49.1719 60.8035 39.0947 70.9347C37.1008 72.9286 32.52 72.3358 29.125 72.9286Z" fill="black"/>
<path d="M151.938 541.815C134.263 540.413 119.766 533.192 107.291 519.478C123.781 523.735 139.032 530.444 151.938 541.815Z" fill="black"/>
<path d="M196.584 558.548C178.963 560.219 164.413 553.806 151.938 541.815C168.32 543.405 184.244 546.234 196.584 558.548Z" fill="black"/>
<path d="M90.5324 508.325C78.2727 509.16 73.0992 500.538 68.1953 491.592C80.4551 490.757 85.6285 499.379 90.5324 508.325Z" fill="black"/>
<path d="M576.181 223.657C576.639 233.196 577.366 242.869 565.026 245.994C564.595 236.483 568.879 229.316 576.181 223.657Z" fill="black"/>
<path d="M336.129 45.013C338.311 36.2021 344.212 32.9418 352.861 33.8579C350.679 42.6688 344.778 45.9291 336.129 45.013Z" fill="black"/>
<path d="M68.1953 39.4368C70.3778 30.6259 76.2786 27.3656 84.9278 28.2818C82.7453 37.0926 76.8445 40.3529 68.1953 39.4368Z" fill="black"/>
<path d="M107.289 519.479C98.6399 520.368 92.7391 517.135 90.5566 508.324C99.2058 507.435 105.107 510.668 107.289 519.479Z" fill="black"/>
<path d="M308.244 72.9294V61.7744H319.399C315.681 65.4928 311.962 69.2111 308.244 72.9294Z" fill="black"/>
<path d="M319.4 61.7722V50.6172H330.555C326.837 54.3355 323.119 58.0539 319.4 61.7722Z" fill="black"/>
<path d="M447.792 530.662C447.307 539.015 440.867 535.404 436.637 536.239C437.122 527.886 443.562 531.497 447.792 530.662Z" fill="black"/>
<path d="M436.608 536.24C436.123 544.593 429.683 540.982 425.453 541.817C425.938 533.465 432.378 537.075 436.608 536.24Z" fill="black"/>
<path d="M352.893 33.8574C353.378 25.5046 359.817 29.1152 364.048 28.2799C363.563 36.6327 357.123 33.0221 352.893 33.8574Z" fill="black"/>
<path d="M40.3082 251.541C53.6458 263.208 67.0104 274.875 80.1593 286.408C95.0596 273.744 57.5258 256.014 51.4633 245.964C75.3092 242.434 148.275 311.278 175.435 268.301C144.961 268.301 96.5953 265.364 79.3778 234.809H90.5329C95.3021 249.736 112.924 246.961 121.169 257.092C179.962 255.475 202.487 264.637 252.389 226.806V128.782C266.804 130.318 257.966 297.832 257.966 324.157H269.121C263.652 332.698 258.182 341.24 251.85 351.102H270.199C273.136 347.383 278.229 340.89 281.543 336.659H309.915C298.679 343.8 289.357 349.727 281.516 354.712V377.346C289.922 380.606 296.227 383.085 302.559 385.537C296.2 397.365 285.854 395.991 271.573 381.468C266.831 383.812 262.385 386.022 258.478 387.962C260.149 390.872 261.819 393.782 263.49 396.692H252.335C252.335 381.252 241.692 372.226 242.311 355.763C242.769 343.422 251.338 337.225 251.338 324.13H241.18C242.338 322.055 243.362 319.873 244.655 317.906C247.97 312.867 248.832 308.745 241.18 307.371C242.77 304.164 244.386 300.958 247.108 295.434C237.973 297.994 231.21 299.907 224.42 301.793C233.743 293.467 243.066 285.141 253.628 275.738C229.89 267.951 228.004 293.359 207.688 290.638C214.99 269.999 237.973 272.424 251.904 261.295V241.383H240.452C243.039 244.59 244.521 246.422 246.057 248.335C243.524 255.664 224.986 264.96 205.721 268.921C196.236 276.869 187.991 283.74 179.773 290.638V280.83C173.387 280.237 166.84 279.591 162.097 279.16C155.873 283.659 151.077 287.162 146.281 290.638C139.895 279.294 129.117 288.509 123.19 285.249C117.181 291.473 112.196 296.647 107.211 301.82C109.017 295.219 110.822 288.617 113.005 280.749H92.7961C64.8277 330.947 77.869 367.969 84.9016 419.056C74.6087 413.963 77.0337 400.437 68.0343 393.916C70.0012 360.397 61.5945 325.531 80.5366 294.06C74.7435 291.096 70.1627 288.752 64.4774 285.842C60.5704 290.611 55.99 296.216 51.4363 301.82C52.9722 293.71 54.4811 285.626 56.2325 276.384C53.1878 271.454 48.5263 266.657 40.2812 268.328V251.595L40.3082 251.541ZM267.666 361.799C263.517 366.083 260.715 368.966 253.898 375.971C263.301 374.004 266.346 373.358 269.741 372.63C269.04 368.939 268.582 366.487 267.666 361.799Z" fill="black"/>
<path d="M218.924 446.917V438.16C202.245 430.131 200.278 450.339 185.432 446.917C187.291 441.34 189.15 435.762 191.009 430.185H202.137C200.116 415.985 198.338 403.537 196.587 391.115C207.823 399.872 207.392 416.281 218.25 427.194C228.085 437.056 250.045 445.786 262.304 452.522C287.686 452.522 311.047 450.797 336.133 446.944C332.495 449.854 328.884 452.764 325.678 455.324C328.857 457.884 332.495 460.794 336.133 463.704C305.631 463.704 283.887 462.976 252.416 469.281C254.005 466.075 255.622 462.868 257.993 458.126H241.261V446.971H218.924V446.917Z" fill="black"/>
<path d="M173.928 448.803C165.063 440.208 158.435 433.768 154.043 429.511C141.891 400.734 147.954 373.682 150.163 346.684C151.941 371.284 153.72 395.911 155.067 414.611C161.641 430.185 176.73 433.014 173.928 448.803Z" fill="black"/>
<path d="M191.012 430.186C185.461 423.989 179.937 417.791 175.33 412.645C168.459 391.978 165.98 352.639 179.83 335.287C179.83 351.885 181.635 368.725 179.345 384.973C176.893 402.406 189.557 414.558 191.012 430.186Z" fill="black"/>
<path d="M140.784 435.763C129.655 432.503 121.841 403.106 118.446 394.484C118.446 378.021 113.138 349.002 124.024 335.287C124.024 370.45 140.757 403.511 140.757 435.763H140.784Z" fill="black"/>
<path d="M124.025 335.287C125.427 317.611 132.648 303.115 146.363 290.64C142.105 307.13 135.396 322.38 124.025 335.287Z" fill="black"/>
<path d="M179.853 335.286C179.395 325.748 178.668 316.075 191.008 312.949C191.439 322.461 187.155 329.628 179.853 335.286Z" fill="black"/>
<path d="M191.009 312.949C190.12 304.3 193.353 298.399 202.164 296.217C203.053 304.866 199.82 310.767 191.009 312.949Z" fill="black"/>
<path d="M174.278 296.217C175.167 304.866 171.933 310.767 163.123 312.949C162.233 304.3 165.467 298.399 174.278 296.217Z" fill="black"/>
<path d="M156.844 324.967V340.675C153.377 334.496 153.377 329.26 156.844 324.967Z" fill="black"/>
<path d="M163.096 312.949C162.26 317.18 165.871 323.646 157.518 324.104C158.353 319.874 154.743 313.407 163.096 312.949Z" fill="black"/>
<path d="M397.536 519.479V528.371C418.094 521.662 438.518 514.98 458.942 508.324C456.167 527.536 383.767 541.735 369.621 541.816C374.929 529.395 388.886 527.751 397.536 519.479Z" fill="black"/>
<path d="M548.266 391.116V290.64C557.427 297.834 560.471 381.497 548.266 391.116Z" fill="black"/>
<path d="M531.502 435.762C533.092 419.38 535.921 403.456 548.234 391.115C546.645 407.498 543.816 423.422 531.502 435.762Z" fill="black"/>
<path d="M475.703 497.169C482.978 487.173 488.394 474.886 503.618 474.832C497.286 482.457 490.954 490.083 485.08 497.169H475.703Z" fill="black"/>
<path d="M458.941 508.324C461.124 499.513 467.025 496.252 475.674 497.168C473.491 505.979 467.591 509.24 458.941 508.324Z" fill="black"/>
<path d="M520.353 452.495C519.464 443.846 522.697 437.945 531.508 435.763C532.397 444.412 529.164 450.313 520.353 452.495Z" fill="black"/>
<path d="M509.195 469.254C508.306 460.605 511.539 454.704 520.35 452.521C521.239 461.171 518.006 467.072 509.195 469.254Z" fill="black"/>
<path d="M358.469 547.394C358.954 539.041 365.394 542.651 369.624 541.816C369.139 550.169 362.699 546.558 358.469 547.394Z" fill="black"/>
<path d="M347.312 552.972C347.798 544.619 354.237 548.229 358.468 547.394C357.983 555.747 351.543 552.136 347.312 552.972Z" fill="black"/>
<path d="M336.129 558.55C336.614 550.197 343.054 553.808 347.284 552.972C346.799 561.325 340.359 557.714 336.129 558.55Z" fill="black"/>
<path d="M29.1253 379.933C26.1075 378.694 85.2776 479.143 84.9543 480.409C55.7464 463.111 44.1873 432.771 29.1253 402.324V379.933Z" fill="black"/>
<path d="M29.126 312.949V379.933C18.6715 371.742 18.6715 321.14 29.126 312.949Z" fill="black"/>
<path d="M40.3054 268.302C40.0899 284.065 42.2993 300.447 29.1504 312.949C27.2642 297.16 34.9975 283.23 37.7458 268.302C37.7728 268.141 39.4163 268.302 40.3054 268.302Z" fill="black"/>
<path d="M112.871 502.746C121.52 501.856 127.421 505.09 129.604 513.901C120.954 514.79 115.054 511.556 112.871 502.746Z" fill="black"/>
<path d="M96.1074 491.565C104.757 490.676 110.658 493.909 112.84 502.72C104.191 503.609 98.2899 500.376 96.1074 491.565Z" fill="black"/>
<path d="M140.783 519.479C146.28 521.608 154.902 514.306 157.516 525.057C152.019 522.928 143.397 530.23 140.783 519.479Z" fill="black"/>
<path d="M129.6 513.903C133.83 514.738 140.297 511.128 140.755 519.48C136.524 518.645 130.058 522.256 129.6 513.903Z" fill="black"/>
<path d="M51.4625 301.796C51.4625 342.078 58.1178 375.381 62.6175 413.427C51.9744 404.212 25.3263 301.796 51.4625 301.796Z" fill="black"/>
<path d="M68.1949 424.606C76.6825 434.037 85.1968 443.468 93.6844 452.898C101.929 462.059 110.175 471.247 118.42 480.435H109.636C95.0587 465.643 68.7607 447.806 68.168 424.606H68.1949Z" fill="black"/>
<path d="M118.447 480.409C127.096 479.519 132.997 482.753 135.18 491.564C126.531 492.453 120.63 489.22 118.447 480.409Z" fill="black"/>
<path d="M62.6159 413.426C70.9687 413.911 67.358 420.351 68.1932 424.581C59.8404 424.096 63.4512 417.656 62.6159 413.426Z" fill="black"/>
<path d="M135.176 491.565C139.406 492.4 145.873 488.79 146.331 497.143C142.101 496.307 135.634 499.918 135.176 491.565Z" fill="black"/>
<path d="M101.689 318.528C98.3744 356.089 103.009 376.324 107.266 413.427C85.4679 402.676 82.1538 331.839 101.689 318.528Z" fill="black"/>
<path d="M118.445 458.073C104.083 455.244 98.9366 450.098 96.1074 435.736C103.544 443.173 110.981 450.61 118.445 458.073Z" fill="black"/>
<path d="M140.784 474.832C128.525 475.667 123.351 467.045 118.447 458.099C130.707 457.264 135.88 465.886 140.784 474.832Z" fill="black"/>
<path d="M107.293 413.426C116.104 415.608 119.365 421.509 118.449 430.158C109.638 427.976 106.377 422.075 107.293 413.426Z" fill="black"/>
<path d="M96.1068 435.763C87.2959 433.58 84.0356 427.679 84.9517 419.03C93.7625 421.213 97.0229 427.114 96.1068 435.763Z" fill="black"/>
<path d="M107.29 301.796C105.161 307.293 112.463 315.915 101.712 318.528C103.841 313.032 96.539 304.41 107.29 301.796Z" fill="black"/>
<path d="M453.368 485.987C451.913 497.142 440.057 500.645 434.21 501.265C418.959 502.882 409.34 512.716 397.565 519.479V508.324C399.424 506.923 401.284 505.522 403.143 504.094C401.284 501.777 399.424 499.46 397.565 497.142C397.565 488.844 398.293 480.464 397.377 472.273C396.407 463.731 393.847 455.352 391.988 446.891H404.194C397.081 435.79 391.368 426.871 384.982 416.902C391.611 413.588 397.404 410.704 403.17 407.794V433.041C413.813 422.021 423.648 384.838 436.662 379.88C438.683 405.154 424.779 423.045 408.343 439.266C408.909 444.196 409.421 448.427 409.879 452.441H419.902C416.427 457.453 412.951 462.465 408.262 469.174H425.48C423.863 472.354 422.273 475.506 419.822 480.329H431.058C425.453 484.91 419.849 489.49 414.244 494.071C428.04 495.418 441.081 492.697 453.394 485.907L453.368 485.987Z" fill="black"/>
<path d="M246.839 541.818C204.078 538.504 191.01 501.805 191.01 465.7C200.898 460.553 203.916 445.168 218.924 446.919C211.515 455.703 204.105 464.514 196.857 473.083V495.446C202.245 501.482 207.796 507.679 213.347 513.903C215.206 515.763 217.065 517.622 218.924 519.481C221.107 528.292 227.008 531.552 235.657 530.636C237.058 532.495 238.27 534.543 239.914 536.16C242.016 538.234 244.495 539.932 246.812 541.791L246.839 541.818Z" fill="black"/>
<path d="M397.538 508.323C387.865 515.221 378.354 522.334 368.411 528.801C365.798 530.499 361.837 530.094 358.469 530.633C361.352 523.17 364.235 515.679 367.064 508.296H375.228C375.228 510.156 375.228 512.015 375.525 514.143C375.444 514.036 375.094 513.658 374.716 513.308C373.207 514.601 371.672 515.895 370.163 517.188L371.914 518.939C373.207 517.431 374.501 515.895 375.525 514.116C376.764 513.254 378.327 512.634 379.863 512.015L375.228 508.269C379.162 497.168 388.997 488.061 386.383 474.777C388.242 476.96 391.314 478.954 391.719 481.379C392.554 486.498 391.961 491.86 392.257 497.357C392.176 497.249 391.826 496.872 391.449 496.522C389.94 497.815 388.404 499.108 386.895 500.402L388.647 502.153C389.94 500.644 391.233 499.108 392.257 497.33C393.82 497.087 395.679 497.087 397.538 497.087V508.242V508.323Z" fill="black"/>
<path d="M319.395 547.393C319.368 553.752 306.893 554.102 302.932 555.665C287.358 554.237 256.022 558.036 246.834 541.815C272.108 546.827 293.96 547.393 319.395 547.393Z" fill="black"/>
<path d="M347.315 536.238C340.794 546.881 330.394 547.932 319.4 547.393C325.921 536.75 336.322 535.699 347.315 536.238Z" fill="black"/>
<path d="M358.468 530.662C357.983 539.015 351.543 535.404 347.312 536.239C347.798 527.886 354.237 531.497 358.468 530.662Z" fill="black"/>
<path d="M252.414 78.5059C265.347 87.9095 262.599 104.965 271.329 117.09H302.18C311.422 108.253 318.212 101.759 325.002 95.2654C327.912 105.666 317.754 108.872 313.928 115.339C313.928 121.752 306.141 175.075 319.398 171.815C319.398 150.475 318.536 113.076 341.735 100.843C336.157 117.953 330.58 135.035 324.975 152.145C337.963 165.456 330.553 202.505 330.553 219.345C338.96 229.368 345.911 237.667 352.89 245.966C340.792 249.226 340.603 235.7 330.849 237.021V250.52C338.151 255.504 367.09 270.647 369.622 279.431C365.931 279.916 362.24 280.401 358.656 280.886C360.919 284.982 362.482 287.784 364.018 290.613H355.719C349.953 279.871 341.663 275.084 330.849 276.252C328.451 294.52 341.654 293.011 352.863 301.768H336.777V317.477C341.492 320.333 347.178 323.809 352.863 327.258C352.863 329.925 352.863 332.593 352.863 335.26H339.795C345.426 342.481 349.145 347.251 352.863 351.993C354.129 369.183 343.783 381.632 334.972 394.511C333.571 396.559 328.397 395.993 324.948 396.64C328.478 391.817 332.008 386.967 335.564 382.09C330.741 379.773 325.811 377.375 322.55 375.812C318.401 377.752 316.084 378.83 313.793 379.907C315.518 371.528 317.242 363.148 319.128 354.095C318.886 351.966 312.096 351.885 316.623 345.823C320.664 347.466 324.868 349.191 325.865 349.622C330.553 347.331 333.651 345.796 336.939 344.206C316.407 325.452 293.639 321.707 269.146 324.105C272.299 312.681 286.849 323.189 289.058 315.214C301.345 316.722 312.392 318.043 328.855 320.064C316.515 303.169 301.668 299.909 274.724 302.657C283.265 296.703 298.139 293.9 313.793 295.14C313.793 241.035 308.216 187.2 308.216 133.284C299.324 116.929 286.202 123.692 274.724 130.913C274.724 188.655 269.146 246.263 274.724 302.657C276.529 306.052 272.757 310.31 265.59 318.393C261.683 276.71 267.691 235.673 267.341 194.771C266.991 154.651 256.267 118.114 252.387 78.5059H252.414ZM323.574 178.982H320.772V206.897H323.574V178.982ZM340.253 368.779V356.924C336.238 357.732 333.732 358.244 330.122 358.971C330.93 362.852 331.577 365.95 332.169 368.779H340.253ZM336.131 266.444V264.585H330.553V266.444H336.131Z" fill="black"/>
<path d="M73.8003 229.232H65.663C57.7682 215.895 45.4546 167.61 35.4043 159.419C37.9101 147.644 38.5567 120.08 51.4901 112.023C51.4901 117.601 51.4901 123.178 51.1668 129.295C44.2151 140.962 43.6223 166.263 50.8435 184.693C50.8435 164.969 50.8434 146.863 51.1668 129.295C53.3493 126.439 55.0467 123.987 57.1214 121.858C58.7381 120.215 60.786 119.002 62.6452 117.601C60.786 133.39 56.313 149.422 57.7141 164.942C59.5463 185.42 63.5341 206.787 84.982 218.077C86.8411 221.795 88.7005 225.514 90.5597 229.232H79.4046C78.7849 227.696 78.192 226.134 77.5722 224.598L73.8269 229.232H73.8003Z" fill="black"/>
<path d="M179.85 218.052C174.11 233.275 158.482 232.386 141.885 238.826C166.727 243.434 183.541 230.77 202.186 229.207C198.064 245.158 180.793 237.694 172.332 245.939C157.243 245.751 108.797 252.217 101.711 234.784C105.24 234.165 108.77 233.518 112.327 232.898L111.949 229.207H101.711C99.8513 225.488 97.992 221.77 96.1328 218.052C104.863 221.123 113.593 224.168 128.008 229.207H148.001C162.416 224.168 171.147 221.096 179.877 218.052H179.85Z" fill="black"/>
<path d="M84.9537 218.052C84.9537 188.871 64.988 168.986 69.2991 135.144C73.7719 130.132 79.3493 123.854 84.9537 117.576C76.3584 162.789 80.7235 173.782 96.1088 218.052H84.9537Z" fill="black"/>
<path d="M196.586 100.844C224.608 116.014 218.923 150.26 218.923 176.962C213.507 183.052 207.849 189.383 202.19 195.742C202.19 178.39 216.04 165.403 214.8 147.188C213.453 127.842 196.613 118.412 196.613 100.844H196.586Z" fill="black"/>
<path d="M118.447 95.265C127.096 84.2178 138.575 78.9097 152.909 79.3947C165.493 88.3403 188.18 80.2569 196.586 100.87C166.624 100.87 152.263 87.7745 118.447 95.292V95.265Z" fill="black"/>
<path d="M118.446 22.7028C141.241 22.7028 164.063 22.6219 186.858 22.7836C190.873 22.7836 196.558 20.8436 196.585 28.3072C177.266 31.2442 156.842 22.2178 138.277 33.5884C127.822 21.3555 117.664 38.9234 107.264 33.8848C109.581 32.0256 112.033 30.3281 114.162 28.2533C115.805 26.6367 117.018 24.5889 118.419 22.7297L118.446 22.7028Z" fill="black"/>
<path d="M235.656 195.74V128.756C251.069 140.558 248.67 183.076 235.656 195.74Z" fill="black"/>
<path d="M51.4618 111.998C50.5996 98.4179 62.7244 90.3884 64.7453 78.5059H73.7719C70.9697 88.1789 61.6738 95.2384 62.6169 106.42C58.8985 108.28 55.1801 110.139 51.4618 111.998Z" fill="black"/>
<path d="M178.778 44.366H135.047C153.207 37.2527 167.623 37.6838 178.778 44.366Z" fill="black"/>
<path d="M180.904 71.9845H134.371C143.263 67.9967 146.469 66.5686 151.589 64.2783C155.981 65.3292 177.887 66.2453 180.877 71.9845H180.904Z" fill="black"/>
<path d="M90.5309 111.997C95.1923 106.15 99.8535 100.276 103.841 95.2646H118.418C110.847 100.842 103.357 106.527 95.6504 111.889C94.4918 112.698 92.2553 111.997 90.5039 111.997H90.5309Z" fill="black"/>
<path d="M29.1237 128.758C28.6118 117.765 29.6357 107.391 40.2788 100.844C40.7908 111.837 39.7668 122.211 29.1237 128.758Z" fill="black"/>
<path d="M213.345 95.2646C222.317 100.169 230.94 105.342 230.078 117.602C221.105 112.698 212.483 107.524 213.345 95.2646Z" fill="black"/>
<path d="M235.653 56.1943C244.626 61.0982 253.248 66.2716 252.386 78.5314C243.413 73.6274 234.791 68.4541 235.653 56.1943Z" fill="black"/>
<path d="M235.652 89.6865C247.993 92.8121 247.265 102.485 246.807 112.024C239.505 106.365 235.194 99.2249 235.652 89.6865Z" fill="black"/>
<path d="M79.377 50.5901C81.5595 41.7793 87.4602 38.519 96.1094 39.4351C93.9269 48.2459 88.0261 51.5062 79.377 50.5901Z" fill="black"/>
<path d="M213.346 61.7717C204.697 62.6609 198.796 59.4275 196.613 50.6167C205.262 49.7275 211.163 52.9608 213.346 61.7717Z" fill="black"/>
<path d="M134.101 71.9569H113.704C113.65 70.8252 113.57 69.6935 113.516 68.5618C120.386 68.0768 127.257 67.6188 134.155 67.1338C134.155 68.7505 134.128 70.3402 134.101 71.9569Z" fill="black"/>
<path d="M235.656 89.6857C226.845 87.5032 223.584 81.6023 224.501 72.9531C233.311 75.1356 236.572 81.0365 235.656 89.6857Z" fill="black"/>
<path d="M73.7977 100.844C74.6868 109.493 71.4534 115.394 62.6426 117.576V106.421C66.3609 104.562 70.0793 102.703 73.7977 100.844Z" fill="black"/>
<path d="M51.4583 245.965C42.6475 243.782 39.3871 237.882 40.3032 229.232C49.1141 231.415 52.3744 237.316 51.4583 245.965Z" fill="black"/>
<path d="M218.924 218.051C216.742 226.862 210.841 230.122 202.191 229.206C204.374 220.395 210.275 217.135 218.924 218.051Z" fill="black"/>
<path d="M246.834 111.997C257.584 114.611 250.282 123.26 252.411 128.73C241.66 126.116 248.962 117.467 246.834 111.997Z" fill="black"/>
<path d="M51.459 78.5046V67.3496H62.6141C58.8957 71.068 55.1773 74.7863 51.459 78.5046Z" fill="black"/>
<path d="M196.586 28.2798C202.083 30.4084 210.705 23.1064 213.318 33.8573C207.822 31.7287 199.2 39.0306 196.586 28.2798Z" fill="black"/>
<path d="M179.852 45.0122C185.348 47.1408 193.97 39.8388 196.584 50.5897C191.087 48.4611 182.465 55.7631 179.852 45.0122Z" fill="black"/>
<path d="M101.684 234.81H90.5293V229.232H101.684V234.81Z" fill="black"/>
<path d="M230.079 206.896C230.914 202.666 227.303 196.199 235.656 195.741C234.821 199.972 238.432 206.438 230.079 206.896Z" fill="black"/>
<path d="M235.656 128.757C227.303 128.272 230.914 121.832 230.079 117.602C238.432 118.087 234.821 124.526 235.656 128.757Z" fill="black"/>
<path d="M40.3092 100.842C41.1445 96.6113 37.5338 90.1446 45.8866 89.6865C45.0513 93.9168 48.662 100.384 40.3092 100.842Z" fill="black"/>
<path d="M202.165 84.081C197.934 83.2458 191.468 86.8563 191.01 78.5035C195.24 79.3388 201.706 75.7282 202.165 84.081Z" fill="black"/>
<path d="M45.8833 89.6873C46.7186 85.457 43.1082 78.9903 51.461 78.5322C50.6257 82.7625 54.2361 89.2292 45.8833 89.6873Z" fill="black"/>
<path d="M179.852 72.9273C184.082 73.7626 190.549 70.1521 191.007 78.5049C186.776 77.6696 180.31 81.2801 179.852 72.9273Z" fill="black"/>
<path d="M95.9746 74.1671C99.5313 73.8707 103.115 73.5474 106.672 73.251C106.833 74.4635 106.968 75.649 107.13 76.8615C103.492 77.5621 99.8545 78.2896 96.217 78.9902C96.1362 77.3735 96.0554 75.7838 95.9746 74.1671Z" fill="black"/>
<path d="M84.9551 67.3486C85.4401 58.9958 91.8799 62.6064 96.1102 61.7711C95.6252 70.1239 89.1854 66.5133 84.9551 67.3486Z" fill="black"/>
<path d="M118.608 54.9295C115.051 55.2259 111.468 55.5492 107.911 55.8456C107.749 54.6331 107.615 53.4476 107.453 52.2351C111.091 51.5345 114.728 50.807 118.365 50.1064L118.608 54.9295Z" fill="black"/>
<path d="M118.285 46.2784C121.842 45.982 125.426 45.6587 128.982 45.3623C129.144 46.5748 129.279 47.7604 129.44 48.9729C125.803 49.6734 122.165 50.4009 118.528 51.1015L118.285 46.2784Z" fill="black"/>
<path d="M96.1074 39.4365C96.5924 31.0837 103.032 34.6943 107.262 33.859C106.777 42.2118 100.338 38.6012 96.1074 39.4365Z" fill="black"/>
<path d="M95.5449 61.2597C96.8383 59.7508 98.1314 58.2149 99.4248 56.7061C100.018 57.2988 100.61 57.8916 101.176 58.4574C99.6673 59.7508 98.1317 61.0441 96.6228 62.3375C96.2725 61.9872 95.8952 61.61 95.5449 61.2597Z" fill="black"/>
<path d="M79.3762 234.81C77.517 232.951 75.658 231.092 73.7988 229.232H79.3762V234.81Z" fill="black"/>
<path d="M503.592 268.302C500.062 273.125 496.532 277.948 493.488 282.124C495.832 286.786 498.122 291.312 501.463 297.941C511.568 291.717 521.537 285.6 531.48 279.484C530.698 283.66 529.917 287.837 528.462 295.543C535.71 319.281 537.811 397.878 514.72 419.029C514.72 383.436 539.266 329.143 517.468 296.27C512.861 300.878 508.28 305.458 505.236 308.503C510.921 331.675 522.022 358.755 503.565 379.96C503.565 363.82 509.816 279.861 475.65 285.061C480.716 272.397 492.087 270.296 503.565 268.329L503.592 268.302Z" fill="black"/>
<path d="M475.702 469.254C470.798 478.227 465.625 486.849 453.365 485.987C458.269 477.014 463.442 468.392 475.702 469.254Z" fill="black"/>
<path d="M514.771 419.005C515.229 428.543 515.956 438.216 503.616 441.342C503.185 431.83 507.469 424.663 514.771 419.005Z" fill="black"/>
<path d="M553.843 67.3496C586.527 91.465 590.03 207.326 548.266 229.232C568.609 165.374 570.279 134.307 553.843 67.3496Z" fill="black"/>
<path d="M514.775 28.2793H525.93C534.068 37.3327 542.528 46.1435 550.154 55.628C552.552 58.5919 552.686 63.388 553.845 67.3489C540.831 54.3347 527.79 41.2935 514.775 28.2793Z" fill="black"/>
<path d="M537.081 240.39V251.545H525.926C529.644 247.826 533.363 244.108 537.081 240.39Z" fill="black"/>
<path d="M514.772 262.724C514.287 271.077 507.847 267.466 503.617 268.302C504.102 259.949 510.542 263.559 514.772 262.724Z" fill="black"/>
<path d="M514.77 22.7041V28.2816C497.176 28.2816 479.419 29.7096 462.013 27.9043C443.502 25.9913 426.85 35.6105 408.717 33.886C423.402 19.0665 452.825 21.5454 472.171 18.8779C483.757 27.2038 499.735 21.1143 514.77 22.731V22.7041Z" fill="black"/>
<path d="M324.976 95.2648C324.141 83.005 332.763 77.8316 341.709 72.9277C342.544 85.1875 333.922 90.3608 324.976 95.2648Z" fill="black"/>
<path d="M364.043 56.1956C366.225 47.3847 372.126 44.1244 380.775 45.0406C378.593 53.8514 372.692 57.1117 364.043 56.1956Z" fill="black"/>
<path d="M347.312 67.3489C349.495 58.538 355.396 55.2778 364.045 56.1939C361.863 65.0047 355.962 68.265 347.312 67.3489Z" fill="black"/>
<path d="M391.961 39.4364C394.575 28.6855 403.224 35.9875 408.693 33.8589C406.08 44.6097 397.431 37.3078 391.961 39.4364Z" fill="black"/>
<path d="M380.803 45.0127C381.288 36.6599 387.728 40.2704 391.958 39.4352C391.473 47.788 385.033 44.1774 380.803 45.0127Z" fill="black"/>
<path d="M308.24 430.185C308.24 445.867 253.004 432.448 244.247 427.949C224.227 417.683 216.387 405.477 207.764 384.46C207.764 373.036 203.615 353.986 213.342 346.441C218.785 411.297 244.085 430.158 308.24 430.158V430.185Z" fill="black"/>
<path d="M308.242 402.272C307.029 413.643 295.174 403.458 291.213 411.837C305.601 415.071 315.921 409.278 330.552 407.85C319.909 416.256 257.99 430.752 257.99 407.85H276.393C270.573 402.784 267.07 399.739 263.568 396.695C278.764 396.048 292.614 406.287 308.215 402.272H308.242Z" fill="black"/>
<path d="M252.413 396.694C254.272 400.413 256.131 404.131 257.99 407.849H249.557C243.413 401.517 237.108 395.024 229.267 386.967C228.001 375.812 219.756 348.652 230.076 340.865C232.043 351.185 229.887 361.235 234.306 372.444C238.59 383.33 242.362 391.44 252.413 396.694Z" fill="black"/>
<path d="M386.381 318.528C397.832 334.83 409.041 382.602 386.381 396.667V379.935C388.24 377.645 391.447 375.516 391.743 373.037C393.926 354.526 390.396 336.5 386.381 318.528Z" fill="black"/>
<path d="M352.893 352.02V335.287C356.503 337.685 360.114 340.11 364.317 342.912C362.269 359.537 369.814 377.994 352.893 391.116C353.997 385.35 354.671 379.449 356.342 373.872C358.74 365.869 361.973 358.082 352.893 352.047V352.02Z" fill="black"/>
<path d="M196.586 391.116C195.67 391.116 194.026 391.332 193.945 391.089C187.856 370.45 190.119 355.469 202.163 335.287C203.753 354.229 192.328 371.878 196.586 391.116Z" fill="black"/>
<path d="M380.803 379.935V340.865C382.662 343.129 386.003 345.311 386.138 347.682C386.73 358.406 386.38 369.184 386.38 379.935H380.803Z" fill="black"/>
<path d="M380.806 407.848C377.977 422.209 372.83 427.355 358.469 430.185C365.905 422.748 373.342 415.311 380.806 407.848Z" fill="black"/>
<path d="M364.044 402.272C359.14 411.244 353.967 419.866 341.707 419.004C346.611 410.032 351.784 401.409 364.044 402.272Z" fill="black"/>
<path d="M352.888 435.762C354.747 439.481 356.607 443.199 358.466 446.917H336.129C338.311 438.106 344.212 434.846 352.861 435.762H352.888Z" fill="black"/>
<path d="M224.5 324.131C224.932 333.642 220.647 340.81 213.345 346.468C212.887 336.93 212.16 327.256 224.5 324.131Z" fill="black"/>
<path d="M380.804 340.865C373.502 335.207 369.19 328.067 369.648 318.528C381.989 321.654 381.262 331.327 380.804 340.865Z" fill="black"/>
<path d="M202.162 335.286C201.704 325.748 200.976 316.075 213.317 312.949C213.748 322.461 209.464 329.628 202.162 335.286Z" fill="black"/>
<path d="M352.893 301.796C358.47 303.655 364.048 305.514 369.625 307.373V318.528C364.048 312.951 358.47 307.373 352.893 301.796Z" fill="black"/>
<path d="M369.621 396.694C368.731 388.044 371.965 382.143 380.776 379.961C381.665 388.61 378.431 394.511 369.621 396.694Z" fill="black"/>
<path d="M241.26 324.131C242.149 332.78 238.916 338.681 230.105 340.863C229.216 332.214 232.449 326.313 241.26 324.131Z" fill="black"/>
<path d="M308.133 425.685C313.549 425.415 318.991 425.173 324.407 424.903C324.515 426.143 324.623 427.382 324.757 428.622C319.288 429.349 313.791 430.05 308.321 430.777C308.267 429.08 308.214 427.382 308.16 425.658L308.133 425.685Z" fill="black"/>
<path d="M386.381 396.693C385.545 400.924 389.156 407.39 380.803 407.848C381.639 403.618 378.028 397.151 386.381 396.693Z" fill="black"/>
<path d="M330.551 407.847C331.036 399.494 337.476 403.104 341.706 402.269C341.221 410.622 334.781 407.011 330.551 407.847Z" fill="black"/>
<path d="M341.87 423.34C338.313 423.636 334.729 423.959 331.173 424.256C331.011 423.043 330.877 421.858 330.715 420.645C334.352 419.945 337.99 419.217 341.627 418.517L341.87 423.34Z" fill="black"/>
<path d="M313.819 379.933C313.334 388.286 306.894 384.675 302.664 385.511C303.149 377.158 309.589 380.768 313.819 379.933Z" fill="black"/>
<path d="M324.977 396.694C322.363 407.445 313.714 400.143 308.244 402.271C310.858 391.52 319.507 398.822 324.977 396.694Z" fill="black"/>
<path d="M252.414 469.254V477.472C281.864 471.76 311.961 476.826 342.247 474.158C339.552 469.524 337.855 466.587 336.158 463.677C349.872 461.952 360.057 468.823 369.865 477.553C362.994 483.993 356.285 490.325 348.983 497.169H341.735C345.211 492.022 348.714 486.849 353.267 480.113C314.009 481.891 276.987 475.667 239.319 489.436C244.115 494.313 248.264 498.543 252.414 502.746H238.537C235.627 496.953 232.663 491.026 229.457 484.613C236.382 478.065 239.992 467.368 252.441 469.254H252.414Z" fill="black"/>
<path d="M235.655 530.661C233.796 526.943 231.937 523.225 230.078 519.506C244.682 517.216 299.622 529.961 313.013 532.601C287.039 538.987 261.307 536.077 235.655 530.661Z" fill="black"/>
<path d="M341.734 497.17C320.529 512.556 292.641 517.918 269.199 510.966C268.957 510.885 269.172 509.242 269.172 508.326C282.294 507.194 295.309 510.185 308.539 503.341C318.104 498.383 330.579 499.003 341.761 497.144L341.734 497.17Z" fill="black"/>
<path d="M218.92 519.479C217.061 517.62 215.201 515.761 213.342 513.902C210.998 501.642 208.654 489.382 206.391 477.527C211.914 473.889 215.417 471.572 218.947 469.255C218.947 493.64 214.312 497.87 230.102 519.479H218.947H218.92Z" fill="black"/>
<path d="M358.469 446.917C373.8 450.716 382.584 459.5 386.383 474.832C377.087 465.536 367.765 456.213 358.469 446.917Z" fill="black"/>
<path d="M269.145 508.324C263.648 506.195 255.026 513.497 252.412 502.747C257.909 504.875 266.531 497.573 269.145 508.324Z" fill="black"/>
<path d="M320.258 526.027H335.077C335.185 526.97 335.266 527.913 335.374 528.856C330.497 529.557 325.62 530.258 320.743 530.958C320.581 529.315 320.419 527.671 320.258 526.027Z" fill="black"/>
<path d="M230.078 463.678C230.563 455.325 237.003 458.935 241.233 458.1C240.748 466.453 234.308 462.842 230.078 463.678Z" fill="black"/>
<path d="M218.92 469.254C219.405 460.901 225.845 464.512 230.075 463.676C229.59 472.029 223.15 468.419 218.92 469.254Z" fill="black"/>
<path d="M475.706 285.036C474.628 287.353 473.523 289.697 471.422 294.197C484.517 311.387 504.186 391.036 475.706 402.244C482.792 366.489 490.444 314.217 453.234 292.984C458.677 323.674 468.754 350.484 463.419 379.045C451.725 372.39 453.369 327.096 453.369 316.48C448.896 309.367 444.72 302.711 438.145 292.23C436.933 309.825 453.153 373.117 436.636 379.934C436.636 357.085 434.561 334.29 433.08 311.495C425.751 305.082 419.876 299.936 410.985 292.176C409.961 301.58 409.341 307.265 408.722 312.923C402.875 312.896 398.806 292.661 397.971 290.586C424.969 290.586 449.219 289.805 475.706 285.009V285.036Z" fill="black"/>
<path d="M537.084 218.05C550.61 175.235 551.149 146.971 548.024 102.62C539.752 90.4141 530.052 76.0796 520.352 61.7721C570.388 51.2637 555.487 181.729 551.311 202.126C548.32 205.467 542.715 211.772 537.084 218.05Z" fill="black"/>
<path d="M352.889 95.2661L341.734 100.844C341.734 82.4674 371.993 59.5107 389.265 56.0887C395.893 46.4695 405.889 52.101 414.296 50.5921C408.692 59.1874 397.833 56.6815 390.666 61.8279C388.86 63.1213 387.782 65.4654 386.381 67.3246C377.732 66.4354 371.831 69.6688 369.649 78.4796C367.79 80.3388 365.931 82.198 364.071 84.0572C362.212 85.9163 360.353 87.7755 358.494 89.6347C356.635 91.4939 354.776 93.353 352.916 95.2122L352.889 95.2661Z" fill="black"/>
<path d="M409.77 312.976C423.296 340.755 424.239 368.481 410.416 396.153C415.832 368.239 417.772 340.459 409.77 312.976Z" fill="black"/>
<path d="M408.717 268.304C431.189 268.304 452.879 258.819 475.701 262.726C472.953 269.435 408.717 280.536 408.717 268.304Z" fill="black"/>
<path d="M503.589 50.5903C493.27 48.7311 483.031 46.1714 472.63 45.2014C462.553 44.2853 452.341 45.0128 442.183 45.0128C442.183 44.0967 442.048 42.3992 442.183 42.3722C463.442 39.058 485.133 32.8608 503.563 50.5903H503.589Z" fill="black"/>
<path d="M509.195 245.966C518.491 236.67 527.814 227.348 537.11 218.052C536.382 230.419 529.916 239.715 517.71 245.966H509.222H509.195Z" fill="black"/>
<path d="M369.621 257.147C378.109 257.579 403.895 264.961 408.691 268.302C394.706 267.952 379.644 271.401 369.621 257.147Z" fill="black"/>
<path d="M393.549 453.627C386.597 442.041 382.744 435.655 379.457 430.158C388.079 430.482 391.825 436.948 393.549 453.627Z" fill="black"/>
<path d="M442.209 45.0124C439.973 46.8716 437.898 50.1049 435.5 50.3474C428.495 51.0749 421.354 50.6169 414.295 50.6169C416.531 48.7577 418.606 45.5244 421.004 45.2819C428.01 44.5544 435.15 45.0124 442.209 45.0124Z" fill="black"/>
<path d="M520.35 61.7717C511.701 62.6609 505.8 59.4275 503.617 50.6167C512.266 49.7275 518.167 52.9608 520.35 61.7717Z" fill="black"/>
<path d="M369.621 307.372V296.217C378.432 298.399 381.692 304.3 380.776 312.949C377.058 311.09 373.339 309.231 369.621 307.372Z" fill="black"/>
<path d="M352.893 245.964C361.542 245.075 367.443 248.309 369.625 257.119C360.976 258.009 355.075 254.775 352.893 245.964Z" fill="black"/>
<path d="M475.703 262.726C478.317 251.976 486.966 259.278 492.436 257.149C489.822 267.9 481.173 260.598 475.703 262.726Z" fill="black"/>
<path d="M394.329 291.501C387.539 289.561 384.171 288.618 380.803 287.648C386.865 283.202 391.392 284.468 394.329 291.501Z" fill="black"/>
<path d="M369.621 279.457C373.851 280.292 380.318 276.681 380.776 285.034C376.546 284.199 370.079 287.809 369.621 279.457Z" fill="black"/>
<path d="M492.436 257.147C492.921 248.795 499.36 252.405 503.59 251.57C503.105 259.923 496.666 256.312 492.436 257.147Z" fill="black"/>
<path d="M402.549 407.336C403.842 405.827 405.136 404.291 406.429 402.782C407.022 403.375 407.615 403.968 408.18 404.534C406.672 405.827 405.136 407.12 403.627 408.414C403.276 408.063 402.899 407.686 402.549 407.336Z" fill="black"/>
<path d="M475.703 402.27C476.215 413.263 475.191 423.637 464.548 430.184C464.036 419.191 465.06 408.817 475.703 402.27Z" fill="black"/>
<path d="M453.366 407.848C453.824 417.386 454.552 427.059 442.211 430.185C441.78 420.673 446.064 413.506 453.366 407.848Z" fill="black"/>
<path d="M464.519 430.185V441.34C460.801 443.199 457.083 445.059 453.365 446.918C452.476 438.269 455.709 432.368 464.519 430.158V430.185Z" fill="black"/>
<path d="M436.608 469.254H425.453C425.938 460.901 432.378 464.512 436.608 463.676V469.254Z" fill="black"/>
<path d="M436.607 463.677C438.467 461.818 440.326 459.959 442.185 458.1V463.677H436.607Z" fill="black"/>
<path d="M452.775 407.336L456.656 402.782L458.407 404.534C456.898 405.827 455.362 407.12 453.853 408.414C453.503 408.063 453.126 407.686 452.775 407.336Z" fill="black"/>
<path d="M486.861 419.004C485.891 403.188 493.516 391.036 503.593 379.935C504.563 395.751 496.938 407.903 486.861 419.004Z" fill="black"/>
<path d="M464.521 441.34C468.24 439.481 471.958 437.622 475.677 435.763C476.566 444.412 473.332 450.313 464.521 452.495V441.34Z" fill="black"/>
<path d="M436.607 474.831V469.253C438.467 467.394 440.326 465.535 442.185 463.676H453.34C451.158 472.487 445.257 475.747 436.607 474.831Z" fill="black"/>
<path d="M475.704 435.761C476.539 431.531 472.929 425.065 481.281 424.606C480.446 428.837 484.056 435.303 475.704 435.761Z" fill="black"/>
<path d="M520.35 95.2646C525.981 101.57 531.586 107.875 537.217 114.153C535.978 147.564 539.777 204.875 503.617 223.655C508.036 200.187 526.52 183.912 529.727 158.369C532.825 133.741 524.742 118.491 520.35 95.2646Z" fill="black"/>
<path d="M475.702 212.475C467.753 234.434 426.07 229.207 408.772 229.207C402.305 222.741 394.329 214.819 386.381 206.87C399.314 205.119 419.172 220.639 433.534 220.935C446.548 221.205 462.526 214.873 475.675 212.448L475.702 212.475Z" fill="black"/>
<path d="M498.014 106.419C503.537 112.616 509.061 118.786 514.45 124.822V169.415C508.738 175.532 509.492 187.603 498.014 190.136C504.103 155.997 508.172 142.067 498.014 106.419Z" fill="black"/>
<path d="M347.312 201.32C327.831 189.249 336.157 150.853 336.157 132.638C344.187 126.01 342.651 112.565 352.89 106.448C349.225 138.458 350.276 170.145 347.312 201.347V201.32Z" fill="black"/>
<path d="M380.805 201.318C373.018 193.558 365.258 185.798 358.468 179.008C358.468 164.674 354.669 146.028 364.046 134.334C362.079 156.887 364.18 178.307 380.67 195.956C381.587 196.926 380.778 199.486 380.778 201.318H380.805Z" fill="black"/>
<path d="M391.961 240.39C404.14 242.249 416.238 244.809 428.498 245.779C440.434 246.695 452.505 245.967 464.522 245.967C464.522 256.422 440.865 248.015 434.857 256.098C422.031 246.344 399.263 258.496 391.961 240.39Z" fill="black"/>
<path d="M364.043 134.334C365.929 110.084 376.841 95.5604 397.535 89.6865C386.38 104.56 375.198 119.46 364.043 134.334Z" fill="black"/>
<path d="M403.111 84.0819C411.895 69.9629 454.872 66.0021 464.518 78.5043C454.36 78.5043 444.148 77.7768 434.071 78.6929C423.67 79.636 413.431 82.2227 403.111 84.0819Z" fill="black"/>
<path d="M347.312 201.319C358.468 212.474 369.65 223.656 380.805 234.811H372.156C360.866 223.387 352.136 216.785 347.312 201.319Z" fill="black"/>
<path d="M380.807 78.5059C371.511 87.8017 362.188 97.1245 352.893 106.42V95.2654C354.752 93.4062 356.611 91.547 358.47 89.6878C360.329 87.8287 362.188 85.9695 364.048 84.1103C365.907 82.2512 367.766 80.392 369.625 78.5328H380.78L380.807 78.5059Z" fill="black"/>
<path d="M498.014 229.232C491.062 243.217 478.587 246.207 464.521 245.965C474.141 237.289 484.38 229.825 498.014 229.232Z" fill="black"/>
<path d="M463.711 60.8018H425.988C430.299 52.0717 455.546 56.1943 463.522 56.1943C463.603 57.7301 463.657 59.2659 463.738 60.8018H463.711Z" fill="black"/>
<path d="M475.703 84.0811C490.065 86.9102 495.211 92.0566 498.04 106.418C490.604 98.9814 483.167 91.5447 475.703 84.0811Z" fill="black"/>
<path d="M520.351 95.2648C512.914 87.8281 505.477 80.3914 498.014 72.9277C512.375 75.7569 517.522 80.9033 520.351 95.2648Z" fill="black"/>
<path d="M403.114 67.3496C397.456 74.6516 390.316 78.9627 380.777 78.5046C382.637 74.7863 384.496 71.068 386.355 67.3496H403.087H403.114Z" fill="black"/>
<path d="M498.016 190.162C496.857 202.664 493.785 205.736 481.283 206.895C486.861 201.317 492.438 195.74 498.016 190.162Z" fill="black"/>
<path d="M485.998 66.65H470.289C476.468 63.1831 481.705 63.1831 485.998 66.65Z" fill="black"/>
<path d="M403.033 62.8761C408.449 62.6067 413.892 62.3642 419.308 62.0947C419.416 63.3342 419.523 64.5736 419.658 65.8131C414.188 66.5406 408.691 67.2411 403.222 67.9686C403.168 66.2711 403.114 64.5736 403.06 62.8492L403.033 62.8761Z" fill="black"/>
<path d="M380.803 234.81C385.033 235.645 391.5 232.035 391.958 240.388C387.728 239.552 381.261 243.163 380.803 234.81Z" fill="black"/>
<path d="M464.521 78.5035C468.752 79.3388 475.219 75.7282 475.677 84.081C471.446 83.2458 464.98 86.8563 464.521 78.5035Z" fill="black"/>
<path d="M498.011 72.9277C493.78 72.0924 487.314 75.703 486.855 67.3502C491.086 68.1855 497.552 64.5749 498.011 72.9277Z" fill="black"/>
<path d="M185.43 184.559C187.882 200.698 161.18 208.081 152.423 212.392H125.964C119.982 207.057 113.623 201.372 107.291 195.714C119.685 199.432 132.08 203.15 146.657 207.542C158.701 200.402 172.066 192.48 185.43 184.559Z" fill="black"/>
<path d="M101.685 190.162C96.1885 184.019 90.6916 177.903 85.3027 171.867V141.959C89.7486 138.375 95.7035 133.579 101.685 128.756C97.9669 138.995 94.2485 149.234 90.5301 159.446C94.2485 169.685 97.9669 179.924 101.685 190.136V190.162Z" fill="black"/>
<path d="M179.852 117.576H188.096C201.838 135.845 194.833 156.888 196.88 176.908C192.677 179.737 189.04 182.135 185.429 184.56C193.351 161.415 194.806 138.808 179.852 117.576Z" fill="black"/>
<path d="M124.025 111.998C132.19 101.274 143.129 98.9564 155.578 101.92C156.521 102.136 156.871 104.857 157.518 106.42C146.363 108.279 135.18 110.138 124.025 111.998Z" fill="black"/>
<path d="M107.291 123.18C109.474 114.369 115.374 111.109 124.023 112.025C121.841 120.836 115.94 124.096 107.291 123.18Z" fill="black"/>
<path d="M157.518 106.418C163.014 108.547 171.636 101.245 174.25 111.996C168.753 109.867 160.131 117.169 157.518 106.418Z" fill="black"/>
<path d="M434.264 167.826C424.725 161.278 418.744 157.156 411.98 152.495C415.295 145.408 417.855 139.992 420.28 134.792H447.359C449.811 139.992 452.344 145.408 455.658 152.495C448.895 157.156 442.913 161.278 433.375 167.826C436.581 167.826 433.806 167.826 434.237 167.826H434.264ZM425.911 155.728H441.727V146.432H425.911V155.728Z" fill="black"/>
<path d="M470.095 184.559C463.844 190.136 457.593 195.714 451.585 201.076C423.993 203.312 401.171 196.764 386.352 170.035C386.352 158.934 382.445 141.663 391.929 134.334C391.929 143.253 391.552 152.198 392.172 161.063C392.333 163.434 395.648 165.59 397.507 167.826C397.507 210.102 453.147 181.945 470.068 184.559H470.095Z" fill="black"/>
<path d="M481.283 123.181C490.417 134.659 486.861 151.688 486.861 165.834C481.202 172.166 475.652 178.363 470.128 184.587C470.128 182.755 469.347 180.276 470.236 179.171C483.87 162.412 481.364 142.581 481.283 123.181Z" fill="black"/>
<path d="M453.367 123.181C456.978 125.606 460.615 128.031 464.064 130.348V173.432H453.367C460.508 159.421 463.498 145.518 453.556 131.291C452.263 129.459 453.367 125.929 453.367 123.181Z" fill="black"/>
<path d="M403.112 139.913V158.155C408.932 165.403 414.402 172.193 419.845 178.983C415.857 177.77 411.599 177.07 407.935 175.237C404.163 173.351 400.956 170.333 397.507 167.828C397.507 160.741 397.05 153.628 397.777 146.622C398.02 144.224 401.253 142.149 403.112 139.913Z" fill="black"/>
<path d="M397.539 123.181C400.368 108.819 405.515 103.673 419.876 100.844C412.439 108.28 405.003 115.717 397.539 123.181Z" fill="black"/>
<path d="M419.875 123.181L403.143 139.913C404.301 127.411 407.373 124.339 419.875 123.181Z" fill="black"/>
<path d="M475.702 111.995C466.191 112.427 459.024 108.142 453.365 100.84C462.904 100.382 472.576 99.6549 475.702 111.995Z" fill="black"/>
<path d="M442.21 178.982C435.151 186.527 426.933 186.527 419.873 178.982H442.21Z" fill="black"/>
<path d="M419.795 118.681C425.211 118.411 430.654 118.169 436.07 117.899C436.177 119.139 436.285 120.378 436.42 121.618C430.95 122.345 425.453 123.046 419.984 123.773C419.93 122.076 419.876 120.378 419.822 118.654L419.795 118.681Z" fill="black"/>
<path d="M436.607 95.2661C442.104 97.3947 450.727 90.0928 453.34 100.844C447.844 98.715 439.221 106.017 436.607 95.2661Z" fill="black"/>
<path d="M442.213 178.981C442.698 170.629 449.138 174.239 453.368 173.404C452.883 181.757 446.443 178.146 442.213 178.981Z" fill="black"/>
<path d="M397.539 123.181C396.704 127.411 400.314 133.878 391.962 134.336C392.797 130.105 389.186 123.639 397.539 123.181Z" fill="black"/>
<path d="M439.545 116.632C446.631 118.653 449.999 119.596 453.367 120.566C447.251 125.012 442.644 123.718 439.545 116.632Z" fill="black"/>
<path d="M481.281 123.178C472.929 122.693 476.539 116.254 475.704 112.023C484.056 112.508 480.446 118.948 481.281 123.178Z" fill="black"/>
<path d="M436.122 95.8306C434.613 94.5373 433.077 93.244 431.568 91.9506L433.32 90.1992C434.613 91.7081 435.907 93.244 437.2 94.7529C436.85 95.1031 436.472 95.4803 436.122 95.8306Z" fill="black"/>
<path d="M419.279 100.329C420.573 98.8201 421.866 97.2843 423.159 95.7754C423.752 96.3682 424.345 96.961 424.911 97.5268C423.402 98.8201 421.866 100.113 420.357 101.407L419.279 100.329Z" fill="black"/>
<path d="M157.518 128.756C163.068 130.534 168.646 132.339 174.25 134.145C174.25 145.273 178.507 165.858 168.673 173.403V143.953C164.739 138.591 161.128 133.66 157.518 128.756Z" fill="black"/>
<path d="M107.287 173.404C94.2191 163.515 104.889 144.654 109.955 134.334H118.442C112.164 146.621 104.189 158.449 107.287 173.404Z" fill="black"/>
<path d="M124.025 128.757C134.48 120.862 147.063 120.862 157.518 128.757H124.025Z" fill="black"/>
<path d="M129.599 190.163H116.45C110.415 186.229 105.592 181.595 107.262 173.431C114.699 179.008 122.136 184.586 129.599 190.163Z" fill="black"/>
<path d="M163.093 178.981C160.237 182.942 157.408 186.93 155.091 190.136H140.783C146.442 182.835 153.582 178.523 163.12 178.981H163.093Z" fill="black"/>
<path d="M140.782 190.162C138.464 192.021 136.147 193.88 133.83 195.74C132.429 193.88 131.028 192.021 129.6 190.162H140.755H140.782Z" fill="black"/>
<path d="M156.601 165.131C150.215 175.855 141.35 172.945 132.539 173.457C127.878 168.93 122.759 163.972 118.932 160.254C115.726 143.656 127.124 140.557 139.464 136.192C143.371 138.429 149.73 142.066 156.601 146V165.104V165.131ZM139.383 148.021C136.338 149.449 132.566 151.254 129.737 152.575C133.401 157.101 135.557 159.796 139.383 164.511V147.994V148.021Z" fill="black"/>
</svg>
