<svg width="434" height="605" viewBox="0 0 434 605" fill="none" xmlns="http://www.w3.org/2000/svg">
<path d="M18.1961 4.24132C19.2821 11.1648 19.9937 18.1631 21.604 24.9369C24.3378 36.6133 26.6971 48.5519 30.9663 59.7043C37.2952 76.3208 49.3539 85.0781 69.0148 81.6725C75.7556 71.2311 76.6544 53.5666 94.3679 53.9034C109.759 54.2028 112.006 68.2369 116.688 82.1962C155.298 71.418 178.853 44.9215 198.664 6.14978C201.622 16.5912 203.794 20.97 203.982 25.4609C204.543 39.757 204.618 54.0533 204.356 68.3494C203.72 104.614 201.735 140.878 202.259 177.105C202.858 215.614 205.929 254.087 207.577 292.559C208.139 305.994 207.652 319.467 207.652 332.229C205.63 333.913 204.618 335.485 203.308 335.747C188.178 339.003 178.629 347.573 178.217 363.553C177.767 380.169 190.163 387.205 202.858 392.894C223.792 402.287 261.354 393.792 277.045 376.801C293.036 359.474 288.729 338.666 266.709 329.459C259.893 326.615 252.254 325.642 242.442 323.172C243.154 272.05 241.394 219.843 245.251 168.048C249.071 116.627 243.566 64.5695 252.928 10.0795C263.751 19.6976 260.156 28.642 259.931 35.9772C259.369 55.9992 265.923 73.3642 277.607 88.8579C283.899 97.1661 290.939 105.587 304.233 104.464C309.364 92.5254 309.626 76.1336 328.089 75.5723C343.368 75.1232 347.337 88.0345 354.528 98.8127C399.017 81.2606 409.99 38.3724 426.842 0.0498047C428.415 0.461473 429.95 0.872978 431.486 1.28465C432.347 5.77558 434.107 10.2666 433.995 14.7201C432.31 78.3042 430.699 141.888 428.415 205.435C425.269 292.559 428.153 379.496 433.059 466.47C434.557 492.892 434.145 519.613 432.235 546.035C431.261 559.171 424.895 571.857 420.925 584.919C357.112 588.287 294.01 585.443 230.271 602.957C223.455 578.369 225.141 555.466 225.665 533.198C259.257 519.201 259.893 518.752 272.738 497.233C256.448 481.852 236.563 492.817 218.774 490.572C200.462 488.289 181.4 486.043 162.301 492.406C163.574 506.851 173.086 512.839 183.16 517.854C204.731 528.557 204.618 528.333 200.986 552.247C198.627 567.778 196.941 583.384 194.882 599.439C190.051 600.45 186.418 601.872 182.786 601.909C135.899 602.508 89.0126 602.92 42.1261 603.406C38.3438 603.444 34.5614 603.743 30.779 603.893C4.19005 605.016 -0.67828 600.599 0.0707045 574.814C2.61725 489.149 5.91274 403.485 7.74775 317.82C8.90868 262.619 8.23462 207.344 8.00992 152.143C7.82268 109.778 6.88639 67.4512 6.66169 25.0868C6.62424 18.1632 8.45933 11.277 9.43301 4.35348C12.3541 4.31605 15.2751 4.24129 18.2336 4.20386L18.1961 4.24132ZM18.1961 68.6112C18.1961 80.2501 18.1587 86.2008 18.1961 92.1513C18.6455 150.384 20.2559 208.616 19.2822 266.811C17.7468 356.218 14.4137 445.55 11.8297 534.957C11.4552 547.831 10.3692 560.705 11.0433 573.542C11.9421 590.794 15.7245 594.237 33.4005 594.799C53.8478 595.472 74.3699 595.622 94.8172 595.36C124.215 595.023 153.613 594.125 181.999 593.489C184.134 589.335 185.744 587.426 186.081 585.33C187.279 577.883 186.905 569.986 189.189 562.913C195.78 542.292 189.377 530.616 170.128 519.201C140.243 501.462 139.944 471.448 168.817 451.351C182.448 441.882 200.611 438.552 217.051 433.574C236.001 427.811 253.153 434.585 268.769 444.652C290.602 458.761 295.545 480.542 283.936 503.97C276.783 518.415 265.361 527.996 250.868 533.722C240.045 537.988 235.551 544.65 236.75 556.252C237.723 565.72 237.424 575.338 237.724 586.341C297.118 582.523 353.517 578.893 410.327 575.263C417.405 561.004 422.536 547.307 422.011 531.514C420.326 479.344 419.615 427.137 417.817 374.93C414.521 277.964 415.607 181.072 420.438 84.2173C420.738 77.9674 418.828 71.6052 417.405 61.4257C409.241 69.9959 404.447 75.6844 398.942 80.587C388.756 89.6063 379.132 99.8232 367.56 106.56C337.001 124.261 299.515 127.48 271.39 98.5507C267.982 95.0702 264.237 91.9267 259.631 87.6603C257.946 91.4776 256.448 93.3489 256.373 95.2576C254.576 160.301 253.04 225.382 251.13 290.426C250.644 306.78 252.853 317.633 272.589 323.472C301.237 331.967 305.844 358.052 285.883 380.469C262.74 406.479 214.467 413.402 185.482 394.915C162.338 380.169 160.653 349.482 183.872 334.998C195.705 327.626 198.739 319.018 198.14 307.005C197.653 297.162 196.941 287.357 196.342 277.514C194.844 252.59 192.372 227.703 192.035 202.778C191.474 163.37 192.597 123.924 192.335 84.5165C192.26 74.6739 189.526 64.8313 187.616 52.4812C180.501 57.4587 176.419 59.5545 173.311 62.6233C151.777 83.8056 125.189 93.1617 95.9408 97.69C71.8984 101.432 50.7769 97.3531 32.9136 80.1005C29.8803 77.1814 26.2477 74.8236 18.2336 68.6486L18.1961 68.6112ZM163.724 476.425C174.022 477.847 181.924 479.644 189.901 479.906C213.269 480.692 236.675 481.215 260.043 481.028C265.324 480.991 273.637 478.858 275.098 475.377C276.858 471.261 274.162 463.551 270.904 459.285C247.011 427.811 183.834 435.932 163.724 476.425Z" fill="black"/>
</svg>
