<svg width="605" height="588" viewBox="0 0 605 588" fill="none" xmlns="http://www.w3.org/2000/svg">
<path d="M604.842 455.594C584.635 464.752 565.213 473.012 546.278 482.244C498.641 505.419 451.303 529.265 403.629 552.439C379.791 564.026 355.692 575.053 331.331 585.481C326.242 587.649 319.394 587.238 313.668 586.229C240.51 573.52 167.352 561.037 94.3806 547.282C66.9135 542.123 40.0826 533.788 9.95864 526.163C8.91085 519.958 6.47845 511.287 6.17908 502.54C3.89639 429.915 1.2022 357.291 0.229251 284.629C-0.556592 224.115 0.902904 163.6 1.23969 103.086C1.38938 73.5946 1.23969 44.1409 1.23969 11.9214C11.2685 10.3889 21.4096 7.54845 31.5507 7.4737C101.266 7.06254 170.944 7.17446 240.66 7.24921C246.685 7.24921 252.747 8.14633 258.771 8.70699C285.228 11.1739 285.116 11.2112 285.341 38.4969C285.49 55.1673 286.201 71.8008 286.239 88.4712C286.239 95.9093 285.303 103.31 284.63 113.178C248.443 109.776 217.983 90.1155 180.823 86.7515C188.906 104.805 204.773 110.823 219.854 121.55C209.638 133.175 200.357 143.678 187.634 158.143C223.035 155.339 248.63 135.268 280.064 134.969V277.49C266.293 270.126 255.03 264.071 242.344 257.268C236.993 274.873 235.121 289.338 241.071 304.14C256.526 309.335 267.453 298.234 283.507 294.384C285.49 300.514 289.307 306.981 289.382 313.484C289.644 332.285 287.885 351.123 287.96 369.924C287.998 381.138 284.368 387.156 272.617 387.343C237.105 387.978 202.266 397.285 166.267 393.622C148.529 391.828 130.193 395.752 112.118 397.061C101.528 418.179 104.035 422.664 125.478 428.009C177.044 440.83 229.209 450.249 282.047 455.407C295.257 456.678 309.44 455.669 322.2 452.155C363.775 440.68 404.901 427.561 446.176 414.965C451.191 413.432 455.943 411.077 462.305 408.461C462.978 398.967 463.652 389.361 464.4 378.633C411.712 371.905 361.118 383.231 308.167 384.763C304.575 355.945 307.082 328.099 311.909 298.458C325.381 300.253 337.805 301.897 352.287 303.804V255.063C336.42 261.642 323.061 267.211 309.702 272.743C303.752 257.642 303.078 162.292 308.13 137.66C338.404 135.529 367.929 150.107 403.105 144.463C391.205 134.857 382.299 127.68 371.11 118.635C385.816 107.459 398.689 97.7408 411.562 87.9853C410.851 86.4902 410.14 84.9574 409.429 83.4622C374.066 90.7135 341.023 107.982 301.843 112.654C298.887 76.9961 293.873 43.4685 301.507 9.45482C356.628 7.84758 408.755 6.61405 460.883 4.70779C484.346 3.8481 507.734 1.08185 531.197 0.184786C545.492 -0.375878 559.862 0.969899 574.231 1.3063C584.822 1.56794 588.526 7.24952 588.638 17.3789C588.826 34.7595 590.098 52.1025 590.584 69.4831C592.643 142.855 594.065 216.228 596.796 289.563C598.48 334.902 602.147 380.166 604.729 425.468C605.291 435.148 604.804 444.904 604.804 455.706L604.842 455.594ZM234.074 321.782C226.14 300.738 226.328 257.418 233.887 242.99C245.337 247.774 256.863 252.596 269.811 258.016V147.415C204.923 166.627 144.076 185.914 85.9609 211.929C74.6223 192.306 67.2504 69.1093 75.7075 46.6454C93.8568 50.1589 112.68 52.5139 130.754 57.5972C170.869 68.8479 210.611 81.5188 250.539 93.4422C257.424 95.498 264.572 96.6943 273.703 98.75C273.703 76.2861 274.339 56.7373 273.478 37.2636C272.805 21.9761 269.399 18.6495 254.206 17.6029C228.61 15.8461 202.902 14.1266 177.268 14.2014C131.914 14.3135 86.5598 15.6593 41.2054 16.7433C33.0476 16.9302 24.8896 18.3134 14.8233 19.3226C13.9627 28.7417 12.8027 36.8526 12.5782 44.9636C12.2788 56.3264 12.8401 67.6891 12.8027 79.0519C12.5033 174.365 11.4929 269.678 12.0542 364.991C12.3162 410.367 15.7216 455.706 17.3682 501.082C17.7424 510.875 18.79 519.286 30.3157 521.865C62.8347 529.153 95.0916 537.787 127.835 543.656C184.491 553.785 241.52 561.634 298.176 571.764C315.465 574.866 330.994 573.969 346.674 566.493C419.121 531.994 491.755 497.905 564.128 463.256C597.694 447.184 597.507 446.773 594.102 409.956C593.952 408.461 593.578 406.966 593.466 405.471C591.557 376.017 588.713 346.563 587.965 317.11C586.842 273.341 588.302 229.497 586.693 185.765C584.821 135.193 580.93 84.696 577.525 34.2362C577.038 27.0597 574.194 20.0698 572.66 13.9025C527.118 4.1096 484.271 15.8088 441.237 15.3229C397.753 14.837 354.195 18.0517 307.868 19.7337C307.868 43.0947 307.382 63.4281 308.055 83.6867C308.467 96.0587 313.594 99.9458 326.279 96.0585C355.206 87.2374 383.833 77.2949 412.46 67.5393C437.532 58.9799 462.492 50.0466 487.527 41.375C496.957 38.1231 506.462 35.9927 517.538 44.2532C511.963 87.5738 526.856 131.455 519.484 177.093C511.327 177.093 503.805 178.14 496.657 176.944C445.877 168.422 395.171 159.189 344.391 150.779C335.784 149.359 326.728 150.593 317.261 150.593V257.38C333.539 248.746 346.636 241.832 362.914 233.235C364.187 260.184 365.945 282.535 365.908 304.925C365.908 313.634 357.114 314.232 350.079 313.634C341.322 312.886 332.603 311.391 323.884 310.195C314.005 328.248 318.346 345.891 319.132 362.86C319.319 366.56 326.728 371.868 331.556 372.877C338.74 374.41 346.786 373.737 354.158 372.391C384.095 366.897 414.107 364.879 444.642 365.402C475.477 365.925 475.477 364.617 474.242 395.341C473.194 421.281 472.671 420.721 448.571 427.187C414.219 436.419 380.315 447.259 346.187 457.276C322.126 464.34 298.775 478.469 272.468 465.051C270.597 464.079 267.94 464.677 265.732 464.266C226.328 456.753 186.923 449.09 147.481 441.727C137.078 439.783 126.563 438.326 116.048 437.279C97.8235 435.485 95.2413 433.055 95.3536 415.151C95.3536 409.844 96.1395 404.536 96.1395 399.266C96.0647 387.492 101.977 383.642 113.353 383.941C134.571 384.502 155.864 384.689 177.044 383.754C204.286 382.558 231.492 380.428 258.659 378.073C266.817 377.363 276.397 376.129 276.734 364.804C277.22 347.685 276.846 330.528 276.846 311.017C261.316 314.979 248.294 318.269 234.111 321.857L234.074 321.782ZM150.026 80.3227C126.338 64.8109 105.308 63.4651 80.535 59.989C85.5868 82.4903 77.0548 102.488 87.9443 124.241C108.788 109.515 127.423 96.3577 150.026 80.3601V80.3227ZM89.441 196.343C113.278 189.839 132.139 184.27 150.288 171.898C135.619 156.087 119.341 147.117 102.277 139.791C92.6594 135.679 86.2228 139.304 86.2228 148.387C86.2228 163.039 88.0566 177.691 89.4038 196.306L89.441 196.343ZM455.345 68.5112C466.084 87.2 488.836 100.88 498.192 93.2178C511.738 82.154 504.853 67.4646 501.036 54.0461C500.736 52.9621 498.753 52.3268 496.77 50.8691C482.176 54.0088 467.17 57.41 455.345 68.5112ZM462.118 158.741C476.001 161.17 486.217 164.123 496.433 164.198C500.736 164.235 508.295 158.778 508.857 155.003C510.428 144.388 512.374 132.801 503.842 121.737C486.965 129.1 472.97 138.594 462.118 158.703V158.741ZM164.583 163.189C172.029 153.732 181.647 148.537 184.491 135.866C164.171 130.11 145.573 132.95 123.681 135.118C135.02 151.677 149.165 156.349 164.583 163.189ZM413.208 125.549L411.524 133.623C421.815 140.015 432.106 146.444 441.574 152.312C454.521 142.743 462.592 132.9 465.785 122.784C447.673 123.755 430.46 124.652 413.208 125.549ZM130.193 115.308C147.294 114 162.075 112.879 178.915 111.608C173.676 98.1518 165.93 91.0128 155.938 92.1715C145.199 93.4424 135.02 99.3852 130.193 115.308ZM459.087 94.8252C452.763 89.6297 447.523 85.2937 441.199 80.0982C433.378 87.3121 427.204 93.0311 417.138 102.376C434.763 103.048 446.363 105.702 459.087 94.8252Z" fill="black"/>
</svg>
