<svg width="466" height="531" viewBox="0 0 466 531" fill="none" xmlns="http://www.w3.org/2000/svg">
<path d="M213.475 170.623C214.037 203.864 199.687 293.068 227.93 314.454C251.214 332.077 279.14 299.681 296.199 322.298C310.76 341.609 261.132 385.613 296.199 417.376C320.784 439.642 366.612 412.417 377.094 418.678C449.934 462.154 318.884 524.801 274.849 529.374C222.971 534.791 100.151 522.902 95.5791 466.094C89.213 386.809 210.52 479.038 207.671 382.729C206.792 353.287 182.84 350.051 177.002 328.137C170.178 302.459 174.786 298.168 176.861 271.013C181.222 213.818 209.43 191.412 155.371 192.432C106.131 193.382 82.7414 221.029 33.6065 185.151C-12.9257 151.171 -7.47412 111.599 29.7728 71.8868C61.3218 38.2594 117.245 12.652 162.405 36.2896C210.661 61.5454 209.887 123.278 213.51 170.658L213.475 170.623ZM271.508 493.214C278.507 493.108 282.693 489.907 284.1 483.611C283.537 485.194 227.93 483.048 221.846 491.561C231.201 497.47 262.539 493.284 271.508 493.249V493.214ZM147.246 151.066C155.23 175.9 181.715 136.539 168.138 135.589C156.672 132.212 149.708 137.348 147.246 151.066ZM40.9574 157.433C42.8566 162.252 46.409 164.714 51.5792 164.749C54.9909 160.845 55.3074 156.694 52.4937 152.262C45.3538 148.639 41.5201 150.362 40.9574 157.397V157.433ZM240.276 402.603C237.919 408.618 239.08 413.578 243.687 417.482C246.466 412.768 248.365 402.392 240.276 402.603Z" fill="black"/>
<path d="M369.179 178.959C208.479 195.562 238.34 -24.6339 387.538 2.27503C509.549 24.2595 475.819 167.914 369.179 178.959ZM423.554 61.4745C415.957 54.8265 382.473 39.4902 376.283 56.4797C375.615 58.3792 422.604 80.645 423.554 61.4745ZM310.653 126.654C305.764 121.624 301.93 121.307 299.152 125.669C294.017 144.734 310.196 127.78 310.653 126.654ZM413.987 117.368C410.681 116.488 408.712 115.926 406.777 115.398C404.139 118.951 404.35 121.87 407.34 124.086C409.38 122.011 411.455 119.936 413.987 117.333V117.368Z" fill="black"/>
</svg>
