<svg width="622" height="749" viewBox="0 0 622 749" fill="none" xmlns="http://www.w3.org/2000/svg">
<path d="M386.159 71.7435C385.485 85.3633 384.326 99.0207 384.251 112.641C384.064 159.524 383.503 206.408 384.625 253.217C385.598 294.04 388.74 334.824 390.722 375.647C391.208 385.487 390.647 395.365 390.872 405.206C391.021 412.952 388.964 419.2 380.062 419.313C371.346 419.425 368.84 413.55 368.615 405.655C368.017 384.514 366.633 363.336 366.334 342.196C365.399 275.481 365.062 208.766 364.052 142.051C363.566 110.994 361.957 79.9753 361.097 48.919C360.91 42.3336 361.808 35.748 362.219 29.3123C387.954 22.8017 377.742 49.0313 390.46 57.2256C390.46 50.0041 391.096 44.9153 390.311 40.051C389.151 32.7921 388.627 25.9073 397.081 23.1384C405.385 20.407 409.687 25.6079 412.642 32.5676C413.502 34.6255 414.886 36.459 416.869 39.8265C421.582 35.7106 425.734 31.7819 430.185 28.2273C474.773 -7.31916 542.14 -10.0881 584.558 29.3497C600.493 44.167 610.63 62.7633 615.605 83.7918C624.582 121.696 618.41 157.878 599.333 191.404C589.384 208.84 575.319 222.61 554.147 226.614C547.489 227.886 540.906 229.831 534.472 232.114C492.503 247.043 457.304 235.257 426.557 205.248C424.948 203.677 423.078 202.405 419.637 199.636C417.991 204.238 415.447 207.942 415.597 211.534C416.757 241.768 419.936 272.038 419.3 302.234C418.926 320.83 426.22 329.249 442.23 336.022C467.142 346.573 483.002 367.19 484.012 393.831C485.433 430.351 476.68 465.261 446.344 489.582C432.355 500.77 415.522 508.366 399.961 517.57C393.827 521.2 387.617 524.754 378.341 530.143C403.477 532.5 424.462 532.912 444.773 536.803C465.421 540.769 485.583 547.617 505.632 554.314C528.599 561.985 551.155 570.89 573.898 579.197C578.162 580.768 583.212 581.142 586.615 583.724C589.758 586.119 591.179 590.758 593.348 594.388C589.122 596.483 584.109 601.161 580.78 600.188C563.349 595.099 546.367 588.439 529.16 582.564C502.004 573.285 475.259 562.321 447.466 555.699C429.549 551.396 410.023 551.994 391.395 553.266C373.852 554.464 360.723 564.903 352.119 580.88C348.454 587.728 342.993 593.64 337.98 600.524C342.618 606.586 348.267 604.64 352.194 599.252C373.216 570.366 404.226 567.373 435.759 567.822C467.142 568.271 496.805 576.615 525.382 590.422C551.903 603.256 579.733 613.471 606.964 624.771C613.959 627.652 621.59 629.822 621.515 642.394C598.885 651.038 581.528 628.774 558.823 630.645C558.337 649.504 544.123 659.606 530.432 670.195C498.525 694.816 464.262 715.171 427.006 730.924C368.653 755.582 310.263 752.551 251.461 733.73C214.167 721.756 180.502 703.385 152.224 675.92C147.174 671.019 142.984 665.144 138.271 659.569C148.072 651.786 153.309 656.575 158.209 661.477C209.118 712.701 272.184 730.924 342.469 729.128C352.232 728.866 362.219 727.706 371.645 725.199C421.208 711.991 467.516 691.972 507.166 658.521C519.734 647.932 532.34 637.343 544.572 627.016C542.365 622.376 541.953 619.345 540.382 618.522C502.565 598.317 463.701 583.2 419.3 587.802C394.35 590.384 376.283 600.786 365.885 623.873C364.351 627.278 362.144 630.346 358.665 636.258C351.371 631.992 344.339 628.475 337.868 624.097C275.288 581.666 230.514 589.374 172.46 621.291C170.852 622.189 170.253 624.958 167.859 629.261C176.762 635.846 184.841 644.153 194.679 648.643C222.846 661.515 250.937 675.621 280.525 684.077C324.514 696.687 367.643 686.21 409.051 669.26C436.544 657.997 462.728 644.49 483.264 622.114C484.797 620.468 486.743 619.196 488.575 617.849C495.009 613.097 501.331 612.872 506.53 619.458C511.804 626.118 510.196 632.292 503.687 637.119C489.697 647.446 476.157 658.596 461.344 667.576C421.17 691.972 377.63 707.8 330.275 706.565C305.624 705.929 280.263 701.289 256.81 693.619C232.534 685.686 209.566 673.002 187.273 660.242C175.415 653.47 166.138 642.095 155.702 632.816C156.226 631.094 156.712 629.373 157.236 627.652C149.531 629.71 141.713 631.431 134.119 633.863C106.29 642.694 104.756 642.132 89.457 615.678C89.9433 614.331 90.0555 612.236 91.028 611.638C134.381 585.109 178.595 560.6 228.007 546.569C256.735 538.412 283.218 540.507 308.729 556.035C314.489 559.552 320.661 562.321 327.507 565.876C341.122 555.25 354.514 544.848 367.718 534.558C347.519 534.558 327.394 535.568 307.42 534.333C264.74 531.714 225.838 518.019 192.809 490.143C144.369 449.284 152.224 364.796 208.257 335.685C221.91 328.576 225.052 320.494 225.015 307.585C224.903 274.994 225.202 242.441 225.015 209.851C225.015 204.837 223.257 199.785 221.985 192.976C206.35 205.66 192.809 218.12 177.809 228.447C161.276 239.822 142.236 244.686 121.888 245.098C102.586 245.472 83.0606 244.462 66.7143 234.509C50.8169 224.855 34.8073 213.143 23.4734 198.7C-9.40616 156.793 -7.34894 84.4279 27.5879 51.1639C52.9864 26.9924 81.4896 5.29037 119.157 6.15097C154.505 6.93673 185.739 19.3593 210.876 52.3988C213.045 46.9359 214.168 44.9901 214.579 42.8948C215.851 36.6461 217.197 30.5471 225.688 31.7818C233.88 32.9792 236.573 38.2925 236.985 46.1875C238.893 81.7339 242.035 117.206 243.082 152.752C244.728 208.092 245.065 263.432 245.925 318.772C246.411 350.577 247.159 382.382 246.972 414.186C246.972 419.2 242.558 424.177 240.164 429.191C235.788 426.834 230.963 425 227.147 421.932C224.604 419.911 223.482 416.095 221.088 411.941C213.457 438.433 224.978 459.536 251.087 467.02C280.6 475.476 310.749 477.347 341.01 470.799C363.117 466.009 385.41 461.482 400.971 449.134C400.971 424.439 401.458 402.737 400.859 381.035C399.737 338.678 397.829 296.322 396.557 253.966C394.874 196.455 393.528 138.907 391.957 81.3597C391.882 78.067 390.872 74.8117 390.311 71.5564C388.852 71.6312 387.431 71.6686 385.972 71.7435H386.159ZM479.561 31.258C500.77 30.3974 522.016 29.4994 543.225 28.6388C521.38 18.8355 500.021 16.1414 479.972 31.6321C475.296 31.6695 468.862 27.5163 467.104 38.5918C472.229 35.561 475.895 33.3908 479.523 31.258H479.561ZM106.925 202.105C115.416 204.201 126.04 198.813 136.85 192.826C165.353 177.036 178.669 151.667 180.502 120.648C182.41 88.6935 165.166 65.1581 145.453 57.7869C116.352 46.8984 84.4071 52.96 61.9637 75.5601C41.241 96.4389 32.8996 133.669 45.8419 159.599C57.2506 182.461 73.8588 200.796 106.925 202.105ZM571.541 109.685C571.803 104.484 572.401 100.704 572.177 96.9628C570.718 72.866 556.467 51.3511 537.801 48.6945C497.141 42.82 458.426 57.1882 448.289 104.297C445.372 117.916 445.447 133.183 448.289 146.802C455.135 179.543 488.538 200.721 514.161 187.176C545.17 170.787 572.401 149.048 571.579 109.685H571.541ZM225.277 360.942C223.856 359.445 222.397 357.948 220.975 356.452C217.496 357.163 213.606 357.125 210.614 358.734C194.791 367.415 187.198 381.372 184.542 398.995C179.53 432.334 182.597 464.064 212.447 484.419C278.58 529.581 359.301 531.116 424.125 481.388C455.995 456.917 465.87 422.867 459.736 384.29C456.743 365.507 446.344 351.176 425.472 345.451C421.732 361.316 420.011 374.599 436.731 383.429C440.808 385.6 443.427 391.549 445.521 396.301C456.706 421.445 447.167 447.413 419.225 463.016C404.824 471.061 389.114 477.496 373.254 482.024C325.487 495.606 277.72 497.664 231.86 474.728C188.619 453.138 181.811 408.574 215.551 373.963C219.292 370.109 222.023 365.282 225.24 360.904L225.277 360.942ZM33.7974 76.5703C30.9546 78.8153 28.7477 79.7508 27.7752 81.3972C0.955299 126.522 17.1893 183.808 46.665 209.102C91.3273 247.455 147.623 236.679 183.682 202.592C224.678 163.865 231 102.239 189.929 55.1302C166.513 28.302 138.122 17.002 102.886 25.0093C96.4144 26.4686 90.018 28.1524 88.1477 38.8537C96.4144 38.0306 102.886 36.9454 109.394 36.7957C154.954 35.8229 181.812 51.0518 196.325 88.1697C204.405 108.824 200.926 130.077 195.465 150.731C185.515 188.261 153.832 202.03 122.486 215.912C121.813 216.212 120.99 216.062 120.242 216.212C77.562 224.256 14.758 172.621 25.1942 121.77C28.1866 107.253 30.7301 92.6224 33.7974 76.4955V76.5703ZM323.766 592.405C324.589 590.235 325.449 588.065 326.272 585.894C306.934 573.696 288.866 559.253 262.832 560.376C232.571 561.685 205.751 573.808 178.782 585.557C169.543 589.599 161.052 595.286 152.186 600.188C152.935 601.759 153.683 603.368 154.431 604.94C172.498 598.017 190.527 591.021 208.631 584.211C228.12 576.877 248.506 574.07 268.817 577.85C287.37 581.292 305.437 587.428 323.729 592.367L323.766 592.405ZM439.911 184.033C454.499 212.507 480.757 225.304 508.026 219.504C526.953 215.501 542.252 204.388 559.048 195.857C580.032 185.193 586.99 168.767 590.88 146.99C575.431 169.103 556.205 185.155 535.632 199.037C511.729 215.164 486.705 211.198 462.616 197.84C455.584 193.948 448.888 189.496 439.911 184.033Z" fill="black"/>
<path d="M248.394 32.7547C263.132 27.5162 267.471 35.6358 268.181 46.8236C270.126 76.2336 271.66 105.644 272.969 135.091C275.588 195.632 278.169 256.136 280.338 316.677C281.535 349.978 281.872 383.28 282.433 416.618C282.508 420.36 282.695 424.813 280.862 427.694C278.73 431.062 274.391 435.14 271.174 435.028C268.069 434.916 264.478 430.201 262.383 426.759C261.037 424.514 261.972 420.847 261.86 417.816C258.456 330.035 255.127 242.254 251.648 154.511C250.227 118.253 248.431 81.9958 247.01 45.7385C246.823 41.3981 247.907 36.9828 248.356 32.7547H248.394Z" fill="black"/>
<path d="M79.6202 136.476C79.2835 116.794 91.3282 104.746 111.976 104.072C133.297 103.399 150.167 116.42 150.317 133.707C150.429 147.776 131.427 169.366 118.559 169.815C99.3328 170.488 79.9194 153.875 79.6576 136.476H79.6202ZM133.073 135.465C133.297 124.989 126.901 118.029 116.913 117.879C105.654 117.73 97.5 125.887 96.9015 137.823C96.3779 148.599 104.158 157.205 114.332 157.093C124.32 156.98 132.811 147.177 133.073 135.465Z" fill="black"/>
<path d="M511.842 81.6219C528.862 81.9586 542.627 96.4765 541.393 114.586C539.522 141.415 528.039 158.701 505.595 157.691C485.92 156.793 466.506 138.309 466.88 120.498C467.329 100.293 489.473 81.1354 511.842 81.6219ZM511.356 100.817C504.959 106.43 497.89 110.733 493.438 116.944C488.164 124.24 492.241 134.418 500.097 137.374C509.074 140.741 514.685 136.363 517.602 128.431C520.744 119.975 523.101 111.144 511.356 100.817Z" fill="black"/>
</svg>
