<svg width="602" height="807" viewBox="0 0 602 807" fill="none" xmlns="http://www.w3.org/2000/svg">
<path d="M601.477 86.0395C598.804 118.506 595.92 153.752 592.965 188.997C589.87 225.649 585.79 262.232 583.785 298.954C579.6 376.199 576.153 453.478 573.234 530.793C572.495 550.808 566.692 567.938 554.03 583.169C538.59 601.671 522.762 619.857 508.236 639.062C496.102 655.102 485.586 672.373 474.401 689.151C473.029 691.227 472.608 694.498 470.779 695.624C428.573 721.829 407.118 766.783 374.76 801.852C373.916 802.767 372.72 803.33 368.956 806.038C326.152 806.038 280.605 806.284 235.023 805.933C218.562 805.792 206.428 795.908 196.087 784.546C176.461 762.984 155.816 742.02 138.722 718.558C105.872 673.428 72.2477 629.143 32.6443 589.641C28.1775 585.174 24.5547 579.862 20.2286 575.219C9.36052 563.576 4.6124 550.421 4.47172 533.959C3.97931 478.171 1.23618 422.384 0.778943 366.596C0.392054 315.944 2.04502 265.257 2.43191 214.569C2.60777 190.474 1.72848 166.415 1.55262 142.32C1.4471 129.657 1.55267 116.958 2.04507 104.331C2.50231 92.2304 7.67241 82.2406 17.7315 75.3111C50.0895 53.0101 82.4828 30.7795 114.981 8.72471C116.846 7.45841 119.835 7.84533 124.126 7.17701C139.637 13.4733 151.138 27.473 164.89 38.4125C175.793 47.0655 186.415 56.0704 197.143 64.9697C214.447 79.3563 234.178 85.723 256.794 85.7933C282.117 85.8988 307.476 87.6576 332.8 88.8887C354.043 89.9088 372.368 83.8587 388.723 69.6831C408.841 52.2715 430.015 36.0557 450.836 19.4179C456.78 14.6693 462.759 9.88548 469.161 5.84035C481.26 -1.75747 488.576 -1.22984 500.182 8.30261C511.93 17.9406 522.692 28.88 534.826 38.0255C555.859 53.9247 577.595 68.9093 601.477 86.0044V86.0395ZM359.917 109.361C320.033 102.22 284.544 105.597 249.372 103.803C239.735 103.311 233.581 110.134 232.912 121.109C231.576 142.601 231.189 164.128 230.661 185.655C227.883 293.326 225.104 400.962 222.642 508.633C222.431 518.376 224.682 528.155 225.913 539.165C265.657 547.537 303.572 545.496 341.417 543.878C349.753 543.527 355.802 537.828 356.646 529.457C358.299 513.1 359.671 496.638 359.812 480.212C360.797 368.707 361.465 257.201 362.063 145.696C362.133 134.546 360.797 123.395 359.953 109.361H359.917ZM453.404 657.283C456.815 650.142 458.68 647.997 458.785 645.745C461.212 592.561 463.92 539.376 465.573 486.191C466.98 441.836 466.277 397.409 468.035 353.054C469.829 307.467 473.909 261.985 476.019 216.398C476.723 201.449 474.366 186.324 473.346 170.389C443.802 154.244 417.775 134.616 387.422 123.184C377.257 137.747 378.417 152.274 378.031 165.852C376.061 236.835 374.689 307.854 373.634 378.872C372.86 429.559 373.318 480.282 372.263 530.969C371.911 548.24 374.83 563.787 385.487 577.4C402.651 599.385 419.955 621.228 437.541 642.896C441.34 647.575 446.545 651.162 453.369 657.283H453.404ZM119.062 635.404C127.854 642.298 133.658 639.449 137.773 634.419C153.811 614.932 168.442 594.214 185.325 575.536C202.7 556.33 208.292 534.733 207.8 509.477C207.167 476.624 208.82 443.7 209.558 410.811C211.598 319.743 213.708 228.674 215.608 137.606C215.748 131.662 216.874 124.767 208.96 120.476C206.076 121.109 201.926 121.004 199.112 122.868C181.245 134.827 163.764 147.385 146.003 159.485C131.195 169.58 125.251 183.088 124.864 201.238C123.387 268.246 119.87 335.22 118.709 402.263C117.689 460.443 118.85 518.658 119.026 576.873C119.097 596.993 119.026 617.113 119.026 635.404H119.062ZM98.1693 635.932C102.038 630.972 104.746 629.108 104.852 627.103C105.52 615.811 106.153 604.415 105.766 593.123C102.882 510.814 102.495 428.574 106.962 346.265C109.495 299.482 107.631 252.488 108.51 205.635C108.827 189.173 104.184 175.912 91.1701 165.676C69.3637 148.51 47.6627 131.134 25.7156 114.144C24.4142 113.16 21.1079 114.778 16.7114 115.516C15.7266 122.094 13.6516 129.34 13.7923 136.516C14.1089 150.445 16.8172 164.339 16.5358 178.198C16.0434 203.489 14.4608 228.815 12.667 254.071C6.05472 347.953 20.3693 441.413 18.47 535.19C18.3645 541.17 19.5958 548.627 23.1833 552.989C46.3263 581.305 66.7257 612.224 98.1341 635.967L98.1693 635.932ZM481.787 643.635C503.945 620.736 522.27 601.917 538.695 581.058C551.849 564.35 557.653 546.446 558.743 525.376C563.491 431.916 569.083 338.491 574.57 245.101C576.786 207.253 579.811 169.44 581.992 131.591C582.414 124.556 583.856 116.114 573.023 111.471C549.704 119.632 532.294 138.415 512.457 153.576C498.283 164.374 492.69 178.444 492.339 196.243C491.67 230.363 490.791 264.588 487.555 298.532C481.049 366.631 478.657 434.73 480.908 503.075C481.576 523.195 478.305 543.386 477.567 563.576C476.758 585.033 476.652 606.56 476.617 628.017C476.617 631.359 478.727 634.665 481.822 643.67L481.787 643.635ZM432.336 671.951C430.401 665.162 430.366 662.243 428.96 660.449C406.414 631.535 383.553 602.797 361.043 573.848C354.255 565.124 345.462 561.255 334.77 561.149C301.884 560.868 268.963 560.551 236.077 560.587C225.807 560.587 215.326 562.205 208.573 570.928C187.083 598.822 166.016 627.067 144.877 655.243C144.28 656.052 144.807 657.705 144.807 658.901C146.777 660.589 148.57 663.544 150.54 663.65C238.927 667.765 327.313 671.669 415.7 675.328C420.342 675.504 425.091 673.463 432.371 671.916L432.336 671.951ZM432.16 697.277C427.025 694.533 425.97 693.548 424.774 693.408C335.543 681.343 245.785 683.101 156.062 683.664C151.841 683.664 147.621 687.217 142.345 689.609C144.807 696.187 145.405 701.674 148.359 705.156C168.829 729.216 189.616 752.994 210.684 776.491C218.632 785.391 229.255 789.189 241.283 789.225C275.4 789.33 309.552 789.33 343.668 789.858C358.897 790.104 370.188 784.335 379.262 772.165C394.351 751.904 410.318 732.276 425.548 712.121C428.361 708.427 429.452 703.433 432.125 697.277H432.16ZM480.451 19.031C449.5 38.0255 423.789 62.1205 397.023 84.7381C394.597 86.7782 394.245 91.3158 392.451 95.9237C416.263 119.35 445.42 134.089 474.577 148.616C483.089 152.872 491.565 149.953 499.233 144.078C517.276 130.325 535.776 117.134 553.749 103.275C558.462 99.6523 561.944 94.4464 565.742 90.2606C547.805 66.9746 518.542 42.4224 480.416 18.9958L480.451 19.031ZM116.529 159.028C147.128 141.616 177.024 121.848 203.368 96.8383C184.903 75.6981 142.099 40.9803 116.916 26.5585C89.5872 37.8145 66.1983 56.7035 43.3719 76.296C39.0106 80.0246 36.5133 85.9692 33.594 90.2606C53.4309 116.536 83.1157 141.089 116.529 159.028Z" fill="black"/>
<path d="M474.365 105.702C487.543 97.9635 492.654 87.7041 489.7 74.9238C494.167 76.4715 499.161 77.2806 502.889 79.8835C505.281 81.5719 507.849 87.6572 506.864 88.818C500.814 95.9234 494.273 102.888 486.746 108.375C484.46 110.029 478.621 106.722 474.365 105.702Z" fill="black"/>
<path d="M463.78 82.417C467.649 90.3314 471.518 98.2458 475.387 106.195C471.131 104.331 466.383 103.1 462.69 100.462C454.284 94.5172 454.706 91.2811 463.78 82.417Z" fill="black"/>
<path d="M490.651 75.663C482.702 76.8942 474.753 78.1253 466.805 79.3916C478.13 63.7035 480.31 63.3518 490.651 75.663Z" fill="black"/>
<path d="M124.3 106.195C124.652 105.069 124.933 103.944 125.32 102.818C132.671 82.1001 132.038 81.0448 108.965 75.5223C113.115 70.1054 118.356 67.4672 124.968 70.1757C128.309 71.5475 131.616 73.5877 134.289 76.0148C137.876 79.2861 140.831 83.2608 143.68 86.497C143.152 99.9338 134.183 103.487 124.3 106.16V106.195Z" fill="black"/>
<path d="M109.95 74.9238C107.524 82.6272 101.756 89.7677 106.117 98.5615C100.595 97.049 92.4704 96.9434 93.0683 89.627C93.42 85.195 99.399 80.9739 103.338 77.1399C104.851 75.6625 107.7 75.6273 109.95 74.9238Z" fill="black"/>
<path d="M109.109 101.587C114.526 102.924 119.907 104.225 125.323 105.562C115.757 113.441 115.475 113.371 109.109 101.587Z" fill="black"/>
</svg>
