<svg width="468" height="484" viewBox="0 0 468 484" fill="none" xmlns="http://www.w3.org/2000/svg">
<path d="M188.618 77.9195C186.719 114.079 175.64 144.787 140.257 161.988C103.256 179.962 66.6429 180.49 31.4712 158.752C8.36334 144.471 -4.86128 105.848 2.84133 77.0749C20.2865 11.79 91.1574 -18.7419 151.336 12.1418C176.308 24.9456 190.377 47.88 188.653 77.9195H188.618ZM172.651 72.0451C179.404 58.2917 171.806 48.0907 163.858 38.488C157.527 30.855 150.422 23.5037 138.991 24.7348C131.921 25.5087 128.158 33.5635 129.108 49.9551C129.565 58.1157 132.59 66.1707 134.208 73.2057C148.874 77.286 160.903 79.0801 172.685 72.0451H172.651ZM21.3417 68.8089C56.5134 77.3564 61.2265 74.4724 61.8596 45.3826C61.9651 40.7746 60.1009 36.096 59.1513 31.3825C39.9241 36.2836 27.3326 48.7591 21.3769 68.8089H21.3417ZM122.39 45.9098C121.722 38.6286 122.39 34.4427 120.807 31.3825C118.873 27.6188 115.109 24.7698 112.12 21.4985C109.658 23.9256 105.367 26.1415 105.05 28.8148C103.643 40.9854 102.905 53.2969 102.975 65.573C102.975 68.0704 107.196 72.1155 109.939 72.5376C112.542 72.9597 117.642 70.1106 118.31 67.7187C120.631 59.5229 121.546 50.9398 122.39 45.8746V45.9098ZM94.1118 42.8848C93.5842 38.0658 93.8658 34.056 92.5292 30.6792C91.2982 27.619 88.59 23.6441 85.9521 23.1517C83.3846 22.6944 78.0736 25.649 77.5108 27.9354C74.873 38.8397 72.657 50.0257 72.0943 61.2113C71.9184 64.6937 76.6665 70.1458 80.3947 71.7287C85.776 74.015 89.9264 69.583 91.0519 64.2716C92.6346 56.92 93.2325 49.3571 94.1118 42.8848ZM130.092 104.793C142.895 114.114 152.848 112.426 162.556 110.175C169.238 108.592 173.389 104.406 169.59 95.155C156.541 92.8334 142.438 86.5722 130.128 104.793H130.092ZM19.5127 126.461C29.2904 137.084 32.6669 142.395 37.5206 145.455C41.0729 147.672 47.7204 148.832 50.7452 146.933C53.8403 144.963 55.9152 138.42 55.3173 134.375C54.7194 130.436 50.5694 124.597 47.2632 124.034C40.8268 122.944 33.8276 124.948 19.5479 126.461H19.5127ZM91.2631 139.863C86.7611 135.536 83.1383 130.823 78.3901 128.396C77.124 127.763 70.195 133.777 69.4564 137.435C68.0847 144.365 66.9593 152.948 76.5611 156.114C78.4956 156.747 82.2239 156.008 83.3143 154.566C86.1632 150.732 87.9921 146.124 91.2631 139.863ZM53.5235 96.2808C44.625 87.2408 34.2495 89.6324 24.6124 90.3008C21.8339 90.4767 17.5077 94.0998 17.1208 96.5973C16.7691 99.0595 20.3216 104.265 22.5726 104.512C31.049 105.461 39.7717 105.426 48.2129 104.441C50.2881 104.195 51.8001 99.0596 53.5235 96.2456V96.2808ZM121.546 142.184C116.903 137.506 114.195 132.37 110.643 131.702C102.975 130.295 100.724 136.521 100.267 143.028C99.7393 150.309 105.226 157.978 109.271 155.586C113.773 152.913 116.727 147.671 121.546 142.184ZM155.557 135.431C149.437 132.335 146.658 129.873 143.704 129.662C137.092 129.169 130.972 131.21 131.605 139.37C131.781 141.692 136.881 145.948 138.288 145.455C143.493 143.521 148.136 139.968 155.592 135.466L155.557 135.431ZM109.201 111.863C112.436 107.818 116.376 105.039 116.235 102.472C116.094 99.8687 111.944 97.4416 109.552 94.9441C107.125 97.4064 103.081 99.6928 102.729 102.436C102.413 104.864 106.211 107.818 109.201 111.863Z" fill="black"/>
<path d="M277.463 85.7988C289.386 70.1108 300.184 52.7339 314.042 38.3825C336.798 14.8855 365.885 7.85068 397.996 13.0566C423.39 17.1721 442.875 29.9053 454.939 52.945C467.918 77.6731 470.521 104.336 462.994 130.577C454.482 160.194 429.159 173.842 402.463 183.585C390.786 187.841 377.667 189.46 365.146 189.741C323.257 190.726 288.999 162.375 281.437 121.29C279.608 111.371 279.151 101.206 277.463 85.7988ZM386.636 28.8502C377.878 49.0758 381.044 67.191 384.385 85.5876C397.574 87.9443 409.392 91.1805 421.386 91.8489C432.008 92.4468 444.107 96.2106 453.076 85.3063C453.814 70.568 448.257 58.5731 438.585 47.704C424.586 31.9103 404.679 35.7797 386.636 28.8502ZM341.651 36.6941C333.421 40.6337 327.02 42.252 322.623 46.1212C311.65 55.7944 293.923 65.6432 301.837 81.9997C308.625 96.0697 326.281 88.7887 339.435 88.437C349.952 72.3268 351.921 57.3067 341.651 36.6941ZM428.526 130.014C433.274 128.712 440.589 127.376 447.237 124.491C449.734 123.401 452.196 118.512 451.809 115.733C451.423 112.919 447.589 108.592 445.056 108.487C436.58 108.064 427.928 108.557 419.627 110.105C417.095 110.562 413.085 116.366 413.789 118.301C415.195 122.311 419.205 125.476 422.371 128.747C423.074 129.486 424.727 129.275 428.526 129.979V130.014ZM368.628 25.1918C353.469 45.5582 357.127 61.4573 358.428 76.653C358.745 80.1353 363.141 83.2311 367.819 89.3516C376.155 67.6485 376.014 50.3068 368.628 25.1918ZM341.863 167.018C339.823 155.973 340.842 147.109 336.903 143.064C329.552 135.501 319.212 135.149 308.485 142.677C312.353 156.149 321.428 162.832 341.863 166.983V167.018ZM298.214 106.376C297.476 109.12 296.526 110.808 296.948 111.266C307.042 122.522 325.683 125.793 334.476 117.351C335.672 116.19 334.265 109.366 332.401 108.416C321.146 102.542 309.399 102.225 298.25 106.341L298.214 106.376ZM375.909 161.108C370.211 155.164 366.553 151.295 362.86 147.46C359.624 150.556 354.7 153.124 353.575 156.817C351.816 162.621 352.836 170.536 360.328 171.134C364.408 171.45 368.98 165.822 375.909 161.108ZM405.664 161.214C400.775 155.34 398.63 150.908 395.113 148.903C389.872 145.913 382.556 150.697 382.626 157.556C382.626 161.425 386.636 168.566 388.465 168.425C393.389 168.073 398.102 164.661 405.699 161.214H405.664ZM418.291 167.088C426.486 157.837 430.178 153.687 433.836 149.501C431.058 147.742 428.349 144.682 425.465 144.471C418.923 144.049 412.804 146.159 413.367 154.46C413.578 157.802 415.829 161.038 418.255 167.053L418.291 167.088ZM399.79 123.999C396.73 118.758 394.936 114.642 392.052 111.547C391.454 110.914 384.35 114.326 384.455 115.416C384.913 119.567 386.636 123.788 388.992 127.27C389.485 128.009 394.55 125.652 399.79 123.999Z" fill="black"/>
<path d="M257.73 461.188C235.396 486.866 207.892 489.222 178.805 476.348C169.098 472.057 159.425 463.58 153.974 454.469C127.56 410.395 155.346 348.557 205.184 338.251C243.029 330.407 279.572 358.582 281.823 397.345C283.3 422.671 275.914 444.515 256.886 461.856C257.871 453.66 258.821 445.464 260.017 435.193C228.89 431.5 200.471 433.962 172.123 436.284C169.168 436.53 166.495 440.399 163.962 442.369C165.229 456.545 175.428 461.786 185.488 466.71C198.22 472.901 211.972 475.047 225.724 471.881C236.627 469.384 247.073 464.846 257.695 461.223L257.73 461.188ZM170.329 381.938C201.596 386.581 231.07 394.355 260.966 381.481C260.333 367.27 251.646 362.064 242.994 356.964C232.794 350.914 221.328 348.874 210.284 351.899C194.808 356.12 174.092 354.009 170.294 381.973L170.329 381.938Z" fill="black"/>
<path d="M213.556 277.678C222.102 274.231 229.946 269.764 238.352 267.97C258.435 263.749 272.856 280.774 266.56 300.296C260.37 319.466 245.562 326.044 225.057 318.517C221.575 317.215 218.304 315.28 213.239 312.853C207.33 315.351 200.437 318.13 193.649 321.155C183.168 325.868 173.601 324.426 166.285 315.738C158.371 306.311 157.07 295.16 161.853 283.764C166.18 273.352 178.208 266.387 189.498 268.146C194.317 268.885 198.819 271.628 203.427 273.493C206.874 274.865 210.285 276.306 213.556 277.678Z" fill="black"/>
</svg>
