<svg width="703" height="628" viewBox="0 0 703 628" fill="none" xmlns="http://www.w3.org/2000/svg">
<path d="M364.168 627.377C292.163 626.441 242.675 620.567 195.843 600.923C137.378 576.377 91.2195 537.051 56.9933 483.582C25.9092 435.052 7.87965 381.583 2.04437 324.783C-2.59393 279.695 4.8498 234.944 21.4579 192.625C43.3776 136.874 78.2023 90.3639 126.156 53.9943C160.008 28.2886 199.546 17.8118 240.244 9.31804C310.267 -5.2747 379.841 1.64755 449.79 9.95419C479.079 13.434 506.908 21.0297 533.167 32.9284C579.139 53.8072 619.125 83.5165 650.696 123.516C668.763 146.378 682.977 171.11 691.655 199.398C701.867 232.624 704.223 266.487 701.418 300.425C697.49 348.319 686.68 395.352 666.593 439.018C627.841 523.207 565.598 584.085 475.75 610.726C432.958 623.41 387.734 628.462 364.131 627.339L364.168 627.377ZM338.433 610.576C377.41 610.127 417.883 605.712 458.244 594.749C540.835 572.298 597.355 519.353 635.733 446.015C661.431 396.924 675.496 343.342 678.713 287.777C680.882 249.986 678.6 212.419 661.02 177.434C615.572 87.0711 539.938 39.5886 442.197 25.183C412.309 20.7677 381.6 22.1896 351.413 19.3459C323.883 16.7641 296.651 15.3797 269.382 20.88C236.802 27.428 204.035 32.9658 173.549 47.5585C119.835 73.2642 81.0825 114.685 53.0283 165.722C25.6474 215.487 12.9669 269.069 18.0167 326.878C22.2809 375.708 38.0286 420.347 61.6315 462.254C98.7754 528.183 153.163 573.421 226.59 595.086C262.462 605.675 299.232 607.845 338.508 610.576H338.433Z" fill="black"/>
<path d="M389.716 286.019C391.549 313.82 392.97 338.927 394.915 363.959C395.738 374.698 403.893 376.269 412.384 375.371C437.296 372.752 459.627 381.059 481.285 391.611C506.384 403.809 512.481 420.123 502.27 447.512C503.616 449.271 505.15 451.628 507.058 453.648C530.474 478.793 531.745 497.688 511.546 525.078C493.517 549.474 467.894 563.356 440.214 572.486C388.594 589.511 335.777 595.797 282.137 581.653C257.525 575.142 233.473 566.798 213.386 550.597C205.082 543.899 197.75 535.48 191.691 526.65C184.172 515.724 182.938 503.226 192.102 492.3C198.498 484.705 199.396 478.119 195.469 468.69C187.651 449.794 192.476 436.698 209.458 423.453C229.583 407.737 254.27 403.734 277.798 397.148C298.745 391.274 299.643 392.022 298.446 370.021C296.875 341.284 294.07 312.623 291.564 280.818C282.624 285.72 277.125 288.788 271.552 291.744C237.026 310.003 201.117 310.116 166.778 294.101C110.745 267.984 93.8746 198.425 128.4 146.003C156.716 103.011 189.035 93.1703 252.475 111.991C272.225 117.828 288.609 130.176 301.439 146.714C304.057 150.082 307.237 153.001 310.902 156.929C330.765 145.293 351.076 146.527 371.462 154.722C383.993 140.241 395.215 125.162 408.531 112.365C440.288 81.8703 488.018 78.0911 524.676 102.263C546.857 116.893 555.199 140.952 561.558 164.45C573.34 207.929 558.715 246.993 526.209 274.42C495.462 300.425 456.186 307.571 415.75 295.336C407.671 292.866 399.816 289.611 389.716 285.944V286.019ZM240.879 489.457C235.68 490.654 230.817 491.515 226.104 492.974C207.887 498.587 203.174 510.822 215.181 525.677C221.802 533.871 230.667 541.317 240.094 546.032C315.803 583.861 391.1 579.745 464.565 540.12C477.32 533.235 487.382 520.363 496.809 508.727C505.038 498.587 506.197 485.94 498.679 474.153C491.534 462.928 481.397 459.373 468.679 463.863C467.333 464.35 465.65 464.948 464.453 464.537C460.675 463.227 454.091 461.693 453.979 459.897C453.717 455.669 455.7 450.543 458.43 447.063C460.301 444.668 465.724 445.267 468.156 443.022C474.253 437.447 482.781 431.572 484.053 424.65C484.913 419.898 476.348 411.329 470.101 407.7C445.488 393.407 419.341 387.644 391.138 396.961C377.484 401.489 372.285 397.784 370.639 383.865C370.19 380.273 370.078 376.606 370.415 373.014C372.883 346.972 372.323 321.303 366.375 295.523C362.822 280.107 362.335 263.98 360.764 248.115C360.091 241.53 360.315 235.206 367.609 231.352C378.419 225.702 386.537 228.696 390.053 241.717C394.392 257.806 400.975 271.239 417.471 278.348C448.518 291.744 494.976 280.107 516.372 253.578C544.575 218.556 550.411 181.475 529.987 140.391C513.379 107.015 479.415 94.9663 446.086 112.365C419.753 126.135 402.621 147.762 393.494 175.862C391.325 182.485 389.492 189.22 387.771 194.983C375.427 196.891 371.761 190.904 367.609 183.196C355.228 160.259 335.216 160.147 320.778 182.373C317.411 187.574 314.232 192.887 311.613 197.153C296.426 195.956 295.566 185.254 292.723 176.686C280.492 140.391 246.078 115.733 208.224 117.828C189.932 118.839 171.454 122.73 159.484 138.071C142.764 159.511 130.757 183.795 130.57 211.633C130.308 246.993 158.287 281.454 191.129 286.992C226.328 292.941 257.3 283.849 281.502 256.796C287.823 249.724 293.247 243.924 303.346 247.479C312.96 250.847 312.511 259.116 313.147 267.198C315.054 291.744 317.635 316.252 319.394 340.798C320.74 359.581 321.002 378.44 322.199 397.26C322.76 406.091 319.393 413.35 310.641 411.404C286.701 406.091 267.026 419.15 245.704 424.575C237.7 426.596 229.994 432.171 223.672 437.821C209.383 450.618 211.777 465.51 229.021 473.779C234.894 476.585 241.889 477.483 240.991 489.307L240.879 489.457Z" fill="black"/>
<path d="M459.143 229.032C445.265 229.519 433.482 226.001 427.011 212.232C418.482 194.084 425.141 177.583 444.068 170.773C450.128 168.603 456.449 166.919 462.733 165.535C476.648 162.467 488.656 169.988 492.396 183.795C498.606 206.694 482.895 228.059 459.143 228.995V229.032ZM471.823 189.744C458.133 184.955 452.896 189.445 449.38 195.88C448.033 198.35 447.958 203.326 449.567 205.085C451.213 206.881 457.01 207.704 458.581 206.282C463.182 202.092 466.586 196.554 471.86 189.744H471.823Z" fill="black"/>
<path d="M352.46 513.441C333.832 513.179 320.739 504.498 317.784 490.467C314.381 474.153 322.124 460.907 339.667 453.237C340.976 452.676 342.435 452.339 343.707 451.703C354.554 446.427 365.327 438.644 377.035 449.607C386.536 458.475 391.96 482.422 387.359 493.947C381.823 507.866 371.349 513.703 352.422 513.441H352.46ZM361.213 464.088C343.445 468.84 336.113 476.024 339.143 485.416C341.874 493.835 348.569 495.743 356.425 494.059C366.711 491.889 367.983 484.443 361.175 464.05L361.213 464.088Z" fill="black"/>
<path d="M215.442 177.658C232.461 177.846 242.224 187.574 242.112 204.3C242 221.062 227.823 233.709 209.008 233.822C191.428 233.934 178.186 221.062 178.896 204.487C179.682 186.264 191.764 177.397 215.442 177.658ZM203.996 212.681C216.04 212.831 219.332 207.517 217.537 196.367C205.529 196.442 201.527 201.156 203.996 212.681Z" fill="black"/>
</svg>
