<svg width="523" height="678" viewBox="0 0 523 678" fill="none" xmlns="http://www.w3.org/2000/svg">
<path d="M234.265 394.586C244.552 383.735 254.801 372.922 265.611 361.547C262.282 354.662 259.402 348.75 255.886 341.491C249.901 344.784 244.926 347.515 238.417 351.107C239.876 348.114 240.287 345.832 241.634 344.821C253.08 336.253 264.115 327.46 268.716 313.091C269.651 310.21 272.569 305.645 271.783 304.972C268.566 302.053 264.264 300.332 259.439 297.638C270.81 288.92 273.354 275.524 268.042 259.959C266.846 256.479 267.594 251.503 269.239 248.06C272.756 240.689 272.195 233.542 265.2 230.661C261.235 229.015 254.763 233.093 249.564 235.002C247.544 235.75 245.973 237.583 243.28 237.92C256.858 219.885 270.025 201.7 292.506 192.757C299.987 189.764 306.009 183.366 313.004 178.988C322.58 172.964 330.173 164.994 344.911 170.12C353.776 173.188 367.018 166.977 377.155 162.375C388.638 157.099 398.85 148.979 409.548 142.132C402.329 149.316 398.027 157.585 398.663 167.987C405.92 168.062 411.007 157.211 418.974 164.807C426.119 171.617 426.306 150.438 436.143 160.766C438.238 162.973 450.283 155.752 457.727 152.871C454.51 159.98 446.841 166.191 454.248 177.117C462.702 166.341 482.302 165.705 478.487 143.217C470.295 147.146 463.674 150.326 457.053 153.507C462.739 144.564 467.003 134.162 474.409 127.015C487.913 113.957 488.661 113.171 474.073 100.786C471.193 104.752 469.173 110.402 465.32 112.31C455.632 117.1 445.121 120.168 434.946 123.947C446.505 113.395 458.026 102.844 470.781 91.1696C468.873 79.1212 466.704 65.7258 464.497 51.9189C476.28 50.4596 474.971 56.2218 475.008 62.6575C475.12 80.992 475.868 81.4036 494.272 84.3222C496.741 92.8533 499.209 101.272 501.94 110.627C508.636 108.98 513.536 107.783 522.999 105.463C507.439 115.827 500.78 126.304 516.005 139.662C509.833 143.254 505.494 145.761 501.192 148.268C501.192 146.061 502.052 143.254 501.042 141.758C499.359 139.288 496.591 137.305 493.898 135.921C493.299 135.621 489.521 139.288 489.783 139.737C491.242 142.431 493.112 145.163 495.544 146.921C497.077 148.006 499.845 147.37 502.052 147.52C498.274 152.085 493.748 156.276 490.98 161.402C489.147 164.844 487.876 171.766 489.746 173.45C500.032 182.879 494.758 196.275 499.546 206.752C495.731 202.673 491.99 198.707 487.427 193.88C480.17 203.309 477.664 210.082 484.92 217.341C487.314 216.705 489.147 216.705 490.082 215.807C493.337 212.776 496.329 209.408 499.396 206.153C501.641 206.826 505.718 207.238 505.868 208.248C506.765 214.123 506.728 220.147 507.027 226.134C494.721 217.079 485.145 226.246 474.933 230.998C475.195 228.79 476.392 226.059 475.532 224.45C473.4 220.521 470.295 217.116 467.602 213.524C465.993 214.871 462.814 216.779 463.076 217.49C464.572 221.831 466.517 226.134 469.135 229.875C469.921 230.998 473.362 230.25 475.606 230.362C470.856 237.321 468.312 244.206 479.16 247.536C492.589 251.615 504.97 241.288 506.391 225.423C511.179 227.555 515.93 229.726 521.017 232.008C513.985 238.481 517.65 248.472 520.381 258.462L521.092 257.864C517.576 254.197 514.097 250.492 510.02 246.227C503.361 250.081 497.264 253.561 491.953 256.629C490.232 273.28 498.386 277.77 511.853 276.497L511.217 276.011C507.439 285.103 497.975 292.4 502.352 304.074L502.95 303.438C486.417 296.553 489.933 279.341 484.322 263.775C476.878 268.34 470.931 271.97 465.021 275.599C482.152 255.394 460.682 243.009 456.717 227.181C446.542 228.628 436.941 232.582 427.914 239.043C431.73 233.842 435.508 228.641 439.061 223.776C429.598 209.895 420.321 221.943 411.493 219.212C411.892 232.831 417.678 239.205 428.849 238.332C408.912 257.078 390.471 277.844 363.689 288.097C357.479 279.64 351.756 271.895 345.921 264.225C327.704 261.007 351.869 249.332 339.562 243.233C333.876 246.376 326.844 250.268 319.812 254.122C328.191 244.955 335.634 235.638 323.552 221.232C317.081 235.263 297.892 238.968 299.762 259.66C305.822 258.163 310.648 256.966 315.51 255.806C308.74 266.956 291.01 272.606 298.378 293.672C315.099 283.195 330.809 273.354 346.482 263.514C333.39 274.776 319.775 285.515 307.468 297.601C301.371 303.587 296.246 311.52 293.254 319.565C289.925 328.47 294.75 333.933 304.775 333.035C308.067 339.92 299.089 352.679 314.725 353.203C314.837 353.203 314.912 354.438 314.949 354.662C308.029 364.091 301.259 373.258 293.029 384.484H318.465V413.332H332.829C327.368 421.265 322.58 428.187 315.099 439.113C327.592 434.585 334.886 431.966 342.218 429.31C328.079 442.705 318.241 459.917 298.229 467.999C286.259 472.863 273.84 484.088 281.77 505.042C286.895 489.177 298.678 496.324 307.468 493.742C307.468 498.045 307.468 502.348 307.468 508.821C317.418 500.515 310.835 497.708 306.87 494.341C317.755 480.459 326.246 463.659 346.071 461.264C351.345 472.639 333.802 483.19 347.417 495.388C355.684 489.626 363.614 484.126 371.507 478.625C363.913 491.684 353.851 501.974 340.722 509.981C334.026 514.06 328.34 520.87 324.076 527.605C318.577 536.323 314.725 546.126 310.61 555.63C309.376 558.511 309.563 561.991 308.291 571.121C318.989 563.525 325.311 559.035 331.669 554.545C311.321 575.91 293.852 600.531 265.611 612.953L266.284 613.44C269.501 608.688 271.671 602.177 276.122 599.558C286.895 593.16 287.269 584.741 283.94 572.393C267.668 577.669 253.679 586.238 240.063 595.629C233.442 600.194 226.56 604.422 219.789 608.8C224.278 603.001 228.729 597.163 233.405 591.102C210.513 582.571 193.456 592.374 177.334 605.433C183.73 597.949 190.089 590.503 196.485 583.02C195.887 581.598 195.326 580.213 194.727 578.792C181.411 586.125 169.553 591.476 159.491 574.863C155.077 567.566 146.175 571.084 141.05 578.38L141.499 578.455C139.105 567.417 145.876 560.569 153.432 555.032C163.045 547.96 173.481 542.048 183.543 535.649C182.309 540.551 181.074 545.453 178.68 555.032C195.887 546.5 208.081 540.439 220.238 534.377C218.592 537.146 216.984 539.952 215.787 541.973C233.405 555.219 244.739 542.946 257.12 535.462C257.831 540.139 252.033 546.463 263.89 547.324C278.067 548.371 293.665 541.299 298.603 527.268C292.955 528.952 286.82 531.309 280.499 532.581C272.569 534.228 264.452 535.013 256.447 536.136C257.531 529.85 257.644 523.975 249.04 523.601C237.519 523.115 227.27 526.071 219.415 535.163C214.926 520.009 212.158 518.325 200.525 524.798C194.653 528.054 189.304 532.357 183.73 536.173C184.516 532.057 185.301 527.904 186.349 522.404C179.69 521.88 174.192 520.046 169.553 521.319C156.873 524.836 145.315 528.952 131.063 525.36C124.255 523.638 114.754 532.768 107.086 536.66C120.103 512.151 144.529 498.494 165.85 481.469L165.514 480.796C164.878 486.708 164.279 492.62 163.232 502.198C182.009 490.262 201.685 486.595 207.445 466.315C197.682 456.437 190.987 464.182 183.842 467.213L184.628 467.812C181.673 463.023 178.718 458.271 175.127 452.471C166.149 461.226 163.494 475.482 145.988 470.469C149.953 465.342 153.02 461.563 155.938 457.634C168.319 440.797 167.533 437.766 148.307 427.925C151.786 414.605 171.536 411.536 169.853 394.287C178.344 391.481 187.433 388.487 196.298 385.569C200.712 388.3 205.538 391.256 210.326 394.212C185.339 389.685 176.623 412.808 160.464 424.108C175.725 421.527 192.371 430.881 205.313 412.883C211.71 403.978 225.063 400.087 235.275 393.95C224.727 405.026 214.178 416.139 201.498 429.422C233.704 427.888 250.275 413.257 249.489 389.497C244.29 391.256 239.465 392.865 234.602 394.511L234.265 394.586ZM289.887 465.38C275.636 457.859 260.973 467.438 257.531 486.558C273.204 486.296 280.349 474.397 289.887 465.38ZM480.432 170.083C467.228 176.406 465.282 181.233 467.976 200.016C483.462 194.292 478.936 181.57 480.432 170.083ZM264.826 424.782C249.302 408.88 247.32 409.516 235.238 432.116C245.599 429.534 253.566 427.551 264.826 424.782ZM311.957 540.701C301.446 541.861 295.648 545.64 300.623 558.324C305.411 550.878 308.702 545.789 311.957 540.701Z" fill="black"/>
<path d="M470.145 385.943C473.96 386.617 473.25 397.842 480.544 390.396V390.321C477.701 405.55 478.786 418.721 489.109 432.603C501.865 449.74 495.656 464.856 475.831 476.231C462.29 484.014 463.412 490.974 480.992 501.825C474.222 507.998 467.751 513.948 460.831 520.271C462.364 530.524 469.546 540.439 461.205 551.777C458.474 555.481 462.739 564.349 463.898 571.57C457.352 576.06 450.544 580.7 443.736 585.377C439.572 579.59 434.547 579.378 428.662 584.741H444.372C428.699 596.079 444.784 606.817 446.841 620.587C435.806 615.611 428.138 605.171 415.084 614.226C414.485 623.431 413.775 634.394 413.101 645.133C404.909 654.038 389.835 642.102 383.214 655.31C373.451 653.177 363.239 643.823 356.207 659.838C352.317 654.263 350.222 651.269 347.492 647.34C338.552 650.221 329.5 653.177 320.373 656.133C317.156 652.916 313.153 646.33 310.572 646.854C304.55 648.089 295.573 651.569 294.189 656.133C289.027 672.971 275.149 673.57 262.356 675.403C252.294 676.863 241.858 676.227 231.646 675.553C221.248 674.88 210.961 673.046 200.113 671.662C199.665 669.716 198.206 666.236 198.842 665.824C208.754 658.977 220.5 654.038 222.893 640.119C238.566 639.632 243.878 623.955 255.661 617.818C258.99 616.097 262.543 614.862 265.985 613.403L265.311 612.917C252.968 626.237 240.624 639.52 228.242 652.915C241.447 663.355 245.15 663.28 252.107 653.29C255.436 648.538 258.429 639.707 261.87 639.558C274.625 639.034 274.251 628.482 277.543 621.186C284.463 620.4 290.411 619.726 296.246 619.128C293.141 626.2 285.211 631.999 290.298 641.167C312.181 637.35 314.537 634.544 316.146 607.865C311.994 611.12 308.926 615.161 306.308 619.502C302.53 625.825 299.276 626.087 295.947 619.277C301.969 610.073 304.363 598.249 319.176 596.49C325.348 595.779 331.894 588.52 336.046 582.646C345.06 569.961 357.853 563.6 371.394 557.876C360.771 567.529 350.26 577.183 339.599 586.762C332.23 593.385 326.694 600.494 331.22 612.393C352.205 595.779 371.918 580.139 392.004 564.199C388.226 548.521 378.202 558.212 370.683 558.549C372.404 549.494 383.962 541.487 373.414 529.476C359.761 537.146 346.594 544.555 333.427 551.964C342.143 543.919 349.886 534.191 359.873 528.353C370.384 522.217 372.366 515.108 369.486 506.464C374.05 506.876 379.361 509.046 382.541 507.325C397.84 498.981 409.622 484.949 426.829 479.636C413.849 489.926 410.258 502.199 418.6 516.979C413.064 512.152 407.603 507.475 402.628 503.209C387.69 513.536 383.227 524.437 389.236 535.912C394.249 532.806 399.261 529.85 404.161 526.632C409.061 523.414 413.774 519.972 418.562 516.642C422.191 509.57 425.819 502.461 429.447 495.389C447.327 494.753 451.891 490.599 451.255 474.285C442.764 476.306 434.497 478.252 426.231 480.197C425.782 471.217 425.333 462.237 424.884 453.257C428.924 458.907 430.906 469.234 440.183 465.231C444.148 463.509 445.046 454.604 447.327 448.954C454.023 453.257 459.858 453.781 464.497 445.848C466.105 443.079 468.499 439.076 470.893 438.776C483.91 437.317 480.431 430.994 476.84 423.173C470.743 409.89 461.392 414.567 452.041 417.673C453.649 415.166 454.734 411.162 456.903 410.452C469.771 406.336 471.903 396.869 470.743 385.307L470.107 385.981L470.145 385.943ZM405.807 586.425C407.715 580.139 409.585 573.853 411.605 567.23C404.199 570.186 398.064 571.982 392.565 574.975C385.421 578.904 383.177 584.517 390.359 591.888C395.595 589.905 401.019 587.809 406.48 585.752C406.443 595.181 390.097 601.018 402.665 615.798C402.478 599.11 428.475 606.107 424.098 586.425C417.44 586.425 411.605 586.425 405.844 586.425H405.807ZM433.113 564.012C438.537 572.618 445.495 575.836 455.257 570.934C455.818 562.478 453.948 556.903 444.559 559.26C440.37 560.345 436.517 562.815 432.477 564.686C442.452 555.057 444.223 545.715 437.789 536.66C430.009 543.769 418.562 547.885 421.517 562.216C425.782 562.927 429.41 563.526 433.113 564.012ZM480.057 441.957C470.294 452.583 464.684 458.682 459.035 464.781C475.793 469.01 483.798 467.588 486.304 458.046C487.314 454.267 483.012 449.104 480.02 441.994L480.057 441.957ZM265.536 667.471C267.818 666.872 270.773 666.947 271.67 665.675C274.7 661.26 277.244 656.433 279.189 651.456C279.376 651.007 273.466 646.517 270.997 647.004C263.329 648.5 260.262 654.263 261.795 661.896C262.169 663.767 264.077 665.376 265.573 667.508L265.536 667.471ZM461.99 508.822C448.524 501.338 441.567 500.328 438.238 509.944C437.303 512.713 441.492 517.241 443.325 520.982C448.188 517.802 453.088 514.621 461.99 508.822ZM327.106 634.506C333.577 635.329 337.729 637.2 339.749 635.891C348.24 630.316 350.634 621.822 350.147 609.025C342.068 617.968 336.158 624.478 327.106 634.506ZM362.828 615.161C370.272 610.522 374.274 609.287 375.995 606.593C378.127 603.225 378.725 598.661 379.137 594.545C379.212 593.721 374.76 591.102 373.75 591.701C370.16 593.759 366.232 596.303 364.175 599.708C362.529 602.44 363.389 606.705 362.791 615.161H362.828ZM383.401 642.513C392.491 646.33 399.037 647.902 404.311 640.081C398.077 632.473 391.107 633.284 383.401 642.513ZM413.064 541.075C421.705 539.878 426.081 536.548 423.65 529.027C423.051 527.231 418.525 524.948 416.804 525.584C409.585 528.279 409.847 533.891 413.064 541.075ZM402.628 558.587C403.226 551.851 403.638 547.062 404.049 542.31C401.431 542.235 397.615 541 396.381 542.31C390.92 547.96 393.538 552.637 402.628 558.587ZM375.097 617.332C381.119 623.955 386.169 624.441 390.92 618.866C391.817 617.818 391.256 614.076 390.059 613.029C384.187 607.94 379.586 610.222 375.097 617.332ZM361.781 645.619C364.1 640.68 366.232 638.285 365.933 636.265C365.596 634.02 363.015 632.149 361.369 630.128C359.798 632.149 357.105 634.095 356.955 636.227C356.768 638.36 359.087 640.718 361.781 645.657V645.619Z" fill="black"/>
<path d="M68.5949 248.285C71.4004 241.924 75.1783 234.029 66.6124 230.811C61.8245 229.015 54.7549 233.168 48.6203 234.702C48.4707 233.131 49.1066 227.294 47.7974 226.845C33.7703 221.831 42.411 210.082 43.7202 204.507C45.1042 198.52 57.1488 189.427 61.9367 190.812C88.0459 198.295 105.664 183.89 124.217 170.644C124.816 170.232 125.601 170.083 128.182 169.035C129.042 173.75 129.865 178.202 130.726 182.992C141.947 179.287 153.132 175.621 163.643 172.141C162.67 177.978 161.361 185.723 159.378 197.622C173.742 190.326 184.515 184.863 195.325 179.362C190.986 188.08 186.647 196.761 182.308 205.48C183.393 206.49 184.515 207.5 185.637 208.51L203.592 200.54C199.777 209.932 190.874 216.667 197.944 227.256C210.026 220.147 222.183 213 235.836 204.956C236.472 210.419 236.771 213.262 237.294 217.715C219.078 218.837 206.884 230.736 193.979 241.4C187.096 247.088 178.829 251.465 173.181 258.126C168.318 263.888 166.261 272.007 162.296 280.501C151.374 277.882 142.77 280.763 135.888 292.961C132.259 299.434 120.925 301.567 112.135 306.132C112.958 301.642 113.557 298.274 114.566 292.662C102.671 296.478 91.8613 299.921 77.8341 304.411C85.3527 296.665 91.0383 290.791 98.5943 283.008C91.0757 280.576 85.9138 278.93 79.4052 276.834C90.2902 265.459 100.801 254.534 111.574 243.308C102.971 232.719 94.2178 235.339 85.839 238.706C79.6296 241.213 73.8691 244.805 67.8842 247.948L68.5575 248.322L68.5949 248.285Z" fill="black"/>
<path d="M358.452 22.1721C363.95 15.7364 369.411 9.30059 377.154 0.245605C376.456 14.4891 381.656 22.3967 392.753 23.9682C386.244 32.8735 381.83 41.4047 397.054 48.4017C399.373 41.6666 402.328 36.2785 402.927 30.6285C403.899 21.3864 398.476 21.349 391.892 24.7539C395.595 20.1142 399.261 15.437 403.6 9.97412C411.194 17.495 409.997 34.5573 428.138 28.2338C426.642 31.0027 426.081 32.7987 424.921 34.0335C420.283 38.9351 416.917 44.66 424.211 48.8133C426.418 50.0855 432.627 45.5205 436.293 42.6394C438.874 40.5814 440.22 36.952 445.644 35.605C445.046 38.2242 444.522 40.8808 443.811 43.4626C441.305 52.8169 438.163 62.059 436.629 71.6004C436.218 74.1073 440.781 77.4001 443.737 81.2167C442.016 87.0912 439.584 95.2856 437.003 104.041C428.924 105.613 425.67 102.357 425.894 93.0031C426.044 85.8938 424.585 78.2981 421.854 71.7501C419.236 65.5014 413.775 65.9877 409.286 71.0765C413.438 63.7427 419.124 56.6335 413.55 46.6805C401.767 49.1874 401.393 59.2153 397.765 66.6987C393.538 65.5762 389.349 64.4537 385.159 63.3312C383.289 55.1742 390.059 44.5851 376.556 39.5337C371.544 44.6225 366.195 50.0106 360.846 55.3987C359.536 54.4633 358.227 53.4904 356.918 52.555C359.312 46.1567 362.043 39.8705 363.95 33.3599C365.559 27.897 364.998 22.8456 357.816 21.6483L358.414 22.0973L358.452 22.1721Z" fill="black"/>
<path d="M502.167 303.962C508.264 302.39 514.324 300.819 520.421 299.247L519.86 298.686C512.079 305.608 504.411 312.643 496.481 319.415C494.237 321.324 490.122 321.81 489 324.017C486.494 328.994 482.491 336.216 484.362 339.621C486.419 343.362 494.386 343.811 499.885 345.72C497.528 352.305 495.284 360.574 482.678 362.445C471.12 364.204 470.26 375.84 470.147 385.943L470.783 385.27C466.332 382.351 461.881 379.395 457.43 376.477L457.991 377.038C461.843 372.548 466.332 368.432 469.287 363.418C472.13 358.666 473.364 353.016 475.309 347.74C470.035 346.505 464.761 345.233 459.524 343.998V325.252C448.938 329.817 439.999 333.634 431.059 337.488C451.819 316.796 459.225 304.897 444.861 281.998C452.118 279.379 458.888 276.909 465.696 274.477C465.995 281.511 463.639 292.437 467.155 294.907C476.693 301.567 475.571 310.959 476.731 319.976C486.057 317.183 494.735 311.645 502.765 303.363L502.167 303.999V303.962Z" fill="black"/>
<path d="M170.194 610.521C166.416 616.77 162.638 623.056 158.897 629.23C174.233 642.289 179.657 642.476 193.123 630.989C202.138 623.318 211.228 615.76 220.28 608.164C218.11 613.328 217.25 619.838 213.509 623.355C203.784 632.523 192.3 639.857 182.538 648.986C178.76 652.541 177.787 659.014 174.72 666.086C170.792 666.46 164.059 667.134 156.802 667.845C161.478 661.858 166.004 656.133 170.455 650.446C155.194 637.649 146.516 636.676 135.257 648.388C125.905 658.154 118.349 669.678 107.277 677.723C109.634 659.65 125.569 653.963 135.444 642.85C145.917 631.101 158.486 621.223 170.156 610.521H170.194Z" fill="black"/>
<path d="M357.856 21.7234C347.158 36.6155 332.607 46.1944 315.625 52.443L316.223 53.0417C319.814 39.8708 323.368 26.7374 328.118 9.22607C328.68 20.0022 329.091 26.9993 329.502 34.7821C347.794 31.639 336.834 18.8423 339.378 12.1446C345.699 15.4748 352.021 18.7675 358.417 22.135C358.454 22.135 357.856 21.7234 357.856 21.7234Z" fill="black"/>
<path d="M46.6778 50.0479C60.5179 45.4081 74.3206 40.731 92.6868 34.5571C73.3481 46.3436 61.3783 61.4975 42.2266 66.3244L42.5632 66.9605C44.1717 61.3853 53.4109 57.6436 46.6404 50.0479H46.6778Z" fill="black"/>
<path d="M310.499 32.1252C300.961 37.7752 295.537 40.9931 288.168 45.4084C290.637 35.4554 292.544 27.5978 294.527 19.5156C299.016 23.0703 303.429 26.5501 310.462 32.1252H310.499Z" fill="black"/>
<path d="M480.543 390.396C494.533 391.78 486.79 377.225 495.206 372.884C497.263 374.269 500.518 376.514 505.53 379.919C496.852 384.746 494.682 399.825 480.543 390.321V390.396Z" fill="black"/>
<path d="M121.6 448.43C114.531 456.587 107.461 464.781 100.354 472.938C99.5309 472.19 98.6706 471.441 97.8477 470.656C105.291 463.097 112.735 455.539 120.179 447.943C120.665 448.093 121.114 448.243 121.6 448.392V448.43Z" fill="black"/>
<path d="M232.321 322.595C224.54 329.069 216.76 335.542 208.98 342.052C208.044 340.967 207.072 339.882 206.137 338.797C213.992 332.212 221.847 325.626 229.702 319.003C230.6 320.201 231.46 321.398 232.358 322.595H232.321Z" fill="black"/>
<path d="M167.011 335.542C159.866 341.641 152.722 347.74 145.614 353.802C145.166 353.315 144.679 352.866 144.23 352.38C151.45 346.543 158.669 340.743 165.888 334.906L167.048 335.504L167.011 335.542Z" fill="black"/>
<path d="M177.782 289.219C171.573 296.141 165.401 303.064 156.461 313.054C155.451 292.026 171.012 295.43 178.418 289.743L177.82 289.219H177.782Z" fill="black"/>
<path d="M105.928 40.2074C99.6437 44.9968 93.3222 49.8237 87.038 54.6131C86.1777 53.3783 85.3174 52.1809 84.457 50.9462C90.9656 46.4935 97.5116 42.0034 104.02 37.5508C104.656 38.4488 105.292 39.3094 105.928 40.2074Z" fill="black"/>
<path d="M31.0052 321.81C35.9054 315.786 40.8055 309.724 45.743 303.7C45.743 303.625 45.7056 303.588 45.6682 303.513C40.6559 309.425 35.6061 315.337 30.5938 321.248L31.0052 321.772V321.81Z" fill="black"/>
<path d="M42.2253 66.3244C39.6818 68.5694 37.1382 70.8145 33.5846 73.9575C25.7294 56.4837 41.3276 56.1469 48.1728 50.1602C43.3849 54.7999 32.0136 57.232 42.5994 66.9605L42.2628 66.3244H42.2253Z" fill="black"/>
<path d="M128.148 487.007C123.174 491.497 118.236 496.025 113.261 500.515C112.55 499.729 111.84 498.943 111.129 498.12C116.253 493.817 121.415 489.514 126.54 485.211C127.064 485.81 127.587 486.371 128.111 486.97L128.148 487.007Z" fill="black"/>
<path d="M25.4697 121.141C22.2154 125.257 18.9237 129.373 15.6694 133.489C14.6221 132.778 13.5747 132.067 12.5273 131.318C15.632 127.09 18.7367 122.862 21.8413 118.671C23.0383 119.495 24.2727 120.318 25.5071 121.141H25.4697Z" fill="black"/>
<path d="M397.394 66.0625C401.396 67.7089 405.399 69.3552 409.401 71.0016C403.192 76.2026 396.945 81.3662 389.09 87.9142C392.419 79.0837 394.888 72.5731 397.394 66.0625Z" fill="black"/>
<path d="M77.2377 336.515C73.9086 339.695 70.5421 342.876 67.213 346.056L65.2305 343.774L75.9285 335.018C76.3774 335.542 76.7888 336.028 77.2377 336.552V336.515Z" fill="black"/>
<path d="M220.652 124.471C224.056 121.702 227.423 118.971 230.827 116.202C231.799 117.212 232.809 118.185 233.782 119.195C229.966 121.515 226.151 123.835 222.336 126.155C221.775 125.593 221.213 125.032 220.652 124.471Z" fill="black"/>
<path d="M88.5722 574.04C90.5173 581.748 89.5073 587.921 78.4727 591.064C82.5499 584.217 85.6171 579.128 88.6844 574.04H88.5722Z" fill="black"/>
<path d="M152.797 384.783L163.944 374.568C164.692 375.392 165.403 376.252 166.151 377.075C162.223 380.218 158.333 383.399 154.405 386.542C153.882 385.943 153.321 385.345 152.797 384.783Z" fill="black"/>
<path d="M12.8616 286.862C16.2655 285.814 19.7069 284.729 23.1108 283.682C23.5222 284.729 23.9711 285.777 24.3826 286.825C21.1657 288.508 17.9862 290.155 14.7693 291.839C14.1334 290.192 13.4975 288.546 12.8242 286.9L12.8616 286.862Z" fill="black"/>
<path d="M178.381 289.706C183.057 284.318 187.733 278.892 192.409 273.504C193.493 274.552 194.541 275.637 195.625 276.685C190.688 282.036 186.386 288.135 177.82 289.22L178.381 289.743V289.706Z" fill="black"/>
<path d="M134.84 83.4241C137.907 80.6178 141.012 77.7741 144.079 74.9678C144.229 75.08 144.378 75.1923 144.528 75.2672C141.573 78.2606 138.58 81.2539 135.625 84.2473C135.364 83.9854 135.102 83.7235 134.84 83.4241Z" fill="black"/>
<path d="M67.9613 247.911L75.2928 255.768C74.6569 256.816 74.0211 257.864 73.3852 258.874C70.0935 256.629 66.7644 254.384 63.4727 252.176C65.2307 250.904 66.9888 249.594 68.7095 248.322C68.672 248.322 67.9987 247.911 67.9987 247.911H67.9613Z" fill="black"/>
<path d="M70.3929 387.29C65.6797 389.61 61.004 391.93 59.5078 392.678C60.5552 391.593 63.9591 387.964 67.363 384.297C68.373 385.307 69.3829 386.28 70.3929 387.29Z" fill="black"/>
<path d="M113.072 602.626C110.491 605.059 107.872 607.528 105.291 609.96C104.543 609.324 103.795 608.725 103.047 608.089C105.329 605.096 107.61 602.065 109.892 599.072C110.939 600.269 112.024 601.429 113.072 602.626Z" fill="black"/>
<path d="M115.656 54.6131C113.336 55.8104 111.055 56.9703 108.735 58.1677C108.361 57.6813 107.987 57.1948 107.613 56.7084C109.745 54.9124 111.878 53.1163 114.01 51.3203C114.571 52.4054 115.094 53.4905 115.656 54.5756V54.6131Z" fill="black"/>
<path d="M9.75775 440.947C7.25157 443.117 4.7454 445.287 2.23922 447.42C1.79036 446.746 0.855205 445.586 0.930017 445.512C3.28657 443.304 5.75535 441.246 8.22412 439.113L9.75775 440.909V440.947Z" fill="black"/>
<path d="M111.841 383.698C109.485 386.205 107.128 388.711 104.772 391.181C104.098 390.62 103.462 390.021 102.789 389.46C104.884 387.028 106.941 384.558 109.036 382.126C109.971 382.65 110.906 383.174 111.841 383.698Z" fill="black"/>
<path d="M114.718 565.508C112.473 557.501 115.466 552.3 124.069 548.034C120.366 554.919 117.523 560.232 114.68 565.546L114.718 565.508Z" fill="black"/>
<path d="M103.685 158.745C100.917 160.392 98.1119 162.038 95.3439 163.684C94.8576 162.936 94.3339 162.15 93.8477 161.402C96.5035 159.531 99.1593 157.698 101.815 155.827L103.723 158.745H103.685Z" fill="black"/>
<path d="M140.677 578.305C134.917 581.822 129.156 585.34 123.396 588.894C122.947 587.847 122.498 586.836 122.012 585.789C128.296 583.282 134.58 580.775 140.976 578.305C141.089 578.343 140.64 578.305 140.64 578.305H140.677Z" fill="black"/>
<path d="M200.266 113.844C198.284 114.63 196.264 115.378 194.281 116.164L198.059 111.225C198.807 112.123 199.518 112.984 200.266 113.882V113.844Z" fill="black"/>
<path d="M165.403 481.469C171.65 476.904 177.934 472.377 184.181 467.812L183.395 467.213C177.298 471.741 171.164 476.268 165.066 480.796L165.403 481.469Z" fill="black"/>
<path d="M66.7242 141.945C63.3951 142.543 60.066 143.105 56.7369 143.703C56.1384 143.142 55.5399 142.618 54.9414 142.057C58.3827 141.571 61.824 141.122 65.2654 140.635C65.7516 141.084 66.2379 141.496 66.7242 141.945Z" fill="black"/>
<path d="M180.665 92.0679L173.596 103.854C172.922 103.368 172.287 102.919 171.613 102.432C174.793 99.0274 177.972 95.6225 181.152 92.2549L180.665 92.1053V92.0679Z" fill="black"/>
<path d="M55.7309 98.8024C53.5988 100.673 51.4667 102.582 49.3345 104.452C48.736 103.891 48.1376 103.33 47.5391 102.769C49.6338 100.411 51.7659 98.0541 53.8606 95.6968L55.6935 98.8024H55.7309Z" fill="black"/>
<path d="M181.15 92.2546C185.527 89.7851 189.941 87.2781 194.317 84.8086C194.654 85.6692 194.953 86.5298 195.29 87.3529C190.502 88.9619 185.714 90.5709 180.814 92.105C180.701 92.0676 181.188 92.2173 181.188 92.2173L181.15 92.2546Z" fill="black"/>
<path d="M83.2991 444.688C85.8427 442.368 88.4237 440.048 90.9673 437.729C91.678 438.514 92.3513 439.263 93.062 440.048C90.481 442.368 87.9374 444.688 85.3564 446.971C84.6457 446.185 83.9724 445.436 83.2617 444.651L83.2991 444.688Z" fill="black"/>
<path d="M315.623 52.4429C312.331 56.1846 309.077 59.9263 305.785 63.6681C304.812 62.5455 303.84 61.423 302.867 60.3005C307.318 57.8683 311.77 55.4736 316.184 53.0415L315.585 52.4429H315.623Z" fill="black"/>
<path d="M88.6846 574.039C97.3627 571.196 106.041 568.352 114.719 565.508C110.866 567.304 107.088 569.475 103.048 570.784C98.4101 572.281 93.5099 572.992 88.6472 574.039C88.6098 574.039 88.6846 574.039 88.6846 574.039Z" fill="black"/>
<path d="M155.268 49.786L148.759 54.276C148.198 53.5651 147.674 52.8542 147.113 52.1807C149.358 50.3472 151.602 48.5138 153.846 46.7178C154.333 47.7655 154.781 48.7757 155.268 49.8234V49.786Z" fill="black"/>
<path d="M65.8689 576.996C67.0659 578.417 68.8239 579.914 68.5995 580.326C67.7018 581.972 66.1681 583.282 64.8589 584.704C63.5497 583.469 62.2779 582.234 60.9688 580.999C62.5772 579.652 64.223 578.305 65.8315 576.996H65.8689Z" fill="black"/>
<path d="M459.447 344.26C449.348 351.257 439.248 358.254 429.148 365.251C432.59 348.638 446.467 347.067 459.447 344.26Z" fill="black"/>
<path d="M374.612 382.014C370.909 385.12 367.243 388.188 359.762 394.474C365.672 386.579 368.627 382.688 371.545 378.759C372.554 379.844 373.602 380.929 374.612 382.014Z" fill="black"/>
<path d="M421.22 272.719C418.826 274.702 416.395 276.722 414.001 278.705C413.29 277.994 412.617 277.246 411.906 276.535C414.188 274.44 416.507 272.344 418.789 270.249C419.574 271.072 420.397 271.895 421.183 272.719H421.22Z" fill="black"/>
<path d="M397.281 289.332C395.224 291.726 393.167 294.121 391.072 296.516C390.361 295.917 389.613 295.281 388.902 294.682C390.96 292.25 392.98 289.855 395.037 287.423C395.785 288.059 396.533 288.696 397.281 289.332Z" fill="black"/>
<path d="M364.625 312.904C367.505 310.547 370.348 308.19 373.228 305.833C373.902 306.693 374.575 307.516 375.248 308.377C372.293 310.622 369.338 312.867 366.421 315.112C365.822 314.364 365.261 313.615 364.662 312.867L364.625 312.904Z" fill="black"/>
<path d="M447.964 449.589C444.747 447.719 441.642 445.511 438.238 444.052C428.251 439.824 423.95 443.453 425.221 454.08C418.975 447.793 412.69 452.209 406.406 454.005C414.897 433.014 436.368 428.187 452.64 416.887C442.129 426.503 447.029 438.289 447.964 449.552V449.589Z" fill="black"/>
<path d="M407.158 453.444C398.629 465.941 390.4 478.813 372.184 476.643C383.854 468.897 395.487 461.152 407.158 453.444Z" fill="black"/>
<path d="M419.498 410.676C414.897 414.268 410.296 417.86 405.246 421.789C403.526 418.533 402.815 417.486 402.965 417.374C406.93 413.557 411.007 409.815 415.084 406.036C416.543 407.57 418.039 409.142 419.498 410.676Z" fill="black"/>
<path d="M364.887 444.8C367.73 442.705 370.535 440.647 373.378 438.552C373.976 439.338 374.575 440.123 375.173 440.872C372.443 443.079 369.712 445.287 366.981 447.494C366.271 446.596 365.597 445.698 364.887 444.763V444.8Z" fill="black"/>
<path d="M457.43 376.476C454.812 380.929 452.194 385.419 449.613 389.872C447.967 388.076 446.321 386.28 444.638 384.484C443.852 374.942 452.194 377.711 457.991 377L457.43 376.439V376.476Z" fill="black"/>
</svg>
