<svg width="639" height="792" viewBox="0 0 639 792" fill="none" xmlns="http://www.w3.org/2000/svg">
<path d="M293.414 73.7407C294.293 85.0948 302.911 126.293 292.675 136.628C282.475 146.963 230.946 136.347 233.232 143.764C239.036 162.851 288.525 161.551 300.66 186.193C316.628 218.744 302.805 304.972 303.473 340.124C303.896 361.708 309.066 389.267 300.906 409.831C296.439 421.08 275.651 426.739 272.31 437.039C257.466 482.807 264.783 478.237 311.001 482.42C336.783 484.74 394.995 487.869 398.864 458.271C401.678 436.582 356.128 406.878 347.968 381.006C338.155 349.861 325.984 223.278 337.521 191.219C347.827 162.57 384.724 165.523 392.849 143.483C396.472 133.64 351.802 141.619 348.179 136.874C334.391 118.806 333.301 100.034 332.492 73.4242C329.748 -15.3351 389.649 11.5211 466.292 8.77924C505.756 7.37315 578.109 -14.8078 604.77 17.4971C632.346 50.8917 616.272 182.185 617.995 223.805C624.045 371.304 626.085 518.943 634.457 666.372C637.798 724.865 653.028 750.456 599.318 768.559C530.061 791.9 411.034 774.535 338.119 778.789C261.828 783.218 185.361 786.803 109.034 790.143C24.5825 793.834 30.3861 790.073 26.6225 703.879C21.452 585.065 19.8692 465.758 16.6684 346.873C14.8745 279.662 -24.8012 55.5317 25.0045 20.4498C53.6358 0.307579 143.328 15.9503 176.989 14.9661C249.763 12.8569 288.384 -7.21484 293.414 73.7759V73.7407ZM346.772 623.381C390.669 613.679 460.136 598.106 422.958 554.904C400.482 528.786 321.025 533.145 290.002 541.546C164.784 575.468 279.168 619.444 346.807 623.416L346.772 623.381ZM260.597 262.93C248.814 184.997 146.353 213.787 157.785 274.214C170.764 342.831 252.648 321.177 260.597 262.93ZM415.501 214.596C358.837 221.415 369.67 303.109 424.928 305.007C506.143 307.784 492.25 193.61 415.501 214.596Z" fill="black"/>
</svg>
