<svg width="682" height="774" viewBox="0 0 682 774" fill="none" xmlns="http://www.w3.org/2000/svg">
<path d="M218.728 297.094C308.345 295.37 515.788 253.723 568.475 345.038C588.453 379.65 599.11 457.528 571.5 491.225C530.666 541.033 479.913 497.838 443.51 466.743C401.023 430.443 370.916 382.851 308.803 415.458C257.346 442.437 228.505 533.998 155.876 517.923C99.6362 505.471 92.215 426.081 103.681 380.002C119.121 317.883 157.177 308.491 218.728 297.129V297.094ZM555.954 403.956C556.165 403.921 556.376 403.886 556.587 403.85C539.599 299.31 431.095 319.606 343.904 315.842C247.428 311.656 108.253 304.129 128.266 438.814C149.967 584.686 288.297 362.414 373.448 384.399C426.135 398.011 592.076 590.314 555.919 403.956H555.954Z" fill="black"/>
<path d="M672.936 295.406C675.011 311.129 692.738 425.764 668.012 427.136C671.846 426.925 626.404 175.212 603.437 138.736C542.695 42.2155 416.956 10.4523 309.577 20.8641C214.262 30.08 112.088 67.1194 59.0487 151.364C31.0168 195.895 22.259 242.573 20.8873 294.456C20.4301 312.36 43.1511 447.643 28.6955 457.528C-4.36595 480.11 -1.30599 270.009 2.56291 244.015C17.124 146.052 77.9711 75.3152 167.659 36.3764C387.799 -59.1943 652.537 37.7482 673.007 295.476L672.936 295.406Z" fill="black"/>
<path d="M419.49 512.331C423.219 566.958 348.303 548.984 412.562 591.546C450.934 616.977 441.613 569.104 454.732 606.812C466.234 639.841 407.954 666.574 387.484 673.363C360.367 682.368 229.141 683.74 233.573 626.228C233.326 629.5 361.668 568.928 309.473 550.954C292.134 545.009 291.078 573.325 273.915 545.713C253.867 513.422 279.964 486.056 300.118 484.649C296.706 484.895 318.899 515.603 327.2 518.768C355.689 529.567 361.633 515.532 385.479 508.357C401.412 503.573 412.104 450.775 419.525 512.261L419.49 512.331ZM344.856 631.329C344.856 631.329 344.856 631.223 344.856 631.153C342.71 631.399 284.396 633.685 284.677 643.429C285.662 677.443 407.497 660.208 413.089 628.62C414.777 619.193 343.766 631.469 344.891 631.329H344.856Z" fill="black"/>
<path d="M144.763 586.515C151.516 721.904 305.85 790.355 420.65 734.11C497.043 696.684 492.26 648.951 522.824 581.099C558.453 501.955 553.001 577.792 534.993 629.71C494.194 747.406 381.609 799.888 262.131 760.456C195.481 738.472 149.23 696.016 128.092 628.444C114.515 585.003 130.096 499.281 144.728 586.515H144.763Z" fill="black"/>
<path d="M507.738 392.595C507.491 424.569 463.105 426.856 459.447 393.65C455.367 356.611 500.703 348.767 507.738 392.595Z" fill="black"/>
<path d="M210.917 412.96C215.736 446.131 166.214 451.548 163.681 419.186C161.29 388.549 206.485 382.604 210.917 412.96Z" fill="black"/>
</svg>
