<svg width="906" height="890" viewBox="0 0 906 890" fill="none" xmlns="http://www.w3.org/2000/svg">
<path d="M905.925 444.246C901.174 450.384 897.845 455.96 893.319 460.264C869.229 483.092 844.765 505.471 820.563 528.225C777.583 568.605 734.416 608.835 691.847 649.665C620.026 718.561 548.579 787.832 477.02 856.991C468.529 865.187 460.674 874.057 451.808 881.803C440.512 891.646 438.641 891.608 428.093 880.793C400.299 852.314 372.918 823.46 345.349 794.756C256.995 702.769 168.565 610.856 80.2483 518.794C56.7569 494.319 33.5273 469.619 10.2978 444.92C-3.05639 430.699 -3.84205 427.48 10.4099 414.12C46.4325 380.327 83.2406 347.394 119.824 314.237C174.999 264.201 230.436 214.502 285.349 164.205C341.384 112.897 396.895 60.9908 452.743 9.49584C466.734 -3.41531 469.24 -3.30303 483.455 11.1425C521.235 49.5017 558.791 88.0854 596.385 126.632C639.627 170.979 682.533 215.625 726.037 259.71C780.875 315.322 836.199 370.484 891.187 425.983C896.2 431.036 900.239 437.098 906 444.209L905.925 444.246ZM439.09 279.171C397.344 363.374 352.905 441.103 317.144 526.803C402.619 540.2 485.175 542.932 570.013 525.381C566.609 517.634 564.59 512.282 561.934 507.268C552.32 489.005 542.071 471.041 532.756 452.629C507.133 401.995 481.996 351.099 456.223 300.539C452.856 293.915 446.796 288.639 439.053 279.133L439.09 279.171ZM559.016 599.928C519.776 599.517 482.108 607.376 444.439 605.841C405.873 604.27 367.419 602.136 324.327 601.837C365.212 653.893 403.704 700.86 446.459 743.86C463.816 731.211 550.786 620.511 559.016 599.928ZM627.171 430.586C629.64 430.287 632.146 429.988 634.615 429.688C652.345 397.13 664.989 362.176 680.625 328.308C663.193 323.368 576.485 328.607 559.839 335.942C582.507 367.79 604.839 399.188 627.171 430.586ZM209.339 334.333C228.154 365.32 243.154 394.248 265.112 423.738C276.633 407.047 286.321 393.537 295.449 379.653C304.613 365.694 320.885 355.627 322.157 334.296H209.339V334.333Z" fill="black"/>
</svg>
