<svg width="633" height="679" viewBox="0 0 633 679" fill="none" xmlns="http://www.w3.org/2000/svg">
<path d="M220.289 255.55C229.68 251.013 238.403 246.792 250.08 241.128C259.26 295.263 247.337 347.111 253.667 399.029C262.284 404.411 270.972 409.336 279.061 415.069C283.423 418.165 281.523 430.23 276.353 431.39C265.379 433.853 254.195 436.245 243.01 436.596C229.258 437.018 215.4 435.33 199.503 434.415C190.499 400.507 199.573 364.945 193.629 323.508C190.112 344.191 191.167 358.402 191.062 372.542C190.921 390.306 191.062 408.034 190.675 425.798C190.393 437.722 189.233 448.626 172.174 447.641C165.562 447.254 168.552 463.751 154.659 458.862C147.132 442.717 153.709 423.195 145.409 405.607C145.409 427.064 145.901 448.556 145.233 470.013C144.811 482.816 150.614 492.243 159.302 499.841C171.154 510.253 184.098 519.398 198.026 530.197C202.246 570.473 199.257 611.803 200.206 652.571C183.816 656.3 173.441 655.561 164.648 645.853C159.583 640.26 154.026 634.702 147.66 630.833C131.832 621.195 124.341 607.969 126.029 589.256C124.095 595.834 122.195 602.376 119.663 610.959C106.087 609.517 96.0628 603.115 86.9533 594.568C72.2867 580.849 56.9518 550.423 46.0134 530.408C36.5873 513.172 30.6433 496.57 30.2213 477.329C30.1509 473.847 28.287 469.45 25.7194 467.164C14.8513 457.42 15.6603 444.616 15.1327 431.988C14.5348 418.235 15.5546 404.587 4.22932 393.014C-0.0968007 388.582 0.149496 378.663 0.149496 371.276C0.00880884 320.554 0.360509 269.831 0.571539 219.109C0.571539 215.31 -0.0967236 210.983 1.45083 207.818C10.912 188.26 12.565 167.014 17.2077 146.332C20.9007 129.94 31.8041 114.92 31.2062 96.594C31.1359 94.4835 32.9647 90.9308 34.6882 90.2976C55.8615 82.9109 47.5962 62.3334 52.0982 51.1477C65.4986 31.7663 91.3146 38.2033 100.6 11.9979C112.875 41.2635 104.504 65.8158 111.292 95.3628C112.312 74.8206 112.875 60.7506 113.754 46.7158C114.633 32.505 109.745 16.641 123.462 5.06836C126.733 7.91754 129.933 9.43008 129.933 10.9074C130.179 67.8559 130.144 124.769 130.144 180.311C114.27 191.238 99.8495 196.902 86.8829 197.3V234.586C113.789 262.48 148.187 270.289 187.298 268.073C189.444 274.65 191.343 280.454 193.313 286.434C193.418 286.434 194.509 286.645 194.509 286.61C196.302 277.359 191.413 265.821 205.623 259.103C220.254 276.796 212.551 297.444 213.044 316.544C213.571 336.734 213.149 356.96 215.013 377.15C223.525 337.262 215.225 296.564 220.36 255.585L220.289 255.55ZM111.292 382.743C110.026 382.743 108.76 382.743 107.494 382.743V481.972C108.795 480.002 111.116 478.173 111.151 476.309C111.363 445.109 111.327 413.944 111.327 382.743H111.292ZM171.788 339.197C171.471 338.986 171.19 338.774 170.873 338.563V369.13C171.19 369.13 171.471 369.13 171.788 369.13V339.197ZM181.002 581.764L178.822 580.885V607.442L181.002 607.371V581.799V581.764ZM88.7471 129.588C88.2195 129.588 87.6919 129.588 87.1995 129.588V150.377C87.7271 150.377 88.2547 150.377 88.7471 150.377V129.588ZM104.785 541.488C104.012 541.488 103.273 541.488 102.499 541.488V563.156C103.273 563.156 104.012 563.156 104.785 563.156V541.488Z" fill="black"/>
<path d="M361.115 182.211C358.864 195.753 362.416 207.748 351.232 217.386C338.746 205.532 344.69 189.738 337.62 175.316V236.134C353.342 248.797 369.767 262.023 388.338 276.937C394.669 314.082 388.83 354.252 391.644 394.07C396.392 356.538 388.408 318.373 396.849 281.44C415.045 277.688 431.165 277.828 445.211 281.862C452.526 293.153 449.642 306.132 450.24 318.584C453.968 394.738 445.949 470.4 441.342 546.238C439.442 577.754 439.548 609.412 438.669 643.039C433.674 645.853 428.188 648.456 423.299 651.904C419.324 654.718 416.018 658.516 412.044 662.28C403.075 659.923 394.739 657.743 387.916 655.984C385.383 652.044 382.921 649.969 382.851 647.788C381.761 616.201 380.565 584.578 380.495 552.956C380.495 544.936 380.248 534.313 394.493 532.801C402.653 565.021 394.528 598.156 401.492 630.693C403.989 603.186 407.331 575.749 408.632 548.207C409.3 533.61 411.692 521.158 423.545 511.414C425.796 509.55 425.409 504.45 426.112 501.425C407.049 486.299 388.901 471.385 370.119 457.28C364.245 452.883 357.035 449.717 349.965 447.607C335.439 443.28 320.703 439.552 305.86 436.597C298.861 435.225 293.163 433.114 292.882 425.622C292.6 417.919 297.911 415.597 305.333 415.351C321.477 414.753 337.62 413.311 355.03 412.115V374.196C344.127 366.141 333.118 357.981 320.914 348.941C320.21 340.921 318.592 332.232 318.803 323.579C319.929 274.194 321.582 224.808 322.883 175.422C323.552 150.096 323.551 124.77 324.466 99.4437C324.958 85.6551 326.823 71.9016 328.124 57.5854C343.74 49.3896 358.125 41.8269 372.546 34.2994C382.535 36.5858 382.359 44.6761 382.394 52.2387C382.57 79.3939 382.464 106.584 385.805 133.739C386.509 97.2277 387.248 60.6808 387.951 23.4655C397.905 20.5108 405.678 17.8727 413.662 15.9732C421.821 14.0034 430.192 12.7723 438.493 11.1895C440.744 16.9933 443.241 20.4404 443.241 23.8876C443.311 72.0423 443.1 120.162 442.714 168.316C442.678 173.1 440.744 177.849 438.844 186.432C433.428 181.155 427.976 178.377 427.66 175.105C426.148 160.473 426.112 145.699 422.244 131.066C421.399 148.478 420.555 165.925 419.711 183.688C402.196 190.829 386.263 197.301 368.36 204.582C366.039 197.371 364.175 191.602 361.15 182.175L361.115 182.211ZM431.072 382.709C427.343 404.165 425.55 425.728 431.072 447.466V382.709ZM406.064 88.7857C406.522 88.7857 406.979 88.7857 407.401 88.7857V55.9673C406.944 55.9673 406.486 55.9673 406.064 55.9673V88.7857ZM428.961 346.936L430.685 348.518V345.423L428.961 346.971V346.936Z" fill="black"/>
<path d="M581.256 166.381C588.431 140.422 577.809 114.041 591.632 91.2123C606.544 95.1871 598.842 107.182 603.203 113.478C607.177 119.212 613.438 123.327 618.854 128.287C618.854 138.206 619.171 148.301 618.784 158.362C618.327 169.829 617.94 180.346 627.296 189.949C631.727 194.451 632.958 203.948 632.536 211.019C629.969 255.234 626.803 299.449 623.181 343.594C622.477 352.282 621.492 363.292 616.111 368.744C600.917 384.15 601.445 402.547 601.128 421.436C600.917 432.762 600.952 443.948 590.154 452.109C579.99 459.777 580.306 472.123 579.779 483.45C579.146 496.359 576.789 507.369 566.941 517.71C559.766 525.273 557.691 537.69 552.204 550.599C546.858 547.609 542.04 544.865 536.975 542.016C534.653 555.242 532.367 568.362 529.026 587.462C523.012 579.302 518.369 575.96 518.474 572.724C519.424 532.308 516.645 491.997 521.429 451.44C526.001 412.607 525.122 373.105 525.966 333.885C526.494 309.825 525.473 285.766 525.825 261.706C525.896 256.254 528.85 250.837 530.609 244.857C535.005 247.249 537.995 247.882 538.733 249.535C540.246 252.877 541.16 256.781 541.195 260.44C541.336 312.217 541.301 363.995 545.205 415.984C548.476 365.226 552.345 314.504 554.912 263.746C558.043 201.803 559.977 139.824 562.65 77.8809C562.967 70.7052 562.474 62.0521 575.488 61.3838C585.477 94.9056 576.543 130.01 581.291 166.346L581.256 166.381ZM574.609 222.802C574.046 289.776 561.49 356.679 566.027 424.355C571.162 357.452 581.889 290.831 574.609 222.802Z" fill="black"/>
<path d="M196.37 0.636719C198.41 15.8675 199.816 26.42 201.54 39.3644C203.756 28.4953 205.444 20.194 208.187 6.86267C214.377 13.6866 219.337 16.5358 219.688 19.9126C221.623 37.465 222.432 55.158 223.944 77.6349C229.994 56.2836 222.15 36.9373 232.596 21.4603C242.761 20.8975 243.992 27.8271 244.098 33.842C244.485 64.2685 244.274 94.6597 247.509 125.227C248.705 95.5039 249.901 65.7809 251.062 36.8318C267.557 29.3747 273.396 42.4598 283.279 48.0527C283.912 52.6958 285.249 57.6204 285.178 62.5449C283.771 137.397 282.329 212.25 280.535 287.067C280.113 304.796 278.777 322.524 277.194 340.217C276.667 346.056 273.958 351.719 270.617 363.01C265.799 354.357 261.93 350.523 261.824 346.654C261.578 335.292 263.231 323.896 263.477 312.534C264.075 287.173 264.532 261.812 264.497 236.45C264.497 230.295 264.497 220.868 260.91 218.582C243.007 207.22 249.901 188.964 246.735 169.372C241.003 178.482 237.31 184.286 232.561 191.813C217.051 184.532 201.434 177.18 185.255 169.583C176.462 124.101 184.165 78.5495 178.854 33.6661C174.739 77.7404 179.487 122.131 174.985 167.648C164.68 168.527 156.239 169.266 145.335 170.216C143.19 156.568 140.095 144.397 139.638 132.121C138.266 95.3632 137.598 58.6052 137.562 21.8121C137.562 14.7771 141.537 7.74208 143.682 0.74224H196.37V0.636719ZM200.696 148.935C201.329 148.935 201.962 148.935 202.595 148.935V77.9867C201.962 77.9867 201.329 77.9867 200.696 77.9867V148.935Z" fill="black"/>
<path d="M550.481 38.9422C561.666 77.3182 557.551 176.019 543.201 222.275C536.588 224.069 533.915 219.848 533.177 214.642C531.77 204.652 531.172 194.557 530.187 184.497C523.223 192.798 532.192 207.923 517.947 213.164C510.913 212.777 510.209 206.903 510.245 202.295C510.245 192.2 510.702 181.999 512.355 172.08C518.897 133.106 516.4 94.0264 514.923 54.8062C507.009 78.1624 512.285 102.926 507.537 126.387C502.577 150.905 508.803 176.899 497.723 202.366C489.599 200.079 482.529 198.074 475.987 196.245C467.37 157.447 471.31 58.183 482.846 19.209C501.487 15.7618 516.857 23.2189 533.352 35.7764V128.111C540.563 109.187 539.05 89.9109 538.98 70.6702C538.98 61.9116 539.894 53.0474 541.653 44.4647C542.11 42.1783 547.245 40.8417 550.481 38.9071V38.9422Z" fill="black"/>
<path d="M459.282 274.615C468.778 272.54 477.22 270.711 485.52 268.917C488.51 273.208 492.132 276.058 492.484 279.258C493.574 289.248 494.137 299.379 493.68 309.404C491.429 356.116 488.088 402.793 486.47 449.541C484.5 506.314 483.797 563.157 482.53 622.638C474.265 626.19 464.452 630.447 454.956 634.527C452.459 631.08 449.75 629.11 449.785 627.14C450.137 599.352 450.841 571.599 451.544 543.845C452.775 497.098 454.393 450.35 455.202 403.567C455.835 368.146 455.343 332.725 455.8 297.303C455.905 289.987 458.016 282.67 459.317 274.615H459.282Z" fill="black"/>
<path d="M502.015 612.332C491.218 598.614 494.735 586.795 494.7 575.785C493.996 428.999 498.815 293.54 505.427 265.083C514.325 264.169 516.084 270.676 516.084 276.902C516.084 303.495 515.662 330.122 515.17 356.715C513.868 427.663 512.637 498.646 511.019 569.594C510.703 582.89 513.481 597.066 502.015 612.297V612.332Z" fill="black"/>
<path d="M286.834 552.358C302.731 556.685 303.153 556.649 316.518 551.268C318.101 553.026 320.95 554.715 321.091 556.579C321.689 565.338 321.196 574.167 321.689 582.96C322.498 596.749 323.975 610.502 324.889 624.256C325.698 636.849 326.718 649.476 326.367 662.034C326.261 665.903 322.005 669.632 316.483 678.601C312.579 663.652 310.152 654.331 307.338 643.462C294.36 648.492 305.052 665.903 292.25 670.335C290.597 667.627 287.115 664.602 287.08 661.506C286.693 626.331 286.834 591.121 286.834 552.358ZM304.384 613.668C305.228 615.321 305.897 616.553 306.53 617.784C306.846 616.904 307.655 615.814 307.374 615.216C307.057 614.548 305.791 614.337 304.384 613.668Z" fill="black"/>
<path d="M463.254 16.0088C464.59 25.8578 467.228 35.5309 466.912 45.0985C465.434 88.9619 469.726 133.142 461.39 181.93C455.235 175.668 450.311 172.995 449.924 169.829C448.622 158.609 448.622 147.177 448.658 135.85C448.728 102.997 448.728 70.1432 449.467 37.2897C449.642 29.0939 448.587 18.7876 463.254 16.0088Z" fill="black"/>
<path d="M219.305 658.939C206.959 655.211 205.482 648.633 205.447 642.583C205.341 612.508 210.477 582.574 207.452 552.323C207.03 547.962 212.903 542.967 218.777 533.646C233.092 578.775 226.093 617.819 219.269 658.939H219.305Z" fill="black"/>
<path d="M369.771 547.574C371.213 550.423 374.203 553.624 374.133 556.72C373.57 592.106 372.55 627.457 371.6 662.843C371.6 664.004 371.143 665.551 370.334 666.255C368.646 667.767 366.571 669.808 364.636 669.808C362.737 669.808 359.255 667.732 359.15 666.396C358.516 655.14 358.305 643.884 358.305 632.592C358.235 608.568 358.2 584.508 358.516 560.484C358.622 554.011 360.521 547.926 369.771 547.539V547.574Z" fill="black"/>
<path d="M338.186 676.349C330.484 638.395 331.504 573.884 339.84 550.598C346.663 550.036 348.386 555.136 348.984 559.99C349.899 567.447 349.864 575.01 349.934 582.537C350.075 607.582 350.286 632.627 349.934 657.671C349.828 664.53 352.22 673.5 338.257 676.384L338.186 676.349Z" fill="black"/>
<path d="M266.649 544.162C269.814 559.076 273.331 567.272 272.944 575.327C271.537 606.422 277.904 637.869 270.166 671.285C265.242 667.556 260.318 665.587 260.247 663.476C259.051 628.09 258.383 592.704 257.891 557.318C257.891 555.313 260.458 553.272 266.649 544.127V544.162Z" fill="black"/>
<path d="M240.445 659.747C231.582 628.441 232.778 576.101 240.692 546.448C244.666 550.915 249.801 553.941 250.223 557.528C254.268 592.176 249.027 626.12 240.445 659.712V659.747Z" fill="black"/>
<path d="M421.859 231.877C428.894 229.836 435.471 227.198 442.294 226.389C444.51 226.108 448.941 230.364 449.328 233.002C449.715 235.64 446.655 241.092 444.545 241.409C436.561 242.535 426.748 246.65 421.824 231.912L421.859 231.877Z" fill="black"/>
<path d="M183.99 223.788C182.689 225.863 181.809 229.24 180.121 229.697C172.559 231.738 165.138 231.28 159.51 224.773C158.807 223.964 158.525 222.381 158.736 221.29C159.968 214.783 164.821 214.291 170.203 214.537C176.744 214.818 182.899 215.557 184.025 223.823L183.99 223.788Z" fill="black"/>
<path d="M208.859 492.982C208.191 490.766 206.679 488.374 207.171 486.475C207.488 485.244 210.759 484.787 212.693 483.978C213.537 486.123 215.472 488.691 214.874 490.274C214.311 491.716 211.005 492.138 208.894 492.982H208.859Z" fill="black"/>
<path d="M243.008 492.314C241.496 493.932 239.983 495.515 238.471 497.133C236.783 494.6 235.13 492.103 233.441 489.57C235.481 488.55 237.803 486.37 239.42 486.827C241.003 487.284 241.847 490.38 243.008 492.314Z" fill="black"/>
<path d="M256.449 490.063C258.173 488.726 259.896 487.389 261.619 486.053C262.85 488.691 264.046 491.364 265.277 494.002C263.273 494.635 260.775 496.289 259.439 495.62C257.891 494.847 257.399 492.032 256.449 490.063Z" fill="black"/>
<path d="M292.461 495.234C290.491 496.008 288.064 497.837 286.763 497.239C285.356 496.571 285.075 493.616 284.266 491.646C286.235 490.943 288.557 489.254 290.034 489.817C291.335 490.309 291.687 493.335 292.461 495.234Z" fill="black"/>
<path d="M316.977 493.264C316.168 495.199 315.394 497.169 314.585 499.103C312.721 498.224 309.767 497.731 309.274 496.359C308.782 494.917 310.611 492.631 311.455 490.731C313.284 491.576 315.148 492.42 316.977 493.264Z" fill="black"/>
<path d="M342.229 499.103C340.611 497.802 339.028 496.5 337.41 495.164C338.923 493.792 340.329 492.244 342.053 491.154C342.404 490.943 344.726 492.666 344.585 493.123C344.093 495.199 343.073 497.098 342.229 499.103Z" fill="black"/>
</svg>
