<svg width="400" height="551" viewBox="0 0 400 551" fill="none" xmlns="http://www.w3.org/2000/svg">
<path d="M195.857 315.792C196.386 303.328 196.914 290.899 197.443 278.434C197.725 272.132 197.231 265.689 198.394 259.562C199.627 252.978 204.031 247.274 211.288 248.823C215.305 249.668 220.272 254.21 221.506 258.118C224.077 266.463 223.584 275.794 226.156 284.138C227.354 288.011 232.427 292.272 236.514 293.328C243.631 295.124 249.374 290.371 249.902 283.434C252.051 255.689 253.918 227.873 254.799 200.058C256.103 158.264 258.181 116.329 256.666 74.6058C255.363 38.2342 307.188 1.79212 341.504 15.9816C359.331 23.3404 377.298 29.2912 388.467 46.227C397.063 59.2546 401.255 73.1976 399.67 89.3588C396.112 125.906 393.47 162.56 391.074 199.213C390.017 215.656 390.792 232.169 390.228 248.647C388.608 296.779 386.529 344.91 385.085 393.077C384.662 406.949 385.331 420.893 386.247 434.73C388.537 470.045 388.784 505.325 387.022 537.859C371.52 552.401 355.596 550.288 340.763 549.408C309.689 547.577 277.629 553.316 246.59 540.746C244.934 519.057 243.42 499.27 241.834 478.39C207.448 469.412 175.035 472.334 143.961 475.221C125.43 490.291 136.986 513.6 125.042 528.881C93.4045 537.965 36.9639 536.275 6.06607 525.289C-1.4382 514.163 0.0766279 501.135 0.217553 488.706C0.781254 439.237 1.69741 389.802 3.00096 340.333C4.48068 283.293 6.4536 226.289 8.25039 169.285C8.63794 156.609 8.46185 143.828 10.0825 131.293C12.1964 114.745 11.4213 98.8654 8.39146 82.3169C1.87366 46.4735 15.1911 23.7984 50.2463 6.08792C73.6046 -5.70731 112.465 0.45422 132.053 18.6928C144.384 30.2064 146.886 45.0649 146.287 60.5219C144.842 98.5131 143.151 136.54 140.544 174.496C138.043 211.149 136.704 247.661 140.685 283.188C148.647 288.504 154.813 287.202 157.631 280.371C161.436 271.111 162.987 260.971 166.615 251.64C167.602 249.105 172.569 246.675 175.599 246.781C178.664 246.922 183.139 249.668 184.231 252.379C186.979 259.28 189.339 266.745 189.797 274.104C190.643 287.906 190.044 301.778 190.044 315.616C191.982 315.686 193.919 315.721 195.857 315.792ZM28.0504 111.576C25.9365 116.224 23.1535 119.604 23.0831 123.019C20.335 245.971 17.8335 368.958 15.5082 491.911C15.4026 496.664 17.7983 501.452 19.4894 508.072C49.436 511.276 78.2549 519.797 109.893 513.987C116.164 481.066 120.885 450.046 119.863 418.111C119.441 404.732 115.459 390.19 126.769 375.789C169.469 372.515 213.191 370.402 258.956 379.662C270.688 425.857 254.94 471.7 262.127 517.402C288.48 526.592 315.01 526.557 341.504 525.641C348.585 525.395 355.56 522.191 363.558 520.114C364.509 507.262 365.848 495.96 366.06 484.657C366.623 453.039 367.857 421.491 367.892 389.838C367.892 337.904 373.775 285.969 376.7 234C378.426 203.614 379.412 173.157 380.258 142.736C380.399 136.962 378.285 131.117 377.017 124.427C359.013 129.075 343.23 136.399 327.481 136.328C310.641 136.258 293.8 129.251 274.74 124.744C272.978 131.645 270.23 137.49 270.23 143.335C270.301 173.756 271.041 204.212 271.675 234.633C271.922 246.006 273.789 257.52 272.591 268.681C268.539 305.546 262.092 310.722 224.077 310.405C221.787 310.405 219.533 308.539 217.102 307.447C214.424 301.708 211.676 295.863 207.061 286.005C205.334 305.933 204.418 321.073 202.586 336.108C201.635 343.96 193.779 349.1 185.852 348.255C178.206 347.41 174.965 341.988 174.754 335.228C174.331 320.369 174.612 305.44 174.612 285.723C161.436 308.891 146.04 307.166 128.248 301.884C126.381 294.279 123.175 287.096 123.104 279.878C122.963 257.062 123.386 234.211 124.725 211.43C126.346 183.58 129.446 155.799 131.102 127.913C131.489 121.083 128.671 114.041 126.839 104.745C93.2284 119.322 60.8155 120.202 28.0504 111.576ZM86.2525 94.6403C103.304 99.9921 113.275 94.112 120.462 85.2744C125.676 78.8662 129.27 70.1342 130.75 61.9304C132.546 51.79 128.918 41.9662 121.237 34.3609C113.205 26.4036 104.538 19.7491 89.5293 22.249C83.6104 46.3324 84.9138 69.7118 86.2525 94.6403ZM337.064 43.903C335.232 66.7189 328.433 88.4783 335.726 111.083C350.593 112.703 359.331 105.238 366.095 96.1893C370.393 90.4501 374.198 82.3519 373.81 75.5565C373.317 67.2822 369.442 58.4799 364.756 51.438C359.753 44.0087 351.58 39.6427 337.064 43.903ZM308.844 43.0228C292.391 43.1636 283.548 52.459 277.523 63.2684C273.507 70.4511 271.463 80.2395 272.415 88.4081C274.282 104.499 289.15 112.562 310.676 109.78C311.592 88.1614 316.243 66.226 308.844 43.0228ZM58.1028 94.2526C64.9024 72.0705 64.9728 51.332 58.8778 30.4175C34.8852 33.0934 24.1047 42.1425 23.8933 61.0501C23.7876 68.1977 25.69 76.4016 29.5302 82.2816C34.8854 90.5911 42.5658 97.844 58.138 94.2526H58.1028ZM139.91 408.041C173.485 411.844 203.291 412.654 233.167 409.52C234.612 409.379 235.739 406.034 237.043 404.168C235.81 402.302 234.612 398.816 233.308 398.781C204.559 398.077 175.775 397.689 147.027 397.619C145.793 397.619 144.56 401.105 139.91 408.041ZM236.655 447.828C236.867 445.293 237.078 442.758 237.289 440.258C233.061 438.638 228.834 435.61 224.571 435.61C199.38 435.54 174.225 435.962 149.07 436.843C147.062 436.913 145.23 441.631 141.495 446.596C175.106 451.032 205.863 451.631 236.655 447.828Z" fill="black"/>
</svg>
