<svg width="546" height="679" viewBox="0 0 546 679" fill="none" xmlns="http://www.w3.org/2000/svg">
<path d="M230.741 161.795C210.213 150.533 189.789 149.371 169.964 146.767C156.395 144.972 146.623 159.19 151.895 172.635C154.567 179.392 159.734 185.375 164.55 191.076C174.85 203.218 176.08 216.346 168.733 229.896C161.914 242.425 149.786 245.909 136.393 245.838C132.597 245.838 128.765 245.663 125.004 245.17C111.646 243.48 100.187 238.272 95.6172 224.616C91.2584 211.595 93.438 199.206 104.581 190.161C113.967 182.524 120.505 174.042 119.38 161.197C118.642 152.539 114.424 146.802 105.882 145.324C81.8027 141.171 46.721 157.255 37.7221 178.09C30.8675 193.927 33.2578 210.679 40.7451 226.059C45.0688 234.928 51.1854 242.917 57.1964 252.42C52.3103 257.769 48.5841 262.767 43.9441 266.638C38.5307 271.178 31.8868 271.249 26.614 266.497C-0.488164 242.178 -8.81931 180.694 10.6549 150.04C21.2004 133.463 35.2261 121.568 54.2433 115.163C82.5758 105.625 111.154 102.845 140.366 109.179C161.422 113.72 182.302 119.034 203.323 123.715C210.529 125.334 217.911 126.002 226.874 127.375C232.78 103.372 234.397 82.6783 220.618 61.245C208.771 42.7681 213.833 21.6868 228.492 9.79116C243.08 -2.06927 262.589 -3.19549 278.091 6.94043C292.749 16.5133 299.393 35.7293 292.538 54.1358C289.094 63.4271 282.766 71.7681 276.966 80.0387C269.022 91.3713 266.983 102.88 274.119 118.013C280.376 118.154 287.793 119.562 294.683 118.295C313.348 114.846 331.873 110.517 350.363 106.047C386.886 97.2487 423.515 98.0229 459.616 106.997C497.228 116.324 526.264 136.807 540.078 175.204C553.085 211.383 544.437 252.666 516.386 283.883C490.479 274.135 489.846 272.832 494.029 249.956C496.525 236.266 499.161 222.434 499.864 208.568C501.306 179.99 492.693 167.25 465.978 155.636C461.338 153.63 456.522 151.976 451.636 150.603C439.79 147.33 432.549 152.996 431.494 166.018C430.65 176.436 431.846 185.656 439.895 193.997C444.746 199.03 448.437 206.984 449.105 213.953C451.003 234.119 438.84 247.704 415.781 253.616C394.549 259.072 374.407 252.244 365.655 236.582C359.468 225.531 359.819 209.624 371.033 202.092C393.319 187.099 392.686 167.144 388.89 143.036C381.86 141.629 374.337 138.004 367.764 139.2C339.185 144.444 310.747 150.744 282.45 157.466C269.971 160.457 263.925 169.397 263.925 182.735C263.96 252.525 263.714 322.315 263.784 392.141C263.784 395.73 265.612 399.285 267.194 405.233C273.275 403.72 279.673 403.544 284.453 400.622C292.609 395.66 293.523 388.129 287.758 381.477C284.489 377.676 279.392 375.353 276.474 371.376C271.377 364.408 272.431 356.031 277.845 350.4C281.571 346.494 288.882 343.502 294.155 344.101C314.473 346.353 328.674 361.487 331.135 381.582C333.244 398.828 328.358 414.207 318.199 428.074C314.544 433.071 310.958 438.139 305.685 445.46C314.157 449.226 321.011 451.548 327.093 455.138C340.099 462.811 354.933 469.04 365.057 479.669C384.039 499.588 402.212 518.453 430.123 512.188C442.391 526.934 434.236 539.569 434.974 552.591C440.88 552.978 447.101 552.556 452.901 553.928C461.057 555.899 466.786 562.375 465.872 570.329C465.275 575.502 460.178 582.189 455.362 584.371C443.938 589.58 431.459 592.501 417.925 596.795C416.027 604.186 415.5 613.371 411.317 620.34C407.661 626.428 400.279 630.616 393.916 634.664C376.868 645.504 359.96 656.695 342.173 666.198C316.301 679.994 288.672 681.366 260.972 672.286C248.704 668.274 237.245 665.635 224.133 669.365C180.369 681.824 141.631 670.245 106.725 642.618C101.769 638.676 96.5314 635.121 91.4695 631.285C90.4853 630.546 89.8171 629.42 87.6729 626.921C86.9698 619.988 86.0911 611.4 85.1772 602.285C81.6269 600.701 78.3927 598.379 74.9127 597.815C61.2034 595.669 47.2481 594.789 33.6444 592.008C25.8758 590.425 20.3568 584.582 19.8998 575.819C19.5132 567.654 21.7984 559.806 30.3403 557.729C41.6592 554.984 48.0919 549.459 49.1113 537.457C49.8495 528.589 56.9851 525.069 64.2616 522.218C80.0448 515.989 92.2427 505.149 103.105 492.444C121.173 471.222 139.592 450.422 169.331 440.814C165.077 429.869 160.719 421 158.153 411.673C150.349 383.307 163.601 356.489 190.457 347.233C195.449 345.508 203.991 346.564 207.471 349.908C211.302 353.568 212.603 361.451 212.252 367.329C212.005 371.587 207.787 376.162 204.378 379.576C198.753 385.243 193.796 390.698 197.452 399.32C199.737 404.705 204.553 406.113 223.008 406.605C231.163 325.131 230.671 243.34 230.636 161.724L230.741 161.795ZM460.178 130.05C460.951 130.613 461.689 131.246 462.533 131.739C463.095 132.056 463.763 132.197 464.396 132.408C462.779 131.845 461.162 131.246 459.545 130.683C454.94 128.431 450.3 126.178 445.695 123.926C445.238 125.228 444.816 126.565 444.359 127.868C449.632 128.607 454.87 129.381 460.178 130.085V130.05ZM360.839 632.024C350.539 636.916 340.24 641.808 329.94 646.665C313.559 650.008 297.319 650.29 281.255 644.835C260.445 637.761 254.223 631.285 254.68 609.254C255.418 572.968 254.996 536.648 255.207 500.152C246.665 493.676 238.123 489.065 228.913 500.504C227.156 514.828 235.276 530.243 225.328 546.678C216.153 550.69 205.151 555.477 192.215 561.108C218.579 564.064 230.425 578.095 227.753 603.2C226.945 610.767 226.558 618.369 225.152 625.83C223.64 633.995 218.227 638.957 210.177 641.069C189.965 646.348 170.21 644.94 150.454 638.289C141.42 635.227 133.546 627.871 118.431 630.053C159.875 663.206 201.389 662.115 243.326 645.75C273.099 661.587 301.362 669.541 329.448 646.348C342.771 647.756 353.527 643.849 360.276 631.531C361.436 631.531 362.667 631.778 363.791 631.531C364.67 631.355 365.479 630.652 366.322 630.159C364.494 630.792 362.666 631.426 360.874 632.024H360.839ZM212.814 534.747C218.297 515.567 206.275 504.832 192.25 495.752C175.518 484.948 162.09 487.024 149.329 502.474C142.194 511.132 137.061 521.444 129.785 529.961C122.79 538.126 114.178 544.919 105.108 553.436C142.053 557.764 167.327 553.224 212.849 534.747H212.814ZM268.073 535.979C291.168 540.942 310.817 545.306 330.537 549.353C349.309 553.189 367.904 561.249 388.257 555.23C371.806 538.337 357.007 523.169 342.243 508C330.046 495.471 316.301 487.059 298.198 493.852C280.376 500.539 268.706 512.329 268.073 535.979ZM371.911 598.625C336.97 589.052 306.845 578.881 275.595 581.556C272.818 586.096 271.201 588.067 270.323 590.354C269.409 592.677 268.846 595.246 268.776 597.71C268.143 622.592 277.634 632.2 302.557 632.306C329.413 632.411 350.258 620.48 371.946 598.625H371.911ZM106.69 599.434C130.699 616.574 150.806 623.859 171.686 628.505C205.713 636.072 217.348 624.704 213.763 588.595C213.552 586.553 210.81 584.758 207.365 580.535C176.994 585.673 144.619 588.067 106.69 599.434ZM241.779 452.182C245.083 448.698 247.192 444.826 250.391 443.454C258.406 440.005 266.877 437.506 275.243 434.902C297.495 427.898 298.655 426.877 309.024 404.494C302.346 409.21 294.753 416.249 285.824 420.542C260.023 432.966 245.153 424.203 246.208 397.244C246.454 390.909 246.103 384.574 246.454 378.239C248.071 349.169 250.004 320.133 251.446 291.063C251.903 281.948 254.891 272.164 245.224 257.453C244.169 269.946 243.29 275.754 243.22 281.561C242.763 319.57 242.517 357.58 242.025 395.59C241.884 405.55 243.502 416.037 233.729 425.716C224.941 426.983 214.431 428.496 196.82 431.065C215.31 439.794 227.121 445.319 241.709 452.217L241.779 452.182ZM430.896 212.65C415.324 199.417 399.752 201.107 384.144 213.636C376.903 219.478 378.415 231.163 386.605 235.879C396.272 241.439 406.009 240.524 415.605 236.547C425.518 232.465 432.759 226.059 430.896 212.65ZM134.882 228.804C138.538 228.03 143.037 228.347 145.533 226.235C149.892 222.61 155.833 217.542 155.833 213.038C155.833 208.462 150.384 202.69 145.849 199.488C137.975 193.892 128.765 195.863 121.524 200.931C117.13 204.028 112.139 210.468 112.561 214.903C112.947 219.267 119.415 223.701 124.09 226.834C126.832 228.699 131.191 228.171 134.882 228.734V228.804ZM94.4222 525.667C123.915 516.271 124.055 516.095 125.848 491.951C114.072 504.586 104.23 515.109 94.4222 525.667ZM252.747 84.7196C250.602 85.1771 248.423 85.5994 246.278 86.0569C247.368 103.021 248.458 119.949 249.548 136.913C250.602 136.842 251.692 136.807 252.747 136.737V84.7547V84.7196ZM98.4999 125.615C99.4842 124.947 98.7812 125.439 98.0781 125.897C99.0975 126.425 100.117 127.41 101.136 127.445C110.557 127.551 119.977 127.516 129.398 127.516C129.398 126.882 129.398 126.249 129.398 125.615H98.4999ZM51.1851 574.587C51.1851 575.467 51.1851 576.312 51.1851 577.192H80.01C80.01 576.312 80.01 575.467 80.0452 574.587H51.1851ZM408.856 170.769C410.438 170.875 412.02 170.98 413.601 171.086C414.058 164.434 414.48 157.783 414.937 151.166C413.285 151.061 411.668 150.955 410.016 150.849L408.821 170.805L408.856 170.769ZM415.184 126.002C415.816 124.207 417.433 121.603 416.8 120.794C415.711 119.386 413.18 119.104 411.247 118.33C410.684 120.09 409.137 122.553 409.77 123.468C410.789 124.876 413.285 125.228 415.148 126.038L415.184 126.002ZM161.105 467.421C161.105 467.984 161.105 468.547 161.105 469.11H173.549C173.549 468.547 173.549 467.984 173.549 467.421H161.105ZM15.9276 194.455C16.4549 193.399 17.615 192.167 17.3338 191.358C16.8768 189.985 15.5414 188.93 14.5923 187.768C14.4868 188.965 14.0999 190.232 14.3108 191.393C14.5217 192.484 15.3652 193.434 15.9276 194.455ZM159.875 567.056L160.402 569.097L162.687 567.865L159.875 567.056ZM262.905 462.001C263.854 462.283 264.839 462.846 265.753 462.74C266.104 462.705 266.28 461.192 266.561 460.347C265.612 460.065 264.628 459.502 263.749 459.608C263.362 459.643 263.186 461.156 262.905 462.001ZM258.652 41.6067C257.632 41.2548 256.613 40.5509 255.664 40.6565C255.242 40.6917 254.961 42.3106 254.645 43.2256C255.664 43.5776 256.683 44.2815 257.632 44.1759C258.054 44.1407 258.336 42.5217 258.652 41.6067Z" fill="black"/>
</svg>
