<svg width="424" height="622" viewBox="0 0 424 622" fill="none" xmlns="http://www.w3.org/2000/svg">
<path d="M176.459 107.739C173.279 126.149 172.195 142.762 167.444 158.253C145.412 230.281 67.4963 240.234 17.7093 208.878C10.9763 204.613 5.88918 197.204 1.25088 190.394C-0.544591 187.738 0.951685 182.836 0.951685 173.931C26.8364 200.497 54.0302 213.78 86.9098 209.851C97.1964 208.617 106.323 202.779 113.73 188.935C101.722 191.143 93.194 192.714 84.6656 194.286C55.4517 199.636 25.9013 186.391 13.2207 161.845C10.8642 157.243 8.80686 151.929 8.65724 146.915C8.43281 139.357 13.1459 135.69 20.7019 138.497C27.4723 141.004 33.9434 144.371 41.3123 147.701C46.8483 134.381 33.0457 119.563 49.6538 109.91C53.2073 114.811 56.5364 119.339 57.9579 121.322C68.6185 113.539 78.2317 106.542 88.4809 99.0589C77.7829 85.1022 62.8954 85.7756 48.569 91.912C35.8511 97.3375 24.4424 105.756 8.99388 114.886C15.6147 88.9935 33.2701 82.5203 51.6363 79.003C69.1047 75.6355 87.0969 75.224 107.633 73.2409C89.5282 41.3988 61.8855 38.817 30.6143 44.2799C40.7139 26.1325 65.3642 19.5845 97.3835 24.1869C123.605 27.966 139.166 47.0114 156.148 64.4479C161.31 62.128 165.911 60.0701 170.736 57.8999C172.644 60.1823 174.476 61.6414 175.299 63.5497C182.968 81.2855 193.965 86.0376 210.685 78.6664C230.735 69.8359 237.729 58.3113 236.757 35.7112C236.458 29.1632 236.009 22.6152 235.522 14.4582C253.851 18.0503 253.066 37.9563 266.345 45.0655C270.048 41.6606 274.35 38.5177 277.604 34.5141C296.868 10.9786 323.688 3.08354 352.004 0.352075C379.198 -2.26713 415.78 27.1428 420.867 53.6717C421.167 55.2432 418.922 57.301 416.267 61.9408C400.294 40.9497 379.871 30.3607 354.959 36.3475C337.004 40.6505 318.563 46.3752 306.107 67.1418C322.416 64.7471 335.919 63.1381 349.236 60.7434C378.188 55.5424 399.097 68.3017 415.668 90.2657C426.104 104.073 425.917 114.138 415.182 127.159C388.362 159.824 356.118 178.945 311.98 167.383C310.745 167.046 309.174 168.094 305.845 169.029C307.902 172.771 308.912 177.635 311.755 179.282C326.568 187.887 342.203 192.976 359.335 185.605C366.966 182.312 374.672 179.244 382.452 176.325C389.185 173.781 396.068 171.611 402.913 169.253C403.998 170.488 405.045 171.723 406.13 172.995C403.624 177.747 402.239 183.846 398.424 187.102C372.427 209.103 343.924 225.005 308.052 220.777C304.312 220.328 300.496 219.542 296.756 219.73C284.374 220.366 275.21 226.09 269.973 237.615C264.437 249.738 268.215 259.729 277.267 268.372C279.998 270.991 283.102 273.236 285.87 275.818C306.892 295.5 308.875 315.443 289.461 337.108C280.634 346.948 268.627 354.319 257.18 361.316C243.49 369.66 232.567 378.641 233.428 396.713C234.513 419.463 253.178 434.205 275.322 428.817C303.414 421.97 326.643 409.772 330.869 377.144C331.019 376.096 333.077 375.31 335.171 373.702C342.016 391.512 348.749 409.061 356.044 428.031C352.677 427.844 349.236 428.705 347.291 427.358C338.238 421.259 330.533 423.729 322.191 429.191C297.279 445.468 270.497 457.105 241.732 465.524C227.48 469.677 215.323 481.052 200.848 489.995C191.758 475.963 175 472.296 158.242 467.282C131.497 459.237 103.855 451.866 82.5334 432.297C72.2094 422.831 64.3168 436.712 52.8333 432.409C61.661 418.715 70.0773 405.656 78.531 392.485C80.1394 393.421 82.2715 393.944 82.4585 394.842C87.8449 420.885 97.7948 430.276 126.298 434.729C152.893 438.845 169.876 427.62 182.594 408.836C190.187 397.649 187.344 381.933 178.142 373.178C170.1 365.507 162.17 365.47 147.17 372.916C145.188 373.889 143.056 374.487 138.792 376.059C139.353 363.936 138.642 353.833 130.375 343.88C119.49 330.784 125.886 312.711 144.178 300.438C143.392 310.354 142.794 318.025 142.121 326.668C150.462 335.798 161.085 339.091 172.083 332.355C185.399 324.199 196.995 334.114 209.301 333.441C221.383 332.804 229.538 317.763 244.986 325.321C253.664 329.549 269.823 314.133 271.544 302.759C273.078 292.768 265.297 282.815 253.103 280.533C247.418 279.485 241.395 280.345 232.455 280.345C230.922 267.661 228.827 255.201 228.079 242.704C226.433 216.25 225.834 189.758 224.076 163.304C223.59 155.933 220.822 148.711 218.84 141.49C215.174 128.207 208.104 118.478 193.479 115.335C187.793 114.138 182.631 110.583 176.384 107.702L176.459 107.739ZM345.944 87.4594C342.39 74.8123 336.032 70.9958 326.381 73.6898C305.06 79.6766 293.651 96.6642 283.738 114.512C282.317 117.057 286.17 123.754 289.162 127.122C291.032 129.217 295.858 128.693 299.898 129.442C302.329 122.258 304.424 116.158 306.631 109.61C313.326 110.695 318.975 111.594 325.408 112.641C326.493 104.372 327.428 97.3376 328.326 90.6025C334.573 89.48 339.51 88.6193 345.944 87.4594ZM387.838 86.3369V120.199C395.993 113.015 403.736 109.461 404.596 104.709C406.167 96.1027 400.519 89.2554 387.838 86.3369ZM121.734 106.393C121.398 117.992 118.031 126.448 124.353 134.68C134.552 125.575 133.679 116.146 121.734 106.393Z" fill="black"/>
<path d="M101.31 473.605C121.06 485.729 138.715 497.29 157.044 507.655C192.879 527.898 227.03 521.574 259.274 498.937C274.722 488.086 289.46 476.262 304.722 465.112C308.126 462.642 312.315 461.258 320.656 457.179C318.562 465.86 318.861 471.51 316.205 474.316C302.739 488.61 288.375 502.043 274.535 515.962C267.129 523.408 258.563 530.33 253.139 539.086C237.242 564.642 247.603 588.701 276.929 596.11C285.533 598.28 294.435 599.178 305.32 600.974C303.3 604.977 302.066 610.852 299.784 611.338C288.899 613.471 277.677 615.305 266.68 614.931C258.6 614.669 250.596 610.927 242.628 608.532C219.848 601.722 198.153 604.379 176.121 613.247C163.852 618.186 149.9 619.234 136.583 620.992C133.366 621.404 129.626 617.587 122.706 613.883C131.982 610.702 137.406 608.719 142.83 606.961C160.71 601.161 174.887 590.31 176.345 571.003C177.842 551.621 168.116 537.028 150.311 526.775C134.75 517.795 120.723 505.971 106.659 494.634C99.9257 489.208 100.599 488.348 101.31 473.643V473.605Z" fill="black"/>
</svg>
