<svg width="608" height="581" viewBox="0 0 608 581" fill="none" xmlns="http://www.w3.org/2000/svg">
<path d="M323.342 564.377C322.743 523.293 315.823 482.284 322.594 440.451C353.865 440.451 383.228 440.901 412.592 440.302C436.083 439.815 459.536 438.244 482.989 436.822C500.944 435.737 502.964 433.267 503.039 414.821C503.039 411.041 503.637 407.187 503.151 403.446C501.318 389.152 500.42 381.369 478.762 383.427C451.905 386.009 424.487 382.866 397.33 382.267C380.722 381.893 364.077 381.07 347.469 381.444C333.516 381.744 329.738 386.196 329.663 399.18C329.589 412.164 333.591 417.702 346.833 417.29C380.759 416.242 414.649 414.11 448.539 412.014C458.002 411.416 467.354 409.395 480.333 407.487C464.473 394.017 450.783 405.129 437.878 404.119C424.375 403.072 410.684 404.231 397.068 404.344C382.854 404.419 368.678 404.344 351.583 404.344C356.483 393.979 362.767 396.037 368.116 395.887C401.37 394.915 434.699 394.728 467.877 392.67C488.937 391.36 492.228 394.204 487.441 417.702C472.142 418.974 456.506 420.77 440.833 421.443C407.654 422.903 374.475 423.876 341.297 424.811C323.043 425.335 320.798 423.015 319.414 404.381C319.115 400.602 318.629 396.786 318.741 393.006C319.115 378.9 323.566 374.41 338.192 374.111C355.623 373.774 373.017 373.774 390.448 373.849C427.517 374.036 464.586 374.372 501.617 374.784C503.749 374.784 505.881 375.832 511.268 377.216C511.567 395.251 512.39 413.885 511.941 432.482C511.679 442.36 505.245 446.363 495.034 446.513C451.905 447.074 408.776 448.234 365.61 449.245C358.802 449.394 351.995 450.442 345.187 450.255C333.03 449.918 329.028 456.953 329.215 467.429C329.664 496.914 330.412 526.361 331.047 556.856C350.386 564.377 369.613 562.17 387.867 561.497C440.833 559.626 493.725 555.435 546.654 552.666C557.165 552.104 567.788 554.2 578.374 554.536C593.261 555.023 597.525 551.244 597.525 536.202C597.525 521.048 595.954 505.932 595.805 490.778C595.356 438.506 594.87 386.234 595.019 333.962C595.318 233.871 596.066 133.817 596.515 33.7256C596.515 27.8137 595.543 21.9018 594.944 14.8299C589.745 14.0442 585.256 12.1732 581.217 12.8842C541.791 19.9186 502.702 11.4622 463.463 10.9384C437.803 10.6016 412.143 12.1358 386.483 12.8093C376.121 13.0712 371.595 18.7961 371.483 28.7491C371.333 40.8723 370.922 53.0328 370.884 65.156C370.81 95.3892 370.884 125.622 370.884 155.332C388.315 165.434 403.801 157.876 419.175 157.876C419.026 155.743 419.288 153.611 418.801 153.423C395.123 143.957 395.31 143.994 394.675 115.146C394.338 100.852 392.468 86.5588 392.58 72.2654C392.617 64.1832 395.273 56.101 397.33 44.8384C423.664 46.0358 448.913 47.1958 475.171 48.4306C476.967 63.2852 478.65 74.9969 479.698 86.7833C481.231 104.145 482.615 121.544 483.438 138.943C484.261 156.641 478.912 162.216 461.855 163.676C436.98 165.771 412.143 168.054 387.268 170.261C366.882 172.057 363.328 169.363 362.954 148.484C362.244 110.693 362.132 72.864 361.982 35.0351C361.982 29.7593 362.917 24.4461 363.74 19.2077C365.348 8.76828 370.959 3.94145 382.144 3.30536C419.886 1.20999 457.404 -1.33439 495.296 3.52985C517.627 6.37357 540.594 4.05369 563.299 4.46528C577.364 4.72721 591.391 5.8123 606.39 6.56064C606.39 27.3272 606.503 45.3624 606.39 63.3975C606.016 114.884 605.418 166.333 605.119 217.819C604.707 285.993 604.034 354.167 604.371 422.304C604.558 459.422 606.765 496.502 607.662 533.583C608.261 559.363 604.932 561.683 579.271 562.245C543.063 563.03 506.892 565.5 470.683 566.286C425.235 567.258 379.75 567.259 334.302 567.521C331.496 567.521 328.691 565.912 323.417 564.303L323.342 564.377ZM403.652 62.4621C416.108 63.9213 425.422 65.6799 434.773 65.9044C451.905 66.3534 452.242 65.9045 453.588 83.0416C454.711 97.335 454.374 111.741 455.833 125.959C456.768 135.089 459.798 143.994 463.015 157.727C467.915 149.906 471.393 146.913 471.281 144.069C470.346 118.513 468.925 92.9947 467.167 67.4761C466.942 64.2208 464.586 60.2918 462.005 58.2339C452.167 50.4885 419.175 51.8355 403.652 62.4246V62.4621ZM441.057 94.6408C443.825 80.759 438.364 75.7826 427.404 75.5207C420.073 75.3336 415.285 79.5618 417.155 86.5963C420.447 99.0562 430.733 94.6408 441.057 94.6408Z" fill="black"/>
<path d="M12.7253 409.283C10.7802 341.183 9.05948 273.047 6.85255 204.947C5.13189 151.964 2.62576 99.0186 0.942507 46.0358C0.718073 38.6271 3.11203 31.1437 3.97236 23.6603C5.13193 13.7073 10.3313 9.36692 20.5056 8.95533C56.0784 7.57089 91.6138 4.6898 127.187 4.09113C159.729 3.52987 192.347 5.51285 224.928 5.58768C236.449 5.58768 241.985 9.74101 242.097 21.2655C242.246 35.6338 242.059 50.0769 242.882 64.4078C244.341 89.3651 246.623 114.285 248.269 139.242C248.755 146.464 248.343 153.723 248.343 163.04C216.773 164.162 188.195 165.322 159.617 166.108C150.49 166.332 142.934 163.564 142.672 152.338C141.924 122.068 141.139 91.7597 140.466 61.4891C140.428 59.3189 141.401 57.0739 142.448 52.4342C165.378 50.4137 188.868 48.3184 215.539 45.9611C217.671 79.7489 219.616 110.319 221.598 141.188C201.811 152.712 181.799 143.171 160.739 148.26C159.243 138.756 157.971 130.898 156.7 123.003C156.064 123.003 155.465 122.928 154.829 122.891V157.614C162.61 158.288 169.904 159.373 177.198 159.485C191.599 159.747 205.963 159.522 220.364 159.485C236.823 159.485 241.199 155.93 240.339 139.504C238.992 114.547 236.224 89.6643 234.242 64.7444C233.344 53.407 233.194 41.9948 232.109 30.6948C230.838 17.4116 226.835 12.9962 213.668 12.7717C154.68 11.7241 95.6536 9.06746 36.7771 15.6155C20.0942 17.4489 17.5131 19.5069 14.8947 35.7835C13.4733 44.6514 12.5756 53.9308 13.3985 62.8361C16.3536 94.6408 21.2537 125.959 16.578 158.4C13.2863 181.374 17.1017 205.321 17.2888 228.819C17.7002 280.193 17.775 331.604 17.9995 382.978C17.9995 391.771 17.9995 400.602 17.9995 409.395C16.2414 409.32 14.4833 409.283 12.6878 409.208L12.7253 409.283ZM209.18 139.242C200.651 120.384 187.11 131.983 174.954 126.82C173.644 119.86 172.111 111.553 170.465 102.686C178.208 99.9915 184.23 98.7941 189.168 95.8007C191.562 94.3414 193.207 89.3276 192.796 86.2968C192.347 83.1911 189.579 79.2249 186.736 77.8779C177.235 73.3878 164.854 80.3848 165.378 90.6371C166.201 106.914 168.819 123.078 170.689 139.242H209.18ZM202.484 61.7136C202.148 59.955 201.811 58.159 201.512 56.4004C184.679 57.1488 167.846 57.8596 150.154 58.6454V78.1024C159.655 74.5852 167.697 71.0305 176.076 68.7481C184.904 66.3159 195.265 69.1222 202.522 61.7136H202.484Z" fill="black"/>
<path d="M278.979 5.36328C294.839 5.36328 309.09 4.65231 323.267 5.55032C338.715 6.52317 340.174 8.46887 340.249 23.3235C340.586 83.8647 340.623 144.443 341.035 204.985C341.259 238.847 342.007 272.672 342.493 306.011C362.767 309.154 364.563 307.919 365.236 293.364C365.797 281.465 366.471 269.567 367.106 256.882C375.036 255.348 380.759 253.402 386.557 253.253C401.295 252.879 405.447 257.219 405.26 272.074C405.073 286.292 404.437 300.473 403.951 316.114C380.385 318.359 358.802 320.417 334.788 322.737C333.441 317.685 330.935 312.26 330.748 306.722C329.514 269.679 328.466 232.636 328.017 195.593C327.456 148.634 327.456 101.675 327.269 54.7541C327.232 44.165 327.269 33.5759 327.269 22.3881C315.748 12.8467 304.153 14.3808 290.013 22.1262C290.013 54.9411 288.405 88.2051 290.35 121.282C294.016 183.32 293.529 245.208 289.527 307.171C288.779 318.471 284.103 323.859 273.405 324.869C271.909 325.019 270.375 324.795 268.842 324.869C214.08 327.002 222.571 323.448 223.394 273.832C223.581 261.185 229.416 258.94 246.698 260.025C260.051 260.886 261.585 262.607 262.071 276.639C262.445 287.228 262.857 297.779 263.455 308.368C263.53 309.715 264.727 311.025 265.737 313.008C276.024 312.971 277.333 305.674 277.445 297.817C278.043 250.896 278.717 203.974 278.941 157.053C279.203 107.924 279.016 58.7951 279.016 5.32583L278.979 5.36328ZM241.236 271.625C229.341 301.746 232.259 313.083 251.336 312.409C248.119 299.388 254.628 284.646 241.236 271.625ZM378.104 309.603C391.645 297.068 395.834 277.05 389.886 270.091C388.727 268.706 385.435 267.584 384.089 268.257C381.732 269.417 378.515 271.999 378.403 274.132C377.804 284.234 378.141 294.412 378.141 309.641L378.104 309.603Z" fill="black"/>
<path d="M276.698 458.861C250.253 458.861 225.453 458.636 200.653 458.936C178.022 459.235 155.429 460.133 132.836 460.694C124.981 460.881 118.734 457.326 118.435 449.357C117.425 424.736 112.899 399.929 119.37 374.672C175.554 375.907 230.353 377.067 288.144 378.339C288.144 391.472 288.855 403.371 287.92 415.12C287.097 425.148 281.935 431.209 270.19 431.396C230.802 431.958 191.413 433.267 152.025 434.577C141.664 434.914 136.016 431.097 136.203 420.396C136.278 415.157 136.801 409.919 137.287 402.173C157.711 402.173 177.723 402.173 197.698 402.173C217.672 402.173 236.712 402.173 256.2 402.173C256.462 403.221 256.761 404.269 257.023 405.279C252.721 406.402 248.457 408.46 244.155 408.534C219.243 408.946 194.331 408.572 169.456 409.17C162.013 409.358 149.931 404.83 149.145 416.804C148.322 428.89 160.479 426.906 168.147 426.794C201.401 426.42 234.654 425.372 267.871 424.399C269.928 424.325 271.948 422.641 273.743 421.818C274.604 420.171 275.838 418.899 275.913 417.552C278.419 383.914 278.419 383.764 243.707 382.941C209.705 382.155 175.703 381.594 141.701 381.22C129.582 381.07 125.729 385.036 125.056 397.571C124.495 408.16 124.046 418.787 124.158 429.376C124.345 445.129 126.552 448.721 142.188 449.245C173.945 450.33 205.74 449.881 237.535 449.993C253.993 450.068 270.489 449.993 288.369 449.993C288.369 464.66 288.519 478.879 288.332 493.06C288.032 514.238 287.134 535.379 287.209 556.557C287.247 567.221 282.945 571.038 272.434 571.786C197.024 577.174 121.689 585.518 45.9429 576.613C24.5843 574.106 16.9909 569.279 15.9062 547.764C14.2977 516.147 15.4947 484.417 18.375 452.275C18.9735 463.987 19.2727 475.736 20.2453 487.41C21.2178 499.421 23.3873 511.357 24.0231 523.368C24.6964 536.09 24.1728 548.887 24.1728 563.891C31.9906 565.762 38.948 568.418 46.1299 569.017C118.772 575.303 191.264 572.834 263.719 565.687C272.359 564.827 277.97 561.609 278.27 551.917C279.055 527.709 280.402 503.537 280.776 479.328C280.888 472.892 278.269 466.419 276.698 458.861Z" fill="black"/>
</svg>
