<svg width="638" height="667" viewBox="0 0 638 667" fill="none" xmlns="http://www.w3.org/2000/svg">
<path d="M490.856 220.147C664.428 193.625 647.792 485.508 489.062 473.76C331.493 462.117 350.204 248.745 490.856 220.147Z" fill="black"/>
<path d="M256.472 342.662C284.75 515.126 18.4301 532.643 14.9481 366.687C11.7827 217.052 230.094 188.877 256.472 342.662Z" fill="black"/>
<path d="M342.608 661.244C278.138 676.932 186.199 652.837 132.879 617.697C125.352 612.738 25.3235 525.855 45.9342 511.645C48.7127 509.71 112.971 585.934 123.523 594.306C169.246 630.677 222.039 646.646 279.51 650.058C329.172 653.013 386.15 647.491 432.436 627.863C454.348 618.577 508.865 564.407 530.284 568.312C509.251 621.567 393.431 660.611 342.678 661.209L342.608 661.244Z" fill="black"/>
<path d="M364.873 476.716C373.631 540.558 260.273 546.995 266.92 479.53C272.02 427.682 357.839 425.536 364.873 476.716Z" fill="black"/>
<path d="M614.418 253.248C601.158 177.903 585.155 89.8948 516.324 43.0416C454.668 1.04254 409.155 48.2474 348.941 35.7251C387.912 -47.8861 535.598 35.7252 566.443 78.9905C580.09 98.1258 671.677 301.684 624.371 310.654C615.93 312.236 613.925 258.278 613.327 253.424C613.679 253.353 614.031 253.318 614.382 253.248H614.418Z" fill="black"/>
<path d="M7.66836 195.948C6.75389 132.597 55.4315 69.5986 110.721 42.5138C133.864 31.1874 276.556 3.89153 272.23 45.1519C275.431 14.7255 119.409 52.2221 103.406 61.5435C81.2828 74.4879 61.868 92.0755 46.8145 112.829C30.2838 135.622 27.3645 177.692 6.78906 195.35L7.66836 195.948Z" fill="black"/>
<path d="M399.622 148.671C449.143 141.355 459.695 210.298 408.766 211.916C370.218 213.147 355.973 154.053 399.622 148.671Z" fill="black"/>
<path d="M218.767 182.194C218.169 222.504 158.588 233.936 152.328 190.425C147.087 154.159 217.396 145.964 218.767 182.194Z" fill="black"/>
<path d="M6.7887 195.313C9.00452 209.102 13.9637 327.255 0.141193 335.31C3.8694 333.13 -6.33032 212.796 7.7032 195.912L6.82391 195.313H6.7887Z" fill="black"/>
<path d="M611.426 430.53C609.702 476.961 585.188 520.86 549.453 549.598C572.877 530.814 582.691 445.058 612.27 431.058L611.426 430.53Z" fill="black"/>
<path d="M338.599 357.929C350.241 357.436 355.728 361.728 355.095 370.873C346.619 395.038 316.406 361.341 338.599 357.929Z" fill="black"/>
<path d="M299.84 373.441C292.383 386.21 285.068 385.331 277.822 370.874C285.49 358.562 292.841 359.407 299.84 373.441Z" fill="black"/>
<path d="M612.305 431.058C608.858 425.219 609.385 420.435 613.958 416.601C618.003 421.525 617.193 426.168 611.46 430.53L612.305 431.058Z" fill="black"/>
</svg>
