<svg width="558" height="612" viewBox="0 0 558 612" fill="none" xmlns="http://www.w3.org/2000/svg">
<path d="M286.018 151.588C283.474 150.054 280.893 148.52 275.245 145.152C277.864 155.966 279.584 164.198 281.866 172.242C286.093 187.097 287.664 201.503 281.567 216.582C276.068 230.127 277.041 244.271 279.36 259.013C285.906 300.808 289.459 342.791 285.607 385.297C284.335 399.141 289.272 413.547 291.33 427.69C291.741 430.571 291.816 433.49 289.422 437.007C288.636 432.629 287.552 428.251 287.178 423.836C285.158 399.178 271.243 384.025 249.024 375.082C244.273 373.173 237.765 370.666 236.269 366.775C233.463 359.628 231.481 350.686 233.239 343.539C235.333 335.008 244.423 329.395 252.951 332.389C260.769 335.12 268.325 341.331 273.487 347.954C276.854 352.257 275.694 360.077 277.153 370.367C285.494 357.121 283.512 346.532 282.726 336.654C280.893 312.52 277.078 288.498 275.956 264.326C275.133 246.366 275.919 228.032 278.425 210.221C283.699 172.766 273.973 146.911 244.947 130.448C239.037 127.117 230.733 125.433 224.037 126.444C151.283 137.295 84.0649 122.59 21.7097 84.1624C16.5477 80.982 11.5728 77.5019 6.89708 73.648C4.72755 71.8894 3.49317 68.9707 0.164062 64.1438C27.6572 51.2349 53.0182 36.7174 83.0924 35.1084C128.278 32.6389 168.115 46.6325 202.641 75.818C220.97 91.3462 236.68 109.569 259.273 120.569C270.981 126.257 284.335 135.574 285.457 152.337L286.055 151.663L286.018 151.588Z" fill="black"/>
<path d="M309.657 128.314C338.385 76.1544 368.945 25.5665 431.899 8.87838C468.07 -0.700442 504.728 -4.44244 541.049 9.06519C545.65 10.7864 549.727 13.7797 557.021 17.8582C517.034 47.7172 486.399 85.3216 439.941 101.635C416.076 110.017 391.277 114.395 366.439 110.616C348.821 107.959 337.263 111.215 329.445 127.566C326.939 132.767 322.001 136.808 318.186 141.41L318.71 142.084C321.59 133.029 324.47 123.974 328.136 112.487C320.131 118.997 314.558 123.525 309.021 128.015L309.62 128.314H309.657Z" fill="black"/>
<path d="M301.092 409.468C303.523 412.761 307.526 415.829 308.124 419.458C310.817 435.735 312.538 452.198 315.081 472.142C321.59 469.036 326.902 467.465 331.054 464.397C358.135 444.416 388.135 437.568 420.902 444.304C429.094 445.987 436.612 450.702 448.47 455.753C438.146 465.369 432.049 473.04 424.231 478.017C399.319 493.807 373.21 507.202 344.557 515.172C317.326 522.73 317.401 523.03 321.141 553.3V553.188C319.046 548.885 316.503 544.769 315.007 540.278C313.66 536.237 313.436 531.822 312.239 524.975C298.399 538.146 306.89 552.215 305.356 564.413C303.673 577.771 304.982 591.541 301.054 605.198C301.054 585.853 301.054 566.546 301.054 547.201C301.054 527.033 299.633 526.734 279.209 524.638C255.943 522.244 232.677 518.951 209.859 513.937C194.598 510.569 179.673 504.134 169.91 488.531C188.426 467.278 213.001 463.236 238.026 466.379C261.143 469.298 283.661 476.781 308.984 482.881C312.987 458.335 306.216 433.901 301.391 409.355L301.054 409.543L301.092 409.468Z" fill="black"/>
<path d="M301.428 409.281C303.223 399.328 305.056 389.375 307.001 378.636H296.565C293.61 330.517 290.019 282.586 287.962 234.617C287.101 214.337 288.411 193.832 299.932 175.572C301.652 172.841 300.455 168.239 300.605 164.497L300.006 165.208C306.253 157.5 312.5 149.829 318.747 142.121L318.223 141.448C315.231 149.979 313.061 158.959 309.059 167.004C295.443 194.356 292.189 223.616 293.348 253.363C294.657 286.552 297.575 319.704 300.044 352.855C300.306 356.335 302.251 359.665 303.822 364.23C315.979 360.264 322.973 355.138 322.038 341.743C321.29 330.966 328.771 325.092 338.983 324.082C349.344 323.071 358.696 326.14 364.269 335.756C368.347 342.828 363.933 355.624 353.983 357.607C324.47 363.445 313.734 386.905 301.203 409.393C301.091 409.468 301.428 409.281 301.428 409.281Z" fill="black"/>
<path d="M300.57 164.46C289.198 167.49 289.909 156.939 286.019 151.551C286.019 151.551 285.42 152.224 285.383 152.262C300.457 151.401 299.672 134.414 309.622 128.352L309.023 128.053C305.993 140.438 303.001 152.823 299.971 165.208L300.57 164.497V164.46Z" fill="black"/>
<path d="M321.141 553.263C320.655 561.794 320.168 570.287 319.682 578.819C318.036 578.557 316.353 578.295 314.707 578.033C316.839 569.764 319.009 561.494 321.141 553.188C321.141 553.15 321.141 553.263 321.141 553.263Z" fill="black"/>
<path d="M318.859 611.521V601.269C319.607 601.231 320.356 601.194 321.104 601.156C321.291 604.711 321.515 608.265 321.702 611.82L318.859 611.521Z" fill="black"/>
</svg>
