<svg width="538" height="637" viewBox="0 0 538 637" fill="none" xmlns="http://www.w3.org/2000/svg">
<path d="M218.644 454.31C230.838 462.754 243.031 471.199 254.206 478.94C271.073 472.642 285.024 466.625 299.467 462.262C312.574 458.321 326.279 456.175 341.635 452.832C323.643 439.531 306.284 456.738 288.222 448.891C280.21 422.677 279.366 395.055 291.455 369.158C298.799 353.429 300.591 338.158 300.872 321.515C301.505 282.211 302.77 242.908 304.738 203.64C306.249 173.696 316.58 146.989 336.435 123.942C342.022 117.467 347.047 109.234 348.909 101.035C358.643 58.2832 390.34 38.9657 427.659 26.3337C454.647 17.1852 482.583 17.6074 510.204 24.3633C523.698 27.6708 525.349 29.571 538 46.8476C532.94 53.6035 527.282 50.683 521.554 47.9736C471.233 24.0819 428.081 42.0271 387.493 71.9358C382.222 75.8063 380.114 84.0047 374.456 93.857C385.28 94.7719 392.202 95.8627 399.16 95.8979C415.957 95.8979 431.876 99.1349 446.705 107.193C459.461 114.124 468.773 124.188 473.763 137.84C481.354 158.565 472.99 178.903 453.065 188.932C416.625 207.264 381.414 199.03 355.445 166.095C352.529 162.366 349.577 158.706 345.149 153.147C340.441 158.354 335.872 161.31 334.431 165.356C330.636 176.018 326.56 187.031 325.506 198.15C322.308 232.176 320.2 266.307 318.267 300.438C317.564 313.035 318.056 325.878 327.017 336.293C339.07 340.234 351.299 343.366 362.755 348.257C372.278 352.303 376.951 361.944 375.159 369.58C372.84 379.538 365.285 384.605 356.359 386.153C349.155 387.385 341.249 386.54 333.975 385.027C326.911 383.549 320.27 379.995 314.402 377.708C303.508 386.012 303.156 396.392 302.629 406.456C301.962 418.736 307.163 424.647 320.165 426.582C327.65 427.708 335.345 427.603 342.83 428.764C381.555 434.781 409.913 456.913 432.262 487.772C433.984 490.13 433.844 495.619 432.262 498.117C430.646 500.615 425.305 503.289 422.915 502.375C394.276 491.537 365.531 494.106 336.961 501.389C305.616 509.377 282.388 535.098 278.558 564.514C275.325 589.391 282.74 603.079 305.23 613.002C312.153 616.063 319.707 617.822 326.384 621.306C329.02 622.643 331.796 627.252 331.409 629.891C331.023 632.354 326.49 636.119 323.854 636.049C263.764 635.064 251.641 585.134 262.64 550.053C270.933 523.557 286.676 502.726 312.609 490.939C320.516 487.35 328.598 484.113 336.4 480.805C335.732 471.41 329.442 473.803 325.436 475.035C302.63 482.107 280.034 489.743 254.03 498.293C236.565 487.631 215.938 474.788 191.234 473.205C183.082 472.677 174.789 473.873 163.122 480.489C166.39 481.966 169.658 483.479 172.961 484.887C181.114 488.335 189.442 491.467 197.454 495.232C245.772 517.822 249.638 561.84 237.444 601.39C231.048 622.221 214.146 633.938 191.515 634.958C189.372 635.064 187.017 632.988 185.05 631.545C184.206 630.947 184.136 629.293 182.765 625.388C190.11 620.497 197.805 614.796 206.028 609.976C219.452 602.059 224.829 590.166 225.11 575.141C225.602 547.625 216.079 526.231 190.813 512.262C164.176 497.519 136.31 492.945 106.511 496.71C94.3873 498.223 82.334 505.295 68.1021 497.167C73.4786 474.929 94.8089 468.595 109.427 456.104C124.186 443.507 142.002 435.766 160.838 432.916C180.622 429.925 200.933 430.277 223.036 429.046C234.141 416.308 227.148 401.952 224.618 386.118C211.018 386.118 198.754 387.103 186.701 385.907C168.815 384.112 158.589 367.926 166.355 353.429C169.588 347.448 176.475 341.572 182.906 339.601C193.413 336.364 204.904 336.364 215.27 335.062C225.531 325.561 224.301 313.387 224.653 302.373C226.129 255.505 228.835 208.566 221.315 161.978C220.612 157.65 216.606 153.885 212.248 146.813C206.942 153.71 203.288 158.284 199.809 162.964C176.44 194.737 131.355 203.71 98.6394 183.126C74.7439 168.066 69.4025 143.681 86.3402 121.267C99.6936 103.639 116.631 90.5846 139.859 88.7197C153.599 87.6289 167.374 86.8197 180.516 85.94C188.247 76.4044 184.417 67.9245 179.146 60.9223C156.27 30.5914 120.145 11.8721 79.1714 22.7096C56.7519 28.6561 36.7921 39.2472 18.9759 54.0256C14.1617 58.0369 9.27707 62.1538 0 57.8259C1.8273 53.322 2.49504 48.2198 5.34141 45.1937C33.8403 14.8276 70.2458 1.35108 110.798 0.0843567C150.155 -1.14718 192.64 30.6968 204.658 70.9504C211.581 94.1033 219.698 116.095 231.4 137.348C238.498 150.226 241.872 165.955 243.664 180.803C248.83 223.766 248.091 266.87 241.766 309.798C238.252 333.549 236.249 356.631 243.804 380.91C248.864 397.131 246.51 416.062 245.561 433.69C244.577 452.023 241.45 453.571 218.011 454.802C206.028 445.865 193.097 448.293 179.919 454.204H218.574L218.644 454.31ZM164.176 171.831C173.98 161.592 181.289 156.419 185.014 149.382C188.985 141.922 190.742 132.703 191.234 124.153C191.726 115.708 185.155 110.008 177.459 108.319C149.522 102.196 125.311 110.465 104.789 129.783C101.31 133.055 99.0961 138.051 97.2337 142.661C93.9305 150.754 98.6392 161.31 107.249 164.336C117.018 167.749 126.646 168.242 133.288 157.123C130.687 153.674 127.806 151 126.4 147.693C121.375 136.011 127.419 126.792 138.91 127.742C148.644 128.551 155.883 133.161 158.8 142.45C160.978 149.452 161.541 156.947 164.141 171.866L164.176 171.831ZM410.651 168.312C420.947 170.986 426.499 173.273 432.227 173.766C443.437 174.751 451.906 169.544 456.65 159.339C461.288 149.311 457.177 136.996 447.267 128.938C427.659 112.999 392.905 110.571 372.243 124.188C366.585 127.918 364.125 133.97 366.55 140.796C368.975 147.552 368.904 156.524 380.957 157.545C382.96 153.885 384.753 149.311 387.669 145.546C394.346 136.926 403.553 132.668 414.306 134.673C418.698 135.518 424.286 138.72 426.043 142.379C427.659 145.757 425.797 151.774 423.723 155.68C421.685 159.445 417.398 162.014 410.721 168.312H410.651ZM191.55 369.193C195.767 366.835 198.719 365.182 201.706 363.528C199.879 361.17 198.227 357.124 196.189 356.878C193.132 356.526 189.758 358.883 186.526 360.115C188.072 362.859 189.583 365.639 191.55 369.193ZM343.392 368.032C345.36 367.152 347.328 366.272 349.296 365.393C348.347 363.457 346.977 359.728 346.485 359.868C343.849 360.431 341.389 362.015 338.894 363.211C340.405 364.83 341.917 366.413 343.428 368.032H343.392Z" fill="black"/>
</svg>
