<svg width="440" height="473" viewBox="0 0 440 473" fill="none" xmlns="http://www.w3.org/2000/svg">
<path d="M353.338 401.076C332.091 398.345 318.962 411.029 304.673 422.516C285.297 438.082 264.836 452.338 244.749 467.005C242.355 468.764 239.4 470.448 236.557 470.785C202.967 474.713 170.424 470.934 145.063 446.95C125.463 428.428 108.256 408.223 79.1918 412.788C75.6009 393.593 72.4587 376.942 68.9426 358.196C73.7679 358.533 78.5558 358.607 83.2316 359.243C99.5404 361.526 108.443 358.682 114.839 343.902C121.722 328.038 131.223 317.374 148.43 313.52C157.444 311.499 162.644 304.615 163.467 295.522C164.364 285.756 155.799 284.11 149.402 280.106C143.155 276.215 137.133 271.163 132.682 265.326C118.094 246.243 121.123 230.454 140.948 217.432C162.868 203.102 165.449 196.179 158.342 167.817C152.769 169.95 147.495 172.419 141.958 173.953C127.445 177.957 113.006 183.195 98.1938 184.804C82.6331 186.525 67.1846 180.95 57.2347 168.678C43.432 151.653 27.123 141.625 4.64224 142.261C8.68205 129.127 15.6396 117.191 15.0411 105.63C14.4052 93.656 6.43779 82.094 0.976562 68.6238C4.56751 67.8006 8.64475 67.202 12.4601 65.8924C22.3352 62.5248 32.4721 59.5687 41.8235 55.0038C49.9405 51.075 56.7858 44.6394 64.7158 40.2242C85.4386 28.6997 106.348 27.4648 127.108 40.5608C130.961 42.9929 134.851 45.4625 139.041 47.1837C157.07 54.6298 174.427 47.4457 181.982 29.448C185.087 22.0768 187.518 14.4061 190.287 6.8478C192.045 6.96005 193.765 7.10963 195.523 7.22188C196.309 11.5249 197.693 15.8277 197.768 20.1307C198.104 42.6933 204.725 54.0311 218.677 55.1162C233.378 56.2761 243.739 44.9012 247.629 23.274C249.163 14.7055 247.929 4.7526 259.412 0.936035C271.644 13.8076 260.123 30.5329 267.193 45.2005C271.083 44.1902 274.674 43.6663 277.891 42.3193C283.464 39.962 288.813 37.1184 294.199 34.4243C331.268 15.9776 364.41 20.2057 393.1 51.2621C401.741 60.6164 411.952 66.2291 425.531 63.5725C429.608 62.7868 434.134 64.2458 439.558 64.7697C433.835 75.92 426.129 85.2368 424.633 95.4891C423.249 104.956 428.486 115.395 431.142 126.845C420.743 126.845 410.681 124.712 402.003 127.331C389.135 131.223 376.267 136.947 365.27 144.543C341.443 161.007 317.279 165.534 290.459 153.187C282.978 149.744 274.973 147.499 264.986 143.907C259.824 162.616 259.599 180.352 258.814 197.638C301.905 220.426 297.641 250.322 273.402 278.161C276.357 285.158 278.601 293.277 283.015 300.087C286.382 305.288 291.955 311.536 297.341 312.472C310.284 314.717 320.047 320.143 327.191 330.919C332.839 339.45 341.293 341.77 350.944 341.396C356.106 341.209 361.268 341.396 368.973 341.396C364.41 351.461 359.397 359.73 357.004 368.71C354.535 377.99 354.684 387.98 353.338 400.851V401.076ZM257.766 128.828C273.065 135.675 285.596 143.533 299.249 146.789C311.93 149.819 327.453 151.989 338.824 147.387C364.41 137.022 388.2 122.243 413.336 108.96C413.86 99.3435 414.421 88.9037 414.908 80.0732C400.394 68.9603 385.956 60.2049 374.472 48.5682C356.368 30.2337 336.954 28.4749 314.399 37.6421C303.214 42.2071 291.469 48.7553 280.06 48.6431C263.04 48.456 249.537 53.9188 235.809 62.5996C222.717 70.8689 210.86 68.549 198.852 57.9599C194.476 54.1059 189.95 50.4016 184.489 45.7993C166.945 64.508 147.756 63.0109 127.782 52.4592C125.088 51.0374 122.358 49.6907 119.777 48.1566C103.842 38.6526 88.1317 39.4008 72.4962 48.8673C55.8506 58.9326 39.1303 68.9228 23.0084 78.6139C24.6917 96.2374 26.375 113.375 27.9834 130.362C38.083 138.444 49.9779 145.703 58.8804 155.619C71.1869 169.388 85.6255 174.178 103.318 173.991C126.809 173.766 145.662 164.075 161.783 147.836C165.225 144.393 168.928 141.176 175.885 134.777C174.801 155.394 174.09 171.596 173.08 187.76C172.444 197.451 171.322 207.143 170.312 217.919C152.32 219.415 136.123 224.429 135.899 244.41C135.637 267.497 155.836 272.099 172.294 278.385C177.606 302.407 171.322 314.979 151.085 325.007C142.632 329.198 131.635 333.912 128.156 341.358C119.777 359.431 107.657 370.768 86.8225 374.173C87.2713 383.341 87.6829 391.273 88.0944 399.692C112.371 402.498 129.764 413.723 144.128 430.449C148.542 435.612 153.666 440.289 159.053 444.443C178.953 459.933 202.593 463.6 225.785 458.587C251.108 453.124 272.99 439.204 292.329 421.019C304.262 409.794 319.186 401.787 332.129 391.535C336.917 387.755 341.48 382.143 343.238 376.456C345.146 370.319 343.687 363.135 343.687 359.917C332.652 350.076 324.274 341.77 314.96 334.698C309.237 330.358 302.354 326.466 295.434 325.119C286.644 323.398 280.023 320.629 275.422 312.472C269.287 301.658 262.143 291.406 254.288 279.133C259.076 273.67 266.07 266.898 271.681 259.115C285.559 239.733 280.097 222.783 257.953 214.364C253.951 212.83 250.023 211.071 245.572 209.2C250.958 182.447 244.375 155.132 257.804 128.753L257.766 128.828Z" fill="black"/>
<path d="M161.821 342.369C165.823 338.851 169.339 333.575 173.977 332.191C186.433 328.561 190.623 320.143 190.847 308.506C190.997 300.199 191.259 291.893 190.66 283.623C189.388 266.112 181.197 253.652 163.579 248.488C160.175 247.478 157.07 245.495 149.963 242.165C157.257 239.546 160.923 236.889 164.327 237.188C185.985 239.022 201.583 257.843 201.545 281.191C201.545 291.78 200.984 302.407 201.994 312.884C202.368 316.663 206.558 320.105 208.989 323.697C210.822 323.248 212.655 322.762 214.488 322.313C215.124 313.744 214.974 305.026 216.62 296.644C219.799 280.518 222.567 264.054 228.216 248.751C232.779 236.328 237.193 235.355 251.145 234.045C244.337 244.822 236.856 255.785 230.348 267.309C222.754 280.705 226.981 295.26 227.28 309.516C227.654 326.129 243.028 329.31 257.392 339.039C237.268 344.24 223.054 336.793 209.026 338.066C194.326 339.413 179.85 343.753 165.299 346.784C164.14 345.324 162.98 343.902 161.821 342.443V342.369Z" fill="black"/>
<path d="M254.363 113.375C256.421 88.4926 278.153 67.2397 303.888 63.8721C344.436 58.5589 384.086 66.3417 390.183 99.9799C376.268 92.3842 366.618 100.466 355.658 106.191C333.289 117.902 309.387 121.757 286.457 108.735C274.375 101.851 264.837 101.476 254.363 113.338V113.375ZM289.001 79.737C276.246 89.9145 283.016 95.8263 290.011 100.653C308.153 113.15 343.127 108.586 358.688 91.7103C361.007 89.166 361.231 84.6759 363.663 77.2673C348.476 84.0773 337.516 90.1392 325.808 93.9932C311.108 98.8574 300.297 89.1661 289.001 79.6995V79.737ZM308.377 72.8149C321.88 89.6901 323.452 89.4279 334.785 71.6173C324.873 72.0663 316.606 72.4407 308.377 72.8149Z" fill="black"/>
<path d="M178.841 109.858C163.168 103.684 153.255 113.562 142.295 120.372C118.692 135.039 94.8649 134.927 72.4963 118.538C63.3694 111.878 55.3646 108.51 44.1055 114.684C52.821 86.8456 73.9926 77.7535 98.7177 75.2091C130.999 71.9164 158.903 80.6721 178.803 109.858H178.841ZM145.4 97.7344C132.719 99.8672 120.899 104.207 109.565 103.16C97.7826 102.075 86.4861 95.8258 74.8904 91.8222C69.2047 103.683 70.8505 107.425 85.9624 115.619C108.107 127.63 132.233 120.896 145.4 97.7344ZM122.882 85.6108H95.5382C106.723 96.4244 114.578 96.9108 122.882 85.6108Z" fill="black"/>
<path d="M315.409 379.898C306.731 380.421 298.015 380.721 289.374 381.507C275.834 382.741 261.956 382.854 248.939 386.184C231.396 390.674 217.182 400.402 214.039 420.57C213.628 423.264 211.758 425.696 209.551 430.448C195.935 414.209 184.377 396.923 164.701 392.62C146.298 388.616 126.996 388.765 106.236 386.932C127.595 369.795 153.929 373.911 205.324 401.038C227.917 373.948 260.46 371.554 293.115 369.833C300.895 369.421 309.536 366.989 315.409 379.86V379.898Z" fill="black"/>
</svg>
