<svg width="660" height="621" viewBox="0 0 660 621" fill="none" xmlns="http://www.w3.org/2000/svg">
<path d="M332.307 620.367C162.18 620.367 -2.28996 490.225 0.943385 309.804C4.12284 131.458 170.263 -4.74616 342.708 0.858305C502.947 6.0586 647.154 131.431 658.794 294.419C672.024 479.582 508.067 620.394 332.307 620.394V620.367ZM436.34 145.901C434.481 147.76 432.622 149.619 430.763 151.478C428.903 153.337 427.044 155.197 425.185 157.056C423.326 158.915 421.467 160.774 419.608 162.633C417.748 164.492 415.889 166.352 414.03 168.211C412.171 170.07 410.312 171.929 408.453 173.788C400.1 174.273 403.71 180.713 402.875 184.943C401.016 186.802 399.157 188.662 397.298 190.521C386.547 193.134 393.849 201.784 391.019 208.116C387.553 212.409 387.553 217.645 391.019 223.824C391.019 217.492 391.019 212.373 391.72 207.253C402.471 204.64 395.169 195.991 397.298 190.521C399.157 188.662 401.016 186.802 402.875 184.943H408.453C408.453 199.682 399.238 211.43 397.81 226.007C396.139 243.09 407.752 264.133 402.848 279.842C400.989 279.842 399.13 279.842 392.933 280.004C394.549 279.923 396.139 279.842 397.756 279.761C397.055 276.124 396.328 272.486 395.627 268.849C394.415 269.01 393.229 269.145 392.016 269.307C392.313 272.863 392.636 276.447 397.271 279.869C398.106 284.099 394.495 290.566 402.848 291.024C403.683 295.254 400.073 301.721 408.426 302.179C410.285 304.038 412.144 305.897 414.003 307.756C415.862 309.616 417.721 311.475 419.581 313.334C421.44 315.193 423.299 317.052 425.158 318.912C427.017 320.771 428.876 322.63 430.736 324.489C431.221 332.842 437.66 329.231 441.891 330.067C444.72 334 447.522 337.934 449.893 341.222H464.201C464.201 354.182 527.197 356.58 531.185 346.799C543.526 346.61 556.728 348.982 564.677 335.644C573.326 336.533 579.227 333.3 581.41 324.489C595.771 321.66 600.917 316.513 603.747 302.152C612.557 299.97 615.818 294.069 614.902 285.419C632.496 272.028 638.02 203.104 614.902 190.521C614.066 186.291 617.677 179.824 609.324 179.366V168.211H598.169C595.34 153.849 590.193 148.703 575.832 145.874C572.706 133.533 563.033 134.261 553.495 134.719C550.881 123.968 542.232 131.27 535.685 128.495C524.26 121.705 494.19 121.058 475.248 128.495C496.804 128.495 516.797 128.495 536.763 129.141V134.719C478.293 134.719 451.375 146.547 408.372 184.943V173.788C410.231 171.929 412.09 170.07 413.949 168.211C415.808 166.352 417.668 164.492 419.527 162.633C421.386 160.774 423.245 158.915 425.104 157.056C426.964 155.197 428.823 153.337 430.682 151.478C432.541 149.619 434.4 147.76 435.667 145.389C436.017 145.739 436.394 146.116 436.744 146.467L441.298 142.587C440.705 141.994 440.112 141.401 439.547 140.835C438.253 142.344 436.96 143.88 436.232 145.901H436.34ZM57.3652 179.905C57.015 179.554 56.6378 179.177 56.2876 178.827L51.7339 182.707L53.4852 184.458C54.7786 182.949 56.072 181.414 56.7995 179.393L62.3771 173.815H73.532C59.6286 189.686 50.0902 208.331 40.0399 229.402C40.0399 252.601 41.8452 273.726 45.6175 296.628H40.0399C39.2046 292.398 42.8153 285.931 30.313 285.5C31.6872 285.635 33.0882 285.797 34.4624 285.931C34.8666 274.669 34.3817 263.433 33.0614 252.251C32.1453 252.332 31.2291 252.385 30.313 252.466C30.313 263.487 30.3129 274.507 34.4624 285.5C35.2977 289.731 31.6871 296.197 40.0399 296.655C40.8752 300.886 37.2647 307.352 45.6175 307.81C46.4527 312.041 42.8422 318.507 51.195 318.965C53.0542 320.825 54.9134 322.684 56.7725 324.543C58.6317 326.402 60.4909 328.261 62.3501 330.12C64.2093 331.98 66.0684 333.839 67.9276 335.698C68.4126 344.051 74.8522 340.44 79.0825 341.275L84.6601 346.853C85.1451 355.206 91.5849 351.595 95.8151 352.431C98.4288 363.181 107.078 355.879 111.147 358.682C115.835 365.552 131.49 366.415 133.995 358.682C126.532 358.682 119.553 358.682 112.575 358.008V352.431C159.35 352.431 182.199 343.215 224.206 330.093V335.671C222.347 337.53 220.488 339.389 218.628 341.249C216.769 343.108 214.91 344.967 213.186 351.164C213.105 349.547 213.024 347.958 212.943 346.341C209.306 347.042 205.668 347.769 202.03 348.47C202.192 349.682 202.327 350.868 202.489 352.08C206.045 351.784 209.629 351.461 213.051 346.826C214.91 344.967 216.769 343.108 218.628 341.249C220.488 339.389 222.347 337.53 224.206 335.671C236.708 334.512 239.78 331.441 240.938 318.938C242.798 317.079 244.657 315.22 246.516 313.361C254.869 312.876 251.258 306.436 252.093 302.206C260.446 301.721 256.836 295.281 256.674 290.808C268.745 279.923 271.17 267.043 266.132 248.505C262.386 265.292 259.53 278.064 257.671 291.024C249.318 291.509 252.929 297.949 252.093 302.179H246.516C246.516 295.119 256.539 219.109 256.539 219.109C257.321 224.579 258.048 229.617 258.964 235.922C263.141 234.818 266.158 234.036 268.961 233.309C266.32 223.528 261.174 193.916 246.516 190.548C244.657 188.689 242.798 186.829 240.938 184.97C239.78 172.468 236.708 169.396 224.206 168.238V157.083C246.624 155.224 251.959 185.698 268.422 195.074V25.3509C265.485 22.5487 262.898 20.0967 260.823 18.1028C204.24 38.8501 81.6692 78.7819 68.4664 151.99L67.3887 150.912L62.8351 154.792L64.5864 156.544C65.8797 155.035 67.1731 153.499 67.9007 151.478C102.417 140.7 201.734 100.607 224.206 157.056H213.051C212.566 148.703 206.126 152.313 201.896 151.478C193.462 137.844 179.801 140.35 167.083 140.566C165.628 140.566 164.227 144.042 162.826 145.901H134.912C134.912 144.042 134.912 142.182 134.912 136.201C134.912 137.036 134.912 137.871 134.939 138.706H156.818C156.818 137.871 156.791 137.036 156.764 136.201C149.462 136.201 142.187 136.201 134.912 140.323C127.798 141.563 119.796 137.871 108.021 145.901H134.912C130.116 149.242 104.33 156.625 95.8421 157.056C95.8421 155.197 95.8421 153.337 95.6805 147.14L95.9229 151.963C99.5604 151.263 103.198 150.535 106.836 149.835C106.674 148.622 106.539 147.437 106.377 146.224C102.821 146.52 99.2371 146.844 95.8151 151.478C91.5849 152.313 85.1181 148.703 84.6601 157.056C72.4003 156.22 67.227 164.843 62.3231 173.788C60.4639 175.647 58.6048 177.507 57.3384 179.878L57.3652 179.905ZM40.013 207.307C48.3658 206.822 44.7553 200.383 44.9978 195.64L46.0755 196.718C47.5844 195.425 49.1202 194.131 50.6291 192.838L48.8778 191.087C47.5845 192.596 46.291 194.131 45.5635 196.152C37.2107 196.637 40.8213 203.077 33.4655 221.13C40.5249 218.031 41.8453 213.451 37.3994 207.307C36.4294 210.675 35.4864 214.043 39.9862 207.307H40.013ZM458.515 130.408C458.596 132.024 458.677 133.614 458.758 135.231C462.396 134.53 466.033 133.803 469.671 133.102C469.509 131.89 469.374 130.704 469.213 129.491C465.656 129.788 462.072 130.111 458.812 139.084C458.731 137.467 458.65 135.877 458.569 134.261C454.932 134.961 451.294 135.689 447.657 136.389C447.819 137.602 447.953 138.787 448.115 140C451.672 139.703 455.255 139.38 458.515 130.408ZM185.163 362.158C185.163 361.322 185.163 360.487 185.136 359.652H163.257C163.257 360.487 163.284 361.322 163.311 362.158C170.613 362.158 177.888 362.158 185.028 353.697C185.109 355.314 185.19 356.903 185.271 358.52C188.909 357.819 192.546 357.092 196.184 356.391C196.022 355.179 195.887 353.993 195.726 352.781C192.169 353.077 188.585 353.401 185.19 362.158H185.163ZM363.725 386.084C364.317 398.748 369.518 404.083 379.272 402.143V378.567C372.913 381.638 368.359 383.848 365.934 387.216C362.539 382.662 360.518 379.941 358.524 377.246C361.165 374.606 363.779 371.992 365.584 370.187C370.38 371.911 374.691 373.474 384.041 376.869C378.625 370.456 377.008 368.543 375.257 366.469C376.928 364.663 378.679 362.696 380.403 360.81C378.679 358.924 376.901 356.984 375.257 355.152C377.008 353.077 378.625 351.191 377.143 352.942C377.924 334.97 374.475 321.31 379.029 303.876C359.764 267.582 379.622 202.781 379.972 163.415C380.376 113.891 374.96 62.8307 374.96 12.687H287.714C260.904 38.0418 270.847 117.151 278.769 149.646C266.751 220.726 279.685 300.535 279.685 373.07C290.894 375.818 300.162 378.082 309.458 380.372C325.894 366.684 349.067 382.851 363.779 386.111L363.725 386.084ZM577.799 340.386C499.31 386.111 443.453 346.664 386.089 295.928C386.089 399.071 391.666 501.407 391.666 604.55C560.635 577.848 677.143 414.699 640.472 246.027C630.125 263.918 630.152 286.363 618.458 303.58C607.573 319.612 588.523 325.217 577.772 340.386H577.799ZM20.1549 275.234C18.9423 296.494 2.2907 317.376 17.703 339.255C-3.42154 449.35 160.94 610.424 267.91 603.473V303.365C207.15 397.051 46.5874 400.392 20.1549 275.207V275.234ZM586.637 138.383C555.435 63.7199 453.477 38.6076 386.116 17.025C386.116 70.5907 382.155 126.07 387.382 179.447C414.165 164.196 438.415 135.311 466.68 117.986C509.198 117.986 546.84 111.573 586.664 138.383H586.637ZM380.161 453.877C365.799 463.415 352.677 472.118 337.75 482.007C325.921 479.878 312.988 477.534 296.687 474.597C293.453 470.528 288.415 464.223 281.167 455.143V608.161H380.188V453.877H380.161ZM312.934 386.057C250.234 411.951 290.112 475.19 345.348 468.993C353.378 463.038 361.839 456.76 369.356 451.209C369.356 427.211 367.147 410.379 362.728 400.715C354.483 394.518 348.959 390.368 343.193 386.057H312.934ZM33.4655 225.145C31.8488 225.145 30.2591 225.091 28.6424 225.091C29.1274 231.962 29.5854 238.859 30.0704 245.73C31.2021 245.676 32.3338 245.595 33.4655 245.542V225.145ZM156.764 357.523C150.162 361.241 145.528 363.855 137.741 368.247H156.764V357.523ZM289.6 388.213C283.978 387.045 281.526 390.97 282.244 399.988C285.72 394.41 287.876 390.961 289.6 388.213ZM387.059 262.247C388.675 262.059 390.265 261.843 391.882 261.654C391.154 258.637 390.427 255.592 389.726 252.574C388.837 252.709 387.948 252.87 387.059 253.005V262.274V262.247Z" fill="black"/>
<path d="M136.719 273.349C133.27 269.792 128.797 265.185 124.459 260.712V241.554C132.138 237.189 139.575 232.959 147.443 228.486C154.179 231.235 160.457 233.767 166.627 236.3C169.133 241.797 171.612 247.213 174.118 252.736C170.265 259.419 166.385 266.128 162.208 273.376H136.692L136.719 273.349ZM133.459 251.12C149.491 268.014 151.888 267.771 162.828 249.88C153.523 241.995 143.733 242.408 133.459 251.12Z" fill="black"/>
<path d="M196.32 302.207C190.15 307.731 183.98 313.254 178.672 317.97C165.765 321.553 152.212 313.982 140.357 326.08C135.668 317.215 123.301 322.927 118.154 313.362C146.015 313.362 171.585 302.207 196.293 302.207H196.32Z" fill="black"/>
<path d="M194.834 301.399C208.603 276.044 208.333 255.836 217.602 229.915C218.626 245.92 218.976 261.952 218.653 278.011C212.106 286.283 205.181 295.013 198.283 303.743C197.151 302.962 195.993 302.18 194.861 301.399H194.834Z" fill="black"/>
<path d="M90.2664 212.885C85.4433 239.856 84.6889 253.544 84.6889 279.869C81.1053 277.471 77.4948 275.073 74.3153 272.944C72.9411 260.657 71.3244 218.328 90.2664 212.885Z" fill="black"/>
<path d="M179.584 190.547H118.178C118.178 171.443 172.794 184.053 179.584 190.547Z" fill="black"/>
<path d="M201.894 151.478C202.379 159.831 208.819 156.22 213.049 157.056C216.768 160.774 220.486 164.492 224.204 168.211V173.788C222.345 173.788 219.839 174.57 218.761 173.653C208.361 164.977 194.754 161.232 185.135 151.451H201.867L201.894 151.478Z" fill="black"/>
<path d="M56.7748 324.515C54.9156 322.656 53.0564 320.796 51.1973 318.937V307.782C60.4931 317.078 69.8159 326.401 79.1118 335.697H67.9567C66.0975 333.838 64.2385 331.978 62.3793 330.119C60.5201 328.26 58.6609 326.401 56.8018 324.542L56.7748 324.515Z" fill="black"/>
<path d="M84.6869 346.853L79.1094 341.276V335.698C92.7433 336.318 102.982 343.782 112.601 352.431H95.869C95.384 344.078 88.9442 347.689 84.7139 346.853H84.6869Z" fill="black"/>
<path d="M196.803 198.497C202.893 207.604 213.348 210.676 212.943 226.627C204.402 217.224 194.459 213.802 196.803 198.497Z" fill="black"/>
<path d="M84.6877 157.057H95.8428C90.9389 166.029 85.7656 174.651 73.5059 173.789C77.2242 168.212 80.9424 162.634 84.6608 157.057H84.6877Z" fill="black"/>
<path d="M162.826 145.901C168.08 145.901 173.442 145.335 178.562 146.143C180.987 146.547 182.981 149.619 185.163 151.478C179.909 151.478 174.547 152.044 169.428 151.236C167.003 150.831 165.009 147.76 162.826 145.901Z" fill="black"/>
<path d="M240.969 184.97C242.828 186.829 244.687 188.688 246.546 190.547V201.702C237.735 199.52 234.475 193.619 235.391 184.97H240.969Z" fill="black"/>
<path d="M101.418 201.731C103.6 192.92 109.501 189.66 118.15 190.576C115.968 199.387 110.067 202.647 101.418 201.731Z" fill="black"/>
<path d="M196.32 201.729C187.671 202.618 181.77 199.385 179.588 190.574C188.237 189.685 194.138 192.918 196.32 201.729Z" fill="black"/>
<path d="M246.571 313.362C244.711 315.221 242.852 317.08 240.993 318.94H235.415C234.526 310.29 237.76 304.39 246.571 302.207V313.362Z" fill="black"/>
<path d="M101.421 302.205H90.2656V291.05L101.421 302.205Z" fill="black"/>
<path d="M90.2656 212.886V201.73H101.421C97.7024 205.449 93.984 209.167 90.2656 212.886Z" fill="black"/>
<path d="M249.831 201.486C253.091 206.202 252.687 210.594 248.592 214.689C247.487 209.085 246.786 205.447 246.086 201.81C247.352 201.702 248.592 201.594 249.858 201.486H249.831Z" fill="black"/>
<path d="M90.2656 291.025C81.9128 290.54 85.5234 284.1 84.6881 279.87C93.0409 280.355 89.4303 286.795 90.2656 291.025Z" fill="black"/>
<path d="M51.1947 307.784H45.6172V296.629C53.97 297.114 50.3594 303.554 51.1947 307.784Z" fill="black"/>
<path d="M106.994 307.783C111.224 308.618 117.691 305.008 118.149 313.36C113.919 312.525 107.452 316.136 106.994 307.783Z" fill="black"/>
<path d="M441.915 263.111C374.904 207.955 551.768 106.347 570.306 207.282C506.474 153.123 441.915 176.78 441.915 263.111Z" fill="black"/>
<path d="M570.31 207.307C573.839 211.806 577.369 216.333 581.007 220.968C582.893 238.67 577.369 293.745 547.973 291.05C563.304 254.028 570.31 249.259 570.31 207.334V207.307Z" fill="black"/>
<path d="M547.995 291.024C540.693 311.179 504.911 307.757 489.633 307.784C480.984 298.057 463.632 300.32 458.674 285.447C475.245 283.13 494.375 302.152 513.506 301.479C519.596 301.263 539.723 289.893 547.968 291.024H547.995Z" fill="black"/>
<path d="M614.981 285.446C611.263 287.306 607.545 289.165 603.826 291.024C605.685 285.366 607.302 279.572 609.458 274.022C617.891 252.305 614.362 229.644 615.008 207.28C633.277 221.103 615.008 265.804 615.008 285.419L614.981 285.446Z" fill="black"/>
<path d="M414.03 307.784C412.171 305.925 410.312 304.066 408.453 302.207C407.617 297.976 411.228 291.51 402.875 291.052V279.896C415.458 282.241 413.922 296.602 422.544 302.961C430.17 308.592 435.586 317.242 441.972 324.544H430.816C428.957 322.684 427.098 320.825 425.239 318.966C423.38 317.107 421.521 315.248 419.661 313.389C417.802 311.529 415.943 309.67 414.084 307.811L414.03 307.784Z" fill="black"/>
<path d="M548 335.698C545.656 337.557 543.581 340.198 540.941 341.087C537.169 342.354 531.295 339.39 531.268 346.853C518.658 346.853 506.048 347.15 493.465 346.611C491.093 346.503 488.884 343.135 486.594 341.276C507.072 339.417 527.522 337.557 548 335.698Z" fill="black"/>
<path d="M609.378 179.393V190.548C600.406 185.644 591.783 180.471 592.646 168.211H598.223C601.941 171.929 605.66 175.648 609.378 179.366V179.393Z" fill="black"/>
<path d="M570.306 324.518C568.447 328.236 566.588 331.954 564.729 335.673H547.996C553.654 328.371 560.795 324.06 570.333 324.518H570.306Z" fill="black"/>
<path d="M564.73 145.9H575.885C577.745 149.619 579.604 153.337 581.463 157.055C572.814 157.945 566.913 154.711 564.73 145.9Z" fill="black"/>
<path d="M453.101 279.87C444.29 277.688 441.03 271.787 441.946 263.138C450.757 265.32 454.017 271.221 453.101 279.87Z" fill="black"/>
<path d="M603.801 291.024V302.179L592.646 307.757C591.757 299.108 594.99 293.207 603.801 291.024Z" fill="black"/>
<path d="M581.493 324.516H570.338C572.52 315.705 578.421 312.445 587.071 313.361C585.211 317.079 583.352 320.798 581.493 324.516Z" fill="black"/>
<path d="M464.254 341.277V335.699C469.508 335.699 474.87 335.134 479.99 335.942C482.415 336.346 484.409 339.418 486.591 341.277H464.254Z" fill="black"/>
<path d="M609.38 190.548H614.958V207.28C604.207 204.667 611.509 196.018 609.38 190.548Z" fill="black"/>
<path d="M536.812 134.746H553.545V140.324C548.048 138.195 539.426 145.497 536.812 134.746Z" fill="black"/>
<path d="M553.574 140.325C557.805 141.16 564.271 137.55 564.729 145.902C560.499 145.067 554.032 148.678 553.574 140.325Z" fill="black"/>
<path d="M441.918 330.093V324.515C446.148 325.351 452.615 321.74 453.073 330.093H441.918Z" fill="black"/>
<path d="M464.257 335.698C460.026 334.863 453.56 338.474 453.102 330.121C457.332 330.956 463.799 327.345 464.257 335.698Z" fill="black"/>
<path d="M327.7 403.6C333.358 406.914 339.34 410.417 345.995 414.35V440.702C340.471 444.151 333.196 448.678 325.194 453.663C317.865 449.459 310.455 445.175 302.938 440.864V413.919C310.859 410.632 319.401 407.075 327.7 403.627V403.6ZM327.026 413.354C302.426 417.746 317.245 441.726 335.433 441.726V421.733C332.63 418.931 330.071 416.371 327.026 413.327V413.354Z" fill="black"/>
<path d="M494.783 257.533C485.864 253.733 481.203 247.806 480.799 239.722C481.472 231.693 484.598 224.606 490.175 218.49C498.582 211.188 511.031 209.356 524.745 220.753C527.009 226.681 529.73 233.821 533.071 242.524C526.847 247.105 521.054 251.362 512.674 257.533H494.81H494.783ZM510.761 217.682C502.381 228.325 497.989 233.875 493.597 239.453C496.966 242.821 501.519 247.375 505.426 251.281C510.222 248.803 514.776 246.458 521.728 242.848C518.925 236.462 516.015 229.753 510.761 217.655V217.682Z" fill="black"/>
</svg>
