<svg width="566" height="508" viewBox="0 0 566 508" fill="none" xmlns="http://www.w3.org/2000/svg">
<path d="M265.272 508.008C188.516 503.667 121.522 475.642 64.3287 425.989C26.8482 393.436 8.29505 349.134 2.23534 300.379C-7.82678 219.259 16.4869 147.23 66.9845 84.6311C94.1784 50.9181 126.834 22.5559 173.142 16.4569C203.478 12.4907 228.465 20.0117 247.579 44.7446C267.03 69.9264 265.683 100.908 241.706 122.161C230.634 131.964 217.093 139.71 203.478 145.696C184.102 154.19 163.716 160.364 143.666 167.286C116.697 176.566 94.141 192.618 72.8572 211.214C37.6959 241.971 32.4591 302.512 54.4536 338.208C76.9344 374.652 107.757 399.647 144.938 418.281C211.483 451.695 280.945 465.726 353.661 442.976C389.159 431.863 420.431 410.985 450.168 388.497C456.078 384.007 462.175 379.816 468.16 375.364C470.517 373.605 473.696 372.071 474.818 369.639C491.352 334.242 514.468 301.502 518.733 261.166C519.069 258.173 519.63 255.179 520.229 252.186C528.047 213.496 512.86 185.396 479.419 166.949C464.233 158.605 448.186 150.972 431.577 146.258C404.72 138.625 377.077 133.835 349.846 127.512C334.36 123.92 318.762 120.552 303.725 115.463C283.376 108.578 269.312 92.2268 267.479 72.4704C265.384 49.7956 273.726 28.3181 294.785 13.6131C317.415 -2.21438 342.477 -1.46607 367.015 2.35049C405.244 8.29984 442.612 18.328 474.856 41.5267C509.082 66.1847 533.77 97.9515 546.824 138.362C562.871 188.052 571.811 238.266 559.467 290.389C551.126 325.636 537.248 357.965 513.384 385.616C500.516 400.508 488.359 416.036 475.005 430.442C434.832 473.696 382.464 492.106 326.056 501.235C305.969 504.491 285.546 505.763 265.272 507.933V508.008ZM210.024 106.333C223.49 100.421 224.799 88.0737 224.911 75.9879C224.986 66.9329 219.749 58.5889 210.286 59.225C197.829 60.0856 184.887 62.555 173.516 67.4941C162.706 72.1713 157.918 89.4954 161.06 101.132C164.127 112.47 173.254 120.664 185.186 121.862C197.68 123.134 207.405 119.354 210.66 105.697L210.024 106.296V106.333ZM324.41 51.4419C309.859 67.3443 309.897 83.2841 324.597 95.9686C340.756 109.925 355.494 108.204 369.222 90.6926C382.763 73.4433 382.015 60.3098 366.604 44.37C356.504 33.968 345.245 34.6793 328.226 47.0644C326.43 48.374 325.196 50.3945 323.7 52.1157L324.41 51.4419ZM234.711 107.53C251.469 86.5393 253.751 74.042 243.539 58.439C231.682 40.329 217.019 23.1922 192.593 26.9714C144.414 34.4174 102.557 56.2313 72.2213 94.3969C28.9429 148.876 5.04071 211.775 8.96831 282.007C12.7837 350.032 41.6608 404.886 101.398 442.303C147.257 471.002 195.623 490.085 249.786 495.136C309.859 500.749 366.005 488.251 418.298 459.739C459.781 437.102 488.658 400.583 516.226 363.166C541.475 328.891 551.612 289.079 554.305 248.182C557.41 200.588 545.702 154.601 524.867 111.796C517.423 96.4924 505.528 82.8352 493.671 70.3004C463.821 38.8325 424.994 23.529 383.586 15.3346C359.347 10.5452 334.435 5.79297 309.972 17.8788C293.251 26.148 277.878 48.1121 278.476 66.671C279.037 84.2572 290.184 97.428 308.475 102.143C297.777 61.0584 302.678 43.921 329.684 27.9812C343.45 19.8617 360.619 21.7704 373.299 34.9787C398.81 61.5824 392.04 88.0363 368.511 113.48C385.942 124.967 404.009 127.586 421.328 131.852C448.186 138.475 472.724 149.962 495.728 164.929C518.845 179.971 533.021 201.111 532.535 229.062C531.899 266.554 524.83 302.923 505.454 335.813C482.337 375.027 451.926 406.457 411.902 429.357C372.102 452.106 330.582 466.362 284.498 465.053C234.599 463.631 186.608 453.004 142.394 429.544C108.841 411.733 78.0191 390.443 55.0895 358.526C21.9107 312.353 22.8832 241.559 65.8623 202.795C87.6698 183.114 111.348 167.922 138.242 157.034C153.354 150.935 168.616 145.098 185.299 138.549C150.698 114.602 143.105 97.9892 153.242 72.1713C159.638 55.8948 189.226 38.7577 205.759 43.6593C214.026 46.0914 221.769 52.1156 228.278 58.1398C241.968 70.7868 234.936 87.7371 234.674 107.456L234.711 107.53Z" fill="black"/>
<path d="M69.3773 312.765C75.1752 313.401 81.0853 313.438 86.7336 314.71C187.804 337.834 288.35 333.719 388.448 309.061C412.724 303.074 436.663 295.889 460.828 289.528C467.71 287.732 475.191 283.504 483.009 292.26C479.343 295.066 476.463 298.883 472.872 299.743C429.519 310.332 386.315 321.895 342.551 330.463C253.6 347.825 164.837 345.018 76.8584 322.792C73.6415 321.969 70.8362 319.5 67.8438 317.779C68.3674 316.095 68.8536 314.411 69.3773 312.765Z" fill="black"/>
<path d="M293.888 248.258C287.641 239.839 281.993 235.311 281.469 230.297C281.17 227.304 289.212 220.569 293.065 220.868C297.217 221.205 303.127 227.341 304.025 231.832C304.735 235.386 299.125 240.25 293.85 248.258H293.888Z" fill="black"/>
<path d="M237.555 239.352C244.587 233.702 248.365 228.388 252.704 227.902C255.921 227.528 259.886 233.365 263.514 236.433C259.961 240.586 257.08 246.199 252.554 248.332C250.31 249.379 245.073 244.066 237.592 239.389L237.555 239.352Z" fill="black"/>
<path d="M323.699 52.1535C330.432 51.6671 337.352 49.9457 343.823 50.9559C355.007 52.7145 362.376 63.1913 361.591 73.8178C360.843 84.2198 353.287 90.9554 341.728 91.554C330.544 92.1527 322.502 84.2202 322.39 71.4235C322.315 64.7632 323.699 58.1026 324.41 51.4424L323.699 52.1535Z" fill="black"/>
<path d="M210.659 105.735C206.283 106.82 201.944 108.616 197.53 108.878C182.904 109.813 173.852 102.592 174.226 90.9175C174.563 79.9542 185.56 67.9057 195.323 67.7934C205.46 67.6438 215.447 79.206 214.699 91.4789C214.4 96.4928 211.669 101.394 210.061 106.333L210.659 105.735Z" fill="black"/>
</svg>
