<svg width="572" height="642" viewBox="0 0 572 642" fill="none" xmlns="http://www.w3.org/2000/svg">
<path d="M11.7594 155.172C-1.14556 140.804 -2.45473 136.239 5.47527 126.211C43.4046 78.4295 91.4708 49.4311 153.302 42.5463C204.735 36.8215 246.031 57.2513 287.215 87.6716C334.346 26.2324 394.12 -9.35142 474.542 2.21052C518.569 8.53404 551.635 22.1165 562.221 37.3453C558.443 48.084 549.428 45.7267 541.311 45.6145C507.833 45.2403 474.58 46.6622 442.523 57.7377C417.461 66.4186 392.886 75.5484 371.527 92.461C340.817 116.782 324.62 149.709 323.423 186.715C321.927 232.551 327.463 278.612 329.969 324.373C336.328 326.356 339.732 328.04 343.286 328.452C362.325 330.659 376.203 339.714 382.188 358.348C388.921 379.302 382.487 397.674 367.412 412.266C357.799 421.583 345.792 428.431 334.047 436.962C334.944 444.146 335.879 451.517 336.777 458.514C387.649 473.481 435.117 440.03 439.568 389.217C442.074 360.705 433.284 335.411 423.97 309.893C422.286 305.291 416.489 300.763 411.588 298.967C355.106 278.312 329.782 236.293 340.593 178.783C342.388 169.316 345.942 159.7 350.73 151.356C386.676 88.1954 459.318 68.1023 521.673 96.6142C552.271 110.608 575.388 147.39 570.375 189.035C565.288 231.129 547.259 265.478 511.2 288.976C503.008 294.327 500.951 300.763 501.699 310.005C504.392 343.194 507.721 376.421 508.357 409.685C508.918 438.309 511.686 468.654 503.719 495.333C483.557 563.021 439.493 609.867 369.694 631.345C302.102 652.111 240.981 640.399 184.274 600.625C152.966 578.661 132.654 547.717 118.74 512.507C101.084 467.831 91.5457 421.059 84.0271 373.801C83.3164 369.386 83.6531 364.746 83.9524 360.219C84.7379 348.657 79.5759 342.109 68.616 338.255C-7.01821 311.689 -17.2299 219.455 47.9307 166.585C96.2214 127.371 157.866 142.525 193.551 168.83C197.778 171.935 201.668 175.901 204.623 180.204C222.353 206.359 233.014 269.37 204.436 305.066C191.082 321.717 177.429 337.731 154.425 342.408C152.33 375.747 157.193 406.878 171.669 435.727C183.975 460.273 220.969 476.961 247.49 471.124C251.417 470.263 256.991 464.8 257.066 461.32C257.215 456.082 254.036 450.133 250.707 445.68C248.949 443.323 243.674 443.884 240.158 442.574C230.246 438.982 219.81 436.213 210.683 431.087C194.374 421.957 188.726 406.878 191.082 388.544C193.401 370.696 205.109 360.743 220.371 354.008C223.064 352.81 226.356 353.147 229.311 352.399C245.47 348.358 247.976 345.963 246.966 328.826C245.283 300.875 242.889 272.962 240.009 245.086C237.39 219.493 233.612 194.049 230.62 168.493C228.824 153.227 221.119 141.627 209.598 132.086C151.245 83.7053 89.2639 86.7361 29.153 138.746C23.5047 143.61 18.3055 148.961 11.7221 155.172H11.7594ZM123.939 69.8984C123.939 72.1808 124.014 74.4632 124.051 76.7831C131.944 77.9805 139.874 78.7662 147.654 80.3752C206.867 92.7229 257.103 127.933 259.535 195.583C260.844 232.626 266.604 269.482 269.896 306.45C271.617 325.982 274.759 345.551 268.325 365.046C263.649 379.152 261.255 380.537 247.527 375.785C242.328 373.989 235.969 372.38 230.994 373.801C221.044 376.645 213.189 383.38 213.376 394.867C213.563 405.98 217.752 415.858 228.338 421.097C238.774 426.26 249.435 427.72 261.367 424.764C274.422 421.508 279.397 425.886 280.93 439.394C282.015 449.16 281.641 459.075 282.726 468.841C284.746 486.54 282.165 491.105 264.622 492.19C236.231 493.948 207.877 491.441 183.676 475.277C170.21 466.259 155.397 454.96 148.702 441.04C132.729 408.001 129.886 371.145 128.802 334.701C128.689 330.472 134.487 322.989 138.527 322.241C180.422 314.383 195.459 285.048 198.376 247.219C200.06 225.255 199.049 202.655 181.469 185.667C160.297 165.163 115.972 148.063 74.3765 175.191C35.3624 200.634 16.3977 239.586 31.7714 279.547C41.7962 305.665 59.1523 320.033 85.9722 325.458C104.525 329.2 106.246 332.755 107.668 351.164C109.014 368.488 110.174 385.962 113.54 402.95C122.966 450.544 134.226 497.727 159.699 539.934C186.968 585.172 228.899 611.401 279.359 618.136C328.024 624.647 376.539 617.201 416.152 583.189C427.448 573.497 436.127 560.776 446.825 550.299C469.118 528.485 479.517 501.207 482.921 471.161C484.754 454.698 484.717 437.86 483.931 421.284C481.762 376.009 478.769 330.772 476.001 283.813C483.707 279.622 491.637 275.357 499.492 271.016C533.456 252.308 554.029 199.175 549.241 167.745C542.247 121.946 504.878 96.8014 458.757 102.377C425.466 106.38 400.329 122.956 379.644 147.128C337.637 196.182 361.876 268.135 424.755 284.262C430.404 285.721 436.613 290.586 439.717 295.637C458.084 325.571 465.939 358.834 463.171 393.445C461.039 420.049 454.68 446.578 428.945 461.956C400.367 479.019 368.048 484.669 335.805 488.785C318.785 490.955 313.025 484.145 311.379 466.522C310.331 455.221 310.518 443.734 308.498 432.621C306.404 421.209 310.07 415.073 321.067 412.753C335.206 409.76 345.717 401.191 354.283 390.265C362.138 380.275 362.438 367.179 356.153 358.385C349.159 348.545 340.555 352.511 331.615 354.981C313.511 359.957 310.818 358.236 308.873 338.741C305.581 305.59 302.551 272.401 300.456 239.137C299.222 219.567 297.763 199.549 300.494 180.279C306.516 137.886 323.161 100.768 359.295 74.0891C388.135 52.7986 420.528 41.6109 454.904 34.2022C461.525 32.7804 470.166 34.988 475.253 25.1472C470.914 23.3138 467.697 20.8817 464.368 20.732C428.758 19.2353 395.167 26.0827 364.495 45.2404C338.835 61.255 318.636 81.9841 304.721 109.037C298.1 121.946 290.057 122.844 279.359 113.527C277.078 111.544 275.32 109.037 273.3 106.754C253.475 84.1543 227.179 72.0311 199.124 65.034C173.988 58.7479 148.477 62.5645 123.939 69.9357V69.8984Z" fill="black"/>
<path d="M455.39 155.21C456.774 155.434 460.515 156.033 464.218 156.519C486.512 159.55 492.459 163.816 496.013 179.344C501.885 205.125 498.182 217.023 479.928 228.697C467.771 236.48 455.278 243.702 439.717 239.511C418.92 233.898 404.518 214.105 406.538 193.787C408.67 172.534 429.057 155.584 455.353 155.172L455.39 155.21ZM466.163 198.651C459.206 193.45 454.492 187.8 452.211 188.661C446.637 190.756 442.149 195.845 437.248 199.736C440.989 203.553 445.066 210.775 448.358 210.438C453.52 209.914 458.196 204.301 466.163 198.651Z" fill="black"/>
<path d="M111.146 288.303C85.1866 287.854 66.783 271.727 66.8204 249.426C66.8204 227.537 88.7028 206.92 111.67 207.145C133.515 207.369 158.165 227.126 155.846 244.487C151.993 273.448 140.622 288.153 111.146 288.303ZM120.946 239.885C111.445 241.681 104.076 243.065 96.1464 244.562C97.2686 255.189 100.747 261.55 109.912 260.465C118.552 259.417 121.545 252.719 120.946 239.885Z" fill="black"/>
<path d="M305.47 575.218C291.368 575.181 279.585 564.854 279.435 552.469C279.248 538.213 294.061 525.304 310.033 525.79C323.948 526.239 334.496 535.145 334.945 546.894C335.506 560.925 320.544 575.256 305.432 575.218H305.47Z" fill="black"/>
<path d="M330.865 397.524C328.247 394.007 321.963 389.03 320.766 383.043C318.858 373.502 327.125 370.359 335.129 370.097C342.087 369.872 349.045 371.556 349.568 380.574C350.055 388.731 342.087 397.524 330.828 397.561L330.865 397.524Z" fill="black"/>
<path d="M234.698 388.207C246.892 389.479 253.513 392.697 252.952 402.388C252.541 409.385 248.089 413.763 240.795 412.678C232.716 411.48 225.646 406.916 226.207 398.235C226.469 394.156 232.641 390.452 234.661 388.207H234.698Z" fill="black"/>
</svg>
