<svg width="629" height="729" viewBox="0 0 629 729" fill="none" xmlns="http://www.w3.org/2000/svg">
<path d="M13.0042 239.376C20.7097 238.815 26.5824 237.767 32.4177 237.991C108.052 241.172 183.686 244.502 259.32 247.832C263.098 247.982 266.876 248.506 270.654 248.543C282.362 248.655 286.477 255.129 286.253 266.092C285.654 294.155 285.168 322.18 285.055 350.243C284.943 376.66 285.355 403.114 285.542 430.952L328.072 435.293C334.431 455.199 331.177 473.982 330.466 492.653C330.017 504.141 323.883 508.369 312.81 508.294C277.948 508.069 243.086 508.294 208.262 508.331C196.89 508.331 185.556 508.256 174.185 508.481C164.198 508.668 158.624 513.944 158.475 524.009C158.288 536.058 158.475 548.106 158.55 563.335C269.046 569.06 378.42 571.267 489.552 573.325C496.061 555.29 492.283 538.078 491.011 521.353C490.787 518.621 481.809 514.842 476.722 514.543C445.713 512.709 414.666 511.923 383.657 510.427C373.183 509.94 362.71 508.369 351.226 507.209C345.092 486.367 349.618 466.199 351.263 446.219C351.563 442.627 357.548 438.324 361.812 436.565C367.946 434.058 374.941 433.609 383.171 431.963C390.951 371.945 381.412 311.217 389.492 249.441C469.652 248.805 547.755 252.509 628.477 254.193C627.168 283.828 625.784 310.132 624.848 336.436C621.893 417.482 619.649 498.528 616.058 579.536C613.702 632.931 587.405 690.067 519.477 715.324C494.228 724.715 468.829 729.729 441.71 728.42C347.897 723.817 253.784 723.069 160.308 715.099C68.0279 707.242 17.5677 659.46 6.3834 576.019C1.55807 540.136 -0.53665 503.542 0.361086 467.359C2.08175 399.933 6.83225 332.582 10.4606 265.194C10.9095 256.999 12.0691 248.843 13.0416 239.339L13.0042 239.376Z" fill="black"/>
<path d="M620.286 241.808C583.665 241.434 548.953 241.284 514.241 240.61C480.239 239.974 446.275 238.777 412.273 237.804C393.944 237.28 392.186 235.522 392.074 216.364C391.999 205.027 392.971 193.652 392.485 182.314C391.7 163.905 388.969 161.51 371.014 160.874C349.88 160.126 328.746 159.452 307.612 158.891C291.303 158.479 287.375 161.623 285.617 177.712C284.308 189.76 283.822 201.884 283.261 214.007C282.4 231.705 281.316 232.902 262.912 232.229C243.237 231.518 223.561 230.358 203.886 229.572C144.112 227.178 84.3 224.858 24.5258 222.388C20.1119 222.201 15.698 221.079 10.162 220.218C4.36413 185.457 7.46882 151.595 21.7578 120.389C35.8971 89.482 55.161 61.3442 80.2228 37.3597C110.484 8.32391 148.002 1.40171 187.166 0.877871C220.457 0.391446 253.785 3.08549 287.113 4.35768C339.369 6.37821 391.775 6.49046 443.806 10.9805C485.326 14.5352 526.248 24.4133 561.185 49.3707C587.818 68.4161 608.204 92.9618 613.702 126.188C618.64 155.973 621.483 186.131 624.251 216.214C624.961 223.997 621.932 232.117 620.323 241.808H620.286Z" fill="black"/>
</svg>
