<svg width="450" height="511" viewBox="0 0 450 511" fill="none" xmlns="http://www.w3.org/2000/svg">
<path d="M103.974 445.274C124.929 445.274 144.502 445.349 164.075 445.237C169.342 445.237 174.646 444.9 179.875 444.189C189.699 442.88 193.957 437.306 193.733 427.094C193.322 408.951 192.65 390.659 194.256 372.628C195.713 356.505 188.728 346.779 176.14 339.148C159.331 328.973 142.448 318.91 125.788 308.436C111.034 299.159 106.365 284.682 112.603 269.457C118.766 254.457 126.834 251.576 140.953 260.105C148.723 264.819 155.559 271.066 163.403 275.555C172.293 280.642 181.855 284.533 194.929 290.78C197.954 232.162 195.937 177.771 195.825 121.621C183.386 120.574 173.749 119.003 164.187 119.115C153.429 119.227 144.801 122.968 137.181 132.358C119.401 154.204 95.8311 164.005 67.032 161.947C32.331 159.478 9.28418 140.587 2.22446 105.985C-5.80643 66.6319 8.20087 46.2072 39.5027 29.1118C80.8151 6.51748 129.523 23.7251 151.113 65.6593C160.078 83.0913 162.618 83.7647 194.779 76.545C195.638 65.36 196.908 53.5766 197.394 41.7183C197.842 29.8974 197.506 18.0765 197.506 5.80669C209.16 3.74926 219.32 1.50486 229.555 0.270404C244.085 -1.45036 254.731 7.00378 255.926 21.8547C256.86 33.9 255.777 46.1324 256.3 58.2526C257.009 74.6746 259.885 77.0687 275.387 75.1609C281.363 74.4127 287.228 72.9538 293.615 71.7193C298.733 61.5818 303.476 51.2947 309.005 41.4938C318.268 25.1092 332.948 16.019 351.363 14.6723C374.335 13.0264 396.784 16.842 417.553 27.3537C442.99 40.222 452.104 61.6193 449.601 89.4507C446.949 119.078 425.845 147.321 398.764 155.999C365.221 166.735 329.773 160.002 312.479 134.041C299.218 114.177 284.09 111.858 264.256 116.384C262.052 116.871 259.923 117.507 257.756 118.18C257.047 118.404 256.486 118.928 253.349 120.911C252.004 173.431 250.585 227.56 249.165 283.41C265.376 280.867 273.407 267.4 285.622 261.19C293.316 257.262 299.293 245.628 309.079 251.651C318.978 257.749 328.279 266.352 334.89 275.891C341.315 285.131 334.255 299.87 321.481 308.324C304.485 319.584 287.676 331.255 269.859 341.056C255.142 349.136 249.725 360.284 250.958 376.406C252.564 397.355 253.311 418.378 254.507 440.972C275.387 440.972 293.316 440.972 311.246 440.972C335.936 440.972 336.384 441.346 339.634 465.287C340.755 473.555 342.286 481.784 342.697 490.089C343.332 502.396 339.634 506.735 327.42 507.596C317.633 508.269 307.735 507.596 297.911 507.745C240.462 508.344 182.976 508.157 125.564 509.99C99.6411 510.813 93.2911 503.369 95.1214 475.425C95.6817 466.672 100.127 458.143 104.049 445.386L103.974 445.274ZM374.522 62.4048C359.17 61.9559 344.116 75.4976 344.079 89.7874C344.042 103.329 354.762 113.99 368.508 113.99C385.167 113.99 398.278 102.207 398.727 86.7947C399.1 73.3653 388.604 62.7788 374.522 62.3674V62.4048ZM78.9102 117.843C93.8887 117.955 106.365 105.461 106.14 90.4981C105.991 78.4902 94.9346 70.3727 78.4246 70.1108C63.9316 69.8864 57.5442 77.3306 56.9466 95.1741C56.461 109.277 64.6413 117.731 78.9102 117.843Z" fill="black"/>
</svg>
