<svg width="681" height="629" viewBox="0 0 681 629" fill="none" xmlns="http://www.w3.org/2000/svg">
<path d="M0 313.07C2.77277 300.288 2.55751 258.839 12.8948 250.344C6.78396 196.086 64.4735 127.184 99.9542 91.0208C145.584 44.502 211.161 15.5929 274.746 4.50934C379.573 -13.7746 539.908 23.8719 599.186 122.842C632.217 132.308 656.176 207.196 664.979 233.463C680.701 280.494 686.192 324.855 675.37 373.693C652.219 478.326 567.044 569.611 467.871 605.532C356.152 646.01 248.822 630.584 146.795 569.962C49.2368 512.009 17.3634 419.511 0 313.07ZM124.505 248.402C156.998 295.083 231.082 299.937 252.699 239.045V200.077C241.231 193.874 242.173 174.889 225.671 173.271C219.452 157.954 201.174 169.334 192.963 158.439C162.516 166.745 150.618 177.074 125.205 193.632C120.01 217.309 118.798 222.46 124.478 248.429L124.505 248.402ZM386.734 512.386C394.11 494.552 397.699 476.744 397.502 458.964C391.983 448.231 387.245 439.008 382.911 430.567C369.558 423.771 357.283 417.515 341.939 409.694C302.07 412.31 289.956 426.576 264.166 456.914V481.374C276.63 505.833 285.164 516.431 307.212 532.747C342.961 532.747 357.148 531.56 386.734 512.386ZM418.553 221.165C430.021 230.119 424.072 241.067 425.983 252.313C439.012 263.828 453.118 276.314 464.64 286.48H506.555C528.27 274.291 544.027 260.475 553.826 245.032V206.145C522.653 176.885 516.031 167.581 468.463 163.941C440.466 181.523 432.713 191.151 418.526 221.165H418.553ZM305.839 321.403H282.795C272.539 328.981 274.8 337.988 276.065 347.723C282.365 351.364 288.879 355.112 295.259 358.78C301.989 354.303 308.396 350.043 314.184 346.186C313.592 336.694 316.553 327.794 305.866 321.403H305.839ZM382.211 338.905C378.281 323.695 372.304 313.906 356.556 314.742C350.041 321.727 339.516 326.176 342.315 340.388C346.892 344.757 352.491 350.123 357.068 354.492C370.474 355.059 374.269 345.242 382.211 338.905Z" fill="black"/>
</svg>
