<svg width="566" height="699" viewBox="0 0 566 699" fill="none" xmlns="http://www.w3.org/2000/svg">
<path d="M0.0749339 119.113C6.5191 113.617 11.3147 108.085 17.3093 104.646C66.0527 76.8706 115.021 49.4319 163.952 21.9559C173.131 16.7971 182.385 11.6757 191.676 6.70387C204.003 0.087187 215.954 5.09642 219.102 19.0774C220.713 26.3296 220.001 34.1051 220.038 41.6938C220.113 56.8336 220.038 71.9735 219.851 87.1133C219.701 97.2066 224.047 103.375 234.463 103.15C261.738 102.515 289.013 101.618 316.251 100.347C328.165 99.786 330.638 91.973 330.039 81.3191C329.065 63.1886 328.615 45.0208 328.765 26.853C328.84 16.4233 344.463 0.124569 354.616 0.0498047C359.3 0.0498047 364.732 2.74133 368.591 5.80669C422.805 48.9833 484.661 76.721 550.639 96.3468C555.997 97.9542 560.792 101.506 566 104.234C560.83 121.954 545.768 126.477 534.903 135.187C504.293 159.71 473.534 184.046 442.737 208.307C439.252 211.036 435.094 212.905 431.534 215.522C412.726 229.428 393.956 243.372 375.298 257.54C366.118 264.493 364.657 273.763 369.341 283.894C383.315 314.099 397.065 344.416 411.64 374.322C428.874 409.686 446.895 444.676 464.504 479.853C470.611 492.002 476.981 504.076 482.488 516.487C490.131 533.721 489.082 536.935 474.171 549.309C433.37 583.177 392.382 616.821 351.806 650.989C337.907 662.69 325.355 675.998 311.643 687.923C295.27 702.128 290.512 700.857 272.903 687.437C243.38 664.97 212.657 644.073 182.984 621.756C150.913 597.644 119.329 572.897 87.9329 547.888C72.0847 535.253 71.785 529.534 81.2639 510.842C97.3743 479.105 112.511 446.844 129.295 415.48C142.146 391.481 157.02 368.603 170.92 345.164C175.154 337.986 179.725 330.921 183.134 323.333C193.7 299.819 189.541 286.287 169.796 269.502C118.505 225.989 67.5888 181.99 16.7099 137.991C11.1274 133.168 6.78136 126.888 0 119.113H0.0749339ZM220.413 134.252C219.776 147.112 219.064 155.336 218.989 163.56C218.802 190.812 218.764 218.064 218.877 245.316C219.102 297.576 219.364 349.799 219.926 402.06C220.113 419.443 223.672 423.069 241.506 423.592C263.499 424.228 285.529 423.816 307.522 424.19C337.794 424.714 343.227 419.443 342.627 389.013C342.627 387.518 342.14 386.023 342.065 384.49C339.967 340.678 337.719 296.828 335.846 252.979C334.31 216.681 333.111 180.345 331.987 144.009C331.687 133.991 330.226 125.131 317.3 126.141C285.716 128.608 254.132 131.411 220.338 134.252H220.413ZM124.687 544.262C123.788 545.683 122.926 547.141 122.027 548.561C170.958 584.673 214.231 628.522 273.765 658.017C273.765 621.382 274.027 589.196 273.54 557.047C273.427 549.683 268.782 544.3 260.352 544.262C215.13 544.262 169.871 544.262 124.65 544.262H124.687ZM298.68 545.309V659.998C326.817 643.849 344.875 621.532 366.381 603.551C387.961 585.532 411.49 569.57 432.284 545.346C386.275 539.365 343.751 543.29 298.68 545.309ZM269.906 518.805C269.906 497.273 270.28 479.292 269.606 461.348C269.456 457.535 265.822 451.031 263.124 450.657C242.443 447.778 221.125 440.937 202.017 456.302C181.935 472.451 161.629 488.301 141.697 504.637C138.25 507.478 136.189 512.039 131.319 518.842H269.943L269.906 518.805ZM295.42 450.657C295.083 468.787 294.146 484.488 294.708 500.151C295.345 517.272 297.593 519.216 315.352 519.253C350.195 519.328 385.039 518.992 419.882 518.543C424.004 518.506 428.125 516.749 435.955 514.917C429.586 508.525 426.139 503.927 421.681 500.749C406.882 490.245 389.422 482.395 377.171 469.572C354.392 445.722 327.453 448.563 295.383 450.657H295.42ZM184.483 34.5911C144.994 57.3196 109.064 78.0294 70.6985 100.122C88.0453 101.618 101.196 103.263 114.421 103.823C133.267 104.646 152.112 105.057 170.995 104.87C178.638 104.795 187.218 102.702 187.93 93.2814C189.316 75.5622 190.403 57.6934 184.483 34.6285V34.5911ZM186.319 152.682C163.877 165.915 147.841 181.242 132.63 197.503C125.024 205.615 129.108 213.092 136.264 218.811C148.028 228.269 160.13 237.39 172.419 246.175C176.24 248.904 181.148 250.063 187.855 252.904C189.054 218.774 191.489 187.597 186.319 152.645V152.682ZM367.542 91.973C388.223 96.1225 434.756 91.5992 453.152 83.3003C424.341 66.5156 396.916 50.5534 367.804 33.5444C362.672 54.8524 365.219 73.6183 367.542 91.9357V91.973ZM375.035 151.448L368.666 153.841C366.268 176.981 365.407 200.12 369.978 227.933C385.826 216.157 398.114 206.999 412.202 196.532C398.489 179.934 386.762 165.691 375.035 151.486V151.448ZM121.128 480.675L124.5 483.441C128.883 481.31 133.829 479.89 137.575 476.974C150.651 466.731 163.614 456.339 176.053 445.349C186.918 435.741 187.18 430.583 178.9 423.031C167.024 412.19 157.245 411.218 150.314 423.031C139.374 441.573 130.757 461.423 121.128 480.75V480.675ZM91.9043 176.943C90.3682 158.028 98.8355 142.738 84.8981 131.897C76.9553 125.729 48.6684 129.056 41.3625 135.374C55.6371 149.542 68.7877 164.831 91.9043 176.943ZM429.249 479.479C430.822 478.208 432.396 476.937 433.97 475.666C429.811 466.245 425.877 456.75 421.418 447.479C410.928 425.648 398.939 424.414 379.831 445.236C396.503 456.788 412.876 468.114 429.249 479.479ZM369.453 352.715C370.24 372.789 366.418 393.088 374.436 412.676C383.54 410.658 390.396 409.162 398.751 407.331C391.071 386.172 383.24 368.229 369.453 352.752V352.715ZM415.124 123.038C404.521 124.533 396.354 125.692 385.114 127.299C394.855 140.421 400.213 151.486 415.124 157.243V123.038ZM475.819 148.047C486.797 139.449 496.725 135.636 502.158 122.963C487.808 124.309 475.744 125.43 460.308 126.888C466.153 134.888 470.274 140.495 475.819 148.047ZM190.215 367.145C188.304 366.771 186.394 366.36 184.52 365.986C179.725 374.098 174.929 382.247 168.635 392.901C178.189 395.331 184.071 396.826 193.812 399.331C192.351 386.135 191.302 376.64 190.215 367.145ZM131.356 129.318C131.281 141.878 138.737 146.701 146.155 147.71C153.723 148.719 160.018 143.748 159.868 131.935C150.614 131.112 141.584 130.29 131.356 129.355V129.318Z" fill="black"/>
</svg>
