<svg width="653" height="641" viewBox="0 0 653 641" fill="none" xmlns="http://www.w3.org/2000/svg">
<path d="M139.979 501.775C143.898 484.415 153.938 476.985 170.173 472.878C217.312 460.931 262.398 443.123 306.327 418.631C297.034 403.399 282.926 394.289 270.199 383.947C259.935 375.622 249.596 367.109 238.325 360.277C219.103 348.629 217.275 332.463 222.089 312.638C228.882 284.749 234.443 256.562 240.34 228.486C241.348 223.632 241.385 218.593 242.318 209.11C235.152 215.382 230.972 218.779 227.091 222.475C212.796 236.252 199.098 250.7 184.281 263.842C172.972 273.885 167.224 272.578 155.542 263.02C108.665 224.715 68.0199 180.101 26.5167 136.344C20.769 130.296 12.5954 126.562 6.17588 121.074C3.26469 118.61 0.57737 114.504 0.278786 110.882C0.092171 108.903 4.83219 106.141 7.74338 104.349C9.49756 103.266 12.0355 103.079 14.2002 103.154C35.3996 103.826 51.8964 92.4387 69.0276 82.321C94.9671 67.0138 121.354 52.4535 147.331 37.1836C158.155 30.8368 167.822 31.0233 178.048 38.4529C201.823 55.7015 225.859 72.5396 249.82 89.5268C255.045 93.2229 260.271 96.919 268.22 102.557C272.923 82.7319 276.357 65.5953 281.172 48.8694C285.576 33.6742 278.298 14.783 296.325 0.894531C306.178 35.2797 338.164 37.2582 362.536 49.6533C367.612 52.2293 376.98 49.7655 382.802 46.6668C395.007 40.1332 406.166 31.6582 417.4 24.2286C428.261 28.0368 427.627 36.5862 428.299 44.5758C430.24 67.3126 432.068 90.0494 434.382 112.786C435.129 119.917 437.294 126.899 438.637 133.134C450.394 136.755 454.574 129.288 460.061 123.277C480.812 100.466 501.414 77.5051 523.024 55.4777C534.819 43.4559 540.193 44.2775 553.07 55.1792C582.219 79.932 611.368 104.647 640.517 129.437C652.946 140.003 655.558 149.486 647.497 164.457C626.82 203.061 597.931 235.505 568.036 267.09C560.497 275.043 552.435 274.594 544.523 268.397C525.451 253.463 506.565 238.268 487.717 223.073C476.408 213.963 465.286 204.667 449.946 197.424C452.111 212.955 453.679 228.598 456.515 243.98C462.412 275.826 468.682 307.598 475.512 339.258C477.864 350.197 474.915 358.112 466.182 364.16C452.895 373.382 439.309 382.155 426.097 391.489C414.265 399.814 402.807 408.625 387.654 419.863C446.326 452.008 503.243 478.516 561.056 510.437C564.714 517.941 557.399 521.787 549.636 527.424C496.824 565.692 438.189 593.096 379.406 620.313C369.403 624.942 358.729 628.787 349.808 635.06C338.014 643.385 326.892 641.519 317.002 634.35C258.666 592.088 200.74 549.265 142.741 506.554C141.658 505.77 141.248 504.09 139.979 501.813V501.775ZM298.564 43.6798C293.749 66.3419 289.868 85.5322 285.576 104.647C282.515 118.312 279.044 131.528 284.307 145.79C285.911 150.083 282.515 156.692 280.425 161.806C275.461 173.903 267.959 185.29 264.936 197.797C255.456 237.11 247.879 276.872 238.885 316.297C235.824 329.625 239.743 338.735 250.417 346.725C266.877 359.045 282.553 372.448 298.9 384.881C312.635 395.334 326.892 405.116 344.135 417.474C346.114 384.096 348.278 355.05 349.473 326.004C352.123 262.162 354.287 198.32 356.639 134.478C357.198 119.059 357.609 103.602 358.281 88.1828C358.803 76.5717 353.989 68.3583 343.352 63.6168C330.065 57.6806 316.778 51.8188 298.564 43.7172V43.6798ZM364.327 411.911C372.352 407.991 377.726 406.124 382.242 403.025C402.098 389.211 421.245 374.39 441.511 361.211C453.044 353.744 457.299 345.045 454.873 331.754C447.221 289.827 440.354 247.751 432.441 205.899C429.344 189.434 422.626 173.567 420.498 157.065C417.065 130.259 416.355 103.117 413.855 76.1985C413.22 69.4783 410.272 62.9818 408.368 56.2989C387.816 63.6912 377.141 76.7333 376.345 95.4255C376.009 102.78 375.3 110.098 374.927 117.453C371.68 181.22 368.47 244.988 365.26 308.793C364.924 315.401 364.364 322.009 364.327 328.58C364.215 354.864 364.29 381.147 364.29 411.986L364.327 411.911ZM489.695 515.776C480.961 513.76 476.931 512.49 472.825 511.93C438.6 507.562 404.3 503.679 370.149 498.901C344.061 495.242 318.308 489.791 291.547 493.412C277.178 495.354 262.361 493.748 247.73 493.898C232.988 494.047 217.984 493.151 201.226 503.866C247.805 521.338 290.875 537.803 334.245 553.484C340.739 555.836 349.062 556.545 355.631 554.716C398.664 542.731 441.474 529.851 489.695 515.701V515.776ZM173.831 108.642C161.066 110.098 149.235 110.472 137.889 112.973C115.308 117.976 102.432 148.777 116.689 167.146C125.796 178.869 139.568 187.157 151.922 196.08C154.572 197.984 160.805 197.2 164.201 195.37C176.294 188.949 188.088 181.855 199.583 174.388C203.652 171.737 207.869 167.706 209.661 163.375C218.208 142.281 195.403 109.015 173.868 108.679L173.831 108.642ZM342.642 617.475C357.646 610.718 367.798 606.499 377.651 601.683C411.989 584.845 446.288 567.932 480.401 550.684C485.403 548.182 489.322 543.59 495.741 538.363C490.031 537.392 488.464 536.608 487.232 536.944C441.25 549.75 395.268 562.444 349.435 575.847C345.591 576.967 340.888 582.679 340.59 586.599C339.881 595.634 341.635 604.819 342.642 617.475ZM484.134 495.839C484.432 494.196 484.768 492.554 485.067 490.874C448.416 471.497 411.765 452.12 374.628 432.482C355.706 441.33 355.108 441.816 353.28 450.739C349.249 470.227 355.556 480.345 375.375 483.22C408.032 487.924 440.802 491.695 473.534 495.727C477.005 496.175 480.588 495.801 484.134 495.801V495.839ZM192.679 520.106C209.773 543.03 302.483 605.752 322.04 611.128C322.339 605.117 322.451 599.405 322.973 593.693C324.541 575.772 316.89 565.02 299.647 558.934C270.609 548.63 242.169 536.72 213.356 525.781C206.712 523.242 199.583 521.973 192.641 520.144L192.679 520.106ZM229.405 96.8816C207.421 81.8357 187.416 67.798 166.926 54.4696C163.865 52.4908 158.118 52.1176 154.721 53.6109C129.528 64.6246 104.261 75.7878 82.1281 97.5912C89.3687 98.1885 94.1461 99.2337 98.7742 98.8231C111.165 97.815 123.557 96.6204 135.836 94.7537C164.873 90.3109 193.836 85.4574 221.977 98.8978C222.91 99.3458 224.59 98.263 229.33 96.919L229.405 96.8816ZM586.847 164.644C586.809 141.31 571.955 127.384 547.247 127.534C523.323 127.683 508.73 140.526 509.401 160.798C509.961 177.076 534.856 198.842 552.286 198.282C568.708 197.76 586.884 180.063 586.847 164.644ZM228.285 472.953C228.695 474.633 229.106 476.276 229.516 477.956C264.339 478.18 299.348 481.54 335.812 471.198C335.812 462.238 336.484 453.576 335.626 445.064C334.618 434.573 328.982 430.914 318.98 434.984C288.599 447.267 258.479 460.259 228.248 472.953H228.285ZM473.795 178.644C472.676 180.474 471.556 182.303 470.436 184.132C498.727 206.683 523.286 233.825 556.018 252.641C576.247 233.638 594.461 215.755 604.837 191.301C594.05 195.669 584.906 201.605 575.911 207.728C561.355 217.697 546.724 221.057 530.862 210.155C524.853 206.011 517.762 203.472 511.305 199.888C498.727 192.906 486.298 185.738 473.795 178.644ZM247.917 172.82C246.946 171.738 245.976 170.692 245.006 169.609C241.236 171.663 237.429 173.679 233.734 175.77C212.087 188.053 190.663 200.746 168.755 212.507C157.297 218.63 145.652 221.094 135.089 208.885C130.312 203.36 123.071 200.037 116.95 195.706C115.868 197.237 114.786 198.768 113.741 200.336C132.253 217.958 149.496 237.073 174.726 248.46C203.353 226.544 225.56 199.552 247.991 172.82H247.917ZM591.885 114.802C571.469 96.6578 554.674 81.7612 538.252 67.1634C511.454 84.1506 496.749 100.727 491.636 120.178C508.058 117.005 523.696 112.338 539.521 111.405C555.122 110.471 570.947 113.272 591.885 114.84V114.802ZM60.5553 120.664C60.1074 122.568 59.6596 124.509 59.2117 126.413C68.8783 133.507 78.5077 140.563 90.7497 149.523C93.8848 137.763 96.2362 129.064 99.6699 116.258C84.2182 117.976 72.3867 119.32 60.5553 120.626V120.664ZM229.293 154.004C243.363 152.062 251.724 146.163 259.337 133.47C246.984 129.139 236.645 125.518 222.388 120.515C225.187 134.03 227.128 143.401 229.293 154.004ZM491.561 164.831V142.056C481.558 143.326 472.9 142.131 466.629 153.182C474.617 156.916 481.335 160.052 491.561 164.831ZM607.859 162.59C612.973 157.625 616.444 154.265 622.528 148.329C613.831 146.574 608.979 145.603 601.515 144.11C603.978 151.315 605.471 155.646 607.859 162.59Z" fill="black"/>
<path d="M141.545 153.816C141.172 139.667 148.338 132.648 163.417 132.349C176.405 132.088 182.712 138.099 182.712 150.755C182.712 163.374 174.763 172.484 163.118 173.268C150.316 174.127 141.881 166.51 141.545 153.816Z" fill="black"/>
<path d="M545.68 180.996C536.798 180.772 530.751 172.11 531.199 160.312C531.61 149.411 539.41 142.803 551.914 142.728C562.065 142.653 570.276 152.211 569.455 163.15C568.671 173.417 558.184 181.295 545.68 180.996Z" fill="black"/>
</svg>
