<svg width="594" height="548" viewBox="0 0 594 548" fill="none" xmlns="http://www.w3.org/2000/svg">
<path d="M265.001 316.784C269.602 306.906 267.806 301.593 259.053 300.582C245.887 299.048 232.645 297.963 219.441 297.402C198.381 296.467 193.706 292.463 192.621 271.172C192.135 261.594 192.621 251.977 193.07 242.398C193.706 228.516 197.334 225.448 210.725 227.095C216.373 227.768 221.947 228.928 229.091 230.126C236.161 199.219 233.43 169.734 233.468 136.433C190.114 153.57 168.644 191.287 136.475 217.03C88.3714 184.102 49.2823 142.981 8.65975 103.693C4.80696 99.9509 3.31081 93.7771 0.318359 87.8652C5.36812 84.7595 8.84703 82.2526 12.6624 80.3817C44.6442 64.7039 73.9328 45.0971 100.491 21.3371C123.458 0.757635 127.46 0.720273 154.766 16.2484C180.352 30.8038 206.162 44.91 235.114 61.0368C237.957 43.0765 240.425 27.5858 243.231 10.0745C247.907 9.06423 253.368 7.0063 258.866 6.81922C287.631 5.77153 316.396 5.47241 345.124 4.23764C356.233 3.78864 361.208 8.69004 363.303 18.9424C365.66 30.3921 368.801 41.6549 372.355 56.1728C381.482 51.6454 389.45 48.5393 396.519 44.0492C415.783 31.8138 435.047 19.4291 453.6 6.14596C462.017 0.121778 470.62 -1.59945 478.101 4.23764C512.925 31.44 553.884 50.186 585.081 82.29C587.55 84.8344 589.42 88.0149 593.123 93.0288C585.642 102.084 578.685 111.326 570.829 119.819C547.825 144.739 524.035 168.986 501.404 194.242C487.789 209.396 473.425 211.305 456.368 201.427C433.401 188.106 410.359 174.935 387.317 161.727C382.978 159.257 378.452 157.05 370.634 152.971C370.26 162.213 369.4 169.098 369.812 175.908C370.821 192.858 372.954 209.733 373.552 226.683C373.964 237.684 378.751 241.725 389.337 243.708C409.648 247.45 420.01 268.366 411.182 287.299C409.162 291.602 402.691 295.606 397.753 296.354C386.906 297.963 375.684 297.065 364.65 297.776C348.565 298.786 346.283 303.463 353.166 322.471C368.165 315.25 382.455 320.414 397.043 325.54C430.409 337.251 463.999 348.401 497.477 359.814C512.552 364.94 513.973 370.515 503.612 383.574C501.33 386.455 498.973 389.336 496.355 391.956C488.2 400.112 488.013 408.644 494.672 417.736C495.981 419.495 496.841 421.59 497.926 423.535C508.886 443.18 507.539 448.343 489.547 462.113C460.707 484.189 428.651 500.802 396.519 517.266C382.081 524.675 366.445 530.1 353.016 539.005C335.361 550.717 318.641 548.958 301.135 540.727C271.135 526.583 241.248 512.102 211.137 498.183C182.372 484.863 153.345 472.066 124.468 458.97C106.7 450.887 105.69 448.231 118.483 434.798C125.964 426.94 127.273 420.131 120.952 411.525C118.333 407.97 115.827 404.228 113.844 400.299C107.86 388.438 108.57 384.023 119.942 376.315C133.969 366.811 148.482 357.943 163.145 349.45C179.716 339.871 197.035 331.527 213.493 321.723C229.989 311.92 246.485 305.858 264.926 316.821L265.001 316.784ZM54.8931 80.0076C71.3516 75.8543 82.8354 65.0781 92.5983 51.9447C78.9452 59.8397 64.2823 66.4625 55.2675 80.4192C32.5997 85.3583 31.2529 86.4058 31.7392 101.822C40.5295 93.5151 47.7112 86.7802 54.8931 80.0076ZM227.932 79.7829C210.426 66.0508 191.574 54.7882 169.804 48.5021C180.202 58.53 191.199 67.8467 203.581 74.5444C210.613 78.361 219.965 77.8746 228.269 79.3339C229.391 87.1916 231.186 93.9268 222.471 100.55C200.85 117.013 180.651 135.31 159.591 152.559C155.028 156.301 149.455 158.733 142.834 162.662C135.839 137.742 151.774 113.833 135.166 89.2496C132.099 97.5937 129.555 102.009 128.919 106.686C127.498 116.901 127.273 127.266 126.151 137.518C125.216 145.937 129.255 156.9 119.38 161.577C109.019 166.516 104.044 155.815 97.4607 150.539C92.8598 146.835 88.6331 142.644 83.9574 139.089C76.2144 133.215 68.1723 127.64 60.2797 121.952C59.4194 123.187 58.5963 124.422 57.736 125.657C81.3389 150.614 106.027 174.262 136.288 192.708C139.58 190.389 142.722 188.592 145.415 186.235C171.524 163.523 197.371 140.474 223.705 117.986C236.685 106.91 244.802 109.23 245.513 125.32C246.971 158.397 247.682 191.66 245.699 224.663C244.353 247.263 240.35 248.385 217.645 246.589C216.411 246.477 215.101 247.824 213.83 248.535C206.236 276.261 209.603 281.013 237.583 281.799C240.538 281.874 243.493 281.948 246.448 282.135C283.143 284.53 287.444 289.02 288.23 325.764C288.23 326.512 288.379 327.223 288.342 327.972C288.043 341.068 282.469 345.109 269.714 340.956C265.562 339.609 261.447 337.588 257.856 335.081C245.849 326.737 234.366 328.907 222.658 335.717C196.511 350.909 170.177 365.801 144.143 381.179C139.505 383.948 135.914 388.513 132.286 391.881C141.861 409.791 144.393 427.489 139.879 444.975C149.343 449.391 159.18 453.918 168.98 458.558C215.663 480.672 262.27 502.86 308.99 524.899C320.212 530.212 331.022 530.175 342.805 524.263C384.961 503.197 428.8 485.499 466.916 456.762C485.694 442.581 487.602 442.169 475.595 421.74C467.141 407.371 467.216 395.66 479.335 384.061C481.28 382.19 482.328 379.383 484.684 375.492C478.512 372.536 473.575 369.654 468.3 367.746C447.466 360.263 426.369 353.491 405.609 345.708C387.504 338.935 370.485 331.302 351.445 345.109C342.954 351.283 335.959 346.493 334.201 335.904C332.518 325.727 331.62 315.399 330.835 305.11C329.525 288.422 331.471 285.802 348.116 284.194C363.939 282.659 379.874 282.023 398.315 280.863C396.856 272.519 395.696 265.896 394.275 257.889H360.011C356.196 216.169 352.193 176.02 349.201 135.834C348.528 126.854 356.233 123.262 364.724 127.715C373.216 132.13 381.108 137.63 389.412 142.457C414.212 156.975 439.162 171.231 463.887 185.898C473.65 191.698 482.59 190.613 490.033 182.905C517.601 154.393 544.833 125.544 571.802 97.182C559.795 78.9598 490.258 28.7459 466.991 22.3849C497.365 46.7436 524.596 68.5576 553.024 91.3447C527.663 114.169 509.185 139.538 480.57 162.737C479.597 144.44 478.924 131.531 478.176 118.66C477.652 109.866 477.914 100.849 476.044 92.3176C475.221 88.5385 470.096 85.6947 466.954 82.4019C464.56 86.2933 460.296 90.0355 460.034 94.0766C458.949 110.203 459.847 126.517 458.538 142.607C456.967 162.101 449.336 166.179 432.204 156.563C413.576 146.086 395.359 134.712 377.479 123C360.46 111.85 360.385 106.798 374.674 92.43C380.36 86.7051 389.038 82.8512 389.337 71.9254C385.671 72.2996 383.577 72.4491 381.52 72.7484C361.695 75.7418 358.889 74.1705 353.353 54.6761C351.37 47.6416 351.034 40.158 349.313 33.0113C347.518 25.5279 344.188 18.4187 335.024 18.6058C310.187 19.0548 285.387 20.0275 259.315 20.8132C257.594 34.2835 256.061 45.0971 254.864 55.9481C252.208 79.7829 252.283 79.8206 228.007 79.5586L227.932 79.7829ZM526.616 90.7089C503.499 73.1976 481.505 56.5094 460.37 40.4948C437.254 50.7471 399.063 87.4909 390.16 106.985C409.985 124.759 424.835 133.739 440.583 137.069C441.219 133.552 442.453 130.034 442.416 126.517C442.304 111.812 441.93 97.1444 441.443 82.4394C441.219 75.7043 440.172 66.5373 448.401 66.2753C459.847 65.9012 472.079 67.8092 482.59 72.1496C487.34 74.1328 489.958 84.0113 491.38 90.7464C493.437 100.437 493.474 110.54 494.522 121.69C511.803 117.874 517.601 105.9 526.691 90.7089H526.616ZM158.207 126.966C174.516 116.639 188.843 109.604 196.399 91.8312C184.167 83.0007 172.309 74.5446 160.564 65.8638C142.385 52.4185 124.655 52.5181 107.373 66.163C93.1592 77.3133 78.6457 88.0147 62.4117 100.362C79.9923 111.513 90.7655 127.228 111.376 131.793C112.012 122.626 112.199 115.292 113.097 108.071C114.181 99.315 114.967 90.297 117.697 81.9904C118.932 78.1738 124.281 73.3844 128.096 73.0851C146.163 71.6632 158.32 84.348 158.17 102.907C158.133 109.904 158.17 116.901 158.17 126.929L158.207 126.966ZM113.171 36.2291C122.747 33.9093 133.033 31.4774 143.245 29.0079C131.874 22.8215 121.849 25.2285 113.171 36.2291Z" fill="black"/>
<path d="M446.418 404.004C444.547 417.773 436.58 423.199 427.303 426.155C387.317 438.952 347.255 451.449 307.044 463.422C301.957 464.919 295.448 463.722 290.099 462.038C257.856 451.935 225.762 441.309 193.63 430.907C187.047 428.774 176.125 430.196 177.696 420.205C178.481 415.341 187.496 409.878 193.742 408.082C220.6 400.337 247.532 392.404 274.988 387.578C287.219 385.445 300.797 392.367 313.628 391.731C325.672 391.132 337.754 382.639 349.35 383.537C375.646 385.632 401.718 391.057 427.752 395.884C434.411 397.119 440.508 401.31 446.418 403.966V404.004ZM231.859 416.538C232.121 418.035 232.382 419.532 232.644 421.028C253.816 428.998 274.95 437.118 296.234 444.714C300.124 446.098 305.174 446.323 309.139 445.2C336.745 437.343 364.275 429.185 391.656 420.617C395.658 419.382 398.838 415.453 406.618 409.616C385.521 405.949 369.661 403.33 353.876 400.449C343.328 398.541 333.415 398.615 324.887 406.585C315.909 414.929 306.745 413.545 296.57 407.783C291.221 404.752 283.778 402.357 278.055 403.555C262.419 406.81 247.233 412.086 231.859 416.538Z" fill="black"/>
</svg>
