<svg width="625" height="483" viewBox="0 0 625 483" fill="none" xmlns="http://www.w3.org/2000/svg">
<path d="M428.498 410.059C435.145 402.954 441.828 395.814 448.722 388.462C446.647 381.005 440.843 384.909 436.763 385.754C401.732 392.753 366.912 396.623 331.67 385.824C323.757 383.397 313.979 384.663 305.608 386.598C280.566 392.366 255.699 394.231 230.446 388.321C226.049 387.301 221.055 388.779 211.981 389.412C233.998 413.929 263.894 415.899 287.846 431.2V463.104C284.153 465.32 282.148 467.465 279.862 467.817C203.153 478.967 134.146 461.626 74.7758 410.763C62.4657 400.21 49.6633 389.13 47.4475 371.226L46.8145 371.648C53.5323 377.206 60.9181 382.13 66.8622 388.427C118.107 442.983 181.944 464.686 255.453 461.556C259.217 461.38 263.613 461.697 266.567 459.903C270.507 457.511 275.185 453.641 276.099 449.667C277.013 445.586 274.868 439.501 271.914 436.265C268.748 432.818 263.226 431.235 258.478 429.582C220.668 416.461 189.014 393.175 158.379 368.412C154.053 364.93 151.661 359.02 147.019 352.267C187.853 342.488 224.713 331.302 256.966 306.61C252.604 299.012 249.79 293.349 246.273 288.178C232.205 267.46 239.556 240.903 267.271 229.435C276.486 225.601 286.158 222.823 295.373 219.657C300.649 203.793 303.111 189.336 296.252 172.241C288.444 175.512 281.41 177.693 275.149 181.21C252.323 193.979 227.316 197.637 201.816 198.974C173.679 200.451 149.586 190.708 129.714 170.693C97.708 138.508 102.632 116.664 146.21 97.5992L145.506 96.9309C136.432 108.75 127.323 120.533 118.283 132.282C124.685 151.206 136.186 163.658 151.028 172.979C160.701 167.703 154.405 161.301 154.58 155.849C154.827 148.251 153.596 140.548 154.651 133.091C158.133 108.926 181.768 92.2526 204.138 97.4937C225.839 102.559 240.118 129.151 232.592 151.452C229.883 159.507 225.522 167 220.527 177.763C255.945 178.08 277.049 152.719 303.462 140.865C314.928 161.336 315.913 188.597 307.015 230.526C288.655 239.073 256.262 228.556 253.941 263.168C261.151 272.032 269.17 266.018 276.24 267.143C295.373 270.168 309.547 282.339 312.537 300.806C316.546 325.639 314.014 349.031 292.313 366.196C288.479 369.221 284.61 372.211 279.264 376.397C300.684 387.372 313.135 374.251 326.254 360.638C339.584 381.99 360.054 383.502 380.348 384.417C388.437 384.769 390.407 378.261 390.091 371.191L389.422 371.824C411.194 369.714 434.09 373.864 454.385 361.166C449.812 350.473 439.647 352.091 432.086 348.82C424.137 345.372 415.66 342.629 412.671 333.096L412.213 333.765C419.6 335.172 427.302 335.735 434.337 338.162C452.626 344.493 470.915 348.186 490.295 344.071C493.495 343.403 497.329 345.759 503.449 347.377C500.846 353.674 500.037 360.603 496.133 364.121C475.699 382.588 457.972 405.452 427.9 409.497L428.393 410.095L428.498 410.059ZM304.518 311.569C270.084 316.459 215.99 338.478 193.727 355.925C214.97 364.262 236.953 367.603 258.654 365.844C290.695 363.241 302.267 350.227 304.518 311.569Z" fill="black"/>
<path d="M374.617 363.488C353.901 358.352 343.033 343.895 337.581 324.338C332.376 305.695 337.792 289.022 348.449 274.108C352.67 268.198 359.176 263.274 365.683 259.827C378.064 253.284 388.123 256.52 398.182 268.691C399.765 270.625 400.644 273.193 402.367 274.987C404.02 276.711 406.377 277.836 408.382 279.208C421.325 263.379 423.717 252.194 415.697 239.601C406.694 225.496 393.188 219.34 376.762 221.31C367.055 222.471 357.594 225.425 347.921 227.606C341.977 194.893 342.47 169.251 349.645 142.623C371.17 152.894 392.449 163.06 412.884 172.804C420.657 164.924 413.798 162.321 411.793 158.522C398.85 134.005 411.477 105.232 437.68 99.4986C450.482 96.6846 465.043 104.353 472.535 117.157C481.82 132.915 477.564 148.884 472.711 164.889C499.019 166.366 504.541 163.166 525.293 134.392C520.579 128.237 516.535 119.971 510.028 115.011C479.604 91.7953 445.066 80.9966 406.764 85.8859C387.032 88.4185 367.618 93.2727 345.846 97.5288C343.841 72.1324 341.344 48.4244 340.535 24.6812C340.359 19.5457 344.967 11.174 349.399 9.45043C365.472 3.22444 382.214 -2.50909 403.141 2.06367C392.203 13.777 379.681 10.4705 369.411 13.7066C356.996 17.6111 352.177 22.0079 351.65 35.0579C351.052 49.9018 347.992 65.414 358.789 81.1021C370.502 79.484 382.882 77.9715 395.157 76.0369C435.675 69.7053 473.238 77.0569 507.566 99.9207C521.389 109.137 533.874 119.478 540.768 137.03C519.208 166.613 489.945 180.437 454.386 184.798C420.34 188.949 390.514 174.351 358.895 164.045C349.997 178.818 352.81 192.044 356.187 207.486C363.256 208.823 370.361 210.159 377.501 211.496C387.349 213.36 397.689 213.958 406.975 217.37C419.742 222.049 426.952 231.862 427.902 246.249C429.661 272.63 423.4 294.404 397.197 303.373C392.906 319.976 409.929 322.755 412.321 333.659L412.778 332.991C387.947 328.348 371.1 310.655 352.248 296.092C352.529 294.228 352.881 292.434 353.197 290.605C353.127 292.645 353.057 294.685 352.951 296.725C341.942 307.348 343.349 319.273 350.559 330.74C357.805 342.242 366.316 352.97 374.265 364.05L374.617 363.452V363.488Z" fill="black"/>
<path d="M428.006 409.427C412.565 424.306 391.99 426.592 372.68 431.904C365.435 433.909 357.134 434.366 351.226 438.341C347.04 441.19 343.945 448.858 344.226 454.17C344.508 459.411 348.693 467.466 352.914 468.838C362.199 471.863 372.786 473.059 382.564 472.074C405.144 469.858 427.583 465.918 450.093 462.647L449.495 462.014C420.83 481.923 388.332 484.666 355.2 481.219C334.484 479.073 323.334 452.024 334.695 434.507C336.594 431.587 340.217 428.703 343.523 427.964C371.766 421.668 400.149 415.899 428.498 409.954L428.006 409.356V409.427Z" fill="black"/>
<path d="M100.907 51.8366C108.539 45.6809 115.362 38.0831 123.874 33.6159C179.304 4.49093 238.85 1.18447 299.627 7.48081C308.912 8.43053 317.811 12.7219 318.233 22.8875C319.218 45.1181 324.106 67.8764 313.168 89.2629L313.872 89.9664C313.274 72.3436 313.344 54.6506 311.832 37.063C310.671 23.5558 303.496 16.9429 290.342 14.4806C286.649 13.7771 282.815 13.5661 279.051 13.3902C223.973 10.6466 171.004 18.6313 121.165 43.5704C114.518 46.8769 107.132 48.706 100.098 51.2386L100.836 51.8366H100.907Z" fill="black"/>
<path d="M603.514 134.532C599.504 129.924 594.264 125.914 591.626 120.603C560.956 59.3631 508.656 28.2684 444.256 13.6004C440.845 12.8265 437.609 11.2788 434.584 6.77641C444.08 6.77641 454.35 4.3845 462.932 7.16334C516.815 24.6453 565.247 50.3935 593.173 103.051C598.308 112.724 599.786 124.296 602.951 134.99L603.549 134.497L603.514 134.532Z" fill="black"/>
<path d="M313.205 89.2627C312.818 94.0114 312.431 98.76 311.868 105.584C305.467 104.494 300.613 104.177 296.111 102.805C280.495 98.0917 265.055 92.6044 249.368 88.102C229.637 82.4739 209.976 81.9815 189.822 88.0316C175.472 92.323 160.348 93.9762 145.576 96.8254C145.576 96.8254 146.244 97.4937 146.28 97.4937C149.797 88.1371 158.097 85.2879 166.503 82.5443C201.007 71.2531 235.581 72.7305 269.979 82.474C284.434 86.5543 298.503 91.9712 313.943 89.9662L313.24 89.2627H313.205Z" fill="black"/>
<path d="M595.352 340.766C596.372 334.645 596.266 328.032 598.623 322.475C617.053 279.667 620.781 235.557 612.058 190.005C608.541 171.644 606.29 153.036 603.477 134.534L602.879 135.027C606.923 141.112 613.043 146.67 614.626 153.318C626.198 201.332 628.343 249.733 617.053 298.204C613.36 314.103 607.627 329.158 594.684 340.238L595.282 340.766H595.352Z" fill="black"/>
<path d="M24.6216 332.814C5.83993 313.151 5.3827 287.262 2.6393 262.851C0.423481 243.364 -2.56618 222.751 9.39221 204.46L8.72394 203.757C6.96535 244.067 9.39211 283.85 23.3553 322.262C24.5863 325.603 23.8127 329.719 23.9534 333.447L24.6216 332.779V332.814Z" fill="black"/>
<path d="M9.39093 204.461C10.6923 173.331 14.7721 143.186 39.8496 120.709L39.2165 119.971C29.0519 147.9 18.8873 175.864 8.72266 203.793L9.39093 204.496V204.461Z" fill="black"/>
<path d="M47.4827 104.915C58.6322 80.5039 74.7758 61.1225 100.944 51.8363L100.205 51.2383C83.6744 70.268 67.8472 90.0364 46.8145 104.599L47.4827 104.915Z" fill="black"/>
<path d="M518.609 424.481C506.65 443.863 487.974 451.988 466.484 455.471L467.012 456.033C481.467 440.803 499.124 430.883 519.172 425.079L518.609 424.481Z" fill="black"/>
<path d="M542.174 401.793C553.042 387.406 562.925 372 580.37 364.331L579.737 363.769C573.407 382.763 561.343 395.919 541.576 401.23L542.174 401.793Z" fill="black"/>
<path d="M519.17 425.079C523.074 413.577 531.621 406.683 542.208 401.793L541.61 401.23C539.922 414.878 531.093 421.491 518.607 424.481L519.17 425.079Z" fill="black"/>
<path d="M47.4465 371.156C36.895 367.216 33.2723 358.669 32.2171 348.397L31.5488 348.749C41.8541 352.865 46.2155 360.99 46.8135 371.578L47.4465 371.156Z" fill="black"/>
<path d="M594.721 340.237C595.636 351.845 590.642 359.654 579.738 363.769L580.371 364.332C581.286 353.885 585.542 345.584 595.355 340.765L594.757 340.237H594.721Z" fill="black"/>
<path d="M39.8851 120.71C42.4174 115.469 44.9499 110.192 47.4823 104.951L46.7788 104.635C44.2464 109.735 41.7492 114.871 39.2168 119.971L39.8499 120.71H39.8851Z" fill="black"/>
<path d="M390.161 371.086C384.991 368.554 379.786 366.021 374.615 363.453L374.264 364.051C380.735 363.84 386.468 365.071 389.493 371.719L390.161 371.086Z" fill="black"/>
<path d="M450.059 462.717C455.686 460.501 461.314 458.25 466.976 456.034C466.976 456.034 466.449 455.471 466.484 455.506C460.857 457.722 455.194 459.938 449.496 462.119L450.059 462.717Z" fill="black"/>
<path d="M32.2186 348.433C29.6862 343.227 27.1537 338.021 24.6566 332.815L23.9883 333.484C26.5206 338.584 29.0531 343.685 31.5503 348.785L32.2186 348.433Z" fill="black"/>
</svg>
