<svg width="500" height="516" viewBox="0 0 500 516" fill="none" xmlns="http://www.w3.org/2000/svg">
<path d="M252.286 82.6795C250.192 88.554 248.097 94.4286 245.74 100.977C258.757 104.943 260.852 96.1498 265.303 90.7617C270.877 83.9892 276.75 77.4786 282.473 70.8557C279.256 76.7677 276.301 82.8291 272.785 88.5166C263.471 103.596 263.321 103.895 267.099 124.587C289.804 54.0553 337.683 33.5881 386.685 36.2447C369.965 40.9219 357.097 44.4766 345.389 47.7319C362.222 49.6027 379.129 51.4736 396.036 53.3445C348.381 47.9938 310.639 69.2092 291.45 112.127C290.253 114.821 288.57 117.291 287.111 119.947C287.111 113.773 287.111 107.562 287.111 97.4219C280.129 114.06 277.959 126.732 280.602 135.438C282.959 130.012 285.278 124.587 287.635 119.199C282.809 149.207 291.263 175.512 309.891 198.972C294.555 194.482 292.31 179.852 286.026 168.328C284.268 165.11 282.173 162.042 279.106 157.065C274.617 181.424 278.957 199.646 297.023 213.977C303.008 218.729 306.525 226.624 311.163 233.097L311.537 232.76L283.857 212.143C282.248 226.362 290.889 232.311 299.38 237.999C309.966 245.071 321.001 251.469 331.848 258.167L332.447 257.568C326.761 257.007 321.075 256.483 314.342 255.847C315.614 264.528 316.661 271.787 317.746 279.046C318.943 281.44 320.14 283.835 321.337 286.23C331.549 284.359 335.14 291.58 335.551 298.989C336.225 311.224 342.958 324.994 329.604 335.059H330.464C321.936 344.413 313.37 353.768 304.841 363.085C308.582 357.472 312.883 352.159 315.988 346.209C326.836 325.368 322.347 295.996 306.225 279.008C300.689 273.134 294.704 269.467 283.632 275.191C293.694 290.308 308.432 301.87 308.619 322.861C308.844 345.274 300.502 359.081 281.725 367.537C257.935 378.239 217.237 379.735 199.806 348.904C205.529 348.679 209.943 348.193 208.933 339.998C207.961 331.953 206.951 322.786 209.756 315.639C214.469 303.741 210.467 295.846 202.799 287.988L203.098 288.624C202.2 286.828 201.302 285.032 200.405 283.199C202.013 278.784 203.584 274.406 205.193 269.99C204.295 269.167 203.36 268.382 202.462 267.558C198.048 270.589 193.597 273.657 189.183 276.688L208.896 251.132C208.222 249.972 207.587 248.812 206.913 247.69C200.068 249.486 193.223 251.244 186.378 253.04L186.789 253.564C189.183 242.152 209.457 245.22 207.774 226.773C195.056 233.546 184.395 239.084 173.884 244.884C164.907 249.823 157.5 256.82 145.044 254.238C139.957 253.19 131.541 260.112 127.127 265.463C119.983 274.144 114.895 284.546 108.91 294.199L109.434 294.424C113.025 282.675 116.579 270.963 120.17 259.14C109.584 254.275 103.075 257.83 98.3994 265.837C94.6589 272.235 91.4046 278.971 87.9633 285.519C89.4595 275.678 90.9931 265.8 92.7512 254.425C71.8415 255.809 74.6095 273.508 65.8191 282.338C64.0985 274.368 69.036 262.544 52.8394 261.908C49.3606 270.252 45.6949 278.971 42.0665 287.689L39.7848 287.577C40.4955 283.348 40.9444 279.083 41.9543 274.929C43.0391 270.552 45.3208 266.436 45.9567 262.058C46.6674 257.194 46.1063 252.18 46.1063 247.54C34.8098 245.033 35.3709 253.377 32.9396 258.129C29.6853 264.453 32.4159 273.882 22.9896 276.913L23.2141 276.987C28.8623 260.711 34.8098 245.856 25.2714 227.372C16.2566 209.898 13.4138 189.244 7.87778 170.012C10.4962 170.573 13.0772 171.096 15.0971 171.508C17.7903 132.519 19.5483 94.8775 47.4904 65.0933C41.6925 80.0976 35.8946 95.102 30.1341 110.219C18.2391 139.404 18.0147 168.44 31.6678 196.915C37.4282 208.926 44.6849 220.225 51.2309 231.825C47.5278 230.852 43.862 229.917 40.1963 228.944C39.5978 230.478 39.0367 231.974 38.4382 233.509C42.3658 235.454 46.2934 237.4 50.221 239.308C55.57 247.091 58.2258 258.279 72.2155 257.418C67.9762 248.837 60.4452 243 49.6225 239.907C49.9591 237.026 50.2958 234.145 50.6324 231.264C53.9989 232.798 57.4777 234.107 60.6572 235.903C87.1778 250.758 110.856 253.639 137.451 244.659C128.436 242.526 120.431 240.58 112.427 238.747C59.6098 226.624 30.1341 188.271 31.8174 134.315C32.0792 126.121 30.5082 117.889 29.7601 109.657C35.9694 101.538 43.1513 93.9796 48.1263 85.1492C57.1036 69.1346 68.4749 57.0862 87.4022 53.7935C90.9931 53.1574 94.2848 50.9497 97.6888 49.4904C79.9585 56.6745 64.884 66.8145 54.4852 88.4791C64.3977 82.8665 70.6071 79.3495 76.8164 75.8323L76.2553 75.2709C67.1657 89.8637 58.1136 104.456 48.9866 119.012C48.5751 119.685 47.64 120.059 47.0415 120.471C45.9567 118.039 45.059 116.018 43.3757 112.314C33.9495 122.716 35.7824 133.417 37.0916 144.942C40.1963 142.847 42.291 141.425 45.7697 139.105C45.1338 158.899 50.0339 175.287 65.8191 191.751C64.6221 177.532 63.7992 167.242 62.9389 156.99C73.0384 205.258 108.91 220.6 149.608 194.183C152.75 192.162 156.266 190.703 159.595 188.982C152.75 196.353 145.942 203.724 139.097 211.133C148.673 212.069 156.902 209.861 164.832 206.905C171.004 204.585 176.839 201.292 182.824 198.411C160.642 227.372 127.127 218.542 96.1551 222.358C98.5491 226.1 99.2598 228.794 100.868 229.58C132.065 244.996 183.572 234.556 205.417 208.514C213.31 199.122 213.31 185.839 206.427 174.127C198.534 182.247 190.305 190.666 182.113 199.122C207.736 165.896 204.295 131.921 184.881 97.4219C183.535 94.9898 183.684 91.6971 183.123 88.816L182.487 89.3773C191.053 103.484 199.582 117.552 209.943 134.615C209.345 108.048 199.694 88.1425 186.939 69.2468C199.021 74.7846 203.397 86.3091 208.26 97.3098C218.285 120.059 217.686 144.156 217.424 168.365C217.237 189.094 218.546 209.861 219.182 230.59C220.417 230.553 221.614 230.478 222.848 230.44C224.382 204.435 225.915 178.43 227.486 152.425C230.441 166.868 230.666 181.124 230.404 195.38C230.03 214.95 229.17 234.519 228.683 254.088C228.421 265.201 233.396 271.188 245.142 270.14C236.464 273.208 227.786 276.277 218.285 279.644C219.145 283.012 220.005 286.304 220.604 288.549C239.643 286.566 256.925 284.733 277.049 282.637C266.575 271.712 256.401 267.783 243.758 270.028C267.959 267.82 269.268 255.996 267.772 235.23C266.762 220.936 266.052 206.606 264.892 192.35C263.022 169.787 261.114 147.187 258.758 124.662C258.047 117.702 255.354 111.042 246.601 110.817C239.082 110.63 233.583 113.698 231.339 121.519C230.292 125.111 228.384 128.478 227.262 131.023C221.165 108.947 215.255 87.4315 209.307 65.8792C214.02 76.0192 218.098 86.5334 223.708 96.1871C225.84 99.8165 231.414 101.388 235.454 103.932C236.351 99.3676 239.157 94.1666 237.885 90.3874C229.955 67.0765 217.723 45.6739 198.011 30.8566C172.35 11.5493 143.66 3.31748 112.314 18.1721C122.264 20.7913 132.513 22.3629 142.613 21.7268C156.902 20.8288 169.582 23.7848 180.916 32.503C134.01 17.7232 91.5168 24.9073 54.2608 58.0216C61.3304 50.164 69.5223 43.0547 74.3476 28.5368C52.9516 40.66 38.0641 54.0178 25.5332 69.995C6.86781 93.7924 -1.43623 120.097 6.60598 150.405C8.32664 156.803 7.91518 163.763 8.47627 170.461C-6.03713 130.686 -2.82025 94.7652 26.3562 61.1271C54.1486 29.0979 88.0381 10.8009 129.297 6.19856C174.782 1.14723 208.484 19.7062 229.544 60.4162C234.93 70.8556 240.204 80.3222 252.698 82.904L252.436 82.4924L252.286 82.6795ZM248.882 300.86L250.977 305.125C247.461 311.486 242.71 317.51 240.765 324.32C238.596 331.841 239.643 340.56 249.818 341.719C258.458 342.73 267.323 339.961 268.82 329.895C269.717 323.647 267.024 316.912 266.089 310.364C265.939 309.391 266.538 308.268 266.613 307.932C270.802 308.381 274.655 308.83 280.191 309.428C268.932 292.553 253.296 285.556 239.269 290.308C229.319 293.675 219.781 298.203 222.474 314.779C232.424 309.541 240.653 305.237 248.882 300.897V300.86ZM224.307 344.825C227.823 360.353 238.521 360.428 248.845 359.567C261.451 358.52 275.627 359.38 283.146 338.614C270.952 342.168 262.461 345.985 253.708 346.808C244.506 347.669 235.005 345.686 224.307 344.825ZM303.569 264.004C300.24 252.367 295.116 246.717 284.343 247.615C284.044 257.568 290.453 263.031 303.569 264.004ZM300.427 339.923C298.744 339.1 297.061 338.277 295.415 337.454C293.994 341.196 292.497 344.9 291.3 348.679C291.226 348.866 294.555 350.4 294.63 350.325C296.687 346.958 298.557 343.44 300.465 339.923H300.427Z" fill="black"/>
<path d="M100.903 452.999C118.11 461.417 134.718 471.445 155.253 475.187C155.179 460.519 144.967 457.9 136.289 454.346C114.219 445.365 95.2547 431.933 78.9458 414.721C77.674 413.374 77.1503 411.241 75.4297 407.724C98.0601 423.177 114.967 444.842 142.236 447.723L145.191 443.008C140.104 439.753 134.755 436.872 130.005 433.205C123.159 427.966 116.763 422.129 110.18 416.554L109.618 417.078C116.763 420.071 123.945 423.065 135.653 428.004C113.546 402.41 88.1476 385.161 86.1277 352.945C94.2821 366.752 102.437 380.596 110.591 394.403C112.199 393.655 113.77 392.944 115.379 392.196C113.135 385.535 110.815 378.912 108.646 372.252C100.267 346.247 94.6936 320.242 109.357 294.424L108.833 294.2C108.234 300.224 108.272 306.398 106.888 312.235C98.9953 345.461 112.873 372.738 130.453 398.856C133.072 402.747 138.645 404.693 142.835 407.537C144.032 406.339 145.191 405.142 146.388 403.982C133.97 386.845 125.329 368.548 126.264 347.369C137.523 385.909 141.974 392.869 160.565 397.022C160.079 393.019 160.677 389.015 159.069 386.284C148.221 367.949 145.079 347.706 146.762 327.239C149.268 297.268 156.75 269.093 186.711 253.602L186.3 253.078C169.542 273.77 155.179 295.584 152.074 323.048C149.904 342.281 152.448 360.578 162.473 377.303C164.118 380.035 168.645 381.045 174.742 384.488C170.59 370.868 167.56 360.952 164.53 350.999C184.056 394.179 233.132 421.493 278.318 400.577C280.974 399.342 284.191 399.342 287.183 398.781C283.517 404.88 283.106 409.969 290.924 413.336C299.078 416.853 307.008 420.782 318.005 425.946C310.562 432.269 305.4 436.685 301.622 439.903C291.784 422.953 276.335 432.531 265.226 428.49C272.52 426.17 282.246 430.211 287.557 418.986C271.323 411.578 255.688 408.622 238.705 412.925C223.182 416.853 216.823 428.715 211.287 441.474C221.05 454.72 235.863 453.335 248.842 457.264C236.012 456.291 223.294 454.682 211.511 450.342C198.494 445.552 197.073 436.198 206.125 425.609C209.342 421.867 212.895 418.425 216.299 414.833C215.701 413.523 215.065 412.214 214.466 410.867C207.135 413.261 199.766 415.619 192.435 418.013C198.27 414.459 203.245 410.455 200.776 400.203C192.21 403.196 184.692 405.815 177.136 408.434C180.614 403.346 184.056 398.257 188.806 391.298C169.28 392.57 155.253 403.496 153.907 419.548C151.7 446.525 155.702 470.023 180.876 486.637C211.511 506.879 244.241 513.577 279.515 499.171C287.819 495.766 296.535 493.297 305.026 490.416L304.315 489.78C301.696 495.916 299.115 502.053 295.525 510.471C244.503 522.108 193.632 512.454 143.77 492.361C154.43 494.569 165.091 496.739 178.482 499.508C174.368 487.797 168.832 484.616 159.929 482.371C144.668 478.517 129.818 472.605 115.454 466.132C109.88 463.625 106.102 457.189 101.501 452.512L100.94 453.036L100.903 452.999Z" fill="black"/>
<path d="M331.736 258.166C354.254 261.908 376.436 261.908 397.682 251.992C407.819 247.24 417.881 242.301 427.981 237.437C419.864 244.247 413.916 251.356 425.549 261.422C434.003 257.268 442.419 253.152 450.835 249.037L450.237 248.363C449.077 254.986 446.122 261.833 447.057 268.157C450.387 290.832 448.329 313.095 446.422 335.77C444.364 360.315 437.519 381.381 420.649 399.08C443.092 357.397 451.247 313.918 439.726 265.949C425.587 270.739 429.851 279.457 431.085 287.015C437.818 328.586 425.362 364.506 399.066 396.273C407.071 377.453 415.375 358.819 422.856 339.886C433.367 313.319 428.28 287.838 415.936 263.218C412.944 257.231 408.979 252.89 401.086 260.037C410.924 287.277 419.639 315.303 409.465 344.937C412.869 301.795 404.939 273.582 384.141 262.806C386.423 274.705 389.453 284.77 389.939 294.985C390.425 304.377 399.777 313.918 389.415 324.994C386.311 304.526 386.947 284.096 372.77 268.568C371.722 283.872 373.892 298.727 373.294 313.432C372.62 329.11 369.59 344.75 367.084 360.315C364.765 374.759 347.334 382.953 349.279 401.549C354.965 400.128 359.192 399.08 364.054 397.882C359.753 404.43 356.386 409.519 351.785 416.479C367.196 419.248 372.134 410.268 378.194 402.859C383.805 395.974 389.939 389.538 395.849 382.915C397.046 387.218 398.206 391.521 399.403 395.862C394.839 402.41 391.099 409.856 385.488 415.356C376.697 424 366.635 431.296 353.992 441.773C363.194 440.763 368.319 440.201 373.406 439.678C368.169 443.382 362.783 446.899 357.695 450.79C352.907 454.457 348.419 458.498 343.78 462.352C344.491 463.774 345.202 465.196 345.875 466.618L357.097 465.383L356.723 465.121C353.73 468.938 351.449 474.775 347.558 476.272C333.456 481.585 318.756 485.439 304.317 489.817L305.028 490.453C314.342 481.099 329.23 477.02 334.167 461.716C318.419 469.948 304.13 477.431 289.879 484.877C301.4 476.646 309.031 465.159 317.709 454.196C328.893 440.052 330.464 426.581 323.619 410.978C324.741 418.462 329.005 422.465 335.888 423.625C346.436 410.455 325.115 399.491 335.177 387.218C328.818 370.942 342.733 363.047 349.653 352.271C347.521 360.502 342.284 368.248 344.865 378.5C348.232 377.153 350.701 376.891 352.01 375.507C354.591 372.85 357.134 369.82 358.631 366.489C370.189 340.859 372.695 314.143 367.159 286.716C366.149 281.627 364.615 276.014 361.436 272.16C354.179 263.255 348.83 266.136 346.1 276.351L332.409 257.605L331.811 258.204L331.736 258.166Z" fill="black"/>
<path d="M464.229 184.454C489.814 155.082 483.567 86.1967 461.273 53.943C443.768 28.6115 422.409 14.3182 390.614 19.9308C381.674 21.5023 372.622 22.3253 363.645 23.4853C378.121 11.8485 395.814 14.8046 414.666 14.2433C395.814 1.48401 378.831 3.24257 302.711 24.9446C309.182 20.1178 311.314 17.3489 313.933 16.7502C339.63 10.9131 365.44 0.623458 391.138 0.960213C437.521 1.52147 467.146 15.2911 486.822 62.9607C505.524 108.198 502.27 154.334 486.971 199.908C485.475 204.398 480.799 207.84 477.62 211.769L478.181 212.443C482.258 199.571 487.794 186.962 490.151 173.791C494.19 150.966 500.4 127.655 488.467 104.943C486.223 138.02 485.363 171.246 464.042 199.159C464.303 193.996 464.603 188.832 464.864 183.669L464.266 184.454H464.229ZM462.882 43.9901L466.66 41.1089C460.974 35.3092 455.289 29.5094 449.603 23.7098C450.725 30.7442 454.241 35.4214 457.982 39.9115C459.328 41.5204 461.236 42.6431 462.882 43.9901Z" fill="black"/>
<path d="M484.614 250.458C479.751 245.257 474.889 240.094 466.585 231.226C461.049 268.157 478.405 301.159 465.014 336.78C465.014 315.939 465.874 298.091 464.714 280.355C463.929 268.381 466.136 253.938 450.238 248.326L450.837 248.999C459.964 236.801 469.053 224.603 478.18 212.405L477.619 211.731C479.864 224.753 482.145 237.811 484.39 250.833L484.614 250.421V250.458Z" fill="black"/>
<path d="M484.39 250.87C493.218 286.492 492.582 321.926 481.21 356.836C479.265 362.785 474.702 367.912 471.41 373.524C471.485 373.637 471.709 374.085 471.709 374.085C483.23 341.233 488.018 307.632 483.978 272.872C483.118 265.575 484.278 258.054 484.54 250.571C484.614 250.496 484.39 250.87 484.39 250.87Z" fill="black"/>
<path d="M22.8759 276.95C24.2599 282.563 26.5416 288.138 26.8783 293.788C28.2623 318.932 29.0852 344.114 29.9456 365.666C23.7736 349.278 20.7812 328.249 22.1652 306.398C22.8011 296.669 22.9507 286.941 23.25 277.1C23.1377 276.988 22.9133 276.95 22.9133 276.95H22.8759Z" fill="black"/>
<path d="M110.143 416.554C93.4605 412.588 84.8573 399.342 76.441 386.321C70.4935 377.079 65.7804 367.051 60.5062 357.36H60.4688C63.1246 358.707 67.2766 359.343 68.1369 361.364C77.5257 383.29 93.685 400.015 109.545 417.04L110.106 416.517L110.143 416.554Z" fill="black"/>
<path d="M435.277 413.223C444.853 392.569 453.232 374.497 461.611 356.461C458.17 376.742 453.831 396.573 435.277 413.223Z" fill="black"/>
<path d="M85.9046 462.689C65.4063 455.243 52.1272 439.752 40.5315 422.316L40.0078 422.877C55.1197 436.347 70.2316 449.818 85.306 463.288L85.9046 462.727V462.689Z" fill="black"/>
<path d="M10.6445 370.531C20.4448 387.967 30.2451 405.366 40.008 422.84C40.008 422.84 40.5317 422.279 40.5317 422.316C23.2876 409.145 19.6219 388.229 10.869 370.231L10.6445 370.531Z" fill="black"/>
<path d="M86.3926 286.94C86.3926 309.279 86.43 331.617 86.4674 353.955C75.4328 331.617 79.7344 309.279 86.3926 286.94Z" fill="black"/>
<path d="M401.235 463.251C412.569 452.998 423.902 442.708 436.546 431.259C431.122 446.937 422.93 453.784 400.711 462.689L401.235 463.251Z" fill="black"/>
<path d="M357.098 465.309C372.584 458.199 388.07 451.053 402.471 444.43C392.858 458.761 377.484 466.02 356.799 465.084C356.724 465.009 357.098 465.271 357.098 465.271V465.309Z" fill="black"/>
<path d="M6.41797 324.545V279.232C7.05386 279.27 7.68976 279.307 8.28825 279.345V325.368C7.65236 325.106 7.01646 324.807 6.41797 324.545Z" fill="black"/>
<path d="M318.983 38.9014C306.564 49.7898 294.145 60.6783 281.727 71.5294C289.283 55.0657 300.878 43.2792 318.983 38.9014Z" fill="black"/>
<path d="M60.5452 357.397V308.567C61.5178 308.567 62.4903 308.642 63.4629 308.68C62.4903 324.919 61.4804 341.158 60.5078 357.434H60.5452V357.397Z" fill="black"/>
<path d="M58.0041 384.974C54.2261 377.415 50.4482 369.857 46.6328 362.299C47.4931 361.812 48.3535 361.326 49.2138 360.839L62.6424 382.803C61.1088 383.514 59.5378 384.263 58.0041 384.974Z" fill="black"/>
<path d="M252.55 83.0534C252.176 65.168 254.719 60.9397 269.532 54.6162L269.083 54.0176C263.435 63.4841 257.787 72.9507 252.176 82.567C252.251 82.6792 252.55 83.0906 252.55 83.0906V83.0534Z" fill="black"/>
<path d="M466.659 401.736C461.759 409.033 456.859 416.329 450.238 426.245C452.233 415.019 457.819 406.962 466.996 402.073L466.659 401.736Z" fill="black"/>
<path d="M346.178 22.9238C340.529 34.7477 328.896 36.394 318.086 39.4997C327.437 33.9619 336.826 28.4616 346.178 22.9238Z" fill="black"/>
<path d="M85.3086 463.251L104.909 471.108C95.5204 473.877 89.6103 470.173 85.9071 462.652L85.3086 463.251Z" fill="black"/>
<path d="M101.469 452.512C94.3241 449.855 87.1796 447.198 80.0352 444.579C81.0825 442.671 82.1299 440.8 83.1772 438.892C89.0499 443.644 94.96 448.358 100.87 453.073L101.469 452.512Z" fill="black"/>
<path d="M372.695 440.277C379.765 435.562 386.872 430.81 393.942 426.096C389.116 434.215 383.131 440.614 372.695 440.277Z" fill="black"/>
<path d="M400.713 462.689C395.364 466.992 390.052 471.295 384.703 475.598C386.386 465.421 393.755 464.261 401.236 463.251L400.713 462.689Z" fill="black"/>
<path d="M50.747 402.298L37.8047 387.181C39.1887 386.321 40.6101 385.46 41.9941 384.562C44.7247 390.661 47.4928 396.76 50.2234 402.859L50.747 402.298Z" fill="black"/>
<path d="M10.8315 370.231C10.0459 362.336 9.22302 354.403 8.4375 346.508C9.59708 346.508 10.7941 346.508 11.9536 346.508C11.5422 354.441 11.1681 362.411 10.6818 370.455C10.607 370.568 10.8315 370.268 10.8315 370.268V370.231Z" fill="black"/>
<path d="M269.531 54.6164L278.546 37.7412C279.593 38.4896 280.64 39.2006 281.688 39.9489C277.461 44.6261 273.234 49.2658 269.082 53.9804C269.119 54.0178 269.568 54.6164 269.568 54.6164H269.531Z" fill="black"/>
<path d="M466.993 402.073C460.147 391.334 470.471 383.589 471.78 374.197C471.706 374.085 471.444 373.636 471.406 373.524C469.723 382.766 468.115 392.158 466.581 401.624C466.693 401.736 466.993 402.073 466.993 402.073Z" fill="black"/>
<path d="M50.2188 402.859C53.7723 406.638 57.3632 410.417 62.3008 415.656C51.1913 415.169 51.1913 408.546 50.705 402.335L50.2188 402.859Z" fill="black"/>
<path d="M343.559 491.688C347.374 489.892 349.543 488.844 351.713 487.834C351.04 489.667 350.516 491.65 349.506 493.297C349.319 493.596 347.15 492.698 343.596 491.688H343.559Z" fill="black"/>
<path d="M198.234 291.804C190.865 303.104 183.908 314.217 183.422 328.698C182.561 353.094 194.868 372.738 218.172 380.371C235.64 386.096 253.108 387.929 270.614 379.81C278.021 376.367 286.063 374.272 293.806 371.578C273.943 388.603 249.854 391.521 225.915 387.854C189.332 382.279 175.567 357.846 178.484 313.993C178.933 307.332 180.504 300.709 181.551 294.087C187.836 290.457 194.082 286.828 200.366 283.198C201.264 284.994 202.162 286.79 203.06 288.661C201.489 289.746 199.88 290.794 198.309 291.804H198.234Z" fill="black"/>
<path d="M202.687 287.951C203.173 289.373 204.482 291.318 203.996 292.216C193.56 310.738 198.46 330.195 200.368 349.427C189.333 330.644 188.435 311.449 198.198 291.842C199.844 290.757 201.415 289.747 203.023 288.662C203.023 288.624 202.724 287.988 202.724 287.988L202.687 287.951Z" fill="black"/>
<path d="M329.53 335.059C335.403 353.206 328.296 366.415 313.633 376.705C319.206 362.823 324.817 348.978 330.391 335.097H329.53V335.059Z" fill="black"/>
<path d="M317.672 279.045C318.046 277.174 318.57 273.62 318.719 273.62C325.153 274.218 326.238 279.756 321.3 286.304C320.066 283.835 318.869 281.44 317.672 279.045Z" fill="black"/>
<path d="M446.383 203.2C454.126 182.172 465.647 162.528 465.235 138.842C464.188 72.2022 452.817 65.1679 412.082 36.2817C442.381 42.7923 467.031 70.9676 467.592 103.408C468.078 130.424 465.422 157.476 464.151 184.492C464.151 184.492 464.749 183.706 464.787 183.706C458.465 189.992 452.106 196.315 445.785 202.639L446.383 203.238V203.2Z" fill="black"/>
<path d="M404.789 214.912C407.894 210.871 410.475 206.194 414.215 202.826C442.457 177.457 450.424 144.829 446.235 108.946C445 98.5442 437.93 88.5538 432.432 79.0124C428.729 72.6141 423.08 67.3755 418.33 61.6133C442.307 73.1752 451.696 93.0439 450.723 118.75C450.312 130.05 450.499 141.424 449.152 152.612C445.711 181.274 427.345 199.646 404.826 214.912H404.789Z" fill="black"/>
<path d="M308.992 198.261C315.463 201.741 321.897 205.333 328.406 208.701C350.251 219.926 372.582 225.501 396.297 214.351C367.008 232.835 333.044 226.586 308.992 198.299V198.261Z" fill="black"/>
<path d="M311.086 233.097C315.462 232.423 320.288 230.253 324.141 231.376C352.195 239.345 379.987 238.373 407.78 230.889C375.985 242.414 343.928 242.601 311.572 232.685C311.46 232.76 311.086 233.097 311.086 233.097Z" fill="black"/>
<path d="M445.82 202.602C439.948 209.748 434.075 216.933 428.202 224.079C426.744 222.47 425.322 220.899 423.863 219.29C431.382 213.939 438.9 208.551 446.419 203.2L445.82 202.602Z" fill="black"/>
<path d="M168.76 48.5922C165.843 48.1058 162.626 48.218 160.045 46.9833C141.454 38.265 122.864 38.6018 104.086 46.3098C121.143 31.9041 146.28 32.8021 168.723 48.5922H168.76Z" fill="black"/>
<path d="M186.266 36.5439C194.046 46.6466 201.789 56.7492 209.569 66.8519C198.161 59.5555 189.744 49.9393 186.266 36.5439Z" fill="black"/>
<path d="M186.638 69.1716C180.353 62.0997 174.069 55.0279 167.785 47.9561C178.857 50.7624 184.431 58.4702 186.638 69.1716Z" fill="black"/>
<path d="M179.422 148.945C178.973 138.506 180.058 127.692 177.776 117.665C171.343 89.3398 133.713 72.9136 106.893 85.149C77.3422 98.6193 59.2753 119.199 61.4074 153.51C59.5745 148.085 55.5721 142.36 56.2828 137.271C62.0807 94.9898 113.775 62.1749 154.398 82.3802C179.46 94.8401 190.345 123.015 179.422 148.983V148.945Z" fill="black"/>
<path d="M76.7034 75.9069C93.0496 58.0589 113.847 61.1272 133.223 61.7633C114.708 66.1786 95.4436 70.7807 76.1797 75.383L76.7407 75.9069H76.7034Z" fill="black"/>
<path d="M158.809 189.917L177.586 164.024C175.566 175.736 169.843 184.754 158.809 189.917Z" fill="black"/>
<path d="M182.973 88.8907L164.383 77.3661C174.557 76.0939 179.046 82.0432 182.338 89.4892L182.973 88.8907Z" fill="black"/>
<path d="M134.457 116.729C119.944 115.045 106.029 114.858 99.1463 131.434L99.7448 130.76C88.3735 137.608 87.3261 147.523 93.4232 157.776C97.5005 164.66 102.849 171.657 113.024 170.423C124.919 168.963 139.432 158 140.741 147.186C141.564 140.077 139.283 132.631 138.385 125.335C153.385 150.03 142.687 172.256 114.483 173.94C106.44 174.426 98.2486 172.331 90.0941 171.433L90.7674 172.107C89.6079 167.766 88.6727 163.388 87.2513 159.16C77.9747 131.509 97.3135 108.722 126.004 113.698C128.921 114.222 131.652 115.644 134.495 116.692L134.457 116.729Z" fill="black"/>
<path d="M90.0945 171.471C101.129 186.064 115.231 188.309 131.727 182.247C137.862 180.002 144.445 178.917 150.804 177.271L150.318 176.672C118.336 200.469 98.4359 197.102 75.5811 163.913L75.207 164.362C80.4064 166.981 85.6058 169.563 90.7678 172.182L90.0571 171.508L90.0945 171.471Z" fill="black"/>
<path d="M158.249 118.039C169.321 139.442 168.498 159.198 150.281 176.597C150.281 176.597 150.768 177.196 150.805 177.233C158.473 158.001 162.7 138.282 158.772 117.478L158.286 118.039H158.249Z" fill="black"/>
<path d="M124.584 96.9727C116.617 99.6293 108.649 102.323 100.645 104.98C100.158 103.446 99.6347 101.949 99.1484 100.415C107.116 97.5339 115.046 94.6902 123.013 91.8091C123.537 93.5303 124.061 95.2515 124.584 96.9727Z" fill="black"/>
<path d="M75.5818 163.875C72.9634 150.804 73.6865 137.982 77.7513 125.41C76.8536 140.003 76.068 152.088 75.2451 164.249C75.1703 164.324 75.5443 163.875 75.5443 163.875H75.5818Z" fill="black"/>
<path d="M158.774 117.478C152.938 112.239 147.066 107.038 141.23 101.8C150.993 103.296 158.362 107.076 158.287 118.002L158.774 117.44V117.478Z" fill="black"/>
<path d="M318.867 93.4556C314.939 105.504 310.151 117.365 307.196 129.638C299.416 162.004 334.016 200.244 367.195 196.578C374.601 195.754 382.045 194.819 389.451 193.958C359.676 209.711 333.23 202.527 311.647 172.855C294.366 149.02 297.658 112.763 318.867 93.493V93.4556Z" fill="black"/>
<path d="M413.991 178.505C414.888 174.913 414.926 170.76 416.796 167.766C433.367 141.686 428.953 115.345 418.367 88.8159C439.015 115.27 437.406 147.823 413.953 178.468L413.991 178.505Z" fill="black"/>
<path d="M419.039 89.7512C413.69 85.5979 408.528 81.1826 402.992 77.3661C383.429 63.8584 362.632 62.2496 340.824 71.3794C348.156 59.0691 360.649 60.9773 371.272 62.3617C390.462 64.9061 410.848 67.226 419.039 89.7512Z" fill="black"/>
<path d="M341.722 70.7432C333.867 78.6008 326.011 86.4584 318.156 94.316C321.822 82.2676 329.939 74.6346 341.722 70.7432Z" fill="black"/>
<path d="M131.766 295.584C135.768 286.23 139.77 276.913 143.773 267.559C145.045 268.12 146.354 268.644 147.626 269.205C143.436 278.484 139.247 287.726 135.057 297.006C133.973 296.52 132.85 296.071 131.766 295.584Z" fill="black"/>
<path d="M321.149 408.359C309.516 405.366 297.883 402.373 286.25 399.379C295.639 391.559 305.028 383.739 314.379 375.918C311.05 381.419 307.683 386.919 304.093 392.831C310.339 398.519 315.763 403.42 321.149 408.359Z" fill="black"/>
<path d="M189.034 275.79C186.752 282.001 184.433 288.213 182.151 294.424C176.278 306.697 170.443 318.97 164.57 331.28C169.657 311.561 167.563 288.736 188.996 275.79H189.034Z" fill="black"/>
<path d="M345.574 275.565C360.237 300.074 360.462 325.48 350.325 351.56C351.971 326.041 354.365 300.448 345.574 275.565Z" fill="black"/>
<path d="M177.663 407.723C174.072 419.622 163.075 430.772 173.287 445.14C178.972 436.572 183.985 429.014 188.96 421.455C181.441 452.512 198.61 474.85 232.612 476.496C247.425 477.207 262.387 475.149 277.536 476.384C260.853 478.33 244.17 480.238 226.814 482.258C230.405 493.035 238.111 492.062 244.395 491.463C259.395 490.004 274.319 487.497 289.244 485.401C251.577 507.59 193.374 494.082 171.267 458.049C159.447 438.779 161.242 424.673 177.626 407.686L177.663 407.723Z" fill="black"/>
<path d="M274.393 452.25C273.009 453.261 271.924 454.57 270.615 454.832C269.792 454.982 268.633 453.597 267.66 452.886C268.82 452.175 269.867 451.015 271.101 450.828C272.074 450.679 273.196 451.689 274.393 452.288V452.25Z" fill="black"/>
<path d="M409.838 343.89C405.162 357.098 400.487 370.306 395.773 383.515C400.449 370.306 405.125 357.098 409.838 343.89Z" fill="black"/>
<path d="M379.426 375.058C379.613 373.075 379.426 370.904 380.136 369.108C380.885 367.163 382.418 365.516 385.523 364.469C384.139 368.173 382.792 371.878 381.408 375.619C380.735 375.432 380.099 375.245 379.426 375.095V375.058Z" fill="black"/>
<path d="M99.1484 131.434C104.011 129.414 108.724 126.42 113.774 125.597C123.238 124.1 129.597 129.713 131.13 138.992C132.439 146.775 129.784 152.462 122.564 155.456C114.859 158.674 105.47 154.633 102.29 146.214C100.458 141.387 100.532 135.887 99.7469 130.686L99.1484 131.359V131.434Z" fill="black"/>
<path d="M370.449 155.418C363.977 158.225 357.544 161.031 349.988 164.286C354.177 171.283 360.686 172.668 368.504 171.321C380.885 169.225 391.882 164.997 398.652 153.398C405.423 141.836 406.62 133.38 405.834 105.167C412.68 121.369 412.754 137.832 405.049 153.809C396.745 171.096 375.386 179.403 354.327 174.576C336.484 170.498 326.684 156.541 326.983 135.512C327.058 130.947 327.17 126.383 327.806 121.893C328.33 118.188 329.602 114.559 330.387 111.416C340.599 109.395 350.287 107.487 359.189 105.728C356.796 107.786 352.98 110.368 350.062 113.698C342.843 121.93 336.671 130.723 342.881 142.36C348.903 153.66 357.88 159.123 370.972 155.718L370.523 155.381L370.449 155.418Z" fill="black"/>
<path d="M381.634 130.985C382.008 138.02 373.106 145.728 364.203 145.615C355.936 145.54 351.822 140.452 351.485 132.706C351.074 124.213 354.141 117.814 363.904 117.028C372.47 116.317 381.26 123.165 381.671 130.985H381.634Z" fill="black"/>
<path d="M370.899 155.756C385.674 151.116 388.666 139.591 387.507 125.635C392.557 150.929 390.312 154.671 370.525 155.531C370.45 155.456 370.861 155.793 370.861 155.793L370.899 155.756Z" fill="black"/>
<path d="M390.314 92.3332C386.648 91.061 382.982 89.8262 379.316 88.554C379.578 87.6934 379.84 86.8328 380.102 85.9722C383.842 86.9824 387.583 88.0301 391.324 89.0404C390.987 90.1255 390.65 91.2106 390.314 92.3332Z" fill="black"/>
</svg>
