<svg width="453" height="503" viewBox="0 0 453 503" fill="none" xmlns="http://www.w3.org/2000/svg">
<path d="M234.293 502.425C182.274 505.661 55.8321 460.039 21.3638 417.161C4.44617 396.126 -10.9591 378.011 20.5548 352.966C58.3996 322.892 98.003 363.167 130.326 378.68C219.381 421.417 263.275 398.94 339.457 343.962C377.161 316.736 397.772 300.45 432.17 332.846C452.956 352.404 469.276 372.594 424.045 389.302C368.157 439.251 306.184 482.129 234.329 502.39L234.293 502.425Z" fill="black"/>
<path d="M245.059 122.148C252.902 153.031 249.948 186.483 251.038 217.929C252.199 250.853 272.106 309.877 257.404 340.339C243.019 370.167 211.751 380.79 175.102 357.82C132.967 331.404 152.206 317.615 154.421 266.823C156.18 226.512 151.291 184.091 147.774 143.921C145.488 117.716 124.948 48.5964 137.645 26.2603C183.79 -54.9942 248.049 79.9727 245.059 122.148Z" fill="black"/>
<path d="M326.128 70.37C399.954 61.4707 440.507 167.348 353.246 181.98C258.775 197.809 244.741 79.6562 326.058 69.8423C326.058 70.0182 326.093 70.1942 326.128 70.37Z" fill="black"/>
<path d="M55.8331 63.0181C106.129 60.6262 105.636 58.6562 111.686 111.243C117.173 158.87 117.982 181.065 65.0481 178.251C23.7213 176.071 24.6006 170.126 10.743 130.871C-9.72699 72.9022 -0.230625 69.7717 55.8331 63.0181Z" fill="black"/>
</svg>
