<svg width="430" height="549" viewBox="0 0 430 549" fill="none" xmlns="http://www.w3.org/2000/svg">
<path d="M322.727 491.692C323.251 476.089 332.902 468.942 345.919 465.163C348.949 452.815 349.921 441.365 362.153 432.535C370.906 426.249 375.507 412.03 378.611 400.468C385.195 376.035 393.05 352.05 398.511 327.168C406.291 291.734 404.758 256.187 405.656 220.753C406.142 202.344 399.858 183.485 394.733 165.338C390.207 149.324 383.736 133.758 376.779 118.641C373.337 111.158 366.941 104.984 361.741 98.3236C350.707 84.2173 341.542 67.7912 327.964 56.7905C313.75 45.3034 295.795 37.82 278.551 30.8979C264.599 25.2853 249.45 22.1421 234.525 19.8223C227.904 18.812 220.647 23.3768 213.54 23.9755C192.593 25.8464 170.673 23.7512 150.848 29.2889C130.163 35.0886 107.907 39.9529 90.8498 55.481C84.416 61.3555 77.1594 66.332 71.4737 70.822C63.3567 90.2042 56.0625 108.913 47.4966 127.023C45.9255 130.353 39.155 131.251 34.3297 133.459C26.9234 124.291 28.0457 115.835 31.4496 107.453C34.6665 99.4462 36.5368 88.9694 42.6339 84.4045C57.3717 73.4038 56.2122 52.525 71.0249 42.5346C84.7901 33.2925 96.1613 21.5436 114.153 17.3903C134.465 12.7131 154.926 10.0563 175.349 6.68876C184.065 5.2669 192.78 3.92005 201.496 2.42336C205.124 1.78727 208.752 -0.121187 212.268 0.140734C243.914 2.49802 276.494 2.27357 305.446 16.567C316.667 22.1047 333.014 25.3226 336.081 42.3101C336.38 43.9564 338.999 46.2764 340.645 46.3887C357.402 47.2493 362.639 62.8147 370.045 72.618C385.718 93.3472 400.195 115.985 409.957 139.969C425.331 177.761 434.047 217.573 427.239 259.181C426.004 266.739 427.164 274.634 426.94 282.379C426.79 287.505 427.202 292.968 425.518 297.646C419.833 313.623 418.71 329.824 420.805 346.475C421.142 349.319 421.89 352.948 420.543 355.044C406.703 376.521 403.374 402.115 392.975 424.864C391.479 428.12 388.861 431.113 386.13 433.433C380.482 438.222 375.881 442.488 375.432 451.243C375.095 457.081 370.607 464.639 365.632 467.857C357.851 472.908 351.754 477.548 350.707 487.426C350.445 489.858 347.078 494.012 345.433 493.899C327.179 492.59 325.944 513.88 312.665 517.996C308.438 519.306 302.566 515.19 297.441 513.543C299.424 507.631 299.91 500.185 303.838 496.257C307.279 492.814 314.685 493.338 322.69 491.617L322.727 491.692Z" fill="black"/>
<path d="M196.52 239.274C195.024 269.732 184.924 280.433 160.835 285.073C148.341 287.468 136.147 289.189 124.14 284.25C118.379 281.892 113.143 278.188 107.794 274.933C104.24 272.763 101.173 269.358 97.3949 268.198C79.2532 262.585 72.894 251.884 84.8264 239.087C97.3947 225.58 113.778 212.072 130.91 207.32C150.212 201.969 172.206 207.32 187.505 224.045C192.48 229.471 195.211 236.992 196.557 239.274H196.52Z" fill="black"/>
<path d="M248.514 267.899C250.347 270.181 249.711 269.695 249.449 269.021C238.302 243.465 239.088 234.859 262.28 221.689C282.105 210.426 304.249 203.579 327.515 215.814C343.936 224.457 353.437 238.077 351.829 253.905C350.332 268.423 339.073 279.162 320.146 282.529C308.775 284.55 297.104 285.186 285.546 285.822C282.179 286.009 278.439 284.624 275.372 283.016C267.292 278.825 259.474 274.073 248.552 267.862L248.514 267.899Z" fill="black"/>
<path d="M7.51004 275.495C1.22589 268.423 0.515259 258.844 3.84436 246.908C7.73455 232.989 7.80934 218.022 9.90406 203.541C10.727 197.816 10.8767 190.894 14.1684 186.816C20.1533 179.444 20.3403 172.859 17.4226 164.552C16.0386 160.624 16.4127 155.722 17.1982 151.494C18.9563 142.327 26.3626 140.082 34.0308 141.054C41.6989 142.027 42.1103 148.912 41.25 154.899C40.5393 159.913 39.5292 165.488 36.6864 169.417C32.4596 175.291 30.0657 180.006 34.2552 187.153C36.2377 190.558 36.7239 196.17 35.4147 199.874C27.971 220.566 29.3175 242.68 24.3426 263.559C20.0409 281.706 24.1556 299.18 25.3152 316.616C26.1755 329.637 22.6968 344.193 31.8612 356.69C34.0307 359.646 31.8611 366.83 29.9534 371.358C28.8313 374.014 24.2303 377.083 21.4997 376.821C17.7592 376.447 14.2057 373.229 10.8392 370.871C9.90406 370.198 9.49269 368.177 9.5301 366.793C10.2034 343.108 0.964026 320.657 0.702187 297.197C0.627376 290.574 4.70458 283.914 7.4726 275.532L7.51004 275.495Z" fill="black"/>
<path d="M237.89 423.18C204.749 417.942 172.056 417.231 139.738 428.83C128.329 432.909 120.062 428.568 117.594 420.561C114.788 411.319 120.474 403.386 132.556 400.243C176.246 388.943 220.123 392.685 263.999 398.934C273.052 400.206 277.503 405.444 275.82 414.088C274.249 422.207 268.937 426.623 259.735 425.201C252.516 424.078 245.184 423.816 237.89 423.18Z" fill="black"/>
<path d="M134.914 509.502C131.435 514.292 129.677 519.119 127.283 519.456C121.111 520.354 113.031 521.626 108.58 518.558C93.0194 507.931 78.5434 495.658 63.9552 483.647C61.4117 481.552 59.2047 477.735 58.8307 474.442C57.9703 467.183 54.8282 463.404 48.2448 459.55C42.821 456.333 39.7163 448.55 36.5368 442.338C29.9908 429.542 23.7816 416.521 17.9463 403.387C14.8791 396.502 16.4126 390.179 23.7067 386.736C30.4397 383.556 39.7538 387.597 40.3897 395.941C42.2974 419.851 62.9827 434.78 68.1446 457.305C69.7157 464.19 79.0672 471.038 86.4361 474.517C98.8922 480.392 105.026 494.76 120.138 497.192C125.3 498.015 129.527 504.863 134.876 509.577L134.914 509.502Z" fill="black"/>
<path d="M212.905 198.751C208.715 200.884 205.087 203.915 201.122 204.476C196.558 205.15 189.339 205.412 187.357 202.755C178.379 190.782 165.362 186.591 152.382 182.101C131.884 175.029 117.558 179.033 103.194 195.496C100.8 198.228 99.3038 202.83 96.4235 203.878C92.0471 205.449 85.4262 206.609 82.359 204.401C79.4039 202.269 77.3092 193.812 79.1421 191.23C86.1744 181.352 93.4685 170.277 103.418 164.103C131.734 146.479 159.489 154.262 185.86 170.539C191.434 173.981 196.933 177.873 201.646 182.4C205.124 185.73 207.294 190.407 212.942 198.789L212.905 198.751Z" fill="black"/>
<path d="M367.801 197.554C364.061 202.418 362.041 207.769 358.936 208.48C353.812 209.64 345.171 209.864 342.964 206.871C333.463 193.999 319.099 193.438 306.007 190.145C290.521 186.292 275.484 187.152 262.729 199.088C256.931 204.551 249.749 207.133 243.465 199.799C238.527 194.037 240.734 183.785 248.328 178.471C263.103 168.182 278.552 161.783 297.853 164.552C318.613 167.545 338.176 172.073 354.896 185.206C359.273 188.611 362.976 192.877 367.801 197.517V197.554Z" fill="black"/>
<path d="M214.177 377.943C198.916 382.471 191.36 370.198 182.382 363.799C175.874 359.159 174.639 351.077 179.315 344.155C184.365 336.672 192.183 336.298 198.355 341.948C210.175 352.761 221.845 350.965 234.638 344.38C241.409 340.9 248.927 339.141 253.565 347.934C257.642 355.642 254.164 364.548 244.214 368.738C234.6 372.779 224.202 374.95 214.177 377.98V377.943Z" fill="black"/>
<path d="M136.223 535.993C139.253 527.612 140.225 517.921 143.554 517.023C153.018 514.516 165.1 512.271 173.03 516.2C181.035 520.166 188.067 523.047 196.895 523.758C206.096 524.506 210.585 531.653 208.041 538.8C205.535 545.834 192.78 552.307 188.216 547.069C174.676 531.578 156.908 539.024 136.223 536.031V535.993Z" fill="black"/>
<path d="M228.241 546.508C226.595 544.599 221.358 541.232 220.348 536.854C218.665 529.745 227.53 521.475 235.236 521.251C243.166 520.989 247.542 525.367 248.515 532.813C249.45 540.296 241.782 546.47 228.278 546.508H228.241Z" fill="black"/>
<path d="M270.959 542.429C265.61 534.871 259.775 530.343 259.588 525.591C259.214 516.125 267.93 514.778 275.448 514.141C283.603 513.468 289.55 518.183 287.156 525.703C285.398 531.279 278.291 535.17 270.959 542.392V542.429Z" fill="black"/>
<path d="M309.336 422.096C306.232 424.64 301.705 430.964 296.057 432.198C289.212 433.695 283.302 428.12 283.152 420.412C283.003 413.041 287.042 408.027 295.16 407.428C303.052 406.867 308.85 411.17 309.336 422.058V422.096Z" fill="black"/>
</svg>
