<svg width="549" height="669" viewBox="0 0 549 669" fill="none" xmlns="http://www.w3.org/2000/svg">
<path d="M380.823 463.015C396.047 463.39 410.673 463.539 425.261 464.1C441.158 464.736 443.066 466.832 443.589 482.284C443.589 483.032 443.589 483.743 443.589 484.492C443.851 517.679 443.851 517.566 411.196 519.437C401.695 519.998 392.232 521.308 380.636 522.505C379.851 529.315 378.392 535.638 378.504 541.924C378.803 557.75 382.058 561.005 398.292 561.23C427.804 561.641 457.317 561.117 486.83 561.828C508.188 562.352 508.787 563.213 509.086 585.063C509.348 604.968 508.974 624.873 508.3 644.74C507.777 660.155 505.57 662.4 489.673 662.699C453.502 663.372 417.331 663.223 381.16 663.859C345.774 664.458 310.426 666.066 275.041 666.478C201.315 667.301 127.589 667.825 53.8629 668.049C35.5717 668.087 33.8511 665.879 33.29 647.359C32.6541 625.958 32.4298 604.556 32.5046 583.117C32.5046 578.179 34.3001 573.24 35.8338 565.682C79.4858 564.709 122.651 563.774 166.191 562.801C173.223 548.509 169.932 535.114 166.752 518.726C149.883 518.202 133.163 517.753 116.442 517.155C102.877 516.656 95.6324 509.485 94.7097 495.641C94.3731 490.478 94.1486 485.315 94.1486 480.151C94.1486 470.162 99.1984 465.41 109.223 465.41C123.25 465.373 137.277 465.185 151.304 464.662C165.668 464.138 168.323 462.23 169.034 447.975C170.007 428.07 170.119 408.128 169.782 388.223C168.585 318.182 167.052 248.141 165.556 178.1C165.443 173.049 164.358 168.036 163.423 160.815C155.232 160.403 147.526 160.066 137.427 159.58C136.941 167.288 136.08 173.573 136.192 179.859C136.529 199.726 137.688 219.631 137.651 239.498C137.614 257.757 134.808 260.226 117.265 260.488C103.238 260.675 89.2113 260.825 75.1842 260.488C57.3793 260.077 54.5363 257.57 53.9753 239.873C53.302 217.835 53.5641 195.76 53.3397 173.723C53.3397 170.094 52.853 166.464 52.4415 160.515C42.8283 160.066 33.5147 159.393 24.2382 159.281C3.85228 158.944 1.90691 157.185 0.560313 136.458C-1.42217 106.451 0.410691 103.645 30.4846 102.447C62.915 101.138 95.383 101.549 127.851 100.839C138.736 100.577 149.584 99.08 160.768 98.1447C167.837 75.3964 164.508 53.9576 163.386 32.9678C161.777 3.33515 164.471 -0.555999 194.582 0.11747C203.297 0.304545 211.976 1.91337 220.541 2.84875C230.529 23.8385 222.374 45.0528 226.227 65.1447C226.788 67.9508 225.928 71.0188 225.965 73.9746C226.115 94.1787 228.808 97.6957 248.333 98.4066C263.557 98.9678 278.894 97.9202 297.26 97.546C297.596 79.5494 298.232 63.6855 298.157 47.8215C298.045 10.8181 291.836 7.78753 338.555 9.17188C346.598 9.39637 354.602 9.95759 363.953 10.444C373.791 37.3453 365.076 65.2943 371.697 94.478C378.504 95.2263 386.247 96.7977 393.99 96.7977C436.071 96.7977 478.152 96.3862 520.196 96.0494C544.509 95.8624 546.679 98.2195 548.25 121.753C551.392 169.645 545.856 163.097 508.6 163.322C503.662 163.322 498.725 164.556 492.441 165.417V250.835C464.985 257.27 439.026 256.111 410.822 251.06C406.558 225.73 408.129 200.736 409.925 176.005C410.261 171.478 420.249 167.662 427.318 162.349C409.139 161.526 391.783 160.74 375.175 159.954C367.507 180.794 372.108 419.876 380.823 463.128V463.015ZM242.423 462.941C244.294 463.614 246.351 464.961 248.408 464.961C257.984 464.961 267.522 464.624 277.098 464.325C294.479 463.776 303.868 454.809 305.265 437.424C305.601 433.046 305.414 428.631 305.152 424.253C304.217 405.92 302.646 387.587 302.235 369.216C300.888 304.413 299.99 239.611 298.681 174.808C298.569 170.056 296.474 165.305 294.828 158.57C272.535 163.434 250.241 154.155 229.78 164.706C226.04 202.532 236.513 447.638 242.423 462.903V462.941ZM305.975 560.594C306.985 551.876 308.219 546.114 308.219 540.352C308.144 524.077 303.656 519.4 287.422 518.913C280.128 518.689 272.797 520.26 265.465 520.41C237.224 520.971 237.224 520.896 240.591 548.396C240.665 549.107 240.703 549.856 240.703 550.604C240.703 561.005 246.052 564.971 256.189 563.811C262.697 563.063 269.318 563.213 275.901 562.801C285.814 562.165 295.689 561.379 305.975 560.631V560.594Z" fill="black"/>
</svg>
