<svg width="590" height="661" viewBox="0 0 590 661" fill="none" xmlns="http://www.w3.org/2000/svg">
<path d="M205.632 113.246C203.628 104.734 201.623 96.2566 199.759 88.4478C165.431 79.6188 67.4075 76.5937 19.2222 82.89C15.705 88.9401 11.4844 96.1158 7.40453 103.08C-1.84564 100.689 -1.70495 98.4375 9.16311 76.8048C18.2022 76.242 28.191 75.8901 38.1094 74.9052C58.3683 72.8651 63.7146 67.2722 65.9656 46.132C67.3021 33.5745 68.1813 20.9819 69.4475 8.42443C69.553 7.36918 70.7842 6.41932 73.1759 3.00733C107.679 -3.46488 144.012 6.56009 180.415 4.62547C215.797 2.72601 251.426 4.90681 286.914 5.89172C323.669 6.91179 360.529 7.36917 397.108 10.3942C432.139 13.3138 467.943 6.31399 504.417 17.4997C504.417 28.0874 504.628 37.8308 504.381 47.5743C503.678 76.9455 507.265 81.0961 535.438 82.6438C546.833 83.2769 558.299 83.277 569.625 84.5082C575.604 85.1413 581.337 87.8498 589.356 90.2417C587.773 97.6285 586.789 103.503 585.206 109.236C580.915 124.678 570.434 132.065 554.571 132.663C541.91 133.12 529.177 133.366 516.691 135.195C512.893 135.758 507.793 140.823 506.843 144.657C505.014 152.185 510.994 156.336 517.676 157.039C527.7 158.094 537.935 157.321 547.994 158.305C556.471 159.114 564.841 161.295 572.861 162.773C577.152 178.777 576.096 192.144 570.539 204.912C558.405 213.565 545.391 210.048 533.081 210.857C508.426 212.475 504.276 215.641 503.045 240.087C499.985 302.172 497.241 364.256 495.307 426.375C493.407 488.494 492.88 550.684 491.262 612.838C490.911 626.556 488.519 640.239 487.041 654.169C461.507 664.827 437.942 659.551 414.799 654.626C410.367 653.676 404.915 645.797 404.388 640.661C402.981 626.873 403.087 612.803 404.177 598.944C411.669 502.845 418.422 406.712 419.477 310.262C419.688 292.534 421.868 274.805 422.396 257.077C422.783 243.324 425.385 229.148 416.628 214.339C409.312 213.179 400.801 211.807 392.289 210.505C369.674 207.023 365.172 202.063 364.152 178.109C363.941 173.255 365.277 168.295 366.121 161.682C373.859 160.416 381.034 158.903 388.279 158.13C395.806 157.285 403.473 157.567 410.965 156.547C417.894 155.597 423.099 151.2 422.044 143.884C421.411 139.522 418.246 134.105 414.553 131.959C409.312 128.934 402.629 128.125 396.439 126.965C387.857 125.346 379.17 124.291 368.02 122.603C367.247 113.527 365.629 105.191 366.015 96.9249C366.402 88.4125 372.206 83.1715 380.682 82.1163C393.063 80.6038 405.513 79.6892 417.05 78.5988C424.998 56.8254 424.823 56.8253 420.075 30.9716C414.342 28.9666 407.589 24.9567 400.59 24.4291C382.898 23.0572 365.101 22.6352 347.375 22.987C328.804 23.3739 323.634 29.1426 321.664 48.6647C321.277 52.4285 321.347 56.2625 321.171 60.0614C318.076 133.542 314.137 207.023 312.133 280.539C310.831 328.694 312.203 376.919 312.695 425.109C312.766 431.229 314.911 437.349 316.001 443.048C337.245 457.434 361.443 450.751 383.074 456.133C384.551 458.384 387.084 460.46 387.084 462.5C386.908 523.529 384.692 516.212 332.497 515.544C317.338 515.368 302.179 513.328 287.055 513.855C279.423 514.137 277.453 520.679 281.779 530.387C292.999 530.95 305.45 531.583 317.901 532.252C330.316 532.92 343.154 530.95 355.429 536.965C358.841 551.774 355.429 565 351.384 579.949C344.455 581.743 337.351 585.261 330.316 585.155C292.296 584.663 254.205 583.924 216.254 581.954C192.584 580.723 188.785 575.095 189.805 550.402C189.911 547.905 190.333 545.302 191.177 542.98C192.021 540.694 193.604 538.689 195.363 535.769C206.371 528.91 219.42 532.815 231.73 531.372C237.885 530.669 244.075 529.332 249.984 527.468C251.778 526.905 254.099 523.528 253.853 521.77C253.396 518.498 251.883 513.398 249.632 512.695C242.563 510.443 235.001 509.282 227.544 508.79C211.26 507.699 194.94 507.242 179.781 506.609C172.208 487.427 170.976 469.3 176.088 452.228C192.197 450.223 209.361 448.113 224.274 446.249C235.001 434.676 233.735 422.892 233.805 411.636C234.649 298.724 235.423 185.812 235.986 72.9354C236.056 57.8805 234.614 42.8609 233.84 27.1376C203.874 13.9118 175.525 19.012 147.705 22.1426C145.067 26.9967 142.605 30.1274 141.62 33.6449C133.636 62.8402 139.193 70.7898 168.28 73.041C181.856 74.0963 196.207 71.212 208.517 79.2671C213.054 91.3673 210.908 102.131 204.894 112.472L205.562 113.106L205.632 113.246ZM374.176 466.404C365.101 465.067 356.625 462.816 348.113 462.711C301.44 462.007 254.768 461.796 208.095 461.55C203.1 461.55 198 461.937 193.111 462.957C184.319 464.751 181.048 471.293 180.801 479.524C180.59 487.896 184.002 494.403 192.549 496.549C198.633 498.061 205 499.398 211.19 499.258C254.205 498.273 296.903 501.685 339.461 507.77C344.42 508.474 349.555 508.227 354.585 508.051C373.683 507.383 378.29 502.494 378.009 482.092C377.939 477.343 375.758 472.665 374.176 466.404ZM470.792 166.536C470.792 166.255 470.792 165.974 470.792 165.727C451.799 165.727 432.772 165.622 413.779 165.798C404.916 165.868 396.017 166.044 387.259 167.064C378.783 168.049 373.683 174.697 373.999 182.717C374.316 189.822 377.763 195.274 384.481 196.787C395.56 199.249 406.885 201.641 418.175 201.993C453.664 203.118 489.152 203.47 524.64 203.752C533.468 203.822 542.402 203.154 551.124 201.747C559.812 200.34 564.56 192.531 564.841 181.662C565.017 173.677 560.093 168.225 550.527 167.345C541.734 166.536 532.835 166.642 523.972 166.607C506.245 166.501 488.519 166.607 470.827 166.607L470.792 166.536ZM480.464 92.1411C457.603 91.0155 438.61 89.8899 419.582 89.2567C409.453 88.905 399.112 88.2366 389.229 89.925C384.024 90.8044 378.08 95.4828 375.196 100.126C371.819 105.578 378.361 113.809 387.681 115.814C397.494 117.924 407.624 119.191 417.683 119.683C444.273 121.02 470.898 122.145 497.558 122.603C515.214 122.919 532.906 122.673 550.491 121.442C560.093 120.774 571.84 121.125 574.443 107.653C576.272 98.2966 566.037 92.1763 548.768 92.1411C524.711 92.1059 500.653 92.1411 480.429 92.1411H480.464ZM274.042 543.824C256.28 542.382 242.528 540.835 228.74 540.377C221.354 540.131 213.511 540.694 206.652 543.086C203.065 544.352 199.337 550.191 198.985 554.271C198.633 558.422 201.236 564.226 204.507 566.97C207.989 569.889 213.687 570.909 218.541 571.261C248.542 573.336 278.579 575.06 308.615 576.748C313.61 577.03 318.639 576.291 323.669 576.397C337.738 576.608 346.847 570.417 346.109 557.648C345.616 549.03 339.672 544.985 322.684 544.106C305.168 543.191 287.583 543.895 274.042 543.895V543.824Z" fill="black"/>
<path d="M204.999 112.613C195.959 123.447 184.282 125.839 170.811 124.221C162.194 123.201 153.366 122.99 144.785 123.729C142.463 123.94 138.946 129.04 138.911 131.96C138.911 134.809 142.076 139.276 144.785 140.19C150.623 142.16 157.095 142.758 163.32 143.11C175.771 143.814 188.257 143.954 202.712 144.376C203.697 160.627 204.576 175.366 205.561 191.757C182.559 201.536 158.15 188.978 133.283 195.802C132.228 202.767 130.47 209.943 130.153 217.154C125.37 325.915 116.717 434.536 119.179 543.578C119.813 571.191 118.124 598.944 110.246 627.014C85.3089 635.104 62.975 629.933 40.0079 621.35C38.812 610.411 36.8777 601.723 37.0536 593.105C37.757 557.684 38.7416 522.227 40.3243 486.806C44.158 400.803 53.2676 315.081 51.4739 228.832C51.1573 213.882 51.4387 198.933 51.4387 182.647C64.5929 177.546 78.5911 179.868 92.1674 180.361C121.254 181.486 150.306 183.702 179.358 185.039C190.508 185.566 195.995 179.903 196.276 169.316C196.487 160.768 193.322 153.874 184.388 152.748C173.133 151.341 161.702 150.919 150.342 151.095C131.419 151.341 112.497 152.678 93.5743 153.065C74.7223 153.452 56.0811 154.507 37.1587 149.864C24.3211 146.698 9.51389 147.542 3.00712 164.778C-0.228677 153.276 3.88666 146.733 14.6844 145.326C25.869 143.884 37.2294 143.497 50.2077 142.512C53.0567 131.362 55.7648 120.879 58.5082 110.116C74.6872 103.397 91.042 106.282 107.186 108.92C139.86 114.231 172.64 115.603 205.631 113.176L204.999 112.543V112.613Z" fill="black"/>
</svg>
