<svg width="663" height="706" viewBox="0 0 663 706" fill="none" xmlns="http://www.w3.org/2000/svg">
<path d="M201.613 586.332C195.927 590.523 190.167 594.601 184.556 598.904C168.397 611.289 152.649 624.311 136.003 636.06C121.64 646.162 112.139 646.574 107.912 639.465C103.348 631.794 108.323 627.341 125.081 618.623C144.382 608.595 162.075 595.911 176.738 574.62C168.097 571.44 161.626 567.661 154.744 566.763C132.225 563.919 109.595 562.086 87.0019 559.915C83.2614 559.541 79.0346 560.439 75.8177 558.98C72.9374 557.633 69.5709 553.966 69.4212 551.122C69.2716 548.353 72.4137 543.489 74.9199 542.853C82.1392 541.057 90.0318 539.336 97.1763 540.458C125.605 544.836 154.108 549.289 182.087 555.912C194.431 558.83 201.501 556.436 209.281 547.119C279.94 462.668 298.194 366.954 270.738 261.587C265.389 241.158 257.31 221.439 250.726 201.308C248.22 193.675 242.647 183.76 253.532 179.644C264.529 175.49 266.512 186.491 269.579 194.012C284.167 229.895 296.511 266.227 301.262 305.066C308.855 366.805 301 425.887 275.152 482.499C273.02 487.176 271.187 492.04 268.606 498.364C279.94 501.357 294.566 499.861 295.127 514.79C295.314 519.767 289.366 527.362 284.354 529.72C269.766 536.53 269.242 519.393 259.479 512.957C246.126 530.58 232.734 548.241 219.867 565.191C225.889 577.763 234.68 578.362 243.919 575.294C284.616 561.861 323.219 570.018 361.223 585.92C374.689 591.558 386.222 589.039 395.823 578.362C400.835 572.75 405.623 566.875 412.094 559.279C397.993 542.965 384.003 526.839 369.078 509.552C364.926 514.641 362.382 519.729 358.268 522.311C353.629 525.23 346.074 528.747 342.483 526.839C337.433 524.182 332.608 517.035 332.009 511.348C331.635 507.831 338.742 502.667 343.418 499.711C347.645 497.017 353.106 496.231 357.744 494.734C351.572 468.879 344.577 444.259 340.014 419.189C333.168 381.585 334.066 343.868 342.782 306.376C348.093 283.514 351.946 260.315 357.295 237.416C359.876 226.415 364.103 215.789 367.956 205.125C372.519 192.403 380.749 183.049 393.841 179.082C393.766 177.024 394.252 175.191 393.579 174.181C375.699 146.941 372.257 146.679 351.684 171.449C345.886 178.446 340.537 185.78 334.964 192.964C325.687 204.975 319.104 205.013 310.912 192.066C306.498 185.069 304.104 176.8 299.765 169.728C293.219 159.102 289.778 145.594 275.152 140.58C261.873 150.346 248.707 160.374 235.166 169.878C197.648 196.294 155.454 203.179 111.652 194.311C93.7349 190.682 77.1268 179.419 60.5561 170.439C43.0503 160.935 41.5166 160.598 27.8262 175.004C23.6741 179.382 19.9336 184.845 14.8091 187.426C11.0311 189.335 5.30805 187.389 0.445312 187.164C0.744558 182.412 0.856692 177.66 1.52999 172.946C1.67962 171.749 3.66214 170.888 4.59729 169.691C10.2081 162.619 19.5596 155.884 20.2703 148.325C20.9436 141.141 12.1158 133.321 8.41262 125.351C6.72937 121.722 7.29051 117.007 6.84165 112.779C14.8963 112.056 27.0532 117.918 43.3122 130.365C50.6063 125.613 58.6484 120.3 66.7655 115.174C128.56 76.1474 192.823 72.0315 259.33 101.853C275.339 109.037 276.424 109.337 286.86 94.2948C303.281 70.6471 320.151 47.1864 327.52 18.5996C327.707 17.8513 327.894 17.103 328.231 16.4294C331.672 9.09566 333.617 -2.05469 343.941 0.527102C348.542 1.68704 352.058 11.7897 353.929 18.45C361.522 45.3156 368.218 72.4805 375.512 99.421C376.447 102.863 379.028 105.857 382.02 111.095C415.686 94.5567 448.079 77.9434 486.569 75.9603C525.097 73.9772 559.585 84.3418 594.335 99.7951C607.913 84.0425 620.706 69.3375 633.312 54.5202C634.733 52.8365 635.07 50.2921 636.304 48.4212C641.167 40.9752 648.386 41.4242 653.698 46.1388C656.054 48.1967 655.979 56.4285 653.81 59.6464C644.458 73.416 633.835 86.2875 623.885 99.6455C621.267 103.163 619.359 107.204 616.404 112.293C625.307 119.215 633.573 125.613 641.877 132.049C647.264 136.24 653.436 139.719 657.775 144.808C660.692 148.213 663.61 155.36 661.964 158.091C657.775 165.051 651.341 161.122 646.441 157.418C641.616 153.788 637.576 149.036 632.638 145.594C622.838 138.784 612.664 132.535 602.826 126.174C585.619 140.842 570.395 154.387 554.535 167.221C533.7 184.096 510.845 197.342 484.287 203.104C462.143 207.894 440.672 207.07 420.436 195.434C415.349 192.515 409.888 190.27 404.389 187.613C385.649 216.387 376.11 247.369 368.592 279.136C358.53 321.53 355.949 364.41 358.604 407.777C361.036 447.551 383.516 511.086 430.012 541.581C439.026 535.332 449.163 529.009 458.515 521.675C484.699 501.245 514.137 488.112 546.568 481.601C556.967 479.506 567.552 477.036 575.071 487.438C574.098 498.663 565.719 498.289 558.388 499.935C525.434 507.382 495.472 521.376 468.876 542.217C463.752 546.221 459.45 551.309 453.652 556.959C459.637 561.524 463.34 565.565 467.904 567.623C502.803 583.488 538.638 595.013 577.876 589.4C583.824 588.54 590.37 587.342 595.868 588.914C599.684 589.999 603.574 595.237 604.771 599.353C605.295 601.224 599.646 607.173 596.392 607.51C581.393 609.007 566.168 610.391 551.131 609.531C517.466 607.585 485.409 598.979 455.747 582.291C449.276 578.661 442.056 576.342 434.276 573.049C424.139 583.339 414.75 592.88 403.341 604.479C415.685 614.919 426.683 623.674 437.044 633.141C443.253 638.791 454.961 644.478 445.573 654.768C436.221 665.021 429.937 654.357 423.541 648.258C416.957 642.009 410.262 635.872 403.341 629.998C394.589 622.589 386.621 623.749 380.487 633.44C368.367 652.561 355.425 671.269 344.764 691.175C335.076 709.248 328.194 711.006 316.186 695.067C302.084 676.321 288.506 657.163 273.694 639.016C265.651 629.175 255.664 620.831 246.238 612.187C236.625 603.432 226.749 604.592 218.034 613.497C201.65 630.222 185.379 647.098 169.668 664.459C164.506 670.184 161.028 678.379 151.938 671.98C144.008 666.405 145.729 657.836 150.442 651.737C161.925 636.808 174.382 622.627 186.8 608.483C192.448 602.047 198.957 596.397 205.054 590.373L201.575 586.22L201.613 586.332ZM395.224 132.797C407.045 171.337 442.281 196.07 477.293 186.379C518.214 175.079 550.607 149.448 578.662 117.905C532.765 74.3888 430.722 91.0769 395.224 132.76V132.797ZM256.861 123.031C251.923 111.956 241.038 109.598 231.126 106.717C205.428 99.2339 178.982 98.0365 152.724 101.965C124.108 106.231 96.8771 115.099 74.1718 134.182C69.9824 137.699 66.8777 142.526 63.4737 146.492C118.909 206.36 219.381 177.885 256.898 123.031H256.861ZM260.976 594.152C284.466 620.494 305.114 643.693 327.707 669.062C340.687 648.781 352.245 630.746 364.889 611.027C331.972 589.587 299.691 585.172 260.976 594.152ZM321.872 167.071C326.174 165.088 328.456 164.49 330.139 163.143C333.056 160.823 335.45 157.792 338.405 155.472C360.998 137.886 367.731 117.606 351.048 91.8252C344.876 82.2464 346.784 68.5143 335.899 58.7484C322.583 78.4299 309.753 96.8392 297.67 115.735C295.613 118.953 294.828 125.239 296.586 128.232C304.441 141.59 313.418 154.275 321.91 167.071H321.872Z" fill="black"/>
<path d="M453.128 137.998C453.689 126.287 462.479 117.494 473.14 117.943C484.137 118.392 491.581 127.26 491.319 139.57C491.094 151.731 481.032 163.068 471.12 162.394C460.01 161.609 452.454 151.394 453.128 137.998Z" fill="black"/>
<path d="M167.313 143.199C166.266 155.697 158.485 163.255 147.114 162.806C135.256 162.32 127.027 150.833 128.449 136.614C129.309 128.008 141.316 119.365 151.865 119.814C161.328 120.188 168.36 130.852 167.313 143.199Z" fill="black"/>
</svg>
