<svg width="573" height="626" viewBox="0 0 573 626" fill="none" xmlns="http://www.w3.org/2000/svg">
<path d="M557.969 498.618C558.643 501.447 558.4 504.788 558.373 507.779C558.158 514.326 558.885 520.712 554.844 527.044C544.632 543.399 530.54 556.629 514.562 567.299C473.148 594.944 418.612 605.965 372.483 617.605C365.397 619.787 359.819 624.637 352.275 625.338C293.158 621.296 232.156 629.272 174.117 614.91C114.112 598.07 52.7861 573.981 3.82793 534.508C-1.61487 526.263 1.13347 513.976 0.486805 503.845C0.298193 489.295 6.38766 481.158 19.2402 494.01C94.2807 565.09 173.067 596.723 275.806 599.39C343.033 601.303 437.392 587.723 501.224 546.229C519.6 534.319 535.578 520.065 547.838 503.252C549.994 499.938 556.218 493.768 557.861 498.348L557.969 498.618Z" fill="black"/>
<path d="M161.348 377.716C163.422 383.697 162.749 389.437 162.856 395.472C163.368 404.418 161.725 413.336 156.417 420.827C138.418 449.846 118.937 454.319 89.729 453.107C80.2984 452.46 72.6731 447.556 65.3173 443.892C58.3925 440.012 50.5517 437.398 44.8664 431.605C21.1552 398.14 27.9721 359.663 61.5989 334.227C68.0925 329.754 75.0442 329.62 82.3731 328.811C89.6212 328.111 97.489 326.521 105.033 328.488C128.125 336.544 148.845 351.58 161.078 377.15L161.267 377.689L161.348 377.716Z" fill="black"/>
<path d="M10.9414 246.794C12.612 228.903 49.4721 214.811 64.5071 205.569C70.8121 201.878 77.9794 200.692 85.2005 201.662C116.133 204.896 146.284 206.512 177.405 206.863C184.761 206.674 191.685 209.261 196.751 214.623C207.556 225.32 218.36 236.097 229.219 246.902C232.722 250.486 236.602 255.174 236.252 260.348C235.955 265.332 230.809 269.32 226.309 271.664C157.681 309.036 80.2158 304.132 18.1087 255.902C15.1717 253.692 11.5611 250.459 11.0492 247.226L10.9684 246.821L10.9414 246.794ZM37.5357 244.154C36.8082 246.148 38.4518 248.654 39.8798 250.351C52.9749 265.952 78.9494 273.577 99.2656 270.802C103.253 270.317 107.133 268.458 108.238 264.362C109.989 255.578 107.861 246.148 111.04 237.876C111.956 234.939 112.846 231.463 110.501 229.038C94.8736 219.23 74.8269 227.098 60.0074 233.268C54.5107 235.612 48.8793 238.037 43.2748 240.085C41.2001 240.921 38.6673 241.864 37.6704 243.857L37.5357 244.154ZM207.744 259.351C207.825 249.408 196.67 245.959 190.096 242.322C188.29 241.217 186.269 240.624 186.162 243.48C185.919 251.348 186.135 258.812 186.081 266.841C185.973 269.59 186.997 271.799 189.988 270.317C195.161 267.757 200.173 264.982 205.158 262.395C206.262 261.776 207.259 260.967 207.636 259.782L207.744 259.351Z" fill="black"/>
<path d="M329.643 260.293C330.532 257.652 332.741 255.47 335.031 253.718C346.941 244.881 359.443 235.666 372.754 225.858C378.062 221.655 384.556 219.149 391.157 221.008C417.886 227.097 464.284 220.011 492.172 218.664C497.938 218.313 503.138 220.496 507.584 224.187C522.269 236.447 537.223 249.192 552.905 262.395C555.572 264.739 559.937 268.08 559.479 271.61C516.099 311.003 340.878 343.12 329.508 260.67L329.643 260.266V260.293ZM358.985 265.332C358.85 267.514 360.44 269.777 362.057 271.475C375.772 285.567 397.893 290.471 416.808 287.48C421.065 286.887 424.38 284.112 424.918 279.72C425.727 267.622 425.08 255.093 425.215 243.965C425.134 241.674 424.622 239.222 422.898 237.767C419.988 235.396 415.434 235.827 411.796 235.773C398.648 235.1 391.426 236.42 381.672 245.15C375.475 249.919 369.035 254.823 363 259.485C361.222 260.913 359.335 262.691 359.039 264.954V265.332H358.985ZM504.674 247.44C503.327 248.168 503.758 253.018 503.677 256.386C503.677 260.239 503.677 264.604 503.677 267.999C503.65 276.298 502.222 281.741 513.296 280.744C519.09 280.367 526.58 273.873 526.014 266.975C525.637 265.197 524.209 263.984 522.808 262.691C519.628 259.7 516.826 257.06 513.377 253.826C511.222 252.183 507.584 247.252 504.944 247.306L504.674 247.413V247.44Z" fill="black"/>
<path d="M23.8971 84.1565C22.1996 82.9171 22.0918 79.0101 22.0649 76.5312C22.0649 56.7269 22.0649 37.785 22.0649 19.0855C21.5799 8.36158 26.3221 0.655374 37.7196 0.574541C45.776 0.439818 54.56 0.439818 63.1822 0.574541C64.5564 0.655374 65.7689 0.817048 66.7658 1.08649C71.7506 2.24511 69.622 8.11906 74.5798 7.44544C78.7831 6.71794 84.1989 2.43374 89.049 1.27512C100.77 -0.988215 113.11 0.520691 124.939 0.27819C130.651 0.305135 134.531 4.40069 138.681 7.25681C140.729 8.5771 143.477 8.81962 146.037 8.63101C160.506 7.55323 180.418 2.11044 196.504 0.305161C206.15 -0.880398 202.701 4.07738 197.285 8.71184C147.653 52.7123 82.3128 48.4281 32.3577 81.1118C30.0943 82.5937 26.1335 85.4229 24.1396 84.3182L23.924 84.1834L23.8971 84.1565Z" fill="black"/>
<path d="M332.819 3.45782C335.028 1.97587 338.019 1.97591 340.687 1.89507C349.12 1.41007 357.069 2.94587 362.566 9.60117C412.898 67.6397 488.962 102.263 563.922 118.619C569.284 120.882 570.039 128.265 568.772 133.6C567.883 138.073 564.245 140.094 559.961 140.417C516.904 143.758 455.794 120.72 417.101 99.5959C386.169 80.5192 347.935 48.1858 333.762 17.469C331.93 12.8884 329.451 5.90979 332.576 3.64645L332.819 3.45782Z" fill="black"/>
<path d="M333.869 203.279C324.735 206.243 316.49 211.308 313.014 219.958C298.652 258.758 306.709 318.224 307.194 360.204C307.14 366.428 301.724 368.961 296.254 369.176C281.381 370.227 266.238 369.796 251.877 365.269C249.694 364.515 247.566 363.518 245.814 362.063C239.644 359.449 238.809 330.834 249.883 340.4C252.712 343.067 255.11 347.217 258.667 349.21C261.496 350.935 264.756 351.582 268.07 351.743C276.935 351.689 286.878 353.09 292.805 346.3C295.527 342.959 296.093 338.46 295.931 334.229C294.153 295.779 283.671 227.744 304.957 197.432C308.999 191.531 316.409 190.453 323.414 190.642C399.775 191.127 476.109 195.627 552.039 196.139C556.215 195.896 563.302 197.351 563.706 201.204C564.218 205.354 557.508 207.482 553.44 207.725C484.112 216.751 404.41 199.507 334.381 203.144L333.896 203.279H333.869Z" fill="black"/>
<path d="M491.468 379.469C491.468 398.95 469.239 425.975 448.68 424.332C442.348 423.092 437.121 419.051 431.597 415.817C424.08 410.833 416.185 406.683 408.263 402.803C392.204 393.265 395.303 373.137 403.602 359.126C406.431 352.983 410.392 347.729 416.643 345.357C433.942 339.753 456.306 335.092 471.475 348.079C479.235 354.788 483.978 363.653 488.962 371.952C490.175 374.161 491.091 376.478 491.414 378.957L491.468 379.442V379.469Z" fill="black"/>
<path d="M404.76 7.66048C406.107 6.17853 409.475 6.47497 411.631 6.3672C425.588 6.95998 442.159 3.40323 453.88 13.4535C486.968 38.2425 519.328 59.0976 560.122 68.6898C568.286 70.8993 572.786 76.9888 572.113 85.7996C572.032 92.5896 567.02 96.0386 560.499 94.4219C507.85 85.2069 450.512 47.269 409.314 13.4805C407.67 12.1333 404.033 9.22331 404.652 7.79525L404.733 7.63359L404.76 7.66048Z" fill="black"/>
<path d="M278.154 2.40526C280.956 0.788592 284.405 0.653859 287.638 0.626915C297.904 0.465248 306.015 -0.0197509 301.973 11.3239C290.144 49.2079 265.517 87.4961 236.013 114.791C232.24 117.997 227.687 118.428 223.322 116.596C218.66 114.791 214.134 112.204 213.191 108.755C211.951 104.902 214.538 99.9175 216.478 95.2561C220.681 86.068 225.855 77.9039 231.998 68.9313C238.815 59.0427 246.44 49.0192 253.581 39.0498C260.721 29.0803 267.403 19.1377 272.307 9.49161C273.654 6.87799 275.271 4.18357 277.777 2.62078L278.154 2.40526Z" fill="black"/>
<path d="M225.313 410.939C221.164 402.856 225.745 397.467 234.205 398.06C264.464 398.06 294.588 398.033 325.817 398.06C329.589 398.087 333.846 398.842 335.085 402.641C336.325 407.06 336.918 414.631 334.035 417.352C332.202 419.238 328.592 419.346 325.79 419.238C300.435 417.46 245.145 426.055 225.529 411.29L225.287 410.939H225.313Z" fill="black"/>
<path d="M175.735 71.8435C170.535 71.6549 165.901 66.8049 164.203 62.5207C163.179 59.5298 164.904 56.566 166.871 54.1948C180.882 37.4623 208.069 20.7297 225.745 6.12572C230.163 2.24571 235.714 0.144086 241.588 0.197975C246.627 0.197975 252.608 -0.098425 255.114 1.11408C257.27 2.08408 256.946 4.18575 256.138 5.99103C248.486 23.4511 223.912 45.4109 187.133 67.7479C183.873 69.7149 179.669 71.8165 176.247 71.8165H175.709L175.735 71.8435Z" fill="black"/>
<path d="M493.677 9.43872C495.294 7.95677 498.958 7.66041 501.545 7.9568C512.888 8.87292 524.043 13.184 534.525 12.726C538.081 12.6182 541.638 12.6182 545.033 13.8307C549.075 15.2318 552.524 18.061 556.053 20.4321C563.355 25.2552 570.469 29.7549 569.957 38.7544C569.499 43.6313 572.032 54.7594 564.972 54.6247C549.317 52.7655 514.182 28.246 497.584 17.7377C494.943 16.148 490.632 12.6721 493.461 9.65432L493.704 9.43872H493.677Z" fill="black"/>
<path d="M246.866 450.79C244.549 447.556 244.791 440.712 247.432 438.126C248.887 436.617 251.339 435.997 253.548 435.889C268.044 435.243 281.705 445.266 296.74 445.643C298.573 445.805 301.213 445.724 302.129 447.044C302.803 447.961 301.725 450.089 300.971 451.329C299.084 454.562 296.632 458.092 293.345 459.196C291.271 460.005 288.899 459.924 286.663 459.574C275.616 457.715 264.488 455.801 253.521 453.942C251.204 453.565 248.483 452.784 247.135 451.113L246.866 450.79Z" fill="black"/>
</svg>
