<svg width="587" height="688" viewBox="0 0 587 688" fill="none" xmlns="http://www.w3.org/2000/svg">
<path d="M235.761 473.614C228.2 462.533 223.522 455.287 218.422 448.323C196.545 418.389 191.832 385.254 203.439 350.817C209.84 331.823 220.181 314.059 229.572 296.19C234.214 287.361 240.685 279.517 246.77 270.618C208.046 194.323 218.316 125.38 279.304 63.5072C272.868 56.9998 268.577 50.5277 262.563 46.9399C246.067 37.0557 227.989 31.3925 208.539 30.4427C157.786 28.0157 113.751 44.4775 75.8005 77.6476C52.6223 97.9085 41.9302 124.747 38.5889 154.646C37.3579 165.867 36.9711 177.756 49.2109 187.077C58.5665 182.434 68.4146 177.193 78.6144 172.585C100.104 162.877 122.262 159.746 145.265 167.098C187.154 180.535 199.922 225.102 170.905 257.955C147.867 284.055 118.393 286.517 87.1609 278.11C73.8659 274.523 61.2748 268.226 45.7641 262.176C42.1062 270.301 36.1971 277.759 35.775 285.497C33.4888 325.773 41.8599 361.616 82.5184 381.103C92.2609 385.781 99.9637 391.198 98.9789 403.685C98.17 413.957 90.5376 420.851 81.217 417.931C74.042 415.68 66.4097 413.183 60.5008 408.786C37.7447 391.937 19.6665 370.762 7.39161 345.189C0.0758917 329.958 -1.40151 313.215 1.48257 296.718C4.75354 278.04 8.62264 259.327 14.0039 241.177C17.3804 229.78 19.1389 219.192 15.1996 207.795C13.5466 203.012 12.7729 197.946 11.7881 192.951C-0.205483 132.274 17.8023 81.6927 67.0779 45.0403C115.685 8.91546 170.518 -9.51623 231.647 5.96081C250.991 10.8501 269.105 20.7695 287.499 29.0356C294.287 32.0959 300.231 36.9852 307.09 41.3469C317.29 38.3922 326.892 35.4728 336.599 32.8698C389.814 18.448 441.973 20.6288 492.972 42.6836C534.932 60.8339 562.753 92.1397 579.425 134.104C590.328 161.575 588.499 189.258 577.947 215.886C568.943 238.679 566.657 261.121 566.693 285.779C566.693 335.34 545.378 376.706 503.665 405.374C495.821 410.791 485.34 413.112 475.703 414.73C472.503 415.293 466.207 409.876 464.941 406.007C463.815 402.489 466.805 396.791 469.478 393.168C471.518 390.424 475.95 389.475 479.256 387.646C517.136 366.435 532.822 332.667 535.178 292.145C528.425 284.16 522.235 287.713 516.502 289.613C496.666 296.155 476.442 295.909 456.253 292.532C435.08 288.979 418.444 278.251 408.807 258.342C395.266 230.413 407.787 200.76 437.401 191.228C464.026 182.645 490.018 185.987 515.307 196.856C524.487 200.796 533.385 205.439 542.74 209.941C558.919 193.163 557.02 173.5 552.835 155.42C545.167 122.214 527.828 94.0744 497.369 76.8035C448.304 48.98 396.496 45.2514 343.141 62.6982C338.604 64.1756 334.84 68.0096 329.037 71.8437C331.604 80.5319 333.082 89.1147 336.599 96.7477C361.676 151.199 351.934 200.373 314.968 245.784C308.637 253.558 302.729 261.649 295.87 270.513C335.825 335.2 354.326 400.871 306.773 469.006C311.416 482.372 324.219 483.885 333.293 490.146C349.929 501.648 368.324 511.18 382.955 524.793C423.579 562.466 418.866 619.942 373.951 652.655C353.059 667.885 329.213 677.101 304.346 682.237C262.633 690.89 221.095 689.166 180.964 673.232C160.107 664.966 144.596 650.825 134.291 630.635C113.786 590.43 123.458 554.973 154.48 523.21C168.302 509.035 187.154 499.678 204.212 488.879C212.619 483.568 222.186 480.051 235.691 473.578L235.761 473.614ZM456.394 220.494C446.827 221.267 438.351 225.102 436.874 235.021C435.291 245.573 440.496 254.613 449.641 260.488C464.237 269.844 499.339 267.628 514.357 256.724C523.431 250.146 523.678 238.82 514.392 231.152C496.771 216.624 477.708 209.413 455.55 221.197L456.359 220.529L456.394 220.494ZM264.884 660.464C287.816 660.534 316.234 653.077 341.734 639.956C394.21 612.942 384.257 563.064 354.079 537.386C342.578 527.607 329.6 519.236 316.27 512.13C274.802 489.97 274.556 490.216 231.611 509.492C221.236 514.17 211.036 519.341 201.012 524.758C186.135 532.778 175.337 545.124 166.086 559.018C152.721 579.068 153.143 599.153 164.82 619.871C171.96 632.57 182.089 641.504 194.962 647.765C214.799 657.403 235.902 660.675 264.849 660.499L264.884 660.464ZM288.132 435.554C286.585 432.916 285.882 429.891 284.088 429.012C276.596 425.318 270.687 420.57 274.943 411.635C278.284 404.635 285.108 406.288 291.509 407.484C294.604 408.047 298.086 406.605 301.04 406.113C306.809 353.35 299.176 327.039 270.828 301.643C248.072 319.547 236.219 343.818 230.029 371.43C227.391 383.143 227.672 394.223 239.384 401.505C249.232 407.625 252.081 416.349 250.428 427.464C249.901 431.017 250.71 435.061 252.011 438.509C256.935 451.594 270.898 454.443 282.399 444.559C285.037 442.272 286.338 438.438 288.097 435.589L288.132 435.554ZM299.282 94.391C273.642 113.667 262.387 137.199 257.463 163.58C252.538 189.997 255.176 215.78 271.426 241.317C297.136 226.755 309.587 204.805 315.672 180.64C322.917 151.972 320.701 123.094 299.282 94.3558V94.391ZM63.2795 228.795C72.7056 247.825 88.216 252.995 104.325 256.232C120.504 259.468 133.764 253.171 144.21 240.719C152.51 230.835 154.198 219.298 148.993 209.378C142.838 197.665 130.211 189.012 118.429 191.931C96.6573 197.313 74.9214 204.067 63.2795 228.795Z" fill="black"/>
<path d="M259.54 567.636C271.147 568.656 280.679 579.737 279.588 590.993C278.603 601.053 268.228 609.424 258.309 608.123C246.351 606.575 236.221 595.179 237.804 585.013C239.317 575.305 249.973 566.792 259.54 567.601V567.636Z" fill="black"/>
<path d="M132.92 224.749C133.096 234.106 123.072 243.04 112.521 242.97C101.371 242.9 92.297 235.442 91.3122 225.523C90.2571 215.217 98.6633 205.684 109.109 205.297C121.279 204.84 132.709 214.197 132.92 224.749Z" fill="black"/>
<path d="M455.584 221.163C467.648 219.72 478.411 223.519 486.29 232.137C489.877 236.077 492.48 244.026 491.003 248.705C489.49 253.418 482.807 258.554 477.567 259.609C459.066 263.408 446.545 249.197 450.977 230.343C451.821 226.826 454.53 223.73 456.394 220.459L455.584 221.127V221.163Z" fill="black"/>
</svg>
