<svg width="577" height="648" viewBox="0 0 577 648" fill="none" xmlns="http://www.w3.org/2000/svg">
<path d="M558.998 5.82199C560.684 37.747 562.482 66.3782 563.531 95.0097C564.167 112.563 562.669 130.191 564.055 147.669C564.879 158.223 563.006 169.826 571.771 179.182C574.43 182.064 575.479 190.036 573.419 193.03C566.377 203.285 568.1 214.251 568.175 225.142C568.4 269.456 568.512 313.769 569.224 358.045C569.449 372.753 570.31 387.649 572.669 402.133C580.198 448.505 575.591 495.026 575.741 541.473C575.816 560.635 576.602 579.76 576.902 598.923C577.314 626.394 570.984 634.067 543.905 634.291C515.926 634.516 487.91 632.307 459.894 632.045C411.165 631.596 362.437 630.661 313.746 632.045C268.089 633.355 222.507 637.435 176.887 640.317C144.526 642.375 112.166 645.108 79.7673 646.492C58.4182 647.391 36.9193 647.203 15.6076 645.931C-0.872394 644.92 -4.05598 636.2 4.89566 622.352C7.89203 617.711 11.2254 612.247 11.3752 607.082C12.012 583.54 11.3754 559.962 11.5252 536.383C11.9372 479.756 12.8735 423.092 12.911 366.466C12.911 332.669 11.4876 298.835 10.9258 265.039C10.1767 220.801 10.4391 176.488 8.79109 132.287C7.55508 98.453 3.99666 64.6942 1.52466 30.8605C1.15012 25.733 0.700624 20.5679 0.550806 15.4405C0.288624 5.48495 5.0081 0.507238 15.2707 0.507238C57.3696 0.432384 99.4684 -0.166352 141.567 0.133062C192.468 0.507329 243.369 1.51776 294.27 2.37857C314.196 2.71541 334.121 3.72592 354.01 3.76334C415.098 3.95048 476.149 3.80095 537.237 3.95066C543.68 3.95066 550.159 4.99853 558.961 5.74707L558.998 5.82199ZM227.413 183.898C224.08 194.265 218.948 203.061 218.799 211.931C217.937 263.467 218.162 315.004 218.199 366.54C218.199 374.363 219.285 382.185 220.072 393.039C269.774 392.065 317.192 391.13 363.823 390.194C365.471 384.954 366.707 382.859 366.669 380.8C366.295 341.053 365.546 301.306 365.358 261.596C365.096 200.59 357.118 139.66 363.561 78.5421C364.647 68.3246 364.122 57.8824 363.561 47.5526C362.474 28.6521 361.95 28.0909 342.624 27.5669C304.982 26.4815 267.302 25.5084 229.661 25.1715C222.919 25.0967 216.177 28.2405 210.746 29.5879C211.982 67.9128 212.506 103.281 214.529 138.537C215.465 154.855 212.282 173.007 227.413 183.973V183.898ZM195.989 276.941C195.202 276.941 194.378 276.941 193.592 276.904C193.592 260.698 194.228 244.492 193.367 228.324C192.805 218.218 200.146 203.959 185.352 199.58C175.351 196.623 163.741 198.906 152.879 199.393C150.145 199.505 147.598 202.387 144.826 202.761C136.923 203.847 127.634 207.252 121.192 204.445C101.303 195.837 80.8158 197.297 60.3282 197.185C37.5183 197.072 35.496 198.457 35.7957 220.389C36.5822 274.059 37.9304 327.691 39.3912 381.324C39.8406 397.305 43.7361 400.561 59.7292 399.813C69.2427 399.364 78.7186 397.68 88.2321 397.38C115.499 396.519 142.766 396.37 169.995 395.396C185.427 394.835 190.109 390.98 190.858 378.292C192.843 344.534 194.341 310.737 196.026 276.941H195.989ZM542.032 394.498C542.818 386.264 544.017 380.538 543.83 374.887C543.08 349.1 541.545 323.35 541.095 297.6C540.609 271.027 541.283 244.455 540.908 217.882C540.683 200.927 538.099 197.858 522.181 196.96C489.745 195.126 457.272 193.405 424.761 192.881C413.45 192.693 402.101 196.024 388.618 198.12C390.041 262.981 391.389 325.147 392.775 388.959C443.414 390.868 491.168 392.664 542.032 394.573V394.498ZM94.1497 521.712C93.5505 523.471 92.9138 525.23 92.3145 526.951C94.7116 529.571 96.697 532.977 99.6184 534.736C135.8 556.219 172.055 577.552 208.424 598.773C223.518 607.569 239.474 610.113 257.302 608.953C291.91 606.708 326.705 607.344 361.351 605.997C372.175 605.585 384.984 605.697 393.299 600.195C422.739 580.659 450.68 558.876 479.033 537.73C482.853 534.886 485.812 530.806 491.318 525.08C481.954 523.358 475.662 521.599 469.257 521.113C408.094 516.547 346.968 515.873 285.655 519.054C239.324 521.45 192.843 521 146.399 521.674C128.983 521.936 111.529 521.712 94.1123 521.712H94.1497ZM107.296 487.504L108.57 492.594C134.825 493.791 161.081 495.738 187.337 495.887C213.143 496.037 238.949 494.315 264.755 493.492C291.311 492.631 317.866 491.246 344.421 491.171C370.228 491.097 396.108 493.866 421.877 492.706C447.571 491.546 473.153 500.528 499.446 492.594C454.163 465.684 408.281 440.87 362.212 416.505C358.767 414.671 353.523 416.168 349.141 416.281C338.803 416.505 328.466 416.917 318.128 417.104C290.037 417.59 261.871 417.179 233.855 418.901C222.544 419.612 210.521 423.13 200.558 428.556C175.314 442.367 150.968 457.824 126.473 472.982C119.694 477.174 113.701 482.601 107.334 487.504H107.296ZM29.4281 25.0591C31.226 55.5619 32.8744 83.1454 34.5224 111.141H188.723C186.737 80.8249 184.977 53.541 183.179 25.6206C130.855 21.1294 81.8271 22.7012 29.4656 25.0217L29.4281 25.0591ZM388.917 111.103C401.577 111.103 414.611 110.691 427.608 111.178C454.762 112.189 481.88 113.91 509.034 114.809C528.473 115.445 539.035 115.707 536.301 89.9572C534.766 75.3607 533.904 60.652 533.342 45.9433C532.893 34.6779 526.525 30.1494 516.413 29.9248C478.846 29.064 441.241 28.3528 403.674 27.9411C395.547 27.8662 389.067 31.3469 388.992 40.8159C388.842 63.3842 388.955 85.9526 388.955 111.066L388.917 111.103ZM163.89 613.07C164.34 611.311 164.751 609.59 165.201 607.83C127.934 584.888 90.7042 561.87 53.2871 539.19C49.9911 537.206 45.384 537.393 38.5673 535.971C38.2676 556.893 38.4175 575.793 37.6309 594.619C36.6946 617.786 39.0169 621.154 61.19 620.481C90.5918 619.582 119.993 618.01 149.358 616.401C154.264 616.139 159.058 614.193 163.89 613.033V613.07ZM432.739 602.441C441.653 605.173 446.148 607.643 450.717 607.756C474.351 608.28 497.985 608.691 521.581 608.13C549.035 607.494 548.961 607.082 548.848 578.675C548.848 571.302 549.672 563.891 549.11 556.556C548.474 548.172 546.713 539.901 545.028 528.897C503.491 549.37 469.482 574.072 432.739 602.441ZM41.5263 495.251C80.3293 473.656 114.9 452.734 145.762 424.926C110.33 423.766 75.5349 420.248 40.4025 428.22C39.8407 450.302 35.3463 470.549 41.5263 495.251ZM434.762 416.243C434.275 417.965 433.788 419.724 433.264 421.446C468.471 443.976 505.926 462.203 545.29 479.719C545.29 462.877 545.478 448.43 545.215 433.983C545.065 424.739 539.223 421.408 530.645 421.109C511.469 420.472 492.329 419.649 473.153 418.713C460.343 418.077 447.534 417.066 434.724 416.206L434.762 416.243ZM35.6457 138.949C35.6457 147.669 34.5595 155.042 36.0577 161.854C36.9566 165.933 41.7135 171.959 45.1218 172.221C59.7291 173.344 74.4862 173.419 89.0935 172.333C96.7717 171.772 101.042 160.357 100.105 148.792C99.3563 139.547 93.9252 135.655 85.4605 135.992C70.1041 136.591 54.7475 137.788 35.6457 138.949ZM445.286 168.142C444.65 156.277 444.2 148.53 443.751 140.296C423.9 134.458 405.809 131.463 386.258 141.718C387.269 150.551 388.281 158.972 389.329 168.142H445.286ZM157.748 171.435H188.348V137.826C176.999 137.19 167.261 136.628 155.463 135.954C156.249 148.38 156.924 158.223 157.748 171.398V171.435ZM535.702 168.927V142.467C524.802 141.643 515.701 140.97 505.139 140.184V168.927H535.702Z" fill="black"/>
</svg>
