<svg width="497" height="595" viewBox="0 0 497 595" fill="none" xmlns="http://www.w3.org/2000/svg">
<path d="M8.38348 588.469L0 580.084C0 390.932 5.58005 202.427 5.58005 13.1939C90.3048 13.1939 174.868 8.44888 259.701 8.04448C298.06 7.85576 474.006 -14.7637 491.42 16.9414C491.42 204.557 497 389.072 497 579.545C490.261 584.075 483.71 588.469 475.381 594.05C319.221 594.05 164.058 588.469 8.35666 588.469H8.38348ZM375.83 112.164C373.727 104.858 372.083 99.1158 370.412 93.2924C376.315 75.6605 370.573 50.5336 368.012 32.066C365.02 29.2082 362.378 26.7009 358.146 22.6299C353.132 32.4973 342.565 23.0613 335.826 29.9361C285.067 8.58367 194.519 24.3554 140.202 24.3554V112.03C174.598 142.117 209.049 172.528 248.001 199.812C240.426 204.826 234.685 208.655 228.943 212.429C228.943 280.854 254.174 355.345 192.201 399.56C233.552 420.157 257.598 411.476 301.268 401.258C288.436 388.128 278.085 378.018 268.03 367.773C268.03 319.191 280.565 259.313 273.394 211.971C268.893 206.66 264.957 201.969 260.348 196.523C299.704 167.756 337.524 140.122 375.803 112.164H375.83ZM351.65 404.143C399.525 404.143 447.049 403.765 474.195 356.936V277.026C465.892 249.634 334.559 264.516 312.05 264.516C305.338 267.967 300.782 270.313 295.984 272.766C295.984 331.054 286.307 374.54 351.65 404.143ZM205.652 353.781V273.197C195.598 256.671 185.732 268.156 176.998 270.879C174.167 268.318 172.172 266.511 172.469 266.754C123.03 278.616 75.236 258.881 27.9271 265.81V328.681C-1.75222 353.943 56.8517 390.016 72.163 399.236C80.8161 392.685 116.965 400.26 130.336 397.834C162.037 392.038 181.688 373.408 205.652 353.808V353.781ZM346.231 570.756H467.24C473.629 512.9 477.699 455.96 473.197 396.917C436.428 428.542 395.616 426.466 350.383 426.466C359.871 465.854 346.204 528.645 346.204 570.756H346.231ZM34.8011 571.7C64.5883 571.7 95.0761 575.286 123.623 565.984C116.021 522.983 132.384 465.45 115.455 426.439C81.8674 428.353 52.242 417.003 21.3766 394.248C25.9862 420.507 29.7333 441.725 33.7498 464.587C30.1646 467.364 25.8245 470.707 22.5897 473.214V551.237C26.8219 558.328 30.4071 564.34 34.828 571.7H34.8011ZM145.701 556.953C157.696 581.567 196.73 554.176 208.941 571.215C244.632 571.7 280.349 571.7 316.04 571.7C322.483 561.806 324.316 543.284 322.213 516.243C272.451 507.319 192.767 493.65 145.701 512.253V556.953ZM117.261 111.598C117.261 86.3906 117.261 58.9991 117.261 30.7718H42.5377C25.2046 37.3232 39.9768 55.1978 29.7603 64.4181V160.207C58.7117 144.139 86.5039 128.718 117.261 111.625V111.598ZM398.608 30.0978C359.737 93.8316 423.328 134.568 469.801 161.475C464.895 122.194 459.935 76.3615 469.316 38.5634L460.878 30.1248H398.608V30.0978ZM216.112 458.818C251.182 452.401 286.388 454.423 321.916 454.423C324.073 444.098 325.798 435.902 327.604 427.301C316.283 412.393 234.2 433.233 216.219 437.951C199.318 428.434 183.413 419.483 166.053 409.696C159.988 413.336 152.521 417.785 145.943 421.721V454.423C160.177 454.423 204.574 447.71 216.112 458.818ZM468.453 185.415C438.828 166.112 414.162 150.07 387.826 132.924C375.992 141.524 322.348 171.261 325.07 185.415H468.48H468.453ZM189.613 180.751C168.291 163.011 151.793 149.262 135.188 135.485C110.145 136.051 71.4351 160.207 57.7681 180.751H189.613ZM150.796 241.627C166.781 252.492 183.44 245.563 197.862 247.909C212.472 236.289 204.17 222.243 206.596 211.405L198.212 203.02C182.82 203.317 166.7 202.535 150.769 203.505V241.6L150.796 241.627ZM466.835 210.245C453.249 206.228 437.695 199.084 419.581 204.584V240.144C421.764 242.328 424.379 244.943 427.182 247.747C438.962 246.965 451.309 250.686 462.01 243.595C463.978 245.267 465.272 246.372 466.593 247.477C469.316 242.085 472.038 236.747 474.653 231.598C472.227 224.939 469.855 218.495 466.835 210.219V210.245ZM76.3953 241.357C82.1909 230.519 86.7736 218.441 81.8136 202.05C64.6961 208.008 44.9098 194.689 28.5202 210.03V241.357H76.3953ZM339.95 246.992C338.01 232.649 348.199 216.258 332.214 203.128C324.423 214.667 311.215 204.395 302.265 210.461C302.346 223.24 299.677 235.426 294.313 246.992H339.95Z" fill="black"/>
</svg>
