<svg width="592" height="645" viewBox="0 0 592 645" fill="none" xmlns="http://www.w3.org/2000/svg">
<path d="M356.166 601.194C310.76 599.471 269.222 599.119 226.418 604.184C223.288 612.31 220.79 619.204 218.012 626.028C215.444 632.324 211.294 637.038 203.802 635.631C195.994 634.188 195.361 627.329 194.236 621.138C194.025 619.907 193.919 618.606 193.849 617.34C188.221 503.267 187.412 389.124 191.879 274.98C192.477 260.031 195.502 244.836 189.311 227.916H119.777C118.511 232.489 115.627 238.258 115.451 244.097C114.923 264.358 114.009 284.794 115.592 304.95C122.098 387.541 114.677 469.745 109.929 552.019C108.768 572.28 107.291 592.506 105.392 612.697C104.829 618.747 103.071 624.973 100.292 630.354C99.1313 632.606 94.031 633.555 90.6546 633.731C88.7201 633.837 85.5901 631.656 84.8164 629.756C82.9874 625.219 81.1936 620.189 81.264 615.405C81.5102 596.375 81.4398 577.275 83.4094 558.386C92.3079 472.383 93.1873 386.274 90.1625 299.955C88.6853 258.132 90.3382 216.238 90.0217 174.38C89.881 155.878 94.981 139.521 105.497 124.431C118.018 106.422 134.76 97.3112 156.813 96.8187C193.919 96.0097 217.906 115.426 219.735 152.782C221.388 186.902 219.348 221.233 218.68 255.458C217.871 296.05 216.675 336.607 215.971 377.164C215.866 383.32 217.73 389.511 219.031 397.847H269.398C277.03 377.129 276.151 354.16 276.151 331.859C276.151 284.97 273.97 238.047 272.704 191.158C272.281 175.963 270.875 160.732 271.895 145.642C273.161 126.507 266.795 110.643 254.836 96.7132C230.99 68.9249 200.883 50.7042 165.465 41.8753C144.889 36.7397 125.44 40.7848 107.15 52.076C85.8363 65.2315 71.0291 84.0854 59.8093 105.613C48.0268 128.16 40.4649 152.431 37.4049 177.897C28.8582 248.529 25.4111 319.477 26.5366 390.531C27.6621 461.514 31.2497 532.497 33.7469 603.481C33.9228 608.511 35.0133 613.998 33.4657 618.5C32.0237 622.686 28.1193 627.998 24.3559 628.877C20.9443 629.651 13.8398 625.993 12.7143 622.757C9.40816 613.365 6.77021 603.234 6.48884 593.315C3.32338 480.544 -4.55535 367.737 4.90585 254.931C7.96579 218.349 12.503 181.767 18.6229 145.536C24.0042 113.738 39.2687 86.0552 60.3717 61.3271C106.482 7.29818 162.933 3.25309 224.378 37.3026C245.164 48.84 263.067 65.6185 284.275 81.4825C289.023 76.8393 294.897 72.5128 298.942 66.8496C313.96 45.8853 332.355 29.1419 354.9 16.2678C384.303 -0.545853 414.868 -2.62114 446.804 5.53948C527.98 26.3631 567.971 84.1206 583.868 161.717C588.933 186.375 590.304 212.123 590.55 237.378C591.395 329.994 591.465 422.61 590.972 515.226C590.797 551.984 588.546 588.742 586.928 625.5C586.717 630.389 585.591 635.666 583.235 639.852C581.758 642.455 577.221 644.741 574.09 644.671C570.995 644.6 566.423 642.138 565.227 639.5C563.222 635.103 562.835 629.721 562.765 624.762C562.589 610.797 561.956 596.762 563.222 582.903C571.277 492.961 567.126 402.842 567.478 312.829C567.619 271.041 564.277 229.183 561.429 187.465C558.861 149.863 545.601 115.813 522.88 85.6683C498.014 52.6741 464.847 33.1167 424.224 26.6093C400.87 22.8808 378.395 27.1721 358.804 40.6794C323.21 65.2667 303.057 98.472 303.127 143.004C303.233 216.555 302.599 290.141 302.564 363.692C302.564 374.913 304.077 386.099 304.956 398.129C324.441 401.998 341.5 398.832 360.95 396.51C361.829 384.41 363.271 373.26 363.341 362.109C363.798 305.02 363.869 247.931 364.185 190.877C364.256 180.746 363.904 170.475 365.522 160.556C370.164 132.486 389.931 112.472 417.611 106.914C432.665 103.889 447.683 103.467 462.736 108.075C491.155 116.763 505.33 134.21 504.204 163.933C502.692 203.223 499.702 242.444 497.205 281.664C496.009 300.623 493.547 319.583 493.371 338.542C492.492 428.59 492.211 518.674 491.578 608.722C491.542 616.284 491.718 624.164 489.643 631.269C488.553 634.997 482.89 639.57 479.162 639.711C475.363 639.852 469.102 635.807 467.871 632.219C465.48 625.219 465.093 617.304 465.164 609.777C465.797 542.557 466.008 475.338 467.837 408.153C469.173 358.732 472.866 309.417 475.187 260.031C475.398 255.388 473.288 250.639 472.655 247.79C445.854 245.434 421.093 243.217 393.835 240.826C392.358 248.529 389.404 256.795 389.474 265.061C389.79 324.613 391.69 384.199 391.197 443.751C390.705 503.267 388.067 562.783 386.344 622.335C386.308 623.601 386.097 624.867 385.992 626.133C385.359 632.817 383.037 638.445 376.003 640.625C370.235 642.384 364.431 636.616 361.899 626.52C360.105 619.345 358.558 612.063 356.096 601.194H356.166ZM477.403 169.455C478.74 137.34 460.415 122.532 429.113 130.868C423.098 132.451 416.943 134.878 411.808 138.325C395.136 149.476 390.74 165.973 393.694 184.862C396.684 203.997 409.627 217.962 427.741 220.811C433.65 221.725 441.774 221.866 445.854 218.595C461.682 206.002 477.157 192.389 477.403 169.49V169.455ZM194.165 158.34C193.356 145.079 190.718 130.024 174.645 122.602C162.651 117.08 140.774 124.537 130.399 137.165C123.013 146.134 118.546 156.511 118.827 168.47C119.144 181.555 121.184 194.359 134.162 200.867C148.793 208.183 163.355 207.163 176.825 196.821C188.749 187.676 194.13 175.505 194.165 158.34ZM224.307 543.226C218.82 568.798 221.564 573.934 241.366 573.511C272.88 572.843 304.358 571.506 335.837 570.275C340.831 570.099 345.966 569.607 350.785 568.341C359.543 566.019 361.934 559.16 361.723 550.929C361.548 543.789 358.03 539.04 351.313 537C347.76 535.945 343.891 535.276 340.198 535.417C306.187 536.753 272.211 538.196 238.235 539.919C233.382 540.165 228.598 542.135 224.272 543.19L224.307 543.226ZM284.627 510.689C284.627 510.126 284.662 509.563 284.697 509C291.028 509 297.394 509.387 303.69 508.93C318.814 507.84 334.008 506.819 349.026 504.814C355.674 503.935 360.422 499.046 359.684 491.553C358.945 484.237 353.704 480.755 346.951 479.84C341.957 479.172 336.857 479.137 331.792 479.242C305.202 479.77 278.612 480.368 252.058 481.107C244.496 481.318 236.829 481.529 229.407 482.936C226.242 483.534 223.076 486.735 220.896 489.513C216.499 495.177 220.72 507.101 227.93 507.699C246.782 509.282 265.74 509.774 284.627 510.724V510.689ZM306.398 445.298C323.738 454.479 340.058 452.931 356.166 445.158C358.171 444.208 359.367 438.158 358.452 435.238C355.955 427.183 349.202 423.032 341.113 423.032C326.27 423.032 314.171 428.485 306.398 445.263V445.298ZM263.207 450.047C261.765 435.133 257.017 428.203 247.345 425.776C239.115 423.701 232.115 426.902 227.93 433.937C225.573 437.876 223.569 443.575 224.624 447.62C226.558 455.007 234.191 455.112 240.346 454.549C247.486 453.881 254.52 451.841 263.207 450.047Z" fill="black"/>
<path d="M431.119 183.139C425.737 174.802 422.502 170.651 420.567 165.973C420.251 165.164 426.019 159.958 427.953 160.521C431.857 161.611 436.817 164.636 437.942 168.048C438.892 170.827 434.952 175.259 431.119 183.139Z" fill="black"/>
<path d="M164.549 165.586C157.656 169.244 153.365 173.395 150.305 172.621C146.682 171.742 144.079 166.606 141.055 163.335C144.502 160.591 147.878 155.737 151.36 155.667C154.736 155.596 158.183 160.486 164.549 165.586Z" fill="black"/>
</svg>
