<svg width="667" height="750" viewBox="0 0 667 750" fill="none" xmlns="http://www.w3.org/2000/svg">
<path d="M467.162 203.705C458.687 203 451.148 201.326 443.824 201.998C428.756 203.382 423.81 208.781 423.206 223.741C422.707 236.396 422.954 249.088 423.236 261.777C424.414 315.001 425.732 368.212 426.98 421.43C427.633 449.307 428.176 477.159 429.074 505.014C429.722 525.157 428.941 545.502 435.53 567.608C444.761 569.621 454.228 572.283 463.85 573.554C475.12 575.062 486.633 574.993 497.925 576.358C506.145 577.369 512.821 582.336 513.316 590.803C516.096 639.923 520.188 689.1 516.507 738.285C509.329 740.922 504.703 744.031 500.013 744.144C406.238 746.152 312.436 747.88 218.615 749.398C213.853 749.482 209.075 747.095 203.177 745.588C201.675 737.709 199.175 730.486 199.07 723.185C198.5 683.892 198.248 644.604 198.525 605.304C198.672 583.428 202.756 579.803 224.716 575.738C241.916 572.569 260.444 575.777 279.071 563.894C279.514 552.94 280.771 540.463 280.371 528.032C279.71 507.748 277.713 487.553 276.702 467.302C272.816 388.826 269.136 310.296 265.286 231.817C264.932 224.503 263.982 217.244 263.191 208.628C240.32 205.078 219.802 199.439 197.475 209.119C190.133 243.841 203.106 280.052 190.743 313.187C178.715 322.662 165.495 320.698 153.097 321.13C116.356 322.386 79.5791 322.867 42.8251 323.594C37.747 323.707 32.6088 323.932 27.6319 323.223C19.4688 322.066 13.2651 317.62 12.0215 309.081C10.5727 299.078 9.64297 288.956 9.17208 278.827C7.12701 235.784 5.12015 192.773 3.46375 149.73C2.15921 115.52 1.27829 81.3056 0.572672 47.0754C0.436668 40.9777 2.09743 34.8209 2.88858 28.8147C19.6872 17.8063 37.7043 18.9064 55.2448 18.2843C142.705 15.2316 230.131 12.1819 317.63 9.54944C419.013 6.48951 520.398 3.8531 621.804 1.03832C624.343 0.981724 626.862 0.715094 629.405 0.69352C660.186 0.727272 663.758 4.60222 663.983 35.9097C664.623 118.286 665.473 200.643 666.252 283.006C666.377 294.367 667.719 305.9 660.608 315.806C628.956 325.53 541.123 326.463 486.957 317.663C474.862 305.635 478.162 289.615 476.944 274.822C475.582 258.453 475.549 241.927 473.801 225.593C473.03 218.353 469.494 211.402 467.015 203.648L467.162 203.705Z" fill="black"/>
</svg>
