<svg width="445" height="437" viewBox="0 0 445 437" fill="none" xmlns="http://www.w3.org/2000/svg">
<path d="M2.0637 415.233C3.14847 395.476 5.2431 376.656 5.01867 357.835C4.53239 316.227 2.40036 274.619 1.83928 232.973C1.05376 175.425 0.717072 117.915 0.866695 60.3673C0.978912 26.7292 21.7765 6.59865 59.1073 3.53043C71.1893 2.52017 83.2714 1.69698 95.3534 1.02347C131.824 -0.997063 162.01 25.9434 157.596 64.4083C154.492 91.461 154.192 118.85 152.621 146.09C152.023 156.567 151.462 167.007 150.826 178.456C173.531 179.13 189.616 185.117 188.718 210.149C206.822 209.213 223.243 208.315 241.497 207.38C247.146 192.525 256.31 179.99 274.414 175.538C278.155 174.602 281.521 164.35 281.783 158.251C283.092 126.633 287.88 95.0905 278.978 63.3981C273.629 44.3153 289.152 20.5553 311.334 11.4255C341.857 -1.14672 373.464 -2.34409 404.361 9.70428C426.319 18.2728 439.635 33.2023 438.924 59.6564C437.578 110.319 437.765 161.057 438.625 211.72C439.523 262.421 441.505 313.084 444.161 363.709C444.797 376.244 439.934 383.765 433.313 393.68C419.997 413.624 402.603 424.55 380.272 428.666C353.078 433.679 326.221 434.316 300.299 421.369C281.82 412.127 273.292 398.358 274.601 377.666C276.097 353.457 276.733 329.173 277.594 304.927C277.706 302.045 276.92 299.09 276.172 293.327C263.155 299.726 252.008 307.434 239.702 310.689C226.834 314.094 212.545 315.366 199.416 313.645C186.324 311.924 173.905 305.338 159.504 300.287C154.118 319.22 156.886 337.929 156.325 356.338C156.25 359.331 157.334 362.325 157.634 365.318C160.888 397.572 142.185 424.849 110.316 431.883C80.2041 438.544 50.1674 440.003 21.9635 423.465C16.839 420.471 10.9288 418.862 2.0637 415.233ZM296.147 96.3627C295.025 105.268 293.828 111.03 293.641 116.867C291.92 164.5 290.162 212.132 288.815 259.764C287.693 299.875 287.282 339.987 286.234 380.098C285.823 395.813 293.267 407.151 307.032 412.202C332.243 421.481 358.465 425.784 385.06 417.478C415.845 407.862 433.239 382.904 432.416 350.912C431.742 325.207 431.219 299.464 430.807 273.758C430.022 223.806 429.423 173.854 428.563 123.902C428.376 112.302 427.291 100.703 426.393 85.3994C384.013 114.772 341.932 109.421 296.222 96.4375L296.147 96.3627ZM8.34782 86.8587C7.22566 92.172 5.16839 97.0736 5.35542 101.9C6.96386 148.672 9.50738 195.444 10.667 242.253C11.7891 287.565 11.9763 332.952 11.9388 378.264C11.9388 404.045 17.9611 413.736 42.4618 421.781C62.2868 428.254 82.1491 429.713 102.76 424.101C133.357 415.757 147.834 398.994 147.31 367.638C146.599 326.105 144.579 284.572 143.794 243.038C143.195 211.271 143.756 179.504 143.644 147.737C143.569 129.365 143.233 110.993 143.008 91.6107C60.6035 124.987 59.1073 115.146 8.34782 86.8961V86.8587ZM97.4481 9.25527C71.2642 8.13276 47.923 14.3814 26.3774 28.2633C12.0884 37.4679 6.70188 54.9792 15.4922 69.8339C20.3175 77.9908 27.8361 85.0627 35.4295 91.012C58.0599 108.748 82.8973 101.564 107.024 95.1279C133.358 88.0935 146.711 67.8133 143.906 43.0805C141.699 23.5113 129.355 11.8371 97.4856 9.2927L97.4481 9.25527ZM223.43 214.265C202.034 215.237 183.518 220.887 168.257 234.807C151.761 249.886 150.602 275.816 166.162 289.436C187.072 307.733 211.348 307.92 236.822 300.661C260.35 293.963 270.15 275.853 276.023 254.675C279.24 243.113 275.424 233.31 263.716 228.633C250.475 223.357 236.859 219.017 223.43 214.265ZM370.023 12.9596C376.232 23.848 387.267 23.0623 395.646 26.7666C418.763 36.9815 421.531 59.2074 401.481 74.7729C382.591 89.4031 338.827 92.0971 319.114 79.8617C300.075 68.0004 298.578 46.1113 317.169 33.3146C326.258 27.0659 337.592 24.1474 347.879 19.6947C351.246 18.2354 354.537 16.7013 357.866 15.2046C340.996 11.6874 325.548 13.2964 311.708 22.0146C299.775 29.5355 289.077 39.6007 290.274 54.4554C291.583 70.919 299.962 84.7634 317.057 90.4134C338.154 97.4104 360.036 101.9 381.694 94.9783C392.766 91.4611 404.1 85.1375 412.291 77.018C427.179 62.2756 427.516 36.9066 413.451 25.9434C401.668 16.7387 387.978 9.59203 370.023 12.997V12.9596ZM368.19 27.7394C349.039 27.8143 334.001 34.8487 320.61 44.1656C310.698 51.0878 312.044 61.1156 321.62 68.9358C337.48 81.9196 379.973 81.1713 394.599 67.6262C406.755 56.401 405.072 41.4716 390.185 34.5494C382.741 31.107 374.4 29.6103 368.19 27.7394ZM164.629 214.003C169.566 209.213 175.027 206.257 175.738 202.441C176.299 199.447 170.95 195.369 168.257 191.739C164.703 194.882 159.691 197.427 158.157 201.356C157.222 203.788 161.524 208.278 164.666 213.965L164.629 214.003ZM265.661 213.142C270.412 206.22 274.227 202.216 275.873 197.464C276.509 195.631 272.282 192.076 270.262 189.27C265.774 192.6 260.761 195.444 257.282 199.597C256.497 200.532 261.135 206.033 265.661 213.142Z" fill="black"/>
<path d="M66.8125 89.59C63.5956 88.3927 55.2916 86.6715 48.409 82.5182C36.6262 75.4089 30.9404 63.585 31.6511 50.04C32.2496 38.1039 41.3393 31.2191 51.6632 27.8141C71.002 21.4157 90.7146 15.6161 110.203 27.8889C123.258 36.0833 127.335 48.2439 121.649 62.7244C114.542 80.8344 95.0912 91.4609 66.8125 89.59ZM75.7899 82.144C81.4008 80.1983 91.7994 77.841 100.889 72.9768C109.792 68.1873 115.664 59.6562 114.093 48.5807C112.859 39.7502 101.936 30.7326 90.3031 31.032C79.1936 31.2939 67.8972 33.8009 57.1992 36.9813C43.1721 41.1721 39.1697 52.2102 45.4912 65.194C50.6532 75.783 59.5933 80.4976 75.7899 82.144Z" fill="black"/>
<path d="M224.552 227.959C233.118 229.119 236.896 229.343 240.562 230.167C250.362 232.337 260.312 235.143 263.005 246.406C265.848 258.267 261.434 268.856 253.167 277.238C238.579 291.98 205.961 296.657 187.483 287.34C175.775 281.428 168.556 272.111 168.257 258.941C167.957 246.331 177.982 239.82 187.558 236.378C200.799 231.663 215.126 230.017 224.515 227.996L224.552 227.959ZM202.52 281.204C222.906 281.69 237.42 278.921 247.594 265.601C256.721 253.665 253.916 244.048 239.627 240.12C222.158 235.293 205.101 238.548 189.353 246.368C176.897 252.542 176.561 267.696 188.418 275.479C193.879 279.034 200.687 280.493 202.52 281.204Z" fill="black"/>
<path d="M359.362 39.189C360.97 39.6754 365.646 39.6754 367.815 41.9953C372.005 46.4853 377.017 52.2102 377.241 57.6357C377.391 60.891 369.386 64.932 364.524 67.7383C362.205 69.0854 358.688 68.6364 355.771 68.4867C343.913 67.7758 334.711 60.4794 334.936 52.1728C335.16 43.492 344.437 38.0664 359.362 39.2264V39.189Z" fill="black"/>
<path d="M81.7005 36.5322C87.4984 42.5938 93.0345 46.2233 95.3537 51.312C99.2065 59.7309 91.6506 64.3333 85.5909 65.6803C78.1471 67.3267 69.656 66.9525 62.3619 64.8571C60.2672 64.2584 58.1725 52.5094 60.5665 49.7031C65.1674 44.315 72.985 41.6584 81.7005 36.5322Z" fill="black"/>
<path d="M232.445 256.771C232.37 265.451 222.271 273.945 213.032 274.768C203.381 275.629 192.496 269.268 192.047 261.597C191.86 258.492 193.88 254.338 196.237 252.168C203.381 245.62 220.663 245.171 228.219 251.008C230.388 252.692 231.585 255.573 232.408 256.771H232.445Z" fill="black"/>
</svg>
