<svg width="454" height="448" viewBox="0 0 454 448" fill="none" xmlns="http://www.w3.org/2000/svg">
<path d="M91.7991 139.349C79.8084 130.365 71.4523 124.151 63.0964 117.9C63.7708 116.402 64.4454 114.943 65.1199 113.445C80.8202 115.766 96.4829 118.124 111.958 120.408C117.954 104.124 115.78 100.194 101.766 101.429C95.3585 101.991 89.0263 103.825 82.9185 105.023C76.8483 97.5735 80.2577 92.3704 86.2905 90.4238C113.906 81.365 140.623 66.3169 171.537 75.6377C179.405 78.0335 186.637 78.1083 186.562 63.5094C178.469 62.9479 169.963 60.889 161.907 62.0495C136.314 65.7179 110.871 70.5468 85.3538 74.9265C74.4872 76.7982 63.5835 78.595 51.4055 80.6164C49.2322 74.2901 47.4333 69.0869 44.9977 61.9746C67.9673 50.0334 91.6864 42.4345 116.38 39.627C140.249 36.8944 164.417 37.0441 189.186 35.8837C192.071 23.9051 185.363 21.6591 175.996 22.4077C155.387 24.0174 134.741 25.4398 114.207 27.7981C103.94 28.996 95.546 27.9104 88.3891 17.2419C92.3985 15.2206 95.2835 12.75 98.431 12.3008C143.808 6.16175 189.11 -2.44789 235.162 0.733928C262.515 2.64302 289.457 4.21521 316.961 0.733928C333.973 -1.4372 351.396 4.58953 368.183 11.2152C366.534 21.7339 359.753 21.5842 353.12 21.5468C331.687 21.4719 310.216 21.3596 288.783 21.2847C281.588 21.2847 274.356 21.2847 267.574 21.2847C262.965 34.611 267.125 36.5949 277.991 38.242C312.764 43.52 347.312 50.5949 381.785 57.7072C388.417 59.0922 394.375 63.7714 401.57 67.4024C396.061 77.9586 388.38 77.996 381.373 76.9479C360.314 73.8035 339.481 68.9372 318.347 66.5789C304.595 65.0442 290.469 66.2794 276.605 67.4399C273.832 67.6645 271.509 73.242 268.998 76.349C272.333 78.5575 275.631 82.6003 279.04 82.6752C295.19 83.1244 311.377 82.75 327.565 82.226C351.733 81.4399 371.181 93.119 391.79 104.686C387.218 121.793 370.244 127.108 360.764 139.574C379.687 148.595 397.785 157.279 415.884 165.852C421.205 168.397 427.162 169.969 431.921 173.263C442.338 180.488 451.031 188.05 449.944 203.584C448.97 217.322 453.841 231.36 453.991 245.285C454.403 279.836 440.464 330.782 392.427 336.472C377.551 338.232 369.87 346.467 363.35 359.868C351.771 383.713 337.945 406.51 324.08 429.119C316.436 441.547 305.008 448.921 285.186 445.478C296.502 431.178 306.356 418.975 315.874 406.547C325.242 394.232 334.722 381.953 343.153 369.039C346.6 363.761 348.136 356.911 349.223 350.547C350.347 343.921 349.935 337.034 341.953 333.889C334.572 331.007 323.143 334.788 318.684 342.087C316.773 345.194 315.911 348.937 314.488 352.344C300.998 384.611 252.623 403.814 219.349 391.05C203.199 384.836 195.481 372.146 189.036 357.772C187.836 355.076 187.087 352.194 186.15 349.387C176.033 318.953 168.464 316.558 142.497 335.574C141.335 336.435 140.473 337.67 138.337 339.953C150.815 356.574 163.593 373.344 176.145 390.301C188.361 406.847 206.01 420.547 207.134 447.05C199.789 444.205 194.094 443.681 191.209 440.574C176.82 424.964 162.656 409.055 149.392 392.472C138.9 379.371 130.244 364.847 119.939 351.595C117.129 347.964 111.434 345.194 106.75 344.67C74.1503 340.852 51.7053 318.092 24.7638 303.381C-1.01605 289.306 -0.678891 267.558 0.33282 246.146C1.75671 216.199 12.4359 188.648 36.9043 168.734C52.642 155.932 67.0309 140.659 91.7991 139.349ZM15.8083 234.018C21.4664 251.124 23.0024 270.889 33.3818 283.392C46.5341 299.226 65.9443 310.681 84.3049 321.199C102.178 331.419 122.525 327.301 138.937 317.381C150.328 310.494 158.197 297.467 166.965 286.649C196.043 250.825 194.731 225.034 162.693 191.98C160.633 189.884 159.022 187.338 156.848 185.392C117.279 149.531 57.1384 147.285 27.3491 204.745C22.7777 213.579 19.9675 223.312 15.8083 234.055V234.018ZM378.975 323.745C383.209 322.397 388.867 320.9 394.301 318.766C411.724 311.953 426.9 300.162 430.16 282.269C434.656 257.488 445.972 232.483 435.668 206.429C435.406 205.755 435.069 205.082 434.657 204.483C416.146 177.119 378.001 144.515 331.012 161.921C301.448 172.852 278.403 214.627 288.895 244.274C302.347 282.269 330.15 306.226 366.497 321.312C369.832 322.697 373.691 322.772 379.012 323.82L378.975 323.745ZM209.869 27.1243C207.433 57.7821 202.9 88.5147 203.237 119.21C203.537 146.237 208.858 173.263 212.904 200.14C213.654 205.194 218 212.943 221.822 213.691C233.551 216.012 246.328 219.568 258.244 210.509C255.546 184.793 252.736 159.376 250.375 133.959C249.851 128.156 251.274 122.167 251.124 116.29C250.487 92.1458 251.349 67.7768 248.314 43.8944C244.679 15.3703 242.956 15.4452 209.907 27.1618L209.869 27.1243ZM320.558 314.873C310.216 303.568 294.965 304.28 282.562 298.927C271.471 294.135 263.565 296.718 257.757 309.034C251.387 322.472 246.066 322.397 234.375 311.953C230.516 308.51 227.106 304.504 222.984 301.397C211.518 292.713 189.71 295.782 177.794 307.387C213.054 335.274 290.057 339.804 320.558 314.836V314.873ZM204.211 339.617C206.347 365.707 220.961 380.793 247.115 378.584C261.766 377.349 276.305 369.638 289.87 362.788C294.891 360.242 296.951 351.857 303.096 341.601C282.375 344.782 267.35 349.274 252.474 348.825C236.773 348.301 221.223 343.06 204.174 339.617H204.211ZM137.588 145.338C137.438 146.798 137.289 148.296 137.176 149.755C146.244 157.205 155.649 164.279 164.305 172.178C173.148 180.226 181.242 189.098 189.673 197.632C191.172 196.921 192.633 196.21 194.132 195.499C192.857 178.467 191.546 161.472 190.347 145.338H137.663H137.588ZM272.895 145.189C266.001 167.948 267.237 178.242 278.478 192.055C283.275 185.354 287.583 178.878 292.38 172.777C297.626 166.114 303.359 159.788 311.115 150.729C296.089 148.52 284.324 146.836 272.933 145.151L272.895 145.189ZM195.968 281.333C205.71 277.964 212.717 275.568 218.563 273.547V241.392C205.772 242.839 198.241 256.153 195.968 281.333ZM286.572 281.408C280.689 251.312 276.567 245.547 259.743 243.713C259.331 274.258 263.752 280.51 286.572 281.408ZM168.989 123.852C184.427 125.911 185.476 117.076 186 108.13C186.525 99.4826 185.026 92.1083 171.649 92.3329C170.75 102.926 169.888 113.183 168.989 123.852ZM245.504 252.36C234.712 270.328 234.75 282.606 245.504 294.697V252.36ZM273.794 103.675C270.247 111.137 270.372 118.075 274.169 124.488C278.066 116.702 277.941 109.764 273.794 103.675ZM353.232 119.846C355.518 114.156 357.654 111.312 357.317 108.766C357.055 106.745 353.907 103.862 351.846 103.675C350.01 103.488 346.787 106.258 346.263 108.279C345.851 109.927 348.511 112.36 353.232 119.846Z" fill="black"/>
</svg>
