<svg width="480" height="599" viewBox="0 0 480 599" fill="none" xmlns="http://www.w3.org/2000/svg">
<path d="M219.957 425.738C236.726 421.324 251.323 418.931 266.669 428.805C272.359 432.471 284.785 425.588 296.052 423.082C299.72 370.83 295.004 319.587 294.33 268.345C293.656 217.963 294.18 167.58 294.18 117.161C308.441 114.542 303.014 128.12 308.029 133.618C316.563 97.7858 336.775 72.3517 372.895 62.2528C410.436 51.7425 438.621 68.0877 462.314 96.8134C461.228 63.9733 437.947 46.9549 417.211 29.151C395.015 10.0753 366.606 8.35462 338.31 7.98058C353.918 -2.0061 383.824 -3.1656 402.838 7.98058C435.664 27.1685 467.928 48.264 476.949 89.3702C482.9 116.45 479.12 143.455 474.329 170.274C473.655 173.976 471.447 177.455 471.147 181.158C466.731 233.298 400.742 265.203 341.903 235.168C330.637 229.408 320.755 221.067 307.842 212.277C306.719 218.823 304.885 224.284 305.072 229.67C306.232 266.026 308.066 302.382 309.115 338.775C309.713 359.122 309.227 379.508 309.227 403.969C316.9 399.556 321.13 397.536 324.947 394.88C341.229 383.547 358.035 380.368 376.039 390.803C383.899 395.366 391.871 399.705 399.732 404.231C429.638 421.474 440.642 448.405 436.15 481.245C431.696 513.673 419.382 543.858 390.823 562.036C365.334 578.269 337.149 590.537 306.644 595.063C246.383 604.039 190.725 593.23 140.831 556.574C94.1566 522.313 89.141 452.893 130.388 413.095C147.756 396.339 166.171 388.11 189.976 396.526C194.206 398.022 198.66 398.92 205.996 400.902C211.236 332.117 208.167 264.717 205.809 197.316C204.312 196.568 202.815 195.82 201.317 195.072C196.489 201.131 191.324 206.929 186.832 213.212C150.713 264.156 39.9586 266.25 7.88144 194.586C-7.61439 159.95 0.507788 103.097 25.5107 74.5207C56.6147 38.9876 96.9263 21.8943 141.505 12.3565C147.007 11.1596 152.958 12.2072 161.043 12.2072C157.525 22.4931 151.237 21.6328 145.697 22.4931C118.523 26.7197 92.1353 33.4521 69.1161 49.4233C31.2 75.7178 8.33062 110.391 10.2395 158.08C10.6138 167.281 13.8328 176.333 15.7417 185.459C17.3137 185.16 18.8857 184.823 20.4577 184.524C19.8588 178.913 19.1103 173.303 18.6985 167.692C15.779 125.427 43.4021 88.0608 85.2858 80.6924C100.594 77.9993 117.962 76.9524 132.41 81.5156C170.925 93.6343 185.148 114.019 183.613 154.153C183.351 160.848 182.752 167.506 182.041 178.652C196.564 169.338 195.778 156.734 199.708 146.485C203.488 136.685 196.339 122.996 212.995 114.393C219.134 150.113 216.364 184.3 217.712 218.149C219.059 252.224 219.508 286.373 219.845 320.485C220.182 355.083 219.92 389.719 219.92 425.85L219.957 425.738ZM123.127 467.106C124.699 475.784 124.4 481.17 126.608 485.247C141.28 512.588 162.989 531.664 193.981 538.135C238.335 547.374 283.026 547.411 327.081 537.686C356.126 531.253 383.3 519.134 401.491 493.513C404.448 489.361 405.121 483.601 406.843 478.589C383.188 493.026 361.89 508.437 335.091 509.634C308.366 510.831 281.978 507.726 261.691 489.922C210.75 514.159 165.909 508.773 123.164 467.143L123.127 467.106ZM400.181 521.827C392.133 525.193 388.053 526.689 384.198 528.559C360.88 539.706 337.449 550.852 311.061 551.899C281.604 553.096 252.072 554.218 222.615 553.508C185.298 552.61 153.482 538.397 128.891 509.446C126.047 506.118 121.78 503.986 115.604 499.348C124.175 526.054 131.137 536.938 148.242 548.795C179.983 570.788 214.305 584.365 253.906 586.011C293.731 587.657 330.786 580.7 365.671 561.848C380.53 553.807 393.743 544.082 400.181 521.827ZM393.668 421.1C391.909 426.261 390.524 430.301 389.214 434.341C379.856 463.141 357.81 474.362 331.048 461.047C320.268 455.698 311.061 454.389 300.581 458.428C296.725 450.424 293.581 443.879 289.951 436.323C284.823 438.231 279.957 438.754 276.925 441.41C257.125 458.653 262.777 485.957 288.454 495.345C325.509 508.923 358.484 498.936 387.642 474.848C402.763 462.356 405.009 438.343 393.705 421.062L393.668 421.1ZM132.971 448.778C134.693 465.647 144.462 477.093 158.573 485.434C176.951 496.318 196.826 498.263 217.824 495.57C245.447 492.054 261.167 472.38 255.628 445.038C254.467 439.39 249.115 431.386 244.549 430.526C239.496 429.59 231.785 434.378 227.668 438.904C222.764 444.252 220.481 451.958 218.423 455.96C206.894 459.476 198.061 462.767 188.928 464.75C181.817 466.283 173.545 468.527 167.257 466.32C155.653 462.281 145.098 455.174 132.971 448.778ZM164.524 122.136C149.253 92.2877 120.544 80.6923 87.9059 88.1356C58.2242 94.9056 33.0341 123.295 31.2375 151.946C29.3285 182.467 43.5893 207.153 67.6565 214.933C31.6492 174.949 42.7658 136.012 60.7694 116.525C85.9221 89.258 125.073 91.0908 164.562 122.136H164.524ZM427.953 116.3C412.832 87.3128 388.503 80.0194 363.088 95.0181C350.1 102.686 342.839 114.617 339.096 129.092C336.887 137.658 336.812 145.138 344.635 151.871C348.565 107.436 375.552 95.3919 427.953 116.3ZM134.581 183.851C150.301 177.118 157.001 164.401 154.456 147.943C151.723 130.289 145.959 113.72 125.972 107.922C108.567 102.873 83.9757 110.84 69.9771 128.195C93.4828 116.188 115.155 108.97 132.896 129.205C147.269 145.625 142.59 164.588 134.543 183.851H134.581ZM329.551 190.808C354.367 222.788 397.111 232.251 422.601 196.007C387.904 214.11 358.334 209.697 329.551 190.808ZM449.999 124.941C448.914 81.6652 414.928 60.532 376.301 75.5681C428.141 82.6 429.189 86.9016 449.999 124.941ZM370.125 123.445C389.139 123.407 405.683 127.297 416.874 148.953C419.756 134.029 416.612 125.614 407.18 120.564C394.903 113.981 382.14 110.914 370.125 123.445ZM148.429 425.551C160.182 419.417 173.17 412.647 185.971 405.989C161.867 396.115 148.542 404.156 148.429 425.551ZM100.407 207.976C100.744 209.846 101.081 211.679 101.455 213.549C114.481 215.157 127.132 215.27 140.345 200.159C124.138 203.338 112.272 205.657 100.407 207.976ZM392.77 231.578C420.393 232.475 420.879 232.213 423.088 218.449C412.532 223.012 402.651 227.314 392.77 231.578ZM121.63 136.423V172.966C132.484 159.651 129.752 147.682 121.63 136.423ZM352.495 396.9C351.934 397.349 351.036 397.723 350.849 398.284C350.699 398.845 351.073 399.93 351.56 400.266C359.57 405.391 367.654 410.44 378.659 417.359C372.77 405.814 364.049 398.995 352.495 396.9ZM429.787 156.546C431.434 156.846 433.119 157.107 434.766 157.407C434.354 148.916 433.942 140.426 433.53 131.973C432.295 132.047 431.023 132.085 429.787 132.159V156.546ZM382.888 163.167C373.868 155.312 368.066 150.3 360.431 143.68C362.789 156.36 366.981 163.242 382.888 163.167ZM166.583 426.374C159.359 434.378 161.343 438.866 172.01 442.494C169.615 435.388 168.117 430.862 166.583 426.374ZM86.2963 165.448C87.7561 166.271 89.2533 167.057 90.7131 167.88C92.3226 162.194 93.9319 156.471 95.5414 150.786C94.6057 150.487 93.6326 150.15 92.6968 149.851C90.5634 155.05 88.3924 160.249 86.259 165.486L86.2963 165.448ZM357.399 441.185C353.394 437.819 351.41 434.864 349.464 434.864C347.405 434.864 345.421 437.782 343.4 439.428C344.71 440.961 345.945 443.579 347.368 443.729C349.801 443.953 352.346 442.569 357.361 441.185H357.399ZM352.458 418.706C352.009 416.985 351.597 415.227 351.148 413.507C347.517 414.779 343.924 416.05 340.293 417.359C340.63 418.519 340.93 419.641 341.267 420.801C345.01 420.127 348.715 419.417 352.458 418.743V418.706Z" fill="black"/>
</svg>
