<svg width="682" height="783" viewBox="0 0 682 783" fill="none" xmlns="http://www.w3.org/2000/svg">
<path d="M342.904 62.7109C342.904 53.394 342.791 45.1622 342.941 36.9304C343.053 32.4403 342.193 26.9774 344.4 23.7595C347.018 19.943 352.667 15.8645 356.706 16.089C360.335 16.3135 365.983 21.9262 366.581 25.8176C368.302 36.9679 367.928 48.455 368.377 59.8299C370.509 113.561 373.015 167.255 374.586 220.986C375.185 242.127 372.716 263.38 373.389 284.558C374.511 320.89 377.205 357.148 378.851 393.48C379.524 408.559 379.038 423.675 379.412 438.755C379.486 442.197 380.796 445.602 381.469 448.782C392.466 449.082 391.531 442.122 391.269 436.248C390.596 419.597 389.1 402.984 388.8 386.333C387.192 300.76 385.883 215.186 384.424 129.613C383.825 94.815 383.19 60.0169 382.554 25.2189C382.516 22.9364 382.254 20.6913 382.142 18.4089C381.731 10.2145 385.845 4.04063 393.663 5.16315C397.89 5.76182 404.099 12.4595 404.473 16.8373C406.231 37.9032 406.194 59.0814 406.98 80.2222C407.391 91.2603 408.139 102.298 408.775 113.337C410.421 113.524 412.067 113.711 413.675 113.935C415.134 110.605 417.752 107.275 417.79 103.945C418.126 78.95 417.79 53.9553 418.014 28.9606C418.052 22.9364 417.865 16.2761 420.371 11.1874C422.204 7.52049 428.189 4.37735 432.565 4.07801C435.183 3.89093 440.084 9.27912 440.682 12.7215C442.029 20.8411 441.505 29.2973 441.617 37.604C441.916 58.8196 442.141 79.9978 442.365 101.213C442.478 110.306 445.021 116.33 458.263 111.69C458.263 89.8759 458.487 67.3507 458.151 44.8255C458.001 34.9847 456.28 25.1814 455.981 15.3781C455.719 6.84697 459.235 0.111787 468.923 0.224039C477.676 0.336291 480.295 7.22107 480.519 14.3678C481.267 38.6142 481.267 62.898 482.015 87.1444C482.24 94.0292 478.611 102.822 490.843 107.35C492.451 96.6858 495.107 86.5832 495.294 76.4431C495.594 60.6905 493.948 44.9377 493.723 29.1476C493.648 24.0963 494.247 18.2966 496.678 14.0685C501.578 5.61217 513.399 6.51019 516.092 15.8271C518.523 24.3582 518.673 33.75 518.71 42.7676C518.822 84.4504 518.299 126.171 518.598 167.854C518.673 176.272 521.441 184.654 522.975 192.998C536.59 191.164 536.702 182.746 537.002 175.449C538.797 127.78 540.256 80.11 541.752 32.4404C542.014 23.7596 538.311 12.8337 552.039 11.4867C561.427 10.5512 565.654 17.5857 565.056 33.3384C563.41 78.0146 560.754 122.653 559.744 167.33C558.959 202.165 559.52 237.075 560.38 271.911C562.475 355.913 565.505 439.915 567.338 523.916C568.46 576.899 568.048 629.919 568.385 682.94C568.497 702.659 569.245 722.34 568.834 742.059C568.535 757.55 567.375 757.999 546.54 757.55C545.867 738.392 544.932 719.01 544.52 699.591C542.912 622.361 541.303 545.169 540.031 467.94C538.984 403.62 538.423 339.299 537.712 274.979C537.6 263.754 537.712 252.491 537.712 242.314C525.256 237.412 522.039 242.725 521.89 250.695C521.628 265.812 521.815 280.966 522.077 296.082C523.872 400.626 525.705 505.17 527.501 609.714C528.174 648.329 528.81 686.943 529.221 725.558C529.296 733.116 528.548 740.712 527.463 748.195C526.378 755.604 522.376 761.516 514.109 760.805C504.683 759.982 505.319 752.311 505.394 745.277C505.805 716.466 506.217 687.654 506.329 658.843C506.329 651.809 505.319 644.774 504.496 634.222C493.125 642.342 495.369 650.162 495.332 657.084C495.257 684.399 495.332 711.676 495.257 738.991C495.257 743.518 494.546 748.083 494.434 752.611C494.247 761.329 489.272 764.809 481.267 764.547C472.477 764.247 469.821 758.859 470.27 750.777C471.504 728.851 472.851 706.887 473.487 684.923C473.861 671.303 473.113 657.608 472.739 643.988C472.552 637.103 471.766 630.481 461.517 628.086C460.582 633.1 459.198 637.178 459.16 641.257C458.973 671.602 459.123 701.948 459.048 732.293C459.048 738.355 459.497 744.678 457.926 750.366C455.869 757.662 449.884 761.553 442.066 760.019C434.585 758.56 433.612 753.06 434.136 746.1C435.296 731.021 435.67 715.867 436.306 700.75C436.455 696.971 437.316 692.743 436.006 689.488C434.548 685.858 431.443 681.181 428.189 680.32C421.568 678.599 418.65 683.838 418.613 689.787C418.501 707.186 418.837 724.585 418.949 741.984C419.062 758.335 418.164 759.159 398.376 760.768C390.259 739.103 403.576 713.697 388.239 688.253C379.935 704.342 383.377 716.952 382.928 729.113C382.628 738.055 382.404 747.485 379.412 755.679C377.953 759.645 370.098 761.217 365.16 763.911C363.028 759.72 359.25 755.604 359.063 751.301C358.352 736.222 359.287 721.03 358.651 705.951C358.464 701.723 355.21 697.645 353.34 693.491C351.731 693.716 350.123 693.903 348.515 694.128C347.542 699.516 345.971 704.904 345.709 710.329C345.111 723.201 345.335 736.11 344.849 749.019C344.55 757.363 338.976 761.366 331.383 761.217C323.341 761.067 322.031 754.257 321.994 748.083C321.994 735.212 322.854 722.34 322.929 709.431C322.929 703.37 322.48 703.37 310.286 695.998C309.388 706.737 308.341 715.979 307.929 725.296C307.518 735.137 308.977 745.24 307.144 754.744C306.321 759.084 299.625 765.108 295.511 765.183C291.77 765.22 285.374 758.597 284.701 754.22C283.055 743.892 284.214 733.154 284.065 722.565C283.952 714.258 283.803 705.951 283.204 697.682C282.568 688.328 275.948 687.766 267.344 687.729C267.344 707.261 267.344 725.895 267.344 744.566C267.344 749.093 269.177 754.482 267.344 757.961C264.95 762.489 259.714 765.52 255.711 769.224C252.457 765.669 246.883 762.414 246.322 758.448C244.19 743.481 243.105 728.29 242.731 713.173C242.208 691.957 242.918 670.704 242.507 649.489C242.395 642.454 244.452 633.773 234.427 630.331C225.226 634.297 226.871 642.567 226.871 649.788C226.834 677.103 227.133 704.38 227.171 731.694C227.171 740.038 227.956 748.719 225.861 756.539C224.664 761.03 218.792 766.343 214.191 767.316C206.635 768.887 204.166 762.302 204.129 755.567C203.979 726.793 204.017 698.056 203.792 669.282C203.717 659.142 207.121 648.029 196.872 639.349C186.511 643.203 186.96 651.996 187.072 659.891C187.521 689.375 188.531 718.823 189.092 748.308C189.204 753.546 189.728 759.832 187.184 763.798C184.341 768.214 178.356 772.891 173.456 773.228C165.938 773.752 164.965 766.792 164.965 760.094C164.853 719.122 164.292 678.188 164.217 637.216C163.955 531.063 160.738 425.06 152.097 319.206C150.676 301.845 151.2 284.333 150.564 266.897C150.414 263.305 149.105 259.75 148.394 256.57C136.948 253.464 135.415 260.536 135.452 267.645C135.602 290.395 135.826 313.182 136.873 335.895C138.22 364.631 141.138 393.33 142.035 422.104C143.494 470.559 143.681 519.052 144.803 567.507C145.738 607.619 147.459 647.693 148.432 687.767C148.955 708.907 148.955 730.086 148.544 751.226C148.17 770.384 144.205 774.051 124.604 773.115C124.604 753.134 124.941 732.929 124.529 712.761C123.407 654.465 121.911 596.207 120.677 537.948C119.592 485.751 119.368 433.553 117.46 381.394C114.505 300.498 109.866 219.639 107.173 138.705C105.939 102.485 107.248 66.1159 108.183 29.8586C108.595 13.8814 114.206 6.0986 121.874 8.34364C134.031 11.9357 130.44 22.188 130.514 31.0933C130.926 88.6411 131.599 146.226 132.347 203.774C132.385 207.217 133.769 210.659 134.704 215.037C149.516 213.839 148.619 202.464 148.432 194.944C147.197 148.808 144.841 102.673 143.008 56.5745C142.634 47.5195 142.297 38.3522 143.008 29.3347C143.532 22.6744 144.729 14.7046 153.781 14.5175C163.207 14.3304 166.91 20.841 167.135 29.5218C167.546 46.1725 167.845 62.8232 168.07 79.4739C168.257 92.3455 167.359 105.329 168.706 118.088C169.192 122.803 174.129 129.95 178.094 130.773C187.483 132.644 188.643 124.412 188.568 117.265C188.418 91.4848 188.007 65.7044 187.745 39.9613C187.67 33.8997 186.66 27.4639 188.381 21.8887C189.69 17.6979 194.403 12.1976 198.069 11.8234C201.697 11.4492 208.056 15.9394 209.44 19.7185C211.984 26.6033 212.433 34.4983 212.582 41.9817C213.069 63.9831 212.882 85.9471 213.218 107.948C213.368 117.677 213.63 117.677 224.59 127.667C225.936 120.82 227.844 115.469 227.844 110.119C227.956 82.1306 227.545 54.105 227.358 26.1168C227.358 22.3377 226.086 17.5109 227.919 15.0414C231.136 10.701 236.335 5.08828 240.637 5.12569C244.564 5.16311 251.297 11.7112 251.746 15.9019C253.018 27.838 251.671 40.0735 251.409 52.1967C250.961 75.4702 250.175 98.7811 255.449 122.055C265.287 120.82 264.501 113.86 264.576 108.472C264.988 83.515 264.95 58.5203 265.025 33.5255C265.025 30.4947 263.566 26.7155 264.913 24.6202C267.831 20.0553 271.459 13.9189 275.91 12.8338C282.755 11.1126 286.758 17.2116 287.244 23.9467C288.217 36.7434 289.002 49.5775 289.189 62.3742C290.049 118.35 289.862 174.401 291.583 230.34C293.753 300.685 297.493 370.992 300.523 441.336C301.159 456.341 301.084 456.341 319.114 456.715C319.114 431.945 319.974 407.137 318.964 382.404C316.121 315.016 312.455 247.702 309.201 180.351C306.658 128.191 304.226 76.0689 301.757 23.9092C301.645 21.6268 301.159 19.3443 301.346 17.0993C301.982 9.84032 303.815 3.06782 312.942 3.32974C321.358 3.59166 324.65 9.42869 325.061 17.0618C325.735 29.1476 326.071 41.2335 326.744 53.2818C327.231 61.8878 331.719 65.4798 342.941 62.7109H342.904ZM193.805 278.122C180.987 280.667 174.678 287.327 174.877 298.103C174.99 303.416 175.214 308.692 175.476 313.968C178.73 385.697 181.985 457.463 185.276 529.192C185.95 544.309 186.735 559.425 187.483 574.542C187.969 584.158 192.458 588.124 201.884 585.542C208.543 558.976 201.66 301.433 193.805 278.085V278.122ZM279.95 569.902C278.154 470.709 276.995 373.499 267.157 271.724C261.098 277.449 256.085 279.956 255.187 283.473C253.579 289.909 254.103 296.98 254.252 303.79C255.187 344.613 256.123 385.398 257.394 426.22C258.778 469.287 260.686 512.354 262.07 555.422C262.407 566.31 265.586 572.821 279.913 569.902H279.95ZM418.089 267.159C416.219 267.72 414.348 268.244 412.441 268.805C411.88 272.397 410.87 275.952 410.87 279.544C410.683 306.672 410.271 333.799 410.758 360.927C411.393 396.473 412.89 431.982 413.713 467.528C414.348 495.517 414.311 523.542 415.059 551.53C415.246 558.265 416.406 566.086 426.318 565C434.772 564.065 434.136 557.554 433.912 551.231C430.62 460.569 427.515 369.869 423.999 279.207C423.85 275.091 420.109 271.125 418.014 267.122L418.089 267.159ZM460.096 233.184C449.323 231.388 445.47 235.841 445.358 244.11C445.208 252.454 445.171 260.798 445.62 269.105C448.575 324.258 452.278 379.373 454.447 434.564C455.869 469.998 454.634 505.507 455.57 540.941C455.831 551.455 453.961 563.354 463.425 572.821C465.819 570.576 468.699 569.116 468.699 567.732C467.203 465.545 465.557 363.359 463.649 261.21C463.462 251.706 461.33 242.202 460.17 233.184H460.096ZM501.84 584.121C502.813 576.525 504.309 570.314 504.234 564.14C503.598 508.201 502.888 452.3 501.84 396.398C501.167 359.318 500.269 322.237 498.586 285.194C498.287 278.235 502.551 268.132 490.17 263.342C489.01 266.747 487.289 269.367 487.327 271.986C488.935 371.029 490.656 470.035 492.526 569.079C492.601 572.708 494.21 576.375 495.556 579.818C496.005 580.94 497.875 581.501 501.803 584.121H501.84ZM352.33 502.85C336.62 520.062 343.951 535.965 342.53 549.996C341.033 564.813 343.128 580.08 344.475 595.084C345.747 609.228 340.472 624.531 351.32 639.798C354.2 634.933 357.642 631.865 357.492 628.984C355.397 588.835 360.185 548.312 352.367 502.85H352.33ZM221.971 244.522C223.767 315.128 225.712 385.772 229.789 456.303C236.709 417.015 231.697 260.723 221.971 244.522ZM460.619 183.382C460.993 183.382 461.405 183.307 461.779 183.307C461.143 175.075 461.106 166.731 459.535 158.686C459.011 156.03 454.747 152.512 451.941 152.325C449.323 152.138 444.011 155.693 443.974 157.676C443.674 172.643 444.049 187.685 445.171 202.614C445.32 204.747 451.567 208.676 453.437 207.927C456.767 206.58 460.395 202.614 461.18 199.134C462.265 194.158 460.919 188.658 460.619 183.382ZM321.246 504.684C312.044 501.241 303.703 499.595 302.88 508.65C301.683 521.784 303.441 535.291 305.124 548.462C305.386 550.52 311.857 551.792 318.403 554.748C319.45 536.601 320.311 521.297 321.246 504.684ZM231.884 477.182C232.856 510.783 225.375 544.533 233.791 577.648C239.365 543.897 236.821 510.371 231.884 477.182ZM223.692 160.557C211.984 176.31 213.779 202.689 227.021 217.282C228.143 197.675 231.435 180.014 223.692 160.557ZM386.406 498.847C377.242 518.042 378.215 541.128 387.529 553.962C395.047 534.917 395.047 518.753 386.406 498.847ZM319.45 606.085C306.358 618.357 304.002 628.834 310.062 635.42C311.408 636.842 314.475 638.301 315.859 637.702C318.216 636.692 321.508 634.073 321.545 632.09C321.62 624.905 320.498 617.721 319.45 606.085ZM190.027 165.197C179.89 164.785 171.249 163.064 171.885 176.197C172.222 183.007 175.326 188.695 182.658 187.348C194.815 185.103 190.775 175.562 189.989 165.197H190.027ZM388.8 608.292C379.15 618.807 379 627.674 386.706 639.349C396.394 628.797 396.843 619.966 388.8 608.292ZM263.342 184.579C264.763 174.214 269.813 166.207 256.459 163.401C251.671 171.408 250.923 177.582 263.342 184.579ZM274.676 623.409C271.609 626.065 267.793 628.46 268.092 629.246C269.252 632.164 271.384 636.056 273.853 636.655C275.948 637.178 279.015 633.586 281.633 631.828C279.576 629.358 277.556 626.889 274.638 623.372L274.676 623.409ZM411.019 171.296C412.852 171.296 414.648 171.258 416.481 171.221C420.408 164.748 421.755 158.649 411.019 151.614V171.296ZM492.003 144.468C481.118 150.791 483.287 156.03 487.177 161.231C487.738 161.979 489.683 161.642 492.003 161.979V144.505V144.468ZM422.279 623.334C421.493 625.093 420.67 626.851 419.885 628.61C423.139 630.032 426.356 631.603 429.722 632.688C429.984 632.763 431.331 629.396 432.154 627.637C428.862 626.215 425.533 624.793 422.241 623.372L422.279 623.334Z" fill="black"/>
<path d="M641.587 123.439C640.353 191.576 638.146 259.713 638.146 327.85C638.146 408.185 639.904 488.52 641.4 568.817C641.811 590.744 644.766 612.595 645.29 634.522C646.113 667.823 646.3 701.199 645.702 734.501C645.589 741.311 641.587 748.682 637.622 754.556C635.827 757.213 628.832 758.747 625.69 757.363C622.735 756.053 620.116 750.216 620.266 746.474C620.715 733.64 623.67 720.806 623.445 708.009C622.847 670.929 620.752 633.848 619.967 596.768C618.919 546.067 618.807 495.329 617.834 444.629C617.161 409.008 615.029 373.387 614.879 337.803C614.655 287.028 615.964 236.252 616.076 185.439C616.151 141.512 615.403 97.6212 615.066 53.6933C614.992 43.8151 615.253 33.9744 615.366 24.0962C615.44 15.6773 618.059 8.38093 627.522 7.93192C637.547 7.44549 639.829 15.1909 640.128 23.3853C640.614 37.7535 640.951 52.1217 641.063 66.5274C641.213 85.498 641.101 104.469 641.101 123.402C641.25 123.402 641.437 123.402 641.587 123.402V123.439Z" fill="black"/>
<path d="M678.695 65.9663C676.937 95.4511 673.944 124.936 673.645 154.458C672.785 231.725 672.298 309.029 673.159 386.296C674.169 476.434 676.637 566.572 678.732 656.71C679.293 680.882 681.351 705.016 681.687 729.15C681.799 737.157 679.854 745.688 676.6 752.985C675.141 756.278 668.146 758.71 663.807 758.485C661.413 758.336 657.822 752.087 657.411 748.308C656.551 740.076 657.598 731.657 657.523 723.35C657.299 697.832 657.299 672.313 656.551 646.795C653.932 556.731 650.379 466.668 648.583 376.567C647.573 327.438 649.07 278.197 649.967 229.031C650.977 173.055 652.847 117.078 653.783 61.0646C653.932 52.1219 650.641 43.1791 649.818 34.1241C649.256 27.5013 649.93 20.7663 650.491 14.106C651.089 6.95929 652.773 -0.59906 661.974 0.710544C669.904 1.83306 676.151 6.9218 676.338 15.9019C676.675 32.5526 676.45 49.2408 676.45 65.8915C677.199 65.8915 677.947 65.8915 678.695 65.8915V65.9663Z" fill="black"/>
<path d="M68.9815 185.327C70.5151 132.307 72.0113 79.2867 73.7694 26.2664C73.919 21.2899 74.4053 14.7792 77.4726 11.8233C80.465 8.94215 87.4225 8.19386 91.7989 9.42863C94.3051 10.1396 96.6243 16.6502 96.5868 20.5416C96.2876 53.8804 94.5295 87.2565 94.9036 120.558C95.5021 175.861 97.1853 231.163 98.6442 286.466C101.898 408.484 105.489 530.502 108.594 652.519C109.492 688.066 109.23 723.65 109.454 759.196C109.454 762.975 110.577 767.578 108.856 770.384C106.05 774.986 101.898 780.823 97.3724 781.796C90.6019 783.255 86.7118 777.568 86.5247 770.421C86.4499 768.139 86.4125 765.856 86.3751 763.574C85.4774 712.088 84.43 660.602 83.7193 609.078C82.9712 556.769 83.4575 504.459 81.7742 452.187C79.0436 365.791 75.0412 279.432 71.4128 193.073C71.3006 190.191 69.58 187.385 68.6074 184.579L69.0189 185.252L68.9815 185.327Z" fill="black"/>
<path d="M68.57 184.617C67.1111 197.264 64.3805 209.948 64.4179 222.595C64.7172 308.767 65.2783 394.939 66.363 481.074C67.3356 558.191 69.1311 635.308 70.4402 712.425C70.7021 726.793 70.7021 741.199 70.4402 755.604C70.3654 760.057 70.2906 765.408 67.8967 768.701C65.2035 772.442 59.7796 776.521 55.852 776.259C52.71 776.034 47.8098 769.599 47.548 765.67C46.4632 748.346 46.8747 730.909 46.538 713.51C45.154 638.601 43.0219 563.691 42.4234 488.744C41.4883 369.87 41.8623 250.958 41.1142 132.083C40.9272 101.064 38.6828 70.0451 37.4485 39.0262C37.2614 34.4987 35.9148 29.3351 37.5981 25.556C39.4684 21.3652 43.8822 16.052 47.6602 15.6404C51.3634 15.2662 57.049 19.6814 59.256 23.498C61.6873 27.7261 61.7995 33.6755 61.8743 38.8765C62.5477 78.2395 62.6225 117.64 63.6698 157.003C63.9317 166.469 67.1111 175.861 68.944 185.29C68.944 185.328 68.5326 184.654 68.5326 184.654L68.57 184.617Z" fill="black"/>
<path d="M6.36451 603.129C6.36451 553.177 5.39196 503.225 6.58894 453.31C8.42182 376.829 5.6912 300.536 1.95064 224.167C-0.331106 178.031 1.0529 131.746 0.678847 85.5358C0.56663 69.6334 -0.256294 53.6936 0.0803567 37.7913C0.192574 32.8148 1.6888 26.9029 4.75606 23.236C10.1425 16.7628 21.9627 21.178 23.3093 30.7943C24.6185 40.3357 22.5986 50.2513 22.7856 60.0172C23.9452 121.194 25.591 182.409 26.5262 243.586C27.5735 311.686 28.359 379.823 28.5835 447.922C28.8079 516.059 27.7231 584.158 28.0224 652.295C28.172 684.848 30.1171 717.401 31.2767 749.992C31.3889 753.771 31.4637 757.587 31.4637 761.367C31.4637 769.598 29.6308 777.643 19.7931 777.494C10.8906 777.344 10.2173 769.224 9.99285 762.19C8.15998 709.17 6.36451 656.187 4.56904 603.166H6.40191L6.36451 603.129Z" fill="black"/>
<path d="M579.755 759.982C579.082 751.713 578.072 744.304 577.997 736.895C577.548 697.495 577.099 658.132 577.062 618.732C577.024 559.762 577.66 500.792 577.361 441.785C577.137 394.939 575.453 348.13 575.491 301.284C575.491 264.989 577.473 228.731 578.072 192.437C578.932 139.416 579.344 86.396 579.942 33.3758C579.942 32.6274 579.867 31.8416 579.867 31.0933C579.942 23.1982 580.802 14.2181 589.892 13.133C600.553 11.8608 603.919 20.6913 604.069 29.7088C604.368 46.3221 604.069 62.9729 603.77 79.5861C602.573 151.577 600.702 223.53 600.216 295.521C599.617 385.734 599.842 475.91 600.253 566.123C600.515 621.426 601.862 676.729 602.61 732.031C602.685 737.307 602.423 742.695 601.413 747.859C599.505 757.4 593.67 762.115 579.755 760.019V759.982Z" fill="black"/>
</svg>
