<svg width="570" height="593" viewBox="0 0 570 593" fill="none" xmlns="http://www.w3.org/2000/svg">
<path d="M78.1986 179.622V190.777H89.3537V222.195C85.1234 223.704 81.9978 224.808 76.6358 226.748C79.492 230.224 81.6206 232.838 83.4259 236.368C83.9378 245.421 87.6562 251.888 96.979 252.238C92.3984 247.334 87.4675 242.026 83.4259 236.368C87.8717 225.455 92.5331 230.17 98.6495 236.395C109.185 200.127 106.463 197.271 131.145 168.467H159.302C162.562 165.019 164.96 162.459 168.463 158.74C154.748 156.046 142.704 155.534 131.899 164.587C128.073 156.881 125.055 150.765 121.768 144.11C126.295 141.873 130.013 140.014 133.624 138.236C131.872 135.218 130.148 132.308 127.345 127.296C145.398 137.346 164.259 141.846 186.947 146.615C182.312 141.577 180.561 139.637 178.405 137.293C180.884 136.323 183.228 135.406 185.465 134.517C195.003 142.978 204.164 151.115 213.945 159.818C217.664 152.193 220.115 147.181 222.567 142.116C192.767 130.718 158.547 120.533 127.345 127.296C126.133 127.512 123.843 125.679 120.825 123.254C132.573 117.165 142.273 112.126 153.509 106.306C154.802 109.243 156.041 112.126 157.389 115.171C182.69 109.513 209.014 135.514 230.839 129.075C236.309 133.925 240.917 137.993 247.41 143.732C250.051 137.562 251.614 133.898 254.039 128.239C260.694 151.304 269.397 155.965 292.057 163.052C307.928 153.513 320.565 146.777 332.905 132.874C326.519 130.314 319.918 128.805 313.101 128.347C316.2 119.779 323.475 118.27 334.845 123.686C335.007 127.188 335.276 130.503 335.627 135.056C339.722 134.598 342.767 134.275 346.135 133.898C345.812 130.179 345.623 127.754 345.327 124.413C341.635 124.117 338.294 123.874 334.845 123.686C334.953 121.934 334.953 120.075 334.953 118.216C341.905 115.656 348.075 108.192 356.967 114.983C355.431 116.842 353.895 118.701 350.258 123.093C363.326 120.533 374.103 118.431 390.082 115.306C378.064 110.402 370.385 107.249 360.119 103.046C369.604 102.049 376.475 101.349 385.178 100.432V90.2744H390.755C392.614 92.1335 394.473 93.9927 396.602 95.5555C396.494 95.6363 396.117 95.9866 395.767 96.3638C397.06 97.8727 398.354 99.4086 399.647 100.917C400.24 100.325 400.832 99.7319 401.398 99.1661C399.889 97.8727 398.354 96.5794 396.575 95.5555C394.474 93.9927 392.614 92.1335 390.728 90.2744C388.842 88.4152 387.01 86.556 384.881 84.9932C384.989 84.9124 385.366 84.5621 385.717 84.1849C384.423 82.676 383.13 81.1402 381.837 79.6313L380.085 81.3827C381.594 82.676 383.13 83.9694 384.908 84.9932C385.151 86.556 385.151 88.4152 385.151 90.2744C358.233 81.706 327.813 64.0304 301.757 51.2048C285.51 51.2048 236.39 62.5215 222.244 53.6568C257.892 41.1814 292.596 43.4717 328.54 48.6451C296.099 27.7631 253.284 40.4539 217.69 28.8678C225.397 25.7692 229.762 20.1378 230.786 11.9736C233.211 14.0483 235.097 15.665 238.195 18.3055C238.977 14.7219 239.623 11.7311 240.243 8.87495C236.04 7.17745 232.887 5.88411 229.546 4.53688C237.926 -7.80371 344.842 9.17134 363.972 13.7519C419.963 27.1433 468.544 59.854 512.032 96.4177C514.754 106.98 516.936 115.36 519.092 123.739C511.655 118.162 504.219 112.584 496.755 107.007C494.896 105.148 493.037 103.289 490.908 101.726C491.016 101.645 491.393 101.295 491.743 100.917C490.45 99.4086 489.157 97.8727 487.863 96.3638C487.271 96.9566 486.678 97.5494 486.112 98.1152C487.621 99.4086 489.157 100.702 490.935 101.726C493.037 103.289 494.896 105.148 496.782 107.007C496.782 125.653 523.322 159.414 531.325 178.706C542.076 204.573 542.588 248.062 556.06 270.048C565.787 223.623 537.63 194.9 535.852 151.681H545.74C546.414 158.471 547.114 165.423 547.869 172.94C550.536 173.479 553.069 174.018 555.117 174.422C573.897 214.543 568.939 257.33 569.344 299.526C558.215 324.988 566.568 351.852 563.443 376.237C558.296 383.916 553.877 390.49 547.869 399.463C548.165 379.712 551.641 364.839 548.057 345.493C552.665 336.871 557.677 326.335 548.327 317.066C565.383 188.837 467.817 53.0909 345.084 22.3203C352.602 29.8109 357.721 34.9034 362.841 40.0228C344.222 38.46 327.382 25.7961 307.416 31.0234C333.363 38.6217 376.205 75.886 401.91 73.5149C403.769 75.374 405.629 77.2332 407.757 78.796C407.649 78.8768 407.272 79.2271 406.922 79.6043C408.215 81.1132 409.509 82.6491 410.802 84.158L412.553 82.4066C411.044 81.1132 409.509 79.8199 407.73 78.796C405.629 77.2332 403.769 75.374 401.883 73.5149C401.29 71.979 400.913 70.3085 400.024 68.9343C391.052 54.8693 373.996 51.2318 362.787 40.0228C375.612 42.3401 388.465 44.6573 402.233 47.1631C399.97 49.8845 398.407 51.7437 396.791 53.7106C417.053 79.3888 439.633 101.941 458.332 129.182C473.825 151.762 485.815 185.631 507.91 201.906C517.044 230.036 526.178 258.166 535.313 286.296C523.511 316.689 526.178 354.654 518.176 387.499C508.153 428.725 494.519 458.337 468.84 492.179C468.221 490.643 467.628 489.08 467.008 487.545C465.769 489.08 464.502 490.643 463.263 492.179C461.404 494.038 459.545 495.897 457.685 497.756C455.826 499.616 453.967 501.475 452.108 503.334C450.249 505.193 448.389 507.052 446.53 508.911H440.953V497.756C442.812 495.897 444.671 494.038 446.53 492.179C448.389 490.32 450.249 488.461 452.108 486.601C453.644 485.982 455.206 485.389 456.742 484.769C455.206 483.53 453.644 482.263 452.108 481.024C476.573 452.247 496.081 429.29 506.401 393.212C509.365 382.838 507.102 341.236 513.326 332.91C499.584 310.115 502.71 284.625 502.413 266.384C495.354 247.469 488.699 228.608 482.501 209.396C471.131 245.017 469.406 275.222 468.921 312.459C468.301 359.369 458.359 386.395 444.186 430.341C423.439 452.597 394.5 479.569 385.124 508.911C383.265 510.771 381.405 512.63 379.546 514.489C370.439 518.935 361.332 523.435 352.198 527.854C342.686 532.434 333.579 537.446 329.295 547.981H308.467C305.664 551.403 302.189 555.633 299.332 559.136H239.974C238.114 557.277 236.255 555.418 234.396 553.559C236.579 551.699 238.572 548.628 240.997 548.224C246.117 547.388 251.479 547.981 256.006 548.304C259.966 555.526 275.648 556.361 278.154 548.628C270.663 548.628 263.685 548.628 256.006 548.304C248.677 537.257 218.687 542.377 207.209 542.377C207.074 543.508 206.913 544.64 206.778 545.799C215.993 548.385 225.181 550.972 234.396 553.559C236.255 555.418 238.114 557.277 239.974 559.136C254.847 578.105 315.041 569.375 336.866 564.498C380.193 554.798 402.826 521.171 440.926 508.911C441.546 510.447 442.138 512.01 442.758 513.546L446.503 508.911C448.363 507.052 450.222 505.193 452.081 503.334H457.658C462.428 522.303 387.172 558.543 376.313 564.741H396.252C396.252 565.63 396.414 567.3 396.252 567.327C373.942 572.123 351.632 576.812 329.295 581.473C329.241 575.896 248.057 576.569 236.632 571.369C234.127 572.878 230.624 574.953 226.555 577.404C224.157 572.258 222.406 568.432 220.681 564.741H212.059C207.236 556.954 200.177 553.72 191.096 553.316C188.698 553.208 186.462 549.867 184.145 548.008C185.68 547.388 187.243 546.796 188.779 546.176C187.243 544.936 185.68 543.67 184.145 542.431C182.285 540.571 180.426 538.712 171.804 533.62C167.978 537.419 172.504 538.712 178.567 534.239C175.199 533.269 171.831 532.326 171.804 533.62C180.426 538.712 182.285 540.571 184.145 542.431V548.008C177.004 545.529 169.891 542.996 162.724 540.571C158.736 539.224 154.667 538.092 150.652 536.853C145.749 527.88 140.575 519.258 128.073 520.39C128.181 520.309 128.558 519.959 128.908 519.582C127.615 518.073 126.322 516.537 125.028 515.028C124.435 515.621 123.843 516.214 123.277 516.779C124.786 518.073 126.322 519.366 128.1 520.39C133.246 529.066 138.42 537.688 150.679 536.853C153.131 548.197 165.068 547.604 171.777 553.586C173.959 555.552 176.331 557.331 178.594 559.19C162.508 561.211 149.009 552.939 138.77 543.562C115.436 522.222 94.4731 498.322 72.5403 475.473C74.0761 474.854 75.6389 474.261 77.1747 473.641C75.6389 472.402 74.0761 471.135 72.5403 469.896C73.4294 441.927 33.4707 428.859 33.4707 402.912C39.0482 406.63 44.6257 410.348 50.2033 414.067C50.823 415.603 51.4158 417.165 52.0355 418.701C53.2749 417.165 54.5413 415.603 55.7808 414.067C53.4635 414.067 84.8539 457.097 88.4375 460.681C88.8956 464.669 89.4075 469.034 90.3237 476.767C111.798 492.637 135.052 509.828 158.305 527.018C159.625 525.994 160.972 524.944 162.293 523.92C149.251 492.583 104.065 460.923 83.5875 430.719V421.665C80.435 420.56 77.2017 419.429 73.9683 418.324C74.2108 411.292 85.6892 403.451 72.5133 397.334C71.2739 390.221 74.9653 382.218 66.9358 370.444V397.334C62.948 392.188 58.9602 387.041 53.8138 380.386C58.5022 375.401 62.7055 370.902 64.8611 368.611C63.433 351.555 62.1666 336.547 60.9002 321.539C44.7874 306.343 72.5133 294.918 65.9119 280.26C69.9805 321.216 69.6033 443.302 126.591 452.948C115.705 437.913 107.541 426.623 101.236 417.893C103.203 407.115 104.604 399.463 106.032 391.784C107.891 394.074 111.313 396.364 111.34 398.681C111.421 406.98 114.951 411.938 122.684 413.986C122.846 417.489 123.115 420.803 123.465 425.357C127.561 424.898 130.606 424.575 133.974 424.198C133.65 420.48 133.462 418.055 133.165 414.713C129.474 414.417 126.133 414.175 122.684 413.986C127.75 407.923 126.914 396.849 139.821 395.852C118.804 367.965 108.242 336.709 105.008 301.627C101.748 304.349 99.862 305.938 95.5778 309.549C97.8681 296.184 99.8081 284.868 101.425 275.572C90.7278 264.902 81.6475 255.875 74.8844 249.139C68.0765 217.938 69.1632 194.774 78.1447 179.649L78.1986 179.622ZM412.607 96.4716C412.957 96.1213 413.335 95.7441 413.685 95.3938C412.392 93.8849 411.098 92.3491 409.805 90.8402C409.212 91.433 408.619 92.0258 408.054 92.5916C409.562 93.8849 411.098 95.1783 413.119 95.9058C414.978 97.765 416.837 99.6241 418.697 101.483C420.556 103.342 422.415 105.202 424.786 106.468C424.436 106.818 424.059 107.196 423.708 107.546C425.002 109.055 426.295 110.591 427.588 112.099L429.34 110.348C427.831 109.055 426.295 107.761 424.274 107.034C422.415 105.175 420.556 103.316 418.697 101.456C416.837 99.5972 414.978 97.738 412.607 96.4716ZM407.03 185.793C407.38 185.442 407.757 185.065 408.107 184.715L404.227 180.161L402.476 181.913C403.985 183.206 405.521 184.499 407.542 185.227C409.401 187.086 411.26 188.945 413.119 190.804C414.978 192.664 416.837 194.523 418.697 196.382C422.631 207.429 431.953 216.456 430.202 229.82C429.744 233.269 433.57 237.284 434.055 238.9C428.963 242.188 423.897 245.502 416.864 250.055C429.771 254.717 432.196 247.226 435.429 241.029C437.288 238.766 440.576 236.637 440.764 234.266C441.411 225.401 441.007 216.456 441.007 207.537C442.866 207.537 444.725 207.537 450.922 207.375C449.306 207.456 447.716 207.537 446.099 207.618C446.8 211.255 447.527 214.893 448.228 218.53C449.44 218.369 450.626 218.234 451.838 218.072C451.542 214.516 451.219 210.932 446.584 207.51C445.749 203.28 449.36 196.813 440.495 196.921C440.845 196.571 441.222 196.193 441.573 195.843C440.279 194.334 438.986 192.798 437.693 191.289C437.1 191.882 436.507 192.475 435.941 193.041C437.45 194.334 438.986 195.627 441.007 196.355V207.51C437.558 205.004 434.351 201.986 430.579 200.1C426.915 198.268 422.657 197.567 418.67 196.355C416.811 194.496 414.951 192.637 413.092 190.777C411.233 188.918 409.374 187.059 407.003 185.793H407.03ZM323.825 263.339C321.966 261.48 320.107 259.621 313.909 257.896C315.526 257.815 317.116 257.735 318.732 257.654L316.604 246.741L312.993 247.199C313.29 250.756 313.613 254.34 318.247 257.762C320.107 259.621 321.966 261.48 323.825 263.339C325.684 265.198 327.543 267.057 329.402 268.917C329.887 277.269 336.327 273.659 340.935 273.12C340.45 274.386 339.992 275.626 339.507 276.892C350.5 281.392 361.52 285.865 373.322 290.688C373.511 287.185 373.645 284.679 373.807 281.823C362.598 278.859 351.766 275.976 340.558 274.494C340.073 266.141 333.633 269.752 329.402 268.917C327.543 267.057 325.684 265.198 323.825 263.339ZM150.76 481.051C152.619 482.91 154.479 484.769 156.338 486.628C178.809 510.959 210.685 523.03 240.243 536.664C249.242 537.419 317.358 545.287 318.22 536.88C321.75 536.26 325.28 535.614 328.837 534.994C328.702 533.754 328.594 532.542 328.459 531.302H318.22C318.22 533.97 172.612 491.748 156.338 486.655C154.479 484.796 152.619 482.937 150.248 481.671C150.599 481.32 150.976 480.943 151.326 480.593C150.033 479.084 148.739 477.548 147.446 476.039L145.695 477.791C147.204 479.084 148.739 480.377 150.76 481.105V481.051ZM453.051 383.781C446.018 386.718 444.752 391.218 449.198 397.307C450.168 393.939 451.111 390.571 446.611 397.307H441.034V381.114C446.045 376.937 452.377 371.683 457.766 367.183C457.766 339.673 457.793 313.052 456.823 285.676H446.584C447.743 280.287 448.901 274.898 450.437 267.785C430.148 277.135 410.883 286.026 390.998 295.214C390.755 296.346 390.243 298.879 389.839 300.846C379.061 298.071 368.876 295.43 359.85 293.086C355.97 294.918 352.871 296.373 348.156 298.583C342.632 292.197 337.378 286.134 331.477 279.317C324.633 298.232 338.213 311.947 340.504 327.305C338.51 329.65 336.866 331.536 335.33 333.341C346.108 353.657 362.868 362.387 385.178 363.195V347.083C388.034 350.72 390.917 354.358 394.231 358.561C403.123 341.586 382.295 324.961 393.854 308.013C404.766 328.626 401.452 350.424 402.018 373.246C405.386 375.994 409.643 379.443 414.574 383.458C412.257 393.293 410.074 402.535 407.649 412.854H428.289C432.654 407.519 436.83 402.4 441.007 397.307C441.626 400.837 442.273 404.367 442.893 407.923C444.132 407.789 445.345 407.681 446.584 407.546C446.584 404.124 446.584 400.729 453.024 383.781H453.051ZM172.585 515.109C172.936 514.758 173.313 514.381 173.663 514.031L169.783 509.477C169.19 510.07 168.598 510.663 168.032 511.229C169.541 512.522 171.076 513.815 173.097 514.543C173.582 522.896 180.022 519.285 184.252 520.12C186.111 521.98 187.971 523.839 203.356 532.138C200.419 525.105 195.919 523.839 189.83 528.285C193.198 529.255 196.566 530.198 189.83 525.698C187.971 523.839 186.111 521.98 184.252 520.12C183.767 511.768 177.328 515.378 172.585 515.136V515.109ZM220.115 180.485C217.178 173.452 212.679 172.186 206.589 176.632C209.957 177.602 213.325 178.545 193.063 167.578C196 174.611 200.5 175.877 206.589 171.431C203.221 170.461 199.853 169.518 220.115 180.485ZM351.874 144.864L351.632 140.041C347.994 140.741 344.357 141.469 340.719 142.17C340.881 143.382 341.016 144.568 341.177 145.78C344.734 145.484 348.318 145.16 351.147 140.014C351.497 140.364 351.874 140.741 352.224 141.092C353.733 139.798 355.269 138.505 356.778 137.212C356.185 136.619 355.593 136.026 355.027 135.46C353.733 136.969 352.44 138.505 351.874 144.864ZM419.209 167.875C418.858 168.225 418.481 168.602 418.131 168.952C419.424 170.461 420.718 171.997 422.011 173.506L423.762 171.755C422.253 170.461 420.717 169.168 418.697 168.44V162.863C422.577 163.941 426.834 164.372 430.256 166.285C435.537 169.222 439.552 170.758 441.034 162.863C451.434 177.521 461.808 192.179 473.313 208.399C477.193 188.514 468.194 175.446 457.766 162.863C452.162 155.211 446.638 155.211 441.034 162.863C437.315 158.66 433.004 154.833 430.013 150.172C425.891 143.786 421.472 139.044 413.119 140.553C414.817 137.643 416.514 134.706 416.433 134.841C414.143 130.125 412.122 125.976 410.452 122.527C395.417 125.033 386.498 132.901 383.696 146.157H401.937V154.833C408.134 159.953 417.376 152.328 418.67 162.89C413.281 163.429 407.865 163.968 402.476 164.507C402.611 165.827 402.746 167.147 402.88 168.467C408.134 168.467 413.389 168.467 419.155 167.875H419.209ZM283.489 307.851C281.872 307.932 280.283 308.013 278.666 308.094C279.366 311.731 280.094 315.369 280.795 319.006C282.007 318.845 283.193 318.71 284.405 318.548C284.109 314.992 283.785 311.408 265.679 314.641C270.448 311.974 275.19 309.306 281.118 305.992C270.421 298.448 267.241 306.396 283.489 307.851ZM401.964 268.917C407.218 268.917 412.58 269.482 417.7 268.674C420.125 268.27 422.119 265.198 423.708 262.827C424.059 263.177 424.436 263.555 424.786 263.905C426.295 262.612 427.831 261.318 429.34 260.025C428.747 259.432 428.154 258.839 427.588 258.273C426.295 259.782 425.002 261.318 424.274 263.339C419.02 263.339 413.658 262.773 408.539 263.582C406.114 263.986 404.12 267.057 402.53 269.429C402.18 269.078 401.802 268.701 401.452 268.351C399.943 269.644 398.407 270.937 396.899 272.231L398.65 273.982C399.943 272.473 401.237 270.937 401.964 268.917ZM217.744 274.521C216.209 275.141 214.646 275.734 213.11 276.353C214.646 277.593 216.209 278.859 217.744 280.099C209.284 300.684 150.033 293.813 135.429 287.05C134.135 288.344 132.815 289.664 131.387 291.092C127.372 287.401 123.331 283.709 118.562 279.317C113.038 311.004 118.75 348.053 135.671 374.97C153.751 375.24 171.804 374.943 189.857 374.027V358.211H216.882C217.475 356.998 218.041 355.786 218.634 354.573C214.107 351.96 209.58 349.346 205.053 346.705C197.967 331.617 222.729 318.252 206.589 305.103C211.17 300.657 215.777 296.211 221.49 290.661H239.408C247.276 283.332 252.072 278.913 261.368 274.306C260.182 274.198 258.996 274.117 257.811 274.009C255.278 282.793 252.745 291.577 249.512 302.732C256.006 301.978 259.104 301.627 262.796 301.196C262.284 291.361 261.826 282.82 256.841 274.44C265.005 264.336 262.095 252.992 262.257 236.152C254.146 252.292 248.623 263.258 243.261 273.928C240.351 272.231 237.441 270.533 234.504 268.836C234.504 266.977 234.504 265.117 233.911 262.746C234.261 263.097 234.639 263.474 234.989 263.824C236.498 262.531 238.034 261.237 239.542 259.944C238.95 259.351 238.357 258.759 237.791 258.193C236.498 259.702 235.204 261.237 234.477 263.258C225.828 262.369 219.927 265.602 217.744 274.413V274.521ZM381.998 251.699C397.303 254.043 400.725 244.101 410.128 235.559C394.177 235.182 391.105 245.61 385.366 256.522C385.285 254.905 385.205 253.316 385.124 251.699C381.486 252.4 377.849 253.127 374.211 253.828C374.373 255.04 374.508 256.226 374.669 257.438C378.226 257.142 381.81 256.819 381.998 251.699ZM145.183 201.933C155.637 199.382 160.227 193.391 158.951 183.961C154.074 186.359 149.629 188.568 127.965 218.854C122.307 202.849 138.608 197.702 146.314 185.362C132.411 184.607 129.205 194.523 124.058 198.43C122.172 206.136 120.69 212.252 119.208 218.315C121.525 218.45 123.304 218.557 145.183 190.751C145.183 194.469 145.183 198.187 138.662 215.728C145.722 212.629 147.042 208.049 142.596 201.906C141.626 205.274 140.683 208.642 145.183 201.906V201.933ZM250.698 196.139C251.479 200.1 252.206 203.738 252.287 204.169C255.682 202.876 259.481 201.421 263.308 199.966C262.58 198.942 261.879 197.918 261.152 196.894C257.865 196.651 254.551 196.409 248.731 197.514C254.254 191.047 258.134 186.52 263.9 179.757C254.497 180.215 247.222 180.539 236.201 181.077C241.833 188.46 244.958 192.583 250.698 196.139ZM503.545 246.687C505.242 246.633 506.94 246.58 508.664 246.526C507.937 241.056 507.236 235.559 506.509 230.09C505.269 230.197 504.03 230.305 502.79 230.44C503.06 235.856 503.302 241.298 512.895 246.364C510.982 246.472 509.069 246.607 507.156 246.714C509.877 272.446 512.598 298.178 515.32 323.91C517.233 322.186 519.173 320.461 521.086 318.71C521.059 322.94 521.005 327.171 520.978 331.401C521.813 330.566 522.622 329.757 523.457 328.922C519.927 301.412 516.398 273.874 503.518 246.714L503.545 246.687ZM139.605 453.136C154.721 464.615 169.837 476.093 185.923 488.272C187.647 485.093 188.752 483.072 189.857 481.051C200.473 478.087 241.725 503.846 255.197 507.079C282.276 513.573 301.973 514.166 329.429 508.965C332.393 517.722 341.635 516.24 347.725 519.878C347.94 520.013 350.365 516.402 351.766 514.543C355.296 513.923 358.826 513.277 362.383 512.657C362.248 511.417 362.14 510.205 362.005 508.965H351.766C350.069 506.055 348.371 503.118 346.997 500.774C359.446 495.466 372.244 489.996 385.07 484.527C384.827 483.368 384.585 482.209 384.342 481.078H368.526C368.822 478.653 400.078 456.693 404.093 452.22C397.383 448.313 392.453 445.43 388.034 442.844C385.016 444.837 382.16 446.724 379.762 448.286C374.993 445.403 371.355 443.194 368.688 441.577C359.715 446.319 352.171 450.307 345.138 454.026C341.285 451.062 338.537 448.96 336.408 447.316C320.861 452.49 306.473 457.259 291.572 462.19C280.552 457.421 230.247 461.139 223.403 469.896C208.529 469.896 178.567 444.757 167.574 458.741C159.409 452.732 151.245 446.697 139.659 438.155C139.659 446.266 139.659 449.714 140.252 453.648C139.902 453.298 139.524 452.921 139.174 452.571C137.665 453.864 136.129 455.157 134.62 456.451L136.372 458.202C137.665 456.693 138.959 455.157 139.686 453.136H139.605ZM276.995 246.095C273.789 246.714 271.283 247.199 267.861 247.873C279.124 262.127 272.55 275.814 266.756 290.284H284.728C286.022 275.006 283.435 260.294 276.995 246.122V246.095ZM246.171 23.3172C266.568 23.3172 278.073 31.4006 296.503 19.4641C278.935 14.7219 261.853 22.455 246.171 13.1322V23.3442V23.3172ZM233.615 229.847C226.582 238.281 197.024 261.992 198.344 272.446C211.897 262.477 223.699 253.774 233.615 246.472V229.82V229.847ZM259.293 155.48C250.778 151.277 244.635 148.286 239.273 145.618C233.453 149.148 228.684 152.031 224.588 154.51C227.067 157.582 229.411 160.438 232.51 164.264C236.39 162.001 239.92 159.926 243.476 157.851C248.165 162.782 252.799 166.393 259.32 155.48H259.293ZM302.889 268.243C305.368 279.29 307.335 288.047 309.41 297.37C314.583 296.589 319.352 295.861 327.624 294.595C318.059 284.517 319.244 270.399 302.889 268.243ZM413.254 214.031C413.308 199.454 403.23 196.705 398.569 190.508C393.611 190.831 390.082 191.074 382.295 191.586C393.827 200.019 398.057 211.417 413.254 214.058V214.031ZM297.285 215.728C305.206 204.519 311.35 195.816 315.742 189.619C313.586 185.227 312.023 182.074 310.353 178.679C300.653 189.538 293.701 199.157 297.285 215.701V215.728ZM406.087 449.876C417.861 445.727 422.819 437.185 420.367 425.006C415.598 433.305 410.856 441.577 406.087 449.876ZM287.504 204.061C291.195 194.415 293.728 187.867 297.069 179.164C288.905 179.838 283.947 180.242 280.471 180.539C282.815 188.406 284.701 194.711 287.504 204.088V204.061ZM433.139 125.168C442.219 131.23 445.56 141.873 457.039 138.559C450.033 134.436 449.386 121.773 433.139 125.168ZM399.97 423.417C392.318 427.189 386.175 430.26 375.747 435.407H402.476C401.587 431.123 400.94 428.024 399.97 423.417ZM239.542 298.448C229.789 294.595 222.945 296.858 216.882 309.199C224.319 306.881 228.953 305.426 232.833 304.214C235.231 305.561 236.875 306.504 239.542 308.013V298.448ZM315.445 357.295H335.465C334.603 353.01 333.983 349.939 332.878 344.415C326.843 348.861 322.586 352.04 315.445 357.295ZM317.304 173.102C317.224 171.485 317.143 169.869 317.062 168.279C310.272 168.737 303.455 169.195 296.665 169.653C296.746 170.812 296.827 171.97 296.907 173.129H317.304V173.102ZM371.625 235.667C377.66 225.293 369.092 223.623 365.32 218.423C359.284 228.796 367.852 230.467 371.625 235.667ZM166.523 262.423C166.496 260.806 166.469 259.19 166.442 257.573C159.598 258.031 152.754 258.489 145.91 258.974L146.126 262.423H166.523ZM188.24 433.763C185.079 425.877 179.447 421.764 171.346 421.423C177.462 425.868 181.746 429.021 188.24 433.763ZM324.31 324.261C320.592 317.659 317.978 313.025 313.586 305.238V324.261H324.31ZM262.472 341.963C261.987 354.412 266.595 354.492 274.005 350.181C273.439 347.298 272.981 344.792 272.442 341.963H262.499H262.472ZM196.485 364.785L196.593 369.716C201.578 369.042 206.562 368.369 211.547 367.695C211.466 366.725 211.385 365.755 211.305 364.785H196.485ZM311.7 219.554C310.056 219.716 308.413 219.878 306.769 220.039C307.47 224.916 308.17 229.793 308.871 234.67C309.814 234.562 310.757 234.481 311.7 234.374V219.554ZM270.96 194.684C264.816 209.369 270.744 208.48 278.046 206.055C275.81 202.498 273.681 199.049 270.96 194.684ZM178.675 181.024V183.826H195.407V181.024H178.675ZM357.317 158.687V161.489H374.05V158.687H357.317ZM323.825 19.1408V21.943H334.98V19.1408H323.825ZM82.9139 217.749C82.7253 216.132 82.5098 214.543 82.3211 212.926C79.3034 213.653 76.2586 214.381 73.2408 215.081C73.3756 215.971 73.5372 216.86 73.6719 217.749H82.9409H82.9139ZM133.085 225.293C131.495 225.374 129.878 225.428 128.288 225.509L130.336 234.94C131.252 234.805 132.169 234.697 133.085 234.562V225.293ZM352.736 370.363C352.844 371.952 352.952 373.542 353.033 375.132C356.131 374.458 359.257 373.785 362.356 373.111C362.221 372.195 362.113 371.279 361.978 370.363H352.71H352.736ZM149.817 415.091C148.227 415.172 146.611 415.225 145.021 415.306C145.695 418.459 146.395 421.584 147.069 424.737C147.985 424.602 148.901 424.494 149.817 424.36V415.091ZM157.739 436.377H160.541V425.222H157.739V436.377ZM396.387 382.434V384.293H401.964V382.434H396.387ZM282.869 330.323H281.01V335.901H282.869V330.323ZM189.857 254.043V255.902H195.434V254.043H189.857ZM411.26 224.27H409.401V229.847H411.26V224.27ZM271.714 213.114H269.855V218.692H271.714V213.114ZM387.064 162.863H388.923V157.285H387.064V162.863ZM336.839 157.285H338.698V151.708H336.839V157.285ZM372.19 129.371H370.331V134.948H372.19V129.371ZM338.698 51.2318H336.839V56.8093H338.698V51.2318Z" fill="black"/>
<path d="M11.2114 253.531C11.2114 276.569 22.5281 337.302 8.81338 357.402C-0.644155 322.617 -5.95223 287.832 11.2114 253.531Z" fill="black"/>
<path d="M32.6855 291.254C38.29 291.254 40.1222 291.254 41.9545 291.254C51.385 306.181 47.3164 339.754 48.3403 357.349C47.02 357.618 44.4873 358.076 41.1461 358.723C38.3708 336.602 35.6494 314.965 32.6855 291.254Z" fill="black"/>
<path d="M12.4536 239.761C11.6183 223.433 13.0733 203.17 27.8389 191.8C23.4469 208.856 18.543 223.379 12.4536 239.761Z" fill="black"/>
<path d="M151.779 51.5822C167.057 38.7566 180.152 36.116 197.477 33.6641C180.376 44.5676 165.144 50.5403 151.779 51.5822Z" fill="black"/>
<path d="M100.534 341.506C102.393 343.796 105.788 346.059 105.869 348.404C106.381 362.846 106.111 377.288 106.111 391.73C104.252 389.44 100.857 387.177 100.776 384.833C100.264 370.39 100.534 355.948 100.534 341.506Z" fill="black"/>
<path d="M532.506 369.097C535.523 369.582 537.975 369.959 542.637 370.713C538.029 382.407 533.826 392.996 529.622 403.613C528.194 403.235 526.793 402.831 525.365 402.454C527.709 391.488 530.054 380.521 532.506 369.097Z" fill="black"/>
<path d="M110.639 111.776H92.2627C90.2149 116.33 88.5174 120.129 86.8469 123.793H78.2246C80.0568 118.027 81.6466 113.043 83.2632 108.004H110.854C110.774 109.243 110.693 110.51 110.639 111.749V111.776Z" fill="black"/>
<path d="M519.172 123.793C525.019 128.427 530.839 133.088 535.904 137.103V151.68C523.24 146.615 521.139 135.244 519.172 123.766V123.793Z" fill="black"/>
<path d="M396.385 564.766C405.815 555.848 417.348 553.18 429.877 553.611C421.928 566.976 408.725 564.605 396.385 564.766Z" fill="black"/>
<path d="M524.424 469.867C525.34 460.194 528.951 452.272 539.998 448.446C535.929 454.967 534.232 462.107 534.932 469.867H524.424Z" fill="black"/>
<path d="M216.985 29.8643C214.884 36.0884 212.405 43.3904 209.441 52.1474C206.935 44.2257 204.806 37.4357 202.408 29.8643H216.985Z" fill="black"/>
<path d="M145.183 56.8087C140.279 65.7812 135.105 74.4035 122.846 73.5413C127.75 64.5687 132.923 55.9465 145.183 56.8087Z" fill="black"/>
<path d="M49.3666 364.867V397.12C42.1993 382.516 46.4566 373.489 49.3666 364.867Z" fill="black"/>
<path d="M268.883 96.8203H301.189C286.639 103.287 277.775 100.646 268.883 96.8203Z" fill="black"/>
<path d="M523.376 434.249C521.517 442.575 519.092 450.065 506.186 445.404C513.218 440.85 518.284 437.536 523.376 434.249Z" fill="black"/>
<path d="M96.4121 341.506V319.68C97.2474 319.653 98.0827 319.627 98.918 319.6V341.425C98.0827 341.452 97.2474 341.479 96.4121 341.506Z" fill="black"/>
<path d="M50.2773 414.068V398.278C51.5976 398.143 52.9179 398.009 54.2382 397.874C54.7771 403.263 55.316 408.679 55.8549 414.068H50.2773Z" fill="black"/>
<path d="M60.5472 197.326V212.146L57.6372 212.415C56.9367 207.484 56.2631 202.553 55.5625 197.596C57.2331 197.515 58.9036 197.407 60.5472 197.326Z" fill="black"/>
<path d="M31.418 171.054C36.4297 168.548 40.148 166.689 43.4352 165.045C45.51 170.757 47.3422 177.251 31.418 171.054Z" fill="black"/>
<path d="M133.002 44.6852H123.733C123.598 43.7691 123.49 42.853 123.355 41.9369C126.454 41.2632 129.58 40.5896 132.678 39.916C132.786 41.5057 132.894 43.0955 132.975 44.6852H133.002Z" fill="black"/>
<path d="M156.36 51.2311C155.875 59.5839 149.435 55.9733 145.205 56.8086C145.69 48.4558 152.13 52.0663 156.36 51.2311Z" fill="black"/>
<path d="M216.878 61.4422H207.609C207.474 60.553 207.312 59.6639 207.178 58.7747C210.196 58.0472 213.24 57.3197 216.258 56.6191C216.447 58.2358 216.662 59.8255 216.851 61.4422H216.878Z" fill="black"/>
<path d="M302.373 588.048H311.642C311.777 588.937 311.938 589.826 312.073 590.715C309.055 591.443 306.011 592.17 302.993 592.871C302.804 591.254 302.589 589.665 302.4 588.048H302.373Z" fill="black"/>
<path d="M43.8418 159.657C45.7818 152.867 46.7249 149.499 47.6949 146.131C52.1407 152.193 50.8743 156.72 43.8418 159.657Z" fill="black"/>
<path d="M495.593 145.968C495.889 149.524 496.212 153.108 496.509 156.665C495.296 156.826 494.111 156.961 492.898 157.123L490.77 146.21C492.386 146.129 493.976 146.049 495.593 145.968Z" fill="black"/>
<path d="M89.3756 190.778C90.2109 186.548 86.6003 180.081 94.9531 179.623C94.1178 183.853 97.7284 190.32 89.3756 190.778Z" fill="black"/>
<path d="M503.678 190.937C503.381 187.381 503.058 183.797 502.762 180.24C503.974 180.079 505.16 179.944 506.372 179.782L508.501 190.695C506.884 190.776 505.294 190.856 503.678 190.937Z" fill="black"/>
<path d="M508.016 190.776C509.875 193.094 511.734 195.411 513.593 197.728C511.734 199.129 509.875 200.53 508.016 201.958V190.803V190.776Z" fill="black"/>
<path d="M54.9168 247.469V256.738L52.2493 257.169C51.5218 254.151 50.7943 251.106 50.0938 248.088C51.7104 247.9 53.3002 247.684 54.9168 247.496V247.469Z" fill="black"/>
<path d="M329.532 585.864C325.975 586.16 322.392 586.484 318.835 586.78C318.673 585.568 318.539 584.382 318.377 583.17C322.014 582.469 325.652 581.742 329.289 581.041C329.37 582.658 329.451 584.247 329.532 585.864Z" fill="black"/>
<path d="M192.492 565.71C185.406 563.689 182.038 562.746 178.67 561.776C184.786 557.33 189.394 558.624 192.492 565.71Z" fill="black"/>
<path d="M429.877 553.612C430.362 545.259 436.802 548.87 441.032 548.035C440.547 556.388 434.107 552.777 429.877 553.612Z" fill="black"/>
<path d="M26.9993 381.599V390.868C26.0831 391.002 25.167 391.11 24.2509 391.245L22.2031 381.814C23.7929 381.733 25.4095 381.679 26.9993 381.599Z" fill="black"/>
<path d="M21.5293 416.412C23.4693 409.622 24.4124 406.254 25.3824 402.886C29.8282 408.948 28.5618 413.475 21.5293 416.412Z" fill="black"/>
<path d="M44.7018 441.981C53.0546 442.466 49.444 448.906 50.2793 453.136C41.9265 452.651 45.537 446.212 44.7018 441.981Z" fill="black"/>
<path d="M72.6185 475.472C70.7594 473.613 68.9002 471.754 67.041 469.895H72.6185V475.472Z" fill="black"/>
<path d="M514.182 481.537L510.302 486.09C509.709 485.498 509.117 484.905 508.551 484.339C510.06 483.046 511.596 481.752 513.104 480.459C513.455 480.809 513.832 481.187 514.182 481.537Z" fill="black"/>
<path d="M524.182 435.892C525.475 434.383 526.768 432.847 528.062 431.338L529.813 433.089C528.304 434.383 526.768 435.676 525.259 436.969L524.182 435.892Z" fill="black"/>
<path d="M38.6122 436.969C37.1033 435.676 35.5675 434.383 34.0586 433.089L35.81 431.338C37.1033 432.847 38.3967 434.383 39.69 435.892C39.3397 436.242 38.9625 436.619 38.6122 436.969Z" fill="black"/>
<path d="M31.6873 419.645V425.222H29.8281V419.645H31.6873Z" fill="black"/>
<path d="M468.945 492.206C467.086 494.065 465.226 495.924 463.367 497.784V492.206H468.945Z" fill="black"/>
<path d="M463.367 497.784C461.507 499.643 459.648 501.503 457.789 503.362V497.784H463.367Z" fill="black"/>
<path d="M72.6185 397.308L68.8732 401.942C68.2535 400.406 67.6607 398.843 67.041 397.308H72.6185Z" fill="black"/>
<path d="M33.5482 402.883H27.9707C29.2102 401.348 30.4765 399.785 31.716 398.249C32.3357 399.785 32.9285 401.348 33.5482 402.883Z" fill="black"/>
<path d="M468.945 527.557H474.523V529.416H468.945V527.557Z" fill="black"/>
<path d="M440.438 547.522C441.731 546.013 443.024 544.478 444.318 542.969C444.91 543.562 445.503 544.154 446.069 544.72C444.56 546.014 443.024 547.307 441.515 548.6C441.165 548.25 440.788 547.873 440.438 547.522Z" fill="black"/>
<path d="M212.756 565.278C211.463 566.787 210.17 568.323 208.876 569.832C208.284 569.239 207.691 568.646 207.125 568.08C208.634 566.787 210.17 565.494 211.679 564.2C212.029 564.55 212.406 564.928 212.756 565.278Z" fill="black"/>
<path d="M31.6873 213.114V218.692H29.8281V213.114H31.6873Z" fill="black"/>
<path d="M27.9707 181.482H33.5482V183.342H27.9707V181.482Z" fill="black"/>
<path d="M94.3633 179.11C95.6566 177.601 96.95 176.066 98.2433 174.557C98.8361 175.149 99.4289 175.742 99.9947 176.308C98.4858 177.601 96.95 178.895 95.4411 180.188C95.0908 179.838 94.7136 179.461 94.3633 179.11Z" fill="black"/>
<path d="M77.627 179.11C78.9203 177.601 80.2136 176.066 81.507 174.557C82.0997 175.149 82.6925 175.742 83.2584 176.308C81.7495 177.601 80.2136 178.895 78.7047 180.188C78.3545 179.838 77.9772 179.461 77.627 179.11Z" fill="black"/>
<path d="M502.435 166.581H496.857V164.722H502.435V166.581Z" fill="black"/>
<path d="M70.7576 162.864V168.442H68.8984V162.864H70.7576Z" fill="black"/>
<path d="M490.77 146.698C489.261 145.404 487.726 144.111 486.217 142.818C486.81 142.225 487.402 141.632 487.968 141.066C489.262 142.575 490.555 144.111 491.848 145.62C491.498 145.97 491.121 146.348 490.77 146.698Z" fill="black"/>
<path d="M290.326 142.414H295.904V144.273H290.326V142.414Z" fill="black"/>
<path d="M49.7148 145.62C51.0082 144.111 52.3015 142.575 53.5949 141.066C54.1876 141.659 54.7804 142.252 55.3463 142.818C53.8374 144.111 52.3015 145.404 50.7926 146.698C50.4423 146.348 50.0651 145.97 49.7148 145.62Z" fill="black"/>
<path d="M483.818 129.37V134.948H481.959V129.37H483.818Z" fill="black"/>
<path d="M334.466 118.808C332.957 117.515 331.421 116.221 329.912 114.928L331.664 113.177C332.957 114.686 334.25 116.221 335.544 117.73C335.193 118.081 334.816 118.458 334.466 118.808Z" fill="black"/>
<path d="M468.945 108.919H474.523V110.778H468.945V108.919Z" fill="black"/>
<path d="M214.025 101.456V95.8789H215.885V101.456H214.025Z" fill="black"/>
<path d="M106.704 90.8122L102.824 95.3658L101.072 93.6144C102.581 92.3211 104.117 91.0277 105.626 89.7344C105.976 90.0847 106.353 90.4619 106.704 90.8122Z" fill="black"/>
<path d="M199.148 62.3877V67.9652H197.289V62.3877H199.148Z" fill="black"/>
<path d="M98.6736 62.3877V67.9652H96.8145V62.3877H98.6736Z" fill="black"/>
<path d="M210.306 0.981445V6.55896H208.447V0.981445H210.306Z" fill="black"/>
<path d="M379.623 514.542C381.482 512.683 383.341 510.824 385.201 508.964C407.672 509.18 423.489 496.597 437.742 481.454C440.733 483.205 443.67 484.93 446.58 486.627V492.205C444.721 494.064 442.862 495.923 441.003 497.782C426.507 497.055 421.818 507.483 416.833 520.335C408.885 521.979 399.831 523.838 390.778 525.697C390.778 523.838 390.778 521.979 390.482 519.85C390.563 519.958 390.913 520.335 391.29 520.685C392.799 519.392 394.335 518.099 395.844 516.805C395.251 516.213 394.658 515.62 394.092 515.054C392.799 516.563 391.506 518.099 390.482 519.877C386.548 519.284 380.081 522.895 379.623 514.542Z" fill="black"/>
<path d="M482.335 380.091C478.482 398.144 475.949 409.972 473.201 422.798C462.639 422.987 463.474 436.351 453.989 442.306C450.675 420.427 471.396 398.332 482.335 380.091Z" fill="black"/>
<path d="M477.676 390.193C481.34 372.194 481.771 348.186 495.298 334.714C493.627 359.206 490.852 368.26 477.676 390.193Z" fill="black"/>
<path d="M418.693 477.333H424.271V479.192H418.693V477.333Z" fill="black"/>
<path d="M435.455 460.572H441.033V462.431H435.455V460.572Z" fill="black"/>
<path d="M452.184 454.996H457.761V456.855H452.184V454.996Z" fill="black"/>
<path d="M452.183 486.629H446.605C448.465 484.77 450.324 482.911 452.183 481.052V486.629Z" fill="black"/>
<path d="M368.467 313.59C376.82 314.075 373.21 320.515 374.045 324.745C365.692 324.26 369.303 317.82 368.467 313.59Z" fill="black"/>
<path d="M374.046 324.747C382.398 325.232 378.788 331.672 379.623 335.902C371.27 335.417 374.881 328.977 374.046 324.747Z" fill="black"/>
<path d="M385.201 347.082C376.848 346.597 380.459 340.157 379.624 335.927C387.976 336.412 384.366 342.852 385.201 347.082Z" fill="black"/>
<path d="M367.958 314.156C366.449 312.862 364.913 311.569 363.404 310.276L365.156 308.524C366.449 310.033 367.742 311.569 369.036 313.078C368.685 313.428 368.308 313.806 367.958 314.156Z" fill="black"/>
<path d="M447.202 286.189C445.908 287.698 444.615 289.234 443.322 290.743L441.57 288.991C443.079 287.698 444.615 286.405 446.124 285.111C446.474 285.462 446.851 285.839 447.202 286.189Z" fill="black"/>
<path d="M334.976 480.917V490.267C318.863 493.015 302.67 495.79 285.749 498.673C285.317 493.904 285.102 491.398 284.859 488.704C301.834 486.063 318.405 483.477 334.976 480.917Z" fill="black"/>
<path d="M245.658 481.051C250.912 481.051 256.274 480.485 261.394 481.293C263.819 481.698 265.813 484.769 267.995 486.628C262.741 486.628 257.379 487.194 252.26 486.386C249.835 485.982 247.841 482.91 245.658 481.051Z" fill="black"/>
<path d="M368.469 481.052C365.855 491.803 357.206 484.501 351.736 486.63C354.35 475.879 362.999 483.181 368.469 481.052Z" fill="black"/>
<path d="M272.519 502.417H257.7C257.619 501.447 257.538 500.477 257.457 499.507C262.442 498.834 267.427 498.16 272.411 497.486L272.519 502.417Z" fill="black"/>
<path d="M329.24 504.628L339.937 503.712C340.099 504.924 340.234 506.11 340.395 507.322C336.758 508.023 333.12 508.751 329.483 509.451C329.402 507.834 329.321 506.245 329.24 504.628Z" fill="black"/>
<path d="M351.872 490.967L341.175 491.883C341.013 490.67 340.878 489.485 340.717 488.272C344.354 487.572 347.992 486.844 351.629 486.144L351.872 490.967Z" fill="black"/>
<path d="M334.818 476.712L345.515 475.796C345.677 477.008 345.812 478.194 345.973 479.406C342.336 480.107 338.698 480.835 335.061 481.535C334.98 479.918 334.899 478.329 334.818 476.712Z" fill="black"/>
<path d="M234.502 475.473C238.732 476.309 245.199 472.698 245.657 481.051C241.427 480.215 234.96 483.826 234.502 475.473Z" fill="black"/>
<path d="M234.499 475.473C230.268 474.637 223.802 478.248 223.344 469.895C227.574 470.73 234.041 467.12 234.499 475.473Z" fill="black"/>
<path d="M353.568 475.472V469.895H355.428V475.472H353.568Z" fill="black"/>
<path d="M374.042 462.431H368.465V460.572H374.042V462.431Z" fill="black"/>
<path d="M268.502 486.034C270.011 487.328 271.546 488.621 273.055 489.914L271.304 491.666C270.01 490.157 268.717 488.621 267.424 487.112L268.502 486.034Z" fill="black"/>
<path d="M351.709 508.938V514.516L347.074 510.771C348.61 510.151 350.173 509.558 351.709 508.938Z" fill="black"/>
<path d="M189.852 358.239C181.202 359.128 175.302 355.894 173.119 347.083C181.768 346.194 187.669 349.428 189.852 358.239Z" fill="black"/>
<path d="M217.74 280.099V274.521H228.895C228.41 282.874 221.971 279.264 217.74 280.099Z" fill="black"/>
<path d="M140.844 324.909C140.547 321.352 140.224 317.769 139.928 314.212C141.14 314.05 142.326 313.916 143.538 313.754L145.667 324.666C144.05 324.747 142.461 324.828 140.844 324.909Z" fill="black"/>
<path d="M159.566 340.616C166.356 342.556 169.724 343.499 173.093 344.469C167.03 348.915 162.503 347.649 159.566 340.616Z" fill="black"/>
<path d="M151.267 329.73C152.776 331.024 154.312 332.317 155.821 333.61L154.069 335.362C152.776 333.853 151.483 332.317 150.189 330.808C150.54 330.458 150.917 330.081 151.267 329.73Z" fill="black"/>
<path d="M329.398 548.037C332.12 548.037 336.054 549.223 337.374 547.849C352.086 532.76 372.564 531.978 390.805 525.7C388.353 529.957 329.452 565.848 329.398 548.037Z" fill="black"/>
<path d="M316.359 553.612V559.19H314.5V553.612H316.359Z" fill="black"/>
<path d="M318.221 531.275V536.853H302.432C302.297 535.533 302.162 534.212 302.027 532.892C307.416 532.353 312.832 531.814 318.221 531.275Z" fill="black"/>
<path d="M458.358 163.377C457.065 164.885 455.771 166.421 454.478 167.93C453.885 167.337 453.292 166.745 452.727 166.179C454.235 164.885 455.771 163.592 457.28 162.299L458.358 163.377Z" fill="black"/>
<path d="M401.961 146.131C402.446 137.778 408.886 141.389 413.116 140.553C412.631 148.906 406.191 145.296 401.961 146.131Z" fill="black"/>
</svg>
