<svg width="534" height="545" viewBox="0 0 534 545" fill="none" xmlns="http://www.w3.org/2000/svg">
<path d="M9.37478 108.044C30.9574 61.1871 66.9822 -26.3557 137.388 8.26803C266.668 -2.13256 247.565 225.98 261.037 296.628C262.842 298.434 265.456 301.047 267.746 303.338H288.062C288.062 220.564 308.755 157.81 366.929 99.6639C463.201 64.1241 490.793 111.627 528.111 196.179C522.722 224.417 533.688 262.597 533.607 292.156C533.473 334 530.751 372.612 513.453 411.331C484.488 476.16 421.491 513.963 355.127 532.285C281.595 552.574 197.771 549.584 128.739 515.688C86.0321 494.698 22.389 429.761 31.3077 375.711C-12.8814 306.517 1.022 183.731 9.40175 108.071L9.37478 108.044ZM416.776 415.077C359.492 453.068 321.446 476.322 250.69 476.079C214.881 440.485 170.287 430.92 136.957 388.348C137.388 383.066 137.9 377.004 138.223 373.124C168.536 370.295 196.451 367.708 224.203 365.094C226.979 362.373 229.619 359.759 231.236 358.17V317.052C213.426 308.726 201.354 303.957 187.37 289.946C189.957 257.02 189.445 247.94 216.875 229.887C220.836 234.09 223.368 236.785 225.2 238.725C219.542 248.344 213.911 257.909 208.279 267.474C211.998 275.046 215.016 281.216 217.575 286.416H230.697C243.199 197.957 225.766 2.23248 90.3969 25.7281C-7.4118 99.0981 42.5167 237.216 42.4897 340.144C64.3956 364.286 63.9376 418.175 82.5562 447.41C101.66 477.453 128.712 496.287 161.342 509.221C242.014 541.204 338.664 530.534 413.893 488.447C491.844 444.823 513.48 371.723 510.543 286.309C507.687 202.888 494.349 108.744 395.759 108.744C388.053 115.642 380.536 122.324 370.081 131.647C342.086 135.797 309.833 225.145 318.078 248.236H333.302C345.777 257.72 355.747 265.319 365.501 272.729V298.407C353.322 324.354 328.802 323.681 311.127 331.818V363.909C346.747 376.923 379.835 393.251 416.776 415.077ZM194.376 410.981C228.326 456.679 319.722 480.713 357.633 426.905C300.43 426.717 246.487 430.974 194.376 410.981ZM253.519 354.856C263.3 365.094 271.491 373.663 279.709 382.231C282.619 379.321 285.233 376.707 287.308 374.633V327.695H262.034C258.935 337.557 256.348 345.775 253.519 354.856ZM311.558 263.352C317.917 275.8 299.083 302.395 319.722 308.565C326.189 300.643 342.733 307.595 343.864 292.102C338.96 285.069 334.083 278.037 329.718 271.759C323.952 269.091 318.671 266.639 311.558 263.352ZM289.059 402.709C306.411 410.442 324.599 411.762 343.083 409.445C343.46 406.239 343.676 404.46 344.08 401.092C332.655 396.727 320.8 392.201 309.214 387.782C302.72 392.605 296.442 397.239 289.059 402.682V402.709ZM210.785 391.5C227.114 395.218 243.415 398.91 260.201 402.709C248.804 379.294 237.245 376.788 210.785 391.5Z" fill="black"/>
<path d="M167.7 119.9C194.429 144.419 218.706 192.489 157.219 192.489C153.204 184.486 147.33 180.633 139.624 180.902C134.774 170.933 129.924 160.99 125.316 151.56C131.756 128.98 145.228 118.175 167.7 119.9Z" fill="black"/>
<path d="M377.359 195.453V166.272C383.529 162.338 390.185 158.054 396.813 153.824C416.617 150.132 431.949 157.919 445.637 174.948C444.02 186.319 442.134 199.441 440.436 211.323C433.889 214.691 429.308 217.036 422.949 220.323H395.412C389.781 212.563 383.502 203.941 377.332 195.48L377.359 195.453Z" fill="black"/>
</svg>
