<svg width="441" height="530" viewBox="0 0 441 530" fill="none" xmlns="http://www.w3.org/2000/svg">
<path d="M0.297151 87.801C32.466 86.2669 61.1187 85.0322 89.734 83.4981C101.442 82.8995 106.941 86.7161 108.998 99.6999C113.15 125.892 114.422 151.859 111.691 179.473C102.976 181.98 94.4846 184.45 86.3302 186.807C77.9513 199.754 84.385 212.55 85.208 224.973C87.5271 260.482 90.4448 295.991 93.4373 331.462C93.9983 338.198 95.7564 344.895 97.5519 351.443C99.7962 359.563 104.958 364.427 113.973 364.277C146.404 363.679 178.797 363.155 212.013 362.593C215.978 342.201 209.657 325.588 207.038 308.825C205.804 300.892 198.435 298.76 191.066 299.284C178.236 300.182 165.406 301.341 152.576 302.501C146.03 303.1 139.484 303.923 131.03 304.896C128.187 285.289 125.644 267.629 123.025 249.294C130.244 245.665 136.155 242.671 144.047 238.667C142.326 213.785 140.718 188.154 138.773 162.598C135.406 118.783 132.04 74.9671 128.187 31.1888C127.289 20.8617 130.805 15.2864 140.868 13.5652C145.356 12.7795 149.733 11.2827 154.259 10.9085C195.555 7.27904 236.888 3.83663 280.765 0.132324C291.313 71.8238 284.842 147.145 298.607 222.466C310.876 221.605 321.799 220.857 333.769 220.034C335.714 240.464 337.921 259.883 339.267 279.34C340.053 291.239 331.262 295.093 321.574 295.841C305.752 297.039 289.854 297.039 273.994 297.937C263.596 298.535 253.234 299.807 243.359 300.743C236.364 316.87 240.404 330.939 244.631 344.521C245.828 348.413 251.962 353.651 255.591 353.464C287.311 352.042 319.33 351.78 350.489 346.504C370.314 343.174 377.683 344.895 374.578 314.587C369.267 262.577 364.03 210.567 357.708 158.707C355.426 139.923 353.22 138.539 332.459 137.08C321.013 136.257 315.44 131.28 314.991 120.691C314.243 103.292 313.607 85.8554 314.392 68.4938C314.617 63.854 319.442 56.5577 323.482 55.4352C360.738 45.4073 398.667 40.094 439.065 42.7132C439.814 67.3712 440.936 90.5699 440.749 113.806C440.749 117.585 435.512 123.273 431.51 124.695C422.308 127.95 412.433 129.185 402.782 131.056C389.204 133.675 385.613 136.855 386.623 150.7C388.643 178.65 390.812 206.638 394.553 234.402C404.69 309.461 415.724 384.371 426.273 459.392C426.983 464.444 426.348 469.682 426.348 476.642C412.956 478.25 400.799 479.672 386.323 481.394C388.119 469.008 389.466 459.729 391.261 447.418C344.392 447.83 300.889 461.188 256.301 464.892C212.2 468.597 167.388 467.175 123.1 479.373V529.4H87.9386C85.9935 516.79 83.5995 505.116 82.4773 493.292C77.3527 439.823 72.6771 386.279 67.6647 332.809C63.6623 289.854 59.6225 246.899 55.1712 203.982C52.9269 182.055 52.2162 181.831 30.0721 181.606C12.8281 181.419 11.8555 180.559 9.61118 164.918C7.03019 146.92 4.11253 128.96 1.64376 110.962C0.746021 104.377 0.783445 97.6793 0.259766 87.9883L0.297151 87.801ZM65.57 178.725C73.7244 162.074 88.2005 173.636 99.2725 171.99C105.631 148.791 103.387 140.335 88.8738 139.923C65.6823 139.287 42.4533 141.158 16.4564 142.056C17.9152 153.768 19 162.187 20.2718 172.364C32.1668 171.691 41.8922 170.231 51.4307 171.017C56.4804 171.429 61.1936 175.844 66.0563 178.463C65.57 185.273 64.2234 192.121 64.7096 198.856C67.8891 243.42 70.9565 288.021 75.0711 332.51C79.4849 379.955 84.8339 427.363 90.1455 474.696C91.7166 488.69 94.7091 502.534 97.0656 516.753C113.15 511.252 115.058 508.184 113.861 491.833C113.225 483.227 107.764 474.097 117.078 469.906C209.806 458.606 302.535 447.306 396.61 435.819C404.652 442.292 396.311 460.552 415.463 466.464C413.555 444.762 412.582 425.305 410.039 406.11C400.089 331.126 389.578 256.179 379.516 181.232C378.019 169.969 378.132 158.52 376.635 147.257C376.187 143.89 372.708 140.896 368.182 134.011C367.396 142.393 366.461 146.06 366.798 149.614C369.229 176.704 371.623 203.832 374.541 230.885C377.87 261.679 382.508 292.361 385.089 323.231C386.772 343.586 380.152 351.668 360.476 354.324C334.33 357.879 307.996 361.247 281.662 362.07C237.075 363.492 236.888 362.669 231.24 317.207C230.192 308.788 231.09 300.144 231.09 292.324C264.194 288.058 296.251 293.634 328.457 281.51C326.549 264.86 324.791 249.481 322.921 232.905H291.912C290.191 228.827 288.208 226.17 287.984 223.326C285.74 196.947 283.495 170.531 281.85 144.077C280.091 115.378 280.279 86.454 277.099 57.9421C275.341 42.0771 277.735 24.6408 266.999 8.70103C224.02 18.205 179.807 12.9292 135.743 22.7325C141.541 99.8495 147.227 174.983 152.875 250.267C146.254 251.651 140.718 252.774 134.209 254.121C136.154 269.2 131.666 284.055 142.7 295.542C166.827 293.746 189.981 292.062 214.407 290.266C215.716 297.562 216.876 303.325 217.736 309.124C219.644 321.809 220.654 334.643 223.384 347.14C227.649 366.485 225.629 370.264 206.178 371.2C172.924 372.846 139.596 373.706 106.342 375.503C98.1129 375.952 93.138 373.594 91.0432 365.737C89.6966 360.648 88.0134 355.522 87.5645 350.321C84.3103 313.39 81.8415 276.384 78.1384 239.491C76.0811 218.874 77.9887 197.209 65.6074 178.65L65.57 178.725ZM325.053 89.9338C358.943 89.4474 392.832 87.5019 427.133 80.5422V54.3127C422.495 53.2276 418.792 51.2819 415.35 51.6934C389.877 54.6868 364.329 57.306 339.118 61.7212C322.285 64.6772 322.098 66.6979 325.053 89.8966V89.9338ZM56.9668 132.627C56.9668 131.804 56.9668 130.981 56.9668 130.157C67.4029 130.157 77.9139 130.794 88.3127 129.97C96.916 129.297 102.003 123.909 100.956 114.667C99.9458 105.836 100.32 95.2846 87.3776 95.2098C65.6075 95.0975 43.8373 95.2846 22.1047 96.1077C13.2021 96.4445 9.2371 101.795 10.1722 111.374C11.8181 128.661 15.0724 132.328 32.2042 132.59C40.4709 132.739 48.7374 132.59 57.0041 132.59L56.9668 132.627ZM359.354 128.773C378.169 125.331 398.031 121.514 417.969 118.147C425.338 116.912 431.921 115.078 430.986 106.061C430.126 98.0159 424.29 94.5361 416.585 94.611C409.777 94.6858 403.006 95.1724 396.199 95.6962C377.346 97.0806 358.531 98.652 339.679 99.999C331.3 100.598 324.604 103.441 323.557 112.684C322.397 123.011 330.028 125.256 337.883 126.453C344.616 127.501 351.424 127.95 359.391 128.81L359.354 128.773Z" fill="black"/>
<path d="M112.85 417.971C117.937 415.763 120.892 413.78 124.109 413.219C206.738 398.327 290.9 398.477 374.053 388.785C375.549 388.598 377.307 391.068 378.804 392.153C378.093 394.211 378.018 396.157 377.083 396.793C375.288 398.028 373.043 399.075 370.911 399.225C287.31 405.436 203.409 408.13 120.518 422.161C118.984 422.423 117.002 420.328 112.85 417.971Z" fill="black"/>
<path d="M300.852 272.717C287.311 271.744 283.645 266.768 284.169 258.76C284.73 250.304 292.473 245.253 302.535 246.263C309.867 247.011 313.271 250.753 312.597 258.311C311.699 268.227 306.014 273.129 300.889 272.68L300.852 272.717Z" fill="black"/>
<path d="M170.455 280.463C160.169 280.837 149.807 287.385 147.002 273.016C145.394 264.672 151.416 258.985 160.506 259.359C174.869 259.958 172.214 269.35 170.455 280.463Z" fill="black"/>
</svg>
