<svg width="585" height="783" viewBox="0 0 585 783" fill="none" xmlns="http://www.w3.org/2000/svg">
<path d="M466.977 240.848C430.624 244.432 333.097 229.782 309.963 261.259C288.939 289.82 312.073 449.207 318.436 486.2C320.686 499.374 330.39 528.497 334.187 541.425C338.898 557.409 306.096 559.376 332.921 576.625C368.184 599.32 380.841 535.347 410.092 571.672C453.476 625.562 375.638 692.732 477.911 692.415C584.86 692.099 571.29 623.208 568.02 541.846C566.332 499.584 547.207 151.02 564.223 145.961C564.856 145.785 576.317 463.611 577.548 498.566C579.833 563.381 607.467 656.407 539.296 689.71C512.541 702.779 482.376 691.151 457.273 700.812C423.171 713.915 439.097 736.75 419.936 745.744C423.839 743.917 423.276 563.241 335.909 622.471C311.827 638.771 317.452 682.684 320.721 710.051C324.378 740.404 320.124 749.889 349.621 764.468C355.598 767.419 403.377 764.152 402.85 766.295C398.701 782.56 337.773 777.782 327.226 769.386C294.845 743.565 323.78 685.179 309.963 652.894C271.923 563.978 290.767 741.949 275.227 762.009C274.454 734.256 279.165 543.533 202.1 642.39C198.092 647.519 203.084 750.908 206.916 755.51C228.187 780.874 247.312 772.653 276.071 760.92C270.165 786.952 219.432 786.776 204.068 772.056C184.732 753.507 203.506 721.96 179.95 707.03C169.79 700.601 104.08 716.691 83.267 710.262C61.0474 703.411 42.8709 693.821 32.7807 674.604C17.1004 644.814 26.1359 576.661 23.9913 542.654C20.6864 490.556 17.0301 438.492 13.4791 386.394C11.3345 354.882 -12.2562 204.594 8.4516 188.539C2.12323 193.422 22.2685 371.464 23.5342 392.015C28.1399 467.51 25.0811 551.367 38.652 625.597C48.4961 679.382 74.0205 718.096 140.433 706.187C217.569 692.345 188.845 635.223 185.997 574.764C207.936 569.248 243.832 599.425 266.192 572.585C271.466 566.262 245.801 539.387 246.258 530.288C248.015 494.28 267.106 462.276 266.297 421.665C265.665 389.731 280.818 277.841 252.129 254.83C215.424 225.356 120.991 283.391 81.0169 259.011C83.5131 256.903 156.43 244.081 115.331 223.951C69.5203 201.538 65.196 253.039 51.379 258.941C54.2971 257.711 19.034 71.2386 32.64 44.8556C67.2703 -22.5948 192.607 -3.13257 240.878 33.1572C270.059 39.6915 266.086 229.431 293.861 193.879C317.276 163.913 276.563 86.9419 290.451 53.849C302.932 24.0935 335.347 14.6786 367.375 7.19579C445.25 -10.9667 515.67 2.73422 523.299 83.4289C526.675 119.262 558.844 300.992 465.817 240.357C529.698 234.384 524.424 192.439 468.805 199.781C424.401 205.648 421.94 231.363 466.942 240.848H466.977ZM118.495 215.73L118.389 214.184C206.178 209.934 253.746 233.471 254.098 136.722C254.379 64.0369 245.695 23.2504 160.192 11.6574C87.521 1.7857 41.2888 27.8525 41.4646 95.4435C41.6404 173.784 30.3899 222.475 118.53 215.73H118.495ZM512.893 63.9666C505.475 2.5937 413.045 4.2097 367.692 15.9784C307.151 31.6817 274.313 119.929 305.85 178.492C329.862 223.072 410.022 198.2 457.309 193.036C538.804 184.113 514.826 140.656 512.858 63.9666H512.893ZM279.482 547.046C295.97 634.345 306.061 492.523 305.709 479.384C304.092 422.438 309.506 360.397 301.103 304.013C286.267 204.102 271.571 277.173 272.309 326.005C273.434 399.744 277.372 473.342 279.482 547.081V547.046ZM359.43 581.017C275.72 597.563 362.77 623.419 386.782 608.032C417.51 588.359 376.552 581.157 359.43 581.017ZM217.323 214.887C171.97 223.178 180.443 241.27 219.467 243.308C272.134 246.013 258.985 213.763 217.323 214.887ZM344.031 241.34C388.189 227.675 360.379 200.975 327.612 211.269C290.064 223.072 321.635 240.813 344.031 241.34ZM229.944 590.467C215.776 589.237 207.233 594.507 204.244 606.205C208.112 647.238 329.335 587.516 229.944 590.467ZM297.869 612.634C329.335 606.908 289.783 586.497 291.33 592.575C291.787 594.331 272.731 617.201 297.869 612.634ZM283.314 239.619C296.076 234.525 298.818 227.148 291.541 217.452C277.407 203.118 261.27 239.83 283.314 239.619ZM320.335 515.253C318.085 517.255 315.448 535.312 320.089 534.188C330.671 531.588 328.562 518.555 320.335 515.253ZM270.094 533.345C264.997 511.107 253.395 535.453 262.957 541.46C268.829 542.233 271.184 539.528 270.094 533.345Z" fill="black"/>
</svg>
