<svg width="580" height="586" viewBox="0 0 580 586" fill="none" xmlns="http://www.w3.org/2000/svg">
<path d="M0.0373994 24.8623C16.6081 24.301 32.3185 24.1515 47.9914 23.2161C79.7114 21.2704 111.357 18.3894 143.077 16.7804C186.131 14.6102 229.184 13.4503 272.238 11.5794C302.462 10.2698 332.686 8.17438 362.91 6.86478C418.083 4.47007 473.294 2.59899 528.467 0.0920327C540.699 -0.469226 547.095 4.54498 548.554 16.294C549.564 24.5258 550.499 32.795 550.985 41.1017C554.352 96.2173 557.569 151.333 560.823 206.411C564.227 263.884 567.893 321.32 571.035 378.83C573.204 418.118 574.551 457.443 576.533 496.769C577.244 511.1 579.301 525.431 579.601 539.761C579.75 547.32 577.506 554.916 576.122 563.933C547.058 552.035 520.799 553.007 494.428 560.491C492.296 561.089 490.051 561.613 487.807 561.688C428.07 564.12 368.333 565.767 308.671 569.059C225.631 573.662 142.703 579.573 59.6994 584.812C52.3305 585.261 44.8868 584.887 34.5254 584.887C32.2437 557.497 30.2238 532.054 27.942 506.685C27.1565 497.742 25.0618 488.836 24.8373 479.894C24.6503 472.897 27.2313 465.825 27.1191 458.828C26.745 431.588 26.1465 404.311 25.0244 377.071C23.5656 342.31 21.8449 307.587 19.7128 272.864C16.3837 218.497 12.9798 164.13 8.90254 109.837C6.88264 82.8968 3.3291 56.0683 0 24.9372L0.0373994 24.8623ZM565.162 420.213C557.756 427.173 549.526 429.905 538.866 430.728C519.752 432.224 499.627 429.568 482.121 438.51C478.082 458.005 493.642 453.178 503.48 456.882C490.201 455.423 482.495 459.876 481.411 476.713C478.53 464.515 476.623 456.845 465.85 461.185C465.85 484.646 465.326 507.919 466.224 531.118C466.448 536.955 471.311 542.568 474.042 548.293C479.54 545.561 485.039 542.792 489.004 540.847C514.702 554.541 538.828 542.269 564.638 540.023C570.997 510.875 565.686 483.673 564.115 454.6H523.754C523.866 454.151 523.941 453.664 524.053 453.215C537.257 450.97 550.462 448.725 565.087 446.218C565.087 436.34 565.087 428.258 565.087 420.138C562.768 386.613 560.449 353.087 558.018 318.064C526.821 317.727 498.617 316.643 469.703 324.089C469.067 333.368 468.543 341.6 467.87 351.703C463.83 341.712 465.775 330.823 453.656 325.248C451.711 360.757 452.982 393.834 460.838 430.241C468.468 424.255 472.62 421.037 476.511 417.968C483.655 428.52 493.904 427.248 504.565 426.051C524.764 423.768 545.038 422.122 565.199 420.176L565.162 420.213ZM421.449 457.331C430.165 455.61 439.741 453.739 449.354 451.831C446.923 438.772 439.629 437.65 431.586 438.099C413.445 439.147 395.266 439.932 377.199 441.766C369.605 442.551 362.236 445.657 353.334 448.089C362.199 465.002 376.338 456.995 385.353 460.662C376.002 462.645 366.014 464.777 355.316 467.06C355.316 480.792 355.915 492.129 355.129 503.429C354.419 514.131 361.675 526.553 347.798 538.677C346.975 517.274 347.237 499.164 345.142 481.353C344.282 474.094 338.334 467.434 335.641 462.308C337.736 458.566 339.905 454.712 342.075 450.821C338.446 448.838 334.818 445.246 331.19 445.246C323.821 445.246 316.527 448.014 309.12 448.276C290.492 448.95 271.827 448.763 253.161 449.324C250.73 449.399 248.336 452.018 243.212 455.123C262.513 473.645 285.293 459.389 303.809 466.087C284.956 469.155 264.608 463.505 247.999 473.832C242.8 497.218 250.393 519.818 241.79 541.071C239.209 536.993 238.461 532.952 238.349 528.911C237.863 513.757 237.227 498.603 237.264 483.449C237.264 472.074 230.755 467.584 223.274 467.434C226.491 464.403 233.037 461.148 233.449 457.294C234.309 448.95 226.416 449.024 220.394 449.024C207.527 449.024 194.584 448.8 181.754 449.698C167.764 450.671 153.849 452.804 138.064 454.637C138.962 474.057 141.094 490.445 140.047 506.647C139.037 522.849 150.221 539.163 141.917 555.14C140.122 555.327 138.363 555.514 136.568 555.701C133.089 528.91 129.648 502.157 125.72 471.812C120.222 478.135 118.015 480.717 117.79 480.979C111.282 477.836 105.559 472.635 100.023 472.785C79.3374 473.346 57.7169 468.369 35.3857 481.465C37.4805 507.358 39.2011 533.663 42.0814 559.817C42.9043 567.263 46.9815 574.373 57.0062 573.699C74.3998 572.502 91.8683 572.277 109.112 569.995C114.386 569.284 118.95 563.222 124.112 559.405C132.94 568.46 134.735 568.984 152.129 567.6C181.492 565.28 210.856 562.474 240.294 560.94C289.445 558.395 338.633 556.786 387.784 554.504C404.43 553.718 421.038 552.334 437.646 550.837C452.833 549.453 455.227 547.469 455.638 533.363C456.087 518.995 456.087 504.477 454.479 490.221C451.075 459.838 450.588 459.876 421.524 457.294L421.449 457.331ZM447.334 429.418C445.763 397.127 444.417 367.829 442.92 338.532C442.434 329.215 436.973 324.65 428.033 325.286C404.617 327.007 381.238 328.953 357.897 331.385C347.611 332.47 344.095 339.878 344.88 349.382C346.9 373.554 349.182 397.688 351.314 421.86C352.025 430.092 356.887 434.731 364.668 434.357C391.6 433.085 418.532 431.176 447.334 429.38V429.418ZM464.466 267.514C456.461 251.611 467.758 234.1 453.207 219.732C451.262 222.575 449.167 224.334 448.905 226.28C445.464 254.193 446.586 281.844 455.077 308.897C455.264 309.496 457.508 309.421 459.08 309.72C461.137 304.182 463.194 298.607 466.299 290.301C470.862 312.339 471.386 312.863 488.293 311.928C502.657 311.142 517.096 310.581 531.385 308.972C539.277 308.074 546.945 305.267 554.801 303.284C558.018 276.119 556.634 251.349 552.818 226.579C551.509 218.01 547.544 212.211 538.118 212.697C518.442 213.67 498.73 214.531 479.092 216.364C468.88 217.299 462.783 222.575 464.204 234.699C465.401 244.951 464.466 255.427 464.466 267.551V267.514ZM234.72 130.379V227.851C265.206 228.786 292.924 227.439 320.379 222.351C328.983 220.779 329.394 212.996 329.058 205.999C328.422 192.38 327.524 178.759 326.514 165.14C325.579 152.68 324.382 140.22 323.147 126.263C291.764 126.6 263.298 124.28 234.72 130.379ZM206.704 103.85C210.893 99.6967 218.898 95.5063 219.048 91.0911C219.721 68.7904 221.067 46.0782 214.484 26.1348C184.859 26.1348 157.777 26.1348 130.733 26.1348C119.698 26.1348 116.145 32.7576 116.818 42.4486C118.052 59.8103 118.875 77.2842 121.568 94.4587C122.466 100.258 128.563 105.235 132.491 110.885C131.443 112.232 128.601 115.936 125.758 119.641C130.172 121.474 134.586 124.916 138.999 124.879C157.889 124.691 176.779 123.606 195.669 122.634C201.691 122.334 207.901 122.072 213.586 120.351C220.918 118.181 221.703 111.633 215.382 106.956C212.576 104.898 208.574 104.449 206.778 103.85H206.704ZM137.653 440.793C167.203 440.793 192.714 440.98 218.225 440.68C227.688 440.568 234.122 436.378 233.785 425.564C233.075 402.178 232.588 378.755 231.84 355.369C231.578 347.025 226.416 342.947 218.486 343.396C194.435 344.78 170.383 346.688 146.331 348.185C136.792 348.784 132.379 354.733 132.753 363.002C133.912 389.157 135.97 415.312 137.653 440.755V440.793ZM446.249 207.833C466.261 204.652 452.01 189.61 461.997 182.464C462.633 188.638 462.97 192.941 463.493 197.206C464.541 205.438 469.591 209.442 477.521 208.693C501.385 206.373 525.25 203.605 552.182 200.686C550.275 170.228 548.516 142.764 546.646 112.681C527.607 112.681 511.223 112.045 494.877 112.83C461.661 114.402 459.753 116.797 459.828 150.248C459.828 152.792 459.828 155.374 459.828 157.918C459.267 157.918 458.743 157.918 458.182 157.918C457.172 144.86 456.162 131.764 455.077 117.358C443.631 119.79 441.985 125.44 442.546 132.886C443.182 141.08 443.743 149.275 444.155 157.507C444.903 173.858 445.539 190.172 446.287 207.908L446.249 207.833ZM131.63 245.063C131.63 274.324 131.481 300.59 131.705 326.857C131.78 335.351 137.69 339.429 145.209 338.868C172.852 336.773 200.981 338.943 231.13 330.748C229.596 304.145 228.174 277.99 226.529 251.873C226.005 243.566 220.469 239.637 212.801 240.012C185.906 241.396 159.011 243.305 131.668 245.063H131.63ZM338.372 231.368C340.915 263.734 343.159 292.508 345.591 323.64C374.992 320.758 400.989 318.326 426.986 315.67C441.462 314.21 443.22 312.489 442.397 297.035C441.349 277.504 439.591 257.972 437.796 238.478C436.524 224.708 433.569 221.341 418.794 222.463C393.358 224.409 368.072 228.001 338.372 231.368ZM328.122 20.1476C328.983 35.0023 329.357 46.3023 330.329 57.5275C333.06 89.3696 333.172 89.3697 364.219 92.2508C354.381 95.1319 344.543 98.0132 331.788 101.717C336.501 106.993 339.157 112.494 341.701 112.419C367.324 111.82 392.984 110.623 418.532 108.64C422.459 108.34 428.594 103.514 429.192 99.9964C430.576 91.9891 423.469 90.6792 417.148 90.305C412.622 90.0431 408.058 90.0059 403.532 90.0433C399.343 90.0807 395.153 90.4176 391.001 90.6047C391.001 89.8937 390.926 89.1825 390.926 88.4716C402.709 87.4239 414.492 86.4138 426.574 85.3287C431.96 63.8512 428.818 44.3942 427.135 25.0121C426.125 13.5998 417.447 12.5896 408.844 12.9264C389.954 13.6747 371.064 14.6849 352.212 16.1067C344.955 16.6306 337.773 18.5013 328.122 20.1476ZM22.2564 144.486C24.0518 173.297 25.2488 198.928 27.4183 224.484C28.5779 238.141 32.7299 240.985 46.4952 240.648C59.288 240.348 72.0807 239.675 84.9108 239.787C94.6363 239.862 100.509 235.409 103.95 226.654C104.25 225.868 106.157 225.718 106.681 225.494C109.374 228.637 111.88 231.518 117.79 238.403C120.334 204.091 117.678 175.018 115.696 145.982C115.583 144.074 112.03 142.39 106.98 137.788C105.596 150.135 104.586 159.041 103.015 172.773C101.295 158.966 100.172 150.21 98.9005 139.92C72.8662 137.825 48.4029 137.788 22.2564 144.411V144.486ZM317.275 21.8691C289.033 21.8691 263.485 21.4947 237.975 22.0934C229.484 22.2805 227.127 29.689 227.314 36.948C227.8 53.5612 228.212 70.2495 230.082 86.7131C230.718 92.4754 235.581 97.7511 237.601 101.53C235.618 106.956 234.085 111.259 232.476 115.674C245.568 119.229 306.203 118.742 314.619 114.739C317.35 113.466 320.492 109.388 320.342 106.731C320.23 104 316.601 99.3604 314.133 99.0985C305.342 98.163 296.402 98.7239 287.5 98.7239C287.462 98.3123 287.388 97.9009 287.35 97.4893C297.861 95.8429 308.372 94.1966 317.275 92.7747V21.8317V21.8691ZM30.4482 343.021C54.4252 347.137 74.5495 343.396 94.6363 341.6C102.828 340.889 105.559 334.789 105.372 326.932C105.147 314.883 105.297 302.835 105.297 290.787C110.796 306.54 104.25 324.425 117.828 338.532C127.291 308.972 122.279 280.123 112.516 250.676C110.347 255.952 108.177 261.265 106.456 265.456C103.763 259.918 101.407 249.703 98.2272 249.403C75.335 247.458 51.9565 245.063 30.4108 254.978V343.021H30.4482ZM109.636 405.508C112.454 423.593 116.668 436.365 122.279 443.824C124.224 440.082 127.516 436.789 127.067 434.058C122.728 406.93 129.91 378.643 120.409 352.114C90.7461 354.733 61.8689 348.671 33.2162 360.308C34.8247 389.12 36.3957 417.37 37.9667 445.433H109.599V405.508H109.636ZM335.005 336.137C304.033 332.994 276.54 338.644 248.972 341.413C240.219 342.311 239.92 350.692 240.069 357.502C240.481 376.398 241.304 395.293 242.239 414.189C242.538 420.176 243.399 426.238 244.82 432.037C246.615 439.371 252.825 441.878 258.847 439.371C262.7 437.762 266.515 432.636 267.525 428.37C268.647 423.544 266.216 417.968 266.104 412.692C265.767 399.522 268.273 396.416 281.365 395.855C291.689 395.443 302.088 396.528 313.085 396.977C315.03 408.614 315.704 418.567 318.696 427.772C319.856 431.401 326.177 435.592 330.03 435.479C333.958 435.367 338.297 430.727 341.364 427.135C342.972 425.227 342.636 421.261 342.374 418.305C340.13 392.038 337.698 365.771 335.005 336.099V336.137ZM174.123 232.678C174.123 232.678 174.123 232.379 174.123 232.229C179.397 232.229 184.709 232.341 189.983 232.229C195.257 232.117 200.569 231.742 205.843 231.518C222.227 230.807 225.444 227.851 225.593 211.35C225.706 199.264 224.808 187.178 224.509 175.055C224.284 166 224.883 156.833 223.985 147.853C222.526 133.335 219.122 130.192 208.237 130.866C197.053 131.539 194.098 135.206 193.836 148.788C193.761 152.567 195.183 156.908 193.761 159.976C191.779 164.316 188.487 169.63 184.485 171.164C160.882 180.257 150.034 174.269 144.199 150.248C143.675 148.04 144.012 145.196 142.74 143.7C140.159 140.669 136.643 136.216 133.688 136.366C130.92 136.478 126.057 141.754 126.057 144.747C125.982 170.453 126.581 196.159 127.553 221.864C127.89 230.62 132.64 235.634 142.403 234.699C152.914 233.688 163.537 233.351 174.086 232.678H174.123ZM481.785 86.1892C481.56 87.0124 481.373 87.7983 481.149 88.6214C479.69 88.8085 478.194 89.1828 476.735 89.1828C469.965 89.1828 461.249 87.7608 462.334 97.9008C462.633 100.782 471.648 104.898 476.585 104.749C498.355 104.075 520.126 102.054 545 100.296C546.347 69.5386 543.055 41.1764 537.407 11.9535H455.638C454.03 37.5843 451.711 61.3441 460.8 84.7299C464.952 85.366 467.87 86.0021 470.788 86.1518C474.453 86.3763 478.119 86.1892 481.822 86.1892H481.785ZM361.376 129.294C338.259 122.147 336.165 123.607 336.501 144.747C336.801 165.102 336.838 185.457 336.913 205.812C336.95 217.673 340.204 222.126 351.089 221.191C374.393 219.171 397.697 216.738 420.814 213.259C436 210.976 439.292 205.251 437.871 189.461C436.374 172.922 434.803 156.421 433.232 139.883C432.896 136.104 433.831 131.277 431.848 128.845C428.444 124.692 423.544 120.389 418.607 119.416C416.175 118.929 410.228 125.29 409.517 129.257C408.058 137.152 409.068 145.496 409.068 153.204C392.61 163.344 392.086 163.381 366.725 158.517C365.117 149.687 363.396 140.182 361.413 129.294H361.376ZM332.761 280.684C331.826 268.935 330.629 258.458 330.18 247.944C329.693 236.644 324.27 230.919 313.01 232.004C288.323 234.399 263.635 237.243 240.331 239.712C238.498 243.23 237.301 244.539 237.189 245.886C236.778 252.659 236.441 259.469 236.479 266.279C236.479 283.366 245.306 292.009 262.962 292.209C264.944 292.209 266.889 294.08 270.368 295.838C270.368 300.515 269.657 305.754 270.555 310.73C271.602 316.418 274.071 321.844 276.353 328.766C285.48 327.905 293.447 327.157 301.49 326.408C302.761 312.676 303.846 300.815 305.006 288.654C314.32 285.96 322.212 283.677 332.723 280.647L332.761 280.684ZM97.5913 110.286C95.4592 86.9378 93.8508 67.7053 91.8309 48.5102C90.1102 32.084 88.2399 30.1008 72.3425 30.6247C57.2681 31.1111 42.231 32.9444 27.1191 33.7676C15.2615 34.4037 11.3339 40.3905 12.8675 51.6531C14.8874 66.6201 16.2715 81.6994 18.0295 96.7037C19.638 110.586 22.3686 114.14 36.5079 114.028C55.2107 113.878 73.9136 111.858 97.5913 110.324V110.286ZM96.1699 121.287C70.9959 112.531 36.5079 114.851 22.3312 125.178C35.7598 133.709 74.138 132.362 96.1699 121.287ZM108.738 466.461C108.85 463.655 108.963 460.848 109.075 458.08C87.7537 452.542 66.021 458.08 44.5127 459.277C42.8295 459.352 41.3706 463.168 38.8645 466.498H108.738V466.461ZM445.688 16.8179C434.167 37.1729 435.963 65.6098 450.289 83.9068C449.84 58.8372 454.89 37.5845 445.688 16.8179ZM107.018 107.293C113.04 83.6449 109.823 51.9152 100.247 35.4516C96.8058 59.9225 99.6861 82.0734 107.018 107.293ZM477.109 444.273C472.583 441.429 469.404 437.949 467.197 438.473C464.616 439.072 461.062 443.449 461.286 445.807C461.548 448.239 465.813 451.868 468.468 451.943C470.75 452.018 473.219 447.94 477.109 444.273ZM455.937 97.265C451.935 94.7207 449.691 93.2985 447.484 91.8393C445.838 94.7204 443.743 97.4892 442.808 100.632C442.546 101.53 446.436 104.898 446.998 104.599C449.766 103.027 452.047 100.633 455.937 97.265Z" fill="black"/>
<path d="M471.911 377.184C472.397 383.545 472.884 389.943 473.37 396.304C472.472 396.304 471.612 396.379 470.714 396.416C470.415 390.055 470.116 383.657 469.816 377.296C470.527 377.296 471.238 377.221 471.911 377.184Z" fill="black"/>
<path d="M485.265 499.65C485.863 505.45 486.424 511.25 487.023 517.087L484.554 517.349C484.255 511.474 483.955 505.637 483.656 499.763C484.18 499.763 484.704 499.688 485.265 499.65Z" fill="black"/>
<path d="M177.975 107.217H158.973C158.973 106.694 158.973 106.207 158.973 105.684H177.975C177.975 106.207 177.975 106.694 177.975 107.217Z" fill="black"/>
<path d="M107.691 192.828V208.655C104.362 202.294 102.641 200.423 102.529 198.44C102.417 196.532 103.988 194.549 104.811 192.604C105.783 192.678 106.756 192.753 107.691 192.828Z" fill="black"/>
<path d="M520.536 85.216C515.075 86.376 509.613 87.5361 504.19 88.6961C503.928 87.4239 503.703 86.1142 503.441 84.842C509.015 84.1685 514.588 83.4948 520.124 82.8213C520.274 83.6071 520.386 84.3929 520.536 85.216Z" fill="black"/>
</svg>
