<svg width="583" height="461" viewBox="0 0 583 461" fill="none" xmlns="http://www.w3.org/2000/svg">
<path d="M287.309 460.049C234.762 464.2 43.0413 450.34 125.132 368.418C160.937 332.68 200.259 336.092 202.193 271.757C204.093 207.914 200.575 253.219 141.803 254.943C61.6471 257.3 -35.7082 153.604 14.9391 76.9218C41.8807 36.1539 98.5424 15.0138 144.793 28.4859C160.339 33.0235 247.706 115.579 238.385 119.835C254.564 112.414 240.495 83.781 259.629 81.5297C278.973 79.2434 284.601 113.645 301.413 115.017C324.697 116.916 386.212 36.2594 414.314 20.8527C534.39 -44.9598 634.032 62.7111 552.926 175.658C534.637 201.16 516.171 219.592 486.24 231.2C454.762 243.406 418.886 226.029 392.859 234.366C377.56 239.255 375.414 222.793 362.471 236.406C351.04 248.4 378.791 311.786 388.357 319.736C416.987 343.373 518.317 325.926 492.888 386.568C473.473 432.894 324.626 456.602 287.309 460.084V460.049ZM380.971 170.136C379.494 176.362 381.217 180.618 386.177 182.94C385.93 178.332 383.961 174.357 380.338 170.98C378.896 163.382 377.489 155.784 376.047 148.187C381.921 141.714 424.584 94.2984 425.112 94.7908C403.165 74.5652 375.52 137.916 376.927 148.749C370.983 160.533 371.088 161.096 380.936 170.171L380.971 170.136ZM298.599 392.267C298.599 392.478 298.67 392.689 298.67 392.935C266.558 396.804 71.847 399.266 188.476 437.994C216.051 447.14 453.214 432.19 446.567 381.046C444.421 364.619 310.593 390.648 298.564 392.267H298.599ZM284.917 277.314C289.419 323.464 329.797 337.499 350.266 294.726C363.526 267.008 318.964 151.599 288.61 139.041C269.266 154.589 283.546 252.797 284.953 277.314H284.917ZM559.151 76.6054C545.716 34.0787 523.487 12.446 478.045 17.0188C461.761 18.672 407.245 37.2796 404.396 55.4299C407.702 34.5007 556.654 111.077 559.151 76.5702V76.6054ZM262.619 169.925C262.302 167.427 261.598 157.262 257.589 157.297C248.303 157.403 200.294 312.173 215.277 326.982C282.033 392.9 262.865 180.618 262.619 169.925ZM103.291 44.4201C97.8389 45.5809 -9.82181 111.886 26.2292 124.197C12.3364 119.449 186.226 66.0527 179.965 83.7458C190.341 54.2691 117.957 43.1538 103.291 44.4201ZM433.905 187.97C465.383 185.05 496.968 138.724 457.716 122.227C428.981 110.162 413.822 151.212 406.225 151.81C425.921 150.227 433.483 127.363 445.758 154.94C450.893 166.442 424.549 184.628 433.905 187.934V187.97ZM357.301 364.232C363.139 363.528 409.531 364.373 409.777 351.991C410.129 332.926 305.211 337.112 314.391 362.825C325.4 373.835 339.68 374.292 357.301 364.197V364.232ZM134.171 194.336C169.097 178.578 175.182 132.569 129.845 141.187C93.6887 148.081 97.8741 199.261 134.171 194.336ZM204.128 380.448C204.128 380.131 204.093 379.85 204.058 379.533C212.569 378.513 248.093 379.533 252.032 368.207C258.503 349.529 67.7319 384.036 204.128 380.448ZM353.397 154.166C350.759 92.5748 327.827 145.724 329.902 152.513C339.961 185.859 355.718 193.879 353.397 154.166ZM519.653 111.851C518.247 129.614 523.241 143.157 534.601 152.548C566.889 136.79 526.723 97.2882 519.653 111.851ZM76.7007 162.608C69.7367 176.503 90.699 235.104 113.244 224.2C109.023 226.24 79.9013 169.573 76.7007 162.608ZM53.6631 151.282C38.2227 135.453 28.1285 169.96 47.5081 170.558C52.9597 165.598 54.9997 159.161 53.6631 151.282ZM502.841 156.523C508.012 148.292 507.097 136.473 500.59 129.825C496.827 138.232 497.566 147.166 502.841 156.523ZM464.715 95.1075C462.148 98.3084 462.464 98.9766 465.735 97.1475C465.384 96.4792 465.067 95.7758 464.715 95.1075ZM212.428 154.448H214.328L213.272 152.126L212.393 154.448H212.428Z" fill="black"/>
<path d="M132.061 185.367C85.3883 187.266 129.564 152.337 129.529 152.161C128.931 145.161 171.981 185.472 132.061 185.367Z" fill="black"/>
</svg>
