<svg width="636" height="746" viewBox="0 0 636 746" fill="none" xmlns="http://www.w3.org/2000/svg">
<path d="M243.067 310.924C229.703 302.241 215.529 306.248 201.989 307.022C141.216 310.467 64.2305 277.352 28.1115 229.226C-4.38505 185.916 -7.97238 137.017 13.5513 88.8211C50.6902 5.68213 131.509 -14.3556 200.195 9.30299C240.886 23.2943 272.891 49.8707 298.529 84.1106C305.985 94.0943 312.948 104.465 321.67 116.874C330.287 110.441 337.391 105.906 343.616 100.352C359.653 86.0441 374.812 70.7169 391.236 56.8311C409.875 41.0822 432.278 32.2586 455.209 24.3138C515.63 3.39721 613.049 33.3837 631.97 129.108C636.577 152.345 636.613 177.023 635.135 200.822C633.342 230 615.792 253.096 596.379 273.168C557.587 313.138 510.143 334.793 453.521 332.649C434.564 331.911 415.678 329.45 396.757 327.868C389.407 327.27 382.057 326.989 375.058 326.567C364.577 363.338 369.888 395.785 391.236 424.928C400.134 421.624 409.348 417.721 418.879 414.838C438.363 408.968 454.048 418.214 458.515 438.533C460.097 445.739 459.534 453.438 460.062 462.648C470.754 463.386 480.636 463.667 490.448 464.792C552.136 471.753 585.019 516.223 572.639 576.863C566.414 607.306 552.347 634.375 530.471 656.416C501.632 685.489 468.503 709.323 429.289 722.048C322.479 756.745 217.358 753.125 114.909 704.788C84.1361 690.27 61.628 666.365 42.7069 639.12C31.734 623.336 27.2322 604.67 25.4034 585.405C23.2229 562.625 29.4125 542.588 44.5705 525.749C66.059 501.844 90.4669 482.123 123.104 475.233C131.58 473.44 139.845 470.698 149.481 468.061C148.532 456.636 146.914 446.794 147.019 437.021C147.371 406.12 168.297 392.551 198.05 403.484C202.692 405.206 207.37 406.894 212.434 408.757C228.788 397.086 231.391 378.595 236.842 362.319C242.328 345.937 249.679 329.063 243.067 310.924ZM216.268 569.867C255.2 606.041 295.891 606.427 337.251 598.693C354.202 595.53 374.214 591.733 381.529 565.684C368.516 566.739 357.825 565.086 349.49 568.777C326.278 579.042 305 580.167 281.261 568.777C263.254 560.094 242.68 561.044 216.268 569.867ZM145.12 179.378C148.356 204.935 163.69 214.18 177.968 223.602C197.874 236.749 209.867 233.058 227.205 208.626C204.873 189.045 179.129 180.116 145.12 179.378ZM475.853 191.155C456.44 182.682 441.95 186.69 428.164 192.631C416.171 197.798 401.962 200.787 395.421 215.305C405.901 229.543 419.195 231.652 433.087 228.699C452.536 224.586 465.232 211.72 475.818 191.155H475.853Z" fill="black"/>
</svg>
