<svg width="516" height="408" viewBox="0 0 516 408" fill="none" xmlns="http://www.w3.org/2000/svg">
<path d="M126.234 14.6835C145.754 16.3719 163.059 24.8139 172.028 46.0244C178.042 60.2352 181.313 74.9032 179.449 90.4858C175.65 122.601 142.237 150.213 113.185 145.148C74.3201 138.394 51.3882 107.933 58.2818 72.1947C64.8238 38.1452 91.9414 14.4373 126.234 14.6835Z" fill="black"/>
<path d="M397.018 126.928C367.615 126.541 341.728 97.0643 342.818 65.1956C343.944 32.2366 373.77 4.16695 408.097 3.70967C441.722 3.28757 465.673 26.89 466.06 60.834C466.447 97.205 434.863 127.42 397.018 126.928Z" fill="black"/>
<path d="M207.511 338.717C248.698 309.662 254.465 309.627 294.737 336.536C301.385 334.672 308.454 331.576 315.805 330.838C329.452 329.431 342.254 338.858 344.259 350.465C346.545 363.586 335.361 378.043 320.799 379.379C313.413 380.048 305.817 378.535 297.305 377.972C290.165 384.339 283.201 391.62 275.182 397.53C254.817 412.479 240.714 410.931 221.932 392.359C218.379 388.841 215.46 384.691 211.029 379.379C204.24 381.349 197.347 383.846 190.277 385.289C181.027 387.188 172.481 385.359 166.783 377.093C159.924 367.209 160.803 352.119 168.823 341.636C174.731 333.933 182.575 330.873 192.212 333.898C196.995 335.41 201.778 336.923 207.476 338.717H207.511Z" fill="black"/>
<path d="M260.511 3.1115C264.169 2.2673 267.827 0.825081 271.52 0.649205C285.554 0.051229 295.507 12.1514 290.478 25.2013C288.614 30.0203 281.931 35.9649 277.253 36.1407C264.978 36.5628 252.492 34.769 240.358 32.5178C232.163 31.0053 228.083 24.2164 227.555 15.9503C227.098 8.52834 233.746 1.49345 241.8 1.35275C248.026 1.24722 254.251 2.47835 260.476 3.1115H260.511Z" fill="black"/>
<path d="M46.4594 77.1195C47.0925 90.0287 39.3902 101.496 29.1552 102.903C15.0513 104.873 0.877003 92.9483 0.912175 79.1597C0.912175 67.5871 10.6898 58.16 22.8241 57.9138C36.1894 57.6676 45.9319 65.582 46.4946 77.1195H46.4594Z" fill="black"/>
<path d="M282.216 281.346C268.78 280.361 261.394 269.774 263.188 254.086C264.524 242.056 272.579 233.895 282.321 234.704C296.46 235.865 305.183 246.171 304.057 260.347C302.967 273.749 294.174 282.226 282.251 281.346H282.216Z" fill="black"/>
<path d="M515.863 65.3362C516.671 79.2655 507.069 91.9636 495.709 91.9987C485.65 91.9987 476.751 81.587 475.907 68.7833C475.098 56.6479 483.891 47.2208 496.096 47.1153C506.612 47.0098 515.229 54.9595 515.827 65.3362H515.863Z" fill="black"/>
<path d="M225.309 238.89C237.162 239.348 244.97 248.212 245.111 261.402C245.287 275.156 236.881 284.337 225.38 282.894C212.999 281.382 205.086 272.658 204.875 260.417C204.664 247.684 213.456 238.398 225.274 238.89H225.309Z" fill="black"/>
</svg>
