<svg width="556" height="579" viewBox="0 0 556 579" fill="none" xmlns="http://www.w3.org/2000/svg">
<path d="M556 532.832C546.41 539.047 539.217 544.438 531.313 548.519C526.93 550.765 521.423 551.327 516.366 551.739C441.556 558.029 366.746 564.955 291.823 570.009C253.238 572.63 214.391 571.469 175.693 572.667C133.999 573.978 92.3419 576.037 50.685 577.946C35.7754 578.62 32.7036 576.299 33.8274 561.96C39.5964 488.541 35.5881 415.609 26.5599 342.602C20.5286 293.743 18.9553 244.323 14.6848 195.24C10.4891 146.943 5.35693 98.721 0.674275 50.4615C0.374585 47.5038 0.262229 44.5461 0 40.6524C2.69721 39.1922 5.13199 36.8334 7.75428 36.5714C43.9044 32.6777 79.9797 28.3347 116.242 25.5641C154.003 22.6813 191.914 21.4459 229.712 19.3493C277.363 16.6911 325.014 14.4073 372.59 10.9254C401.322 8.82879 429.868 4.41089 458.563 1.75269C472.836 0.442304 487.333 -0.643432 501.531 0.592071C517.64 1.97733 520.262 6.13325 520.936 22.4943C523.783 92.2066 525.731 161.956 529.665 231.594C532.362 279.254 537.682 326.765 542.027 374.351C546.298 421.15 550.793 467.949 555.101 514.749C555.663 520.739 555.663 526.767 555.962 532.907L556 532.832ZM532.137 527.516C528.728 489.028 525.769 453.048 522.285 417.106C521.198 406.024 511.721 405.276 503.442 404.789C493.702 404.227 483.85 404.489 474.072 405.126C454.742 406.324 435.412 408.009 415.595 409.506C412.224 449.155 416.981 485.958 420.54 522.761C421.551 533.431 429.006 535.752 438.596 534.966C468.678 532.42 498.797 530.136 532.137 527.516ZM152.093 420.738C121.524 424.669 93.9154 427.814 66.4937 432.007C58.2897 433.28 57.8775 440.768 57.9525 448.256C58.3271 475.549 57.84 502.88 58.1022 530.211C58.1771 537.624 59.7506 545.037 60.7996 553.723C90.0943 553.723 118.04 554.697 145.874 553.311C160.447 552.6 162.994 547.321 162.394 532.046C162.207 527.515 162.207 522.948 161.758 518.418C158.686 486.856 155.539 455.332 152.093 420.738ZM508.574 250.463C506.888 216.281 505.577 184.757 503.554 153.27C502.955 143.873 497.261 138.182 487.034 138.407C464.37 138.894 441.593 138.294 419.042 140.017C401.098 141.402 392.032 153.57 393.306 170.83C394.804 191.159 396.527 211.451 398.138 231.781C399.899 253.72 406.567 259.411 428.107 257.726C445.377 256.379 462.684 255.48 479.954 254.057C488.12 253.384 496.212 252.036 508.537 250.463H508.574ZM509.211 275.173C475.833 276.596 446.501 277.757 417.131 279.179C406.492 279.704 402.709 286.892 403.158 296.214C404.357 320.363 406.08 344.511 407.578 368.66C408.253 379.517 413.085 385.133 424.848 384.609C448.973 383.486 473.098 383.224 497.223 382.288C503.704 382.026 510.147 380.79 519.475 379.667C516.029 344.923 512.807 312.313 509.173 275.136L509.211 275.173ZM273.092 151.211C273.092 175.023 272.943 194.491 273.13 213.96C273.242 226.801 273.692 239.643 274.254 252.448C274.666 261.957 280.36 265.739 289.351 265.065C313.438 263.23 337.488 260.834 361.613 259.636C373.301 259.037 378.433 253.795 377.684 242.826C376.111 220.25 374.725 197.636 371.99 175.172C369.967 158.4 356.331 146.082 339.811 146.494C317.372 147.093 294.97 149.564 273.092 151.211ZM160.409 270.119C188.692 276.072 214.803 268.322 241.101 267.498C249.267 267.236 252.489 260.871 252.189 253.046C251.103 224.368 250.129 195.727 248.705 167.086C248.256 158.138 243.236 153.383 233.646 154.356C218.549 155.891 203.415 156.677 188.393 158.624C161.121 162.106 147.897 180.002 151.343 207.558C153.029 221.073 154.228 234.626 156.064 248.104C157.038 255.405 158.873 262.556 160.409 270.156V270.119ZM34.4642 174.836C37.5735 210.665 40.1584 242.077 43.1927 273.451C43.867 280.377 48.9244 284.121 55.9671 283.635C78.5563 282.025 101.108 280.377 123.659 278.206C130.852 277.495 137.37 273.863 136.471 265.289C134.036 242.002 132.388 218.49 127.668 195.652C124.559 180.751 111.41 169.856 96.9495 169.032C77.7694 167.947 58.2895 172.364 34.4642 174.873V174.836ZM137.445 298.161C110.885 300.258 86.7976 301.718 62.8224 304.189C47.688 305.724 45.6278 308.981 47.0513 325.08C48.7746 344.661 50.5726 364.204 52.8578 383.71C53.7943 391.685 56.1544 399.51 58.2147 409.057C89.1952 405.538 118.078 402.243 148.983 398.724C148.272 364.579 144.338 332.83 137.408 298.161H137.445ZM305.122 546.984C335.128 544.625 361.314 543.053 387.349 540.02C391.433 539.534 397.726 532.457 397.801 528.302C397.988 516.358 396.34 504.19 393.643 492.509C392.781 488.69 386.787 483.861 382.667 483.374C355.62 480.042 328.985 484.123 299.278 487.231C301.263 507.71 302.987 525.381 305.122 546.984ZM277.401 547.696C281.297 527.104 278.637 509.058 271.781 489.29C242.637 490.525 214.204 491.761 186.145 492.959C179.14 511.941 186.22 527.253 188.393 542.603C188.805 545.599 194.836 549.942 198.282 549.979C224.543 550.204 250.99 552.263 277.401 547.696ZM295.307 462.67C311.453 462.67 324.901 463.044 338.35 462.558C351.948 462.071 365.509 460.386 379.108 459.75C390.309 459.263 394.879 452.15 392.182 443.202C388.661 431.521 398.138 410.816 378.658 409.581C350.562 407.784 321.755 407.148 290.699 413.887C292.235 430.285 293.696 445.598 295.307 462.633V462.67ZM266.05 414.298C234.844 415.122 206.037 413.362 176.218 422.498C177.454 438.11 178.54 452.038 179.777 467.612C210.832 469.372 239.714 469.559 271.856 463.794C269.983 447.919 268.297 433.43 266.05 414.261V414.298ZM403.42 32.3409C432.041 58.9604 459.537 85.093 499.621 94.9021V22.4568C465.231 16.6912 434.588 21.3337 403.42 32.3409ZM143.964 55.3661C134.074 77.1184 140.18 94.378 141.941 111.076C143.102 122.233 169.25 139.979 180.338 139.081C197.683 137.695 214.99 135.674 232.222 133.203C235.856 132.679 239.04 129.01 244.997 125.153C210.57 101.379 178.465 79.1776 144.001 55.3661H143.964ZM112.534 44.0967C82.4896 39.7163 57.1284 46.8673 31.8046 53.232C28.4331 54.0931 23.6755 59.4843 23.8628 62.5544C24.8743 83.1461 26.2227 103.85 32.3664 128.523C61.5861 99.8066 88.7456 75.808 112.534 44.0967ZM256.123 386.443C224.693 359.674 197.159 336.237 169.662 312.8C167.939 313.624 166.216 314.485 164.53 315.308C164.942 341.666 168.351 367.649 175.955 395.354C201.392 394.98 225.891 396.178 256.16 386.443H256.123ZM364.685 285.544C336.14 285.544 312.951 285.17 289.763 285.731C279.948 285.956 277.738 293.631 278.262 301.905C279.124 315.458 280.21 328.974 281.708 342.452C282.533 350.052 284.406 357.54 286.691 369.933C314.113 340.281 337.9 314.56 364.685 285.581V285.544ZM383.154 385.245C387.012 355.818 383.266 321.449 374.837 307.259C351.724 333.542 323.778 354.77 304.073 388.915C333.293 387.567 357.905 386.406 383.154 385.245ZM281.596 126.688C312.764 127.624 339.436 130.657 359.066 105.535C369.181 92.581 370.192 73.0375 360.003 51.1729C333.068 73.8986 304.56 93.9287 281.596 126.688ZM163.818 40.6149C163.219 42.5992 162.582 44.5836 161.982 46.6053C187.981 64.0147 213.941 81.3866 242.262 100.368C249.717 79.7392 245.072 62.4422 244.884 45.5944C244.884 42.9362 238.666 38.1439 235.219 38.069C211.356 37.4326 187.381 35.8601 163.818 40.6898V40.6149ZM42.4059 147.767C77.3948 154.393 100.846 149.189 113.283 132.679C126.656 114.895 120.7 96.0254 115.755 72.9252C88.4459 97.2609 65.07 119.949 42.4434 147.804L42.4059 147.767ZM476.507 115.943C476.732 114.221 476.957 112.499 477.144 110.814C448.861 91.7572 420.577 72.6631 389.634 51.8093C389.634 67.6836 388.136 80.2633 390.047 92.3188C391.92 104.187 401.285 113.247 412.636 115.419C433.726 119.462 455.304 119.837 476.47 115.943H476.507ZM341.047 35.0364C319.282 35.0364 299.915 34.5496 280.622 35.4107C276.352 35.5979 269.534 40.0533 268.635 43.685C264.027 62.4421 264.963 81.2368 270.208 103.888C294.67 81.6861 315.761 62.5918 336.702 43.3479C338.163 42.0001 338.687 39.604 341.01 34.9615L341.047 35.0364ZM185.208 297.225C206.374 322.31 230.536 340.618 259.082 359.637C258.108 338.484 257.396 322.16 256.61 305.836C256.235 297.712 253.912 289.587 244.51 289.775C225.479 290.149 205.737 287.004 185.208 297.225Z" fill="black"/>
</svg>
