<svg width="693" height="601" viewBox="0 0 693 601" fill="none" xmlns="http://www.w3.org/2000/svg">
<path d="M315.732 432.886C317.78 430.38 319.316 428.494 321.714 425.557C317.672 422.566 313.415 419.414 309.131 416.261C346.907 378.485 379.645 402.412 424.453 389.613C433.237 398.397 441.078 406.238 448.892 414.052C427.822 429.788 414.43 456.678 382.258 457.891C384.71 460.989 386.138 462.822 387.701 464.815C385.761 468.291 383.12 471.121 379.725 473.33C375.307 469.8 374.552 464.762 377.408 458.268C353.805 458.16 335.429 445.011 315.705 432.913L315.732 432.886ZM394.976 420.384L391.015 423.806C381.234 416.342 371.454 408.879 361.888 401.577H340.036C340.898 402.627 341.788 403.651 342.65 404.702C337.261 407.963 331.872 411.223 329.043 412.92C332.222 437.952 353.859 436.82 367.358 447.275C377.597 433.29 387.216 444.122 394.491 446.062C402.817 440.431 409.365 435.985 417.178 430.677V412.678C420.735 414.483 423.268 415.749 426.636 417.474C430.462 400.283 412.975 403.463 407.748 395.945C401.173 400.202 394.599 404.487 388.887 408.205C391.258 412.947 393.117 416.666 394.949 420.411L394.976 420.384Z" fill="black"/>
<path d="M505.475 163.627V198.224C499.844 201.942 493.323 206.253 486.83 210.591C472.091 212.962 458.376 211.453 446.44 199.625C444.661 193.886 442.614 187.365 440.135 179.443C452.664 151.664 479.635 137.383 505.475 163.654V163.627ZM461.61 172.734C461.259 172.384 460.882 172.007 460.532 171.656C459.023 172.95 457.487 174.243 455.978 175.536L457.73 177.288C459.023 175.779 460.316 174.243 460.451 171.71C460.801 172.061 461.178 172.438 461.529 172.788C463.038 171.495 464.573 170.201 466.082 168.908C465.49 168.315 464.897 167.722 464.331 167.157C463.038 168.666 461.744 170.201 461.61 172.734ZM460.532 195.125C460.882 194.775 461.259 194.398 461.61 194.047C460.316 192.538 459.023 191.003 457.73 189.494L455.978 191.245C457.487 192.538 459.023 193.832 459.616 195.233C464.304 202.104 479.959 202.966 482.465 195.233C475.001 195.233 468.022 195.233 460.532 195.152V195.125ZM499.224 180.171C495.64 174.324 491.599 167.696 487.288 160.636C481.791 161.337 477.157 161.929 470.852 162.738C478.18 167.103 483.408 170.228 487.988 172.977C488.797 180.952 489.497 187.715 490.467 197.227C494.266 189.79 496.664 185.156 499.197 180.198L499.224 180.171Z" fill="black"/>
<path d="M209.842 210.028V191.76C216.335 185.293 222.883 178.773 229.484 172.252H262.976C267.368 176.779 271.895 181.413 278.038 187.745C276.233 197.418 274.131 208.6 271.922 220.51C261.279 224.47 250.905 228.35 238.511 232.958C229.808 226.006 219.488 217.734 209.896 210.055L209.842 210.028ZM231.586 188.473C231.936 188.823 232.314 189.2 232.664 189.55C234.173 188.257 235.709 186.964 237.217 185.67C236.625 185.078 236.032 184.485 235.466 183.919C234.173 185.428 232.879 186.964 232.152 188.985C230.293 190.844 228.434 192.703 226.574 194.562C224.715 195.963 222.856 197.364 220.997 198.792C222.856 201.11 224.715 203.427 226.547 207.98C226.655 209.166 226.925 212.561 227.302 216.899C237.972 217.438 248.561 216.899 259.096 215.202C259.016 214.42 258.908 213.639 258.827 212.884C247.995 211.241 237.164 209.597 226.574 205.744V194.589C228.434 192.73 230.293 190.871 231.559 188.5L231.586 188.473ZM240.99 176.94C243.927 183.973 248.426 185.239 254.516 180.793C251.148 179.823 247.78 178.88 254.166 183.38C257.156 188.931 260.093 194.346 266.156 205.609C265.186 193.915 264.728 188.58 264.297 183.38C259.77 183.38 257.129 183.38 240.963 176.94H240.99Z" fill="black"/>
<path d="M366.602 345.423C359.812 347.794 353.373 350.031 344.589 353.102C344.212 345.639 343.942 340.627 343.727 336.1C355.609 331.412 362.399 335.023 366.602 345.45V345.423Z" fill="black"/>
<path d="M386.893 334.377C395.191 331.386 401.416 329.177 409.957 326.078C410.361 333.623 410.658 338.553 410.9 342.999C401.038 347.822 394.464 344.912 386.893 334.377Z" fill="black"/>
<path d="M363.316 116.314C365.229 114.563 367.169 112.784 369.81 110.413C372.666 121.649 375.361 132.184 379.16 147.138C371.651 139.325 366.37 129.05 363.316 116.314Z" fill="black"/>
<path d="M597.896 98.7979C602.207 101.169 606.545 103.54 611.314 106.154C608.431 112.001 605.925 117.039 603.258 122.428C600.536 121.782 598.003 121.189 594.635 120.38C596.953 117.659 598.542 115.746 599.997 114.048C597.976 110.465 595.929 106.827 593.881 103.217C595.228 101.762 596.575 100.28 597.923 98.8248L597.896 98.7979Z" fill="black"/>
<path d="M381.395 166.645H372.18C368.084 162.011 365.39 158.966 363.1 156.406H383.308C382.5 160.663 381.934 163.762 381.395 166.645Z" fill="black"/>
<path d="M422.946 1.47611C421.922 0.0749972 424.697 3.84723 428.82 9.45169H406.348C405.755 8.61641 405.136 7.78113 404.543 6.94585C408.827 5.67946 413.084 4.41307 422.946 1.47611Z" fill="black"/>
<path d="M372.477 7.29592C367.411 8.50843 362.345 9.72093 356.418 11.122C355.609 7.1612 355.097 4.65536 354.289 0.640625H371.722C371.965 2.85008 372.234 5.08647 372.477 7.29592Z" fill="black"/>
<path d="M640.439 182.005C645.182 177.101 649.628 172.493 654.585 167.374C656.04 169.125 658.304 171.793 660.89 174.865C656.849 183.568 649.816 185.4 640.439 182.005Z" fill="black"/>
<path d="M0.507812 244.786C6.05839 239.236 7.97146 237.322 11.7167 233.577C13.064 241.768 28.5032 234.197 24.7849 249.771C17.4559 244.678 9.37256 243.008 0.507812 244.786Z" fill="black"/>
<path d="M530.722 51.0009C523.986 48.3603 517.223 45.6928 509.221 42.5673C521.13 33.2175 527.381 39.792 530.722 51.0009Z" fill="black"/>
<path d="M281.379 415.749C284.397 408.851 287.118 402.708 291.079 393.682C292.857 398.02 294.178 401.28 294.663 402.466C291.645 405.483 286.956 410.172 281.379 415.749Z" fill="black"/>
<path d="M673.742 373.634C668.192 372.799 665.093 372.341 659.785 371.532C663.45 365.524 666.063 361.293 670.833 353.479C672.072 362.021 672.772 366.898 673.742 373.607V373.634Z" fill="black"/>
<path d="M366.062 346.878C369.458 344.13 372.017 342.055 376.14 338.741C376.652 344.373 377.083 349.169 377.649 355.339C373.93 355.743 370.886 356.067 366.817 356.498C366.467 351.944 366.197 348.63 366.062 346.878Z" fill="black"/>
<path d="M14.0073 325.323V345.801C9.61532 344.723 6.22028 343.888 -0.00390625 342.325C5.11555 336.101 8.2681 332.275 14.0073 325.296V325.323Z" fill="black"/>
<path d="M331.681 319.178C325.08 321.522 331.088 338.308 317.805 333.243C323.544 320.741 324.11 320.094 331.681 319.178Z" fill="black"/>
<path d="M680.131 309.291C685.008 315.488 688.133 319.476 692.606 325.134C687.568 327.101 684.684 328.233 680.131 329.984V309.264V309.291Z" fill="black"/>
<path d="M689.398 268.686V291.238C684.359 286.469 681.18 283.451 676.303 278.844C680.264 275.772 683.093 273.589 689.398 268.686Z" fill="black"/>
<path d="M673.584 254.053V233.198C677.868 234.141 681.29 234.896 687.568 236.297C682.557 242.656 679.431 246.644 673.584 254.053Z" fill="black"/>
<path d="M264.082 21.0111H241.529C246.298 15.9724 249.235 12.8738 253.924 7.91602C256.995 11.8769 259.178 14.706 264.082 21.0111Z" fill="black"/>
<path d="M301.373 18.5863C300.187 13.1166 299.513 10.0449 298.57 5.76074H318.563C311.558 10.988 307.354 14.1405 301.373 18.5863Z" fill="black"/>
<path d="M282.402 594.984V586.9C285.232 586.308 288.303 585.661 292.21 584.853C292.938 588.49 293.45 590.969 294.258 594.984H282.402Z" fill="black"/>
<path d="M394.466 595.739C389.939 595.954 387.488 596.089 383.877 596.251C386.167 590.619 388.188 585.688 391.745 576.985C392.957 585.338 393.658 590.188 394.439 595.766L394.466 595.739Z" fill="black"/>
<path d="M248.91 575.583V583.666C246.081 584.259 243.009 584.906 239.102 585.714C238.375 582.077 237.863 579.598 237.055 575.583H248.91Z" fill="black"/>
<path d="M198.688 572.647V564.563C201.517 563.971 204.588 563.324 208.495 562.516C209.223 566.153 209.735 568.632 210.543 572.647H198.688Z" fill="black"/>
<path d="M191.623 110.818H183.54C182.947 107.988 182.301 104.917 181.492 101.01C185.13 100.282 187.609 99.7703 191.623 98.9619V110.818Z" fill="black"/>
<path d="M160.669 555.645C159.807 554.783 157.274 552.25 153.098 548.074C159.537 547.238 164.522 546.565 169.534 545.918C170.234 547.211 170.908 548.505 171.609 549.798C167.971 551.738 164.334 553.705 160.696 555.645H160.669Z" fill="black"/>
<path d="M494.591 83.3867H504.534C505.073 86.2159 505.558 88.7217 506.097 91.6048C498.687 95.9429 494.079 95.8351 494.564 83.3867H494.591Z" fill="black"/>
<path d="M517.384 92.6036C524.147 87.08 527.219 84.5742 531.88 80.748C532.958 86.0831 533.47 88.562 534.279 92.6036H517.357H517.384Z" fill="black"/>
<path d="M546.217 88.4785H554.3C554.893 91.3077 555.54 94.3794 556.348 98.2863C552.71 99.0138 550.232 99.5258 546.217 100.334V88.4785Z" fill="black"/>
<path d="M582.994 509.409C585.5 506.337 588.005 503.265 592.721 497.499C594.014 504.451 594.607 507.576 595.334 511.429C591.67 512.13 589.191 512.615 586.685 513.073C585.446 511.86 584.206 510.621 582.967 509.409H582.994Z" fill="black"/>
<path d="M574.131 99.6621H582.214C582.807 102.491 583.454 105.563 584.262 109.47C580.625 110.197 578.146 110.709 574.131 111.518V99.6621Z" fill="black"/>
<path d="M406.048 113.673C403.354 118.496 400.659 123.319 397.641 128.708C388.938 118.738 398.989 115.882 406.048 113.673Z" fill="black"/>
<path d="M148.382 127.092H138.44C137.901 124.263 137.416 121.757 136.877 118.874C144.287 114.536 148.894 114.643 148.409 127.092H148.382Z" fill="black"/>
<path d="M387.998 483.998V494.83C385.169 495.369 382.663 495.854 378.918 496.554C378.271 493.078 377.679 489.953 376.951 486.1C380.616 485.399 383.095 484.914 387.971 483.998H387.998Z" fill="black"/>
<path d="M239.906 128.87C248.124 128.196 253.082 127.792 259.091 127.28V138.166C253.298 135.364 248.286 132.912 239.906 128.87Z" fill="black"/>
<path d="M639.66 159.588V151.505C642.489 150.912 645.561 150.265 649.468 149.457C650.195 153.095 650.707 155.573 651.516 159.588H639.66Z" fill="black"/>
<path d="M611.261 189.037V198.98C608.431 199.519 605.926 200.004 603.043 200.543C598.731 193.133 598.812 188.525 611.261 189.01V189.037Z" fill="black"/>
<path d="M265.668 405.212V397.129C268.497 396.536 271.569 395.889 275.476 395.081C276.203 398.719 276.715 401.197 277.524 405.212H265.668Z" fill="black"/>
<path d="M466.835 401.306C463.251 401.037 459.91 400.768 456.219 400.471C455.949 397.13 455.733 394.705 455.41 390.987C458.778 390.609 461.85 390.286 465.919 389.828C466.269 394.382 466.538 397.723 466.808 401.306H466.835Z" fill="black"/>
<path d="M453.176 227.19C456.248 229.696 459.32 232.202 465.086 236.917C458.134 238.211 455.008 238.804 451.155 239.531C450.455 235.867 449.97 233.388 449.512 230.882L453.176 227.19Z" fill="black"/>
<path d="M308.055 355.582C311.127 358.088 314.198 360.594 319.965 365.309C313.013 366.602 309.887 367.195 306.034 367.923C305.334 364.258 304.849 361.779 304.391 359.273C305.603 358.034 306.843 356.795 308.055 355.582Z" fill="black"/>
<path d="M205.715 289.971C211.238 296.734 213.744 299.806 217.57 304.467C212.235 305.545 209.757 306.057 205.715 306.865V289.944V289.971Z" fill="black"/>
<path d="M503.08 265.479C505.774 269.817 507.93 273.239 510.49 277.361C503.376 278.6 496.721 280.325 503.08 265.479Z" fill="black"/>
<path d="M492.46 310.53C489.658 302.743 488.203 298.648 487.529 296.789C491.427 295.855 493.071 300.435 492.46 310.53Z" fill="black"/>
<path d="M17.4299 302.798C11.3135 305.789 7.59515 307.594 5.30487 308.726C4.33487 304.055 8.37655 302.079 17.4299 302.798Z" fill="black"/>
<path d="M234.466 318.963C237.215 320.687 240.664 322.843 246.241 326.319C237.224 327.037 233.299 324.585 234.466 318.963Z" fill="black"/>
<path d="M488.5 325.106V333.136H478.881L476.914 330.468C480.74 328.69 484.539 326.939 488.5 325.106Z" fill="black"/>
<path d="M144.471 270.41C146.195 267.661 148.351 264.212 151.827 258.635C152.545 267.652 150.093 271.577 144.471 270.41Z" fill="black"/>
<path d="M257.477 257.34C256.076 260.331 254.324 264.157 250.875 271.593C249.501 263.645 249.07 261.193 248.396 257.34H257.504H257.477Z" fill="black"/>
<path d="M417.988 342.97C419.713 340.222 421.841 336.773 425.344 331.195C426.063 340.213 423.611 344.138 417.988 342.97Z" fill="black"/>
<path d="M527.568 244.005V253.166C524.604 251.199 521.182 248.936 516.736 245.999C520.239 245.352 522.718 244.894 527.568 244.005Z" fill="black"/>
<path d="M258.695 353.829C255.704 352.428 251.878 350.677 244.414 347.228C252.363 345.854 254.815 345.423 258.695 344.749V353.856V353.829Z" fill="black"/>
<path d="M327.508 354.26V346.23H337.127L339.094 348.898C335.268 350.676 331.469 352.428 327.508 354.26Z" fill="black"/>
<path d="M548.722 230.343C546.998 233.092 544.869 236.541 541.366 242.118C540.648 233.101 543.1 229.176 548.722 230.343Z" fill="black"/>
<path d="M439.945 376.68C447.732 373.878 451.828 372.423 453.687 371.749C454.621 375.647 450.041 377.291 439.945 376.68Z" fill="black"/>
<path d="M16.7025 375.089C18.6425 377.433 21.1753 380.532 22.8458 382.579C17.6186 382.993 15.5708 380.496 16.7025 375.089Z" fill="black"/>
<path d="M26.1055 232.255V223.391H42.5685C34.0002 228.025 30.3627 229.965 26.1055 232.255Z" fill="black"/>
<path d="M518.463 225.761C520.187 223.013 522.343 219.564 525.819 213.986C526.537 223.004 524.085 226.929 518.463 225.761Z" fill="black"/>
<path d="M676.657 215.63C673.855 207.843 672.4 203.747 671.727 201.888C675.625 200.954 677.268 205.535 676.657 215.63Z" fill="black"/>
<path d="M15.9731 212.695C15.084 207.98 14.599 205.528 13.8984 201.864C17.2934 201.163 20.3382 200.516 29.7418 198.522C22.9249 205.555 20.1227 208.438 15.9462 212.695H15.9731Z" fill="black"/>
<path d="M585.905 190.224C588.708 198.011 590.163 202.106 590.836 203.965C586.938 204.899 585.295 200.319 585.905 190.224Z" fill="black"/>
<path d="M661.539 394.73V403.892C658.575 401.925 655.153 399.661 650.707 396.724C654.21 396.078 656.689 395.62 661.539 394.73Z" fill="black"/>
<path d="M466.811 406.668C466.568 409.956 466.326 413.27 466.002 417.716C462.096 417.446 459.078 417.258 455.359 417.015C458.727 411.788 461.287 407.827 463.847 403.866C464.844 404.809 465.814 405.725 466.811 406.668Z" fill="black"/>
<path d="M40.2228 422.971H32.1934V413.352C33.0825 412.705 33.9717 412.031 34.8608 411.385C36.6392 415.211 38.3905 419.01 40.2228 422.971Z" fill="black"/>
<path d="M50.1927 190.897C52.1327 193.242 54.6655 196.34 56.3361 198.388C51.1088 198.801 49.0611 196.304 50.1927 190.897Z" fill="black"/>
<path d="M71.774 179.202C70.8848 174.487 70.3998 172.035 69.6992 168.37C73.0942 167.67 76.139 167.023 85.5426 165.029C78.7256 172.062 75.9235 174.945 71.774 179.202Z" fill="black"/>
<path d="M30.4453 161.5H39.6065C37.6396 164.464 35.3762 167.886 32.4393 172.332C31.7926 168.829 31.3345 166.35 30.4453 161.5Z" fill="black"/>
<path d="M270.332 418.794V433.613C269.362 433.694 268.392 433.802 267.422 433.883C266.722 428.952 266.048 424.021 265.348 419.09C267.018 418.983 268.662 418.902 270.332 418.794Z" fill="black"/>
<path d="M304.281 149.104V158.265C301.317 156.298 297.895 154.034 293.449 151.097C296.952 150.451 299.431 149.993 304.281 149.104Z" fill="black"/>
<path d="M555.483 129.731V137.761H545.863C545.217 136.872 544.543 135.983 543.896 135.093C547.723 133.315 551.522 131.564 555.483 129.731Z" fill="black"/>
<path d="M649.573 436.629C641.786 439.431 637.691 440.886 635.832 441.56C634.897 437.662 639.478 436.018 649.573 436.629Z" fill="black"/>
<path d="M52.0558 126.175C52.945 130.89 53.4299 133.342 54.1305 137.007C50.7355 137.707 47.6908 138.354 38.2871 140.348C45.1041 133.315 47.9063 130.432 52.0558 126.175Z" fill="black"/>
<path d="M58.6813 444.957V454.118C55.7174 452.151 52.2955 449.888 47.8496 446.951C51.3524 446.304 53.8313 445.846 58.6813 444.957Z" fill="black"/>
<path d="M507.064 451.802H515.929V468.265C511.295 459.697 509.355 456.059 507.064 451.802Z" fill="black"/>
<path d="M612.23 477.856V468.991H628.694C620.098 473.626 616.488 475.566 612.23 477.856Z" fill="black"/>
<path d="M547.048 480.846C549.797 482.57 553.246 484.699 558.823 488.202C549.806 488.92 545.881 486.468 547.048 480.846Z" fill="black"/>
<path d="M348.009 127.092H339.145V110.629C343.779 119.197 345.719 122.835 348.009 127.092Z" fill="black"/>
<path d="M469.21 123.617C466.516 119.279 464.36 115.857 461.773 111.734C468.887 110.495 475.542 108.77 469.21 123.617Z" fill="black"/>
<path d="M576.88 501.082H568.016V484.619C572.65 493.188 574.59 496.825 576.88 501.082Z" fill="black"/>
<path d="M97.7496 500.786V509.947C94.7857 507.98 91.3638 505.717 86.918 502.78C90.4208 502.133 92.8996 501.675 97.7496 500.786Z" fill="black"/>
<path d="M512.668 107.824C515.659 109.225 519.485 110.976 526.922 114.425C518.973 115.799 516.521 116.231 512.668 116.904V107.797V107.824Z" fill="black"/>
<path d="M431.513 101.952C429.789 104.7 427.66 108.149 424.157 113.727C423.439 104.709 425.891 100.784 431.513 101.952Z" fill="black"/>
<path d="M277.311 103.864V94.999H293.774C285.178 99.6335 281.568 101.573 277.311 103.864Z" fill="black"/>
<path d="M546.16 537.645C549.151 539.046 552.977 540.798 560.414 544.247C552.465 545.621 550.013 546.052 546.16 546.725V537.618V537.645Z" fill="black"/>
<path d="M562.568 72.7168H577.388C577.469 73.6868 577.55 74.6568 577.63 75.6268C572.619 76.3004 567.634 76.974 562.622 77.6477L562.568 72.7168Z" fill="black"/>
<path d="M361.002 80.7463V72.7168H370.621C371.268 73.606 371.941 74.4951 372.588 75.3843C368.762 77.1626 364.963 78.914 361.002 80.7463Z" fill="black"/>
<path d="M97.5645 73.9307C101.66 72.4757 105.756 70.9938 109.124 69.7812C112.465 75.8707 107.426 76.9485 97.5645 73.9307Z" fill="black"/>
<path d="M496.72 574.749C495.265 570.653 493.783 566.557 492.57 563.189C498.66 559.848 499.738 564.887 496.72 574.749Z" fill="black"/>
<path d="M341.519 600.425C338.771 598.701 335.322 596.572 329.744 593.069C338.762 592.351 342.686 594.803 341.519 600.425Z" fill="black"/>
<path d="M150.077 46.8236C145.739 49.5181 142.317 51.6736 138.194 54.2603C136.955 47.1469 135.23 40.4916 150.077 46.8236Z" fill="black"/>
<path d="M203.48 21.9551H212.642C210.675 24.919 208.411 28.3409 205.474 32.7868C204.828 29.284 204.37 26.8051 203.48 21.9551Z" fill="black"/>
<path d="M483.354 20.1225H466.621V17.3203H483.354V20.1225Z" fill="black"/>
<path d="M389.855 568.551V557.396H392.658V568.551H389.855Z" fill="black"/>
<path d="M130.811 528.512H121.542L121.111 525.844C124.129 525.117 127.174 524.389 130.192 523.688C130.38 525.305 130.596 526.895 130.784 528.512H130.811Z" fill="black"/>
<path d="M383.85 523.013V513.744C384.739 513.609 385.628 513.447 386.517 513.312L388.7 522.447L383.877 523.013H383.85Z" fill="black"/>
<path d="M238.697 500.679V491.41C239.586 491.275 240.476 491.113 241.365 490.979L243.547 500.113L238.724 500.679H238.697Z" fill="black"/>
<path d="M539.184 472.25H528.029V469.448H539.184V472.25Z" fill="black"/>
<path d="M255.459 478.206V468.937C256.375 468.802 257.291 468.694 258.207 468.56C258.881 471.658 259.555 474.784 260.228 477.882C258.638 477.99 257.049 478.098 255.459 478.179V478.206Z" fill="black"/>
<path d="M264.701 446.763V456.032C263.785 456.166 262.869 456.274 261.952 456.409C261.279 453.31 260.605 450.185 259.932 447.086C261.521 446.978 263.111 446.87 264.701 446.79V446.763Z" fill="black"/>
<path d="M495.398 435.526H504.667C504.802 436.416 504.964 437.305 505.098 438.194C502.081 438.921 499.036 439.649 496.018 440.349C495.829 438.733 495.614 437.143 495.425 435.526H495.398Z" fill="black"/>
<path d="M300.049 424.37H309.318C309.452 425.259 309.614 426.148 309.749 427.038C306.731 427.765 303.686 428.493 300.668 429.193C300.48 427.577 300.264 425.987 300.076 424.37H300.049Z" fill="black"/>
<path d="M287.035 424.425V433.694C286.119 433.828 285.203 433.936 284.286 434.071C283.613 430.972 282.939 427.847 282.266 424.748C283.855 424.64 285.445 424.533 287.035 424.452V424.425Z" fill="black"/>
<path d="M484.324 416.935V407.666C485.213 407.532 486.103 407.37 486.965 407.235C487.692 410.28 488.42 413.325 489.147 416.37L484.324 416.935Z" fill="black"/>
<path d="M270.356 377.811H261.087C260.953 376.922 260.791 376.033 260.656 375.144C263.674 374.416 266.719 373.689 269.737 372.988C269.925 374.605 270.141 376.195 270.329 377.811H270.356Z" fill="black"/>
<path d="M482.411 351.727V360.995C481.522 361.13 480.633 361.292 479.77 361.427C479.043 358.382 478.315 355.337 477.588 352.292L482.411 351.727Z" fill="black"/>
<path d="M448.999 355.474H439.73C439.595 354.585 439.434 353.696 439.299 352.807C442.317 352.079 445.361 351.352 448.379 350.651C448.568 352.268 448.783 353.858 448.972 355.474H448.999Z" fill="black"/>
<path d="M316.863 349.95V340.681C317.752 340.546 318.642 340.385 319.504 340.25C320.231 343.295 320.959 346.34 321.686 349.384L316.863 349.95Z" fill="black"/>
<path d="M437.306 328.53V339.685H434.504V328.53H437.306Z" fill="black"/>
<path d="M432.103 321.982H422.834C422.699 321.066 422.592 320.149 422.457 319.233L431.888 317.186C431.968 318.775 432.022 320.392 432.103 321.982Z" fill="black"/>
<path d="M350.273 33.6221H359.542C359.677 34.5112 359.839 35.4004 359.973 36.2896C356.956 37.0171 353.911 37.7446 350.893 38.4451C350.705 36.8285 350.489 35.2387 350.3 33.6221H350.273Z" fill="black"/>
<path d="M355.932 59.7039V50.435C356.821 50.3003 357.71 50.1386 358.599 50.0039C359.327 53.0486 360.054 56.0934 360.782 59.1381C359.165 59.3267 357.548 59.5153 355.959 59.7039H355.932Z" fill="black"/>
<path d="M130.811 59.6209H121.542C121.408 58.7318 121.246 57.8426 121.111 56.9534C124.129 56.2259 127.174 55.4984 130.192 54.7979C130.38 56.4145 130.596 58.0043 130.784 59.6209H130.811Z" fill="black"/>
<path d="M422.922 299.59V290.322C423.838 290.187 424.754 290.079 425.67 289.944C426.344 293.043 427.017 296.169 427.691 299.267C426.101 299.375 424.512 299.483 422.922 299.564V299.59Z" fill="black"/>
<path d="M82.418 93.0592V83.7903C83.3341 83.6556 84.2502 83.5478 85.1664 83.4131C85.84 86.5117 86.5136 89.6373 87.1872 92.7359C85.5975 92.8437 84.0077 92.9514 82.418 93.0323V93.0592Z" fill="black"/>
<path d="M337.289 279.301V288.57C336.373 288.704 335.456 288.812 334.54 288.947C333.867 285.848 333.193 282.723 332.52 279.624C334.109 279.516 335.699 279.409 337.289 279.328V279.301Z" fill="black"/>
<path d="M465.599 93.1145H456.33L455.953 90.3661L465.384 88.3184L465.599 93.1145Z" fill="black"/>
<path d="M241.931 94.084V105.239H239.129V94.084H241.931Z" fill="black"/>
<path d="M370.78 94.9463V104.215C369.891 104.35 369.002 104.512 368.14 104.646L365.957 95.5121C367.574 95.3235 369.19 95.1349 370.78 94.9463Z" fill="black"/>
<path d="M176.346 279.677H187.501V282.479H176.346V279.677Z" fill="black"/>
<path d="M421.007 267.984V277.253C420.118 277.388 419.228 277.55 418.366 277.684L416.184 268.55L421.007 267.984Z" fill="black"/>
<path d="M7.4878 267.124V278.279H4.68555V267.124H7.4878Z" fill="black"/>
<path d="M349.384 265.72H338.229V262.918H349.384V265.72Z" fill="black"/>
<path d="M505.686 109.416H494.531V106.613H505.686V109.416Z" fill="black"/>
<path d="M231.29 260.575H222.021C221.886 259.686 221.725 258.797 221.59 257.935C224.608 257.207 227.652 256.48 230.67 255.779C230.859 257.396 231.074 258.986 231.263 260.602L231.29 260.575Z" fill="black"/>
<path d="M69.4055 115.452H60.1635C60.0288 114.563 59.8671 113.674 59.7324 112.784C62.7502 112.057 65.7949 111.329 68.8127 110.629C69.0013 112.246 69.2169 113.835 69.4055 115.452Z" fill="black"/>
<path d="M411.68 251.332H420.949L421.38 254C418.362 254.727 415.317 255.455 412.299 256.155C412.111 254.538 411.895 252.949 411.707 251.332H411.68Z" fill="black"/>
<path d="M281.459 251.251V260.52C280.57 260.655 279.681 260.816 278.792 260.951L276.609 251.817C278.226 251.628 279.843 251.44 281.432 251.251H281.459Z" fill="black"/>
<path d="M121.92 261.546V250.391H124.722V261.546H121.92Z" fill="black"/>
<path d="M91.607 249.419H82.3381C82.2034 248.502 82.0957 247.586 81.9609 246.67C85.0596 245.997 88.1851 245.323 91.2837 244.649C91.3915 246.239 91.4993 247.829 91.607 249.419Z" fill="black"/>
<path d="M353.964 243.844H344.696C344.561 242.928 344.453 242.012 344.318 241.096C347.471 240.422 350.596 239.721 353.749 239.048L353.964 243.844Z" fill="black"/>
<path d="M48.9297 249.339V240.07C49.8458 239.935 50.7619 239.827 51.678 239.692C52.3516 242.791 53.0252 245.917 53.6988 249.015C52.1091 249.123 50.5194 249.231 48.9297 249.312V249.339Z" fill="black"/>
<path d="M537.785 116.395V127.55H534.982V116.395H537.785Z" fill="black"/>
<path d="M428.578 122.94H437.847C437.982 123.857 438.09 124.773 438.224 125.689L428.794 127.737C428.713 126.147 428.659 124.53 428.578 122.94Z" fill="black"/>
<path d="M487.935 238.265H478.666C478.532 237.349 478.424 236.433 478.289 235.517C481.442 234.843 484.567 234.142 487.72 233.469C487.8 235.058 487.854 236.675 487.935 238.265Z" fill="black"/>
<path d="M406.615 244.784V233.629H409.417V244.784H406.615Z" fill="black"/>
<path d="M504.289 228.054V239.209H501.486V228.054H504.289Z" fill="black"/>
<path d="M359.541 137.789H350.272C350.137 136.873 350.029 135.957 349.895 135.041C353.047 134.367 356.173 133.667 359.325 132.993L359.541 137.789Z" fill="black"/>
<path d="M426.529 137.789H417.26C417.125 136.873 417.018 135.957 416.883 135.041L426.313 132.993C426.394 134.583 426.448 136.2 426.529 137.789Z" fill="black"/>
<path d="M629.367 134.097H638.636L639.067 136.764C636.049 137.492 633.005 138.219 629.987 138.92C629.798 137.303 629.583 135.713 629.394 134.097H629.367Z" fill="black"/>
<path d="M433.131 223.849H444.286V226.651H433.131V223.849Z" fill="black"/>
<path d="M102.845 139.755V149.024C101.929 149.159 101.013 149.266 100.097 149.401C99.4234 146.302 98.7498 143.177 98.0762 140.078C99.6659 139.97 101.256 139.863 102.845 139.782V139.755Z" fill="black"/>
<path d="M315.032 227.083H305.763C305.628 226.194 305.467 225.305 305.332 224.415C308.35 223.688 311.395 222.96 314.412 222.26C314.601 223.876 314.816 225.466 315.005 227.083H315.032Z" fill="black"/>
<path d="M560.119 144.31V155.465H557.316V144.31H560.119Z" fill="black"/>
<path d="M572.676 215.47H561.521V212.668H572.676V215.47Z" fill="black"/>
<path d="M398.667 212.183V221.452C397.778 221.586 396.888 221.748 396.026 221.883C395.299 218.838 394.571 215.793 393.844 212.748C395.46 212.56 397.077 212.371 398.667 212.183Z" fill="black"/>
<path d="M406.105 150.856H415.374C415.509 151.746 415.671 152.635 415.806 153.524C412.788 154.251 409.743 154.979 406.725 155.68C406.537 154.063 406.321 152.473 406.132 150.856H406.105Z" fill="black"/>
<path d="M350.354 221.425V212.157C351.27 212.022 352.186 211.914 353.102 211.779C353.775 214.878 354.449 218.003 355.123 221.102C353.533 221.21 351.943 221.318 350.354 221.398V221.425Z" fill="black"/>
<path d="M543.359 205.717V216.872H540.557V205.717H543.359Z" fill="black"/>
<path d="M421.007 206.606V215.875C420.118 216.01 419.228 216.172 418.366 216.306L416.184 207.172C417.8 206.984 419.417 206.795 421.007 206.606Z" fill="black"/>
<path d="M311.285 210.404V201.135C312.174 201.001 313.063 200.839 313.953 200.704C314.68 203.749 315.408 206.794 316.135 209.838C314.519 210.027 312.902 210.216 311.312 210.404H311.285Z" fill="black"/>
<path d="M393.171 199.168H383.902C383.767 198.279 383.605 197.389 383.471 196.5C386.488 195.773 389.533 195.045 392.551 194.345C392.74 195.961 392.955 197.551 393.144 199.168H393.171Z" fill="black"/>
<path d="M551.74 200.139V188.984H554.542V200.139H551.74Z" fill="black"/>
<path d="M315.032 171.28H305.763L305.332 168.613C308.35 167.885 311.395 167.158 314.412 166.457C314.601 168.074 314.816 169.663 315.005 171.28H315.032Z" fill="black"/>
<path d="M623.869 193.536V184.267C624.785 184.132 625.701 184.024 626.618 183.89C627.291 186.988 627.965 190.114 628.638 193.212C627.049 193.32 625.459 193.428 623.869 193.509V193.536Z" fill="black"/>
<path d="M314.949 184.402V193.671C314.033 193.806 313.117 193.914 312.201 194.048C311.527 190.95 310.853 187.824 310.18 184.726C311.769 184.618 313.359 184.51 314.949 184.429V184.402Z" fill="black"/>
<path d="M629.367 167.589H638.636C638.771 168.478 638.932 169.367 639.067 170.256C636.049 170.984 633.005 171.711 629.987 172.412C629.798 170.795 629.583 169.206 629.394 167.589H629.367Z" fill="black"/>
<path d="M378.188 178.742H387.456C387.591 179.631 387.753 180.521 387.887 181.41C384.87 182.137 381.825 182.865 378.807 183.565C378.619 181.949 378.403 180.359 378.214 178.742H378.188Z" fill="black"/>
<path d="M176.351 181.52H170.773V179.661H176.351V181.52Z" fill="black"/>
<path d="M362.426 183.379V177.802H364.285V183.379H362.426Z" fill="black"/>
<path d="M403.355 172.222V177.799H401.496V172.222H403.355Z" fill="black"/>
<path d="M557.799 172.224V166.646H559.658V172.224H557.799Z" fill="black"/>
<path d="M185.646 161.069V166.647H183.787V161.069H185.646Z" fill="black"/>
<path d="M354.965 196.42H360.542V198.279H354.965V196.42Z" fill="black"/>
<path d="M407.074 200.137V194.56H408.933V200.137H407.074Z" fill="black"/>
<path d="M174.49 200.138V205.715H172.631V200.138H174.49Z" fill="black"/>
<path d="M196.824 149.886V155.463H194.965V149.886H196.824Z" fill="black"/>
<path d="M174.49 216.871V222.449H172.631V216.871H174.49Z" fill="black"/>
<path d="M617.32 146.168H622.898V148.027H617.32V146.168Z" fill="black"/>
<path d="M286.119 138.731V144.309H284.26V138.731H286.119Z" fill="black"/>
<path d="M204.264 140.593H209.841V142.452H204.264V140.593Z" fill="black"/>
<path d="M228.457 138.73V133.152H230.316V138.73H228.457Z" fill="black"/>
<path d="M183.787 239.206V233.629H185.646V239.206H183.787Z" fill="black"/>
<path d="M446.143 121.972V116.395H448.002V121.972H446.143Z" fill="black"/>
<path d="M297.303 239.208V244.786H295.443V239.208H297.303Z" fill="black"/>
<path d="M479.635 116.393V110.815H481.494V116.393H479.635Z" fill="black"/>
<path d="M206.123 255.939V250.361H207.982V255.939H206.123Z" fill="black"/>
<path d="M312.174 110.818V105.24H314.033V110.818H312.174Z" fill="black"/>
<path d="M330.795 300.615V306.193H328.936V300.615H330.795Z" fill="black"/>
<path d="M157.756 38.2549V43.8324H155.896V38.2549H157.756Z" fill="black"/>
<path d="M180.07 32.6768V38.2543H178.211V32.6768H180.07Z" fill="black"/>
<path d="M349.385 17.7783H354.962V19.6375H349.385V17.7783Z" fill="black"/>
<path d="M373.582 378.752V373.175H375.441V378.752H373.582Z" fill="black"/>
<path d="M302.881 378.754V384.331H301.021V378.754H302.881Z" fill="black"/>
<path d="M481.494 384.332V389.91H479.635V384.332H481.494Z" fill="black"/>
<path d="M466.621 401.091C468.157 402.33 469.72 403.597 471.256 404.836C469.72 405.456 468.157 406.049 466.621 406.668V401.091Z" fill="black"/>
<path d="M75.8705 482.946H70.293V481.087H75.8705V482.946Z" fill="black"/>
<path d="M228.457 518.298V512.721H230.316V518.298H228.457Z" fill="black"/>
<path d="M198.688 536.918H204.265V538.777H198.688V536.918Z" fill="black"/>
<path d="M386.594 535.058V540.635H384.734V535.058H386.594Z" fill="black"/>
<path d="M444.285 581.564H449.863V583.424H444.285V581.564Z" fill="black"/>
<path d="M370.831 422.457H361.562L361.131 419.789C364.149 419.062 367.193 418.334 370.211 417.634C370.4 419.25 370.615 420.84 370.804 422.457H370.831Z" fill="black"/>
<path d="M345.664 423.401V417.823H347.523V423.401H345.664Z" fill="black"/>
</svg>
