<svg width="554" height="631" viewBox="0 0 554 631" fill="none" xmlns="http://www.w3.org/2000/svg">
<path d="M534.419 175.32C536.25 256.197 541.033 339.127 553.475 421.423C555.456 434.597 551.943 442.622 540.995 449.75C470 496.142 405.395 550.968 339.033 603.406C334.886 606.69 330.701 610.049 327.151 613.931C305.89 636.921 305.292 632.181 281.229 619.156C250.664 602.622 219.837 586.499 188.861 570.749C136.287 543.989 83.6016 517.527 30.7665 491.327C22.9571 487.446 19.2578 482.93 19.781 473.898C20.7525 456.618 21.9855 439.188 20.9019 421.945C18.3237 381.264 14.9982 340.62 10.9253 300.051C8.04815 271.574 3.04113 243.358 0.0518695 214.882C-0.47125 209.992 3.04111 202.827 7.03924 199.58C35.1009 176.701 64.0593 154.979 92.1583 132.138C142.042 91.606 191.364 50.4022 241.21 9.83292C257.688 -3.56576 261.948 -2.55802 279.211 8.93723C311.308 30.2855 344.041 50.7011 376.325 71.7882C403.564 89.5909 430.393 107.916 457.595 125.719C482.107 141.767 506.843 157.48 534.493 175.283L534.419 175.32ZM480.949 162.22C466.04 140.461 289.935 27.0759 262.135 19.6861C262.135 32.0397 261.724 43.7592 262.21 55.441C263.555 87.053 264.601 118.702 267.104 150.239C268.375 166.512 271.215 167.818 287.133 167.744C296.922 167.706 306.75 167.893 316.539 167.221C366.236 163.75 415.895 160.652 465.703 165.579C470.449 166.064 475.493 163.526 480.986 162.257L480.949 162.22ZM40.631 189.689L43.0971 196.444C113.457 187.263 183.779 178.082 253.504 169.012C256.044 140.834 249.655 33.7192 244.498 21.9627C173.765 75.0722 107.03 132.175 40.631 189.689ZM291.915 609.265C293.559 607.847 295.204 606.429 296.81 605.011C292.513 563.919 288.627 522.753 283.732 481.736C282.163 468.673 278.688 467.068 262.658 468.113C233.288 470.016 203.882 471.882 174.55 474.457C142.976 477.219 111.439 480.541 79.9398 484.049C74.9328 484.609 70.1499 487.371 65.255 489.125C65.1802 491.029 65.1429 492.932 65.0682 494.798C144.097 526.186 214.531 574.593 291.878 609.303L291.915 609.265ZM516.035 451.131C515.362 449.34 514.727 447.548 514.055 445.719C492.42 447.847 470.822 450.236 449.15 451.99C405.432 455.535 361.677 458.857 317.922 461.917C306.675 462.701 301.145 467.665 301.855 478.974C302.789 494.052 303.424 509.205 304.807 524.246C307.273 550.968 310.225 577.616 313.363 608.332C383.424 553.991 449.711 502.561 516.035 451.131ZM150.262 341.404C127.207 360.289 114.055 384.324 97.1653 405.001C80.0145 425.976 59.4259 444.936 46.8337 474.495C59.127 473.636 67.1981 473.375 75.157 472.442C84.1247 471.36 92.9804 469.046 101.986 468.337C147.796 464.717 193.681 461.581 239.491 457.849C247.936 457.177 257.277 457.215 265.946 448.519C227.011 412.465 189.197 377.457 150.299 341.404H150.262ZM12.6441 228.355C17.2774 301.842 33.5315 373.688 30.0191 446.877C29.8697 450.236 31.738 453.706 33.7184 461.021C73.9613 418.997 105.872 374.994 136.997 331.14C107.815 294.938 36.1845 235.409 12.6441 228.355ZM522.2 432.284C523.097 429.746 523.957 427.208 524.853 424.67C486.03 392.461 450.869 355.922 408.87 328.379C363.657 366.037 311.645 428.85 308.88 450.497C380.36 444.376 451.28 438.33 522.2 432.246V432.284ZM419.445 311.173C423.331 316.211 424.788 319.011 426.992 320.914C461.332 350.287 495.745 379.547 530.309 408.658C532.252 410.3 535.764 410.077 541.518 411.421C537.595 374.546 534.008 339.575 530.122 304.641C526.31 270.081 530.383 234.774 521.827 195.399C482.667 233.879 450.645 271.312 419.407 311.21L419.445 311.173ZM397.884 317.966C360.369 281.352 325.769 245.411 279.547 214.023C278.127 253.51 284.442 287.473 287.693 321.511C290.944 355.474 290.72 390.072 300.883 427.73C334.662 389.512 365.376 354.765 397.884 317.966ZM252.943 217.755C251.374 217.158 249.804 216.598 248.235 216.001C218.566 253.398 188.936 290.795 158.184 329.498C192.224 366.41 228.879 399.104 270.243 428.738C267.179 357.564 258.847 287.735 252.943 217.718V217.755ZM272.859 181.217C291.131 208.873 316.203 221.264 336.231 238.805C356.147 256.235 371.729 279.038 400.089 294.527C396.726 257.69 394.036 225.63 390.748 193.608C389.141 177.895 386.974 175.283 370.869 175.768C340.042 176.701 309.29 179.089 272.822 181.217H272.859ZM246.778 189.801C245.806 188.084 244.797 186.405 243.826 184.688C213.634 187.412 183.443 190.174 151.981 193.011C151.495 229.251 153.588 263.064 161.061 301.544C197.941 266.871 222.079 228.131 246.778 189.801ZM29.3092 214.994C64.8066 244.478 94.4751 279.15 134.606 303.447C133.485 271.238 130.346 240.074 125.9 209.134C125.302 205.028 117.903 198.796 113.756 198.87C85.283 199.467 57.7071 205.924 29.3092 214.994ZM423.928 276.874C426.021 277.396 428.076 277.956 430.168 278.478C456.81 246.792 486.703 217.905 511.364 184.539C508.487 181.926 507.441 180.172 506.32 180.097C478.632 178.343 450.981 176.439 423.256 175.394C415.671 175.096 413.802 181.59 414.288 188.271C415.446 204.767 416.268 221.264 418.025 237.685C419.407 250.785 421.948 263.774 423.966 276.799L423.928 276.874Z" fill="black"/>
</svg>
