<svg width="484" height="460" viewBox="0 0 484 460" fill="none" xmlns="http://www.w3.org/2000/svg">
<path d="M73.2801 47.7928C61.2728 52.2454 49.8268 56.6233 38.2684 60.6643C31.3484 63.0965 24.2038 66.5763 17.1716 66.5763C11.5233 66.5763 2.99488 63.2835 1.0872 59.018C-0.895304 54.6027 2.69561 46.8948 5.50104 41.4319C7.33391 37.8398 11.86 35.4077 15.5632 33.013C47.358 12.396 81.1727 -0.550371 120.037 5.32414C125.049 6.07249 130.473 6.78343 135.336 5.77316C171.582 -1.82255 195.634 17.4848 212.915 44.6123C236.481 81.6928 247.142 122.44 237.94 167.266C234.573 183.692 236.032 201.091 234.723 217.967C233.863 228.967 238.912 235.216 249.162 236.451C257.765 237.461 266.63 236.264 275.345 236.675C286.829 237.274 299.135 235.141 306.617 248.087C314.023 260.922 313.05 269.528 301.342 278.695C294.946 283.671 288.101 288.161 282.116 293.587C268.276 306.159 270.183 319.143 288.325 324.456C304.41 329.171 321.541 330.256 338.299 332.538C344.097 333.324 350.68 331.303 355.73 333.399C360.406 335.307 365.381 340.471 366.802 345.223C367.887 348.89 364.782 355.251 361.565 358.394C357.525 362.36 351.765 365.278 346.266 366.887C316.604 375.531 286.978 384.361 256.942 391.545C246.73 394.015 235.434 391.919 224.362 394.202C236.294 403.818 250.134 407.298 264.199 405.427C278.675 403.481 292.701 398.467 306.916 394.726C309.758 393.977 312.452 392.518 315.294 391.957C328.723 389.413 342.264 393.079 345.593 400.002C350.045 409.318 342.563 430.31 331.79 436.932C305.419 453.209 277.59 462.376 245.645 458.934C220.92 456.277 195.858 456.389 170.946 456.315C144.089 456.24 138.74 448.532 150.41 424.996C153.627 418.523 155.946 411.601 158.976 404.08C145.398 394.614 134.887 382.565 117.269 379.834C102.718 377.589 98.4916 365.727 106.347 353.155C115.436 338.675 128.678 329.769 146.296 328.759C157.368 328.123 168.44 327.936 179.437 326.851C184.45 326.364 190.846 325.579 193.764 322.323C197.093 318.619 198.701 311.884 198.103 306.833C197.841 304.662 190.285 302.754 185.834 301.894C183.327 301.407 180.373 303.278 177.717 304.026C167.243 293.175 164.961 281.613 166.981 267.095C170.46 241.727 171.357 215.946 173.116 190.353C173.377 186.723 173.752 181.971 171.806 179.576C161.782 167.116 152.168 153.833 140.049 143.693C133.54 138.268 122.319 138.23 113.117 136.359C108.853 135.499 104.102 135.199 99.8754 136.098C77.3198 140.85 65.163 123.488 50.5374 112.45C42.6822 106.538 43.7297 95.874 48.1061 87.8292C55.288 74.6584 63.9659 62.3107 73.1677 47.7928H73.2801Z" fill="black"/>
<path d="M409.034 44.0135C418.086 48.5784 426.765 54.2285 436.266 57.4463C446.552 60.8887 455.193 66.9877 453.958 77.0904C452.724 87.2305 448.46 100.888 440.904 105.602C423.061 116.79 402.675 124.087 382.963 132.056C358.237 142.084 333.475 131.794 308.749 130.859C306.655 130.784 303.812 130.073 302.69 128.577C295.583 119.409 287.653 110.541 282.528 100.327C280.022 95.3126 282.977 87.6047 283.426 81.1315C284.062 72.3384 284.96 63.5827 285.184 54.7897C285.857 30.2814 295.396 16.3621 318.625 8.6916C345.631 -0.251129 373.686 -0.774971 401.703 0.534634C416.291 1.20814 430.729 4.38862 445.317 5.66081C453.996 6.40916 460.355 8.84129 465.255 16.9234C468.921 22.985 476.439 26.6893 480.255 32.7135C482.985 37.0165 484.294 44.0509 482.761 48.7655C480.367 56.1367 473.484 53.4052 467.649 51.9085C448.759 47.1191 429.832 42.5916 410.904 37.9893C410.269 40.0098 409.633 42.0678 408.997 44.0883L409.034 44.0135Z" fill="black"/>
</svg>
