<svg width="592" height="634" viewBox="0 0 592 634" fill="none" xmlns="http://www.w3.org/2000/svg">
<path d="M257.722 218.029C260.605 220.912 262.572 222.879 265.132 225.439C265.132 276.741 262.788 327.963 269.928 378.807H308.809V445.926C256.672 445.953 206.07 446.384 154.175 453.255V495.073H465.465V453.713C463.363 451.611 461.396 449.645 458.459 446.708H327.832C327.832 436.954 323.009 392.603 327.832 384.843C335.861 371.909 353.106 384.52 360.031 368.38C360.031 320.122 359.68 268.281 354.049 220.266C357.013 217.302 359.007 215.308 361.89 212.425H583.293C583.293 310.449 605.872 439.756 577.392 533.9C542.741 648.468 409.204 630.2 315.976 630.334C222.586 630.469 90.6123 655.312 33.2205 561.087C-20.3722 473.14 8.37771 316.97 8.37771 218.056H257.749L257.722 218.029Z" fill="black"/>
<path d="M576.044 200.408C505.261 197.148 432.834 205.905 361.754 205.905C358.817 184.026 355.88 162.093 352.835 139.567H259.527C259.527 162.713 261.197 183.352 254.38 205.528H11.2058C9.50832 203.992 6.84084 201.594 3.82305 198.845C-0.00307059 171.928 4.36182 145.307 10.2627 117.473C37.2611 69.6733 65.6069 21.3347 122.945 7.70077C187.666 -7.68455 268.688 4.70996 335.106 4.87163C454.47 5.16802 610.398 38.4984 576.044 200.435V200.408Z" fill="black"/>
</svg>
