<svg width="546" height="704" viewBox="0 0 546 704" fill="none" xmlns="http://www.w3.org/2000/svg">
<path d="M323.249 649.383C322.546 663.382 314.14 672.704 303.412 679.879C290.962 688.181 277.772 695.427 263.985 703.658C234.933 688.849 209.574 670.206 190.968 644.88C169.408 615.544 151.541 583.57 131.001 553.46C121.891 540.129 110.988 527.712 99.4163 516.386C82.2524 499.572 65.9331 482.477 57.5974 459.367L56.9642 459.965C65.2647 466.894 73.6002 473.789 81.8304 480.824C91.995 489.477 102.054 498.27 112.148 507.029L111.586 506.431C119.746 512.516 126.323 508.401 131.001 501.999C151.119 474.457 168.423 445.191 183.653 416.488C178.588 401.645 169.197 396.79 155.234 395.172C150.134 402.805 144.753 410.896 139.337 418.986L139.794 419.654C140.216 415.89 141.095 412.127 140.954 408.363C140.427 392.64 144.893 368.158 153.159 349.339C154.601 359.399 153.862 366.68 156.817 371.886C160.334 378.042 166.383 383.318 172.433 387.293C178.482 391.233 185.869 393.062 191.953 395.524C218.543 367.947 239.119 326.757 248.263 297.069C256.669 269.843 256.634 242.548 256.845 215.041C257.091 184.755 256.107 154.434 255.403 124.113C255.333 120.455 253.82 116.797 252.484 111.063C225.683 98.7519 197.721 102.973 167.263 107.159C168.036 126.997 180.1 141.243 184.391 157.811C188.753 174.73 196.385 190.805 202.575 207.267L203.173 206.669H186.678C184.919 210.538 182.562 214.865 180.909 219.438C163.957 266.15 121.328 275.296 89.0408 268.612C48.3471 260.205 17.9587 235.442 13.4215 193.936C10.5374 167.765 17.2905 142.299 34.6302 122.776C72.7212 79.8628 114.365 40.9944 171.8 24.4621C192.516 18.5175 212.81 11.2362 233.456 5.08061C238.064 3.70878 243.726 4.02536 244.008 14.1206C195.224 24.1455 149.114 42.7179 107.119 70.7173C104.481 72.4761 103.532 76.8026 101.351 80.6719C110.636 90.0988 122.454 90.3098 133.181 90.5912C172.187 91.6465 211.333 95.6564 249.635 88.9732C259.518 73.1796 256.353 57.597 257.724 42.7883C258.955 29.1404 260.608 15.5276 262.226 0.4375C272.919 4.44746 269.683 11.4473 269.718 16.3718C269.788 35.3664 268.628 54.3961 268.944 73.3906C269.12 84.0135 274.924 91.2596 284.877 91.4003C330.284 91.9982 376.007 99.7016 420.956 87.0737C423.137 86.4758 424.896 84.4004 428.167 82.0789C417.967 66.1094 400.486 60.7628 385.257 52.8835C368.41 44.1601 350.964 36.492 333.308 29.4921C317.27 23.0903 298.242 25.7636 281.817 13.9799C285.018 10.5328 287.937 5.71376 289.379 6.10069C346.533 22.4219 404.285 37.7583 450.29 78.7021C460.665 87.9531 471.393 97.2393 479.728 108.214C510.292 148.349 514.091 191.579 491.019 236.603C484.125 250.075 475.86 262.844 468.227 275.964L468.895 276.703C465.66 267.1 459.716 262.175 448.988 264.356C420.429 270.195 394.121 263.16 368.797 250.251C364.541 248.105 359.758 247.015 352.442 244.482C350.578 280.818 357.12 313.777 362.747 346.666C364.787 358.731 367.319 371.429 377.836 380.469C394.226 382.122 410.405 383.072 424.755 375.967C434.779 357.394 444.205 339.947 453.596 322.501L452.927 322.254C443.607 358.977 434.216 395.665 425.036 432.387C419.901 453 415.188 473.718 408.963 499.818C417.123 495.034 421.625 493.698 424.228 490.673C439.14 473.577 455.566 457.397 467.805 438.508C489.753 404.74 512.051 370.655 522.884 331.154C528.195 311.878 531.712 292.144 536.355 271.321C544.128 268.014 546.203 274.874 544.972 281.029C540.998 300.798 537.445 320.953 530.657 339.842C516.553 379.203 498.897 417.227 474.558 451.382C459.223 472.909 442.411 493.663 424.087 512.622C408.857 528.416 397.849 546.32 387.297 565.068C382.514 573.545 375.268 580.58 369.148 588.283L369.852 588.952C368.304 583.253 366.722 577.52 365.174 571.892C332.429 579.877 302.076 587.299 271.125 594.861C261.066 617.725 261.453 641.609 263.528 665.458C263.985 670.875 267.643 675.975 270.597 683.151C290.082 671.05 307.07 660.498 324.058 649.945L323.284 649.347L323.249 649.383ZM362.571 450.925C362.466 452.121 362.044 453.422 362.36 454.513C362.606 455.322 363.802 455.849 364.541 456.518C363.697 454.829 362.817 453.106 361.973 451.417C360.883 439 360.461 426.478 358.175 414.272C357.683 411.599 350.507 408.468 346.498 408.574C339.921 408.75 335.876 417.086 339.077 422.785C345.126 433.583 349.628 445.824 362.536 450.925H362.571ZM314.773 426.302C309.216 434.779 302.709 442.764 298.453 451.839C295.569 457.995 295.851 465.628 294.409 474.562C307.492 478.045 318.255 481.07 329.123 483.778C339.534 486.381 349.417 492.502 363.873 490.462C354.412 469.638 344.81 452.121 333.168 435.624C328.349 428.8 321.948 425.739 313.577 427.252C314.351 417.438 315.125 407.659 315.898 397.846C331.022 401.574 343.121 397.142 354.411 381.032C352.09 324.857 344.071 266.115 335.7 207.443C335.243 204.207 332.148 201.358 330.178 198.121C306.262 225.03 275.908 278.602 263.387 314.551C246.188 328.832 238.767 349.163 228.848 367.173C241.088 387.246 239.201 405.174 223.186 420.956C231.17 434.955 238.872 449.447 247.56 463.306C257.548 479.276 272.743 478.397 283.013 461.688C286.987 455.251 289.238 447.407 294.197 441.99C299.93 435.729 307.844 431.438 314.808 426.267L314.773 426.302ZM267.608 273.537C303.799 218.523 329.475 166.077 357.366 112.118C335.102 104.521 315.019 107.194 295.393 106.877C287.093 106.737 278.722 109.515 271.406 110.817C261.699 146.836 259.272 226.789 267.608 273.572V273.537ZM252.062 592.927C223.537 586.208 196.807 579.877 170.041 573.827C168.142 573.404 165.715 575.339 161.635 576.887C179.678 616.775 206.198 648.89 242.988 672.352C245.238 673.794 249.775 671.648 254.594 670.98C257.689 645.654 260.925 621.067 252.062 592.927ZM161.881 178.599C140.813 158.198 116.228 147.153 87.1413 150.776C66.179 153.379 45.8851 160.097 35.017 183.84C60.3407 203.82 87.7745 210.257 117.565 206.212C134.905 203.855 152.385 199.74 161.881 178.634V178.599ZM483.421 182.011C472.518 165.514 458.52 157.811 438.401 157.881C437.839 166.921 438.191 174.449 436.748 181.589C434.638 192.107 424.966 197.418 413.394 195.589C404.285 194.147 399.431 186.971 400.803 175.82C401.542 169.981 403.406 164.283 405.2 156.685C385.89 156.263 372.455 162.841 359.582 177.474C377.414 197.277 397.603 208.041 422.926 208.357C446.421 208.639 467.805 203.538 483.386 182.046L483.421 182.011ZM418.178 397.494C410.088 389.052 399.748 391.162 389.97 392.147C379.454 393.167 373.193 399.217 374.389 409.524C377.59 436.855 381.951 464.08 386.207 491.271C386.453 492.924 389.654 494.12 391.518 495.527C405.129 477.658 415.821 438.402 418.178 397.494ZM144.471 501.084C180.769 490.286 207.816 482.266 235.672 473.964C232.225 448.498 218.086 434.779 197.545 424.262C176.407 445.684 166.067 472.628 144.507 501.084H144.471ZM92.8392 237.764C77.6801 229.638 66.8472 223.764 55.9088 218.101C55.3461 217.819 53.9745 219.121 52.9897 219.649C65.0536 243.04 71.4899 246.698 92.8392 237.764ZM111.48 122.038C111.727 120.49 111.973 118.978 112.219 117.43C106.415 117.782 100.577 118.133 94.7738 118.485C94.8089 119.681 94.8794 120.842 94.9146 122.038H111.445H111.48ZM94.5278 219.754C102.617 221.196 105.783 222.111 108.948 222.111C110.003 222.111 111.093 219.789 112.148 218.523C111.128 218.136 110.039 217.327 109.054 217.397C105.853 217.714 102.688 218.382 94.5278 219.754ZM424.438 220.493C424.438 219.754 424.649 218.417 424.438 218.347C423.489 218.031 422.328 217.82 421.378 218.066C420.464 218.277 419.655 219.015 418.811 219.543C420.71 219.86 422.645 220.211 424.509 220.528L424.438 220.493ZM212.775 562.922L215.553 562.254L213.443 560.952L212.775 562.922ZM140.462 130.867C141.341 131.359 142.22 131.852 143.1 132.379C143.522 131.5 144.472 130.409 144.225 129.811C143.909 129.073 142.607 128.791 141.728 128.334C141.306 129.178 140.884 130.023 140.462 130.867Z" fill="black"/>
<path d="M57.5977 459.366C45.2173 455.919 40.7501 444.628 34.3488 435.517C14.7582 407.518 2.8703 373.926 0.232422 337.273C14.2659 359.891 17.8182 382.825 27.8421 402.875C37.3737 421.975 47.2219 440.934 56.9644 459.929L57.5977 459.331V459.366Z" fill="black"/>
<path d="M89.2871 411.774C86.3327 407.835 82.1473 404.317 80.5998 399.885C73.2137 378.71 66.5665 357.288 59.7784 335.902C59.6025 335.304 61.2904 334.108 62.0994 333.229C73.7764 353.02 85.0666 365.941 95.9698 371.991C93.1561 377.866 88.8653 383.634 87.8101 389.966C86.6143 397.212 88.3378 404.915 88.7246 412.443C88.6895 412.478 89.2523 411.845 89.2523 411.845L89.2871 411.774Z" fill="black"/>
<path d="M369.114 588.354C365.245 617.268 350.614 638.127 323.25 649.418L324.024 650.016C338.198 628.876 350.262 606.153 369.817 589.058L369.114 588.39V588.354Z" fill="black"/>
<path d="M112.151 506.994C108.915 491.411 105.68 475.829 102.409 460.246L101.811 460.809C115 473.859 122.456 488.105 111.553 506.325C111.588 506.361 112.151 506.959 112.151 506.959V506.994Z" fill="black"/>
<path d="M139.303 418.95V443.291C137.931 443.115 136.559 442.975 135.152 442.799C136.7 435.096 138.283 427.392 139.76 419.654C139.725 419.619 139.268 418.95 139.268 418.95H139.303Z" fill="black"/>
<path d="M157.803 317.681V304.807C159.034 304.666 160.229 304.561 161.46 304.42C161.953 308.711 162.445 312.967 162.938 317.259C161.214 317.4 159.526 317.54 157.803 317.681Z" fill="black"/>
<path d="M45.0422 280.889C48.8055 287.431 50.7402 290.491 52.2878 293.763C52.6395 294.501 51.4083 296.928 51.2676 296.893C49.1573 296.401 45.6048 296.049 45.3234 294.888C44.5144 291.687 45.0422 288.135 45.0422 280.889Z" fill="black"/>
<path d="M233.879 259.501C223.855 256.581 220.232 248.034 216.434 239.662L215.871 240.295C226.528 242.687 229.623 251.692 233.316 260.169L233.879 259.536V259.501Z" fill="black"/>
<path d="M102.408 460.246C99.9459 452.542 97.4835 444.839 95.0215 437.136L94.4238 437.628C102.654 443.467 103.006 451.874 101.845 460.773L102.443 460.246H102.408Z" fill="black"/>
<path d="M95.0216 437.135C87.3894 429.995 88.9369 420.779 89.2886 411.809C89.2886 411.774 88.7614 412.407 88.7966 412.372C90.6959 420.744 92.5951 429.186 94.4592 437.628L95.0216 437.135Z" fill="black"/>
<path d="M460.487 299.427C457.955 307.06 455.423 314.658 452.855 322.291L453.524 322.537C453.91 314.2 452.574 305.301 461.121 299.673L460.487 299.427Z" fill="black"/>
<path d="M468.191 275.965C465.624 283.774 463.056 291.583 460.523 299.391L461.157 299.638C461.333 291.196 461.614 282.789 468.859 276.704L468.191 275.965Z" fill="black"/>
<path d="M202.506 207.232C204.933 212.402 207.359 217.573 209.786 222.744L210.349 222.216C207.922 217.046 205.496 211.84 203.104 206.634L202.506 207.197V207.232Z" fill="black"/>
<path d="M216.433 239.664C214.393 233.86 212.353 228.056 210.313 222.252L209.75 222.78C211.825 228.583 213.865 234.423 215.87 240.262L216.398 239.664H216.433Z" fill="black"/>
<path d="M233.352 260.135C233.809 261.858 234.266 263.582 234.512 264.531C234.371 263.406 234.09 261.506 233.844 259.537C233.844 259.501 233.316 260.135 233.316 260.135H233.352Z" fill="black"/>
<path d="M316.604 398.761C314.318 399.675 312.103 400.906 309.746 401.504C300.496 403.791 290.577 410.79 282.031 401.891C273.59 393.133 278.795 384.198 283.754 375.017C286.287 370.374 285.97 363.41 284.915 357.852C283.579 350.711 280.237 343.958 277.775 337.063C293.075 356.128 311.399 373.329 316.57 398.761H316.604Z" fill="black"/>
<path d="M278.442 338.047C269.087 332.806 264.55 324.329 262.475 314.198C271.654 319.545 276.578 327.776 278.442 338.047Z" fill="black"/>
<path d="M110.707 173.006C110.847 184.966 109.229 194.287 99.5217 196.785C94.9846 197.945 87.3173 194.674 83.9057 190.875C78.243 184.544 79.8959 173.815 86.7544 167.484C89.9198 164.564 96.2509 161.856 99.6273 163.087C104.516 164.916 108.033 170.403 110.707 172.971V173.006Z" fill="black"/>
</svg>
