<svg width="149" height="201" viewBox="0 0 149 201" fill="none" xmlns="http://www.w3.org/2000/svg">
<path d="M75.6321 7.17999C60.2821 15.65 45.2721 23.92 28.2821 33.3C26.7821 23.65 25.7621 17.05 24.7321 10.45C24.1821 10.52 23.6421 10.6 23.0921 10.67V104.08C41.4721 104.08 58.1021 104.41 74.7121 103.98C88.7621 103.61 102.782 102.26 116.822 101.54C130.892 100.82 147.612 114.99 148.062 129.19C148.722 150.25 148.232 171.34 148.232 193.69C142.342 194.16 136.582 194.62 129.422 195.19C128.832 185.05 128.282 175.73 127.742 166.42C126.962 166.28 126.182 166.14 125.392 166C123.852 168.65 122.312 171.3 119.342 176.4C114.882 173.75 110.432 171.1 104.532 167.6C94.8021 167.6 82.7621 167.6 70.7221 167.6C58.6821 167.6 47.3221 167.6 35.8121 167.6C33.7221 170.8 32.1221 173.26 30.0721 176.4C26.5621 175.67 23.1221 174.96 18.6821 174.03V199.2C12.8821 199.54 8.14209 199.81 0.132086 200.27C0.132086 177.5 -0.3479 155.84 0.5221 134.24C0.7021 129.76 5.23211 124.82 8.90211 121.26C16.5121 113.85 18.8221 105.22 18.4521 94.94C17.4921 68.83 17.0021 42.71 16.4321 16.59C16.3621 13.37 16.9421 10.14 17.3021 6.03H30.1621C30.8021 12.51 31.3721 18.33 32.1921 26.73C47.2921 17.89 60.9521 9.90001 76.1421 1.01001C89.7321 9.15001 104.022 17.71 118.312 26.28C117.492 27.73 116.672 29.17 115.852 30.62C102.402 22.79 88.9521 14.96 75.6221 7.20001L75.6321 7.17999ZM142.182 190.28C142.182 179.4 141.372 169.96 142.342 160.71C144.582 139.46 143.672 119.73 125.552 109.48C93.5521 109.48 64.1421 109.68 34.7421 109.39C21.9121 109.27 16.7021 118.01 9.45209 128.08C53.6121 125.37 95.6321 122.83 137.552 127.91C93.6221 129.23 49.6821 128.15 6.44211 133.94C3.05211 152.57 6.21209 189.61 12.5121 195.31V163.89H133.472V189.6C136.542 189.84 138.662 190 142.162 190.28H142.182ZM114.392 169.4C114.912 169.63 115.422 169.85 115.942 170.08C116.462 168.96 116.982 167.84 117.492 166.71C116.932 166.46 116.372 166.22 115.822 165.97C115.342 167.11 114.872 168.25 114.392 169.39V169.4Z" fill="black"/>
<path d="M123.442 26.2C121.282 24.71 119.132 23.23 116.302 21.28C117.812 14.19 119.322 7.1 120.832 0C122.402 0.06 123.972 0.119993 125.552 0.179993C126.842 3.64999 129.162 7.07999 129.272 10.58C130.182 38.35 130.692 66.14 131.212 93.92C131.242 95.35 130.122 96.81 129.542 98.25C128.472 98.22 127.402 98.19 126.332 98.16V27.41C125.372 27.01 124.412 26.6 123.452 26.2H123.442Z" fill="black"/>
<path d="M116.422 77.57C112.862 75.9 110.882 74.97 110.052 74.58V43.79C112.452 43.63 114.522 43.49 116.422 43.36V77.57Z" fill="black"/>
<path d="M99.8221 44.5H104.392V73.82C102.872 73.82 101.352 73.83 99.8221 73.84V44.49V44.5Z" fill="black"/>
<path d="M30.7021 78.53C30.0321 67.43 29.3721 56.34 28.7021 45.24C30.1921 45.14 31.6921 45.03 33.1821 44.93C33.9121 56.06 34.6321 67.18 35.3621 78.31C33.8121 78.39 32.2521 78.46 30.7021 78.54V78.53Z" fill="black"/>
<path d="M45.7121 75.71C37.5621 63.86 39.1921 46.53 45.7121 44.64V75.71Z" fill="black"/>
<path d="M91.0421 46.5C91.0921 52.4 91.5621 58.35 91.0321 64.2C90.7021 67.75 88.8221 71.16 85.3821 74V45.33C87.6021 45.8 89.3421 46.17 91.0821 46.54L91.0521 46.51L91.0421 46.5Z" fill="black"/>
<path d="M73.5821 77.53C65.9021 66.71 67.0421 51.33 73.5821 46.8V77.53Z" fill="black"/>
<path d="M56.7221 70.14V45.25H62.9721C61.7921 53.99 60.6921 62.12 59.5921 70.25C58.6321 70.21 57.6821 70.18 56.7221 70.14Z" fill="black"/>
<path d="M91.0721 46.54L91.4021 46.18L91.0421 46.5L91.0721 46.54Z" fill="black"/>
<path d="M12.2621 157.72C12.7821 151.19 13.2621 145.28 13.8621 137.85H132.742C133.382 144.25 134.012 150.61 134.642 156.96C133.742 157.22 132.842 157.47 131.932 157.73C130.002 152.44 128.082 147.15 126.152 141.87C124.792 142.18 123.432 142.49 122.062 142.81C122.752 147.2 123.432 151.59 124.392 157.72H12.2421H12.2621ZM107.842 142.65H34.4821C33.9821 144.86 33.2921 146.74 33.2221 148.63C33.1721 150.18 33.8821 151.75 34.3721 153.81H107.842V142.65ZM22.1321 144.09C21.0121 143.86 19.8921 143.63 18.7721 143.4C18.4221 146.51 18.0821 149.63 17.7321 152.74C18.7021 152.86 19.6721 152.98 20.6421 153.09C21.1421 150.09 21.6321 147.08 22.1321 144.08V144.09ZM116.302 144.02C115.802 144.02 115.302 144.02 114.802 144.03C114.682 146.23 114.562 148.43 114.432 150.63C115.052 150.58 115.672 150.53 116.302 150.49V144.03V144.02ZM27.1621 151.14C27.4621 151.13 27.7521 151.12 28.0521 151.11C27.9621 149.29 27.8821 147.46 27.7921 145.64C27.5821 145.65 27.3721 145.66 27.1621 145.67V151.14Z" fill="black"/>
</svg>
