<svg width="175" height="167" viewBox="0 0 175 167" fill="none" xmlns="http://www.w3.org/2000/svg">
<path d="M109.01 115.599C128.38 121.649 146.39 127.279 164.39 132.909C163.93 134.709 163.46 136.499 163 138.299C143.76 135.259 124.53 132.229 105.09 129.159C100.5 142.739 96.44 154.749 92.39 166.749C91.01 166.559 89.63 166.359 88.25 166.169C86.76 155.549 85.26 144.939 83.64 133.419C63.39 138.249 43.5 142.989 23.6 147.729C34.96 133.559 52.65 131.939 67.63 123.849C69.76 116.879 64.63 115.389 59.19 113.829C47.65 110.519 36.15 107.099 24.69 103.509C22.18 102.719 19.56 101.509 17.61 99.7887C0.0100002 84.2487 0.950002 62.6487 0.0800021 42.1887C-0.499998 28.6087 9.37002 18.7887 20.75 15.0387C40.55 8.5087 61.21 2.65872 81.86 1.11872C105.35 -0.631279 129.21 2.54871 152.9 3.79871C163.34 4.34871 169.36 10.2387 171.34 20.4287C175.39 41.2587 177.71 62.4287 162.63 79.7087C154.96 88.4987 143.93 94.4987 134 101.139C126.33 106.269 118.01 110.449 109 115.599H109.01ZM74.51 81.2287C76.97 92.3387 79.84 105.359 83.16 120.369C90.51 117.869 97.27 116.359 103.29 113.369C114.67 107.719 125.98 101.769 136.63 94.8887C145.22 89.3387 154.48 83.5087 160.49 75.5687C174.43 57.1387 170.47 36.1587 164.36 15.9687C163.39 12.7587 157.39 9.13875 153.61 9.01875C125.32 8.10875 96.92 6.67872 68.71 8.23872C53.05 9.10872 37.41 14.5487 22.3 19.5687C12.36 22.8787 5.87 31.0787 5.11 42.2787C4.35 53.5187 10.3 61.2887 20.22 64.7187C37.75 70.7787 55.71 75.5887 74.5 81.2287H74.51ZM6.31001 63.1887C9.81001 94.9987 34.4 112.569 75.84 110.989C74.18 102.179 72.55 93.5087 70.78 84.1087C59.26 81.5487 48 79.8887 37.33 76.4287C26.71 72.9787 16.69 67.7087 6.31001 63.1987V63.1887ZM74.12 124.999C77.48 126.119 80.49 127.129 86.54 129.139C80.65 124.009 77.13 120.949 72.92 117.289C73.41 120.459 73.75 122.659 74.12 124.989V124.999ZM98.49 131.009C98.09 130.929 97.69 130.849 97.29 130.769C96.85 132.839 96.41 134.909 95.97 136.979C96.38 137.059 96.78 137.139 97.19 137.219C97.62 135.149 98.05 133.079 98.49 131.009Z" fill="black"/>
<path d="M79 70.7687C67.12 68.8187 55.1 67.4787 43.41 64.7187C34.45 62.5987 24.14 57.9287 24.86 47.8387C25.38 40.4787 31.45 31.4987 37.73 27.0487C45.85 21.2987 56.38 17.6387 66.35 16.0887C93.48 11.8687 120.91 8.36869 146.64 20.3387C152.33 18.5287 157.25 16.9587 162.16 15.3987C162.52 16.1787 162.87 16.9487 163.23 17.7287C159.47 19.8187 155.7 21.8987 151.64 24.1487C152.39 29.4887 153.09 34.5687 153.8 39.6487C152.84 40.5287 151.88 41.3987 150.92 42.2787C149.92 22.0987 134.64 21.5587 126.06 18.7487C113.93 19.7387 105.78 20.4287 97.63 21.0787C83.51 22.1987 69.11 21.9787 55.37 24.8987C47.21 26.6287 39.23 32.3387 32.93 38.1687C30.16 40.7387 29.66 49.3587 31.87 52.9087C35.55 58.8087 42.37 62.2587 50.21 58.3587C79.94 43.5787 110.74 44.3687 141.88 52.4687C150.08 54.5987 152.87 60.4887 149.98 69.5987C135.41 77.2287 120.67 85.5687 105.3 92.5287C101.55 94.2287 93.31 93.0187 91.42 90.2287C88.09 85.3287 88.06 78.1887 86.66 71.9887C87.91 71.7387 89.16 71.4787 90.4 71.2287C91.85 77.3887 93.29 83.5487 95.1 91.2787C115.86 87.2087 130.47 74.9387 148.17 63.9787C144.92 61.0387 142.86 57.6187 140.12 56.9387C113.97 50.4687 87.76 51.3587 61.68 57.6287C59.61 58.1287 57.86 59.8987 53.27 62.7487C65.18 64.1687 74.23 65.2587 84.92 66.5287C82.19 68.5087 80.57 69.6787 78.94 70.8587L79 70.7787V70.7687Z" fill="black"/>
<path d="M78.94 70.8487C80.43 71.3187 81.93 71.7887 83.42 72.2587C83.11 72.7787 82.79 73.2887 82.48 73.8087C81.32 72.7987 80.16 71.7887 79 70.7787L78.94 70.8587V70.8487Z" fill="black"/>
</svg>
