<svg width="220" height="218" viewBox="0 0 220 218" fill="none" xmlns="http://www.w3.org/2000/svg">
<path d="M128.97 163.54C150.33 177.47 155.78 190.9 148.71 217.19C148.13 213.02 146.95 208.83 147.09 204.69C147.69 185.91 141.11 172.44 121.92 166.41C106.96 161.71 92.35 155.87 77.64 150.38C62.95 144.9 59.59 138.97 64.16 124.4C68.27 111.29 67.7 98.58 59.35 88.02C46.13 71.29 31.6 55.59 17.36 39.69C15.4 37.5 11.9 36.67 6.89 34.06C7.41 39.25 7.29 42.11 8.02 44.73C16.96 76.99 25.85 109.26 35.13 141.42C39.71 157.29 48.73 168.86 65.34 174.88C90.5 184 115.07 194.78 139.87 204.9C141.61 205.61 143.23 206.64 144.64 209.62C142.48 209.62 140.06 210.28 138.2 209.52C110.59 198.29 83.1 186.76 55.48 175.56C43.08 170.54 36.48 160.22 32.91 148.72C21.45 111.77 11.06 74.48 0 36.45C5.16 31.68 8.8 25.87 13.87 24.04C37.74 15.41 61.95 7.68004 86.21 0.200037C89.18 -0.719963 93.21 1.78004 96.75 2.70004C96.69 3.34004 96.68 3.99002 96.7 4.62002V4.61001C96.45 3.98001 96.5 3.38 96.85 2.79C105.27 11.37 114.32 19.44 121.91 28.71C127.35 35.36 130.48 43.86 135.28 51.1C143.6 63.64 145.26 77.07 140.68 93.08C147.68 95.75 153.96 98.41 160.42 100.54C172.17 104.41 183.99 108.06 195.83 111.61C210.4 115.97 216.53 126.5 217.58 140.83C218.11 148.15 218.51 155.48 219.11 164.94C198.67 179.75 177.18 195.33 153.44 212.53C155.8 189.14 159.1 166.95 128.91 163.61C126.89 162.94 124.88 162.27 122.86 161.6C121.52 160.92 120.18 160.24 118.84 159.56C117.48 158.9 116.12 158.24 114.76 157.58C114.53 157.46 114.3 157.34 114.08 157.22C114.32 157.32 114.57 157.43 114.81 157.53C116.15 158.21 117.49 158.89 118.83 159.57C120.19 160.23 121.55 160.89 122.91 161.54C124.93 162.2 126.95 162.86 128.97 163.53V163.54ZM201.33 171.71L201.24 171.63C200.6 172.3 199.96 172.97 199.32 173.65C197.97 174.32 196.61 174.99 195.26 175.67C194.61 176.35 193.96 177.04 193.3 177.72L187.26 181.76C185.25 183.11 183.24 184.45 181.23 185.8L175.2 189.83C170.96 191.98 166.72 194.14 162.47 196.29C163.65 192.35 165.91 190.14 168.5 188.42C178.79 181.6 189.19 174.93 199.54 168.2C204.64 164.88 208.25 161.08 203.42 153.1C188.47 161.7 173.94 170.06 159.76 178.22V203.33C165.69 198.07 170.4 193.9 175.11 189.73C177.12 188.39 179.13 187.05 181.14 185.71C183.15 184.37 185.17 183.03 187.18 181.69C189.21 180.36 191.23 179.03 193.26 177.7C193.94 177.04 194.62 176.39 195.3 175.73C196.65 175.05 198 174.38 199.35 173.7L201.32 171.73L201.33 171.71ZM24.25 38.87C24.93 39.53 25.61 40.19 26.29 40.85C29.36 43.93 32.74 46.76 35.46 50.13C52.83 71.69 77.76 89.59 69.73 125.15C85.77 100.65 52.92 59.28 26.28 40.87C25.62 40.19 24.97 39.51 24.31 38.83L24.26 38.88L24.25 38.87ZM94.69 107.28C93.35 107.95 92 108.62 90.66 109.29C86.85 110.96 83.04 112.63 79.23 114.3C79.61 114.92 79.98 115.54 80.36 116.16C83.78 113.85 87.19 111.54 90.61 109.22C91.95 108.55 93.3 107.88 94.65 107.21C95.06 107.04 95.47 106.87 95.34 106.92C95.47 106.85 95.08 107.06 94.7 107.27L94.69 107.28ZM140.99 99.2L140.97 99.24C141.24 99.34 141.51 99.44 141.78 99.54C141.52 99.43 141.25 99.31 140.99 99.2ZM165.11 121.33C165.34 121.17 165.57 121 165.8 120.84C165.58 121.01 165.35 121.18 165.13 121.35L165.11 121.33ZM126.86 46.9L126.9 46.86L126.53 46.27L126.86 46.89V46.9ZM153.05 127.35C151.71 128.04 150.37 128.72 149.03 129.41C147.69 130.08 146.34 130.75 145 131.43C143.66 132.1 142.32 132.77 140.97 133.44C138.27 134.77 135.58 136.09 132.88 137.42C131.54 138.09 130.19 138.76 128.85 139.43C128.64 139.55 128.44 139.67 128.23 139.78C128.45 139.68 128.67 139.58 128.9 139.48C130.24 138.81 131.59 138.14 132.93 137.47C135.6 136.11 138.26 134.75 140.93 133.39C142.27 132.72 143.61 132.05 144.95 131.38C146.3 130.71 147.64 130.05 148.99 129.38C150.36 128.73 151.73 128.07 153.1 127.42C153.3 127.28 153.5 127.15 153.7 127.01C153.48 127.13 153.27 127.25 153.05 127.37V127.35ZM173.18 141.5C171.85 142.17 170.52 142.84 169.19 143.51C167.83 144.18 166.48 144.85 165.12 145.52C163.11 146.86 161.09 148.2 159.08 149.54C152.27 152.27 145.45 154.99 138.64 157.72C139.09 158.6 139.54 159.47 139.99 160.35C146.33 156.73 152.67 153.1 159.01 149.48C161.02 148.13 163.02 146.79 165.03 145.44C166.4 144.78 167.76 144.12 169.13 143.46C170.46 142.79 171.79 142.13 173.12 141.46C173.8 140.79 174.48 140.11 175.16 139.44C176.49 138.77 177.81 138.09 179.14 137.42C180.47 136.74 181.81 136.07 183.14 135.39C184.49 134.73 185.84 134.06 187.19 133.4C188.55 132.73 189.9 132.06 191.26 131.39C193.27 131.39 195.29 131.41 197.3 131.41C194.91 133.48 192.78 136.02 190.09 137.55C175.17 146.05 160.12 154.31 143.98 163.28C148.68 166.01 151.77 167.8 154.32 169.28C170.79 159.83 186.57 150.78 203.16 141.27C200.94 137.53 199.12 134.47 197.31 131.41C195.32 131.43 193.34 131.45 191.35 131.46C189.98 132.12 188.62 132.78 187.25 133.44C185.91 134.12 184.57 134.79 183.23 135.47C181.89 136.14 180.54 136.8 179.2 137.47C177.87 138.14 176.54 138.81 175.21 139.47C174.53 140.15 173.85 140.83 173.18 141.5ZM98.7 67.02C96.69 67.69 94.68 68.37 92.67 69.04C86.63 71.04 80.6 73.05 77.15 74.02C73.18 75.28 71.87 75.69 70.56 76.11C70.73 76.52 70.91 76.92 71.08 77.33C72.29 76.67 73.51 76.01 74.56 75.06C80.57 73.03 86.58 70.99 92.6 68.96C94.61 68.29 96.62 67.61 98.64 66.94C100.68 66.28 102.72 65.62 104.76 64.97C111.61 63.56 118.46 62.15 125.31 60.75L126.08 63.68C108.4 69.91 90.71 76.15 72.47 82.58C78.03 89.16 88.31 86.47 130.94 68.99L130.88 69.05C129.38 65.23 127.87 61.4101 125.85 56.2801C118 59.5601 111.41 62.32 104.83 65.07C102.79 65.72 100.75 66.3801 98.7 67.0301V67.02ZM147.04 107.26L147.01 107.28C147.43 107.95 147.84 108.61 146.96 107.19C148.26 108.26 147.65 107.76 147.05 107.26H147.04ZM104.75 38.87C102.74 39.54 100.73 40.22 98.72 40.89C96.72 41.56 94.73 42.24 92.73 42.91C90.72 43.58 88.71 44.25 86.69 44.92C84.66 45.58 82.62 46.24 80.59 46.9C79.5 46.21 78.4 45.52 77.31 44.83C77.12 45.41 76.94 45.99 76.75 46.57C78.01 46.66 79.28 46.74 80.54 46.83C82.57 46.17 84.61 45.51 86.64 44.85C88.65 44.18 90.66 43.51 92.68 42.84C94.67 42.15 96.65 41.47 98.64 40.79C100.65 40.12 102.66 39.44 104.67 38.77C106.71 38.12 108.75 37.46 110.8 36.81C109.84 38.95 109.41 42.4 107.85 43.01C93.62 48.64 79.22 53.85 64.79 58.97C62.9 59.64 60.56 59.06 55.39 59.06C59.97 55.94 62.21 54.41 64.45 52.89C64.84 52.63 65.22 52.38 65.15 52.43C65.22 52.37 64.86 52.66 64.51 52.96L51.37 50.83C51.26 49.96 51.14 49.09 51.03 48.22C71.09 41.38 91.16 34.53 111.73 27.51C109.76 23.98 107.68 20.68 105.36 17.37C105.36 18.53 105.35 19.7 105.34 20.86C83.76 28.42 62.19 35.98 39.26 44.01C48.74 54.46 56.96 63.5301 65.11 72.5301C85.1 65.7601 103.99 59.35 124.36 52.45C119.07 46.33 122.06 36.03 110.85 36.88C108.81 37.54 106.78 38.2 104.74 38.86L104.75 38.87ZM48.41 34.85C47.18 35.18 45.95 35.51 44.73 35.84C44.9 36.19 45.07 36.54 45.23 36.9C46.26 36.18 47.3 35.47 48.33 34.75C50.36 34.09 52.4 33.43 54.43 32.77C60.48 30.77 66.52 28.76 72.57 26.76C79.43 24.94 86.3 23.11 93.16 21.29C92.92 20.56 92.67 19.8301 92.43 19.0901C85.83 21.6701 79.23 24.25 72.63 26.82C66.59 28.83 60.55 30.84 54.51 32.85C52.48 33.52 50.46 34.19 48.43 34.85H48.41ZM199.33 149.49C200.49 149.2 201.66 148.91 199.61 149.42C201.43 148.31 200.41 148.93 199.39 149.56C198.03 150.22 196.67 150.89 195.31 151.55C190.63 154.23 185.94 156.92 181.26 159.6C179.91 160.27 178.56 160.94 177.2 161.61C171.86 164.97 166.51 168.33 161.17 171.69C160.42 172.02 159.68 172.35 160.8 171.86C159.87 172.66 160.48 172.13 161.09 171.61C166.44 168.25 171.78 164.89 177.13 161.54C178.49 160.88 179.85 160.22 181.21 159.56C185.89 156.87 190.57 154.18 195.26 151.5C196.62 150.84 197.98 150.17 199.34 149.51L199.33 149.49ZM140.98 113.3C138.97 113.98 136.96 114.65 134.94 115.33C128.93 118.02 122.91 120.72 116.9 123.41C115.53 124.07 114.17 124.74 112.8 125.4C106.77 128.09 100.74 130.78 94.71 133.46C91.05 134.27 87.4 135.09 83.74 135.9C83.21 134.65 82.67 133.41 82.14 132.16C101.7 123.54 121.26 114.91 142 105.77C138.13 102.55 135.69 100.52 133.1 98.36C113.25 107.62 94.01 116.59 71.42 127.12C88.6 147.78 111.73 149.15 129.33 158.32C150.08 147.08 169.64 136.48 190.95 124.93C186.3 122.7 183.47 121.34 180.98 120.14C160.71 129.91 141.14 139.34 121.82 148.65C118.57 146.95 115.8 145.49 109.79 142.34C129.25 132.73 146.65 124.14 164.04 115.56C163.48 114.21 162.93 112.85 162.37 111.5C138.42 117.94 116.81 131.14 92.01 139.47C93.2 136.66 93.91 135 94.62 133.33C100.65 130.65 106.69 127.96 112.72 125.28C114.09 124.62 115.45 123.95 116.82 123.29C122.84 120.6 128.86 117.92 134.88 115.23C136.9 114.57 138.92 113.91 140.95 113.24L141.65 112.78L140.98 113.27V113.3ZM130.91 52.93C132.26 56.28 133.61 59.64 134.96 62.99C135.83 66.29 136.7 69.58 137.56 72.88C138.07 72.69 138.57 72.5 139.08 72.3C137.68 69.22 136.27 66.14 134.87 63.06C133.55 59.68 132.23 56.31 130.9 52.93H130.91ZM120.84 97.21C116.16 99.23 111.48 101.25 106.81 103.27L103.3 104.48C103.54 104.87 103.77 105.26 104.01 105.65C104.93 104.83 105.84 104.02 106.76 103.2C111.44 101.18 116.11 99.16 120.79 97.14C123.66 96.61 126.52 96.09 129.39 95.56C129.18 94.93 128.97 94.29 128.76 93.66C126.12 94.85 123.49 96.03 120.85 97.22L120.84 97.21ZM128.91 77.09C112.1 82.14 95.29 87.18 78.48 92.23C78.94 93.56 79.41 94.9 79.87 96.23C96.21 89.83 112.54 83.44 128.88 77.04C129.99 76.64 131.1 76.24 132.22 75.84C132.03 75.51 131.84 75.19 131.66 74.86C130.75 75.6 129.83 76.35 128.92 77.09H128.91ZM151.03 103.25C150.8 103.14 150.57 103.02 150.34 102.91C150.58 103.01 150.82 103.12 151.06 103.22C169.24 111.09 187.43 118.95 204.48 126.33C207.53 138.41 210.11 148.65 212.83 159.39C212.83 154.21 212.98 149.55 212.8 144.9C212.1 126.84 208.47 121.39 191.28 115.43C178.05 110.84 164.46 107.27 151.03 103.25ZM28.49 35.94C52.61 27.98 75.44 20.44 98.97 12.68C89.72 8.64002 25.59 26.53 24.63 33.34C26.22 34.42 28.05 35.65 28.49 35.95V35.94ZM135.4 85.8C133.4 84.56 131.6 82.48 129.92 82.57C117.94 83.2 81.54 101.1 79.99 108.37C98.34 100.9 115.77 93.8 135.4 85.8ZM85.99 4.97C85.83 4.45 85.66 3.94001 85.5 3.42001C62.81 10.92 40.13 18.41 17.44 25.91C17.68 26.65 17.92 27.4 18.16 28.14C40.77 20.42 63.38 12.69 85.99 4.97ZM68.89 133.45C66.28 140.68 73.35 146.47 87.86 147.88C81.93 143.37 75.24 138.27 68.89 133.45ZM71.62 49.4C71.92 49.29 72.22 49.17 72.52 49.06C72.2 48.59 71.88 48.11 70.41 45.95C71.28 48.42 71.45 48.91 71.62 49.4ZM35.75 39.05C36.42 38.79 36.43 38.81 36.2 38.13C35.53 38.39 35.53 38.37 35.75 39.05Z" fill="black"/>
<path d="M184.21 172.06L183.95 171.36L184.62 171.46L184.21 172.06Z" fill="black"/>
</svg>
