<svg width="141" height="202" viewBox="0 0 141 202" fill="none" xmlns="http://www.w3.org/2000/svg">
<path d="M44.9547 139.769C38.9047 141.509 32.8547 143.249 26.2147 145.159C25.3247 159.809 24.4747 173.729 23.5547 188.739C17.8347 186.939 14.7847 185.969 8.58467 184.019C10.2147 189.759 11.2747 193.489 12.3347 197.219C13.5647 197.509 14.8047 197.789 16.0347 198.079L20.2247 190.239C21.4047 191.049 22.5847 191.849 23.7647 192.659C21.3147 195.839 19.1047 201.369 16.3547 201.649C12.2347 202.069 5.37467 199.989 3.83467 196.899C-0.955333 187.279 5.48466 181.469 14.2547 177.459V143.959C28.0147 137.639 41.7947 131.309 56.2147 124.689V110.689C41.4247 106.619 26.8447 103.299 12.7647 98.5087C0.694667 94.3987 -3.37533 83.2288 2.97467 74.9188C3.82467 73.7988 5.49466 73.3088 7.25466 72.2288C7.25466 78.3688 5.19466 85.2587 7.75466 88.5087C11.2747 92.9887 17.9947 96.2388 23.8547 97.3588C56.7947 103.659 89.7647 103.499 122.215 94.2987C134.205 90.8987 138.405 82.3788 134.285 69.1688C97.9447 74.6288 60.8847 79.4287 21.6747 76.5587C22.8247 57.6887 23.8347 41.0487 24.8447 24.4087C25.3747 24.4887 25.9047 24.5687 26.4447 24.6487V4.49875H108.035C108.115 5.14875 108.195 5.79873 108.275 6.44873C111.075 4.95873 113.875 3.45874 118.505 0.988739V65.4287C120.885 65.2087 123.375 64.3087 125.395 64.9387C130.665 66.5787 139.455 68.1088 140.085 71.0988C141.335 77.0488 140.205 86.7087 136.165 89.8787C128.725 95.7287 118.645 98.5187 109.345 101.619C98.6447 105.189 87.5847 107.709 73.8547 111.459C75.7847 118.789 77.4947 125.269 79.1947 131.749L79.1047 131.659C88.7247 133.459 98.3547 135.259 109.325 137.309C110.535 152.089 111.625 165.249 112.775 179.239C114.445 181.199 116.665 183.809 120.475 188.279C113.895 187.329 109.695 186.729 105.485 186.119C104.975 187.329 104.455 188.539 103.945 189.749C107.985 191.569 112.015 193.389 116.945 195.609C114.885 196.319 110.705 199.139 108.955 198.049C105.545 195.929 101.485 191.769 101.245 188.209C100.345 175.049 100.885 161.789 100.885 147.569C98.7547 146.429 95.8847 144.909 92.1547 142.919C91.7847 146.339 91.4947 149.059 91.1947 151.789L91.2547 151.719C91.2547 152.459 91.2547 153.199 91.2547 153.929L91.1747 153.849C91.6147 159.459 92.0647 165.069 92.4847 170.409C103.005 181.769 102.045 189.089 88.6247 193.889C72.2947 181.969 93.7947 164.959 83.5047 154.289C77.5547 147.559 72.3047 141.619 67.0547 135.689L67.1347 135.749C66.4247 135.749 65.7047 135.749 64.9947 135.739L65.0447 135.699C63.4147 135.439 61.7847 135.179 60.1547 134.909C61.6747 136.539 63.1847 138.179 64.7047 139.809C58.7747 142.599 52.8447 145.389 47.1547 148.069V188.919C43.8747 189.659 39.4447 191.749 35.4747 191.099C33.3747 190.749 30.1547 184.999 30.8647 182.799C31.8047 179.919 36.1247 178.149 38.9947 175.899C37.6447 178.819 36.3047 181.729 34.3747 185.899C37.6347 186.489 39.7747 186.879 43.2847 187.519C41.4247 182.619 40.1647 179.289 38.9047 175.949V146.579C40.6147 144.599 42.7347 142.139 44.8547 139.689C46.2247 139.029 47.5847 138.369 48.9547 137.709C50.4447 136.859 51.9447 136.009 53.4347 135.149C52.7347 134.369 52.0247 133.589 51.3247 132.809C50.5547 134.459 49.7847 136.109 49.0047 137.759C47.6447 138.429 46.2947 139.099 44.9347 139.769H44.9547ZM81.1447 139.779L81.2147 139.709C81.4547 140.079 81.6947 140.459 81.6447 140.379C81.7047 140.459 81.4247 140.119 81.1447 139.779ZM105.345 37.1387C89.6347 43.2587 73.6747 47.2387 56.6147 43.6487C49.3047 42.1087 41.8847 41.1187 34.0547 39.8087C33.5347 51.0487 33.0547 61.5187 32.5047 73.2687C58.4447 71.9287 84.0847 70.5987 110.255 69.2487V40.1787C108.645 39.1787 106.965 38.1387 105.285 37.0887L105.335 37.1487L105.345 37.1387ZM38.3747 11.0487C35.8347 21.2587 31.3347 29.7587 40.1247 35.7887C64.4747 34.5187 88.0447 41.8787 110.235 29.3287V11.0487H38.3647H38.3747ZM92.5047 178.779C90.6947 179.239 88.8747 179.689 87.0647 180.149C87.9147 183.119 88.7647 186.099 89.6147 189.069C91.1047 188.709 92.6047 188.339 94.0947 187.979C93.5647 184.909 93.0347 181.849 92.5047 178.779ZM64.6947 110.479C64.6947 110.639 64.6947 110.799 64.6947 110.959H67.2947C67.2947 110.799 67.2947 110.639 67.2947 110.479H64.6947Z" fill="black"/>
<path d="M91.2047 151.769C91.2047 152.459 91.2047 153.149 91.2047 153.839L91.2847 153.919C91.2847 153.179 91.2847 152.439 91.2847 151.709L91.2247 151.779L91.2047 151.769Z" fill="black"/>
<path d="M67.0847 135.679C66.4147 135.679 65.7347 135.679 65.0647 135.679L65.0147 135.719C65.7247 135.719 66.4447 135.719 67.1547 135.729L67.0747 135.669L67.0847 135.679Z" fill="black"/>
</svg>
