<svg width="150" height="214" viewBox="0 0 150 214" fill="none" xmlns="http://www.w3.org/2000/svg">
<path d="M1.56001 40.52C2.32001 36.46 3.09001 32.39 3.85001 28.33C4.60001 29.2 5.35001 30.08 6.10001 30.95C21.82 24.37 37.55 17.79 53.23 11.23C55.02 7.35 56.72 3.68 58.42 0C59.38 0.01 60.33 0.03 61.29 0.04C62.29 3.54 63.83 6.99 64.16 10.56C64.68 16.22 65.08 22.04 64.32 27.63C61.05 51.6 72.27 70.38 85.73 88.26C87.87 91.11 92.06 93.12 95.67 94.03C103.77 96.06 112.26 96.57 120.28 98.84C124.47 100.02 127.97 103.61 133.18 107.03C124.87 114.08 118.57 119.41 111.38 125.51C116.4 131.69 121.57 138.05 126.71 144.36C130.69 144.87 134.42 145.34 138.97 145.92C137.82 149.88 137.03 152.63 136.08 155.9C140.28 161.34 144.66 167.04 149.89 173.82C146.28 175.15 144.08 175.95 142.34 176.59C137.08 170.56 132.51 165.31 126.87 158.84C111.47 169.02 96.61 178.85 81.27 189C85.89 196.83 90.05 203.89 94.22 210.96C93.07 211.69 91.92 212.42 90.77 213.15C67.38 203.43 65.83 175.69 48.55 159.27C38.35 166.12 28.18 172.95 17.79 179.93V195.96C15.12 196.61 12.77 197.18 10.58 197.71C9.51999 196.28 8.51 195.54 8.43 194.7C7.96 190.06 7.63002 185.4 7.39002 180.74C5.18002 137.62 2.96001 94.5 0.850014 51.38C0.670014 47.76 1.24001 44.1 1.47001 40.45L1.56001 40.54V40.52ZM75.97 141.07C77.33 141.07 78.68 141.07 80.04 141.06C77.39 144.41 74.73 147.76 72.08 151.11L73.49 152.43C70.29 156.04 67.08 159.64 63.88 163.25L63.93 163.2C67.14 168.85 70.36 174.5 74.34 181.51C90.73 171.3 105.76 161.93 121.82 151.92C114.83 143.1 108.95 135.7 103.19 128.44C94.61 132.39 87.32 135.74 80.03 139.09C78.68 139.76 77.33 140.43 75.98 141.1L73.94 143.08C72.61 143.76 71.28 144.45 69.95 145.13L65.9 147.15C62.77 146.83 59.64 146.52 57.65 146.32C78.48 133.55 99.43 121.08 120.56 108.82C112.07 96.14 97.48 100.81 85.01 98.92C82.02 97.56 79.02 96.19 74.92 94.32C61.32 102.46 47.44 110.77 32.26 119.86C41.18 131.77 49.36 142.69 58.11 154.37C62.08 150.62 63.96 148.85 65.84 147.08C67.2 146.42 68.56 145.76 69.93 145.1C71.28 144.44 72.64 143.78 73.99 143.12C74.65 142.44 75.31 141.76 75.96 141.08L75.97 141.07ZM56.27 14.24C39.41 22.02 25.88 28.25 11.45 34.91C12.28 47.13 13.06 58.59 13.98 72C27.79 65.74 39.68 60.35 51.57 54.96C52 55.98 52.43 57 52.86 58.02C40.14 64.36 27.43 70.7 14.92 76.94C10.63 94.01 23.65 102.75 30.62 115.69C40.29 109.53 48.88 104.06 56.27 99.35V14.24ZM16.37 169.4C25.73 163.15 32.72 158.47 41.3 152.74C31.73 148.54 24.65 145.43 16.37 141.8V169.4ZM12.78 134.62C22.6 137.76 28.83 139.75 37.89 142.64C32.63 135.29 29.09 130.34 24.64 124.13C20.99 127.36 18.17 129.86 12.78 134.62ZM15.77 109.85C14.97 110.22 14.16 110.6 13.36 110.97C13.88 114.97 14.41 118.97 15.08 124.12C18.38 122.22 20.22 121.17 22.83 119.67C20.18 115.99 17.98 112.91 15.77 109.84V109.85ZM67.07 92.46C70.7 90.6 72.71 89.57 75.46 88.16C72.54 84.64 70.34 82 67.07 78.05V92.46Z" fill="black"/>
<path d="M26.66 53.02C27.48 52.35 28.3 51.67 29.11 51L30.24 52.03L28.29 54.65C27.74 54.11 27.2 53.56 26.65 53.02H26.66Z" fill="black"/>
<path d="M40.73 49.35C39.9 49.71 39.07 50.07 38.24 50.43C38.04 49.99 37.84 49.54 37.64 49.1C38.46 48.71 39.28 48.33 40.1 47.94C40.31 48.41 40.52 48.88 40.74 49.35H40.73Z" fill="black"/>
<path d="M32.95 33.56C32.86 34.24 32.76 34.93 32.67 35.61L31.61 35.43C31.74 34.75 31.87 34.07 32.01 33.4C32.32 33.46 32.64 33.51 32.95 33.57V33.56Z" fill="black"/>
<path d="M37.93 40.98C37.83 40.52 37.73 40.07 37.93 40.98C37.56 40.66 37.2 40.33 37.93 40.98Z" fill="black"/>
<path d="M45.17 27.1C45.09 27.63 45.02 28.16 45.17 27.1C45.98 28.03 45.58 27.56 45.17 27.1Z" fill="black"/>
<path d="M17.84 43.11C17.03 42.72 17.04 42.75 17.42 41.93C18.23 42.32 18.22 42.29 17.84 43.11Z" fill="black"/>
<path d="M68.52 135.36C68.58 134.6 68.65 133.84 68.71 133.08C69.1 133.13 69.49 133.18 69.88 133.23C69.76 133.98 69.65 134.72 69.53 135.47C69.19 135.43 68.85 135.4 68.51 135.36H68.52Z" fill="black"/>
<path d="M53.88 132.38C52.45 132.18 51.89 132.11 53.88 132.38C52.5 132.86 51.87 133.08 53.88 132.38Z" fill="black"/>
<path d="M80.84 113.17C80.11 113.44 80.1 113.45 79.62 112.84L80.79 112.4C80.81 112.66 80.82 112.91 80.84 113.17Z" fill="black"/>
<path d="M64.14 114.18C62.27 114.99 62.1499 114.3 63.3099 112.97C63.5899 113.37 63.86 113.78 64.14 114.18Z" fill="black"/>
<path d="M77.38 102.57C77.6 102.74 77.81 102.9 78.02 103.06C77.38 103.86 77.35 104.33 76.51 103.67C76.8 103.3 77.09 102.93 77.38 102.56V102.57Z" fill="black"/>
<path d="M100.42 110.38C100.36 110.89 100.29 111.39 100.42 110.38C101.15 111.25 100.78 110.81 100.42 110.38Z" fill="black"/>
<path d="M48.0701 124.16C47.5501 124.23 47.05 124.29 46.55 124.36C46.69 122.25 47.3401 122.5 48.0701 124.16Z" fill="black"/>
<path d="M83.14 123.5C83.79 123.64 84.44 123.78 87.19 124.38C84.41 124.67 83.76 124.73 83.11 124.8C83.12 124.37 83.13 123.93 83.14 123.5Z" fill="black"/>
<path d="M61.27 140.27C61.07 140.08 60.86 139.89 60.66 139.71C61.06 139.49 61.45 139.27 61.85 139.05C62.07 139.9 62.07 139.9 61.27 140.27Z" fill="black"/>
<path d="M74.92 123.67L74.64 122.94L75.34 123.02L74.92 123.67Z" fill="black"/>
<path d="M79.98 141.13C79.98 140.43 79.98 139.72 79.98 139.02C80.13 139.5 80.34 139.98 80.4 140.47C80.42 140.67 80.13 140.91 79.98 141.13Z" fill="black"/>
</svg>
