<svg width="132" height="188" viewBox="0 0 132 188" fill="none" xmlns="http://www.w3.org/2000/svg">
<path d="M103.97 180.829C102.81 182.879 101.64 184.929 101.06 185.949C91.7896 178.769 84.1496 171.339 75.1296 166.429C69.9196 163.589 62.0696 163.089 56.1696 164.579C44.3596 167.559 33.0696 172.639 20.7096 177.159C18.1196 179.699 14.5196 183.229 10.2596 187.409C6.60961 180.669 4.12961 176.089 0.599609 169.589C3.30961 167.169 6.57959 164.249 9.85959 161.319C10.4996 161.899 11.1496 162.479 11.7896 163.049C10.1196 165.429 8.44959 167.799 6.76959 170.179C7.11959 171.189 7.4596 172.199 7.8096 173.209C19.7996 170.289 32.7596 169.329 43.5696 164.009C60.7196 155.579 74.9196 157.709 89.2196 169.039C92.6696 171.769 97.3096 173.009 102.26 173.669C95.1496 154.149 66.4596 148.679 73.6496 121.449H53.4096C52.9396 139.529 45.6696 152.479 26.9196 156.829C40.8396 148.819 50.1196 138.239 48.4296 123.969C36.8596 116.419 25.3696 111.269 17.1196 102.929C6.8196 92.5287 11.3796 80.1287 26.3696 74.8187C25.5896 76.5587 25.3996 77.8187 24.6596 78.5087C14.0996 88.3987 14.0596 99.3087 26.6896 106.679C35.0196 111.549 45.3296 114.289 55.0196 115.259C65.8696 116.339 77.3396 115.679 87.9296 113.189C95.0496 111.519 102.63 106.599 107.34 100.929C116.4 90.0087 111.57 77.2587 97.6296 75.7887C79.4296 73.8687 60.9896 74.2487 42.6496 73.7188C40.1696 73.6487 37.6696 74.0188 35.1796 74.1888C34.9596 73.0288 34.7396 71.8687 34.5296 70.7087C43.0696 69.2787 51.6096 67.8487 61.6396 66.1687C62.2296 61.4787 62.8596 56.3987 63.5096 51.1987C57.8596 47.3087 52.6096 44.2787 48.0896 40.3987C43.5696 36.5287 39.0096 32.2987 35.8196 27.3587C26.2596 12.5287 30.9496 1.56873 48.1296 0.968732C72.8296 0.108732 97.5996 0.928741 122.32 1.75874C125.72 1.86874 131.57 5.90874 131.77 8.47874C132.24 14.3687 129.91 20.4787 128.72 26.4987C127.58 26.2587 126.45 26.0087 125.31 25.7687C126.15 20.1487 126.98 14.5287 127.99 7.72874C123.02 7.02874 119.52 6.17874 116.01 6.08874C92.6096 5.49874 69.2196 5.02874 45.8196 4.62874C37.1196 4.47874 33.8696 10.5787 37.2996 20.2387C42.3796 34.5387 60.6396 46.4787 78.7796 47.3887C91.8696 48.0487 103.17 44.1087 112.45 34.6687C114.63 32.4487 117.03 30.4487 120.22 29.4487C114.17 42.7287 102.1 48.2087 87.9296 52.9387C87.4196 57.3587 86.8796 62.0687 86.2896 67.2188C99.6696 72.3187 118.55 71.4887 115.78 91.6487C113.11 111.089 98.4796 118.989 79.1396 119.969V128.929C87.3796 132.319 95.2796 135.559 104.44 139.329C101.66 144.489 99.5396 148.419 96.6396 153.809C101.51 160.149 106.96 167.259 113.44 175.709C109.21 178.019 106.57 179.469 103.93 180.909L103.98 180.859L103.97 180.829ZM68.7696 51.3387C68.1496 57.0487 67.6296 61.7688 67.0596 66.9688H80.6496C81.1596 62.1487 81.5896 57.9987 82.0996 53.1087C77.2996 52.4687 73.4796 51.9687 68.7596 51.3387H68.7696ZM92.0896 147.689C93.8396 146.279 95.8796 144.629 99.9096 141.369C91.6996 139.169 85.9096 137.619 80.1196 136.069C79.8896 137.069 79.6596 138.059 79.4296 139.059C83.0796 141.549 86.7296 144.039 92.0896 147.689Z" fill="black"/>
<path d="M26.2796 95.6187H97.1296C86.6396 107.369 34.6896 105.499 26.2796 95.6187Z" fill="black"/>
<path d="M17.4396 160.749C17.8596 160.519 18.2796 160.289 18.0996 160.389C18.2896 160.309 17.8396 160.499 17.3896 160.699L17.4396 160.749Z" fill="black"/>
<path d="M17.3896 160.699L16.9996 161.099L17.4396 160.749L17.3896 160.699Z" fill="black"/>
</svg>
