<svg width="193" height="200" viewBox="0 0 193 200" fill="none" xmlns="http://www.w3.org/2000/svg">
<path d="M25.34 30.3301C28.6 29.7301 31.85 29.1201 35.94 28.3601C37.61 31.3901 39.28 34.42 41.12 37.76C20.04 38.47 9.63003 45.9201 5.88003 63.1701C9.11003 60.2601 11.65 57.4401 14.71 55.3901C17.63 53.4301 21.09 52.2801 25.38 52.1601C24.05 53.6301 22.73 55.0901 21.4 56.5601C18.52 58.5001 15.64 60.4401 12.76 62.3801C13.58 63.2901 14.39 64.2001 15.21 65.1101C17.25 62.2301 19.29 59.3501 21.32 56.4701C20.69 59.0401 20.45 61.8001 19.35 64.1501C15.87 71.6301 12.07 78.96 8.39004 86.35C9.55004 86.83 10.71 87.31 11.88 87.79C13.36 83.01 14.83 78.2401 16.41 73.1201C19.3 73.2801 22.29 73.4501 26.56 73.7001C23.1 78.9801 19.2 83.4401 17.03 88.6201C14.78 93.9901 14.21 100.06 14.8 106.48C16.98 101.23 19.15 95.9901 21.33 90.7501L21.25 90.8101C21.97 90.0901 22.69 89.3701 23.41 88.6501L23.36 88.7201C25.33 87.6701 27.31 86.6201 30.32 85.0201C29.73 90.8301 29.26 95.4801 28.79 100.12C29.16 100.54 29.53 100.97 29.9 101.39C37.08 106.27 35.86 112.62 33.9 119.78C31.04 130.22 25.28 140.7 30.36 150.67C33 139.15 35.83 126.78 38.66 114.41C40.16 114.75 41.66 115.09 43.16 115.43C41.93 120.61 40.69 125.79 39.46 130.97C38.17 133.44 36.87 135.92 35.58 138.39C36.13 138.62 36.69 138.84 37.24 139.07C37.96 136.35 38.68 133.63 39.4 130.91C42.11 126.89 44.83 122.86 48.22 117.83C49.19 121.17 49.88 123.53 50.83 126.76C52.89 125.05 54.69 123.55 56.76 121.83C57.36 122.98 58.29 123.89 58.16 124.62C56.74 132.74 54.82 140.78 53.7 148.94C52.61 156.82 52.29 164.8 51.6 173.19C48.61 171.49 43.5 168.48 38.25 165.72C37.71 165.44 36.39 166.66 35.43 167.18H35.41C31.1 162.16 26.32 157.44 22.63 151.99C19.38 147.19 16.87 141.73 14.9 136.26C11.66 127.26 8.80002 118.09 6.40002 108.83C5.08002 103.75 5.18003 98.3201 4.38003 93.0901C3.08003 84.5701 -0.739976 75.6601 0.690024 67.6701C2.87002 55.5301 6.20003 42.1801 13.41 32.6501C26.96 14.7401 46.17 3.50005 69.06 0.450052C83.48 -1.46995 112.54 15.9001 115.51 27.4401C118.38 29.1201 121.15 30.7401 123.91 32.3601L123.98 32.29C124.66 35.03 125.34 37.7601 126.02 40.5001L125.92 40.35C127.96 42.37 130 44.4001 132.05 46.4201L131.99 46.48C133.68 49.95 135.38 53.4201 137.56 57.9001C134.86 58.2401 133.41 58.42 131.95 58.6C131.77 58.19 131.59 57.7901 131.61 57.8301C131.58 57.7801 131.82 58.14 132.06 58.51C132.52 62.91 132.98 67.3201 133.52 72.4301C136.74 73.2601 139.42 73.9501 142.1 74.6401L142.04 74.6101C143.9 75.2001 145.76 75.7801 147.61 76.3701C148.07 76.6401 148.53 76.9101 148.99 77.1901C150.07 77.7001 151.15 78.2101 152.23 78.7101L152.1 78.5801C152.55 82.3101 153 86.04 153.39 89.29C146.96 86.02 140.19 82.5801 133.42 79.1401C133.15 80.1501 132.87 81.1601 132.6 82.1701C129.04 83.6801 125.47 85.1801 121.91 86.6901L121.95 86.7101C123.59 82.8901 125.22 79.07 126.86 75.26C131.38 57.48 116.41 32.2901 95.54 21.7401C96.81 20.5701 97.86 19.6001 99.27 18.3001C94.91 15.9301 90.67 13.6201 86.23 11.2001C82.8 12.0801 79.3 12.98 74.29 14.26C76.02 10.86 77.16 8.61005 78.76 5.45005C74.9 5.19005 71.71 4.98007 68.3 4.75007C68.79 8.41007 69.18 11.3601 69.58 14.3001L69.66 14.2101C64.99 14.1301 60.3 14.3101 55.66 13.8901C52.51 13.6001 49.44 12.4701 45.28 14.2001C49.02 17.4301 52.77 20.6501 56.51 23.8801C56.11 24.5001 55.71 25.1201 55.31 25.7401C51.95 24.1201 48.59 22.51 45.01 20.79C38.47 23.98 31.92 27.1701 25.37 30.3701C24.69 31.0101 24.01 31.6601 23.33 32.3001L23.42 32.3801C24.06 31.7001 24.7 31.0101 25.34 30.3301ZM21.25 104.73C21.63 104.07 22.01 103.41 21.51 104.28C21.81 103.33 21.58 104.07 21.35 104.81C20.99 105.56 20.63 106.31 21.22 105.08C21.09 106.44 21.17 105.59 21.25 104.73ZM21.29 126.98C20.97 132.25 20.64 137.52 20.32 142.78C21.41 142.83 22.49 142.88 23.58 142.93C24.04 134.23 24.49 125.53 24.95 116.83C24.33 116.75 23.71 116.66 23.09 116.58C22.51 120.03 21.94 123.48 21.36 126.92L21.29 126.98ZM45.65 132.33C37.53 148.12 37.38 156.52 43.34 161.21C44.02 152.71 44.74 143.71 45.65 132.33Z" fill="black"/>
<path d="M176.24 98.79C180.03 100.55 183.82 102.32 187.76 104.15C186.18 99.7801 184.31 94.6301 182 88.2701C179.88 89.95 178.81 90.7901 177.74 91.6501C172.73 89.1301 171.84 78.04 162.69 84.45C159.07 82.44 155.58 80.51 152.09 78.58L152.22 78.7101C151.14 78.2001 150.06 77.6901 148.98 77.1901C148.52 76.9201 148.06 76.6501 147.6 76.3701C145.74 75.7801 143.88 75.2 142.03 74.61L142.09 74.64C140.72 72.34 139.34 70.05 137.45 66.89C187.39 69.94 205.58 101.08 182.29 143.97C182.29 135.49 182.29 129.21 182.29 122.93L182.69 122.27L182.34 122.98C179.16 114.76 175.97 106.53 172.53 97.6501C173.74 98.0101 175.01 98.38 176.29 98.76L176.24 98.8101V98.79Z" fill="black"/>
<path d="M81.71 179.25V182.79C80.66 183.24 79.62 183.68 78.57 184.13C73.88 175.55 69.19 166.96 63.59 156.71C64.82 165.21 65.9 172.61 66.88 179.37C56.02 176.42 54.36 160.99 63.21 136.3C66.84 137.86 70.59 139.47 75.26 141.48C73.38 150.39 70.56 159.39 74.12 168.28C77.13 159.52 80.15 150.75 83.16 141.99C84.29 142.11 85.41 142.23 86.54 142.35V165.86C85.77 165.89 85.01 165.91 84.24 165.94C85.03 168.75 85.83 171.56 86.76 174.84C85.07 176.31 83.36 177.8 81.65 179.29C81.08 177.42 80.52 175.54 79.95 173.67C79.52 173.9 79.08 174.13 78.65 174.36C79.67 175.99 80.69 177.62 81.71 179.25ZM69.63 147.08C69.5 147.31 69.36 147.54 69.23 147.77C69.35 147.53 69.48 147.29 69.6 147.06L69.63 147.09V147.08Z" fill="black"/>
<path d="M166.81 153.55C166.3 160.48 165.8 167.27 165.29 174.07C164.39 174.32 163.48 174.57 162.58 174.82C159.14 170.78 155.7 166.75 150.92 161.14C155.16 147.45 159.61 133.07 164.27 118.03C169.3 120.31 173.45 122.2 177.22 123.91C179.93 137.58 176.39 147.17 166.81 153.55ZM164.5 137.6C163.26 137.39 162.01 137.17 160.77 136.96C160.02 141.49 159.28 146.01 158.53 150.54C159.54 150.74 160.56 150.93 161.57 151.13C162.55 146.62 163.53 142.11 164.5 137.6ZM169.44 142.29C169.62 142.52 169.88 142.86 170.59 143.77C170.92 141.34 171.18 139.43 171.75 135.16C170.48 139.06 169.97 140.64 169.43 142.29H169.44ZM166.55 128.48C167.17 126.91 167.02 127.28 166.55 128.48C167.27 126.95 167.1 127.32 166.55 128.48Z" fill="black"/>
<path d="M130.03 100.76C127.86 101.08 125.45 102.16 123.55 101.57C119.42 100.29 115.55 98.1601 112.73 96.9001C110.48 100.55 109.16 102.69 107.84 104.83C107.16 104.16 106.49 103.48 105.81 102.81C105.55 102.68 105.29 102.55 105.03 102.42C105.3 102.54 105.58 102.65 105.85 102.77C106.52 103.45 107.2 104.12 107.87 104.8C99.86 104.2 91.86 103.6 83.85 103C83.73 102.13 83.6 101.26 83.48 100.38C96.3 95.8201 109.13 91.2701 121.95 86.7101L121.91 86.6901C125.22 87.9801 128.53 89.28 131.84 90.57L132.25 90.8701C133.41 92.0001 134.57 93.13 135.73 94.26C135.98 94.57 136.24 94.8801 136.49 95.1801C137.02 95.7201 137.56 96.2701 138.09 96.8101L138.01 96.7C136.67 97.39 135.33 98.09 133.99 98.79L134.03 98.76C133.88 99.65 133.73 100.54 133.48 101.97C132.14 101.54 131.06 101.18 129.97 100.83C129.29 100.15 128.6 99.48 127.92 98.8C125.91 97.47 123.91 96.13 121.9 94.8C121.7 94.37 121.51 93.9401 121.6 94.1301C121.49 93.9401 121.73 94.3401 121.97 94.7401C123.98 96.0601 125.99 97.3901 128 98.7101C128.68 99.3901 129.35 100.08 130.03 100.76Z" fill="black"/>
<path d="M117.92 163.15C116.79 165.88 115.66 168.6 114.6 171.17C124.34 179.06 125.08 192.53 115.56 199.67C106.25 178.22 112.82 158.18 121.25 138.15C120.87 142.99 120.48 147.82 120.1 152.66L119.79 153.4C119.16 156.66 118.53 159.93 117.9 163.19L117.92 163.16V163.15Z" fill="black"/>
<path d="M141.79 168.95V152.1C139.41 153.69 137.82 154.75 134.03 157.28C137.3 148.92 139.66 142.92 142.22 136.37C144.72 137 146.8 137.53 148.98 138.09C149.52 136.62 150.24 134.68 150.95 132.74C152.19 133.06 153.43 133.37 154.67 133.69C151.29 145.37 147.9 157.05 144.52 168.72C143.61 168.8 142.7 168.87 141.79 168.95Z" fill="black"/>
<path d="M120.1 152.65C120.94 151.27 121.78 149.88 122.63 148.5C123.3 148.6 123.97 148.7 124.63 148.81C124.17 152.29 123.71 155.77 123.08 160.56C126.91 151.7 130.27 143.94 133.63 136.18C134.38 136.47 135.13 136.76 135.88 137.05C132.78 150.99 129.69 164.92 126.16 180.78C122.86 173.73 120.39 168.44 117.92 163.16L117.9 163.19C118.53 159.93 119.16 156.66 119.79 153.4L120.1 152.66V152.65Z" fill="black"/>
<path d="M103.86 161.13C93.58 167.09 96.18 175.74 98.97 184.44C88.79 180.6 90.45 159.76 103.79 143.08V161.25L103.86 161.14V161.13Z" fill="black"/>
<path d="M35.41 167.18C36.74 169.2 38.07 171.23 39.4 173.25L39.46 173.18C38.78 173.87 38.1 174.57 37.42 175.26C36.76 177.94 36.09 180.61 35.43 183.29L34.93 184.01L35.38 183.24C36.04 180.56 36.7 177.87 37.36 175.19C37.97 175.07 38.59 175 39.21 175L39.69 175.51C38.82 182.1 37.95 188.7 37.08 195.29C35.34 195.11 33.6 194.93 31.87 194.75C23.77 185.04 32.06 176.26 35.4 167.2L35.42 167.19L35.41 167.18Z" fill="black"/>
<path d="M89.1301 112.73C83.1901 111.34 77.24 109.95 71.3 108.56C71.58 107.38 71.8601 106.2 72.1401 105.02C78.1101 106.38 84.0801 107.73 90.0601 109.09C89.7501 110.3 89.4401 111.52 89.1301 112.73Z" fill="black"/>
<path d="M103.79 161.24C105.99 157.38 108.19 153.53 110.39 149.67C111.05 149.93 111.71 150.19 112.37 150.45C110.69 156.55 109.01 162.64 107.33 168.74C106.71 168.81 106.1 168.89 105.48 168.96C104.94 166.35 104.4 163.74 103.86 161.13L103.79 161.24Z" fill="black"/>
<path d="M161.07 102.28C161.25 105.77 161.42 109.25 161.6 112.74C160.64 112.81 159.67 112.89 158.71 112.96C158.23 109.52 157.75 106.07 157.27 102.63L161.07 102.28Z" fill="black"/>
<path d="M136 90.7501C139.16 93.6201 142.32 96.4901 145.49 99.3701C144.72 100.24 143.95 101.11 143.18 101.97C141.46 100.21 139.73 98.46 138.01 96.7L138.09 96.8101C137.56 96.2701 137.02 95.7201 136.49 95.1801C136.24 94.8701 135.98 94.56 135.73 94.26C135.84 93.06 135.96 91.87 136.07 90.67L136.01 90.7501H136Z" fill="black"/>
<path d="M125.95 34.42C127.86 35.36 129.78 36.3001 131.69 37.2401C131.04 38.1701 130.4 39.1001 129.75 40.0301C128.47 40.1401 127.19 40.25 125.91 40.35L126.01 40.5001C126.01 38.4501 126.01 36.4 126.01 34.35L125.96 34.4101L125.95 34.42Z" fill="black"/>
<path d="M63.68 23.8601C62.71 23.2601 60.7301 22.7101 61.3201 21.3601C61.8901 20.0301 63.65 21.24 64.74 21.6C64.39 22.35 64.03 23.1101 63.68 23.8601Z" fill="black"/>
<path d="M21.3301 90.7401C21.0601 89.9501 20.8001 89.15 20.3401 87.8C21.7301 88.22 22.5401 88.46 23.3601 88.7L23.4101 88.6301C22.6901 89.3501 21.9701 90.07 21.2501 90.79L21.3301 90.73V90.7401Z" fill="black"/>
<path d="M131.83 90.5601C133.22 90.6201 134.61 90.6901 136 90.7501L136.06 90.67C134.78 90.74 133.51 90.8001 132.23 90.8701L131.82 90.57L131.83 90.5601Z" fill="black"/>
<path d="M28.79 100.11C29.5 99.81 30.21 99.5101 32.36 98.5901C30.85 100.29 30.37 100.83 29.9 101.38C29.53 100.96 29.16 100.54 28.79 100.11Z" fill="black"/>
<path d="M39.4 173.25C40.22 173.47 41.05 173.69 42.47 174.06C41.18 174.72 40.43 175.11 39.68 175.49C39.68 175.49 39.2 174.99 39.21 174.99C39.3 174.39 39.38 173.78 39.46 173.17L39.4 173.24V173.25Z" fill="black"/>
<path d="M123.9 32.36C124.58 33.04 125.27 33.7301 125.95 34.4101L126 34.35C125.32 33.66 124.65 32.98 123.97 32.29L123.9 32.36Z" fill="black"/>
<path d="M21.35 126.92C21.6 127.35 21.84 127.77 22.09 128.2C22.06 128.22 22.03 128.23 22.01 128.25C21.77 127.83 21.53 127.4 21.29 126.98L21.36 126.92H21.35Z" fill="black"/>
</svg>
