<svg width="120" height="189" viewBox="0 0 120 189" fill="none" xmlns="http://www.w3.org/2000/svg">
<path d="M8.51982 84.1301C6.88982 83.5601 5.25982 83.0001 0.819824 81.4601C20.9698 73.8001 38.5098 67.1301 55.2298 60.7701V17.7C75.7198 12 94.8998 6.67005 115.57 0.930054C116.89 56.0601 118.23 111.67 119.56 167.28C118.33 167.64 117.09 168.01 115.86 168.37C106.15 161.35 112.8 141.55 94.0398 140.67C86.9698 143.71 78.1198 147.51 68.3698 151.7C69.1698 163.52 69.9698 175.14 70.8698 188.45C54.2698 175.65 39.7798 164.47 24.4798 152.67C21.0298 157.8 18.4398 161.66 15.8398 165.51C14.8298 165.4 13.8098 165.28 12.7998 165.17C11.3998 138.18 9.99982 111.19 8.59982 84.2101C9.24982 83.5401 9.88983 82.87 10.5398 82.2C14.2098 83.56 18.0198 84.6301 21.5198 86.3401C33.6198 92.2401 45.6198 98.36 60.5098 105.82C58.7798 91.01 57.4298 79.52 55.8998 66.42C40.8498 71.64 25.6798 76.9101 10.5098 82.1801C9.84982 82.8401 9.18982 83.4901 8.52982 84.1501L8.51982 84.1301ZM109.14 15.8101C108.48 17.1601 107.82 18.5 107.16 19.85C101.62 32.25 96.0698 44.6401 90.0998 58.0001C95.9498 64.5101 101.71 70.9101 107.47 77.3101C108.61 76.7801 109.76 76.2501 110.9 75.7101C109.63 57.0701 108.36 38.43 107.09 19.79C107.75 18.43 108.4 17.0701 109.06 15.7101C109.46 15.5301 109.86 15.36 109.8 15.39C109.87 15.35 109.5 15.5801 109.14 15.8101ZM93.0298 70.1H93.0398C91.4798 68.26 89.9198 66.44 88.3598 64.61C87.7698 65.31 87.1798 66.01 86.5898 66.7C88.7398 67.83 90.8898 68.9601 93.0298 70.0901V70.1ZM70.8698 100.25C83.2498 97.1501 95.6298 94.05 108.02 90.95C108.42 89.44 108.83 87.9401 109.23 86.4301C101.45 81.4001 93.6798 76.37 83.6598 69.89C78.7098 81.71 74.8198 91.0101 70.9298 100.31L70.8798 100.26L70.8698 100.25ZM60.5998 145.99C59.7698 133.73 59.0298 122.83 58.2098 110.73C47.0898 105.13 35.8998 99.5001 24.2798 93.6501C22.3498 97.2801 20.8198 100.16 19.8498 101.97C21.1298 117.17 22.2998 131.1 23.5098 145.57C28.5498 148.53 33.3698 151.35 38.3298 154.26C45.6498 151.54 52.4598 149.01 60.5998 145.98V145.99ZM78.2298 118.83C88.1698 125.88 98.0598 132.9 108.77 140.51V94.95C97.2298 98.63 87.8298 101.64 78.2298 104.7V118.83ZM86.3798 53.17C92.8198 38.5 98.1198 26.4301 104.35 12.2501C90.5298 17.2801 79.4498 21.32 66.5898 26.01C73.3598 35.31 79.0498 43.11 86.3798 53.17ZM68.4398 144.32C76.5398 141.48 83.5698 139.02 92.6398 135.84C87.7798 132.17 84.7298 129.88 82.7398 128.37C78.6798 131.2 75.5198 133.4 70.5598 136.85V108.26C69.8498 108.26 69.1498 108.26 68.4398 108.26V144.31V144.32ZM63.3798 37.6901C64.1398 44.7701 64.7798 50.7 65.4298 56.73H74.3898C75.5898 59.11 76.6498 61.21 77.8598 63.61C84.4498 56.35 81.3598 50.9001 63.3798 37.6801V37.6901ZM77.7798 69.0301C73.5198 66.8201 70.2098 65.11 65.7798 62.82V93.5301C70.1598 84.5901 73.6398 77.4901 77.7798 69.0301ZM60.0898 154.26C54.9198 155.78 50.7698 157 44.8098 158.75C50.8398 163.88 55.1798 167.58 61.3498 172.83C60.8398 165.21 60.5098 160.34 60.0898 154.26ZM66.2298 20.9001L65.6498 20.5901L65.5398 21.04L66.2298 20.9001Z" fill="black"/>
</svg>
