<svg width="110" height="206" viewBox="0 0 110 206" fill="none" xmlns="http://www.w3.org/2000/svg">
<path d="M8.59438 125.77C7.90438 128.29 7.21438 130.81 5.97438 135.34C38.7844 133.91 70.8444 132.52 106.204 130.98C97.7444 122.03 91.6944 115.63 85.1544 108.71H26.9544C26.8444 107.74 26.7344 106.77 26.6344 105.8C37.7544 104.68 48.8844 103.55 60.1044 102.42V27.25H76.5244V102.88C76.5944 102.88 77.8844 103.18 79.1044 102.99C80.6444 102.74 82.1244 102.09 82.1044 102.09V7.09999C81.3244 7.05999 80.5344 7.02 79.7544 6.98C78.7944 10.09 77.8444 13.21 76.4144 17.84H28.6244C27.0044 13.85 25.8244 10.95 24.6444 8.05C23.9244 8.08 23.2044 8.11 22.4944 8.14C21.8544 12.72 21.2144 17.31 20.5744 21.89C19.9644 21.98 19.3544 22.07 18.7444 22.16C17.9444 16.69 17.1344 11.23 16.1344 4.39999C20.8744 3.54999 24.8444 2.84 29.0744 2.09C30.6844 6.12 31.8744 9.13 33.5144 13.25H72.7644C73.6844 9.08 74.5944 4.96 75.6744 0H87.0244C87.0244 15.06 86.9944 29.32 87.0244 43.59C87.0544 56 87.9044 68.45 87.0644 80.8C85.8144 99.39 90.5644 114.63 106.594 123.12C107.634 146.29 108.844 167.89 109.344 189.5C109.434 193.65 106.694 197.86 105.254 202.04C103.914 201.67 102.574 201.3 101.234 200.93V150.92L97.9444 150.95C98.5844 165.13 99.2244 179.31 99.8644 193.5C98.3644 193.64 96.8544 193.78 95.3544 193.92C94.1744 179.01 92.9944 164.11 91.8144 149.2C91.2344 149.13 90.6444 149.05 90.0644 148.98C89.6944 154.5 89.3244 160.02 88.8744 166.64C86.5244 167.71 83.7444 168.97 79.3144 171C78.5844 162.86 78.0144 156.45 77.3444 148.94H38.9644C38.9244 147.94 38.8944 146.94 38.8544 145.94C47.8544 145.17 56.8444 144.14 65.8544 143.72C75.5644 143.27 85.3044 143.59 95.0144 143.15C97.9744 143.02 100.874 141.48 103.124 138.1H5.98438C7.52438 158.99 8.93438 178.01 10.3344 197.02C10.6544 197.01 10.9744 196.99 11.3044 196.98V147.19C15.6544 147.75 16.7044 151.2 17.1944 168.73C18.1244 202.05 17.6944 203.67 5.38438 205.91C4.82438 194.22 4.53438 182.71 3.63438 171.25C2.96438 162.62 1.59438 154.04 0.394377 145.45C-0.745623 137.24 0.184377 129.99 8.60438 125.82L8.58438 125.8L8.59438 125.77ZM66.5844 98.6L69.3644 99.18C70.4844 97.52 72.5544 95.87 72.5744 94.19C72.7244 75.14 72.7344 56.09 72.2444 37.05C72.1944 35.01 68.7944 33.06 66.9444 31.06C65.7244 31.7 64.5044 32.35 63.2844 32.99C64.3844 54.86 65.4744 76.72 66.5744 98.59L66.5844 98.6ZM84.2544 157.41C83.9944 157.41 83.7444 157.42 83.4844 157.43V161.09C83.7444 161.09 83.9944 161.09 84.2544 161.09V157.42V157.41Z" fill="black"/>
<path d="M45.6544 102.03C40.0244 101.45 35.5344 100.99 29.8244 100.4V25.15H45.6544V102.03ZM41.1744 30.91C40.2044 30.34 39.2444 29.77 38.2744 29.2C36.6444 31 33.5544 32.84 33.6044 34.59C34.1744 55.16 33.6244 75.89 36.7444 96.21L41.1744 95.88V30.92V30.91Z" fill="black"/>
<path d="M20.9544 101.33V29.9C21.5244 29.85 22.0944 29.81 22.6544 29.76V101.2C22.0844 101.24 21.5144 101.28 20.9544 101.33Z" fill="black"/>
<path d="M34.7044 146.59V167.88C34.2444 167.98 33.7844 168.07 33.3344 168.17C32.1044 165 30.8844 161.82 29.6544 158.65C29.0744 158.71 28.4944 158.77 27.9244 158.83C28.4444 162.89 28.9644 166.95 29.4844 171.01L26.2844 172.07C24.3244 163.9 22.3544 155.73 20.1544 146.59H34.7044Z" fill="black"/>
<path d="M22.0644 112.23C20.3644 114.25 18.6644 116.28 16.9644 118.3L14.8344 116.65C16.3244 114.52 17.8044 112.39 19.2944 110.27C20.2144 110.92 21.1444 111.57 22.0644 112.23Z" fill="black"/>
</svg>
