<svg width="173" height="180" viewBox="0 0 173 180" fill="none" xmlns="http://www.w3.org/2000/svg">
<path d="M36.31 132.579C55.78 132.579 73.43 132.039 91.03 132.719C112.13 133.539 134.55 130.899 150.2 150.369C153.29 154.209 156.32 158.089 159.07 161.569C156.18 173.119 149.78 178.909 138.92 178.979C115.17 179.119 91.37 180.029 67.69 178.809C46.12 177.699 29.01 168.499 22.73 145.529C22.08 143.159 20.24 140.709 18.27 139.169C-4.88 121.139 -4.87997 87.4387 17.98 68.7787C31.19 57.9987 46.96 55.5487 62.89 53.4387C71.83 52.2587 80.89 51.7487 89.91 51.5187C100.71 51.2487 107.3 45.6587 111.33 36.2087C114.88 27.8987 118.34 19.5487 122.02 11.2987C125.9 2.59874 132.22 -1.75126 142.08 0.658735C143.38 0.978735 144.73 1.02874 146.03 1.34874C174.98 8.34874 176.42 12.3787 167.44 40.6487C154.36 81.8087 142 84.3287 102.53 85.8687C97.18 86.0787 91.56 85.0187 86.51 86.2987C76.58 88.8087 66.12 91.0887 57.43 96.1387C45.23 103.229 38 114.819 36.31 132.599V132.579ZM41.96 100.059C41.28 100.699 40.6 101.349 39.92 101.989C37.26 106.039 34.59 110.079 31.93 114.129C31.26 115.489 30.6 116.849 29.93 118.209C17.64 144.009 34.14 171.639 64.61 173.629C89.48 175.249 114.56 174.569 139.5 173.749C144.81 173.569 149.96 168.339 158 163.859C148.62 156.219 142.57 151.289 136.51 146.349C134.49 145.009 132.47 143.659 130.44 142.319C127.04 141.169 123.69 139.219 120.23 138.999C104.62 138.009 88.99 137.319 73.36 136.899C61.34 136.579 49.3 136.839 37.28 136.839C37.29 137.209 37.31 137.579 37.32 137.949C68.38 139.379 99.45 140.809 130.51 142.249C132.54 143.589 134.57 144.929 136.6 146.259C140.79 152.969 144.97 159.679 149.87 167.529C142.58 167.929 138.34 168.219 134.09 168.379C112.12 169.199 90.16 170.599 68.19 170.639C43.2 170.679 29.55 156.259 29.35 131.129C29.32 126.799 29.67 122.469 29.85 118.129C30.51 116.769 31.18 115.399 31.84 114.039C34.56 110.039 37.28 106.039 39.99 102.049C40.63 101.369 41.28 100.689 41.92 100.009C42.6 99.3487 43.29 98.6887 43.97 98.0387C45.31 97.3587 46.65 96.6887 48 96.0087L47.98 95.9887C46.63 96.6587 45.28 97.3287 43.93 97.9987C43.28 98.6887 42.62 99.3687 41.97 100.059H41.96ZM56.01 87.9787L56.07 87.9287C57.39 87.9287 58.71 87.9487 60.04 87.9587C77.67 84.2687 95.3 80.5787 112.51 76.9787C105.4 71.9787 97.25 66.2487 88.36 59.9887C95.19 57.3087 99.74 55.5187 104.3 53.7287C104.98 53.0487 105.66 52.3687 106.34 51.6887C112.15 45.9087 117.96 40.1287 124.03 34.0887C135.88 38.2787 147.73 42.4687 159.95 46.7887C161.25 42.5787 162.31 39.1487 163.51 35.2687C150.19 30.0587 137.53 25.0987 125.29 20.3187C118.69 31.2887 112.54 41.5187 106.39 51.7387C105.71 52.4187 105.03 53.0987 104.35 53.7787C91.08 55.2987 77.81 56.7887 64.54 58.3587C47.55 60.3787 30.28 61.6987 17.84 75.8587C17.16 76.5387 16.47 77.2287 15.79 77.9087C13.79 81.9287 11.8 85.9387 9.8 89.9587C9.11 91.2887 8.41002 92.6187 7.72002 93.9387C7.33002 94.6987 6.95002 95.4587 7.85002 93.6787C7.30002 95.6087 7.53003 94.7987 7.76003 93.9787C8.40003 92.6087 9.05002 91.2387 9.69002 89.8687C12.38 86.5387 15.07 83.2187 17.76 79.8887C18.44 79.1987 19.13 78.5187 19.81 77.8287C25.03 73.8287 30.25 69.8187 37.7 64.1087C45.54 72.4687 52.76 80.1587 59.97 87.8587C58.65 87.8887 57.33 87.9287 56.01 87.9687V87.9787ZM146.59 7.47873C146.3 7.37873 146.01 7.28874 145.72 7.18874L146.65 7.40874C149.34 8.07874 152.02 8.73874 154.71 9.40874C158.73 11.4187 162.75 13.4387 166.76 15.4487C166.99 16.2587 167.21 17.0587 166.86 15.7987C167.51 16.9387 167.1 16.2187 166.69 15.4987C162.68 13.4887 158.66 11.4787 154.65 9.47873C151.96 8.80873 149.28 8.14873 146.59 7.47873ZM48.03 89.8887C43.03 84.5887 38.04 79.2787 33.47 74.4287C5.54002 91.2287 4.83002 118.729 21 134.779C21.9 114.339 31.72 100.119 47.91 90.0087L48.03 89.8887ZM139.18 164.249C139.46 162.549 139.74 160.849 140.02 159.149C134.65 147.469 123.41 145.349 112.15 144.759C92.15 143.709 72.09 143.519 52.06 143.299C47.28 143.249 42.48 144.499 33.97 145.649C40.64 152.669 44.3 159.869 49.57 161.349C59.89 164.269 71.09 164.419 81.96 164.919C90.54 165.309 99.18 164.379 107.8 164.259C118.26 164.119 128.72 164.229 139.18 164.229V164.249ZM100.92 63.2987C106.39 66.7987 112.2 70.5187 117.49 73.9087C134.61 73.4587 151.14 62.0687 150.16 49.0187C141.91 46.0187 133.29 42.8687 125.83 40.1587C116.9 48.4487 109.19 55.6087 100.92 63.2987ZM161.46 28.8087C163.53 16.6987 154.94 15.9787 149.51 14.4987C143.7 12.9087 136.67 5.91874 129.12 16.1887C140.3 20.5487 150.28 24.4487 161.46 28.8087ZM130.3 78.2087C143.63 77.1587 151.97 70.4987 155.57 57.9087C148.06 63.9387 138.1 71.9487 130.3 78.2087Z" fill="black"/>
<path d="M17.88 77.8087C17.84 77.1387 17.79 76.4587 17.75 75.7887C18.46 76.4987 19.18 77.2187 19.89 77.9387C19.22 77.8987 18.55 77.8587 17.87 77.8187L17.88 77.8087Z" fill="black"/>
<path d="M15.7 77.8487C16.37 77.8887 17.04 77.9387 17.71 77.9787C17.71 78.6487 17.75 79.3187 17.84 79.9787C17.13 79.2687 16.42 78.5587 15.7 77.8387V77.8487Z" fill="black"/>
</svg>
