<svg width="174" height="193" viewBox="0 0 174 193" fill="none" xmlns="http://www.w3.org/2000/svg">
<path d="M19.15 85.02C13.6 82.01 8.05 79 1.2 75.28C0.9 72.92 0.47 69.46 0 65.78C4.96 62.56 9.37 59.7 14.46 56.4C12.29 43.53 10.13 30.77 7.88 17.45C18.67 15.28 29.57 13.63 40.22 10.79C50.96 7.92002 61.3 3.78002 71.8 0.210022C74.14 9.00002 76.85 19.13 79.54 29.23C110.34 20.77 133.3 40.41 159.54 48.51C159.18 53.34 158.68 57.92 157.75 62.67C154.46 65.07 151.26 67.42 147.59 70.1C147.4 73.22 147.21 76.49 146.98 80.34C156.14 87.16 165.2 93.9 173.64 100.19C174.96 113.79 148.63 139.98 138.51 138.39C128.24 143.26 119.31 147.49 110.38 151.73C112.44 149.77 114.27 147.45 116.61 145.9C130.8 136.47 145.13 127.27 159.33 117.87C163.05 115.4 166.48 112.49 171.97 108.31C168.16 108.31 167.01 107.95 166.36 108.36C148.68 119.7 130.94 130.95 113.57 142.76C111.41 144.23 111.3 148.73 110.24 151.82C107.36 151.64 104.14 152.23 101.67 151.13C93.81 147.63 86.24 143.5 77.17 138.91V184.56C74.61 186.81 71.69 189.39 68.28 192.39C64.77 190.29 61.71 188.46 57.35 185.85C56.35 167.68 55.33 149.15 54.27 129.78C46.3 125.25 37.93 120.49 29.57 115.73C33.07 116.04 36.82 115.66 40.01 116.82C44.6 118.49 48.78 121.29 53.14 123.61C53.59 122.66 54.04 121.71 54.49 120.76C46.19 117.08 37.9 113.39 29.6 109.71L29.7 109.61C29.68 111.64 29.66 113.67 29.64 115.69V157.16C29.19 157.25 28.74 157.34 28.29 157.43C27.41 151.45 26.14 145.51 25.74 139.5C24.81 125.57 24.06 111.61 23.81 97.65C23.76 94.94 26.32 92.19 27.68 89.46C28.03 94.08 28.37 98.71 28.72 103.37C36.54 107.15 43.93 110.71 52.46 114.83V97.76C43.93 94.96 35.75 92.26 27.57 89.57C25.08 88.35 22.59 87.13 20.11 85.91C19.78 85.63 19.46 85.34 19.15 85.04V85.02ZM146.37 131.77C145.7 132.45 145.03 133.14 144.37 133.82L144.29 133.74C144.97 133.07 145.66 132.41 146.34 131.74L146.37 131.77ZM106.1 47.26C105.71 47.01 105.33 46.77 105.65 46.97C105.31 46.81 105.73 47.01 106.14 47.21C107.45 47.91 108.76 48.61 110.07 49.31C118.96 54.57 127.86 59.83 136.75 65.09C137.42 63.71 138.08 62.34 138.75 60.96C129.22 57.04 119.7 53.11 110.17 49.19C108.81 48.55 107.46 47.9 106.1 47.26ZM27.63 83.48C26.28 82.81 24.92 82.15 23.57 81.48C21.57 80.14 19.58 78.79 17.58 77.45C16.21 76.79 14.85 76.13 13.48 75.47C11.49 74.79 9.51 74.11 7.52 73.43C7.25 73.3 6.99 73.17 6.72 73.04C7.01 73.14 7.3 73.25 7.59 73.35C9.58 74.02 11.57 74.7 13.57 75.37C14.93 76.04 16.29 76.71 17.65 77.37C19.64 78.72 21.64 80.07 23.63 81.42C24.98 82.09 26.33 82.76 27.68 83.44C27.95 83.57 28.22 83.69 28.48 83.82C28.2 83.71 27.92 83.59 27.64 83.48H27.63ZM75.92 95.52C74.58 96.18 73.23 96.84 71.89 97.51L71.92 97.56C73.26 96.89 74.6 96.22 75.95 95.55C76.18 95.35 76.42 95.15 76.65 94.95C76.41 95.14 76.17 95.33 75.93 95.53L75.92 95.52ZM102.09 145.82C102.47 146.05 102.84 146.27 102.7 146.19C102.85 146.26 102.44 146.07 102.03 145.89L98.03 143.85C96.7 143.17 95.37 142.49 94.04 141.81C94.04 141.81 94.04 141.82 94.03 141.83C95.38 142.49 96.72 143.15 98.07 143.81C99.41 144.48 100.75 145.15 102.09 145.82ZM88.04 45.18C88.24 45.44 88.45 45.7 88.65 45.97C88.42 45.73 88.2 45.48 87.97 45.24C86.81 42.21 85.66 39.17 84.5 36.14C85.46 35.45 86.43 34.75 87.39 34.06C103.58 41.1 119.88 47.9 135.89 55.34C139.53 57.03 142.15 60.91 146.34 64.8C147.77 63.95 150.78 62.16 154.09 60.2C153.19 56.33 152.46 53.2 151.61 49.54C135.7 43.75 119.87 38.35 104.34 32.21C95.44 28.69 88.28 30.63 80.84 36.65C81.89 44.25 82.94 51.79 83.98 59.34C78.29 63.11 72.6 66.88 66.9 70.66C66.27 69.67 65.64 68.68 65.01 67.69C69.13 64.79 73.25 61.9 75.5 60.31C72.45 42.35 69.71 26.24 66.77 8.97002C50.27 13.59 35.66 17.69 20.16 22.03C22.5 35.09 24.6 46.81 26.51 57.46C47.24 66.4 66.59 74.75 86.35 83.27C87.27 87.59 88.13 91.65 89.06 96.01C83.43 98.67 78.69 100.9 73.66 103.28C74.16 111.27 74.63 118.85 75.16 127.38C85.83 132.45 96.3 137.42 105.86 141.96C126.94 128.01 146.85 114.84 169.16 100.08C156.1 93.15 144.94 86.67 133.3 81.19C117.02 73.53 100.39 66.62 83.91 59.39C85.29 54.65 86.66 49.92 88.04 45.18ZM80.29 85.82C59.91 76.95 41.04 68.75 22.47 60.67C20.4 48.96 18.43 37.79 16.46 26.62C16.03 26.71 15.61 26.79 15.18 26.88C16.55 37.92 17.92 48.97 19.22 59.48C15.36 61.87 12.61 63.57 7.14 66.95C29.88 76.69 50.45 85.51 70.48 94.09C74.36 90.82 76.62 88.91 80.29 85.81V85.82ZM69.07 104.59C67.51 104.61 65.95 104.63 64.39 104.65C65.44 128.31 66.48 151.98 67.53 175.64C66.48 175.68 65.44 175.72 64.39 175.76C63.91 171.42 63.42 167.09 63.02 163.47V179.66C66.39 181.03 69.27 182.19 74.32 184.24C72.49 156.5 70.78 130.54 69.07 104.59ZM97.1 60.97C108.77 64.91 118.57 71.73 130.35 72.24C131 70.91 131.64 69.59 132.29 68.26C121.68 62.22 111.08 56.18 99.04 49.32C98.24 54.1 97.74 57.15 97.1 60.97ZM61.43 130.73C61.17 130.72 60.91 130.71 60.66 130.7V149.34C60.92 149.34 61.18 149.34 61.43 149.34V130.74V130.73ZM58.35 114.88C58.94 114.58 59.46 114.44 59.46 114.3C59.5 110.43 59.5 106.56 59.5 102.69H58.35V114.88ZM93.49 51.67C93.05 51.59 92.6 51.5 92.16 51.42C92.44 52.66 92.71 53.9 92.99 55.15C93.16 53.99 93.32 52.84 93.49 51.68V51.67ZM76.71 49.57C76.71 49.57 76.78 49.59 76.82 49.6C76.92 49.29 77.01 48.97 77.11 48.66C77.07 48.65 77.04 48.64 77 48.63C76.9 48.94 76.81 49.26 76.71 49.57ZM141.43 76.8C141.66 75.16 141.58 75.71 141.43 76.8C141.29 75.71 141.22 75.14 141.43 76.8ZM76.98 134.43L77.78 134.57L77.46 133.83L76.98 134.43Z" fill="black"/>
<path d="M20.11 85.88C21.86 112.5 23.6 139.12 25.54 168.7C20.54 166.86 16.72 165.45 11.35 163.48V85.64C11.87 85.57 12.4 85.49 12.92 85.42C14.38 110.65 15.84 135.89 17.3 161.16C17.3 138.64 17.23 116.34 17.38 94.04C17.4 91.03 18.53 88.03 19.14 85.02C19.45 85.31 19.78 85.6 20.1 85.89L20.11 85.88Z" fill="black"/>
</svg>
