<svg width="30" height="30" viewBox="0 0 30 30" fill="none" xmlns="http://www.w3.org/2000/svg">
<circle cx="15" cy="15" r="14" fill="white" stroke="black" stroke-width="2"/>
<path d="M13.3901 18.3566V18.2115C13.4009 17.2644 13.5009 16.5109 13.6902 15.9508C13.8848 15.3908 14.1606 14.9376 14.5174 14.5914C14.8743 14.2452 15.3041 13.9295 15.807 13.6444C16.1314 13.4509 16.4234 13.2345 16.6829 12.9952C16.9424 12.7559 17.1479 12.481 17.2993 12.1704C17.4507 11.8598 17.5264 11.5162 17.5264 11.1394C17.5264 10.6862 17.4128 10.2942 17.1857 9.96325C16.9586 9.6323 16.6559 9.37772 16.2774 9.19952C15.9043 9.01623 15.488 8.92458 15.0284 8.92458C14.6121 8.92458 14.2147 9.00605 13.8362 9.16897C13.4577 9.3319 13.1441 9.58648 12.8954 9.9327C12.6467 10.2738 12.5034 10.7142 12.4655 11.2539H10C10.0378 10.3375 10.2839 9.56356 10.738 8.93222C11.1922 8.29578 11.7924 7.81464 12.5385 7.48878C13.2901 7.16293 14.12 7 15.0284 7C16.0232 7 16.8938 7.17566 17.6399 7.52697C18.386 7.87319 18.9646 8.35943 19.3755 8.98568C19.7918 9.60684 20 10.3324 20 11.1623C20 11.7325 19.9054 12.2468 19.7161 12.705C19.5269 13.1582 19.2566 13.5629 18.9051 13.9193C18.5591 14.2757 18.1427 14.5914 17.6561 14.8663C17.1965 15.1362 16.8235 15.4162 16.5369 15.7064C16.2557 15.9967 16.0503 16.3403 15.9205 16.7375C15.7908 17.1346 15.7205 17.6259 15.7097 18.2115V18.3566H13.3901ZM14.6148 23C14.1714 23 13.7902 22.8523 13.4712 22.557C13.1522 22.2566 12.9927 21.8951 12.9927 21.4726C12.9927 21.0551 13.1522 20.6986 13.4712 20.4033C13.7902 20.1029 14.1714 19.9527 14.6148 19.9527C15.0527 19.9527 15.4312 20.1029 15.7502 20.4033C16.0746 20.6986 16.2368 21.0551 16.2368 21.4726C16.2368 21.7526 16.1611 22.0097 16.0097 22.2439C15.8637 22.473 15.6691 22.6563 15.4258 22.7938C15.1825 22.9313 14.9121 23 14.6148 23Z" fill="black"/>
</svg>
