<svg width="508" height="536" viewBox="0 0 508 536" fill="none" xmlns="http://www.w3.org/2000/svg">
<path d="M90.2453 301.923C94.0323 302.169 97.8194 302.415 103.279 302.76V324.99C109.131 320.023 113.509 316.285 118.476 312.055C120.689 318.843 122.607 324.695 124.574 330.744C130.525 329.957 136.23 329.171 145.083 327.99C140.558 346.926 137.46 364.337 132.247 381.059C119.066 423.06 118.672 422.962 123.837 460.586C117.099 457.734 111.836 455.668 106.721 453.258C102.393 451.193 98.2621 448.684 93.1964 445.93C89.9012 462.406 87.2454 476.915 84.0486 491.325C82.9666 496.194 81.5894 501.703 78.4418 505.146C75.3925 508.49 68.5561 512.376 65.7528 511.048C60.8838 508.736 57.0476 502.982 54.3918 497.867C52.9163 495.064 54.1949 490.342 55.1785 486.801C57.2934 479.473 59.5558 472.144 62.6543 465.161C72.5399 442.881 70.2283 422.913 51.5884 406.289C34.4239 390.944 28.1779 371.763 25.6205 349.041C22.9647 325.384 21.2923 301.137 9.73452 278.808C4.81633 269.316 6.09514 256.479 5.20986 245.118C3.19341 219.887 1.17706 194.607 0.0950544 169.278C-0.249219 160.573 0.193262 150.736 3.93109 143.211C15.6364 119.505 25.2761 93.0948 42.6865 74.1595C80.3106 33.1413 126.492 4.56623 184.429 0.336534C202.724 -0.991394 220.381 1.46783 236.119 10.2715C256.038 21.4359 274.923 34.3707 294.055 46.9122C298.236 49.6665 302.957 53.1093 304.875 57.4374C312.302 74.1594 323.761 86.75 339.057 96.5865C342.844 99.0456 346.877 105.243 346.483 109.325C345.057 124.523 352.385 135.441 360.401 146.999C365.811 154.819 365.172 162.639 357.401 170.754C348.647 179.951 349.483 191.164 358.188 201.149C375.845 190.033 375.697 191.46 395.763 193.132C426.797 195.64 450.749 211.035 473.323 230.462C503.275 256.233 514.095 288.448 503.914 326.269C498.111 347.811 488.619 368.369 478.635 395.075C470.372 377.763 473.421 365.32 472.29 353.516C471.11 340.876 471.11 327.941 468.061 315.793C465.061 303.793 458.814 292.628 452.667 277.922C465.257 277.037 475.536 276.349 489.307 275.365C465.749 252.004 443.421 232.527 408.944 233.363C406.534 237.691 403.583 242.954 399.698 249.839C391.485 243.741 384.353 236.363 375.697 232.625C368.123 229.33 358.779 229.478 350.221 229.527C347.909 229.527 344.27 234.494 343.729 237.642C343.188 240.642 345.106 246.249 347.319 247.134C363.549 253.38 376.435 262.037 378.599 281.513C369.795 280.234 361.828 277.677 354.205 278.415C347.024 279.103 340.188 283.284 334.089 285.595C320.564 278.611 308.367 272.365 293.563 264.742C291.301 271.086 289.432 275.168 288.35 279.447C286.088 288.743 279.35 292.186 271.284 290.12C254.414 285.792 237.84 280.136 218.118 274.087C223.282 269.808 225.594 266.217 228.299 265.922C242.414 264.348 254.857 260.069 267.349 252.495C279.989 244.774 295.236 241.331 313.482 234.494C316.285 231.543 321.695 224.264 328.581 218.903C341.221 208.968 344.713 196.132 341.467 181.574C337.04 161.901 334.04 141.589 318.941 125.801C313.039 119.604 308.908 111.243 305.515 103.227C300.4 91.0293 293.072 81.2416 281.563 74.5528C272.809 69.487 267.3 63.2411 262.972 52.716C258.595 41.9942 245.414 34.8625 231.397 35.256C225.151 35.4527 218.856 35.8952 211.331 36.3379V14.9928C206.118 14.4026 200.265 13.714 194.511 13.0746C187.822 45.6826 187.085 46.0762 158.362 35.3052C151.674 32.7969 145.526 25.6656 135.443 34.2234C141.886 42.6828 148.428 51.2897 154.575 59.4048C152.952 61.9131 151.969 63.782 151.723 63.7329C142.673 60.1425 133.673 56.3554 123.05 51.9289C117.689 56.4046 111.984 61.175 105 67.0277C106.524 76.274 108.098 85.668 109.721 95.4554C65.2118 91.5208 49.9164 100.226 20.1121 145.326C27.5878 150.933 30.9812 142.326 35.9978 140.457C49.8671 135.392 56.5558 135.244 59.9986 141.884C64.4249 150.393 59.4576 156.097 53.9001 161.803C50.4573 165.344 47.7031 169.573 42.7849 175.869C50.7524 181.131 57.5394 185.656 65.1626 190.722C58.3755 202.427 51.5394 214.182 44.7031 225.986C35.5552 235.773 29.604 246.495 33.4402 265.233C44.3094 250.528 52.3262 240.249 44.0145 225.543H69.4414C76.7203 251.758 83.8025 277.086 90.8847 302.464C88.4747 307.825 86.0649 313.186 83.6058 318.547C76.2777 324.744 75.5401 333.056 76.327 341.81C73.7204 349.385 71.0644 357.008 68.4577 364.582C64.1953 375.566 65.6873 384.583 72.9334 391.632C70.9662 380.665 69.4907 372.402 68.0153 364.139C70.6219 356.516 73.2284 348.942 75.835 341.319C78.2449 333.597 80.704 325.826 83.1631 318.105C85.573 312.695 87.9338 307.334 90.3437 301.923H90.2453ZM105.639 359.172C89.8518 378.058 88.524 394.731 90.9339 412.24C91.5241 416.421 91.524 423.109 98.9013 420.502C100.967 401.666 102.983 383.37 105.639 359.172ZM34.5713 200.313C33.2434 199.821 31.9647 199.28 30.6368 198.788C28.522 202.772 26.358 206.707 24.4399 210.739C24.0956 211.526 25.1286 213.887 25.2762 213.887C27.1943 213.592 30.1943 213.493 30.7353 212.362C32.5058 208.575 33.342 204.346 34.5224 200.313H34.5713ZM51.3917 353.762C49.572 351.844 47.5555 349.729 45.5391 347.614C44.8014 349.877 43.3258 352.237 43.6209 354.352C43.8668 356.467 45.8834 358.336 47.1622 360.303C48.3425 358.533 49.4737 356.762 51.441 353.762H51.3917Z" fill="black"/>
<path d="M358.632 425.618C352.681 422.814 346.681 419.421 349.779 411.601C354.009 401.027 359.37 390.895 363.698 381.747C378.305 369.599 395.027 370.632 412.929 367.976C418.486 356.762 424.487 344.614 431.618 330.105C443.323 337.335 453.799 343.778 464.373 350.27C464.668 375.796 460.881 398.568 442.143 414.208C430.733 423.749 428.175 434.323 427.437 447.357C426.798 458.472 428.716 470.767 416.027 478.096C399.109 476.768 404.174 457.881 394.239 450.11C381.354 440.077 398.863 426.454 392.027 412.584C382.387 414.207 379.19 421.929 376.141 429.896C372.796 438.651 376.977 450.849 363.058 456.603C353.861 447.258 358.386 435.7 358.14 425.175C358.435 424.241 358.681 423.306 358.976 422.371C358.878 423.453 358.73 424.536 358.632 425.618ZM423.601 391.534C422.47 389.764 421.683 387.944 421.241 387.993C419.077 388.337 415.437 388.829 415.191 389.911C414.453 393.108 415.093 396.6 415.339 399.994C415.339 400.092 417.994 400.486 418.388 399.994C420.355 397.141 422.027 394.092 423.601 391.485V391.534Z" fill="black"/>
<path d="M274.579 448.389C260.415 454.734 260.267 454.734 259.037 442.389C258.693 438.848 258.988 435.257 258.988 431.667L258.447 432.356C268.038 421.044 273.005 406.289 288.251 399.108C294.793 396.01 298.088 386.124 304.285 377.321C309.449 386.518 313.482 393.748 317.023 399.994C335.171 403.633 331.925 379.878 348.499 379.927C347.368 385.239 346.729 389.961 345.401 394.436C339.597 413.716 333.597 432.946 327.548 452.176C323.417 465.259 320.318 478.243 311.318 489.948C305.023 498.162 304.924 511.097 301.777 521.868C299.563 529.393 295.973 535.836 284.858 535.787C269.218 508.097 274.284 477.702 274.235 447.996C276.792 440.373 279.35 432.799 281.907 425.225C282.596 424.388 283.382 423.651 283.923 422.765C284.268 422.126 284.169 421.24 284.268 420.503C283.678 422.224 283.038 423.995 282.448 425.716C279.891 433.29 277.333 440.864 274.776 448.439L274.579 448.389ZM299.76 463.882C299.662 461.718 300.35 458.718 299.17 457.488C298.039 456.357 294.99 457.095 292.727 457.045C292.826 459.308 292.137 462.357 293.317 463.685C294.301 464.767 297.498 463.931 299.76 463.931V463.882Z" fill="black"/>
<path d="M152.658 430.437C153.789 445.094 153.543 452.471 155.117 459.455C156.396 465.21 159.789 470.521 161.953 475.489C154.822 481.735 150.937 477.702 147.887 473.866C133.133 455.275 132.543 434.618 139.576 412.929C144.592 397.436 149.412 381.894 154.822 364.828C163.921 368.32 172.921 371.714 184.331 376.091C180.79 397.289 177.347 417.896 173.462 441.503C187.676 426.749 187.528 426.7 193.725 410.764C197.709 400.485 202.086 390.403 206.66 379.386C220.382 391.682 221.513 404.273 217.037 418.536C212.66 432.7 206.02 445.979 210.25 462.455C212.857 472.636 201.741 479.522 191.413 487.047C177.79 471.8 167.609 454.045 152.658 430.437Z" fill="black"/>
<path d="M258.94 431.667C236.907 446.274 236.119 468.554 238.726 491.916C235.087 491.08 231.3 490.981 231.054 489.997C222.152 456.012 230.267 425.077 256.137 395.764C263.661 408.06 260.071 420.306 258.399 432.405L258.94 431.716V431.667Z" fill="black"/>
<path d="M187.084 284.709C203.363 283.726 215.56 285.103 227.167 295.185C208.675 300.3 208.576 300.595 187.084 284.709Z" fill="black"/>
<path d="M419.961 288.694C421.338 291.989 422.961 295.087 423.65 298.333C423.797 299.022 420.453 300.399 418.682 301.481C417.059 298.432 415.289 295.481 414.108 292.284C413.961 291.94 417.305 290.268 419.961 288.645V288.694Z" fill="black"/>
<path d="M172.725 52.8633C174.151 54.142 175.577 55.4209 176.954 56.6997C175.429 57.7325 173.954 58.9619 172.282 59.6013C171.839 59.798 169.872 58.0279 170.02 57.6837C170.659 55.9623 171.741 54.4371 172.675 52.8633H172.725Z" fill="black"/>
</svg>
