<svg width="464" height="440" viewBox="0 0 464 440" fill="none" xmlns="http://www.w3.org/2000/svg">
<path d="M75.9565 270.096C51.7098 269.949 36.0207 256.227 23.6761 237.194C22.299 235.079 21.0692 232.767 20.0856 230.456C1.003 186.29 -1.99712 139.566 1.00298 92.5477C2.33089 71.35 16.2986 55.2676 33.0204 42.431C58.8409 22.5613 87.9568 11.298 120.466 7.56017C185.042 0.182789 249.814 -2.66946 314.538 2.98653C348.67 5.98666 382.458 12.8228 416.295 18.7247C438.771 22.6593 451.903 37.2664 456.87 59.1526C466.657 102.286 466.166 145.026 450.28 186.831C440.542 212.455 425.344 234.39 401.245 248.26C373.703 264.047 345.326 278.359 317.39 293.458C308.734 298.13 300.324 303.246 289.406 309.541C329.145 337.821 380.146 335.017 413.197 368.904C413.688 369.445 412.852 371.314 412.41 373.675C392.589 379.282 373.409 376.085 353.834 369.495C332.194 362.167 310.161 355.822 287.93 350.608C270.913 346.624 265.257 350.165 258.372 366.445C251.487 382.823 245.781 399.742 239.388 416.365C235.798 425.661 233.191 435.891 219.518 439.432C203.288 415.972 218.387 387.298 207.469 360.543C202.305 360.396 196.255 359.265 190.501 360.199C155.336 365.708 120.269 371.708 85.1534 377.462C74.1859 379.233 63.169 380.708 46.939 383.069C51.5621 374.609 52.6933 368.904 55.8409 367.429C73.0054 359.363 90.5632 351.936 108.269 345.001C123.613 338.952 139.352 333.886 154.844 328.083C161.434 325.624 165.762 320.214 164.041 313.427C162.959 309.295 158.68 304.278 154.696 302.852C135.565 296.016 116.039 290.163 96.6126 284.163C87.9074 281.507 79.7927 278.261 75.3663 269.457C88.8913 271.965 102.613 273.884 115.941 277.179C133.155 281.409 149.926 287.458 167.189 291.294C173.779 292.77 181.206 290.311 190.55 289.475C189.813 273.343 189.321 259.572 188.485 245.85C187.501 229.964 178.697 220.422 163.549 216.242C151.352 212.848 139.155 209.405 127.007 205.766C91.8422 195.192 56.3327 185.306 27.2662 161.01C25.0039 159.141 20.7742 159.584 15.2658 158.551C17.9217 199.323 25.0038 235.276 63.8084 256.326C68.9233 259.08 72.071 265.424 76.1531 270.096H75.9565ZM408.82 109.466C406.803 110.007 404.786 110.598 402.819 111.139C400.409 105.483 398.393 99.6298 395.59 94.1705C380.343 64.3167 350.49 60.3333 322.407 53.3494C290.93 62.153 258.962 58.0707 227.584 54.382C193.747 50.3982 161.926 57.7265 129.712 64.8579C109.892 69.2352 96.121 82.5638 83.5796 96.9742C79.8418 101.302 78.0712 108.433 77.7269 114.434C76.7433 132.336 114.22 160.616 132.073 147.976C155.336 131.5 182.681 133.369 208.748 128.5C263.044 118.418 315.079 127.615 366.474 143.894C375.671 146.796 385.114 152.649 391.458 159.78C399.573 168.879 398.491 180.978 393.278 192.732C363.72 209.11 334.407 226.963 303.57 241.669C289.111 248.604 271.897 250.325 255.618 252.588C250.306 253.326 243.027 249.637 238.699 245.751C225.961 234.39 224.978 215.357 235.453 194.11C237.076 198.487 238.748 201.733 239.388 205.127C240.027 208.815 239.191 212.799 239.83 216.537C242.88 234.095 251.388 241.128 268.454 239.604C274.651 239.063 281.045 237.44 286.701 234.833C305.144 226.275 323.538 217.619 341.391 207.93C356.687 199.618 373.212 192.536 385.458 175.912C380.54 170.698 377.245 164.354 372.326 162.534C356.883 156.928 341.096 151.272 324.915 149.009C298.505 145.271 271.7 144.337 245.093 141.878C220.699 139.665 196.845 143.058 173.14 148.173C168.713 149.108 164.73 152.157 155.779 156.534C166.549 161.6 172.55 165.485 179.14 167.256C188.927 169.912 199.255 170.404 209.043 173.059C215.289 174.781 220.109 179.158 215.486 189.388C177.173 183.83 139.204 174.683 102.465 160.813C94.3503 157.764 86.6287 152.452 79.9891 146.747C66.5624 135.14 61.4476 113.008 70.5463 98.0069C78.2678 85.2194 87.8093 71.8421 99.908 63.8745C115.449 53.5954 133.794 44.7425 151.991 41.6931C229.158 28.9549 306.374 24.2822 381.13 55.4639C383.491 56.4475 385.802 57.6283 388.212 58.2676C404.541 62.3498 417.426 57.1854 430.017 43.2667C424.312 39.4797 420.672 35.3481 416.344 34.4629C387.671 28.7577 359.097 21.2332 330.079 18.9216C257.684 13.1181 185.14 13.659 113.285 26.2498C94.6946 29.4958 76.4973 36.2337 58.8902 43.3652C41.9716 50.2016 29.3812 62.8907 21.2662 79.6619C10.1511 102.63 12.1182 124.959 30.6106 142.763C42.2667 154.026 56.2343 164.354 71.0872 170.502C99.1701 182.109 128.581 190.667 157.598 200.011C169.5 203.848 181.796 206.454 195.075 209.946C195.862 223.717 196.501 236.259 197.288 248.85C197.78 256.473 196.993 264.539 199.304 271.572C211.6 309.098 221.24 323.116 262.159 304.279C297.964 287.803 333.522 270.687 368.933 253.276C379.113 248.26 388.261 241.03 397.999 235.029C413.689 225.39 424.164 211.323 433.214 195.683C455.05 157.911 451.313 117.336 446.591 76.6618C445.706 68.8418 437.443 64.3169 429.279 65.4481C414.082 67.5629 407.344 75.0881 407.246 90.9249C407.246 97.0727 408.328 103.27 408.869 109.418L408.82 109.466ZM198.911 328.083C197.239 326.607 195.763 324.296 193.895 323.853C192.222 323.46 190.107 325.132 188.189 325.869C189.812 327.345 191.288 329.608 193.206 330.099C194.878 330.493 196.993 328.87 198.96 328.083H198.911Z" fill="black"/>
</svg>
