<svg width="700" height="560" viewBox="0 0 700 560" fill="none" xmlns="http://www.w3.org/2000/svg">
<path d="M670.518 9.11299C674.108 7.93261 677.65 6.30963 681.338 5.62108C686.552 4.68661 691.519 8.96544 691.617 14.1788C691.666 17.9658 691.765 21.8513 690.879 25.4416C689.945 29.0811 687.978 32.4747 686.207 35.8191C676.715 53.8199 666.436 71.4763 657.829 89.8706C644.943 117.56 630.435 144.365 616.861 171.71C611.746 181.94 606.385 192.17 602.352 202.843C596.893 217.253 588.335 229.942 581.794 243.615C572.4 263.141 557.744 276.322 539.252 285.715C504.037 303.618 471.233 325.602 437.101 345.374C430.51 349.21 424.068 353.391 418.067 358.063C401.444 370.949 401.149 376.703 413.69 392.294C439.216 424.017 462.97 456.969 486.037 490.511C489.627 495.725 493.316 500.938 497.398 505.807C502.709 512.201 509.841 515.004 517.858 512.594C528.825 509.348 539.842 506.004 550.268 501.43C589.86 483.97 629.5 466.707 667.715 446.346C674.354 442.805 681.633 440.05 688.961 438.378C691.715 437.738 696.732 440.493 698.355 443.149C699.978 445.805 698.847 450.28 698.601 453.92C698.503 455.002 697.273 456.035 696.486 457.018C695.699 458.002 694.912 459.084 693.928 459.772C686.551 464.74 679.519 470.494 671.6 474.379C647.649 486.183 623.402 497.397 599.106 508.512C546.728 532.415 492.135 549.088 435.232 557.793C425.248 559.318 414.772 560.4 404.838 559.121C350.688 552.088 296.44 545.35 243.865 529.562C203.29 517.365 165.272 500.004 131.583 474.232C99.1227 449.395 64.3513 428.394 29.0879 408.032C17.9236 401.589 8.03799 393.819 1.39843 382.457C-0.913118 378.474 -0.372237 372.424 3.11968 368.391C6.56241 364.457 13.3988 362.834 16.7924 365.293C19.8909 367.506 23.1367 369.522 25.8909 372.129C36.9569 382.802 49.1049 391.753 62.925 398.786C70.7942 402.77 77.6304 408.721 85.0077 413.688C113.582 432.722 142.157 451.805 170.83 470.691C176.486 474.429 182.978 474.626 189.077 471.773C197.143 467.986 205.11 463.953 212.881 459.625C232.848 448.46 253.111 437.689 272.538 425.59C300.621 408.18 328.113 389.786 355.754 371.736C359.737 369.129 360.869 362.391 357.918 358.014C347.983 343.259 338.294 328.307 327.573 314.143C309.129 289.847 289.899 266.141 271.21 242.041C264.128 232.893 258.964 222.663 257.292 211.056C256.358 204.368 257.882 197.777 263.046 193.695C270.915 187.449 279.62 182.137 288.326 176.973C290.391 175.743 293.686 178.301 292.998 180.711C290.047 191.236 293.096 198.023 303.966 200.63C323.737 205.302 343.508 210.122 363.377 214.45C406.805 223.991 450.282 233.533 493.808 242.533C511.169 246.123 528.776 248.533 546.334 251.042C548.35 251.337 551.596 249.665 552.875 247.894C556.564 242.73 559.859 237.271 562.662 231.615C582.089 192.908 601.909 154.447 620.402 115.347C634.025 86.6247 645.189 56.7708 660.288 28.7368C662.01 25.4907 662.108 21.3594 662.944 17.6707C665.502 14.8181 668.01 11.9656 670.567 9.16222L670.518 9.11299ZM474.43 519.431C473.151 516.332 472.561 513.775 471.233 511.66C446.937 472.757 418.461 436.853 390.771 400.409C387.771 396.474 383.64 393.179 379.509 390.327C377.738 389.097 374.542 388.999 372.279 389.589C368.64 390.573 365.049 392.146 361.901 394.212C316.261 424.41 269.39 452.543 221.93 479.741C220.848 480.331 219.668 481.216 219.176 482.249C218.094 484.364 216.52 486.872 216.913 488.839C217.356 491.003 219.373 493.659 221.438 494.594C239.931 503.151 259.308 509.397 279.129 514.07C311.293 521.644 344.196 525.234 376.607 531.185C407.493 536.841 437.101 533.645 466.856 526.513C469.856 525.775 472.118 521.693 474.479 519.382L474.43 519.431ZM504.627 272.436C504.037 271.305 503.742 269.682 502.808 269.141C499.562 267.321 496.218 265.108 492.627 264.37C441.577 254.091 390.476 243.96 339.376 233.877C328.163 231.664 316.95 229.5 305.687 227.778C303.621 227.483 300.277 228.91 299.244 230.582C298.211 232.254 298.605 235.648 299.638 237.615C301.998 242.091 304.9 246.32 307.998 250.304C321.868 268.502 335.934 286.502 349.803 304.7C356.738 313.799 363.279 323.193 370.164 332.34C382.263 348.374 391.116 349.849 409.264 338.783C424.461 329.537 439.707 320.34 454.708 310.7C470.741 300.421 486.529 289.798 502.218 279.027C503.791 277.945 503.841 274.649 504.627 272.387V272.436Z" fill="black"/>
<path d="M670.517 9.11315C667.959 11.9657 665.452 14.8184 662.894 17.6218C654.976 18.3595 648.336 21.4088 643.271 27.7534C618.581 58.5908 599.203 92.2807 585.727 129.561C575.448 158.038 563.596 186.023 552.235 214.106C551.399 216.122 548.792 218.04 546.579 218.729C544.562 219.368 541.464 218.975 539.841 217.745C538.12 216.467 536.054 212.876 536.693 211.548C555.628 172.989 571.662 133.201 587.449 93.2644C591.581 82.7885 597.63 72.9029 603.925 63.509C614.499 47.7706 625.713 32.524 637.123 17.3758C642.484 10.2935 649.615 4.9818 657.779 1.09638C663.484 -1.60866 667.32 0.555396 670.468 9.11315H670.517Z" fill="black"/>
</svg>
