<svg width="634" height="445" viewBox="0 0 634 445" fill="none" xmlns="http://www.w3.org/2000/svg">
<path d="M205.527 250.116C198.838 250.264 193.428 247.264 188.363 243.28C174.395 232.411 160.526 221.443 146.361 210.819C138.295 204.77 129.984 199.065 121.377 193.802C118.377 191.983 113.606 190.507 110.754 191.638C101.999 195.229 93.9335 193.753 85.0807 192.13C79.5724 191.146 73.0804 194.687 67.2769 196.901C62.7522 198.622 61.6209 203.786 63.7849 209.737C65.0636 213.279 66.7356 216.672 68.2111 220.164C64.4241 219.869 60.5881 219.377 56.8011 219.328C51.5387 219.328 46.8171 220.951 43.1284 224.885C31.4723 237.476 25.8656 252.723 24.3901 269.494C24.2426 271.215 27.1935 274.855 28.7182 274.855C54.2436 274.757 79.4247 271.904 104.016 264.871C107.803 263.789 110.213 260.74 110.508 256.51C121.377 258.576 131.312 262.854 140.558 268.904C149.952 275.052 157.378 282.724 161.362 293.397C150.591 287.052 139.918 280.659 129.098 274.462C126.442 272.937 120.295 275.396 119.459 278.298C118.819 280.511 118.819 283.019 118.967 285.38C119.016 286.561 119.655 287.938 120.491 288.725C136.721 304.365 152.853 320.152 169.428 335.399C175.477 340.956 183.494 341.301 190.625 337.563C195.986 334.759 200.461 330.185 205.33 326.349C210.003 328.169 215.462 329.005 219.101 332.054C227.315 338.842 236.709 341.743 246.742 343.858C248.119 344.153 249.151 347.301 249.742 349.268C249.938 349.957 248.709 351.629 247.774 352.121C231.987 360.187 216.691 362.449 201.986 349.317C200.953 348.383 193.379 351.531 193.182 353.35C191.018 370.368 181.379 383.844 173.46 398.205C170.46 403.664 168.493 409.91 167.313 416.009C166.673 419.255 168.149 423.386 169.772 426.534C171.788 430.37 176.215 430.764 179.805 429.534C225.593 414.14 273.3 406.664 320.17 395.795C331.285 393.237 342.597 391.368 353.614 388.614C392.959 378.729 433.043 372.335 472.831 364.515C492.749 360.629 512.521 356.105 532.292 351.727C541.735 349.662 547.882 344.055 550.44 334.415C553.047 324.628 556.44 315.037 559.145 305.25C562.194 294.085 559.686 291.528 545.62 289.905C543.407 289.659 541.341 288.134 539.177 287.2C540.849 285.577 542.325 283.462 544.292 282.429C546.456 281.298 549.161 281.101 551.62 280.462C562.489 277.806 569.031 271.019 571.932 260.15C574.539 250.411 577.834 240.821 580.883 231.181C584.671 219.18 586.588 206.393 595.146 196.31C595.146 207.77 593.966 218.934 590.867 230.197C579.605 270.576 569.08 311.201 558.26 351.678C557.62 354.088 556.342 356.35 555.407 358.711C553.735 362.892 547.735 367.908 543.653 367.023C526.783 363.285 510.898 368.056 494.766 371.499C421.534 387.089 348.401 403.172 275.661 420.976C267.054 423.091 258.201 424.321 249.545 426.141C238.381 428.501 227.216 431.01 216.101 433.469C200.019 436.961 183.986 440.797 167.756 443.748C163.034 444.584 157.722 443.256 152.853 442.125C144.935 440.354 138.885 432.633 140.459 425.403C142.82 414.287 145.869 403.27 149.214 392.401C151.427 385.22 154.771 378.335 157.526 371.499C151.624 357.58 142.673 346.661 133.279 336.579C117.688 319.857 100.819 304.315 84.2937 288.479C78.441 282.872 70.8178 280.954 63.047 282.478C48.0466 285.478 33.0954 288.282 17.7015 286.757C8.45526 285.872 1.86489 279.282 0.487795 269.347C-0.545025 261.625 -0.00421663 254.149 2.74997 246.87C7.76652 233.64 16.3735 222.771 24.1443 211.164C37.5218 191.294 54.391 182.343 78.0967 182.834C108.491 183.474 138.935 178.113 169.329 184.359C172.329 184.998 177.887 183.08 179.067 180.72C184.674 169.9 194.117 168.227 204.74 167.686C221.167 166.85 237.594 165.621 256.971 164.342C261.201 164.784 264.103 171.031 268.824 175.064C272.513 178.212 277.579 179.736 282.054 181.998L281.316 181.31C285.694 186.867 290.218 192.376 294.448 198.032C297.94 202.704 301.137 207.623 304.481 212.442L304.973 211.803C300.202 210.278 294.89 209.639 290.759 207.081C278.906 199.655 267.152 191.933 256.086 183.474C241.577 172.408 225.692 171.768 208.97 175.506C206.855 175.998 204.74 178.31 203.461 180.277C201.051 184.015 202.478 188.146 205.134 190.704C211.576 196.753 218.609 202.212 225.446 207.77C235.233 215.738 246.201 222.623 250.922 235.312L251.561 234.722C246.84 233.246 241.43 232.755 237.495 230.05C226.97 222.968 216.79 215.295 207.052 207.229C196.625 198.573 184.871 195.573 171.641 196.409C164.165 196.852 158.657 199.016 159.64 202.36C160.673 205.803 162.05 209.787 164.608 211.951C174.297 220.115 184.576 227.591 194.609 235.411C199.674 239.394 203.855 244.067 205.232 250.657L205.724 250.018L205.527 250.116Z" fill="black"/>
<path d="M557.079 158.341C556.636 172.555 549.702 184.9 545.423 197.982C536.078 226.705 526.586 255.329 523.586 285.626C523.488 286.806 522.603 287.888 522.258 289.069C521.225 292.757 512.274 296.053 509.471 293.397C501.307 285.626 493.339 277.707 485.52 269.592C482.028 266.002 479.175 261.772 476.027 257.838C486.602 256.854 494.618 262.756 502.881 267.92C506.569 270.231 510.356 269.395 512.52 266.395C514.438 263.69 515.865 259.707 515.57 256.51C515.078 251.788 512.815 247.263 511.34 242.69L510.75 243.329C523.783 237.23 528.062 225.623 529.537 212.639C529.931 209.196 529.144 204.573 526.98 202.163C518.668 192.72 510.356 183.08 500.717 175.064C474.798 153.423 448.24 132.57 422.222 111.667C419.075 113.782 416.468 114.717 415.091 116.585C412.829 119.586 411.157 123.028 409.632 126.471C406.042 134.734 407.173 142.259 413.419 146.931C435.698 163.653 456.65 181.654 472.486 204.917L473.126 204.18C465.06 203.983 458.469 200.294 452.666 195.081C445.141 188.244 437.764 181.211 430.386 174.178C423.009 167.096 414.993 161.391 405.353 157.21C394.828 152.686 390.893 141.226 395.369 131.832C400.828 120.372 406.828 109.159 413.124 98.0928C414.894 94.9451 418.14 92.3877 421.14 90.1253C430.436 83.1414 443.125 83.092 452.961 90.8628C480.896 112.995 508.733 135.176 536.078 157.948C543.8 164.391 550.046 160.555 557.079 158.341ZM538.193 182.342C537.702 179.982 538.046 176.932 536.669 175.309C512.766 146.784 481.536 126.914 452.518 104.437C451.584 103.7 449.961 102.962 449.027 103.306C447.01 104.044 445.043 105.224 443.469 106.7C442.78 107.339 442.879 109.257 443.272 110.388C446.371 119.389 454.092 124.553 461.322 129.274C478.388 140.488 493.143 154.308 507.996 168.03C513.602 173.194 519.357 178.162 525.259 182.933C527.078 184.408 529.783 185.736 531.996 185.638C534.111 185.539 536.128 183.474 538.144 182.244L538.193 182.342Z" fill="black"/>
<path d="M594.704 197.442C594.31 181.9 599.228 167.49 603.802 152.882C608.327 138.373 611.966 123.619 615.852 108.913C616.786 105.274 613.589 100.257 610.54 100.306C608.081 100.306 604.933 100.159 603.36 101.487C598.589 105.519 594.31 110.192 590.031 114.815C584.867 120.471 579.555 125.881 571.785 127.848L572.375 128.488C570.653 123.865 570.014 118.356 567.063 114.717C552.309 96.1256 534.259 81.1742 513.356 69.9114C512.078 69.2229 508.34 70.9441 507.258 72.518C505.242 75.4689 504.258 79.2067 502.881 82.6003L503.422 82.0594C496.832 82.3545 491.717 79.1086 486.995 75.1248C478.634 67.9933 470.027 61.0586 462.257 53.3369C455.568 46.6481 448.732 50.5826 441.797 51.3695L442.485 51.9597C445.928 22.5485 465.847 8.62988 491.471 0.613134C495.946 -0.763977 501.504 0.46555 506.373 1.49838C511.537 2.62958 515.717 6.17087 516.652 11.4826C517.734 17.6796 517.488 24.0239 518.029 30.3193C518.57 36.9097 521.078 42.7625 526.144 46.943C545.669 63.0257 565.342 78.9118 585.703 95.4372C594.458 91.9944 602.573 88.65 610.737 85.6007C615.753 83.7317 620.721 83.9774 624.999 87.5185C631.295 92.7319 634.442 99.4209 632.721 107.634C631.983 111.274 630.852 115.258 628.737 118.159C621.803 127.603 618.803 138.226 615.852 149.439C611.425 166.358 606.163 183.375 594.704 197.392V197.442ZM504.405 34.8935C504.553 31.795 504.504 30.5162 504.651 29.2866C505.045 26.0406 499.93 21.7123 497.028 23.237C491.569 26.0896 485.716 28.6964 481.093 32.631C471.896 40.451 472.781 49.0089 482.913 57.9109C488.372 62.7308 495.356 61.2553 497.864 54.5173C500.422 47.4842 502.586 40.3036 504.405 34.8935Z" fill="black"/>
<path d="M473.126 254.592C446.47 237.723 422.666 217.213 399.353 196.163C394.878 192.081 391.927 186.327 388.238 181.31C397.829 181.9 404.517 187.851 411.255 193.704C420.895 201.967 429.453 212.197 441.797 216.082C450.601 218.836 457.634 221.05 460.782 231.23C463.339 239.493 468.897 246.821 473.126 254.592Z" fill="black"/>
<path d="M571.785 127.947C572.129 141.079 568.932 152.44 556.44 159.276C558.063 145.849 553.932 134.833 543.653 125.734C532.39 115.75 521.423 105.421 510.848 94.6996C507.504 91.3552 505.832 86.3386 503.373 82.1089L502.832 82.6498C509.472 82.2072 514.734 85.4533 519.406 89.5355C530.571 99.2245 541.784 108.913 552.653 118.947C558.358 124.209 564.85 127.111 572.277 128.537L571.687 127.898L571.785 127.947Z" fill="black"/>
<path d="M312.497 158.44C315.694 163.26 318.399 168.572 322.186 172.85C326.858 178.113 332.858 182.293 334.776 189.621L335.416 189.031C331.973 188.244 327.793 188.441 325.137 186.523C314.858 179.096 304.333 176.047 291.939 180.621C288.742 181.801 284.857 181.211 281.266 181.408L282.004 182.097C281.267 176.096 280.529 170.096 279.791 164.243C290.709 157.653 301.972 160.063 312.546 158.44H312.497Z" fill="black"/>
<path d="M389.122 182.048C381.302 181.9 375.057 177.965 369.696 172.998C355.187 159.522 338.268 155.194 319.087 158.243C316.678 158.637 314.219 158.735 311.809 158.981C332.317 147.718 352.777 146.833 373.286 158.981L372.745 158.391C378.204 166.309 383.663 174.178 389.122 182.097V182.048Z" fill="black"/>
<path d="M511.34 242.592C489.602 238.706 477.798 224.984 473.126 204.082L472.486 204.819C487.831 215.049 499.389 229.066 510.75 243.231L511.34 242.592Z" fill="black"/>
<path d="M441.749 51.4189C442.634 57.6159 441.503 63.2227 436.83 67.6491C436.043 68.436 433.929 69.2228 433.732 69.0261C432.502 67.4522 430.437 65.2391 430.83 63.862C432.552 58.0584 435.65 53.0911 442.437 52.0091L441.749 51.4189Z" fill="black"/>
<path d="M373.287 158.932C375.205 157.505 377.172 156.079 379.09 154.653C379.386 155.341 379.631 156.03 379.926 156.718C377.517 157.259 375.156 157.801 372.746 158.342L373.287 158.932Z" fill="black"/>
<path d="M269.561 300.873C246.446 290.052 227.56 273.281 208.478 256.903C206.805 255.477 206.51 252.428 205.576 250.165L205.084 250.805C209.805 251.592 214.674 251.739 219.15 253.264C229.035 256.658 238.134 254.051 247.184 250.51C250.823 249.083 252.299 246.034 251.807 242.05C251.512 239.69 251.61 237.28 251.512 234.919L250.872 235.509C259.332 234.771 265.135 239.886 271.086 244.706C294.792 263.937 318.989 282.577 342.007 302.643C352.925 312.184 364.089 319.267 378.598 320.546C379.139 320.546 379.926 322.415 379.827 323.349C379.68 324.431 378.942 325.907 378.057 326.3C374.614 327.776 371.073 329.644 367.434 330.087C340.924 332.989 314.907 338.301 289.136 344.94C287.906 345.235 286.677 345.53 285.447 345.924C280.824 347.301 275.513 350.154 272.463 344.645C271.676 343.219 275.808 338.497 278.365 335.94C282.201 332.054 284.71 328.071 282.742 322.513C280.628 316.513 278.316 310.611 276.103 304.66C281.709 307.611 287.316 310.512 292.923 313.463C301.677 318.086 310.038 316.07 318.301 312.037C322.088 310.217 324.399 305.201 321.94 302.987C308.809 291.233 295.874 279.134 282.201 268.068C270.693 258.723 259.036 262.018 246.495 269.838C254.708 280.904 262.135 290.938 269.561 300.971V300.873Z" fill="black"/>
<path d="M334.778 189.622C339.499 191.195 345.155 191.638 348.746 194.589C390.698 229.066 432.355 263.936 473.914 298.856C475.34 300.036 476.176 303.676 475.438 305.299C474.602 307.069 471.651 308.692 469.487 308.791C460.733 309.282 451.929 309.775 443.175 309.086C439.929 308.84 436.191 306.086 433.929 303.381C430.83 299.692 434.519 296.741 436.732 293.839C440.175 289.314 440.371 284.298 436.634 280.117C424.732 266.74 409.338 257.739 394.534 248.198C390.55 245.641 384.943 245.198 379.976 244.706C369.943 243.673 359.812 243.28 349.729 242.64L350.516 243.231C352.778 238.46 357.303 236.788 361.73 234.673C369.107 231.181 369.796 226.902 364.189 221.394C357.254 214.557 349.778 208.262 343.09 201.18C339.844 197.786 337.877 193.163 335.319 189.081L334.68 189.671L334.778 189.622Z" fill="black"/>
<path d="M349.778 242.591C356.909 250.559 364.287 258.33 371.074 266.592C374.763 271.068 377.418 276.38 380.566 281.298L381.107 280.708C376.435 279.134 370.68 278.79 367.336 275.789C347.811 258.182 328.777 240.034 309.842 221.738C307.334 219.328 306.449 215.246 304.826 211.951L304.334 212.59C311.072 212.196 316.334 215.295 321.302 219.475C330.941 227.541 340.778 235.312 350.516 243.231L349.729 242.641L349.778 242.591Z" fill="black"/>
<path d="M380.614 281.298C397.04 283.315 406.68 294.774 415.926 306.725C417.795 309.135 416.271 314.496 413.172 316.316C410.172 318.087 403.434 317.3 402.991 314.546C401.516 305.053 395.123 299.397 388.778 293.2C385.384 289.905 383.614 284.889 381.106 280.708L380.564 281.298H380.614Z" fill="black"/>
<path d="M106.622 253.953C96.5397 247.411 86.4081 240.87 76.375 234.28C71.0633 230.788 67.9156 225.918 67.4238 219.476C83.9489 227.05 98.6545 236.69 106.622 254.002V253.953Z" fill="black"/>
<path d="M205.772 327.185C199.378 327.136 194.165 324.283 189.542 320.201C180.542 312.233 171.689 304.069 162.787 295.954C182.755 298.61 196.083 310.365 205.723 327.136L205.772 327.185Z" fill="black"/>
</svg>
