<svg width="753" height="560" viewBox="0 0 753 560" fill="none" xmlns="http://www.w3.org/2000/svg">
<path d="M365.873 559.022C360.709 558.038 356.823 557.841 353.331 556.563C347.38 554.399 341.626 551.644 335.871 548.89C290.034 526.906 244.197 504.97 198.457 482.838C189.31 478.412 180.506 473.346 171.555 468.575C161.473 463.263 151.292 458.099 141.259 452.64C124.537 443.541 107.864 434.344 91.3884 424.901C88.1424 423.032 85.4375 420.13 82.9293 417.278C78.6504 412.36 75.6995 406.458 76.7815 399.867C78.9455 387.375 82.4372 375.079 80.2732 362.144C79.1421 355.406 75.5027 350.586 69.355 347.685C68.2238 347.144 67.0436 346.553 65.814 346.406C43.8297 343.356 25.632 331.11 6.40192 321.569C1.43455 319.109 -0.87695 313.552 0.303416 308.634C5.02488 288.666 5.61521 268.402 6.59884 248.09C6.84475 243.073 7.77916 237.958 9.00871 233.089C13.4843 215.531 14.5663 198.071 9.00871 180.464C7.53325 175.743 10.7796 170.283 15.5011 167.972C22.3373 164.578 29.0258 160.791 36.1572 158.283C60.2072 149.725 82.7325 138.02 105.602 126.953C139.882 110.33 174.703 94.8371 208.933 78.1151C254.623 55.8354 300.854 34.8346 347.724 15.2107C354.708 12.309 360.905 7.58745 367.79 4.43976C379.988 -1.11786 392.333 -2.39662 403.89 6.11195C411.219 11.522 419.481 14.0795 428.235 16.2435C452.875 22.3422 477.171 29.2277 500.238 40.5397C512.582 46.6383 526.402 50.4254 539.976 53.1304C558.764 56.9175 576.666 63.3605 594.913 68.7213C607.012 72.3117 619.307 75.2625 631.75 78.0168C668.882 86.1811 705.621 96.3619 741.18 110.182C751.164 114.068 755.492 124.789 750.967 135.609C736.753 169.791 729.376 205.94 719.54 241.352C715.162 257.189 712.9 273.665 709.507 289.797C708.474 294.764 707.146 299.682 705.424 304.453C702.326 313.011 697.752 320.437 688.801 324.274C678.276 328.749 667.899 333.471 657.472 338.143C648.226 342.324 638.93 346.455 629.832 350.93C623.881 353.832 619.848 358.554 618.766 365.39C615.569 385.407 612.323 405.425 608.979 425.442C608.339 429.18 607.11 432.819 605.929 436.459C603.47 443.935 599.831 450.279 591.617 452.984C585.617 455.001 579.961 458.148 573.912 459.968C549.469 467.346 526.746 478.756 503.68 489.478C482.975 499.117 461.876 507.921 441.17 517.709C419.432 527.988 398.087 538.955 378.315 552.874C374.332 555.677 369.512 557.35 365.873 559.12V559.022ZM376.201 401.589C375.906 401.589 375.611 401.49 375.315 401.441C372.955 415.163 370.594 428.885 368.283 442.607C367.791 445.656 373.25 449.837 376.152 448.656C382.004 446.197 387.857 443.787 393.611 441.131C415.497 431.147 437.039 420.425 459.466 411.72C494.975 397.998 530.239 383.686 564.469 366.816C598.552 350.045 633.029 333.963 667.899 318.913C683.391 312.224 693.129 302.732 695.834 286.059C696.424 282.37 698.342 278.878 699.277 275.189C706.998 244.45 714.72 213.711 722.146 182.923C723.032 179.333 722.442 175.398 722.343 171.611C722.294 166.742 715.753 162.463 711.376 164.775C699.031 171.218 686.686 177.661 674.587 184.595C654.767 195.907 635.291 207.859 615.373 219.072C586.601 235.253 557.535 250.795 528.763 266.976C493.352 286.895 458.138 307.109 422.924 327.323C415.251 331.749 408.071 337.11 400.349 341.438C388.447 348.127 381.119 357.128 380.48 371.489C380.037 381.571 377.676 391.506 376.152 401.539L376.201 401.589ZM439.547 32.5722C427.645 38.4741 418.448 42.7529 409.497 47.5728C401.726 51.7533 394.251 56.524 386.775 61.1472C384.267 62.6719 385.251 69.7049 388.054 71.1312C391.398 72.8035 394.644 75.0167 398.234 75.9512C431.432 84.2138 464.827 91.8371 497.926 100.542C524.927 107.674 551.583 115.986 578.339 123.904C581.978 124.986 585.421 126.658 588.962 128.085C593.388 129.855 596.683 134.527 594.421 135.609C592.257 136.642 589.453 137.921 587.388 137.38C561.715 130.396 536.239 122.674 510.516 115.936C474.958 106.641 439.301 97.3947 403.447 89.2796C357.413 78.8529 364.2 73.7871 350.577 120.658C346.691 134.036 343.987 147.758 340.692 161.332C340.102 163.791 339.265 166.201 338.724 168.709C336.905 176.775 339.167 181.251 346.544 183.021C374.922 189.956 403.054 197.727 430.497 207.662C442.35 211.941 454.105 216.515 464.482 220.4C468.712 219.22 471.318 218.876 473.532 217.794C524.632 192.219 575.928 166.939 626.733 140.675C644.685 131.38 661.358 119.724 678.571 109.051C679.358 108.559 679.604 106.69 679.505 105.559C679.407 104.575 678.669 103.051 677.883 102.756C669.62 99.6571 661.407 96.2635 652.898 93.8535C615.127 83.1318 575.88 77.82 539.239 62.9669C517.55 60.4094 497.877 50.9664 477.269 44.7203C465.171 41.0316 453.171 36.9985 439.597 32.6213L439.547 32.5722ZM283.985 355.996C286.739 352.357 289.788 349.701 291.067 346.357C293.329 340.504 294.706 334.258 296.182 328.11C297.411 323.093 299.28 318.519 303.313 315.077C316.887 303.617 330.364 292.207 346.79 284.583C365.184 276.075 383.135 266.435 401.284 257.385C413.776 251.139 425.727 244.106 436.252 234.761C439.055 232.302 438.121 226.745 434.481 225.269C426.268 221.925 418.153 218.433 409.792 215.531C376.25 203.826 341.872 195.17 305.772 188.235C300.805 189.71 294.46 190.891 288.706 193.399C246.852 211.744 203.572 226.302 160.686 241.794C141.751 248.631 123.799 258.32 105.553 267.025C104.52 267.517 103.979 272.534 104.963 273.32C121.98 286.944 142.144 295.01 162.014 303.027C198.507 317.683 235.246 331.553 269.771 350.685C274.099 353.095 279.116 354.177 284.034 355.996H283.985ZM413.284 26.867C405.464 24.0144 400.743 22.293 396.021 20.5224C383.382 15.7517 371.332 17.0304 359.135 22.834C336.167 33.7525 312.756 43.7366 289.739 54.5568C229.934 82.7875 170.227 111.313 110.422 139.544C103.536 142.79 96.0609 144.708 89.1755 147.905C73.0438 155.381 56.9612 163.053 41.0754 171.07C35.2719 174.021 30.9439 179.284 30.0095 185.874C26.9602 207.219 20.7631 228.122 20.6156 249.959C20.5664 258.762 18.5503 267.566 17.3208 276.37C16.4355 282.665 15.2057 288.911 14.6155 295.207C13.6811 305.142 17.8125 312.421 27.1079 316.503C34.0917 319.601 40.9772 322.798 48.0102 325.749C51.994 327.421 58.4367 323.978 60.2565 319.257C62.0762 314.535 64.7811 309.765 65.027 304.945C66.3549 278.288 68.4695 251.729 74.027 225.515C71.9614 206.481 80.9128 194.137 97.6346 186.366C104.52 183.169 111.11 179.333 117.947 175.988C161.424 154.889 204.9 133.888 248.377 112.887C273.558 100.69 298.739 88.6402 323.822 76.2953C343.249 66.7539 362.233 56.4257 381.906 47.4745C392.431 42.7038 402.071 37.0969 413.186 26.867H413.284ZM705.474 114.559C698.785 116.822 691.063 118.15 684.719 121.838C645.177 144.905 603.815 164.578 564.076 187.35C527.681 208.203 489.467 225.909 451.695 244.205C411.612 263.632 372.807 285.321 334.593 308.142C331.691 309.863 332.134 315.322 334.79 318.224C342.806 327.028 353.331 331.503 364.25 335.045C371.774 337.455 379.742 337.307 386.332 332.684C408.267 317.241 432.071 305.289 456.466 294.469C458.777 293.436 461.04 292.207 463.253 290.928C500.582 269.14 537.37 246.516 575.682 226.351C608.29 209.187 639.865 190.054 671.784 171.562C689.391 161.381 706.851 150.954 724.015 140.085C726.72 138.364 728.147 133.937 729.18 130.495C730.311 126.757 725.688 120.363 721.114 118.887C716.343 117.314 711.425 116.232 705.523 114.658L705.474 114.559ZM342.364 101.87C343.298 98.0341 343.937 96.7553 343.839 95.5257C343.593 93.165 343.052 90.8043 342.413 88.5419C341.774 86.3779 335.331 85.7385 331.937 87.4599C297.854 104.428 263.918 121.74 229.639 138.265C210.212 147.659 190.047 155.43 170.522 164.578C147.505 175.349 124.734 186.563 102.11 198.121C97.8807 200.285 93.7001 204.367 91.5853 208.596C85.8802 220.007 82.4371 232.155 83.224 245.287C83.8142 255.123 89.5689 259.894 97.7823 256.058C109.291 250.697 120.553 244.844 132.16 239.631C162.26 226.155 192.801 214.056 224.18 203.629C251.82 194.432 278.378 182.038 305.379 170.972C312.707 167.972 318.264 162.758 321.904 155.824C331.298 137.823 342.315 120.412 342.364 101.821V101.87ZM283.739 380.883C275.083 375.424 266.181 370.751 258.41 364.702C239.229 349.75 218.032 338.881 195.457 330.274C184.834 326.192 174.26 321.913 163.882 317.29C138.505 305.978 112.389 296.289 88.3884 281.977C85.7326 280.403 80.1257 283.354 79.0437 286.551C74.0763 301.207 73.4864 316.208 76.88 331.208C78.0603 336.373 82.536 339.668 87.405 341.389C96.9463 344.733 106.979 346.75 116.176 350.832C132.406 357.964 148.243 365.931 164.03 373.997C194.425 389.49 225.213 404.146 257.033 416.442C261.558 418.212 266.771 418.753 271.64 418.901C273.607 418.95 277.001 416.688 277.395 414.966C279.805 403.949 281.575 392.785 283.69 380.981L283.739 380.883ZM365.725 369.128C367.938 358.603 359.872 348.963 345.265 342.471C336.019 338.34 327.609 332.438 318.756 327.421C317.674 326.782 316.346 326.585 315.215 326.044C312.461 324.716 306.657 327.815 306.313 330.962C304.838 344.832 305.28 359.193 301.493 372.374C297.952 384.719 296.871 397.359 293.379 409.556C287.723 429.327 291.215 434 308.527 442.656C318.756 447.771 329.429 451.951 339.954 456.378C343.593 457.902 351.315 454.066 352.79 450.181C354.118 446.64 355.987 443.099 356.282 439.41C357.364 425.442 358.938 411.671 362.725 398.047C364.742 390.818 364.397 382.899 365.676 369.128H365.725Z" fill="black"/>
</svg>
