<svg width="197" height="455" viewBox="0 0 197 455" fill="none" xmlns="http://www.w3.org/2000/svg">
<path d="M169.363 116.041C169.806 133.698 172.56 149.24 170.051 163.945C166.117 186.913 187.659 206.439 175.609 230.538C165.035 251.687 171.773 275.589 170.642 298.263C169.904 313.46 171.035 328.706 171.527 343.953C171.675 349.019 171.035 354.921 173.347 358.905C181.609 373.118 178.412 385.119 169.461 397.562C165.674 402.825 166.806 409.956 170.002 415.76C173.691 422.35 178.068 428.596 182.15 434.941C184.167 438.088 187.363 441.089 187.904 444.482C188.396 447.581 186.577 451.466 184.708 454.319C184.068 455.302 179.544 455.105 177.921 453.925C166.314 445.466 157.756 434.596 154.363 420.432C152.002 410.595 150.625 400.513 148.854 390.529C148.215 386.791 147.772 383.004 147.133 379.266C146.051 372.922 140.002 369.036 132.821 370.217C127.804 371.053 122.935 372.922 117.919 373.167C107.836 373.659 97.5573 374.594 87.6717 373.167C77.8845 371.741 70.4583 374.004 63.3269 380.299C51.7692 390.48 42.0311 401.644 34.9489 415.661C29.8831 425.694 22.2598 434.498 15.1284 443.302C13.0136 445.958 8.68559 446.941 5.29203 448.368C4.45594 448.712 2.93143 447.974 2.04616 447.335C1.1117 446.646 -0.216075 445.122 0.0298344 444.531C2.48893 438.777 4.45618 432.58 7.99728 427.514C15.4729 416.891 19.26 404.94 23.0962 392.742C28.0144 377.151 27.7684 363.184 15.7189 350.298C10.0138 344.199 11.2433 335.936 16.309 329.248C19.3091 325.264 23.8831 322.411 26.7848 318.329C29.6374 314.345 32.6866 309.624 33.1784 304.951C35.9818 278.491 38.5392 251.982 40.2606 225.423C41.4901 206.439 40.9982 187.356 41.6868 168.371C41.9819 159.519 42.4246 150.518 44.2935 141.911C47.933 124.993 47.2444 109.303 36.8178 94.5487C34.1128 90.7125 33.3257 85.0562 32.9815 80.138C32.3913 71.2851 32.8833 62.3832 32.8833 53.4811C32.9325 36.5624 41.3426 24.4634 55.3595 16.2007C73.1141 5.77402 91.9014 -1.50495 113.197 0.265621C119.492 0.806629 125.886 0.757675 132.231 0.806857C148.166 0.905222 161.986 7.10221 174.675 15.8567C189.183 25.8899 196.61 39.5626 196.315 57.8585C196.02 76.4003 192.282 93.0732 178.167 106.205C175.412 108.762 173.052 111.812 169.363 115.894V116.041ZM126.23 14.2336C110.935 15.2664 103.312 15.8565 95.7376 16.2499C82.6061 16.9877 71.1958 22.2504 60.3266 29.0868C51.8673 34.3985 51.3263 44.5299 59.4414 51.2679C63.3267 54.4647 67.3598 57.9077 71.8845 59.7766C103.853 72.81 136.214 73.0067 168.625 61.3013C177.429 58.1044 180.626 47.1367 174.97 39.1692C172.756 36.0707 170.445 32.9722 167.789 30.3164C154.018 16.8895 137.247 12.9057 126.28 14.2336H126.23ZM125.542 276.721C125.148 271.507 125.001 268.999 124.755 266.491C124.067 258.572 118.361 253.703 109.263 253.211C94.213 252.326 87.6719 257.441 86.8849 271.704C86.4915 279.18 87.0815 286.754 87.6717 294.23C88.1635 300.033 94.0164 304.902 100.853 305.443C104.591 305.738 108.378 305.738 112.165 305.443C116.935 305.05 122.493 300.525 123.034 296.492C124.116 289.066 124.902 281.59 125.493 276.721H125.542ZM109.804 184.307C106.262 184.602 103.705 184.7 101.197 185.094C94.9506 185.979 89.885 191.586 89.344 198.029C88.262 210.521 93.5246 218.39 104.836 220.259C109.804 221.046 114.919 220.948 119.984 220.751C124.509 220.554 129.575 215.538 130.214 210.914C130.755 207.177 131.1 203.34 130.952 199.603C130.657 192.471 126.231 187.012 120.132 185.782C116.394 185.044 112.607 184.7 109.853 184.307H109.804ZM139.018 98.3848C142.903 98.0405 150.428 97.7455 157.854 96.6143C161.445 96.0733 164.887 94.155 168.379 92.7779C171.625 91.4992 174.724 85.0073 172.707 83.7777C170.691 82.5482 168.133 80.7775 166.166 81.1709C133.608 87.7122 101.345 86.9253 69.1796 78.7118C66.8188 78.1216 64.1629 78.2693 61.7038 78.5152C60.6218 78.6135 58.6547 80.1382 58.753 80.3349C59.54 82.3022 60.2776 85.3023 61.7531 85.8433C85.5571 94.2043 110.099 98.5323 139.018 98.3848ZM132.329 147.371C132.034 143.141 131.886 139.354 131.444 135.616C130.755 129.321 125.64 124.501 119.001 123.615C100.213 121.156 93.4753 126.96 93.3278 145.993C93.3278 148.502 93.082 151.305 94.1148 153.42C95.6395 156.568 97.6557 160.994 100.312 161.683C107.541 163.552 115.165 164.388 122.64 164.24C125.444 164.191 129.181 160.797 130.706 157.994C132.329 154.895 131.886 150.666 132.329 147.371ZM109.066 352.314C114.968 351.724 121.116 351.183 127.263 350.494C132.182 349.953 134.542 343.756 131.739 339.035C123.771 325.608 106.656 319.608 89.6391 324.624C87.5243 325.264 85.3604 327.329 84.18 329.297C78.3274 339.133 83.4914 350.839 93.9179 351.576C98.8361 351.921 103.804 352.068 109.066 352.314ZM72.9664 280.803C72.9664 271.212 73.0648 268.704 72.9664 266.196C72.8188 263.687 72.4747 261.179 72.2288 258.671C71.8354 253.9 67.95 250.26 65.4909 252.375C63.6712 253.9 61.1137 255.375 60.4743 257.392C56.2938 270.868 56.2938 284.541 59.8349 298.164C60.6218 301.213 62.7367 302.295 65.7368 301.164C66.7696 300.771 68.2942 300.082 68.491 299.246C70.655 290.885 72.5729 282.475 72.9664 280.803ZM79.9012 143.633C78.9667 136.846 78.2291 130.698 77.1963 124.599C76.6553 121.402 74.4911 120.32 71.491 121.55C70.4582 121.943 69.0811 122.681 68.786 123.566C64.8023 135.616 64.5563 147.813 67.458 160.109C68.1958 163.207 70.3106 164.339 73.3107 163.207C74.3435 162.814 75.6716 162.027 75.9175 161.142C77.3929 155.191 78.6716 149.19 79.852 143.682L79.9012 143.633ZM145.215 255.425C140.444 284.59 140.641 292.508 147.526 301.853C147.526 287.639 147.625 275.049 147.428 262.409C147.428 260.048 146.002 257.736 145.215 255.375V255.425ZM68.0482 331.903C66.1793 329.887 64.7039 327.034 63.2285 327.034C61.5071 327.034 58.8021 329.247 58.3103 331.018C57.3758 334.412 57.5725 338.199 57.6217 341.789C57.6217 342.822 59.1463 344.789 59.4414 344.691C61.4086 344.002 64.1628 343.363 64.9497 341.789C66.5727 338.691 67.1137 335.002 68.0482 331.854V331.903ZM77.8353 197.488C76.9009 195.373 76.4091 192.127 74.8353 191.487C73.3599 190.848 69.9665 192.373 68.8353 193.996C67.6549 195.668 67.3107 199.012 68.2451 200.684C69.1304 202.258 72.6221 203.734 74.1467 203.144C75.8189 202.504 76.606 199.455 77.7864 197.488H77.8353ZM145.362 206.881C144.625 207.57 143.444 208.111 143.149 208.996C142.756 210.127 142.559 211.849 143.149 212.587C145.018 214.849 146.543 213.865 146.641 210.177C146.641 209.095 145.805 207.963 145.313 206.881H145.362Z" fill="black"/>
</svg>
