<svg width="464" height="579" viewBox="0 0 464 579" fill="none" xmlns="http://www.w3.org/2000/svg">
<path d="M282.538 177.154C289.276 201.647 296.309 227.321 303.49 252.945C305.162 258.896 312.736 263.666 318.49 261.896C336.786 256.19 355.672 253.731 374.508 251.223C389.607 249.207 404.853 248.715 420.1 248.075C425.067 247.879 430.28 248.813 435.149 250.092C469.331 259.043 469.036 291.799 454.527 310.095C448.33 317.915 439.625 323.767 432.002 330.407C425.756 335.866 422.608 342.555 425.313 350.719C433.379 374.966 437.559 399.902 440.018 425.28C441.346 439.15 445.035 452.724 447.248 466.544C452.019 496.644 454.675 527.088 461.462 556.843C462.003 559.253 461.56 561.909 461.708 564.466C462.003 571.155 456.691 578.828 451.625 578.533C446.215 578.238 441.691 575.582 439.625 570.565C427.182 539.924 414.985 509.235 402.739 478.545C391.869 451.396 381.098 424.198 370.033 397.147C369.295 395.377 366.442 393.262 364.721 393.41C362.606 393.557 359.754 395.377 358.721 397.295C350.458 413.034 341.507 428.477 336.49 445.74C335.064 450.609 332.999 455.281 331.13 460.003C329.851 463.2 323.949 466.938 322.08 465.659C320.064 464.282 317.457 462.757 316.768 460.741C314.359 453.56 312.195 446.232 310.768 438.805C307.375 421.345 304.67 403.738 301.326 386.278C300.391 381.36 298.62 376.491 296.506 371.966C294.292 367.245 290.358 363.163 285.194 362.671C256.127 359.917 227.257 354.457 197.896 355.392C188.109 355.687 180.682 360.015 176.453 368.769C169.813 382.491 163.862 396.558 157.222 410.279C147.779 429.657 138.091 448.937 128.205 468.118C127.222 469.987 123.975 471.807 121.91 471.659C119.893 471.512 116.893 469.151 116.352 467.233C113.942 458.773 112.319 450.068 110.204 441.461C109.959 440.379 108.434 438.658 107.795 438.756C105.483 439.1 102.434 439.494 101.204 441.068C98.1059 445.002 95.4991 449.428 93.3351 454.002C79.0232 483.807 65.0064 513.71 50.6945 543.515C47.3993 550.351 43.514 556.942 40.3172 562.843C31.2185 570.122 20.9395 571.008 11.1523 573.27C6.3325 574.401 -1.09422 565.106 0.135328 560.138C0.43042 558.958 0.1354 557.335 0.823947 556.499C11.0538 544.105 11.6439 528.268 16.1687 513.858C31.8577 464.134 40.3662 412.493 56.7437 362.917C59.4487 354.802 63.7769 346.342 60.2358 335.374C52.3667 329.423 43.0712 322.882 34.366 315.652C25.71 308.521 23.4477 294.209 29.1528 284.225C36.8743 270.749 45.727 258.551 63.2358 257.42C70.2196 249.108 78.3839 250.043 87.335 253.879C97.86 258.354 108.68 262.142 119.254 266.519C128.943 270.503 138.927 271.29 149.206 270.601C153.878 270.257 160.468 266.519 161.354 262.879C168.387 234.501 175.42 206.172 182.207 177.744C183.731 171.301 178.912 165.449 171.534 165.055C153.632 164.17 136.173 161.416 119.205 155.465C104.45 150.252 96.2862 137.907 98.401 123.152C103.319 88.9209 112.86 56.0667 128.55 25.1801C132.14 18.0487 137.599 12.4911 145.468 10.8189C159.091 7.86797 172.813 4.81875 186.683 3.54C208.175 1.52352 229.913 -0.83741 251.406 0.293788C279.144 1.72008 307.375 0.392321 334.425 9.68782C344.655 13.1798 351.688 19.0817 357.54 28.1313C371.557 49.9683 379.181 74.166 384.591 99.0524C386.705 108.741 386.459 119.414 385.181 129.349C382.722 148.579 371.901 154.973 358.327 156.743C338.163 159.35 318.047 162.252 297.932 165.35C291.538 166.334 285.833 169.187 282.636 177.105L282.538 177.154ZM410.362 338.719C403.821 345.752 394.378 345.604 386.213 348.752C374.705 353.178 369.639 365.572 374.656 376.835C376.672 381.409 378.934 386.229 382.328 389.77C395.066 402.902 404.165 417.312 403.525 436.543C403.378 440.084 404.755 444.265 406.821 447.166C417.444 461.774 419.854 480.02 428.51 495.414C430.625 499.201 430.428 504.906 436.281 506.038C436.773 504.808 437.805 503.579 437.658 502.497C433.28 472.544 429.297 442.543 424.133 412.739C420.936 394.098 415.723 375.753 416.313 356.572C416.51 349.932 413.116 344.473 409.526 339.211C408.099 331.932 413.755 328.095 416.805 322.685C423.936 309.996 423.395 309.652 427.969 308.029C431.559 306.799 435.1 305.422 438.494 303.75C445.379 300.307 448.724 291.258 445.625 284.323C444.1 280.88 442.527 276.995 439.871 274.634C427.133 263.322 413.509 256.436 395.066 260.076C350.36 268.929 305.162 274.929 259.963 280.978C247.422 282.651 234.782 283.782 222.192 284.667C183.928 287.372 146.156 282.7 109.024 274.388C86.2037 269.273 66.4819 274.535 47.3501 285.847C45.2353 287.077 43.7105 289.339 41.9399 291.11C38.6939 294.356 38.7432 301.193 41.6941 305.078C47.4976 312.603 54.9241 316.636 64.4653 316.636L63.8752 315.947C83.6463 330.997 107.893 334.194 130.812 340.834C139.271 343.293 148.419 346.49 156.78 345.555C175.961 343.391 194.404 349.096 213.438 348.408C233.651 347.67 253.963 348.899 274.226 348.555C299.555 348.113 324.884 347.572 350.163 345.801C370.328 344.424 390.345 341.227 410.46 338.817L410.362 338.719ZM237.192 156.694C254.455 156.104 271.029 154.186 287.456 155.219C315.785 156.989 338.95 143.366 363.049 132.3C370.328 128.955 373.967 120.693 373.229 112.971C370.623 84.7403 362.311 58.1816 347.015 34.1314C341.261 25.0818 332.753 20.2622 322.031 18.3932C279.095 10.8683 235.913 11.9011 192.683 13.475C185.158 13.7701 177.682 16.0324 170.157 17.4587C156.435 20.0162 146.943 27.8854 142.763 41.0663C135.386 64.1821 126.582 86.5602 113.647 107.217C112.959 108.299 112.614 109.528 112.123 110.709C104.598 129.398 112.319 143.513 131.746 147.989C166.764 156.104 202.273 156.694 237.143 156.694H237.192ZM208.913 278.224C228.044 275.618 248.11 272.863 268.177 270.06C272.751 269.421 276.587 263.568 275.849 258.748C271.865 232.386 267.784 206.074 263.849 179.712C262.521 170.957 256.717 165.547 248.602 166.383C237.241 167.564 225.88 168.793 214.569 170.564C207.831 171.597 202.814 175.777 201.289 182.564C195.388 208.533 189.781 234.599 184.125 260.666C183.879 261.896 184.125 263.224 183.977 264.453C183.682 268.486 188.601 274.831 192.781 275.568C197.748 276.454 202.765 277.191 208.863 278.224H208.913ZM109.172 382.934C108.287 377.967 107.795 374.179 106.909 370.491C105.385 364.343 103.909 358.195 101.844 352.244C101.057 350.031 99.0402 348.014 97.073 346.588C86.7448 338.866 75.9738 340.44 72.6786 351.605C64.7603 378.262 56.9898 405.017 49.5141 431.772C42.0385 458.577 34.9563 485.48 27.7266 512.333C26.5954 516.563 28.4152 523.301 30.1857 522.465C32.3497 521.432 34.9072 520.104 36.0384 518.186C54.8258 486.66 73.5149 455.085 91.9582 423.362C97.0239 414.607 101.647 405.558 105.778 396.361C107.795 391.885 108.287 386.672 109.221 382.836L109.172 382.934ZM336.982 355.392C331.228 355.785 327.441 355.933 323.703 356.375C313.818 357.457 307.916 364.736 309.883 374.917C312.982 390.902 316.818 406.738 320.801 422.575C321.195 424.198 324.539 425.28 326.703 426.116C327.441 426.362 329.162 425.182 329.753 424.247C340.917 407.279 345.835 387.705 353.016 369.064C353.458 367.982 353.557 366.409 353.114 365.425C352.13 363.261 351.098 360.31 349.278 359.474C344.852 357.408 339.933 356.375 336.982 355.441V355.392ZM119.303 417.411C119.992 422.329 119.894 424.985 120.877 427.247C121.762 429.313 123.533 431.92 125.402 432.412C127.172 432.854 130.763 431.428 131.5 429.903C140.943 409.247 150.042 388.393 159.141 367.589C159.632 366.507 160.026 364.933 159.583 363.949C158.649 361.884 157.468 359.031 155.747 358.392C153.829 357.703 149.943 358.392 149.009 359.818C140.058 373.491 131.058 387.213 123.139 401.476C120.238 406.689 120.238 413.525 119.353 417.411H119.303ZM124.566 349.687C121.812 353.916 118.959 356.523 118.565 359.425C118.172 362.572 119.992 366.064 121.123 369.261C121.221 369.605 123.287 369.753 124.074 369.36C128.599 366.95 131.451 362.72 131.205 357.9C131.058 355.441 127.517 353.129 124.566 349.637V349.687ZM291.538 255.158L288.981 254.912L290.013 258.158L291.538 255.158Z" fill="black"/>
<path d="M156.779 324.308C171.927 324.505 187.075 324.948 202.223 324.948C235.077 324.948 267.93 324.948 300.784 324.555C315.932 324.407 331.08 323.817 345.835 319.341C351.786 317.522 358.278 316.882 364.524 316.685C373.278 316.439 382.082 317.128 391.672 318.554C384.344 326.964 374.754 325.784 366.737 328.391C359.704 330.702 351.884 331.145 344.359 331.489C290.112 333.899 235.815 333.703 181.567 331.932C172.763 331.637 163.714 331.489 157.369 323.62L156.829 324.26L156.779 324.308Z" fill="black"/>
<path d="M64.4652 316.538C69.1866 312.16 74.7443 309.406 81.1871 309.947C105.729 312.013 129.926 316.144 153.78 322.193C154.911 322.488 155.796 323.57 156.829 324.308L157.37 323.669C133.517 324.603 109.713 325.833 86.3512 318.062C79.4165 315.751 71.3998 316.538 63.875 315.898L64.4652 316.586V316.538Z" fill="black"/>
</svg>
