<svg width="603" height="441" viewBox="0 0 603 441" fill="none" xmlns="http://www.w3.org/2000/svg">
<path d="M525.6 202.028C526.633 200.503 527.961 199.421 527.961 198.388C527.764 175.617 527.568 152.796 527.125 130.025C526.879 117.335 526.682 104.597 525.846 91.9081C524.469 70.8088 507.157 55.1687 489.796 53.3981C478.533 52.2669 467.418 49.562 456.303 47.0537C454.877 46.7094 454.041 43.4633 453.254 41.4468C453.205 41.2501 455.221 39.8238 456.401 39.6271C476.025 36.7253 494.272 42.529 512.075 49.3162C524.617 54.0869 533.322 63.3824 534.551 77.5961C536.42 98.9414 540.355 119.745 537.109 141.927C532.486 173.256 532.978 185.011 565.634 205.717C569.913 208.422 574.241 211.127 578.225 214.225C590.766 224.012 598.685 236.898 601.439 252.44C602.521 258.489 602.373 265.227 600.849 271.178C597.603 283.671 591.258 294.884 581.078 303.098C576.307 306.983 570.454 310.967 564.651 311.853C549.65 314.066 534.601 316.672 519.158 315.049C500.223 313.033 481.189 311.803 462.205 310.082C446.909 308.655 435.401 315.885 425.417 326.263C424.04 327.689 423.646 331.23 424.384 333.247C425.663 336.739 428.417 339.69 430.04 343.133C440.221 364.527 436.483 386.61 419.908 402.299C413.466 408.398 406.728 414.299 399.744 419.808C391.777 426.054 383.416 431.809 375.251 437.76C353.169 435.645 331.725 435.989 310.282 439.383C302.856 440.563 294.937 440.907 287.56 439.727C242.411 432.645 197.311 424.923 152.211 417.595C139.67 415.578 127.079 414.054 114.538 412.234C95.7013 409.48 76.8648 406.578 58.0773 403.725C56.7986 403.529 55.5198 403.332 54.3394 402.938C13.8135 389.315 4.56726 379.036 1.86226 338.312C0.780256 321.885 1.91149 305.262 1.76395 288.737C1.41967 253.129 2.00988 217.471 0.0917809 181.961C-1.13777 159.288 10.174 143.206 22.7646 127.32C26.3057 122.844 33.3878 120.483 39.3388 118.614C53.8475 114.04 68.6513 110.401 83.3075 106.122C86.8978 105.089 90.2422 103.171 93.6357 101.548C97.2752 99.7774 99.4392 93.5805 98.4064 88.072C97.4719 83.1538 92.2094 78.1862 87.9306 78.678C79.127 79.6617 70.3235 81.0387 61.5199 81.9732C53.3557 82.8093 47.4539 75.9729 48.8801 67.2676C49.913 61.0215 51.2409 54.7755 53.0606 48.726C55.0279 42.2831 59.7494 38.0042 66.1923 36.0369C72.2416 34.1679 78.3893 32.4958 84.5863 31.2171C120.686 23.8889 156.736 16.6098 192.934 9.62588C202.918 7.70776 212.656 5.4454 222.443 2.59281C238.821 -2.17789 255.198 -1.14515 268.231 12.3309C275.904 20.2492 285.74 22.1675 296.068 22.6101C299.855 22.7577 303.692 22.5115 307.479 22.364C339.398 20.8885 370.727 24.4296 401.613 32.7906C400.924 38.0532 396.645 37.0204 394.088 36.8729C382.678 36.1843 371.317 35.004 359.956 33.8236C353.66 33.1842 347.119 30.5775 341.217 31.6103C328.332 33.9219 316.135 31.9548 303.593 29.9383C297.495 28.9546 291.003 30.3317 284.707 30.8235C281.707 31.0694 278.019 35.8892 278.068 38.9877C278.166 44.0043 283.232 50.6931 286.921 49.7587C302.216 45.8733 316.971 47.8897 331.824 52.1686C335.414 53.2014 339.398 53.3983 343.185 53.2507C377.956 51.8736 411.154 61.6609 444.794 67.907C464.664 71.5957 475.582 84.9733 480.697 103.22C483.402 112.909 484.288 123.188 485.271 133.271C486.698 148.468 487.337 163.715 488.517 178.912C489.501 192.044 492.599 195.241 507.157 198.487C513.305 199.864 519.551 200.847 525.551 201.979L525.6 202.028ZM68.5529 389.462C71.6514 391.233 74.6024 393.397 77.8976 394.676C81.0452 395.905 82.8157 394.381 82.1272 391.676C81.9796 391.036 80.0123 390.594 78.8811 390.495C75.2417 390.249 71.6514 390.249 68.012 390.151C65.1594 388.036 62.3561 385.823 59.3068 383.954C58.4707 383.413 56.5526 383.56 55.7657 384.2C53.1099 386.315 53.7984 388.036 57.5362 388.528C61.1757 389.02 64.8644 389.167 68.5038 389.462H68.5529ZM236.755 297.737C241.772 304.131 248.854 305.163 256.182 304.819C259.133 304.672 261.985 303 266.215 301.622C255.444 296.311 245.805 297.786 236.263 298.376C233.312 296.212 230.558 292.671 227.312 292.13C213.984 289.819 200.459 288.441 187.032 291.983C186.393 292.13 186.098 293.606 185.655 294.491C187.819 295.524 189.934 297.442 192.098 297.491C207 297.786 221.853 297.688 236.755 297.737ZM184.327 343.182C177.442 353.658 164.95 354.248 155.31 359.854C153.785 360.74 153.293 363.789 152.9 365.953C152.752 366.789 153.884 368.609 154.769 368.855C200.262 383.315 204.246 384.938 237.591 367.183C244.28 363.642 251.264 360.592 257.854 356.904C268.871 350.805 279.74 344.461 290.56 337.968C294.495 335.608 294.544 329.361 291.74 324.296C288.347 318.148 283.134 314.951 276.543 314.705C271.625 314.508 266.313 315.099 261.739 316.771C248.706 321.492 235.722 326.558 223.132 332.312C210.394 338.116 197.754 343.723 183.442 343.919C191.901 333.689 204.984 331.181 215.508 324.492C218.509 322.623 220.722 319.525 224.115 316.18C212.164 308.508 199.574 307.082 187.18 306.098C169.278 304.672 152.605 298.524 135.637 293.606C124.178 290.261 115.866 284.261 113.456 270.686C111.292 258.292 108.046 246.095 106.669 233.456C105.095 218.504 103.571 203.307 96.1933 189.683C95.6523 188.699 94.1276 187.421 93.3899 187.617C91.1767 188.208 87.8814 188.994 87.2912 190.519C85.5698 195.142 84.1928 200.11 83.9469 205.028C82.7665 232.816 83.701 260.653 77.9467 288.245C74.8482 303.049 76.0286 318.443 81.3895 333.247C83.5043 339.05 83.5043 345.641 84.4387 351.887C75.2909 347.756 71.2579 339.886 70.7169 330.64C68.9464 302.704 67.3235 274.572 73.2745 246.981C76.8156 230.554 76.7172 214.127 76.373 197.601C76.1271 184.715 72.8809 172.371 67.4709 160.813C66.0938 157.862 62.0117 155.255 58.7165 154.37C48.0441 151.517 37.0766 156.239 32.3551 164.747C27.3385 173.748 23.4532 183.289 23.6007 193.667C23.8958 210.143 25.0271 226.619 25.9615 243.095C26.4533 251.948 28.6665 260.85 27.7812 269.506C25.5189 291.048 29.4042 312.443 28.0271 333.935C27.732 338.903 29.2566 344.018 30.3386 348.985C31.7649 355.477 35.4535 360.74 41.0602 364.133C46.4703 367.379 52.1262 370.773 58.1264 372.347C104.8 384.79 150.49 400.627 198.196 409.43C242.214 417.546 286.134 423.251 330.84 419.71C339.545 419.021 348.25 416.464 356.513 413.562C362.858 411.349 365.956 405.496 366.841 398.709C368.268 387.79 365.464 377.904 356.415 371.609C320.266 346.575 316.331 345.395 280.674 364.92C274.035 368.56 267.641 372.79 261.592 377.314C260.166 378.396 260.313 381.839 260.215 384.249C260.215 385.085 261.543 386.659 262.428 386.757C288.642 389.708 314.364 398.266 341.217 393.397C341.955 393.249 343.627 394.872 343.775 395.807C343.972 396.84 343.185 398.61 342.299 399.151C330.545 406.037 317.758 404.562 305.216 403.135C291.298 401.561 277.527 398.069 263.658 397.627C238.132 396.791 213.099 392.561 187.917 389.167C156.146 384.839 126.145 374.363 95.898 364.674C89.5536 362.658 85.4715 357.69 83.7993 351.051C87.4388 351.641 91.3733 351.543 94.6685 353.018C111.538 360.543 127.915 359.363 145.08 353.018C157.671 348.395 170.458 342.886 184.475 343.329L184.327 343.182ZM420.007 83.8421C409.925 84.9241 400.432 82.1701 390.694 80.006C367.726 74.9894 344.857 68.4482 321.102 68.104C306.102 67.9072 295.921 70.5139 302.856 89.3016C304.97 95.0068 305.167 101.45 306.249 107.548C291.15 98.9412 281.806 85.8586 276.051 69.7268C273.051 61.3657 269.805 53.054 266.166 44.9389C263.608 39.1845 260.707 33.4301 257.166 28.2167C251.903 20.3967 244.477 15.8229 234.64 16.4131C229.575 16.7082 224.41 16.8064 219.492 17.79C195.885 22.7083 172.179 27.3806 148.769 33.135C106.423 43.4633 105.439 40.4632 114.932 86.3997C118.03 101.4 121.719 104.007 138.785 104.499C145.031 104.696 151.72 104.155 157.474 106.073C176.95 112.565 197.213 114.188 217.23 117.63C238.476 121.27 260.264 121.664 280.97 128.844C285.445 130.418 291.199 129.828 295.97 128.648C299.019 127.91 302.61 124.664 303.643 121.713C305.315 117.09 305.02 111.729 305.61 106.712C308.757 110.548 313.233 113.893 314.905 118.27C320.905 133.91 331.725 146.452 340.135 160.518C346.677 171.486 356.12 176.551 367.579 179.158C375.005 180.83 382.579 181.814 390.055 182.994C402.597 184.962 415.089 187.076 427.679 188.749C438.991 190.224 450.401 191.355 461.812 192.241C469.14 192.831 474.353 188.208 474.5 181.519C474.795 162.387 474.205 143.451 466.631 125.303C462.549 115.565 456.352 107.991 447.893 101.843C438.696 95.2035 426.794 92.5967 419.515 83.0553C429.45 84.8751 439.385 86.7931 449.368 88.4653C450.155 88.6128 451.778 87.039 452.024 86.0062C452.27 85.0717 451.483 83.3996 450.598 82.7603C440.172 74.5468 429.942 74.3009 420.056 83.744L420.007 83.8421ZM62.061 124.27C64.3234 130.959 69.7333 131.352 74.1105 132.09C91.5701 135.139 109.128 137.697 126.686 140.304C159.244 145.124 191.36 152.55 224.263 155.944C241.772 157.764 259.034 162.879 276.248 167.354C292.134 171.436 302.806 182.06 307.872 197.552C310.577 205.913 312.643 214.668 313.38 223.373C314.364 234.685 313.282 246.194 313.872 257.555C314.512 268.867 315.544 280.277 317.413 291.442C320.02 306.983 327.348 319.918 340.48 329.46C347.66 334.673 354.103 340.87 360.546 346.919C374.858 360.445 384.842 376.036 384.055 396.889C383.907 400.283 386.12 403.873 387.645 407.217C387.989 407.955 390.203 408.594 391.137 408.201C405.597 402.151 417.007 392.709 423.794 378.249C427.876 369.593 426.155 356.904 419.072 349.821C414.646 345.395 409.531 341.51 404.318 337.968C394.875 331.575 385.038 325.722 375.497 319.476C355.972 306.639 346.529 288.048 345.201 265.129C344.66 256.276 345.349 247.374 345.103 238.521C344.709 225.832 345.447 212.897 343.136 200.552C335.463 159.042 322.627 147.435 282.888 136.959C280.478 136.32 277.822 136.418 275.314 136.074C240.198 131.057 205.131 125.992 170.015 121.024C149.998 118.172 130.178 113.007 109.718 117.139C92.7013 112.663 77.5533 118.909 62.0118 124.32L62.061 124.27ZM288.052 295.18C291.937 282.441 290.462 268.769 288.15 254.998C286.478 245.013 284.658 235.029 283.183 224.996C279.543 199.864 272.707 191.945 248.854 185.699C245.165 184.716 241.477 183.683 237.69 183.289C212.41 180.683 187.622 175.322 162.736 170.354C151.67 168.141 140.063 168.584 128.702 167.994C125.358 167.797 120.833 172.076 121.079 174.928C123.292 200.208 125.702 225.488 131.703 250.227C133.916 259.473 140.113 265.867 148.916 269.211C154.818 271.424 161.015 273.146 167.212 274.179C187.278 277.375 207.443 279.687 227.46 283.179C247.28 286.622 266.953 290.999 288.003 295.229L288.052 295.18ZM435.745 304.032C442.729 301.131 449.811 298.425 456.647 295.278C476.222 286.228 495.698 276.884 515.321 267.834C525.158 263.309 531.06 255.243 535.683 245.997C538.043 241.226 537.748 236.259 535.781 231.292C532.338 222.537 526.289 216.045 517.584 212.897C510.502 210.34 503.026 208.52 495.55 207.29C480.55 204.733 465.451 202.667 450.352 200.651C426.45 197.454 402.498 194.404 378.546 191.503C373.579 190.913 368.267 190.519 363.497 191.65C360.497 192.388 355.923 196.126 355.923 198.487C356.316 221.307 357.3 244.128 358.628 266.9C359.316 279.048 365.759 285.884 377.071 287.654C387.104 289.179 397.482 289.327 407.17 292.032C416.81 294.688 425.761 299.754 435.745 304.131V304.032ZM589.193 263.358C589.045 252.096 586.488 242.653 580.143 234.242C572.274 223.816 561.798 217.324 549.749 213.045C549.011 212.799 547.486 213.733 546.798 214.52C546.109 215.307 545.421 216.93 545.765 217.668C548.863 224.455 551.077 232.128 555.7 237.685C571.684 256.817 572.864 275.9 558.11 296.016C557.47 296.852 557.323 298.475 557.618 299.508C557.962 300.59 559.044 301.77 560.077 302.114C561.159 302.508 562.831 302.409 563.716 301.77C577.684 292.228 588.996 280.916 589.143 263.358H589.193ZM286.871 189.191C288.199 199.274 289.38 207.586 290.413 215.897C291.495 224.603 291.593 233.554 293.609 242.013C297.052 256.866 298.036 271.769 298.134 286.917C298.134 294.442 298.478 302.016 299.56 309.442C300.052 312.934 302.61 316.18 304.479 319.377C305.02 320.312 307.331 321.344 307.577 321.099C309.052 319.623 311.561 317.312 311.167 316.131C305.118 296.606 304.725 276.687 305.364 256.522C305.757 243.981 305.561 231.341 304.331 218.848C303.249 207.536 299.61 196.864 286.822 189.191H286.871ZM12.1905 270.785C5.25584 294.934 5.35418 309.541 12.6331 325.525C17.5513 315.984 15.4366 305.901 15.6333 296.163C15.83 287.655 17.1087 278.703 12.1905 270.736V270.785ZM540.011 279.441C539.863 278.261 540.109 276.49 539.421 275.949C537.65 274.572 535.289 272.555 533.469 272.85C527.174 273.736 521.617 276.785 518.272 282.392C517.485 283.671 518.666 287.802 519.944 288.343C529.928 292.573 537.699 288.884 540.011 279.441ZM88.2257 62.7429C88.2257 60.333 89.1602 57.2346 88.0291 55.8083C86.0126 53.2508 82.8649 50.3489 79.9631 50.0538C74.3564 49.4636 69.1923 55.0705 68.1103 61.5134C67.9627 62.497 68.3071 63.9726 68.9957 64.7104C73.127 69.2351 84.5371 67.9563 88.2749 62.7922L88.2257 62.7429ZM11.8462 175.125C17.0103 173.256 18.7809 168.584 20.1089 164.059C20.6007 162.387 18.7318 159.928 17.6498 157.96C17.5514 157.813 15.3381 158.452 14.502 159.141C10.3216 162.485 8.99361 167.01 9.8297 172.125C9.97725 173.158 11.1084 174.092 11.8462 175.076V175.125ZM237.64 174.781C239.706 173.994 241.722 173.158 243.788 172.371C241.919 171.338 240.149 169.617 238.23 169.42C233.017 168.879 229.279 171.387 231.493 172.863C233.214 173.994 235.575 174.141 237.69 174.732L237.64 174.781ZM32.2076 376.085C31.5682 375.15 31.0764 373.626 30.1911 373.331C27.191 372.249 26.0106 373.626 27.3877 376.577C27.7811 377.413 29.2566 378.052 30.2894 378.101C30.9288 378.101 31.5682 376.823 32.2076 376.085ZM552.946 267.539L554.962 267.736L554.175 264.981L552.946 267.49V267.539Z" fill="black"/>
<path d="M256.33 241.57C253.576 243.095 250.92 245.161 247.871 245.899C246.789 246.144 244.723 243.243 243.493 241.521C243.1 240.98 243.69 238.915 244.379 238.62C247.33 237.193 250.477 235.964 253.674 235.226C254.018 235.128 255.199 238.816 256.379 241.62L256.33 241.57Z" fill="black"/>
<path d="M192.639 238.374C191.951 239.259 191.262 240.095 190.623 240.98C189.197 239.554 187.574 238.226 186.393 236.603C186.147 236.258 187.475 234.734 188.065 233.799C189.59 235.324 191.115 236.849 192.639 238.422V238.374Z" fill="black"/>
<path d="M429.646 258.637C428.22 260.456 427.089 263.063 425.22 263.85C423.793 264.44 421.334 262.915 419.564 261.932C419.22 261.735 419.564 259.62 420.105 258.637C422.318 254.604 426.597 253.079 428.662 255.538C429.302 256.276 429.351 257.555 429.646 258.587V258.637Z" fill="black"/>
</svg>
