<svg width="612" height="625" viewBox="0 0 612 625" fill="none" xmlns="http://www.w3.org/2000/svg">
<path d="M609.084 117.308C609.92 147.85 605.002 178.048 598.952 207.902C590.592 248.97 581.099 289.791 565.115 328.891C554.541 354.761 545.836 381.418 536.246 407.682C534.327 412.895 534.918 417.862 538.016 422.141C545.443 432.47 553.164 442.601 560.984 452.585C590.985 490.849 604.756 535.359 611.15 582.673C611.838 587.591 608.789 592.51 604.067 595.067C599.149 597.723 594.034 597.772 589.657 594.821C585.526 592.067 580.952 588.772 578.788 584.542C570.673 568.705 563.345 552.475 555.869 536.343C547.361 517.85 539.147 499.259 530.491 480.865C528.917 477.57 525.819 475.013 523.36 472.16C521.491 469.996 514.458 470.193 512.933 472.603C508.9 479.045 504.867 485.439 501.13 492.03C497.834 497.784 493.457 502.358 487.113 504.178C479.391 506.391 473.44 510.473 468.768 516.965C466.555 520.064 463.801 522.72 461.145 525.523C452.538 534.622 442.111 537.769 429.914 534.769C400.159 527.539 371.339 517.605 343.698 504.424C311.484 489.03 278.188 476.488 244.941 463.651C241.449 462.274 237.613 461.733 233.875 460.897C229.646 459.963 222.465 462.864 220.596 466.553C218.285 471.078 215.481 475.553 214.35 480.373C205.497 518.736 192.366 556.065 186.464 595.215C185.185 603.674 180.218 611.642 176.529 619.658C174.611 623.79 167.676 625.363 163.152 623.396C153.266 619.068 148.495 612.428 149.774 602.739C150.905 593.985 152.578 585.181 154.987 576.673C165.463 539.983 176.332 503.44 186.956 466.799C188.382 461.93 189.562 456.963 190.743 452.044C191.825 447.52 188.48 441.962 183.464 440.044C178.693 438.224 173.873 436.601 169.053 434.978C163.053 432.912 156.955 430.994 150.955 428.928C101.428 412.157 111.363 417.518 84.6081 377.385C80.6736 371.483 73.1487 371.483 68.7224 377.287C66.4108 380.336 63.8042 383.189 62.0336 386.533C60.2631 389.878 59.0827 393.566 58.0499 397.206C55.3449 406.993 52.7874 416.83 50.4267 426.715C45.1151 448.995 40.1477 471.324 34.5901 493.505C33.4098 498.227 30.5572 502.801 27.6555 506.834C21.8028 514.899 5.52363 512.785 1.73662 503.686C0.802165 501.424 -0.279838 498.719 0.0644355 496.456C1.98253 483.915 3.11371 471.078 6.65481 458.93C15.5567 428.437 22.2947 397.255 34.7377 367.844C37.6886 360.86 39.1149 353.138 42.4592 346.351C48.066 334.941 43.4429 327.022 35.4262 319.35C28.9834 313.202 22.6881 306.857 17.0814 299.972C13.9829 296.185 12.3107 291.168 10.1959 286.594C8.96636 283.889 12.2615 277.545 14.9174 277.299C32.6229 275.528 50.3283 273.659 67.5912 269.085C74.3291 267.315 78.8539 263.331 80.8211 256.79C83.3786 248.281 85.1491 239.527 87.805 231.067C93.5101 212.87 99.2152 194.672 105.56 176.671C108.215 169.146 114.462 164.13 122.478 162.704C139.938 159.605 157.447 155.523 175.3 160.146C206.137 159.753 235.793 167.13 265.598 173.671C270.565 174.753 275.581 175.835 280.598 176.032C285.861 176.229 290.779 174.261 293.287 169.245C296.681 162.458 300.123 155.572 302.632 148.441C308.976 130.44 314.632 112.193 321.026 94.1923C325.255 82.241 330.075 70.4371 334.895 58.6825C339.272 47.9607 345.567 38.6161 354.027 30.501C363.174 21.6973 371.388 11.91 380.634 3.15549C382.946 0.942279 389.29 -0.877489 390.716 0.450439C400.258 9.35247 411.766 8.22131 423.176 8.31967C425.734 8.31967 428.291 8.46722 430.8 8.31967C459.276 6.25401 486.424 11.6641 512.933 21.9924C523.557 26.1237 534.918 28.5337 545.541 32.665C554.885 36.2553 562.361 34.0421 570.624 29.3698C578.345 24.9925 585.132 27.5009 590.837 34.1405C602.002 47.0263 609.576 61.1908 609.084 78.8965C608.74 91.6348 609.035 104.373 609.035 117.259L609.084 117.308ZM172.103 193.984C169.004 193.984 161.332 193.639 153.758 194.082C145.545 194.525 139.446 198.705 135.905 206.329C128.282 222.608 124.741 240.068 121.298 257.478C120.806 259.937 124.593 265.298 127.249 265.888C134.528 267.61 142.249 268.102 149.823 268.151C176.529 268.298 203.284 268.053 229.99 267.954C241.449 267.905 252.909 267.954 263.975 271.84C270.663 274.151 276.27 272.774 281.041 267.413C286.795 260.97 294.172 259.79 301.943 262.298C322.452 268.938 343.354 274.397 362.289 285.561C377.585 294.562 393.913 301.743 409.799 309.71C412.897 311.284 418.111 309.71 419.881 306.759C422.488 302.431 425.537 298.251 427.406 293.628C445.702 248.921 464.538 204.509 484.998 160.736C497.982 132.948 511.901 106.095 529.262 80.8639C532.803 75.6997 534.918 69.5519 537.475 63.7975C539.098 60.158 535.901 52.338 532.213 50.5674C509.146 39.4522 485.195 30.5009 459.866 27.4024C442.308 25.2384 424.308 25.8286 406.602 26.4188C394.848 26.8123 383.88 31.6322 376.503 41.026C369.47 49.928 362.929 59.617 358.109 69.8961C349.453 88.2904 341.682 107.127 334.6 126.21C320.878 163.146 307.992 200.427 294.566 237.461C293.287 240.953 291.172 244.347 288.615 247.002C287.434 248.232 283.303 248.576 282.221 247.543C279.565 245.035 276.565 241.691 276.024 238.346C272.827 217.591 259.056 208.148 240.367 204.164C219.268 199.689 198.71 191.967 172.152 194.131L172.103 193.984ZM592.608 110.865C592.608 102.652 593.051 92.4709 592.461 82.3885C592.067 76.1423 590.838 69.7486 588.624 63.9451C586.903 59.5187 583.263 55.6824 579.968 52.0429C577.804 49.633 572.542 52.5347 568.165 59.2235C556.41 77.2243 543.918 94.8809 533.688 113.767C507.081 162.753 484.85 213.952 462.424 264.954C454.8 282.315 449.243 300.562 442.751 318.415C439.751 326.58 442.161 333.219 448.702 338.629C449.685 339.416 450.521 340.4 451.456 341.285C470.145 358.352 488.834 375.369 507.572 392.386C508.507 393.222 509.736 393.665 510.72 394.452C513.573 396.566 519.376 396.124 521.147 393.566C523.262 390.468 525.966 387.566 527.393 384.172C540.18 352.548 553.754 321.317 563.197 288.217C571.214 260.134 577.312 231.756 582.427 203.181C587.788 173.376 594.28 143.473 592.608 110.914V110.865ZM366.716 361.303C363.174 361.499 351.617 361.253 340.452 363.122C313.009 367.696 285.762 373.156 258.417 378.369C250.4 379.894 245.138 384.959 241.302 392.042C235.744 402.419 233.433 413.387 234.613 424.994C235.154 430.306 237.662 434.83 242.63 436.994C253.056 441.568 263.729 445.454 274.155 449.93C318.321 468.914 362.486 487.898 406.504 507.178C415.947 511.309 425.586 513.67 435.865 514.014C446.784 514.359 455.735 510.276 462.424 501.866C467.932 494.931 473.391 487.849 477.768 480.177C502.31 436.994 504.327 444.814 471.522 410.387C462.817 401.239 453.374 392.73 444.079 384.172C426.619 368.04 406.799 358.155 382.159 361.303C379.65 361.598 377.093 361.303 366.716 361.303ZM117.265 383.189C123.216 382.894 127.101 383.041 130.79 382.451C148.25 379.549 165.709 376.549 183.12 373.205C189.316 372.024 195.317 369.762 201.366 367.991C207.71 366.172 212.678 362.532 215.776 356.63C227.088 335.187 232.793 311.825 239.236 288.66C240.22 285.07 233.777 278.774 229.203 279.217C211.596 280.84 194.038 281.233 176.431 279.069C172.791 278.627 168.955 280.25 165.168 280.643C153.856 281.824 142.544 283.201 131.183 283.791C114.757 284.676 98.2807 285.217 81.8048 285.414C70.247 285.561 59.1319 287.381 48.2627 291.217C47.0823 291.66 45.8528 292.054 44.6724 292.447C41.2789 293.529 39.7542 298.939 42.2133 301.644C64.296 326.039 87.805 349.105 106.199 376.647C108.609 380.287 114.462 381.615 117.216 383.14L117.265 383.189ZM263.286 359.63C264.22 359.63 266.876 360.171 269.188 359.532C285.024 355.204 301.205 353.433 317.484 351.761C329.878 350.482 341.977 346.548 354.125 343.646C354.814 343.498 355.699 341.974 355.6 341.236C355.404 340.105 354.617 338.58 353.682 338.187C331.55 329.285 309.517 320.088 287.139 311.874C273.073 306.759 265.647 310.792 260.778 324.514C257.827 332.826 255.515 341.285 253.056 349.745C251.777 354.171 256.942 359.925 263.286 359.581V359.63ZM204.464 397.009C203.727 396.025 203.137 394.55 202.251 394.255C198.759 393.173 194.923 391.255 191.677 391.894C178.25 394.55 165.021 398.042 151.741 401.337C150.955 401.534 149.823 402.862 149.873 403.6C149.922 404.731 150.61 406.206 151.545 406.796C163.348 414.42 176.972 416.78 190.398 419.633C192.464 420.076 195.612 418.944 197.186 417.42C202.989 411.961 204.219 404.583 204.464 397.009Z" fill="black"/>
</svg>
