<svg width="651" height="791" viewBox="0 0 651 791" fill="none" xmlns="http://www.w3.org/2000/svg">
<path d="M213.612 543.612C209.825 540.317 206.481 536.284 202.202 533.874C192.218 528.316 181.742 523.545 171.513 518.43C141.512 503.381 116.183 482.232 93.8053 457.542C79.7885 442.099 71.6733 423.606 68.6241 402.901C65.5256 381.555 62.5747 360.161 59.132 338.865C58.3451 333.996 56.0335 329.176 53.7219 324.7C51.3612 320.126 47.5742 316.487 42.2134 315.454C35.9673 314.274 29.5738 313.88 23.426 312.306C18.6062 311.028 13.8846 308.814 9.45823 306.454C-1.55851 300.552 -3.2307 285.748 5.91713 277.436C23.2292 261.698 43.8364 252.058 65.9191 245.32C74.4276 242.762 83.1328 240.795 91.6413 238.336C106.298 234.106 120.905 229.975 136.348 228.893C146.381 228.204 156.217 224.86 166.25 223.335C172.693 222.352 178.939 223.827 183.562 229.04C184.3 229.877 184.497 231.5 184.3 232.68C184.152 233.664 183.267 235.188 182.529 235.385C166.447 238.729 150.414 243.697 134.184 244.582C114.855 245.664 97.1497 253.14 78.1163 255.156C65.6241 256.484 54.0662 262.976 44.0331 271.19C41.0822 273.6 41.4757 278.912 44.9676 280.83C57.2139 287.518 69.5585 293.961 81.5589 301.044C89.428 305.716 95.0348 312.798 98.0349 321.504C103.002 335.963 107.675 350.423 107.084 366.112C106.642 377.522 107.183 389.031 107.379 400.441C107.527 409.442 109.347 418.098 113.576 426.164C116.576 431.869 119.97 437.181 125.528 440.673C137.38 448.099 149.037 455.87 161.135 462.854C177.66 472.346 194.481 481.396 211.35 490.347C216.908 493.298 222.908 495.56 228.76 497.97C279.221 519.07 331.944 523.791 385.946 519.906C398.192 519.021 408.422 514.742 414.914 504.217C424.406 488.872 437.685 476.871 449.636 463.739C456.62 456.116 465.227 450.706 474.818 446.87C484.752 442.837 494.835 442.542 504.327 447.804C512.097 452.132 519.18 457.542 526.754 462.215C533.836 466.641 541.361 466.543 548.394 462.313C566.886 451.149 585.182 439.64 603.674 428.426C614.789 421.688 623.298 412.393 630.577 401.819C633.675 397.294 633.823 392.13 632.003 387.211C627.38 374.916 619.806 364.883 608.051 358.587C602.445 355.587 596.592 353.029 590.838 350.324C583.706 347.029 576.329 346.144 568.509 347.669C558.525 349.636 548.541 351.849 538.459 352.734C525.524 353.866 512.491 356.423 502.113 363.21C489.572 371.473 475.752 372.703 462.325 374.08C446.046 375.752 429.177 375.309 412.897 373.145C378.224 368.473 347.436 352.734 318.222 334.488C308.73 328.586 301.255 319.29 293.385 310.978C288.172 305.47 284.139 298.83 279.172 293.076C260.827 271.682 240.712 252.5 214.596 240.598C212.924 239.811 211.301 235.975 211.842 234.205C212.334 232.582 215.924 230.614 217.842 230.909C233.138 233.073 247.4 238.09 258.958 248.91C265.45 255.009 271.45 261.599 277.991 267.649C280.696 270.157 284.041 273.01 287.484 273.551C290.68 274.042 294.713 272.223 297.615 270.354C299.287 269.272 300.861 265.534 300.271 263.714C295.992 250.435 291.369 237.205 286.5 224.122C277.844 200.81 283.844 179.071 293.336 157.726C294.812 154.431 297.763 151.43 300.664 149.119C305.632 145.135 311.091 141.84 316.304 138.249C323.878 133.036 332.337 130.725 341.485 130.577C352.945 130.38 364.355 130.331 375.421 134.315C379.946 135.938 384.913 137.856 389.831 134.266C380.585 125.56 371.24 117.101 362.191 108.199C355.748 101.854 352.256 93.8376 349.256 85.2307C344.19 70.8202 347.879 57.6884 352.256 44.3108C353.043 41.9992 354.568 39.7368 356.24 37.8679C367.453 25.4247 379.896 14.6047 396.126 9.2438C411.816 4.03045 427.652 -0.740333 444.571 0.0957693C455.981 0.685959 467.489 0.194218 478.9 0.489313C492.916 0.833591 506.687 1.76797 519.081 10.0798C524.098 13.4242 530.934 14.6046 537.131 15.4899C557.443 18.4409 576.427 25.9166 595.756 32.2119C625.462 41.9009 640.708 65.0167 647.938 93.2475C653.003 113.068 645.184 130.971 631.216 145.578C616.314 161.169 596.739 166.382 576.034 168.448C564.771 169.579 553.213 166.972 541.951 170.513C543.131 172.923 543.574 175.825 545.197 176.809C553.951 182.022 563.197 186.35 571.804 191.809C579.28 196.531 586.903 201.597 592.952 207.892C607.018 222.499 613.805 239.664 607.363 260.222C606.232 263.862 605.395 267.599 604.805 271.387C601.707 290.961 593.346 307.585 578.444 320.864C574.853 324.061 570.624 327.307 572.443 333.258C598.756 338.422 607.412 341.57 622.609 349.931C634.314 356.374 642.134 366.112 647.348 378.063C652.856 390.703 651.676 403.146 643.364 414.163C633.429 427.344 622.855 440.033 612.478 452.87C610.904 454.837 609.281 457.001 607.215 458.329C575.099 479.576 543.131 501.266 501.327 485.626C488.638 480.904 478.949 486.855 471.768 497.036C464.44 507.413 457.358 518.037 450.915 528.955C444.816 539.185 436.308 546.317 426.127 552.022C410.438 560.826 393.667 566.728 376.306 570.957C362.535 574.302 348.568 574.105 334.6 571.695C328.403 570.613 322.157 569.383 315.862 568.99C313.845 568.842 310.747 570.711 309.812 572.531C308.878 574.351 309.32 577.744 310.55 579.515C312.615 582.564 315.37 585.663 318.567 587.286C328.698 592.548 338.78 598.401 349.6 601.795C373.798 609.369 398.045 617.139 423.57 619.845C442.505 621.812 461.292 625.353 480.08 628.451C485.146 629.288 489.375 632.239 492.67 636.37C495.572 640.01 496.507 646.895 494.097 650.682C492.031 653.928 489.228 656.486 485.097 656.781C481.31 657.027 477.424 657.764 473.736 657.371C420.422 651.813 368.634 639.419 318.124 621.517C313.402 619.845 309.32 616.5 304.746 614.238C301.451 612.615 297.861 611.533 293.287 609.811C288.664 624.517 289.549 638.337 295.304 651.321C302.533 667.552 310.747 683.388 319.353 698.979C322.304 704.389 327.272 708.816 331.895 713.144C349.551 729.669 367.552 745.801 385.159 762.376C388.749 765.769 391.405 770.245 394.159 774.474C396.766 778.458 395.487 785.688 391.159 788.049C388.11 789.721 384.028 790.557 380.585 790.065C376.995 789.574 373.159 787.705 370.306 785.344C352.748 770.737 334.01 757.113 318.37 740.637C300.91 722.242 286.598 700.946 277.549 676.7C271.303 659.928 265.745 643.108 266.04 624.861C266.139 618.566 265.106 612.221 264.516 605.926C264.221 602.778 258.417 599.483 255.761 600.959C250.204 604.008 244.794 607.254 239.285 610.352C220.104 621.172 199.595 627.369 177.464 627.517C166.004 627.615 154.545 627.517 143.086 627.517C109.986 627.566 76.9359 627.665 43.8365 627.615C40.0495 627.615 36.1641 627.173 32.623 626.042C30.459 625.353 28.7377 623.042 27.1147 621.173C25.3933 619.156 26.6228 612.221 28.9344 610.697C32.082 608.631 35.2788 605.582 38.7215 605.237C51.3613 604.008 64.0993 603.319 76.7883 603.221C106.052 603.024 135.315 603.368 164.627 603.221C180.021 603.122 194.874 600.664 209.186 591.221C207.317 586.597 205.792 581.827 203.53 577.449C200.628 571.843 196.841 566.678 193.841 561.072C190.103 554.088 194.333 545.333 202.596 543.317C206.235 542.431 210.17 542.972 214.006 542.874C218.973 553.252 226.35 561.613 236.187 567.564C237.564 568.4 241.4 567.367 242.679 565.941C249.073 558.76 247.302 552.268 239.039 548.136C230.924 544.104 222.514 542.628 213.563 543.415L213.612 543.612ZM91.9855 420.705C92.4281 423.852 91.2478 427.639 95.3299 429.41C95.6742 428.426 96.5595 427 96.2152 426.459C94.8381 424.541 93.0675 422.869 91.4445 421.147C91.4445 399.802 91.5921 378.457 91.297 357.063C91.1495 344.177 87.4117 332.274 79.1983 322.192C78.0179 320.717 75.067 320.52 72.8538 320.274C72.3128 320.225 70.7881 322.34 70.9356 323.274C74.5751 342.996 76.0997 362.964 77.7227 382.932C78.8539 396.408 81.7066 410.18 91.9364 420.705H91.9855ZM542.59 321.995C538.803 321.7 534.869 321.848 531.229 321.012C529.114 320.52 526.114 318.602 525.819 316.88C525.426 314.913 527 311.52 528.77 310.437C535.213 306.405 542 302.962 548.787 299.47C556.853 295.289 563.787 289.682 569.05 282.403C576.87 271.632 581.1 260.566 574.706 246.845C570.427 237.598 566.984 228.155 560.197 220.286C556.066 215.515 552.427 210.204 549.279 204.695C542.541 192.94 532.114 185.612 519.819 181.776C505.409 177.3 491.097 171.349 475.506 172.136C470.244 172.382 465.67 171.202 460.997 168.792C455.44 165.89 449.636 163.037 443.636 161.513C417.816 154.873 391.257 151.971 365.043 147.299C356.387 145.774 347.289 146.069 338.436 146.217C326.042 146.463 316.747 152.857 309.812 162.693C300.566 175.727 296.73 190.58 298.943 206.121C302.189 228.991 309.074 250.435 325.354 268.239C340.993 285.305 358.601 299.863 378.273 311.569C412.012 331.684 448.407 341.226 487.949 334.93C502.999 332.52 518.098 330.455 533.049 327.553C536.393 326.914 539.197 323.52 542.246 321.356C544.557 321.159 546.869 321.208 549.131 320.766C552.574 320.077 553.164 318.307 550.508 316.339C549.869 315.848 547.951 316.192 547.213 316.782C545.492 318.258 544.164 320.126 542.688 321.848L542.59 321.995ZM392.634 112.429C400.897 116.953 407.389 120.986 414.274 124.085C420.029 126.642 426.275 128.118 432.324 129.938C466.407 140.168 501.72 144.791 536.541 151.529C562.017 156.447 587.149 152.562 611.051 142.037C620.888 137.709 627.921 130.38 631.167 120.347C633.085 114.445 633.085 107.904 633.577 101.658C633.97 96.8869 631.167 91.4277 629.642 92.6573C627.773 94.1328 625.265 95.7066 624.626 97.7231C618.183 117.396 605.051 129.987 585.329 135.938C582.477 136.823 580.067 136.184 578.788 133.577C578.395 132.741 578.788 130.823 579.477 130.184C587.1 123.642 595.313 117.691 602.543 110.707C609.428 104.117 611.543 95.2639 609.133 86.1159C607.904 81.3944 605.74 76.132 602.297 72.886C590.395 61.574 578.05 50.7045 565.312 40.327C561.574 37.2777 556.263 35.6055 551.394 34.4743C536.59 30.9823 521.639 27.9823 506.737 24.933C496.802 22.9165 486.818 19.7196 476.834 19.6212C466.899 19.5229 456.964 23.4574 446.931 24.1952C426.963 25.7198 410.783 35.4089 395.241 46.5733C385.11 53.8523 381.028 64.6724 383.192 76.7713C385.208 87.9357 388.897 98.7559 392.634 112.429ZM153.66 474.805C153.66 474.805 153.463 475.15 153.365 475.346C149.971 473.625 146.676 471.51 143.086 470.281C141.02 469.592 138.462 470.477 136.151 470.625C136.397 472.74 135.905 475.494 137.036 476.871C145.299 486.708 155.479 494.183 166.988 500.036C213.661 523.742 261.614 543.218 313.55 552.711C334.01 556.448 353.584 558.711 373.749 552.956C378.618 551.579 383.782 551.383 388.848 550.792C406.061 548.776 419.832 540.513 432.128 528.562C442.308 518.627 449.341 506.577 457.309 495.118C466.456 481.937 478.162 472.887 495.376 473.576C497.835 473.674 500.343 472.838 502.753 472.1C503.786 471.805 505.409 470.33 505.261 469.936C504.425 467.674 503.638 464.92 501.868 463.543C496.556 459.461 490.211 458.673 483.769 460.051C472.26 462.51 462.128 467.723 454.702 477.068C446.046 488.036 437.243 499.003 429.619 510.659C418.947 526.988 403.946 534.808 385.11 536.136C335.042 539.726 286.156 533.382 238.548 517.496C225.318 513.069 212.137 508.495 199.989 501.167C184.792 491.921 169.054 483.511 153.561 474.756L153.66 474.805ZM439.21 360.948C446.735 360.456 454.309 360.112 461.784 359.374C465.03 359.03 466.211 356.915 465.227 354.554C464.784 353.472 464.047 352.095 463.112 351.751C457.21 349.734 451.309 346.587 445.308 346.292C411.471 344.718 381.618 332.57 353.978 313.88C346.649 308.962 339.42 303.945 332.092 299.027C330.026 297.601 327.862 296.273 325.747 294.994C322.009 292.732 315.173 294.601 312.32 298.584C310.353 301.388 310.943 306.011 313.353 308.962C320.632 317.864 329.141 325.192 339.371 330.504C348.322 335.127 357.125 340.094 366.273 344.373C389.29 355.243 413.094 363.161 439.161 360.997L439.21 360.948ZM360.322 67.2791C360.322 68.4595 360.027 69.7382 360.371 70.771C361.109 72.8859 362.289 74.8533 363.273 76.8698C364.207 74.9025 365.24 72.9843 365.978 70.9678C366.322 69.8858 366.371 68.5087 365.978 67.4266C365.24 65.3118 364.158 63.2953 363.175 61.2296C362.191 63.2461 361.256 65.2134 360.273 67.2791H360.322ZM517.507 165.005L520.409 166.628L520.802 164.218L517.507 165.005Z" fill="black"/>
<path d="M312.469 371.177C310.649 372.407 308.928 374.571 307.157 374.62C295.845 375.112 284.534 375.161 273.222 375.358C255.615 375.604 238.155 375.21 220.892 380.768C212.826 383.375 203.482 382.194 194.727 382.489C193.744 382.489 191.727 381.063 191.826 380.522C192.121 378.506 192.514 375.407 193.842 374.817C199.498 372.259 205.4 369.013 211.4 368.571C244.057 366.259 276.763 365.817 309.42 368.817C310.453 368.915 311.387 370.292 312.518 371.177H312.469Z" fill="black"/>
</svg>
