<svg width="623" height="531" viewBox="0 0 623 531" fill="none" xmlns="http://www.w3.org/2000/svg">
<path d="M471.551 529.728C466.485 529.187 461.419 528.793 456.403 528.006C449.665 526.924 444.402 523.088 441.746 517.039C437.173 506.563 433.582 495.694 429.353 485.07C426.303 477.398 420.303 472.381 412.532 470.906C392.614 467.069 372.597 461.758 352.481 461.167C321.841 460.233 291.939 453.938 261.495 451.724C238.773 450.052 216.051 446.56 193.673 442.085C178.574 439.085 163.475 438.15 148.278 436.675C134.36 435.347 120.589 432.986 106.67 431.707C98.5059 430.969 91.7682 434.953 87.1943 441.593C84.3417 445.724 82.0792 450.396 80.3087 455.118C76.7184 464.659 73.9152 474.447 70.3249 483.988C67.9642 490.283 62.8982 494.169 56.603 496.284C41.1598 501.399 26.5529 498.989 12.4377 491.365C4.02759 486.841 0.0930912 478.037 3.8801 468.889C13.1263 446.56 22.5692 424.33 32.1597 402.198C35.7992 393.787 41.6026 387.246 50.5537 383.902C55.2751 382.131 60.2918 380.459 64.1772 377.459C66.7346 375.442 69.341 370.868 68.8492 367.917C66.1934 351.638 63.2426 335.359 59.1113 319.423C48.2913 277.618 41.7502 234.731 27.5858 193.762C22.8643 160.908 13.2245 129.333 3.68318 97.6595C2.20772 92.7904 1.61761 87.6754 0.683154 82.708C-1.87431 68.691 2.74883 56.3954 14.5525 50.0508C39.1926 36.8207 64.0294 23.8857 89.2106 11.6393C98.26 7.26202 108.342 4.55697 118.228 2.39294C133.278 -0.902284 148.376 -1.34492 163.279 4.60616C173.902 8.88504 184.919 12.0819 195.739 15.8198C223.871 25.4596 248.265 40.2143 268.774 62.5432C282.741 77.7406 295.43 93.0363 303.201 112.267C306.595 120.677 308.119 129.235 308.759 138.235C310.283 159.925 303.496 178.22 288.25 193.615C282.004 199.91 275.905 206.402 269.856 212.894C266.806 216.189 270.249 223.616 275.315 224.6C278.954 225.288 282.938 226.272 286.43 225.583C310.087 220.862 333.743 215.894 357.301 210.632C378.794 205.812 400.237 204.877 421.484 210.976C457.042 221.255 493.83 224.501 530.126 230.305C546.406 232.911 562.734 235.469 578.816 239.108C584.718 240.436 590.817 243.732 595.342 247.814C606.899 258.093 614.67 271.323 621.211 285.192C624.064 291.242 623.424 298.078 619.687 303.488C611.08 316.03 601.981 328.276 592.686 340.326C588.8 345.343 584.03 349.671 579.456 354.097C569.226 363.983 567.456 376.033 570.111 389.263C571.833 397.968 574.292 406.575 575.57 415.329C577.587 429.297 569.669 443.167 556.094 449.265C553.094 450.642 548.176 450.347 545.225 448.823C535.094 443.56 525.503 437.363 515.618 431.658C510.7 428.805 501.748 433.92 501.06 439.921C500.765 442.429 499.978 445.036 500.42 447.396C501.355 452.364 502.831 457.233 504.306 462.102C506.962 470.61 509.863 479.021 512.47 487.529C514.88 495.398 513.257 502.579 508.191 509.022C507.404 510.006 506.47 510.989 505.929 512.121C498.847 526.629 487.142 532.039 471.452 529.925L471.551 529.728ZM63.931 46.9523C69.7345 45.526 75.7348 44.5915 81.2924 42.5259C88.227 39.9684 95.1124 38.3945 102.441 39.3782C100.375 42.4767 98.8995 46.4113 96.0469 48.477C89.9484 52.9526 83.1612 56.4445 76.62 60.3791C67.7181 65.74 67.4723 69.8714 75.4889 77.8881C88.9648 91.3641 101.998 105.283 116.064 118.07C132.196 132.776 144.294 150.629 157.131 167.892C171.689 187.418 174.787 209.648 169.279 233.059C167.262 241.666 164.311 250.125 161.508 258.535C160.524 261.486 160.721 263.7 163.426 265.175C164.41 265.716 165.934 265.864 166.967 265.519C186.345 259.372 203.903 250.912 218.362 235.371C230.314 222.534 245.511 212.648 259.429 201.681C270.544 192.926 278.512 181.417 287.119 170.45C289.381 167.597 290.856 163.761 291.692 160.121C294.889 146.252 295.283 132.038 289.676 118.906C277.922 91.5609 260.905 67.8057 234.74 52.6083C213.936 40.5094 192.001 30.3778 168.935 22.9021C159.934 19.9511 152.163 19.2134 143.999 25.3612C131.605 34.6567 117.884 41.0012 101.752 39.9684C102.391 37.5093 103.227 35.0993 103.67 32.6402C104.506 28.2138 101.604 24.8202 98.0633 25.7546C84.4891 29.3941 71.1608 33.4763 64.3246 47.5425C56.7505 47.2966 49.1766 47.5425 42.9305 52.5099C41.4551 53.6411 41.2583 56.3954 40.4222 58.3627C42.6846 59.0512 45.0453 60.625 47.1601 60.3299C55.1768 59.1987 60.636 54.3789 63.8329 46.9523H63.931ZM102.539 306.685C103.178 311.603 103.523 316.817 108.637 319.374C114.539 322.325 121.671 322.571 126.245 318.686C135.589 310.816 143.901 301.57 146.753 288.979C146.999 287.947 146.606 286.52 146.016 285.537C145.475 284.602 143.901 283.225 143.508 283.422C129.294 290.75 114.835 297.685 101.998 307.374C98.8996 298.472 97.5717 290.701 107.851 284.553C117.589 278.7 126.146 270.929 135.392 264.29C150.147 253.716 155.606 238.961 155.95 221.452C156.246 208.419 153.787 196.369 147.786 184.713C141.344 172.22 134.556 160.121 124.474 150.088C106.473 132.136 88.6695 113.988 70.6689 96.0856C66.1934 91.61 61.2263 87.5771 56.2097 83.7408C49.8653 78.9209 42.4387 77.7897 34.6188 77.9865C24.143 78.2816 18.3395 85.1671 20.7495 95.5446C24.4381 111.627 27.8807 127.759 32.3071 143.596C40.4713 172.958 47.3076 202.664 54.1439 232.272C64.4721 276.782 76.5217 320.801 87.7352 365.065C91.2763 378.934 99.6864 387.787 113.556 389.607C133.671 392.263 153.246 398.46 173.853 397.722C180.099 397.476 186.788 397.968 192.69 399.935C209.952 405.64 227.756 405.05 245.511 405.837C259.478 406.427 273.692 406.034 287.217 408.837C302.316 411.985 317.415 412.526 332.563 413.559C345.202 414.395 357.891 415.477 370.335 417.887C388.04 421.28 405.745 420.838 423.5 419.952C428.369 419.707 433.877 418.329 437.812 415.624C446.517 409.624 456.452 408.247 466.092 405.198C480.502 400.575 494.371 394.033 508.093 387.492C510.798 386.213 513.159 381.393 513.355 378.049C513.798 370.524 513.355 362.802 512.028 355.425C511.487 352.376 507.995 348.982 504.995 347.507C500.519 345.293 495.355 344.457 490.437 343.326C447.206 333.293 402.794 328.719 360.006 316.374C356.416 315.341 352.432 315.292 348.645 315.145C333.399 314.554 318.349 312.981 303.3 309.98C293.512 308.013 282.84 307.374 273.053 309.046C238.084 314.997 202.624 317.948 168.197 327.194C153.541 331.129 138.343 333.244 123.441 336.145C112.867 338.211 103.375 335.26 94.3746 329.899C89.8499 327.194 87.3416 322.276 88.2269 317.112C88.9646 313.03 91.4731 310.374 95.2109 308.948C97.5717 308.062 100.08 307.472 102.49 306.734L102.539 306.685ZM273.348 245.207C261.495 241.076 254.855 244.666 249.986 253.814C246.248 260.798 239.363 264.487 232.33 267.634C217.28 274.323 201.936 280.52 187.279 287.996C177.197 293.16 167.951 300.046 158.508 306.39C155.852 308.161 155.655 310.571 157.574 311.997C158.508 312.685 159.983 313.276 161.065 313.079C177.295 310.374 193.575 307.915 209.657 304.62C245.609 297.242 281.413 288.438 318.447 297.586C322.087 298.472 326.071 297.685 329.858 298.177C341.12 299.701 352.432 301.177 363.646 303.292C396.007 309.39 428.221 316.817 460.78 321.587C475.633 323.751 490.043 330.981 505.683 327.391C517.487 317.899 529.684 308.948 540.897 298.816C553.144 287.799 564.455 275.848 576.062 264.191C578.816 261.388 577.243 256.076 573.702 255.093C545.52 247.174 516.7 242.256 487.781 239.207C467.42 237.043 447.452 234.092 428.123 228.092C404.27 220.665 380.515 220.862 356.711 226.124C334.481 230.993 311.71 233.895 290.217 242.256C284.512 244.469 277.922 244.469 273.446 245.207H273.348ZM71.456 398.656C55.8161 398.952 47.1602 402.985 42.9798 414.001C35.7992 432.986 28.4709 451.921 21.5855 471.004C20.9461 472.824 22.3724 475.971 23.7495 477.791C26.2578 480.988 30.0448 481.726 33.9794 480.742C39.2419 479.365 42.8813 475.775 45.0453 471.102C50.8488 458.462 56.2097 445.577 62.0131 432.887C66.6362 422.854 73.1281 417.297 85.817 418.772C102.145 420.69 118.769 419.952 135.245 420.592C151.721 421.231 168.59 420.248 184.624 423.297C216.985 429.445 249.347 435.199 282.004 439.527C294.594 441.199 307.086 442.97 319.775 443.462C338.809 444.199 357.793 444.495 376.335 450.101C383.466 452.265 391.433 451.921 399.007 452.511C405.352 453.003 411.697 453.003 417.992 453.643C427.484 454.626 434.91 459.151 438.746 468.151C442.73 477.496 445.927 487.136 450.009 496.431C451.976 501.005 454.681 505.432 457.878 509.219C460.337 512.17 464.37 512.907 468.305 511.432C471.846 510.104 474.551 505.776 473.617 502.53C467.616 481.824 461.764 461.02 451.435 441.888C447.501 434.609 440.369 430.576 432.648 431.756C427.631 432.543 422.762 434.56 417.746 434.756C406.385 435.297 394.483 437.166 383.712 434.609C363.646 429.838 343.481 429.74 323.169 429.1C315.546 428.855 307.677 429.592 300.398 427.92C276.643 422.559 252.544 422.166 228.445 421.526C222.1 421.33 215.559 421.33 209.559 419.657C195.985 415.92 181.82 416.067 168.295 413.51C140.901 408.247 112.621 408.69 85.6696 400.673C79.6694 398.902 73.1773 398.902 71.4068 398.706L71.456 398.656ZM535.438 376.524C536.667 376.328 538.242 376.524 539.078 375.836C564.701 354.589 583.784 327.588 603.702 301.373C608.571 294.98 606.309 286.766 602.424 279.684C599.965 275.208 593.03 273.094 589.538 276.192C572.521 291.389 555.308 306.39 536.569 319.522C533.52 321.686 531.11 324.833 528.602 327.637C525.012 331.621 522.995 336.637 524.028 341.654C526.389 352.769 529.684 363.688 532.782 374.606C533.028 375.442 534.553 375.885 535.438 376.475V376.524ZM489.994 415.575C469.633 416.559 458.518 427.281 470.715 443.314C473.715 447.298 475.436 452.265 477.945 456.643C478.535 457.675 479.813 458.216 480.797 459.003C481.485 458.167 482.764 457.282 482.715 456.446C482.272 443.413 485.863 431.658 493.24 420.887C494.666 418.821 492.846 416.559 489.994 415.624V415.575ZM560.078 414.198C559.045 409.378 558.013 403.329 556.193 397.574C555.849 396.542 552.258 396.247 550.144 396.247C549.406 396.247 548.225 397.919 547.979 399.001C546.504 405.394 548.225 411.346 551.275 416.854C552.357 418.821 554.717 420.149 556.488 421.723C557.472 419.657 558.455 417.592 560.029 414.198H560.078Z" fill="black"/>
</svg>
