<svg width="336" height="565" viewBox="0 0 336 565" fill="none" xmlns="http://www.w3.org/2000/svg">
<path d="M309.698 453.033C318.108 416.343 308.42 380.833 302.026 342.963C271.238 354.521 242.024 365.489 210.843 377.194C208.876 436.312 201.597 495.478 208.334 555.776C200.269 567.333 189.547 564.629 178.727 560.448C177.743 559.12 176.317 558.087 176.317 557.104C176.219 497.642 176.219 438.229 176.219 378.719C167.022 370.407 157.087 366.324 145.037 370.062C134.562 380.735 139.775 394.506 136.922 406.507C135.201 413.737 130.184 417.327 123.2 416.884C115.872 416.392 111.348 411.228 112.184 404.097C113.807 390.424 116.659 376.85 119.069 362.882C102.052 348.324 81.2486 346.799 60.9365 338.34C43.9687 360.423 44.7061 386.588 39.6895 410.638C34.7713 434.049 31.7713 457.853 27.4925 484.117C19.1316 488.888 9.00029 489.33 0 482.002C7.6232 443.787 16.9182 406.851 21.7872 369.374C25.8202 338.487 41.1159 309.961 33.0009 276.025C26.017 246.909 29.7055 215.334 27.935 184.89C25.6726 146.823 21.7875 108.805 20.1645 70.6884C17.6562 11.4727 29.7055 1.48865 95.5601 0.0131705C115.331 -0.429472 132.004 10.3414 146.218 23.8666C171.202 47.7201 193.137 74.0822 208.531 105.264C217.532 123.511 225.843 142.101 234.597 160.447C246.401 185.234 261.598 204.465 290.714 213.023C325.289 223.204 340.535 248.778 334.388 283.55C326.912 325.552 330.65 367.21 332.126 409.015C332.519 420.425 333.552 431.885 333.355 443.295C333.158 454.558 328.584 456.476 309.748 452.984L309.698 453.033ZM76.8713 242.532L77.4123 243.073C77.1172 239.286 78.0025 234.811 76.2812 231.81C67.2317 216.072 62.756 199.989 66.9365 181.595C68.2152 175.89 65.2646 169.152 64.1334 162.906C60.6907 144.167 56.7557 125.527 53.9032 106.74C52.7228 98.9196 53.9033 90.7547 54.0509 74.2294C76.9204 123.609 71.6085 171.71 93.101 214.154C122.315 208.35 149.562 201.219 176.465 186.12C171.006 175.25 167.021 166.053 161.906 157.496C148.922 135.708 135.299 114.264 122.217 92.5258C119.807 88.542 117.495 83.4759 126.446 78.656C137.906 91.05 146.759 106.1 155.956 120.953C168.645 141.462 181.088 162.168 194.613 182.087C204.4 196.547 208.876 197.038 230.073 191.087C222.401 153.266 199.482 122.379 182.366 89.0826C173.858 72.5081 159.694 58.6389 147.103 44.4251C140.464 36.9494 132.054 30.8013 123.742 25.0961C99.2984 8.37408 73.3303 10.7841 47.4114 20.9157C36.9357 24.9979 32.0662 33.7525 32.2138 45.0645C32.263 50.1303 32.5581 55.196 32.8532 60.2618C35.2631 102.067 37.5746 143.872 40.1812 185.628C42.0993 217.301 44.5585 248.926 46.3782 280.55C47.2635 295.404 53.4609 307.404 64.0842 317.29C72.4943 325.11 81.2978 332.585 94.1835 328.847C100.184 303.322 97.036 287.78 76.9206 242.483L76.8713 242.532ZM99.0032 233.482C96.7408 249.565 100.577 259.599 109.823 267.714C115.331 272.534 113.758 277.648 112.676 284.435C106.823 321.076 118.577 340.209 152.267 350.193C201.596 364.751 247.582 357.619 289.042 326.684C297.01 320.733 304.583 313.404 310.19 305.289C331.289 274.599 321.453 241.647 287.075 227.876C276.599 223.695 265.189 221.58 254.025 219.466C239.123 216.662 223.827 215.63 209.072 212.334C169.53 203.531 134.316 214.646 99.0032 233.482Z" fill="black"/>
<path d="M76.8713 242.533C76.0844 243.467 75.4452 244.598 74.5599 245.385C71.0188 248.287 67.6249 252.91 63.7395 253.402C58.4279 254.09 64.084 246.959 73.822 244.008C75.0024 243.664 76.1827 243.369 77.4122 243.074L76.8713 242.533Z" fill="black"/>
<path d="M116.512 142.298C114.939 142.987 114.103 143.38 113.218 143.724C112.922 142.839 112.627 142.003 112.332 141.118C113.562 141.462 114.742 141.807 116.512 142.249V142.298Z" fill="black"/>
<path d="M296.567 275.386C291.107 286.895 290.173 291.961 287.173 294.666C259.287 320.142 225.843 330.52 188.908 326.192C172.186 324.225 153.792 324.274 136.873 311.142C142.037 308.24 144.89 305.24 147.546 305.338C168.399 306.322 189.744 317.339 209.761 301.896C210.45 301.354 212.417 301.453 213.154 302.043C233.565 319.257 248.172 300.224 264.5 293.535C273.255 289.944 281.173 284.19 296.665 275.288L296.567 275.386Z" fill="black"/>
<path d="M186.695 293.338C187.383 295.305 188.121 297.223 188.564 299.24C188.564 299.436 186.744 300.026 185.761 300.469C185.023 298.551 184.236 296.682 183.744 294.715C183.744 294.518 185.613 293.83 186.646 293.387L186.695 293.338Z" fill="black"/>
<path d="M210.203 269.73L211.383 272.731L208.58 272.484L210.203 269.73Z" fill="black"/>
<path d="M134.562 261.713L132.201 260.779C132.545 259.943 132.693 258.812 133.332 258.369C133.726 258.074 134.857 258.91 135.644 259.206C135.299 260.042 134.906 260.877 134.562 261.713Z" fill="black"/>
</svg>
