<svg width="459" height="508" viewBox="0 0 459 508" fill="none" xmlns="http://www.w3.org/2000/svg">
<path d="M72.2807 311.965C64.3624 346.147 72.5756 379.492 61.313 410.428C52.0176 380.82 56.7392 350.573 56.5424 321.113C56.3457 291.111 61.3131 261.012 58.7065 229.24C52.7063 232.535 48.6242 234.748 44.5421 236.961C37.0336 218.993 23.5086 203.845 3.96698 191.517C-10.8368 159.646 19.4101 154.138 35.3451 139.924C43.0666 105.398 31.4105 72.0524 27.6727 36.9361C57.4769 27.9357 86.9862 29.362 115.069 23.1158C143.201 16.9188 170.792 8.01675 199.76 0C212.597 23.4601 210.088 51.1989 218.007 78.2985C223.466 78.2985 228.63 79.5776 232.761 78.1022C254.5 70.1346 274.517 73.9708 295.566 82.381C340.469 100.333 383.258 122.366 425.8 143.121C428.456 165.008 424.866 181.188 406.521 191.32C404.308 192.549 402.193 194.074 400.373 195.845C387.93 207.993 387.684 223.584 400.767 235.584C412.964 246.749 426.39 256.487 438.833 267.406C464.457 289.833 464.408 307.932 438.833 330.113C434.063 334.245 428.948 338.376 423.292 341.032C410.259 347.081 399.193 354.606 392.258 367.885C387.242 377.476 377.995 384.115 367.274 382.099C350.453 378.951 337.715 387.312 324.043 393.608C306.829 401.575 289.665 409.74 272.746 417.707C246.286 405.166 225.482 384.853 194.793 379.099C192.973 389.181 190.957 397.395 190.17 405.756C188.006 428.528 186.53 451.348 184.465 474.119C183.874 480.365 182.891 486.858 180.53 492.661C177.137 501.121 163.021 509.383 155.791 507.367C145.66 504.514 137.25 499.153 134.693 487.792C127.61 456.414 128.004 424.445 131.348 392.968C137.152 338.867 134.004 344.819 88.3141 316.539C85.2648 314.67 81.1334 314.473 72.1823 312.112L72.2807 311.965ZM336.732 161.122C335.994 160.188 335.453 159.007 334.519 158.368C333.879 157.925 332.748 158.22 331.813 158.171C333.633 158.958 335.404 159.794 337.224 160.581C342.339 163.138 347.453 165.647 352.568 168.155C354.536 171.155 356.159 174.549 358.618 177.057C359.749 178.189 362.601 177.598 364.716 177.795C364.028 175.778 363.929 172.68 362.552 171.893C359.404 170.172 355.667 169.63 352.126 168.647C347.011 166.138 341.896 163.631 336.781 161.122H336.732ZM172.317 192.402C178.464 198.058 182.251 202.878 187.17 205.829C194.744 210.354 203.006 213.698 211.072 217.338C222.826 222.649 227.253 232.83 229.269 244.486C230.696 252.7 228.187 259.684 220.712 263.913C215.203 267.012 208.711 268.438 203.596 271.979C198.678 275.422 193.219 279.947 191.104 285.21C180.235 312.358 190.858 341.77 216.334 356.524C227.302 362.869 239.056 367.787 250.024 374.181C264.877 382.837 278.205 381.657 292.468 371.918C333.289 343.983 375.684 318.604 420.685 297.8C425.653 295.488 429.095 289.931 434.604 284.521C415.423 264.012 396.34 247.979 373.323 236.667C348.339 224.371 323.797 211.239 298.665 199.189C274.762 187.73 250.418 177.155 226.318 166.188C208.662 174.795 190.317 179.516 172.366 192.402H172.317ZM66.0345 54.6912C65.0509 56.9536 62.9852 59.3636 63.1819 61.5277C65.4443 86.7091 67.2148 111.989 71.1986 136.924C72.1822 142.974 79.6087 149.613 85.7073 153.007C102.331 162.155 119.594 170.368 137.152 177.598C143.742 180.303 152.349 181.385 159.087 179.614C174.726 175.581 190.908 171.303 201.137 158.81C198.088 135.449 195.58 114.153 192.531 92.9061C189.481 71.9544 193.809 49.8712 184.317 30.2474C152.201 28.5752 96.5273 40.2316 66.0345 54.7405V54.6912ZM32.1481 165.548C32.8858 168.106 32.8858 169.827 33.6727 170.417C74.7396 200.664 120.872 221.42 167.448 241.289C170.89 242.765 174.776 243.798 178.464 243.847C187.76 243.896 196.268 242.224 198.186 226.732C164.251 210.255 132.086 188.074 96.3797 172.237C84.8219 167.122 73.0676 162.352 61.1656 157.975C49.6078 153.745 39.3287 154.974 32.1973 165.548H32.1481ZM390.586 180.352C409.078 172.68 413.75 162.548 403.717 150.843C398.996 145.285 392.504 140.416 385.865 137.416C349.027 120.841 311.944 104.857 274.812 88.9221C270.287 86.9548 265.074 85.9218 260.106 85.7251C254.008 85.5284 247.122 85.6762 245.893 97.0865C257.5 102.546 270.09 107.956 282.189 114.3C319.813 134.072 361.273 147.498 390.586 180.303V180.352ZM171.284 481.35C173.153 476.48 174.776 474.169 174.825 471.808C174.972 412.297 175.022 352.787 174.628 293.325C174.628 291.013 170.497 288.702 167.89 285.948C158.398 298.489 161.398 311.522 161.251 323.818C160.611 368.131 160.464 412.445 159.874 456.808C159.874 458.627 157.414 460.398 156.087 462.168C154.021 461.037 152.004 459.906 149.939 458.774C150.726 470.644 157.841 478.169 171.284 481.35ZM74.5921 236.223C68.346 265.782 68.2476 265.93 85.3137 276.701C94.9534 282.751 104.593 288.849 114.725 294.062C125.643 299.669 134.742 293.325 134.938 280.832C135.135 270.111 133.168 259.93 122.544 255.208C107.741 248.618 94.2158 238.584 74.6414 236.273L74.5921 236.223ZM350.749 192.599C326.158 175.975 307.665 163.384 289.025 150.99C284.894 148.236 280.369 145.63 275.648 144.4C272.549 143.613 266.893 144.253 265.713 146.269C263.451 150.056 262.467 155.417 262.959 159.893C263.303 163.04 266.451 166.483 269.205 168.696C288.288 183.598 310.469 192.008 333.535 198.156C336.338 198.894 340.027 196.189 350.749 192.549V192.599ZM293.157 390.165C334.322 377.771 412.816 332.277 437.358 307.538C381.241 329.375 335.355 356.524 293.157 390.165ZM150.923 284.029C149.841 284.079 148.808 284.176 147.726 284.226C148.217 290.914 148.66 297.604 149.152 304.342C150.087 304.293 151.021 304.194 151.955 304.145C151.611 297.456 151.267 290.718 150.923 284.029ZM148.66 365.918C149.939 365.77 151.218 365.574 152.496 365.426C152.005 358.639 151.513 351.802 151.021 345.015C150.234 345.015 149.447 345.064 148.66 345.114V365.918ZM223.466 130.186C224.597 130.186 225.777 130.186 226.909 130.186V106.726C225.777 106.726 224.597 106.726 223.466 106.726V130.186ZM51.1815 77.4628C50.247 77.807 49.3125 78.1512 48.3781 78.5446C48.624 83.1186 48.87 87.6928 49.1159 92.2667C49.8045 92.2667 50.4929 92.2667 51.1815 92.2667V77.512V77.4628ZM81.5759 293.964C80.8873 292.98 79.953 291.111 79.6088 291.21C78.035 291.702 76.6085 292.734 75.1331 293.57C76.2151 294.161 77.248 295.095 78.33 295.193C79.3628 295.292 80.4939 294.406 81.5759 293.964Z" fill="black"/>
<path d="M44.641 268.979C45.3295 273.701 46.6082 278.422 46.7065 283.144C47.4934 330.015 48.1327 376.935 48.7721 423.806C48.7721 426.314 49.2638 429.363 48.0835 431.232C46.2146 434.232 43.5097 437.823 40.5096 438.56C37.4111 439.347 31.8043 438.217 30.3289 435.954C25.6074 428.774 20.1974 421.002 18.9186 412.887C16.9514 400.493 17.7877 387.608 18.2303 374.968C19.7058 330.654 21.4269 286.341 23.2467 242.076C23.4434 237.748 24.7715 233.47 27.7224 229.338C32.8373 287.325 29.4438 345.36 33.28 403.248C41.6901 381.558 37.6078 358.786 38.5914 336.556C39.6242 314.079 38.0012 291.505 44.7391 268.979H44.641Z" fill="black"/>
</svg>
