<svg width="449" height="520" viewBox="0 0 449 520" fill="none" xmlns="http://www.w3.org/2000/svg">
<path d="M107.135 350.404C106.249 358.569 103.544 365.307 94.1014 366.241C89.0357 366.733 83.9701 366.979 78.9043 366.93C54.9528 366.635 54.7069 371.307 48.51 392.554C46.3951 399.784 46.887 407.8 44.8213 415.03C43.1491 420.932 40.0997 426.785 36.3619 431.703C29.6731 440.556 18.6074 441.786 9.16444 435.539C4.83643 432.687 1.59042 428.752 0.852688 423.391C-0.819496 410.702 0.114948 398.161 2.37732 385.521C8.6726 350.601 14.5742 315.583 20.3285 280.565C21.5581 273.09 21.4105 265.368 21.8532 257.745C22.1483 252.679 21.7551 247.465 22.7387 242.547C28.4438 213.726 43.5424 194.398 75.6582 191.397C89.5275 190.119 103.594 190.512 117.561 190.315C144.267 189.922 170.924 189.676 197.63 189.233C201.417 189.184 205.204 188.643 208.991 188.201C214.499 187.61 218.728 184.709 220.45 179.594C223.253 171.183 226.352 162.675 227.483 153.969C231.368 124.804 241.303 97.3604 249.664 69.3755C257.68 42.5711 274.648 22.6522 296.091 5.93011C298.993 3.66771 302.682 2.09387 306.272 0.962677C313.551 -1.39808 324.568 0.126571 328.011 10.7008C328.797 13.1108 329.142 15.6191 329.634 18.1274C330.716 23.5866 333.962 27.0294 339.175 28.8C354.815 34.1117 370.406 39.5218 386.045 44.7351C394.603 47.5877 403.013 48.5714 412.112 45.8663C424.112 42.3252 434.391 47.8336 444.08 54.4241C447.818 56.9816 449.392 64.8508 446.588 68.0476C443.244 71.8347 439.85 75.6709 436.211 79.2121C413.341 101.492 403.21 129.919 397.357 160.314C395.242 171.528 393.718 182.84 392.144 194.152C391.455 199.168 390.078 204.529 391.16 209.251C395.734 229.17 391.898 249.531 395.292 269.696C398.636 289.566 397.406 310.222 398.242 330.535C398.341 333.092 398.341 335.65 398.833 338.109C409.062 389.701 404.193 441.933 405.767 493.919C405.915 498.886 404.98 504.149 403.161 508.772C401.931 511.92 398.833 515.264 395.734 516.641C387.226 520.527 378.422 519.789 370.159 515.215C364.258 511.92 360.52 506.756 360.028 500.067C359.192 487.427 359.094 474.689 358.356 462C358.012 455.753 356.979 449.507 355.995 443.261C355.848 442.228 354.667 440.654 353.782 440.556C351.471 440.31 349.06 440.458 346.798 440.999C345.814 441.245 344.929 442.622 344.339 443.704C340.798 449.507 335.929 453.491 328.945 452.901C309.912 451.229 290.928 449.95 272.042 454.278C269.632 454.819 266.927 455.016 264.468 454.524C235.549 449.015 206.138 451.229 177.022 449.065C170.727 448.573 164.53 447.048 158.235 446.114C152.038 445.228 146.972 448.868 148.398 454.081C153.415 472.475 146.579 489.148 141.661 506.067C139.152 514.772 128.283 517.674 119.479 513.1C110.971 508.674 105.168 502.329 105.364 492.296C105.856 470.705 105.856 449.065 107.725 427.572C108.954 413.801 113.184 400.276 116.086 386.603C116.873 382.865 117.955 379.225 118.791 375.488C121.299 363.979 117.463 355.569 106.446 350.798C96.5113 343.371 86.7241 335.748 76.5926 328.666C73.6417 326.6 69.6581 324.83 66.2646 325.026C63.1661 325.223 59.133 327.584 57.51 330.19C53.4771 336.781 58.4939 346.617 66.0187 347.306C79.6421 348.585 93.2655 349.273 106.938 350.208L107.135 350.404ZM282.616 45.5712C278.73 48.6697 273.812 51.0797 271.205 55.0143C267.074 61.2604 263.533 68.2935 261.468 75.4742C253.205 104.639 245.287 133.903 238.008 163.363C236.581 169.118 238.5 175.757 239.336 181.905C239.729 184.856 242.287 186.036 245.188 185.397C246.27 185.151 247.844 184.659 248.139 183.922C257.041 161.544 260.631 137.788 265.796 114.476C264.025 93.5242 270.714 74.6381 279.616 56.1946C281.239 52.8994 281.288 48.8665 282.026 45.1286C290.19 37.7512 298.403 30.423 306.518 22.9473C307.157 22.3571 306.961 20.8324 307.108 19.7012C304.944 19.4553 301.944 18.1274 300.665 19.111C291.813 25.8982 283.009 32.9805 282.517 45.5712H282.616ZM288.813 425.26C306.617 425.26 324.371 425.457 342.175 425.162C351.224 425.014 357.766 419.506 357.766 411.784C357.766 382.57 357.569 353.405 357.028 324.19C356.88 317.157 351.667 312.977 345.519 310.419C342.027 308.944 338.339 307.566 334.65 307.124C313.109 304.566 291.567 304.911 270.025 306.976C264.615 307.517 260.484 311.058 258.468 315.829C256.058 321.583 253.844 327.83 253.352 333.977C252.074 350.454 251.828 366.979 250.943 383.455C250.697 388.472 249.812 393.488 248.926 398.456C248.238 402.489 242.385 407.948 238.5 408.587C226.991 410.555 214.351 401.702 213.614 390.832C213.073 383.258 213.22 375.635 212.581 368.061C212.335 364.913 209.532 363.192 207.122 364.618C195.908 371.405 184.399 374.701 171.071 371.7C161.628 369.586 154.841 373.127 154.153 386.406C153.907 391.472 153.71 396.538 153.759 401.653C153.907 413.555 157.251 417.686 167.973 421.08C177.809 424.178 187.547 425.85 197.925 423.637C204.023 422.309 210.81 421.08 216.663 422.457C240.565 428.064 264.763 425.211 288.813 425.26ZM270.124 265.565C280.304 265.565 290.485 265.761 300.665 265.368C302.534 265.319 305.436 263.155 305.83 261.482C306.272 259.466 305.043 256.564 303.616 254.794C301.305 251.843 298.452 249.138 295.452 246.826C280.353 235.219 265.156 223.759 249.861 212.398C245.779 209.349 241.303 206.89 237.024 204.136C232.548 201.283 227.729 200.398 222.466 201.136C188.334 206.152 153.956 205.562 119.627 206.103C115.889 206.152 112.151 207.283 108.413 207.923C104.43 208.611 101.479 217.169 104.036 220.71C114.512 235.416 128.529 246.433 142.988 256.81C151.447 262.909 160.645 265.663 171.711 262.368C187.793 257.548 204.761 257.499 220.892 261.482C237.27 265.515 253.648 265.565 270.173 265.565H270.124ZM374.143 403.128H374.242C374.242 426.047 374.045 448.917 374.34 471.836C374.438 479.41 375.471 486.984 376.799 494.46C377.143 496.329 379.848 498.149 381.914 499.231C385.012 500.903 390.176 498.542 391.357 495.247C392.636 491.755 394.554 488.165 394.75 484.574C395.587 468.098 396.078 451.622 393.226 435.146C391.259 423.932 390.521 412.473 390.029 401.062C389.095 379.471 388.799 357.831 388.013 336.24C387.767 329.895 387.816 323.305 386.094 317.354C380.93 299.943 381.127 282.139 381.029 264.384C380.881 241.465 381.767 218.546 380.832 195.725C379.898 172.364 388.16 150.674 390.964 128.05C391.554 123.181 394.259 118.411 396.767 114.033C403.013 102.967 409.751 92.1962 416.046 81.1794C418.555 76.8513 420.473 72.1298 422.342 67.5066C422.637 66.8181 421.653 65.195 420.866 64.5065C420.03 63.8179 418.358 63.2277 417.62 63.6212C414.423 65.3918 410.784 67.0148 408.423 69.7198C393.816 86.196 386.685 106.853 377.242 126.231C376.16 128.444 375.717 131.1 375.422 133.608C371.733 163.806 364.012 193.611 366.668 224.448C366.766 225.727 366.668 227.006 366.668 228.284C366.815 242.301 365.782 256.171 363.126 269.991C360.471 284.008 359.241 285.779 347.192 284.844C311.682 282.041 276.124 280.811 240.516 282.779C239.483 282.828 238.549 284.254 237.565 285.041C238.992 286.418 240.369 289.025 241.795 289.074C258.32 289.517 274.845 290.254 291.37 289.516C311.977 288.582 331.896 291.484 351.716 296.5C367.258 300.435 372.324 306.288 373.455 323.207C373.947 330.83 374.143 338.453 374.192 346.076C374.291 365.159 374.192 384.242 374.192 403.325L374.143 403.128ZM390.472 64.2114C388.603 62.5392 387.029 60.0801 384.865 59.2931C371.782 54.67 358.061 51.5223 345.47 45.8663C310.207 29.9804 308.781 40.9481 293.485 62.9326C290.632 67.064 288.272 71.6871 286.403 76.3595C284.534 81.0318 283.157 85.9501 282.37 90.9175C280.944 100.262 283.304 108.181 291.124 114.525C306.174 126.673 323.289 134.641 341.142 141.379C348.569 144.182 357.372 140.739 360.077 133.313C368.389 110.64 378.963 89.0977 390.177 67.8017C390.718 66.8181 390.373 65.3918 390.472 64.1622V64.2114ZM351.815 207.234C351.47 207.234 351.175 207.185 350.831 207.136C351.864 195.824 353.29 184.561 353.684 173.249C353.782 169.954 351.864 164.74 349.306 163.462C327.961 152.789 306.272 142.756 284.485 132.87C283.058 132.231 279.173 134.001 278.19 135.674C270.222 149.051 268.009 163.904 267.271 179.2C266.73 190.168 270.615 198.775 278.829 205.906C298.01 222.53 319.158 236.153 341.683 247.662C343.995 248.843 349.405 244.564 349.651 241.219C350.438 229.907 351.077 218.546 351.815 207.234ZM140.037 279.336C138.857 277.172 138.169 274.467 136.447 272.991C124.004 262.417 111.512 251.99 98.7737 241.809C94.8884 238.711 90.3146 236.449 85.9865 233.989C82.2979 231.875 74.5271 234.334 73.0517 238.416C69.6581 247.81 66.2154 257.204 63.5104 266.794C61.3956 274.122 64.9859 282.287 71.5763 286.32C86.5276 295.517 102.216 303.484 115.643 315.091C119.676 318.534 125.184 316.419 127.594 310.763C131.578 301.566 135.463 292.271 139.3 283.024C139.791 281.893 139.841 280.565 140.087 279.336H140.037ZM16.0497 409.915C16.0497 409.62 16.3941 413.407 17.0334 417.096C17.2302 418.276 18.3121 420.293 18.8531 420.244C21.1647 419.998 24.3123 419.899 25.591 418.424C33.3126 409.473 37.444 398.357 36.7554 386.947C35.0341 357.782 49.5428 329.945 42.7065 300.386C41.6737 295.91 44.3787 290.549 45.4607 285.582C47.8706 274.516 50.8214 263.499 52.6903 252.335C55.1002 238.121 60.707 225.825 71.5271 216.087C73.3468 214.415 74.8221 212.349 76.2483 210.283C76.3467 210.136 74.773 208.169 73.8877 208.07C61.1004 206.792 52.2969 213.185 45.7066 223.317C40.7884 230.94 38.526 239.449 38.28 248.498C37.9358 262.466 35.4275 276.09 32.1323 289.664C23.5255 325.371 23.4764 362.405 15.9516 398.308C15.4598 400.718 15.9023 403.374 15.9023 409.915H16.0497ZM117.758 487.968C117.955 488.902 117.856 491.706 119.135 493.673C120.365 495.591 122.873 496.821 125.086 497.804C125.726 498.1 127.447 496.87 128.234 495.985C131.726 491.952 133.644 486.886 132.365 481.918C128.775 467.901 131.529 454.425 133.398 440.458C137.333 411.587 146.234 383.258 144.12 353.65C149.923 331.813 150.808 308.107 168.071 290.599C170.383 288.238 169.547 285.926 166.301 285.041C165.17 284.746 163.546 284.943 162.612 285.582C153.563 291.287 148.398 299.55 145.447 309.829C138.07 335.601 134.873 362.208 131.332 388.521C126.955 421.227 121.988 453.835 117.758 487.968ZM187.891 342.88C196.449 342.142 202.646 341.699 208.843 341.06C213.318 340.617 217.892 336.043 218.384 330.977C218.876 326.059 219.417 320.895 218.483 316.124C217.892 312.878 215.482 308.944 212.728 307.419C207.318 304.419 201.22 302.599 195.269 300.828C187.744 298.615 176.826 302.845 172.104 309.632C167.088 316.911 163.448 324.879 164.284 333.977C164.481 336.043 166.497 339.191 168.169 339.584C175.35 341.256 182.727 342.043 187.842 342.83L187.891 342.88ZM241.696 315.042C241.45 313.911 239.827 312.042 239.532 312.14C237.467 313.075 234.27 314.009 233.778 315.682C227.286 338.01 230.926 360.979 230.139 383.652C230.139 384.734 231.221 385.865 231.762 386.947C232.893 385.521 235.057 384.045 235.057 382.668C234.811 362.257 236.581 342.191 242.336 322.518C242.975 320.256 242.188 317.501 241.696 315.042Z" fill="black"/>
</svg>
