<svg width="646" height="596" viewBox="0 0 646 596" fill="none" xmlns="http://www.w3.org/2000/svg">
<path d="M603.422 192.947C597.52 192.947 591.126 192.406 584.88 193.143C581.388 193.586 577.306 195.406 574.995 197.963C567.125 206.668 563.683 217.587 561.863 228.948C561.568 230.866 563.388 234.063 565.158 235.194C573.716 240.555 584.88 240.457 592.257 248.277C592.897 248.965 592.75 250.638 592.553 251.769C592.356 252.851 591.815 254.08 591.077 254.867C590.241 255.703 588.913 256.687 587.88 256.589C581.585 255.9 575.339 254.867 569.093 253.982C560.929 252.9 553.994 254.917 549.272 262.146C545.781 267.458 542.24 272.721 539.092 278.229C534.617 285.951 536.485 293.033 543.715 297.853C549.961 302.033 557.928 303.706 562.207 310.591C562.797 311.526 562.552 313.149 562.207 314.329C561.863 315.411 561.027 316.837 560.093 317.083C557.781 317.673 555.076 318.51 553.01 317.821C544.649 315.018 536.535 311.427 528.125 308.722C526.157 308.083 522.37 309.066 521.239 310.64C513.862 320.919 506.632 331.346 500.337 342.265C499.058 344.429 500.976 349.888 503.14 352.347C508.697 358.839 516.419 360.167 523.797 356.724C527.19 355.101 530.288 352.741 533.485 350.724C536.043 349.101 539.78 349.74 539.535 352.101C538.305 363.118 544.207 370.938 548.928 379.988C561.912 404.776 574.749 429.514 589.454 453.417C597.373 466.254 602.241 481.009 608.34 494.927C609.422 497.435 605.684 503.534 602.832 503.928C591.52 505.403 580.06 508.502 568.896 507.764C548.535 506.387 529.452 502.108 515.484 483.664C503.337 467.582 486.566 455.089 476.139 437.285C473.483 432.76 468.368 432.072 462.565 434.334C448.351 439.843 434.138 445.4 419.875 450.761C397.153 459.27 373.447 463.5 349.594 467.287C342.61 468.418 338.233 472.697 336.217 479.238C334.004 486.517 330.561 493.944 330.61 501.272C330.757 522.912 324.855 544.011 326.036 565.652C326.38 571.504 322.593 575.292 318.167 577.701C307.002 583.702 295.593 589.259 284.133 594.669C276.756 598.112 257.919 590.145 254.279 582.275C253.247 580.013 251.968 577.406 252.165 575.095C253.001 565.012 253.542 554.782 255.657 544.897C259.985 524.781 259.493 504.469 259.493 484.156C259.493 475.844 255.558 469.5 248.181 465.713C239.181 461.09 230.426 455.286 220.885 452.532C189.113 443.384 157.293 434.531 125.964 423.957C118.931 421.596 110.964 426.908 108.8 435.121C105.308 448.646 102.258 462.27 98.6679 475.795C96.4055 484.402 93.7007 492.862 90.8973 501.272C88.635 508.108 84.9464 511.207 76.2412 510.026C68.077 508.944 61.4372 510.715 54.4534 514.305C48.1089 517.551 42.2072 514.699 36.7972 511.01C32.1741 507.862 29.8136 503.042 30.207 498.026C30.7972 490.501 32.3217 482.976 34.3874 475.697C40.9777 452.433 45.3055 428.728 48.3056 404.776C48.8958 399.956 45.9448 394.3 41.42 392.234C31.0427 387.513 20.4194 383.234 10.0912 378.365C3.89428 375.414 0.746539 369.708 0.156356 363.069C-1.07319 348.068 5.02558 335.625 15.7472 325.887C18.9932 322.936 25.1902 322.247 29.9609 322.395C34.8299 322.543 40.2401 324.067 44.273 326.723C68.618 342.609 96.996 344.134 124.194 349.986C126.603 350.527 129.357 350.626 131.767 350.085C161.424 343.593 191.425 339.51 216.163 318.214C232.738 303.952 247.296 288.803 260.083 271.098C298.002 218.62 318.462 158.666 336.414 97.5817C340.348 84.204 343.102 70.4329 346.987 57.0061C349.791 47.1696 353.627 37.2839 362.971 31.8247C371.627 26.7589 370.693 20.316 368.43 12.3976C367.004 7.3318 371.185 1.18398 375.464 0.938063C384.267 0.347873 393.169 -0.242308 401.973 0.101969C413.137 0.49543 415.744 3.93821 416.187 17.1683C416.482 26.3654 418.203 28.9229 425.924 30.7427C442.007 34.5297 457.942 38.0708 474.615 39.3988C493.5 40.8742 512.435 44.317 530.829 48.9402C544.649 52.4321 558.421 53.0223 572.339 53.7109C580.503 54.1043 587.733 51.3993 592.11 44.5138C599.635 32.6116 609.422 31.3328 621.717 35.8576C627.619 38.0216 634.357 38.12 640.013 40.6283C642.669 41.8087 645.571 46.7762 645.177 49.5796C643.898 58.3341 641.292 66.8918 638.882 75.4495C637.407 80.8104 633.275 83.7122 628.062 84.8434C625.603 85.3844 622.997 85.3352 620.439 85.1877C605.193 84.2532 597.815 92.0732 597.422 108.549C597.323 113.812 600.52 119.074 605.094 120.255C612.373 122.173 619.799 123.698 626.882 126.058C628.21 126.501 628.75 130.19 629.095 132.452C629.193 133.19 627.718 134.567 626.685 135.01C624.422 136.042 621.964 137.37 619.652 137.321C612.078 137.075 604.504 135.993 596.881 135.747C594.717 135.698 591.274 136.879 590.487 138.502C586.061 147.6 581.782 156.945 583.503 167.47C583.848 169.634 585.815 172.536 587.684 173.224C592.356 174.946 597.471 175.388 602.34 176.765C608.389 178.487 614.439 180.356 620.144 182.913C621.816 183.651 623.341 186.996 623.193 189.012C623.045 190.783 620.586 193.733 619.013 193.832C613.996 194.176 608.881 193.389 603.373 192.996L603.422 192.947ZM481.598 329.428C471.811 327.51 462.073 325.543 452.237 323.772C445.745 322.592 439.744 324.116 434.875 328.641C429.416 333.756 424.105 339.019 419.285 344.675C418.055 346.101 417.809 349.986 418.891 351.363C425.334 359.626 434.679 363.069 444.614 364.594C446.729 364.938 449.679 363.659 451.4 362.134C462.515 352.249 474.713 343.248 480.909 328.936C493.353 323.92 500.632 313.641 507.419 302.87C509.976 298.837 508.895 291.951 504.862 289.246C500.681 286.492 496.304 283.983 491.73 281.967C485.287 279.114 479.434 280.442 474.516 285.606C472.746 287.426 470.778 289.098 469.303 291.115C466.45 295.197 462.417 299.181 461.483 303.755C459.909 311.575 468.319 313.1 472.45 317.378C475.893 320.969 478.549 325.346 481.549 329.379L481.598 329.428ZM490.205 402.366C492.418 404.333 494.828 405.513 495.812 407.432C498.664 412.989 499.599 420.219 503.73 424.35C524.386 445.056 545.781 465.073 567.125 485.091C570.962 488.681 576.323 489.025 581.487 487.451C585.126 486.32 586.454 479.14 583.798 473.828C579.815 465.86 576.175 457.598 571.306 450.22C560.683 434.285 551.633 417.514 543.469 400.251C540.764 394.496 537.469 389.037 534.371 383.48C532.404 379.988 529.108 379.348 524.682 381.807C522.468 383.037 520.648 384.955 518.435 386.185C511.697 389.972 509.189 389.529 507.763 382.25C505.943 373.053 500.337 369.61 492.222 368.381C485.533 367.397 479.533 369.168 475.254 374.627C470.533 380.627 465.91 386.676 461.778 393.07C460.598 394.841 460.991 397.939 461.286 400.3C461.876 404.923 468.319 409.497 472.598 408.268C478.598 406.497 484.5 404.284 490.156 402.317L490.205 402.366ZM47.7155 360.708C37.4856 360.364 33.6496 363.413 33.6987 367.102C33.6987 369.512 33.7974 372.463 35.1744 374.184C37.4368 377.086 40.2891 380.234 43.5351 381.562C63.4538 389.578 83.3232 397.595 103.635 404.579C125.079 411.956 146.915 418.399 168.703 424.793C189.261 430.842 209.966 436.498 230.77 441.761C234.016 442.597 238.05 440.728 241.591 439.843C242.673 439.548 243.607 438.318 244.295 437.285C246.017 434.777 245.968 432.17 243.656 430.547C236.525 425.481 229.836 418.104 221.869 416.186C200.819 411.12 181.785 400.792 161.227 394.693C126.16 384.266 91.2906 373.102 56.2731 362.38C51.5516 360.954 46.4859 360.561 47.7155 360.757V360.708ZM469.795 162.306C464.287 162.552 461.729 162.503 459.27 162.847C452.483 163.781 447.466 167.47 445.4 173.962C440.236 190.438 445.253 196.291 457.794 200.078C466.155 202.636 474.762 204.406 483.418 205.783C490.648 206.914 498.566 201.308 500.484 193.783C501.714 189.061 501.763 183.946 501.91 178.979C502.058 174.749 499.304 171.601 495.763 170.323C486.32 167.027 476.68 164.371 469.795 162.306ZM342.315 402.956C340.692 403.399 338.282 403.792 336.069 404.726C335.233 405.071 334.545 406.595 334.397 407.677C334.299 408.612 334.938 410.284 335.577 410.481C342.758 412.35 350.43 416.481 357.119 415.301C383.382 410.677 407.333 400.103 428.137 383.037C430.449 381.119 429.515 374.774 426.712 373.25C413.777 366.167 400.793 364.249 387.907 373.348C383.825 376.25 380.185 379.84 376.005 382.496C369.955 386.381 368.48 391.939 368.578 398.579C368.677 403.103 365.628 405.612 361.496 405.415C355.299 405.12 349.151 403.939 342.315 403.005V402.956ZM362.136 291.262C367.988 289.443 374.578 288.754 379.595 285.606C387.267 280.787 391.694 272.77 393.809 263.917C394.3 261.851 393.415 258.163 391.89 257.179C381.169 250.195 369.414 245.719 356.43 246.506C353.037 246.703 348.709 248.867 346.692 251.523C343.004 256.49 340.299 262.294 337.889 268.097C335.528 273.753 338.528 281.77 344.036 284.475C349.594 287.18 355.644 288.852 362.185 291.262H362.136ZM427.4 239.965C429.515 243.998 430.449 248.129 433.006 250.293C440.777 256.933 449.925 260.671 460.499 259.687C466.991 259.097 472.598 256.736 476.385 251.228C478.5 248.179 480.27 244.883 481.893 241.539C484.943 235.391 482.877 227.571 477.27 225.751C466.696 222.309 456.024 218.866 445.204 216.357C440.138 215.177 434.974 218.128 432.761 222.751C430.154 228.161 429.023 234.358 427.351 239.916L427.4 239.965ZM421.498 304.148C436.646 305.575 444.663 300.705 451.155 292.049C457.303 283.836 455.483 273.409 446.581 270.557C438.318 267.901 429.859 265.442 421.301 264.064C418.301 263.573 413.678 265.688 411.612 268.147C406.006 274.786 401.383 282.262 396.465 289.443C394.399 292.443 396.415 297.017 400.252 298.148C408.613 300.607 417.022 302.919 421.498 304.148ZM492.812 99.3031C495.222 99.3031 496.451 99.3031 497.681 99.3031C509.386 99.0572 515.829 93.0569 517.059 81.1056C517.305 78.6465 517.353 76.1381 517.206 73.679C516.714 66.8426 512.829 62.367 506.779 59.5636C499.795 56.3176 492.418 54.9404 484.992 56.4651C481.746 57.1536 478.205 59.5145 476.139 62.1211C473.975 64.9245 473.434 69.0066 472.106 72.4494C465.713 88.6796 470.385 98.1719 490.205 99.1556C491.434 99.2047 492.713 99.3031 492.762 99.3031H492.812ZM558.863 105.549C572.142 107.221 578.339 103.484 581.929 95.2209C582.962 92.9094 583.848 90.4994 584.585 88.0895C587.29 79.2858 583.602 71.9576 575.536 70.3838C565.552 68.4656 555.568 66.5475 545.535 65.0229C541.502 64.3835 537.764 66.5475 536.288 70.1378C533.878 75.9905 532.255 82.1876 530.731 88.3354C529.55 93.1061 533.042 98.4178 538.207 99.8933C546.715 102.352 555.322 104.615 558.814 105.598L558.863 105.549ZM397.448 242.916C401.481 240.752 406.055 239.818 407.629 237.113C411.416 230.768 414.071 223.686 416.481 216.702C417.071 215.03 415.35 211.488 413.629 210.357C405.17 204.603 395.53 201.603 385.349 201.357C381.857 201.258 377.726 202.685 374.923 204.75C368.677 209.423 364.791 216.259 364.349 223.981C364.152 227.03 366.709 231.948 369.267 233.08C378.415 237.063 388.103 239.768 397.399 242.916H397.448ZM291.067 556.848C291.117 558.127 290.92 559.455 291.314 560.586C292.15 562.848 292.838 566.094 294.511 566.832C296.281 567.57 299.428 566.389 301.445 565.16C308.379 560.93 311.97 554.34 312.314 546.372C313.003 528.716 315.167 511.305 319.003 494.042C320.036 489.37 318.856 484.058 317.823 479.189C317.38 477.222 314.872 475.402 312.905 474.074C310.593 472.5 307.839 473.238 306.56 475.992C304.002 481.648 300.412 487.451 299.92 493.403C298.445 512.289 295.887 530.929 291.559 549.372C290.969 551.782 291.166 554.389 291.018 556.897L291.067 556.848ZM431.679 90.7453C447.122 91.8765 453.564 87.5485 457.056 75.4004C458.433 70.5805 459.516 65.5147 459.811 60.4981C459.909 58.4816 458.089 55.7274 456.368 54.2519C450.22 49.1861 442.794 47.7598 434.974 48.0549C429.662 48.2517 424.744 49.8747 422.678 55.1864C419.924 62.2195 417.612 69.4493 415.793 76.8266C414.858 80.7121 416.875 84.4499 420.564 86.2697C424.99 88.4829 429.809 90.0076 431.728 90.7453H431.679ZM333.856 382.594C345.955 382.742 356.971 377.135 366.758 368.774C368.332 367.397 369.562 364.348 369.218 362.38C368.873 360.266 366.955 357.364 365.037 356.626C331.987 343.937 335.774 344.134 311.281 363.807C309.363 365.331 307.544 367.102 306.068 369.069C304.248 371.43 304.937 373.692 307.642 375.414C315.265 380.332 323.725 382.348 333.905 382.644L333.856 382.594ZM381.808 343.838C398.383 345.216 408.071 338.133 415.498 326.723C417.465 323.723 416.186 317.772 413.088 316.936C403.399 314.28 393.71 311.23 383.824 309.411C380.628 308.821 376.103 310.64 373.496 312.854C367.791 317.723 362.775 323.428 357.857 329.133C355.89 331.445 356.873 333.904 359.233 335.773C366.512 341.576 375.169 343.199 381.808 343.838ZM555.224 190.93C553.158 187.487 552.371 184.881 550.6 183.356C538.354 172.733 523.059 175.585 516.862 189.602C515.386 192.996 514.452 196.684 513.566 200.324C512.484 204.898 515.042 210.997 519.222 213.21C525.862 216.702 532.6 220.095 539.485 222.997C541.256 223.735 545.584 222.997 545.928 221.915C549.469 211.341 552.42 200.619 555.224 190.93ZM411.219 153.65C396.022 153.256 390.759 157.043 385.89 169.732C385.448 170.913 385.054 172.142 384.759 173.372C383.677 177.7 386.874 184.34 390.612 186.356C398.727 190.832 407.481 192.012 416.285 189.947C419.531 189.16 423.318 186.454 424.892 183.553C427.892 178.044 429.564 171.847 431.58 165.847C432.613 162.699 429.76 157.092 426.957 156.502C420.809 155.273 414.613 154.24 411.268 153.601L411.219 153.65ZM450.171 415.842C447.023 413.186 444.712 409.645 441.761 409.005C426.416 405.661 413.924 417.268 399.121 417.907C395.727 418.055 391.842 420.268 389.235 422.629C386.727 424.891 384.661 428.482 384.021 431.777C382.89 437.826 389.432 443.581 395.874 442.646C413.137 440.039 430.007 435.81 444.614 425.727C447.171 423.957 448.056 419.776 450.22 415.842H450.171ZM98.1269 424.055C97.9302 419.875 91.9795 413.825 87.9958 414.907C84.6514 415.842 79.8312 417.957 79.0443 420.563C73.7819 438.466 69.3062 456.614 64.7815 474.762C64.1913 477.074 63.7491 480.025 64.6836 481.992C65.5197 483.714 68.4209 485.484 70.339 485.435C75.6999 485.238 79.3397 481.55 81.7988 477.123C89.7663 462.811 93.7496 447.073 98.0285 431.433C98.6678 429.121 98.1269 426.514 98.1269 424.006V424.055ZM487.156 144.649C491.385 144.403 495.172 144.502 498.812 143.912C501.123 143.518 503.534 142.387 505.452 141.01C510.124 137.764 510.124 132.501 510.025 127.583C509.927 122.566 505.697 117.599 501.32 116.861C491.533 115.238 481.697 113.615 471.86 112.287C466.106 111.5 460.45 117.009 459.663 123.796C458.434 134.026 463.45 141.502 472.844 142.977C477.762 143.764 482.68 144.158 487.156 144.649ZM354.857 308.23C354.66 307.001 354.857 305.181 354.168 304.542C345.168 297.066 334.397 293.967 322.937 293.131C320.576 292.984 317.577 293.771 315.855 295.246C311.085 299.279 306.658 303.755 302.429 308.378C299.871 311.181 300.806 316.591 303.461 318.608C315.757 327.953 328.544 330.362 341.971 321.116C346.053 318.264 349.791 314.919 353.529 311.575C354.316 310.837 354.414 309.362 354.857 308.181V308.23ZM384.612 46.2351C370.398 46.3335 364.25 50.9075 361.152 62.5637C357.315 76.8759 362.873 84.1549 377.677 84.1057C389.382 84.0565 393.661 81.2039 397.005 70.5313C398.481 65.8098 399.415 60.8915 400.399 56.0716C400.989 53.219 397.35 48.6943 393.956 47.9565C390.317 47.1696 386.628 46.5794 384.612 46.2351ZM514.304 237.949C511.402 238.686 505.993 238.883 502.107 241.391C495.615 245.621 492.123 252.507 491.73 260.425C491.632 262.687 492.517 265.54 493.943 267.261C500.386 274.885 514.255 277.049 521.239 271.54C528.42 265.884 533.338 258.458 533.141 249.162C533.092 246.162 530.092 242.227 527.338 240.555C524.387 238.735 520.108 239.031 514.353 237.998L514.304 237.949ZM353.824 147.305C349.938 147.699 346.201 147.895 342.512 148.535C335.43 149.715 330.364 156.748 330.167 165.257C330.069 169.929 333.216 173.864 339.167 175.733C345.118 177.552 351.168 179.126 357.217 180.503C360.906 181.34 368.283 177.848 369.808 173.913C371.578 169.339 372.611 164.421 373.251 159.552C373.89 154.83 369.168 149.322 364.84 148.682C361.152 148.19 357.414 147.699 353.824 147.256V147.305ZM556.896 156.355C562.552 157.338 568.405 154.387 570.519 147.846C572.388 141.944 573.569 135.747 574.749 129.649C574.896 128.862 573.126 126.796 572.683 126.894C560.191 130.042 548.289 124.288 536.092 124.534C532.256 124.632 529.255 126.944 527.19 130.485C521.681 140.125 524.288 148.977 533.731 151.338C541.01 153.158 548.387 154.535 556.896 156.355ZM307.248 340.445C305.33 338.871 303.658 336.855 301.494 335.822C282.215 326.821 272.477 328.543 258.067 343.593C256.542 345.216 255.952 347.921 255.361 350.183C255.066 351.265 255.263 353.036 256.001 353.773C262.542 360.266 271.149 364.544 279.608 362.085C290.084 359.036 299.92 353.085 307.002 343.986C307.593 343.199 307.199 341.674 307.298 340.494L307.248 340.445ZM330.217 243.654C329.676 242.67 329.38 241.047 328.544 240.752C321.609 238.194 314.724 235.539 307.592 233.67C305.674 233.178 302.379 234.457 300.904 235.981C293.969 243.309 288.854 251.818 287.379 261.999C287.231 263.032 288.018 264.31 288.707 265.245C294.756 273.409 308.527 275.081 315.117 268.589C321.413 262.441 326.921 255.753 329.97 247.342C330.364 246.211 330.118 244.883 330.217 243.654ZM420.268 137.518C424.498 137.321 426.957 137.272 429.416 137.075C436.793 136.436 441.712 130.042 441.81 121.288C441.859 116.32 438.269 110.713 434.482 109.484C427.203 107.025 419.826 106.828 412.498 108.599C407.58 109.779 403.842 112.976 401.186 117.451C396.907 124.583 399.907 133.878 407.284 135.354C412.104 136.338 417.022 136.977 420.219 137.518H420.268ZM363.365 130.436C368.234 129.304 374.332 128.37 380.087 126.452C384.267 125.075 387.562 116.271 386.972 110.32C386.53 105.992 382.054 102.057 376.349 101.811C370.202 101.565 363.955 101.516 357.857 102.205C351.365 102.943 345.217 111.254 345.905 118.878C346.2 122.025 348.659 125.911 351.315 127.731C354.168 129.649 358.398 129.452 363.365 130.436ZM336.462 192.651C333.954 192.996 330.118 192.996 326.577 194.029C320.085 195.898 316.249 200.521 314.97 207.209C314.085 211.734 317.134 218.423 320.872 219.751C328.102 222.309 335.528 223.44 342.905 221.128C346.25 220.095 349.446 217.636 352.004 215.079C355.643 211.488 357.463 206.964 356.381 201.554C355.545 197.471 350.676 193.832 345.118 193.242C342.659 192.996 340.151 192.897 336.462 192.651ZM342.659 451.942C350.479 450.86 357.758 449.925 364.988 448.794C369.464 448.105 371.677 440.384 368.037 436.843C365.578 434.482 361.595 431.531 358.939 432.023C348.217 434.039 337.102 434.974 327.364 440.581C326.528 441.072 326.036 442.449 325.692 443.482C324.708 446.433 325.79 448.597 328.79 449.286C333.512 450.368 338.282 451.106 342.659 451.892V451.942ZM274.297 510.961C274.69 511.01 275.084 511.108 275.477 511.157C273.313 523.355 271.051 535.503 269.28 547.749C269.133 548.831 271.936 550.651 273.657 551.586C274.149 551.881 275.92 550.7 276.608 549.815C280.69 544.552 280.592 538.208 280.936 532.011C281.871 513.42 280.542 494.583 286.641 476.533C286.838 475.894 284.625 473.73 284.526 473.828C282.608 475.008 279.559 476.238 279.264 477.91C277.296 488.878 275.871 499.944 274.297 510.961ZM229.787 383.48C235.148 382.004 239.919 380.824 244.64 379.299C245.574 379.004 246.312 377.676 246.902 376.643C248.476 374.086 248.033 371.774 245.673 369.856C238.492 363.954 230.574 360.807 221.279 363.757C216.508 365.282 211.885 367.249 207.262 369.266C206.229 369.709 204.704 371.43 204.901 371.971C205.688 374.135 206.721 377.332 208.393 377.873C215.426 380.184 222.705 381.709 229.787 383.43V383.48ZM293.428 290.574C293.133 289.443 293.133 288.066 292.445 287.279C288.264 282.311 282.756 279.754 276.362 279.114C275.182 279.016 273.608 279.065 272.772 279.754C265.886 285.262 259.837 291.508 258.509 300.607C258.312 301.935 261.116 304.689 262.936 305.132C275.231 308.28 284.674 303.017 292.543 294.066C293.232 293.279 293.134 291.754 293.379 290.574H293.428ZM246.657 317.231C244.247 317.477 241.492 317.034 239.476 318.067C232.738 321.559 226.984 326.28 224.426 333.805C224.033 334.887 224.033 336.904 224.672 337.396C226.541 338.773 229.344 340.986 230.82 340.445C237.656 337.789 244.345 334.494 250.837 331.002C254.132 329.231 255.116 323.526 252.755 321.313C251.034 319.641 248.722 318.559 246.657 317.231ZM283.297 397.792C289.887 397.792 293.674 398.087 297.412 397.693C299.773 397.447 302.035 396.218 304.347 395.382C302.822 393.808 301.543 391.398 299.674 390.759C292.641 388.349 285.51 385.84 278.182 384.709C275.083 384.217 271.444 386.972 268.198 388.595C267.411 388.988 266.969 390.66 266.92 391.742C266.87 392.726 267.362 394.546 267.903 394.693C273.903 396.021 280.002 397.152 283.297 397.743V397.792ZM186.556 350.38C178.097 353.478 169.785 356.429 161.572 359.626C160.637 360.02 160.145 361.643 159.457 362.725C161.621 363.561 164.08 365.577 165.949 365.135C176.966 362.479 187.884 359.429 198.704 356.036C199.835 355.691 200.18 352.2 200.426 350.085C200.475 349.544 198.458 348.216 197.523 348.314C193.786 348.757 190.146 349.691 186.556 350.38ZM309.412 447.663C308.035 441.712 301.396 437.531 295.101 438.662C290.674 439.449 286.199 444.368 285.953 448.991C285.904 450.171 286.199 451.696 286.986 452.532C291.559 457.647 301.445 458.631 307.199 454.106C308.724 452.925 308.724 449.876 309.412 447.663Z" fill="black"/>
</svg>
