<svg width="371" height="540" viewBox="0 0 371 540" fill="none" xmlns="http://www.w3.org/2000/svg">
<path d="M89.215 416.906C78.2475 416.562 71.7062 406.971 62.1158 403.676C57.7878 402.2 50.8529 404.463 49.3283 408.791C47.6561 413.512 45.738 418.332 45.0003 423.251C43.5248 433.284 42.984 443.415 41.4593 453.448C41.2134 455.17 38.3116 457.432 36.4427 457.727C34.3278 458.022 30.9836 456.94 29.8525 455.317C26.9999 451.284 23.6064 446.76 23.1146 442.136C21.6883 429.546 20.9013 416.758 21.2456 404.069C22.1309 372.199 21.2947 340.427 18.6881 308.704C16.3765 280.818 13.6716 252.981 11.4092 225.094C10.6715 215.946 6.83512 207.979 2.90057 200.011C-0.738893 192.683 -1.77148 185.404 4.67134 178.961C10.4748 173.157 12.3929 166.124 12.3929 158.206C12.2946 139.123 12.2452 120.04 12.4911 100.957C12.6386 90.7766 13.1304 80.5958 13.9665 70.4642C14.8026 60.5785 20.3112 54.1357 29.8525 51.2339C31.082 50.8897 32.2623 50.447 33.4919 50.0044C59.9517 41.004 86.2148 31.1673 113.019 23.3472C124.97 19.8553 138.102 20.2489 150.692 18.921C147.643 21.1342 144.889 24.2819 141.495 25.4131C124.577 31.0199 107.511 36.0365 90.5428 41.3974C78.444 45.2337 66.3454 49.0207 54.3942 53.3488C52.5745 53.9881 50.6071 57.2342 50.6071 59.2507C50.6071 60.9229 53.1155 63.1853 55.0336 64.169C64.083 68.6938 73.4769 72.6283 82.4772 77.3006C88.6741 80.4975 94.92 80.7926 100.773 77.94C129.593 63.7755 160.676 56.8408 191.415 48.7748C202.432 45.8731 213.153 41.7416 223.924 37.8561C230.514 35.4954 231.203 27.7737 226.039 22.462C217.334 13.4124 207.251 9.57619 195.005 13.56C180.3 18.3307 165.299 20.4457 149.856 19.5604C151.873 18.0357 153.643 15.8718 155.906 15.0357C160.627 13.3143 165.545 11.8879 170.463 10.9535C185.316 8.24841 199.333 -3.89982 214.186 1.26434C226.826 5.69077 237.007 16.806 248.712 24.331C256.876 29.6427 261.352 36.6266 261.893 46.168C262.483 56.2996 262.68 66.4804 263.073 76.6612C263.466 88.0716 263.762 99.5312 264.303 110.942C264.794 122.106 270.204 129.877 280.434 134.795C297.599 143.058 314.763 151.37 331.534 160.37C342.748 166.37 347.027 176.453 345.895 189.142C344.518 204.241 343.535 219.389 342.354 234.537C346.24 239.111 349.141 243.242 352.731 246.685C359.568 253.226 362.814 261.145 362.961 270.489C362.961 271.768 363.109 273.047 363.109 274.277C363.601 299.704 363.896 325.033 369.306 350.165C372.355 364.33 369.896 377.953 357.207 387.937C351.945 392.069 350.715 398.315 350.272 404.955C349.731 413.709 348.846 422.611 346.83 431.12C346.24 433.677 341.469 435.89 338.223 436.874C336.551 437.415 333.059 435.546 331.878 433.726C327.796 427.628 324.305 421.086 321.009 415.43C311.468 414.939 304.828 418.873 298.09 422.365C256.433 444.153 214.727 465.892 173.07 487.729C166.873 490.975 164.365 496.68 163.775 503.27C162.889 513.402 162.496 523.533 161.266 533.616C161.02 535.534 158.315 537.403 156.397 538.829C153.889 540.698 149.217 537.797 147.741 533.813C146.856 531.452 145.331 529.239 144.938 526.78C144.299 523.042 144.2 519.206 144.151 515.419C144.053 509.074 144.741 502.631 144.102 496.385C140.708 463.433 143.561 465.892 117.593 445.481C106.724 436.923 94.4283 429.595 88.5264 416.119C93.2479 417.742 98.4611 418.529 102.543 421.135C112.183 427.185 121.183 434.218 130.626 440.563C134.905 443.464 142.036 440.022 142.135 435.153C142.43 417.398 142.823 399.594 142.676 381.789C142.479 355.083 141.889 328.427 141.299 301.77C141.151 295.327 139.725 288.933 134.708 284.457C123.298 274.227 110.953 265.325 95.8545 261.342C94.3298 260.948 90.887 263.063 90.2477 264.735C87.9361 270.883 88.2313 277.326 91.5265 283.08C95.2643 289.622 99.5432 295.868 103.576 302.261L104.117 301.671C101.658 301.229 98.9037 301.327 96.7397 300.196C82.2803 292.622 71.903 283.375 78.7885 264.391C82.0345 255.341 77.0179 246.587 70.1324 240.734C61.5748 233.455 51.7383 227.602 42.2953 221.307C38.8034 218.946 33.2952 220.127 32.3116 223.225C31.5738 225.487 30.3441 228.537 31.2294 230.258C35.7049 238.963 40.7707 247.325 45.7381 255.981C41.8527 260.407 34.8688 262.817 35.2131 270.391C36.2951 294.343 37.1804 318.295 38.5574 342.247C39.9345 366.395 49.0826 385.97 71.6571 398.02C79.2803 402.102 86.6083 407.709 89.3624 416.906H89.215ZM280.287 203.11C277.778 202.667 275.073 202.716 272.86 201.683C263.122 197.06 253.581 196.617 243.548 201.093C233.171 205.716 222.891 211.175 210.891 210.044L211.432 210.684C218.514 200.896 229.334 196.765 239.859 192.634C253.876 187.125 258.253 176.698 257.958 162.632C257.368 135.926 257.269 109.22 256.876 82.5632C256.827 78.7761 256.679 74.8907 255.991 71.1528C253.138 54.5291 245.958 47.8893 230.318 50.3976C219.055 52.1682 207.792 54.6765 196.923 58.1193C171.496 66.1852 146.315 74.9891 121.036 83.4977C79.772 97.3671 80.5096 98.7443 81.5916 144.435C81.5916 145.714 81.5916 146.992 81.8867 148.222C86.2147 168.19 87.4445 188.453 88.3298 208.765C88.7725 219.782 93.3461 228.242 102.838 233.996C107.166 236.603 111.249 240.537 115.921 241.619C133.036 245.652 142.725 259.768 155.217 269.85C159.939 273.637 163.185 280.277 161.758 287.015C157.627 306.098 159.25 324.984 163.332 343.771C165.004 351.444 164.217 358.674 162.889 366.297C157.529 397.135 161.316 426.89 175.529 455.072C177.447 458.859 184.48 461.662 188.759 459.99C197.022 456.695 205.235 453.399 213.252 449.662C218.957 447.006 224.022 442.825 229.826 440.612C253.778 431.562 275.565 418.627 297.205 405.2C312.255 395.856 327.403 386.364 343.289 378.593C354.404 373.183 357.404 365.018 357.158 354.1C356.666 332.509 356.224 310.868 355.683 289.277C355.633 286.769 354.945 284.261 354.551 281.752C353.863 277.572 346.78 273.49 342.551 275.26C333.206 279.195 323.862 283.08 314.812 287.654C303.501 293.359 292.927 300.737 279.795 301.917L280.336 302.556C282.5 296.163 287.369 292.179 292.976 289.13C302.96 283.671 313.189 278.703 323.124 273.145C327.452 270.686 331.337 267.391 335.272 264.243C338.764 261.489 339.157 253.866 336.551 250.374C329.567 241.078 320.321 234.783 310.287 229.225C298.189 222.487 285.943 215.749 279.451 202.421C284.221 203.995 289.238 204.978 293.664 207.241C300.451 210.684 306.697 215.061 313.288 218.897C318.206 221.75 323.468 218.454 323.812 212.307C324.157 205.962 324.796 199.519 324.157 193.273C323.763 189.781 321.944 185.158 319.189 183.387C304.386 173.6 289.139 164.55 273.942 155.353C271.483 153.829 265.68 157.763 265.532 161.058C265.335 164.796 264.499 169.026 265.827 172.223C270.204 182.748 275.418 192.929 280.336 203.208L280.287 203.11ZM73.6242 146.255C74.0668 146.255 74.5095 146.156 74.903 146.156C73.9193 129.778 72.8867 113.401 72.0014 97.0229C71.362 85.2682 64.7223 78.8743 53.9514 75.6283C32.0655 69.0378 22.9178 75.2843 21.5899 97.7115C19.9669 125.647 27.0983 152.894 27.6884 180.682C27.7376 184.125 29.8031 188.404 32.4097 190.666C41.951 199.027 52.968 205.372 65.5586 207.634C68.0668 208.077 72.8372 204.683 73.9193 202.027C76.1324 196.322 77.8541 189.879 77.559 183.83C76.9688 171.288 75.0015 158.796 73.5752 146.255H73.6242Z" fill="black"/>
<path d="M179.709 354.887C179.512 370.871 179.316 386.855 179.02 402.79C179.02 403.823 177.84 404.856 177.053 406.086C175.873 404.512 173.709 402.987 173.709 401.462C173.709 389.167 173.807 376.871 174.742 364.625C174.988 361.428 178.283 358.526 180.201 355.477L179.709 354.887Z" fill="black"/>
<path d="M226.826 333.001C228.744 326.558 233.268 322.82 239.613 321.295C240.4 321.098 241.924 321.935 242.416 322.722C242.908 323.459 242.859 324.984 242.416 325.771C238.678 331.771 232.482 332.115 226.334 332.46L226.826 333.05V333.001Z" fill="black"/>
<path d="M195.054 347.313C191.808 353.559 186.201 355.133 179.709 354.887L180.201 355.477C183.693 349.624 189.3 348.149 195.546 347.903L195.054 347.313Z" fill="black"/>
<path d="M195.547 347.903C198.744 341.804 204.547 340.673 210.597 340.181L210.007 339.542C207.105 346.182 201.4 347.46 195.006 347.264L195.498 347.854L195.547 347.903Z" fill="black"/>
<path d="M210.596 340.181C215.268 336.198 220.285 332.853 226.777 332.951L226.285 332.361C222.449 338.362 216.055 338.46 210.006 339.542L210.596 340.181Z" fill="black"/>
<path d="M279.796 301.77C277.927 303.245 276.008 304.721 274.14 306.147C273.844 305.409 273.5 304.672 273.205 303.934C275.615 303.442 277.976 302.901 280.386 302.409L279.845 301.77H279.796Z" fill="black"/>
<path d="M210.841 210.044C209.366 211.717 208.038 213.536 206.366 215.012C205.972 215.356 203.661 214.274 203.71 214.127C204.644 209.553 208.333 210.831 211.382 210.684L210.841 210.044Z" fill="black"/>
<path d="M103.379 302.311C114.445 302.753 122.216 308.95 128.609 317.115C129.888 318.738 129.839 321.443 130.38 323.656C128.216 323.754 125.413 324.738 123.987 323.754C115.675 317.902 108.002 311.36 103.871 301.671L103.33 302.262L103.379 302.311Z" fill="black"/>
</svg>
