<svg width="459" height="693" viewBox="0 0 459 693" fill="none" xmlns="http://www.w3.org/2000/svg">
<path d="M207.302 1.37711C211.138 1.37711 214.925 1.22956 218.761 1.37711C249.205 2.85259 273.009 14.017 283.189 45.2479C283.976 47.6579 284.91 50.0678 286.042 52.3302C294.304 68.708 283.288 93.9386 266.91 100.726C257.517 104.611 248.024 108.251 238.631 112.136C234.696 113.759 231.007 120.3 231.548 124.825C233.663 142.482 234.893 160.286 238.286 177.647C242.467 198.992 244.237 220.436 245.86 241.978C246.795 254.421 250.188 258.405 261.647 259.29C292.632 261.7 321.01 273.061 349.044 285.111C365.421 292.144 381.799 298.98 398.521 305.177C411.604 310.047 424.39 315.948 436.686 322.539C449.965 329.621 456.9 342.114 458.326 356.622C460.637 380.132 456.802 402.362 439.588 420.461C436.981 423.216 434.178 426.117 432.604 429.462C430.489 433.937 428.325 438.954 428.276 443.774C428.128 457.742 428.915 471.66 432.801 485.382C438.358 504.957 443.375 524.679 447.899 544.5C449.867 553.057 450.654 562.058 450.703 570.861C450.703 575.681 449.424 581.78 446.326 585.026C439.145 592.502 439.342 600.42 440.621 609.568C440.965 612.126 437.325 616.011 434.571 618.077C431.178 620.585 423.112 617.634 421.439 613.699C418.489 606.716 415.242 599.732 413.374 592.403C409.931 578.878 407.275 565.156 404.62 551.434C401.472 535.204 398.668 518.925 395.619 502.694C394.193 495.219 392.423 487.743 391.095 480.267C387.111 458.184 380.323 456.906 358.585 461.43C354.896 462.217 351.159 463.545 347.864 465.316C322.043 479.284 295.042 490.399 266.96 499.006C257.418 501.908 252.401 509.285 252.352 519.171C252.352 530.581 252.352 542.188 254.025 553.451C257.123 574.796 261.156 596.043 265.238 617.241C268.385 633.618 269.221 650.094 268.287 666.62C267.648 677.44 261.697 685.604 252.057 690.916C248.172 693.08 240.303 691.998 237.991 688.654C235.827 685.506 233.122 682.506 231.893 679.014C228.942 670.653 225.893 662.144 224.417 653.439C220.482 630.913 216.744 608.339 214.236 585.616C212.662 571.599 209.269 558.123 206.318 544.45C204.547 536.286 200.465 530.876 192.744 527.581C187.825 525.466 185.268 520.794 184.137 515.629C183.35 511.941 182.907 508.105 182.76 504.268C182.415 495.612 178.038 489.415 170.219 486.956C150.742 480.808 132.496 471.808 113.905 463.545C106.921 460.447 102.052 462.365 98.1177 469.152C85.9205 490.202 78.6417 513.318 69.8873 535.794C58.8705 564.271 48.8375 593.092 38.5584 621.815C34.0829 634.307 24.1974 638.783 12.197 640.455C7.86901 641.045 1.18008 636.373 0.934168 632.094C0.639077 625.848 -0.24627 619.159 1.4751 613.404C7.32774 593.928 13.4758 574.452 20.9023 555.566C34.87 520.056 49.8704 484.989 64.4774 449.725C67.2316 443.085 66.2481 437.675 60.9365 432.511C56.3625 428.085 51.6903 423.757 46.8705 419.625C27.542 403.051 28.1318 382.099 33.5418 360.065C34.673 355.393 44.4605 350.327 49.2804 351.901C52.8706 353.081 56.6079 354.163 59.8048 356.081C77.2152 366.557 94.5276 377.279 111.889 387.853C115.135 389.821 118.577 391.591 122.069 393.116C155.906 407.723 189.94 421.986 223.581 436.987C238.385 443.577 252.893 444.02 268.14 439.593C308.764 427.789 346.634 409.789 382.93 388.493C400.439 378.214 417.062 366.262 433.981 354.95C439.981 350.917 439.243 343.54 432.407 339.654C423.554 334.638 414.898 329.031 405.505 325.244C367.831 309.948 331.289 291.751 292.091 280.291C288.452 279.209 284.861 277.389 281.123 277.094C274.877 276.602 268.435 276.357 262.287 277.389C254.959 278.619 253.483 285.603 251.122 291.456C250.188 293.767 248.713 295.931 247.139 297.898C242.024 304.391 229.827 306.505 222.991 301.095C218.023 297.161 213.941 290.915 206.957 292.882C182.514 299.669 158.218 307.046 133.971 314.522C127.43 316.539 123.938 321.801 122.955 328.687C122.217 333.703 121.922 339.015 119.856 343.441C118.479 346.392 114.692 349.147 111.397 350.18C102.594 353.032 93.3963 353.475 86.56 345.999C80.3631 339.212 73.92 339.31 65.9525 341.72C60.8376 343.294 56.2637 340.835 56.8047 338.179C57.2966 335.818 57.9854 332.966 59.6084 331.49C63.3955 328.146 67.576 325.096 72.0024 322.686C81.5437 317.473 83.2158 309.702 80.56 300.063C79.5763 296.374 78.3468 292.636 78.1009 288.898C75.4942 249.454 63.9364 211.485 58.9691 172.483C58.3297 167.614 53.6575 163.286 48.641 162.745C41.067 161.958 33.4437 161.614 25.8697 160.778C17.6072 159.892 11.5575 155.072 8.31145 147.793C5.21299 140.908 2.06528 133.481 1.4751 126.104C0.0980036 109.677 0.0491819 93.0533 0 76.528C0 71.413 2.65585 66.7899 6.78713 63.3471C28.5747 45.1987 53.2641 31.9195 80.0683 23.3617C105.446 15.2466 131.168 8.1643 158.218 6.63964C174.645 5.70517 190.875 2.31158 207.203 0C207.253 0.442643 207.301 0.934468 207.4 1.37711H207.302ZM267.254 59.4617C267.008 40.2313 258.401 28.6734 240.057 22.9191C229.089 19.4763 218.023 16.8696 206.367 17.7549C199.58 18.2959 194.023 20.6075 191.121 27.0996C188.317 33.2966 183.94 37.182 177.153 38.6083C142.382 45.8381 107.659 53.363 74.2153 65.6587C73.0841 66.0521 71.707 65.9538 70.4775 65.8062C69.2971 65.6095 68.0181 65.2652 67.1821 64.5275C66.346 63.8389 65.7068 62.6585 65.51 61.5765C65.3133 60.3961 65.264 58.7731 65.9525 57.937C70.9691 51.5925 78.6415 49.9694 85.6745 47.166C94.9699 43.379 104.216 39.4936 113.462 35.5098C113.512 35.5098 113.167 33.3949 112.675 33.2474C103.823 30.3456 94.8228 31.4768 86.757 35.1163C68.2646 43.4773 50.1656 52.7237 32.0667 61.8716C27.5911 64.134 23.3613 67.1833 19.5743 70.5277C11.4101 77.6592 7.22936 86.6596 9.44254 97.6765C11.9508 110.12 14.705 122.464 17.41 134.809C19.033 142.285 26.8039 146.466 35.3615 144.105C37.2304 143.613 39.9355 140.711 39.7388 139.236C38.9027 132.99 37.1324 126.891 35.7061 120.694C34.329 114.497 32.3124 108.349 31.8698 102.103C31.5255 97.2338 32.7057 92.0205 34.132 87.2498C34.673 85.3809 37.5255 83.8562 39.6895 82.8725C42.0503 81.7905 44.4604 83.3152 44.8539 86.4629C45.6408 92.7582 45.6897 99.1028 46.4274 105.398C47.0176 110.415 47.5097 115.628 49.1819 120.3C53.4607 132.252 60.4446 140.121 75.0516 136.137C117.889 124.579 160.677 112.726 203.515 101.119C216.991 97.4798 230.663 94.5288 244.09 90.7417C257.615 86.9547 267.451 73.1836 267.304 59.3141L267.254 59.4617ZM99.7411 187.877C99.446 187.877 99.1507 187.926 98.9047 187.976C100.282 196.73 101.659 205.435 102.937 214.239C103.282 216.698 103.528 219.256 103.331 221.764C103.233 222.797 101.806 224.567 101.118 224.518C99.0029 224.321 95.2651 223.78 95.0684 222.698C91.2814 205.485 87.986 188.123 84.3957 170.86C83.658 167.221 82.6744 163.434 80.8055 160.286C79.9203 158.86 76.6746 158.614 74.4122 158.417C73.7237 158.368 72.4445 160.089 72.1002 161.22C68.7559 171.647 75.1501 180.893 75.7403 190.927C77.8551 227.666 86.7567 263.323 92.6585 299.472C93.052 301.882 93.8879 304.637 95.5109 306.26C96.888 307.637 99.6916 307.833 101.905 307.981C102.642 307.981 104.118 306.161 104.167 305.177C104.167 298.931 104.954 292.439 103.43 286.587C100.233 274.193 97.7242 261.897 99.298 249.109C99.4947 247.437 101.905 245.814 103.626 244.634C104.118 244.29 106.429 245.372 106.724 246.208C109.282 253.29 111.987 260.372 113.758 267.7C115.528 275.029 116.118 282.652 117.446 290.128C118.086 293.767 125.463 298.144 129.496 297.702C130.725 297.554 132.102 297.948 133.283 297.603C157.284 289.636 181.334 281.717 205.236 273.406C210.548 271.586 212.17 266.274 212.318 261.061C212.465 256.044 212.564 250.831 211.482 245.962C205.138 217.583 199.727 189.008 196.383 160.089C195.35 151.335 192.547 142.826 190.432 134.219C188.858 127.678 182.662 123.842 175.924 125.612C153.939 131.416 131.955 137.367 109.675 142.088C99.7405 144.203 95.3144 147.597 97.626 161.614C99.0522 170.319 99.1011 179.27 99.7897 188.074L99.7411 187.877ZM237.352 489.612C244.188 488.432 250.631 488.087 256.582 486.12C280.779 478.251 305.125 470.873 327.699 458.725C337.732 453.315 348.355 448.889 358.929 444.561C374.225 438.364 390.012 433.347 404.964 426.462C414.062 422.281 422.522 416.182 430.292 409.789C438.457 403.051 442.391 393.558 442.293 382.787C442.293 380.378 441.309 377.968 440.424 375.656C439.391 373.049 434.965 373.148 430.44 376.197C407.275 391.985 382.586 405.166 358.339 419.084C331.683 434.38 303.551 445.298 274.041 453.856C254.664 459.463 236.762 459.266 218.22 451.791C165.104 430.396 112.282 408.412 63.838 377.328C60.7396 375.312 56.9526 374.23 53.4115 373C50.4114 371.967 48.2967 373.197 47.4114 376.295C43.1818 391.444 47.2148 403.198 60.3955 412.69C75.9862 423.953 93.5933 431.577 109.577 441.807C132.496 456.414 157.579 465.168 183.252 472.447C195.498 475.939 207.646 479.333 219.4 484.3C225.155 486.759 231.45 487.94 237.303 489.612H237.352ZM252.451 637.258C250.877 625.897 249.401 614.634 247.778 603.371C246.303 593.387 244.532 583.452 243.007 573.468C240.007 553.549 237.155 533.63 234.106 513.711C233.663 510.662 231.105 509.039 228.351 510.219C226.433 511.006 224.024 513.22 223.876 514.99C223.384 519.958 223.04 525.269 224.319 529.942C227.663 542.237 229.335 554.68 229.975 567.37C230.27 573.665 231.45 579.911 232.63 586.108C236.811 608.437 241.09 630.766 245.418 653.045C245.615 654.127 246.598 655.209 247.532 655.996C247.926 656.341 249.647 655.947 249.697 655.701C250.729 649.553 251.615 643.406 252.549 637.209L252.451 637.258ZM229.237 220.977C225.843 191.369 222.302 160.286 218.663 129.202C218.515 128.022 218.072 126.547 217.187 125.858C215.416 124.383 213.203 122.268 211.335 122.415C209.859 122.514 207.498 125.661 207.498 127.432C207.547 138.695 206.908 150.154 208.826 161.122C213.056 185.713 218.564 210.108 223.728 234.502C223.925 235.437 225.45 236.076 226.384 236.814C227.024 235.732 228.105 234.699 228.253 233.568C228.745 229.879 228.843 226.141 229.237 220.928V220.977ZM70.3298 474.464C70.8216 476.874 71.0678 481.3 71.8547 481.398C76.1335 481.989 78.0025 478.152 79.2812 475.005C82.1338 468.119 84.5928 461.037 86.56 453.856C86.8551 452.774 83.7077 450.512 81.8388 449.233C81.1994 448.79 79.2319 449.233 78.5434 449.922C71.8546 456.758 70.9199 465.562 70.2805 474.513L70.3298 474.464ZM27.6894 604.601C33.6404 599.682 36.8374 591.075 35.8046 582.272C35.7554 581.632 33.6401 580.6 33.4926 580.747C27.394 586.895 23.2139 593.83 25.2796 602.978C25.4271 603.666 26.8533 604.06 27.6894 604.601Z" fill="black"/>
</svg>
