<svg width="509" height="687" viewBox="0 0 509 687" fill="none" xmlns="http://www.w3.org/2000/svg">
<path d="M242.074 557.577C240.107 559.151 238.336 561.512 236.074 562.201C223.188 566.037 218.319 575.775 216.5 587.775C214.975 597.808 213.401 607.891 212.565 618.023C211.09 635.777 210.253 653.532 208.975 671.287C208.778 673.746 207.548 676.107 206.811 678.517C205.581 682.353 199.63 686.042 194.614 686.042C189.843 686.042 183.646 681.763 183.449 677.533C182.466 655.991 181.384 634.449 181.187 612.858C181.089 604.005 183.007 595.152 184.187 586.349C185.318 577.938 182.416 571.446 175.58 566.626C171.449 563.676 167.416 560.479 162.94 558.069C133.825 542.183 106.283 524.034 80.3148 503.378C76.4787 500.328 71.6096 498.263 66.8882 496.689C65.4619 496.197 61.3798 498.657 61.2323 499.985C60.1995 512.575 59.806 525.166 59.1175 537.806C58.5273 547.937 58.3797 558.118 56.9043 568.102C55.9206 574.693 51.1992 579.119 44.3629 580.84C39.5431 582.021 32.7068 579.119 31.6248 575.136C30.6411 571.496 29.1657 567.856 29.1165 564.167C28.9689 556.544 29.2149 548.921 29.9526 541.298C33.6412 502.05 37.4774 462.852 41.3136 423.604C41.953 416.964 40.4775 410.718 36.2971 405.701C27.3459 394.98 17.6079 384.898 8.80436 374.077C5.7059 370.29 2.11562 364.978 2.55826 360.699C4.47636 341.518 -1.22875 322.78 0.246712 303.697C0.886077 295.434 4.27963 287.861 12.0012 285.598C26.3623 281.418 35.7069 271.63 44.7072 260.908L44.0186 260.22C46.281 273.106 50.7565 284.91 62.3143 292.385C66.3964 295.041 71.167 296.91 75.8393 298.435C79.7247 299.713 82.0362 294.451 82.7739 282.794C83.069 277.729 83.4625 272.614 83.5117 267.548C83.8068 212.808 84.2986 158.117 84.2002 103.377C84.2002 86.8513 82.6756 70.3749 81.5444 53.8987C81.446 52.5708 79.1345 51.4399 76.2819 48.6857C75.2491 62.8503 74.8557 75.4408 73.2818 87.884C71.708 100.475 68.4128 112.82 66.839 125.361C63.4946 151.772 60.9372 178.331 57.5436 204.742C57.101 208.135 53.7566 211.135 51.7402 214.332L52.3795 214.627C52.0844 191.758 51.15 168.937 58.0846 146.559C60.2978 139.428 59.9044 131.46 60.5437 123.886C61.1339 116.263 60.2486 108.344 62.2159 101.114C67.5767 81.1955 68.1669 60.9321 68.6096 40.6197C68.6587 38.0622 68.9046 35.5537 69.1997 32.9962C70.3801 22.717 77.8066 14.2577 88.1348 11.5034C91.8234 10.5198 95.5612 9.29031 99.2991 9.14277C141.202 7.37219 182.564 -1.72651 224.762 0.289972C231.107 0.585067 237.5 0.43764 243.796 1.02783C252.156 1.76557 257.96 6.48705 260.911 14.2087C275.075 51.194 283.83 89.5073 288.699 128.706C291.649 152.608 294.207 176.56 296.961 200.512C298.092 210.201 303.06 216.89 312.208 220.578C355.832 238.038 399.653 255.105 441.851 276.007C453.163 281.614 465.704 284.614 477.557 289.188C485.82 292.385 493.935 296.025 502.001 299.713C506.083 301.582 509.673 308.419 508.345 312.501C502.689 329.715 503.181 347.617 502.099 365.372C501.312 378.258 495.607 387.356 481.983 389.127C471.655 390.504 466.098 395.865 464.721 406.046C462.803 419.866 459.606 433.637 459.016 447.507C457.54 480.508 457.54 513.608 456.36 546.609C456.163 552.708 453.851 558.905 451.589 564.709C449.179 570.906 441.458 574.447 436.195 572.676C431.67 571.201 427.392 566.135 427.342 561.413C427.293 552.561 426.457 543.462 427.883 534.855C432.113 509.575 431.818 484.197 431.966 458.77C432.064 443.523 432.998 428.276 433.49 413.03C433.687 405.849 428.08 401.816 420.654 403.783C414.506 405.406 408.358 407.03 402.358 409.095C381.997 416.325 361.537 423.407 341.422 431.227C331.634 435.014 321.946 436.735 311.617 435.653L311.962 436.342C316.142 433.588 319.978 430.096 324.503 428.276C343.34 420.751 362.471 413.817 381.406 406.587C389.669 403.39 397.932 400.095 405.997 396.455C409.489 394.881 413.178 391.734 411.948 387.799C411.014 384.7 407.424 382.241 404.62 379.979C402.702 378.405 400.145 377.619 397.833 376.586C369.898 364.438 341.963 352.437 314.076 340.191C306.65 336.945 300.699 331.19 301.683 322.829C303.601 305.959 297.305 290.221 296.273 273.794C295.24 257.416 294.453 241.137 290.617 224.857C285.994 205.233 283.19 184.823 282.403 164.658C281.518 140.362 277.879 116.656 272.665 93.1469C267.747 70.9164 261.353 48.9315 254.861 27.0945C251.615 16.2743 242.714 11.1597 231.746 10.176C226.779 9.73336 221.418 9.58529 216.647 10.864C197.958 15.8315 178.925 15.3401 159.891 15.6844C148.481 15.8812 136.972 15.2413 125.661 16.4709C117.005 17.4054 108.447 20.3076 100.135 23.111C95.0694 24.7832 92.2661 29.308 91.6267 34.718C89.9545 48.6859 90.889 62.5552 93.4956 76.3755C96.7908 93.9828 97.5285 111.787 93.6923 129.345C90.1021 145.772 90.0529 162.002 93.7415 178.38C96.299 189.643 96.0531 201.103 93.7415 212.414C87.938 241.334 90.8398 270.548 91.1349 299.664C91.2332 309.058 95.4137 316.829 102.348 322.977C107.07 327.157 112.431 330.698 117.25 334.781C144.251 357.798 171.252 380.914 198.204 404.029C207.204 411.751 213.549 420.751 213.008 433.44C212.762 438.457 213.647 443.572 214.237 448.588C214.827 453.457 219.057 458.032 224.172 458.573C230.467 459.212 236.812 459.065 243.156 459.31L242.468 458.622C221.664 473.721 221.565 473.721 221.073 498.066C220.729 513.313 220.532 528.56 220.68 543.806C220.778 552.167 225.205 556.2 235.189 558.118C237.648 558.561 240.254 558.315 242.812 558.413L242.271 557.774L242.074 557.577ZM28.2312 328.387C36.543 328.239 42.1005 333.305 48.0515 338.174C78.4459 362.864 109.037 387.406 139.677 411.849C144.596 415.784 150.006 419.178 155.317 422.571C163.236 427.637 171.941 428.227 180.892 426.456C183.302 425.964 185.466 424.44 187.679 423.309C190.827 421.735 192.597 415.685 190.236 413.57C177.154 401.717 163.58 390.406 150.842 378.209C123.349 351.994 92.3644 330.01 63.1995 305.861C52.8713 297.304 37.7233 304.878 28.9198 293.516C28.3788 292.828 26.3623 292.778 25.2803 293.123C22.9688 293.86 20.3621 294.598 18.6899 296.172C15.7882 298.828 14.116 302.664 16.0833 306.402C20.1162 314.124 24.7393 321.55 29.1165 329.125C25.4278 330.108 21.149 330.207 18.2473 332.272C14.0176 335.322 13.0832 340.535 12.7881 345.797C12.2471 355.191 14.8537 363.651 21.0998 370.339C31.428 381.406 42.494 391.783 53.3632 402.407C57.7895 406.784 63.1012 410.423 66.7898 415.342C85.4298 439.884 109.283 458.573 133.923 476.426C136.677 478.393 140.809 478.787 144.399 479.131C148.038 479.475 151.383 473.672 151.481 467.278C151.53 462.212 151.383 457.147 151.038 452.081C150.547 445.392 147.989 439.932 141.399 437.08C139.087 436.047 135.3 434.916 135.054 433.342C132.448 417.308 118.136 412.292 107.758 403.587C88.3807 387.307 68.7571 371.175 49.9696 354.207C41.6579 346.732 31.7231 340.141 28.2804 328.387H28.2312ZM491.131 310.927C490 308.812 489.361 305.664 487.59 304.779C480.852 301.385 474.016 297.697 466.786 296.025C440.572 290.025 416.67 278.614 392.62 267.105C369.8 256.138 346.291 246.596 322.929 236.76C318.552 234.891 313.634 233.169 308.617 235.973C305.322 237.792 305.47 246.252 308.814 253.777C312.06 261.056 317.224 266.121 324.208 269.859C354.356 285.991 384.407 302.369 414.555 318.55C423.506 323.37 432.507 328.042 441.605 332.518C451.343 337.289 461.524 336.846 471.016 332.469C479.131 328.731 485.574 322.435 490.295 314.615C490.935 313.582 490.885 312.156 491.18 310.927H491.131ZM72.7408 440.719C69.8391 443.08 67.0849 444.26 66.298 446.228C58.9207 463.884 60.9864 475.836 75.4458 486.656C104.857 508.69 133.874 531.461 167.367 547.397C171.892 549.561 176.613 551.528 181.482 552.659C183.105 553.052 186.794 550.889 187.187 549.364C191.466 530.675 191.073 511.788 188.81 492.853C188.318 488.82 181.58 484.295 177.203 485.131C172.236 486.066 167.219 486.804 162.449 488.23C155.268 490.394 148.284 493.099 140.415 495.804C129.054 486.755 118.136 478.245 107.414 469.491C95.7088 459.95 84.2002 450.212 72.8392 440.769L72.7408 440.719ZM319.634 284.959C317.716 286.385 315.699 287.712 313.978 289.335C313.142 290.122 312.601 291.5 312.453 292.68C309.355 316.829 313.191 326.37 333.356 336.059C359.57 348.65 386.423 359.962 413.08 371.618C424.539 376.635 435.359 372.848 445.687 367.782C447.409 366.946 448.54 363.601 448.884 361.289C449.917 354.404 447.31 348.896 441.064 345.502C405.456 326.223 369.849 306.943 334.143 287.811C330.897 286.09 326.962 285.499 323.323 284.565C322.191 284.27 320.864 284.762 319.634 284.909V284.959ZM494.771 356.126C493.787 351.601 493.541 347.814 492.115 344.519C491.328 342.65 488.525 340.289 486.803 340.387C475.246 341.223 465.458 345.6 459.655 356.371C456.901 361.388 458.819 369.995 463.54 372.946C466.639 374.864 470.081 376.438 473.524 377.717C481.147 380.619 488.771 377.176 491.377 369.602C492.951 364.978 493.787 360.159 494.771 356.126ZM184.285 435.605C180.99 436.047 176.023 436.49 171.203 437.474C163.629 438.949 159.744 445.638 160.826 454.688C161.465 460.048 167.318 464.278 171.351 461.819C179.761 456.704 187.974 451.245 195.942 445.441C197.073 444.605 196.63 441.113 196.335 438.9C196.237 438.064 194.515 437.129 193.384 436.834C190.974 436.244 188.466 436.097 184.335 435.556L184.285 435.605Z" fill="black"/>
<path d="M402.703 504.214C401.178 506.132 399.998 508.936 398.03 509.87C370.587 522.707 342.799 534.461 311.814 535.248L312.306 535.839C313.929 533.97 315.159 531.166 317.175 530.428C340.832 522.117 364.488 513.903 388.341 506.182C392.965 504.657 398.276 505.198 403.244 504.805L402.752 504.214H402.703Z" fill="black"/>
<path d="M311.421 435.605C291.404 452.376 268.092 459.163 242.32 458.524L243.009 459.212C264.993 446.376 284.125 440.031 311.765 436.293L311.421 435.605Z" fill="black"/>
<path d="M311.765 535.2C310.978 536.134 310.388 537.511 309.355 538.003C288.01 548.233 265.78 555.512 242.074 557.577L242.615 558.217C262.829 541.396 286.19 534.511 312.208 535.79L311.716 535.2H311.765Z" fill="black"/>
<path d="M44.6085 260.859C45.0019 251.023 45.3462 241.186 45.7397 231.301C45.9856 225.005 47.5594 219.152 52.2317 214.578L51.5923 214.284C51.3464 222.792 51.3464 231.301 50.8054 239.809C50.3628 247.137 48.9857 254.318 43.9199 260.171L44.6085 260.859Z" fill="black"/>
<path d="M403.195 504.804C407.277 499.64 412.736 496.984 419.13 496.247C419.916 496.148 421.343 497.378 421.638 498.313C421.933 499.149 421.195 501.165 420.703 501.263C414.752 502.395 408.752 503.28 402.752 504.214L403.244 504.804H403.195Z" fill="black"/>
</svg>
