<svg width="366" height="561" viewBox="0 0 366 561" fill="none" xmlns="http://www.w3.org/2000/svg">
<path d="M174.902 44.4845C187.886 43.4517 200.132 46.1075 212.034 51.2225C220.592 54.9112 223.838 59.7311 223.543 68.5839C222.166 111.766 220.739 154.948 219.657 198.131C219.313 211.312 223.297 216.476 235.15 221.197C238.691 222.574 242.281 223.902 245.822 225.279C273.118 235.755 300.463 246.034 327.612 256.904C335.776 260.199 343.645 264.576 350.973 269.495C359.826 275.446 365.088 284.2 365.088 295.217C365.138 338.448 365.088 381.68 364.99 424.911C364.941 448.076 355.744 466.766 337.006 480.635C333.071 483.537 326.628 483.979 322.841 481.127C320.825 479.602 318.956 477.881 316.841 476.454C304.349 467.995 297.955 456.781 298.594 441.092C299.332 423.337 298.988 405.484 298.594 387.68C298.496 382.762 297.07 377.745 295.397 373.073C294.758 371.302 291.513 369.089 289.693 369.286C265.741 372.089 247.052 384.434 231.904 402.533C229.74 405.14 229.199 409.566 228.854 413.255C228.166 419.993 225.707 425.846 219.706 428.944C209.182 434.403 206.28 443.207 206.329 454.224C206.427 470.749 205.887 487.275 205.837 503.8C205.788 519.243 203.379 534.195 196.247 548.409C188.673 555.933 177.607 554.901 168.41 558.983C159.115 563.114 150.901 559.376 143.475 554.212C140.622 552.245 137.819 548.704 137.032 545.408C135.606 539.31 135.212 532.867 135.212 526.522C135.114 499.816 135.212 473.11 135.36 446.404C135.36 438.781 135.409 431.158 135.606 423.534C135.901 412.222 131.179 404.009 120.9 399.041C110.572 394.123 100.342 388.959 89.9154 384.237C86.5218 382.713 82.6365 382.122 78.9479 381.188C72.1116 379.467 65.4721 384.09 65.5213 390.484C65.718 409.566 66.0623 428.6 66.1115 447.683C66.1115 454.027 65.7671 460.421 64.7835 466.667C62.1768 483.242 51.5537 494.209 37.2417 500.849C27.7988 505.226 17.1267 503.849 8.07719 497.898C5.17546 495.98 3.10967 492.144 1.78176 488.75C0.45385 485.307 -0.0870792 481.323 0.0112846 477.586C0.355558 463.618 -0.480871 449.355 2.12577 435.732C6.9456 410.501 6.69988 385.123 7.24088 359.744C7.63434 341.94 8.42096 324.235 11.8637 306.627C14.0769 295.512 14.4213 283.905 14.4705 272.544C14.8639 215.345 14.913 158.096 15.0114 100.897C15.0114 85.6503 14.6674 70.4529 18.9954 55.5014C22.6349 43.009 21.1104 30.32 18.5037 17.7292C17.5201 12.9093 21.7987 7.10573 26.225 6.12208C34.881 4.25315 43.5373 2.13836 52.3409 0.810437C57.3083 0.0726989 62.8164 -0.566674 67.4395 0.810437C89.0795 7.49926 111.703 12.4175 128.769 29.0904L129.409 28.451C116.523 29.4838 104.178 28.5001 93.8994 19.2046C92.1288 17.5816 89.4237 16.9423 87.063 16.1554C85.9318 15.7619 84.5055 15.8603 83.3251 16.1554C82.194 16.4505 80.6694 17.1883 80.3251 18.0735C79.5874 20.1392 78.358 23.09 79.2433 24.5655C85.2926 34.943 100.096 33.6644 106.096 44.337L106.441 43.6976C83.719 41.4844 63.7506 31.8937 44.4713 20.5818C46.6845 20.2375 48.8981 20.0408 51.0621 19.4507C51.6031 19.3031 51.849 17.9751 52.2424 17.2374C47.9636 15.2209 47.0288 19.1555 45.0615 21.2704C36.8973 22.2048 30.0613 24.9099 29.3727 34.4513C26.5202 72.4202 22.2415 110.242 22.7825 148.506C23.5203 199.36 21.9952 250.264 21.1099 301.119C20.9132 313.808 20.1266 326.546 18.356 339.137C12.6018 379.663 15.0114 420.337 15.6016 461.011C15.6016 462.978 18.1102 465.044 19.684 466.815C21.3071 468.684 27.7003 464.307 27.897 460.913C30.1102 427.961 33.799 395.008 29.2743 361.958C28.93 359.449 28.4876 356.99 28.2909 354.433C27.8482 349.514 34.2416 344.99 39.0122 347.105C72.6526 362.105 106.244 377.204 139.786 392.352C142.097 393.385 144.753 394.615 146.032 396.582C147.999 399.582 150.262 403.418 149.967 406.664C149.327 414.14 145.983 421.518 145.934 428.944C145.688 459.487 146.18 489.98 146.77 520.522C146.819 524.014 149.032 527.555 150.606 530.9C150.951 531.637 152.819 531.932 154 531.834C154.934 531.785 156.557 530.998 156.656 530.309C157.59 525.391 158.77 520.473 158.819 515.505C159.655 468.487 160 421.419 161.033 374.401C161.377 359.203 164.082 344.006 164.475 328.809C166.246 266.494 167.771 204.229 168.951 141.915C169.295 124.111 168.213 106.307 167.771 88.5028C167.574 80.5352 164.426 73.8464 158.819 68.0921C156.213 65.4362 154.442 61.9442 152.278 58.8457L151.737 59.4851C157.836 61.1573 164.082 62.2885 169.934 64.5509C177.607 67.6003 180.361 71.9776 178.984 79.1091C175.591 96.8148 174.656 114.225 179.476 131.98C183.214 145.653 181.935 159.867 178.935 173.589C175.099 191.245 176.033 209 176.082 226.804C176.082 235.805 177.115 244.608 182.968 252.084C186.706 256.855 185.82 261.428 182.181 265.707C177.754 270.872 176.968 277.118 176.82 283.512C176.427 302.594 176.082 321.677 175.837 340.76C175.689 352.219 175.492 363.728 181.148 374.253C175.886 386.008 175.148 398.402 175 411.091C174.607 441.584 174.558 472.127 169.59 502.423C168.361 509.899 168.558 517.62 168.558 525.243C168.558 527.604 169.836 530.014 170.869 532.228C171.213 532.916 172.738 533.359 173.721 533.359C174.902 533.359 176.722 533.113 177.165 532.375C178.984 529.178 181.64 525.735 181.738 522.342C182.476 502.029 182.525 481.668 183.017 461.306C183.361 448.617 183.755 435.879 184.787 423.239C186.263 405.14 194.525 392.992 213.018 386.942C231.068 380.991 249.019 373.712 265.347 364.171C289.594 349.957 314.431 337.563 341.038 328.661C344.629 327.481 348.613 326.153 351.121 323.595C353.58 321.136 355.252 317.152 355.596 313.66C355.94 310.07 354.662 306.185 353.482 302.594C350.432 293.25 344.826 289.61 336.416 292.119C305.972 301.266 275.626 310.562 246.806 324.284C236.527 329.202 225.51 332.596 215.133 337.317C205.149 341.842 198.263 336.825 191.083 330.53C198.903 324.382 205.493 317.546 204.608 306.381C204.214 301.365 205.1 296.201 205.149 291.135C205.788 230.05 206.378 169.015 206.87 107.93C206.968 96.4704 206.477 85.06 206.034 73.6005C205.739 65.4362 201.952 59.0917 194.821 54.9112C188.28 51.075 181.689 47.3863 175.148 43.5993L174.853 44.2878L174.902 44.4845ZM336.563 277.708C333.71 274.511 331.94 270.872 329.038 269.593C308.333 260.199 287.528 250.904 266.429 242.444C254.773 237.723 242.478 234.427 230.379 230.837C224.92 229.214 217.838 234.624 216.461 240.87C215.92 243.329 214.887 245.789 214.837 248.248C214.542 269.74 214.247 291.233 214.395 312.677C214.444 321.726 221.035 325.218 230.379 320.89C254.527 309.726 279.364 300.529 304.545 292.02C315.267 288.43 325.89 284.495 336.513 277.708H336.563ZM356.875 360.04C356.875 364.663 356.875 363.384 356.875 362.154C356.875 357.777 351.612 352.465 347.039 352.318C342.415 352.17 337.645 356.547 337.006 361.613C336.366 366.63 335.678 371.696 335.432 376.712C334.104 402.041 332.874 427.37 331.841 452.699C331.743 454.863 334.153 459.093 334.694 458.946C338.137 458.208 341.973 457.273 344.53 455.06C349.645 450.683 350.629 444.191 351.121 437.797C352.892 413.845 354.612 389.893 356.776 360.04H356.875ZM44.5698 410.452C44.5698 431.649 44.4224 445.519 44.7667 459.339C44.7667 460.864 47.4226 462.536 49.144 463.618C49.6358 463.962 51.7998 462.88 52.2424 461.995C65.7183 432.289 59.5211 403.025 50.1274 373.811C50.029 373.516 47.6192 373.614 46.5372 374.056C45.5044 374.499 44.4715 375.532 44.0781 376.614C38.914 390.287 45.701 404.058 44.5698 410.402V410.452ZM316.988 390.238C310.841 412.911 310.792 414.534 315.513 446.503C320.284 441.289 318.611 434.846 318.759 428.944C319.005 416.353 320.972 403.615 317.038 390.238H316.988ZM217.74 409.32C216.953 408.484 216.165 406.96 215.378 406.96C211.788 406.861 211.05 408.632 213.509 411.386C214.1 412.075 215.871 412.616 216.461 412.222C217.248 411.73 217.395 410.255 217.74 409.32Z" fill="black"/>
<path d="M222.362 354.039C223.149 356.056 225.166 358.81 224.477 359.892C222.805 362.597 219.903 364.515 217.493 366.728C216.854 365.794 215.477 364.662 215.673 363.974C216.509 360.777 217.69 357.58 219.067 354.58C219.313 353.99 221.182 354.187 222.362 354.039Z" fill="black"/>
<path d="M255.561 347.301C254.626 349.318 254.184 352.268 252.659 353.105C251.43 353.744 248.823 351.727 246.855 350.94C247.741 348.924 248.135 345.875 249.659 345.137C250.987 344.498 253.544 346.514 255.561 347.301Z" fill="black"/>
<path d="M335.874 314.89C333.021 314.644 331.595 313.021 332.333 310.169C332.53 309.333 334.104 308.3 335.088 308.3C337.94 308.3 339.366 310.12 338.629 312.923C338.432 313.759 336.808 314.202 335.874 314.841V314.89Z" fill="black"/>
<path d="M276.414 338.153C277.299 336.235 278.136 334.366 279.021 332.497C280.939 333.382 283.496 333.776 284.628 335.251C286.3 337.464 285.07 340.12 282.267 340.317C280.398 340.465 278.381 338.94 276.463 338.153H276.414Z" fill="black"/>
<path d="M187.295 289.512L185.377 289.413L186.41 287.348L187.295 289.512Z" fill="black"/>
</svg>
