<svg width="397" height="525" viewBox="0 0 397 525" fill="none" xmlns="http://www.w3.org/2000/svg">
<path d="M113.758 49.0695C126.791 48.2826 138.742 40.5612 151.037 34.6593C170.513 25.3147 189.645 15.1831 208.433 4.6089C219.745 -1.73565 229.679 -1.58824 240.352 5.69077C261.353 20.0029 282.599 33.9214 303.796 47.9384C309.01 51.3812 314.469 54.2828 322.191 58.8568C326.42 51.5777 330.748 45.8236 333.207 39.4299C335.912 32.3968 335.617 24.036 339.011 17.4947C341.519 12.6748 347.372 7.65773 352.536 6.57572C359.815 5.05106 363.356 12.0351 364.585 18.4289C365.766 24.6259 366.208 31.0687 365.913 37.364C364.733 65.2505 362.962 93.137 361.733 121.024C360.208 155.304 358.979 189.535 357.651 223.815C357.454 228.881 358.388 234.192 357.257 239.012C350.372 267.882 359.323 291.195 380.865 310.721C394.242 322.82 397.095 339.247 396.209 356.116C393.701 403.036 390.75 449.907 387.553 496.778C385.783 522.304 379.881 526.878 353.323 524.271C348.454 523.779 343.781 521.665 339.011 520.287C328.142 499.188 338.568 476.564 331.142 454.678C328.043 455.366 324.354 455.268 321.945 456.94C303.846 469.482 299.469 470.564 287.714 456.153C280.337 447.104 272.664 443.513 261.992 443.317C242.958 442.972 223.876 442.776 204.842 441.989C175.678 440.808 146.513 439.382 117.397 437.611C103.036 436.726 90.9864 437.316 79.8221 450.055C73.576 457.186 59.5592 457.481 48.4441 461.072C40.1323 477.744 48.4442 499.237 33.8372 516.058H5.65574C3.14746 511.14 0 507.795 0 504.499C0.0983638 471.498 0.442685 438.497 1.27878 405.544C1.7706 387.789 4.32794 370.035 4.22957 352.329C4.13121 337.132 9.24598 325.475 20.066 315.245C27.4433 308.311 33.837 300.294 40.3782 292.523C52.2802 278.457 58.1821 262.128 58.9198 243.685C61.4281 181.518 64.3298 119.351 66.8873 57.1847C67.4775 43.2169 66.7891 29.1998 67.9694 15.3303C68.9531 4.2151 78.6909 -1.58863 90.2487 0.378673C98.8063 1.85415 103.331 7.0186 104.954 15.4288C107.069 26.1506 102.003 38.5445 113.758 49.1187V49.0695ZM73.035 262.423C79.5762 264.833 81.9369 266.309 84.3468 266.506C161.661 274.178 239.27 273.736 316.83 273.195C323.961 273.195 331.043 269.998 340.437 267.735C341.519 233.603 341.421 200.65 343.978 167.895C346.536 135.434 350.814 103.17 345.749 69.8244C318.551 80.3986 318.404 80.5957 298.731 67.1689C287.222 59.2505 276.55 50.1022 265.041 42.1838C250.582 32.2489 237.549 19.5604 218.515 15.675C193.629 28.4624 168.891 41.3974 143.906 53.7914C133.676 58.8572 123.102 63.3325 112.282 66.972C102.593 70.218 95.0685 65.005 91.4782 55.6111C88.3798 47.496 94.4784 36.5774 81.7403 29.6919C77.4615 101.646 73.1333 172.567 69.2479 243.488C68.9036 249.439 71.5595 255.538 72.9858 262.374L73.035 262.423ZM33.7387 430.382C46.9686 419.119 61.1823 421.971 75.0024 422.857C91.4783 423.889 107.856 425.857 124.332 426.496C190.235 429.054 256.189 431.07 322.092 433.824C330.355 434.168 338.47 437.858 348.749 440.514C347.519 455.022 345.552 467.465 345.749 479.908C345.847 488.368 348.7 496.925 350.962 505.237C351.405 506.811 355.044 508.287 357.306 508.336C359.47 508.385 362.618 507.205 363.749 505.533C365.716 502.483 367.34 498.696 367.684 495.106C371.717 453.448 375.651 411.741 379.045 370.035C379.488 364.379 376.733 358.428 375.258 351.64C318.846 348.689 264.451 345.886 210.007 342.984C187.186 341.755 164.415 339.837 141.595 339.246C108.594 338.361 75.5925 337.722 42.5914 338.263C22.476 338.607 15.7381 344.214 15.2463 362.362C14.1151 404.168 14.5579 446.071 14.8038 487.925C14.8038 490.384 18.9348 492.794 22.8202 497.122C34.1812 475.088 26.1648 452.514 33.8372 430.332L33.7387 430.382ZM40.9194 318.196C45.7884 322.032 47.5587 324.639 49.6244 324.836C59.6575 325.869 69.7891 326.901 79.8714 326.803C157.382 326.065 234.794 328.033 312.01 334.967C322.092 335.853 332.322 336.295 342.454 336.197C348.552 336.197 355.438 336.492 359.077 327C347.028 298.917 328.388 282.588 293.567 283.227C230.122 284.457 166.579 282.539 103.085 281.014C74.7071 280.326 54.346 290.9 40.9194 318.147V318.196Z" fill="black"/>
<path d="M317.47 200.749C310.338 200.356 305.42 200.454 300.649 199.667C293.321 198.486 286.091 196.765 278.271 195.142C270.55 168.436 281.862 144.288 280.14 114.483C288.157 119.45 294.354 121.172 294.797 123.877C296.371 133.763 296.174 143.943 296.371 153.977C296.567 163.616 296.371 173.256 296.371 188.404C310.437 176.01 309.207 164.501 309.846 153.78C310.535 142.664 311.027 131.549 311.518 121.565C322.191 117.483 326.42 121.86 326.863 128.992C328.339 153.189 323.961 176.551 317.371 200.7L317.47 200.749Z" fill="black"/>
<path d="M249.696 120.434C252.548 144.041 264.991 168.583 244.483 191.847C233.417 163.222 234.007 147.828 249.696 120.434Z" fill="black"/>
<path d="M136.381 111.138C136.381 132.483 136.479 153.386 136.283 174.289C136.283 176.551 134.709 178.912 133.578 181.076C133.037 182.109 132.004 182.895 131.168 183.781C128.955 183.141 125.168 182.994 124.824 181.813C118.627 161.157 120.053 140.156 123.594 119.302C124.627 113.253 128.414 107.99 136.381 111.138Z" fill="black"/>
<path d="M99.9379 189.486C86.4621 164.305 91.2819 139.566 99.6428 114.876C109.282 139.713 105.495 164.6 99.9379 189.486Z" fill="black"/>
<path d="M197.416 122.106C186.055 122.007 177.694 125.401 175.973 138.385C174.399 150.14 177.842 163.173 169.136 174.977C157.382 152.845 157.53 148.566 170.563 114.187C182.268 107.695 189.203 116.45 196.875 122.696L197.416 122.057V122.106Z" fill="black"/>
<path d="M196.875 122.745C200.367 121.958 203.859 121.171 207.105 120.434C208.826 122.893 211.432 124.86 211.285 126.581C209.564 148.222 207.498 169.813 204.645 200.306C198.399 188.846 194.76 185.207 194.809 181.666C195.203 161.796 196.432 141.927 197.416 122.057L196.875 122.696V122.745Z" fill="black"/>
<path d="M33.0996 406.331C35.1652 386.954 36.6408 373.281 38.1163 359.362C51.9364 348.1 67.3793 350.46 82.1831 351.69C117.496 354.69 152.71 359.018 188.072 361.526C223.384 364.035 258.845 364.625 294.157 366.691C311.715 367.723 329.175 370.133 347.569 372.002C353.323 386.068 353.913 399.052 351.208 414.791C337.781 408.249 344.323 394.085 336.158 388.085C334.339 386.757 331.535 385.773 329.421 386.117C327.257 386.462 323.765 388.528 323.666 390.003C323.125 398.561 323.421 407.168 323.421 418.627C318.158 419.512 311.174 421.971 304.289 421.676C244.828 419.414 185.219 422.857 125.955 414.397C106.036 411.545 85.4782 413.217 65.2645 411.938C55.5756 411.348 45.9854 408.692 33.1981 406.381L33.0996 406.331ZM249.943 409.282V411.496C258.746 410.611 267.697 410.315 276.304 408.643C283.239 407.315 287.764 401.463 286.534 394.823C285.501 389.314 281.911 381.593 277.583 379.97C268.337 376.576 257.959 375.691 247.926 375.199C203.613 373.035 159.251 371.314 114.889 369.494C109.823 369.297 104.561 369.002 99.741 370.133C91.1834 372.15 87.5441 379.035 87.3474 387.199C87.1507 394.183 91.2327 399.2 98.0198 401.02C102.889 402.299 108.004 402.938 113.02 403.184C158.612 405.299 204.253 407.217 249.844 409.233L249.943 409.282ZM53.6576 389.118C54.7888 385.429 56.3136 382.183 56.5595 378.839C56.6578 377.757 53.3626 376.429 51.5921 375.248C50.1658 378.396 48.3461 381.494 47.6083 384.789C47.4116 385.576 50.8542 387.15 53.6576 389.118Z" fill="black"/>
</svg>
