<svg width="445" height="476" viewBox="0 0 445 476" fill="none" xmlns="http://www.w3.org/2000/svg">
<path d="M156.146 14.6677C159.146 6.60176 165.785 2.0771 173.458 1.58527C191.163 0.454077 209.164 -0.923154 226.722 0.847417C249.444 3.15899 271.871 8.32309 294.347 12.4544C300.593 13.5856 306.839 15.0612 312.79 17.1268C321.446 20.127 328.528 25.4387 332.512 34.0456C335.168 39.8 337.578 45.702 340.037 51.358C342.594 52.2924 345.053 54.1613 347.168 53.7678C371.317 49.1939 392.367 57.4564 412.482 69.3094C421.187 74.4244 429.745 80.0806 437.614 86.4251C442.63 90.4581 445.089 96.9009 444.007 103.59C441.893 116.574 435.45 127.443 425.761 136.247C420.793 140.772 414.547 141.755 407.957 141.362C400.383 140.87 396.645 145.444 394.137 151.936C385.383 174.757 383.219 199.151 380.071 222.907C375.743 255.515 372.546 288.713 376.333 321.763C378.104 337.157 378.005 351.765 372.989 366.815C365.611 388.996 368.169 412.161 369.94 434.982C370.284 439.457 374.022 444.031 377.022 447.867C380.071 451.802 384.35 454.753 387.793 458.393C390.793 461.54 388.678 469.754 384.35 471.328C379.628 473.049 374.759 474.967 369.792 475.36C364.874 475.754 359.71 474.721 354.791 473.737C348.25 472.41 343.283 468.721 340.135 462.671C334.184 451.113 331.43 438.916 331.528 425.883C331.676 406.8 331.479 387.717 331.381 368.634C331.381 359.339 328.578 351.027 321.84 344.486C320.217 342.912 317.315 341.682 315.151 341.879C313.233 342.027 310.233 344.092 309.938 345.764C308.511 353.24 307.872 360.814 306.888 368.388C306.2 373.405 305.61 378.422 304.528 383.389C303.003 390.422 295.527 394.799 286.625 394.308C281.265 394.012 275.855 389.734 275.953 385.406C276.15 375.274 276.838 365.142 276.986 355.011C277.035 349.945 277.084 344.682 275.707 339.961C274.773 336.764 271.772 333.026 268.772 331.748C264.198 329.879 258.887 329.436 253.821 329.288C219.492 328.354 185.114 327.567 150.785 326.927C140.309 326.731 133.965 332.387 132.883 342.519C132.243 348.863 132.391 355.257 131.407 361.552C129.686 372.52 135.981 380.832 140.063 389.783C139.129 390.865 138.194 392.783 137.506 392.684C127.522 391.16 117.587 389.389 109.472 387.963C99.3897 378.766 104.751 366.716 98.2587 357.076C95.4062 357.863 91.2258 357.814 89.111 359.88C85.5699 363.323 82.1762 367.749 80.7007 372.372C76.4219 385.651 73.2743 399.275 69.3397 412.653C67.9135 417.423 65.5529 421.899 63.6348 426.522L64.3723 427.26C64.569 419.637 65.1102 412.062 64.8643 404.439C64.4217 390.029 69.1922 376.799 75.1924 364.306C79.5204 355.355 85.7664 346.896 92.6519 339.666C101.357 330.518 100.373 321.862 94.8159 312.222L94.4716 312.861C117.39 309.763 139.965 312.714 162.589 316.156C196.623 321.321 231.001 322.206 264.985 318.025C285.15 315.517 305.315 314.091 325.528 312.517C333.102 311.927 340.725 311.583 348.299 310.796C356.267 309.96 361.284 304.156 362.12 295.254C364.628 268.794 366.89 242.285 369.644 215.824C372.546 188.036 378.645 160.838 386.366 133.985C387.399 130.443 389.809 127.247 391.58 123.902C394.137 119.082 399.35 117.164 404.367 119.771C406.58 120.902 408.547 122.525 410.662 123.853C414.449 126.263 418.089 125.476 420.892 122.427C423.449 119.673 425.958 116.672 427.482 113.279C433.335 100.54 425.909 90.4579 411.744 91.1464C403.924 91.5399 396.941 93.8025 390.399 98.1306C383.071 102.95 378.94 112 369.3 113.574L369.94 114.016C371.022 109.197 370.825 103.442 373.481 99.8026C377.858 93.7532 384.202 89.1794 389.416 83.7201C390.94 82.0971 392.858 78.5559 392.17 77.5231C390.203 74.5721 387.301 71.1292 384.153 70.2931C376.923 68.375 369.3 67.0962 361.775 66.8995C347.119 66.5552 337.873 72.9983 332.512 86.4743C321.741 113.721 312.79 141.313 315.102 171.314C315.298 174.068 313.282 176.97 311.462 182.183C306.495 145.641 306.446 126.853 312.151 100.639C315.397 85.8347 319.921 71.326 323.413 56.5713C325.626 47.2758 320.168 35.4228 311.708 30.4062C307.38 27.8487 302.855 24.8978 298.085 24.0125C254.706 16.0941 211.574 4.14261 166.818 14.0283C163.179 14.8152 159.244 14.2252 155.457 14.2252L156.097 14.8154L156.146 14.6677ZM333.988 335.043C341.168 354.568 340.086 375.913 339.447 397.308C339.201 406.111 339.398 414.964 339.644 423.768C339.988 436.801 344.955 448.261 352.382 458.737C353.07 459.72 354.3 460.409 355.431 460.95C356.513 461.442 358.234 462.229 358.824 461.786C360.497 460.557 363.349 458.245 363.005 457.212C351.841 422.489 349.972 388.061 364.825 353.83C365.808 351.568 366.153 348.961 366.644 346.502C367.972 340.01 362.365 330.518 355.48 328.747C348.004 326.829 340.48 326.288 333.988 335.043ZM120.686 351.519C121.473 344.83 122.554 338.633 122.702 332.387C122.702 330.764 119.604 327.469 118.718 327.715C116.603 328.305 113.899 330.223 113.259 332.19C108.931 345.617 108.784 359.29 112.472 372.913C112.62 373.503 114.587 373.946 115.62 373.897C116.702 373.848 117.931 373.257 118.718 372.47C125.358 365.88 120.636 358.207 120.686 351.469V351.519ZM289.38 379.454C293.855 361.601 296.265 352.011 298.626 342.371C298.921 341.19 298.97 339.666 298.429 338.682C297.298 336.715 295.822 333.666 294.298 333.518C292.478 333.37 289.33 335.485 288.74 337.305C285.248 348.273 285.838 359.486 289.38 379.405V379.454Z" fill="black"/>
<path d="M41.5513 427.161C40.6169 416.981 41.3549 406.997 44.896 397.259C49.5191 384.569 48.7811 372.471 40.6661 361.257C39.9284 360.224 39.3383 359.093 38.6498 358.06C29.797 344.535 25.8623 331.009 35.7479 315.812C38.9939 310.845 40.4203 303.861 40.4695 297.811C40.8629 246.022 45.4369 194.233 41.1089 142.444C40.7154 137.525 39.24 132.706 38.1088 127.099C30.2397 125.574 23.0098 124.197 15.7308 122.722C3.87799 120.312 -3.30234 108.951 1.51749 96.5566C8.10787 79.6378 17.8949 65.1781 37.6661 61.1944C63.6341 56.0302 89.5037 50.2265 115.619 45.6525C124.521 44.0787 132.686 41.5213 140.751 37.7834L140.063 37.144C142.276 52.1447 147.096 66.8503 143.85 82.3428C138.342 108.655 141.587 135.46 139.62 162.019C139.522 163.248 139.768 164.527 139.866 165.805C140.26 174.019 145.817 181.052 153.834 180.954C190.671 180.511 226.721 190.348 263.657 189.02C277.625 188.528 291.543 190.544 304.773 195.561C313.38 198.856 320.069 204.315 323.216 213.463C325.282 219.414 327.594 225.365 330.397 230.972C331.331 232.89 334.184 233.825 336.692 235.546C337.626 231.71 338.708 228.12 339.397 224.48C344.758 194.577 349.873 164.576 355.381 134.673C357.053 125.722 360.742 117.705 369.988 113.869L369.349 113.426C369.3 117.213 369.89 121.197 369.054 124.787C358.086 171.757 348.348 218.923 345.496 267.269C345.299 271.007 344.069 274.745 342.889 278.335C341.217 283.352 338.02 287.877 332.856 288.909C322.97 290.877 312.593 293.926 302.904 292.746C266.165 288.172 229.279 289.992 192.491 289.057C163.227 288.319 134.505 282.565 105.39 280.991C104.16 280.942 102.931 280.45 101.652 280.155C94.4712 278.433 88.0776 271.499 87.5366 263.925C86.8972 255.072 86.6021 246.17 86.6021 237.317C86.5529 209.381 86.799 181.396 86.7006 153.461C86.7006 143.329 86.7497 133.05 85.3726 123.017C83.4545 109.049 79.0774 95.7695 68.8475 85.2936C58.8144 75.0637 46.4205 73.1457 33.6824 77.4245C22.4197 81.2116 14.403 89.4251 11.8456 101.77C10.9603 106.049 15.3868 112.246 19.9607 112.836C25.6658 113.623 30.5839 110.869 31.5676 105.901C32.0594 103.442 31.3215 100.737 32.01 98.3763C32.6002 96.2615 34.6168 92.6711 35.5021 92.8187C38.9448 93.4089 42.5843 94.6876 45.3384 96.7532C47.0106 98.032 47.7484 101.278 47.7975 103.688C48.732 127.788 51.1418 151.739 54.1419 175.691C56.0108 190.544 54.4864 206.283 51.6339 221.087C47.5518 242.678 48.2894 264.072 49.6665 285.614C50.3058 295.992 55.3716 301.254 65.9949 303.713C75.7329 305.976 86.5529 304.697 94.5203 312.615L94.8646 311.976C81.0445 312.96 66.9786 311.484 53.7487 317.829C41.9942 323.435 37.1744 334.403 42.732 345.863C46.5681 353.781 52.5683 361.306 54.093 369.618C57.88 390.127 54.9288 409.898 40.9119 426.719L41.6006 427.112L41.5513 427.161ZM109.57 228.562C109.472 215.431 115.423 204.119 120.931 192.758C127.669 178.937 131.849 164.379 132.292 149.034C133.03 123.804 133.079 98.524 133.276 73.2441C133.276 70.785 132.489 68.2767 132.095 65.8175C131.407 61.637 125.357 55.8825 121.57 56.4727C107.898 58.44 94.2254 60.6532 80.5528 62.9156C77.6019 63.4075 74.0607 69.6045 75.5362 71.9161C94.7663 102.36 95.7992 136.148 94.668 170.576C94.0778 188.233 94.7662 205.938 95.0613 223.595C95.1105 228.07 98.455 229.448 106.619 228.612C107.849 228.464 109.078 228.071 110.308 227.825C107.111 238.694 103.422 249.465 101.012 260.482C100.471 263.039 103.57 268.105 106.226 269.286C111.832 271.843 118.226 273.171 124.374 273.958C135.686 275.335 147.342 274.745 158.358 277.105C175.916 280.892 193.524 281.532 211.327 281.483C235.426 281.434 259.526 281.188 283.625 281.434C337.971 281.975 331.134 282.073 317.314 234.071C315.937 229.251 314.019 224.431 311.757 219.955C308.216 212.971 302.953 207.119 295.281 205.053C285.543 202.397 275.559 199.692 265.624 199.2C238.967 197.873 212.508 195.561 186.146 191.675C173.703 189.856 160.867 190.298 148.178 190.102C140.014 190.003 133.768 194.085 129.095 200.725C122.603 210.021 116.062 219.267 109.57 228.562Z" fill="black"/>
<path d="M63.6834 426.326C63.6342 428.834 63.6835 431.391 63.4868 433.9C62.9458 442.605 64.8147 452.736 55.8144 457.95C42.8304 465.524 29.4039 464.737 16.6166 456.524C12.0427 453.573 12.8293 447.671 18.5344 444.67C20.6985 443.539 23.4034 443.343 25.8625 442.703L25.3216 441.966C28.0266 444.277 30.3872 447.523 33.5349 448.654C44.7483 452.638 51.3388 449.785 57.2406 439.408C59.6013 435.277 62.0113 431.145 64.372 426.965L63.6345 426.227L63.6834 426.326Z" fill="black"/>
<path d="M140.8 37.7836C140.8 35.4229 140.751 33.0129 140.849 30.6521C141.39 20.9632 145.964 15.1596 156.145 14.6678L155.505 14.0776C152.505 23.1764 147.735 31.0948 140.111 37.1442L140.8 37.7836Z" fill="black"/>
<path d="M25.8632 442.752C31.0765 437.539 36.339 432.375 41.5522 427.161L40.8639 426.768C40.2737 436.555 33.5848 440.096 25.3223 442.015L25.8632 442.752Z" fill="black"/>
</svg>
