<svg width="472" height="479" viewBox="0 0 472 479" fill="none" xmlns="http://www.w3.org/2000/svg">
<path d="M93.8936 327.348C102.255 338.217 112.779 338.415 122.862 338.218C171.404 337.382 218.914 346.333 266.768 352.628C279.359 354.3 292.097 355.038 304.786 355.235C331.885 355.628 353.869 366.743 372.312 385.925C380.231 394.187 388.395 402.253 395.575 411.155C416.035 436.632 405.608 467.568 373.542 475.634C363.853 478.093 353.377 478.536 343.295 478.339C319.147 477.847 294.998 476.568 270.899 475.339C248.079 474.158 225.258 472.437 202.389 471.404C175.536 470.174 149.518 465.846 124.288 455.862C91.4345 442.927 68.2206 420.844 57.8925 387.105C52.4824 369.35 44.5642 355.383 28.7768 344.366C7.18599 329.316 2.07108 304.774 0.34971 280.231C-4.27339 214.622 37.3344 156.587 101.812 142.029C130.091 135.635 159.65 134.651 188.766 132.487C207.75 131.11 226.931 132.536 245.964 131.897C270.653 131.012 289.884 120.29 301.687 97.9608C309.999 82.2224 317.819 66.2385 326.032 50.4509C331.295 40.3193 336.262 29.8927 342.557 20.4005C353.476 4.02268 369.312 -4.04381 388.592 2.00564C410.33 8.79283 431.921 16.7608 452.528 26.4006C468.119 33.7288 474.955 48.8767 469.496 64.8118C455.922 104.404 443.823 144.881 420.314 180.244C402.264 207.343 376.198 222.688 343.738 223.819C313.343 224.901 282.801 223.622 252.358 222.393C201.602 220.425 156.502 232.918 121.534 271.87C107.074 287.953 95.1232 305.708 94.0904 327.25L93.8936 327.348ZM379.985 194.654C374.968 197.26 369.952 199.867 364.935 202.424C361.738 203.26 358.541 204.146 362.919 202.966C359.082 205.425 361.787 203.703 364.492 201.982C369.509 199.375 374.526 196.769 379.542 194.211C385.198 191.998 390.805 189.785 396.461 187.572C399.953 183.834 403.494 180.145 406.986 176.407C405.51 175.424 404.035 174.44 402.559 173.456C400.69 178.325 398.772 183.194 396.854 188.014C391.198 190.227 385.542 192.441 379.936 194.654H379.985ZM97.5331 424.189C100.238 426.746 102.795 429.5 105.796 431.713C106.681 432.353 108.796 431.271 115.091 429.992C106.14 427.385 101.566 426.058 96.9921 424.73C96.4511 422.271 96.5002 419.369 95.2215 417.402C76.0897 388.777 69.7945 357.202 72.7946 323.315C72.9421 321.889 70.9257 320.315 69.7945 318.496C55.5318 359.514 63.6467 390.204 97.5331 424.14V424.189ZM381.362 455.616C369.066 453.207 356.82 449.075 344.475 448.829C324.262 448.436 303.95 449.715 283.834 451.879C261.014 454.387 238.538 455.125 215.816 450.551C203.471 448.042 190.684 447.797 178.093 446.419C166.339 445.141 154.633 443.763 142.879 442.435C149.076 449.37 155.961 452.026 163.093 453.255C224.521 464.075 286.834 460.928 348.754 464.027C360.214 464.617 371.624 463.338 380.821 455.026C399.215 434.96 398.723 429.501 376.198 419.271C378.017 431.91 379.739 443.714 381.411 455.518L381.362 455.616ZM353.771 427.386C351.263 409.188 349.689 403.139 339.115 399.007C320.376 391.679 301.048 384.006 281.326 381.301C247.439 376.678 213.012 375.498 178.782 373.383C155.961 372.006 133.092 371.121 110.222 371.022C104.812 371.022 99.3529 374.908 93.3035 377.219C100.287 406.139 118.14 420.893 143.469 426.353C158.224 429.549 173.716 430.386 188.913 430.435C225.75 430.632 262.489 429.107 299.179 436.041C317.573 439.533 337.246 439.534 353.771 427.287V427.386ZM302.523 206.949C278.768 182.014 251.964 170.8 239.57 148.373C189.405 140.159 143.42 144.537 91.4345 158.75C119.862 169.275 137.075 185.26 152.666 203.162C161.765 213.638 172.437 218.655 186.306 214.818C213.602 207.244 241.488 208.179 269.375 208.966C277.686 209.212 285.998 207.982 302.523 206.9V206.949ZM87.5984 188.407C28.9244 214.327 -0.0437657 289.232 46.4331 332.119C56.7613 310.724 64.3845 287.117 78.3521 268.329C92.0739 249.886 112.288 236.312 130.239 220.081C118.337 203.556 103.435 194.801 87.5984 188.407ZM278.473 162.981C296.277 183.391 313.147 198.441 341.328 192.195C371.525 185.506 394.788 171.637 406.445 140.258C385.985 121.471 363.066 113.453 340.197 109.076C319.343 127.323 300.458 143.799 278.473 162.981ZM440.233 102.928C425.921 88.9112 409.002 83.0095 392.87 76.665C375.804 69.927 360.705 57.1887 339.508 56.3526C333.655 68.2056 328.147 79.2719 322.344 91.0757C346.344 91.42 346.246 91.6655 369.312 101.748C387.756 109.814 406.445 117.29 425.134 124.667C427.003 125.405 429.806 123.683 433.741 122.749C435.708 116.7 437.921 109.912 440.183 102.977L440.233 102.928ZM442.052 79.2718C438.315 66.6811 438.413 59.5989 434.97 56.5987C418.593 42.2866 398.477 35.2531 377.329 31.6136C373.788 31.0234 369.361 35.5974 365.378 37.7614C367.591 41.7944 368.821 47.5489 372.263 49.6146C391.543 61.0741 412.199 69.4353 442.101 79.2718H442.052ZM106.484 355.284C115.091 355.284 123.698 354.891 132.255 355.383C141.502 355.924 150.699 357.35 159.896 358.432C142.731 346.776 124.288 350.612 106.484 355.284ZM66.7944 179.161C66.3025 177.784 65.9091 176.801 65.5648 175.866C63.7451 176.801 61.6795 177.44 60.2532 178.768C59.8598 179.112 61.6303 181.67 62.368 183.194C63.8927 181.817 65.4173 180.44 66.7944 179.161ZM36.5967 202.769C35.3672 204.589 34.1377 206.359 32.9081 208.179C33.9409 208.572 35.5638 209.556 35.8589 209.261C37.3344 207.638 38.4657 205.72 39.6952 203.9C38.6624 203.507 37.6296 203.162 36.5967 202.769Z" fill="black"/>
</svg>
