<svg width="423" height="677" viewBox="0 0 423 677" fill="none" xmlns="http://www.w3.org/2000/svg">
<path d="M267.03 449.667C267.03 470.029 267.128 490.39 266.981 510.703C266.932 517.195 264.669 523.097 260.489 528.261C257.833 531.556 249.866 533.032 246.521 530.671C232.357 520.834 221.783 508.637 222.324 490.145C222.619 480.013 223.16 469.783 224.93 459.848C229.898 432.06 228.275 404.124 227.242 376.238C227.193 374.713 223.996 372.303 222.078 372.107C220.16 371.91 217.848 373.779 216.028 375.156C215.192 375.795 214.996 377.418 214.651 378.648C210.569 394.681 207.471 410.862 207.667 427.584C208.159 467.176 200.979 505.883 194.782 544.737C192.618 558.459 192.028 572.574 192.224 586.493C192.569 613.494 186.765 639.463 180.814 665.48C179.634 670.595 175.945 674.825 170.929 676.35C162.666 678.858 145.649 671.382 146.043 658.841C146.534 641.086 147.469 623.331 148.551 605.625C148.944 599.33 151.01 593.084 151.256 586.788C152.731 546.065 159.223 505.981 166.207 465.947C167.092 460.979 167.535 455.815 167.535 450.749C167.584 425.273 168.765 399.944 174.617 375.008C176.191 368.418 171.666 361.778 165.322 360.696C136.452 355.827 108.222 348.499 80.5815 338.761C76.1059 337.187 70.0073 340.433 68.2368 345.056C66.4662 349.778 63.958 354.499 63.3678 359.417C59.6792 389.714 53.1872 419.518 48.9576 449.667C45.8099 472.291 43.0557 494.964 38.4326 517.343C36.3669 527.277 33.5143 537.015 30.6617 546.754C29.1371 551.967 25.1536 555.262 19.7927 556.197C14.4811 557.131 5.87409 552.36 3.956 547.59C2.52972 544.098 0.906754 540.458 0.611662 536.77C-0.47034 521.523 -0.372024 506.424 3.02153 491.276C9.12008 464.029 14.6776 436.634 19.5466 409.141C25.1041 377.861 30.4159 346.63 37.203 315.596C41.6786 295.382 39.5637 274.922 28.5469 256.528C16.2515 236.068 13.0055 213.886 13.8416 190.525C14.5793 170.212 14.6777 149.851 15.0219 129.489C15.5629 93.3892 30.7603 63.1911 52.9905 35.9932C56.9251 31.1733 62.1382 27.1404 67.3023 23.55C84.3193 11.7462 103.5 5.1066 123.665 1.27036C135.026 -0.893668 146.485 -0.254286 157.699 2.89339C192.47 12.6315 224.389 27.2387 250.406 53.3546C268.358 71.4046 286.604 88.9628 301.408 109.915C312.376 125.456 326.048 139.227 336.032 155.31C356.148 187.623 376.952 219.739 390.526 255.642C391.854 259.183 392.739 263.364 395.198 266.02C408.625 280.332 408.92 301.53 421.609 316.235C422.691 317.514 422.248 321.744 420.92 323.219C413.248 331.629 404.739 339.302 397.362 347.958C394.313 351.548 391.952 356.909 391.706 361.581C391.214 371.664 390.772 382.238 393.083 391.927C398.444 414.502 397.805 437.372 398.592 460.192C399.329 481.734 396.772 503.473 402.477 524.72C403.412 528.261 402.821 532.294 402.477 536.081C401.198 548.721 399.723 561.312 398.198 573.902C396.624 586.641 388.46 594.018 377.493 599.035C375.034 600.166 368.787 597.117 368.148 594.51C367.558 592.051 366.377 589.641 366.279 587.182C365.049 540.163 356.738 493.587 358.066 446.421C358.262 438.847 357.131 431.224 356.246 423.65C354.18 405.993 351.967 388.386 349.754 370.729C349.361 367.434 345.033 364.139 341.639 364.385C321.376 365.762 301.064 367.041 280.801 368.565C274.456 369.008 268.604 374.713 268.407 381.009C267.669 403.878 267.227 426.748 266.637 449.667C266.735 449.667 266.833 449.667 266.981 449.667H267.03ZM128.73 40.5671C122.632 42.9279 114.271 45.7805 106.205 49.3709C95.4342 54.1416 87.4668 61.8632 82.0077 72.6342C63.8103 108.39 54.2199 146.113 55.597 186.344C56.2364 205.82 62.0399 223.772 71.6303 240.642C73.8435 244.576 80.1387 247.232 84.7618 246.199C89.7292 245.068 94.8442 244.38 99.5656 242.511C114.074 236.855 129.222 235.379 144.518 235.379C177.568 235.428 210.618 235.871 243.669 236.264C248.734 236.314 254.046 236.412 258.767 237.937C280.703 244.97 304.113 243.494 326.196 249.79C329.491 250.724 333.77 249.495 337.114 248.167C338.885 247.478 340.852 244.281 340.754 242.363C340.163 233.068 334.606 225.936 329.344 218.805C315.032 199.378 300.08 180.393 286.358 160.573C262.259 125.751 232.455 96.3402 201.077 68.4537C181.404 50.9939 157.01 43.8624 128.73 40.4688V40.5671ZM244.013 341.515V342.4C252.915 341.564 261.866 341.318 270.571 339.843C293.097 336.056 315.327 330.301 337.999 327.99C357.23 326.023 370.558 315.153 384.624 304.382C387.821 301.923 387.477 293.316 384.624 290.316C377.345 282.742 368.394 278.315 358.508 275.315C329.147 266.315 298.507 264.987 268.407 260.561C252.177 258.151 235.504 258.643 219.176 255.298C211.848 253.773 203.733 253.429 196.503 255.003C180.126 258.544 163.65 258.249 147.174 258.79C134.485 259.233 121.747 259.872 109.107 261.298C104.238 261.839 99.6148 264.544 94.9425 266.462C91.4998 267.889 89.2376 273.004 90.5163 275.856C98.8281 294.988 113.976 308.759 127.993 323.416C129.567 325.088 132.468 325.727 134.927 326.318C167.092 334.089 200.143 336.203 232.701 341.466C236.439 342.056 240.324 341.564 244.111 341.564L244.013 341.515ZM161.732 619.986C161.732 635.282 161.633 642.905 161.781 650.529C161.879 653.873 163.453 655.398 165.568 654.562C166.6 654.119 167.683 653.086 168.076 652.053C171.912 642.61 175.06 632.971 175.158 622.593C175.404 601.002 176.831 579.509 182.093 558.41C183.618 552.36 182.929 545.77 183.568 539.425C184.847 526.835 186.47 514.244 187.798 501.653C188.732 492.85 189.913 483.997 190.356 475.144C191.241 457.389 191.929 439.782 195.47 422.174C198.175 408.649 197.143 394.386 197.438 380.467C197.487 378.107 196.11 375.697 195.077 373.434C194.634 372.549 193.405 371.811 192.372 371.467C189.323 370.385 186.814 371.418 186.47 374.418C185.486 384.451 184.798 394.534 184.159 404.567C183.224 419.764 183.765 435.208 181.207 450.11C178.798 463.93 176.88 477.603 176.437 491.62C176.191 499.194 174.568 506.719 173.584 514.244C171.912 526.786 170.092 539.327 168.617 551.918C167.437 562 166.847 572.132 165.814 582.214C164.24 597.313 162.519 612.412 161.732 619.937V619.986ZM108.468 22.6156C91.008 24.7304 75.7124 33.0914 63.8595 47.1084C47.2852 66.6831 34.8915 88.4709 31.0553 114.439C29.7765 123.194 27.5141 131.801 26.3829 140.555C25.2517 149.31 23.5304 158.31 24.5632 166.917C27.3666 189.443 31.4486 211.821 35.2356 234.199C35.6291 236.56 37.3505 238.773 38.7276 240.888C39.367 241.871 40.5475 242.757 41.6295 243.15C42.023 243.298 43.5474 241.724 43.5474 240.937C43.5966 235.92 44.3836 230.658 43.0557 225.985C36.662 203.46 37.2523 180.983 42.2197 158.408C43.3017 153.49 44.6788 148.375 44.3837 143.457C43.0558 118.325 53.6298 96.3402 63.3678 74.5031C72.2206 54.5842 84.5161 36.7801 107.681 30.6323C108.91 30.2881 110.041 29.747 111.172 29.1568C114.32 27.6322 115.009 25.8125 112.943 24.1894C112.058 23.5009 110.681 23.3533 108.418 22.5664L108.468 22.6156ZM342.327 195.197C336.229 183.688 331.016 170.606 322.458 159.589C293.637 122.456 262.899 86.9955 228.176 55.1252C217.75 45.5838 206.585 37.3703 193.306 32.4521C190.995 31.616 188.339 31.4192 185.831 31.4684C184.798 31.4684 183.322 32.6488 182.929 33.6325C182.634 34.3702 183.421 36.0424 184.257 36.7309C202.897 52.0267 222.422 66.3388 240.029 82.6674C267.079 107.751 291.031 135.735 309.917 167.704C317.097 179.803 325.311 190.918 336.622 199.476C337.36 200.017 339.032 200.115 339.77 199.623C340.655 199.033 341.049 197.656 342.377 195.295L342.327 195.197ZM388.952 538.245C388.657 516.015 388.952 498.407 384.575 480.947C382.46 472.488 382.804 463.389 382.509 454.586C381.722 430.585 381.378 406.534 380.443 382.533C380.247 377.664 378.378 372.844 377.001 368.123C376.755 367.188 375.329 366.45 374.345 365.86C371.345 364.139 369.181 365.073 368.787 368.516C366.132 392.468 366.082 416.764 369.968 440.224C374.345 466.635 374.788 492.997 375.574 519.507C375.87 529.589 376.607 539.671 377.542 549.754C377.739 552.065 379.411 554.377 380.788 556.393C381.329 557.18 382.952 557.525 384.083 557.525C384.968 557.525 386.591 556.738 386.69 556.147C387.821 548.721 388.706 541.294 389.05 538.343L388.952 538.245ZM250.456 448.143C250.849 448.143 251.243 448.143 251.636 448.143C251.636 443.126 251.636 438.06 251.636 433.044C251.784 420.453 252.03 407.813 252.03 395.222C252.03 391.484 251.833 387.599 250.849 384.009C250.308 382.091 248.292 380.025 246.373 379.09C243.57 377.713 241.111 379.189 240.619 382.287C237.57 400.436 237.226 490.095 240.128 506.522C240.324 507.654 241.308 508.736 242.144 509.621C242.931 510.457 244.013 511.096 245.046 511.588C247.948 512.916 250.308 511.834 250.358 508.49C250.554 488.374 250.456 468.258 250.456 448.143ZM45.1705 389.665C45.1705 380.517 45.4657 376.631 45.0231 372.893C44.8263 371.221 43.0556 369.746 42.0227 368.172C41.3834 369.205 40.3505 370.188 40.1538 371.369C36.2193 393.845 33.3668 416.518 28.3011 438.7C21.1697 469.635 16.2515 500.817 13.7924 532.392C13.5465 535.54 15.3663 537.015 17.9238 536.179C18.9566 535.835 20.3335 534.852 20.5303 533.917C23.6779 519.064 27.0225 504.26 29.6291 489.358C34.3506 461.914 38.6292 434.421 42.9572 406.928C44.1376 399.403 44.9246 391.878 45.2197 389.665H45.1705Z" fill="black"/>
</svg>
