<svg width="467" height="596" viewBox="0 0 467 596" fill="none" xmlns="http://www.w3.org/2000/svg">
<path d="M10.1299 155.495C19.1302 145.265 31.7208 142.166 44.1146 139.658C76.0828 133.117 99.4935 115.165 116.56 88.0164C129.445 67.5565 142.872 47.4407 154.823 26.4398C166.233 6.37332 181.972 -2.18459 205.136 0.471269C230.367 3.37304 255.744 4.94697 281.073 6.71755C300.106 8.04547 319.14 9.32405 338.222 9.61915C354.895 9.86506 362.764 18.2752 368.027 33.5218C376.289 57.4737 386.076 80.9341 396.601 104.001C409.143 131.494 428.373 152.937 457.341 164.348C460.685 165.676 463.39 168.577 466.292 170.692C469.587 183.037 460.095 189.726 455.275 198.136C447.013 212.547 438.209 226.219 444.209 244.466C445.98 249.777 444.209 257.597 441.308 262.811C432.258 279.287 432.898 297.042 432.061 314.797C430.684 343.962 428.176 373.078 426.848 402.244C426.111 418.72 426.258 435.343 426.947 451.819C428.471 488.657 430.635 525.495 432.455 562.332C432.652 566.119 433.439 570.251 432.307 573.743C430.045 580.628 428.373 589.137 423.405 593.318C416.126 599.465 410.028 591.694 404.028 587.071C391.634 577.481 383.076 565.283 376.338 551.217C350.075 496.083 323.517 441.147 297.057 386.112C293.221 378.095 289.188 370.127 285.549 361.963C280.237 350.11 270.794 345.29 258.302 344.65C236.76 343.618 215.268 342.24 192.841 340.962C178.086 351.684 169.922 367.717 160.135 382.324C125.461 434.114 91.0834 486.099 56.3118 537.839C52.1313 544.086 47.1147 550.332 41.0653 554.512C36.5406 557.611 29.7535 557.365 23.4091 558.693C11.9497 530.364 32.2126 504.198 22.5237 476.705C16.917 474.246 10.2283 471.344 1.42474 467.508C1.03128 459.639 -0.837613 450.786 0.441117 442.425C8.26104 392.161 14.9497 341.601 25.8189 291.976C31.4748 266.204 23.5566 241.564 26.8026 216.432C27.4912 211.169 21.9828 205.022 19.2286 199.366C14.8022 190.218 9.04793 181.463 6.34293 171.872C4.96584 166.954 8.94953 160.56 10.5233 154.806C26.3107 175.905 41.6063 197.447 61.4267 216.973C69.1974 200.3 56.656 191.693 52.2788 180.775C44.6064 161.741 29.9011 154.167 10.0316 155.347L10.1299 155.495ZM231.989 291.73C234.055 290.451 236.613 289.517 238.088 287.697C238.826 286.812 237.547 284.303 237.203 282.533C236.318 283.369 235.039 284.008 234.645 285.041C233.711 287.353 233.219 289.812 232.53 292.222C231.694 292.96 230.612 293.501 230.022 294.435C229.629 295.025 229.825 296.058 229.776 296.894C230.514 295.173 231.301 293.501 232.039 291.779L231.989 291.73ZM86.5095 139.068C78.9846 142.707 71.4597 146.297 64.4759 149.691C65.853 160.068 71.9024 162.823 77.0173 157.905C81.7879 153.281 83.1159 145.166 86.0176 138.576C96.7884 139.166 108.346 141.33 113.314 122.149C102.297 129.133 94.3786 134.1 86.5095 139.068ZM117.592 307.813C127.134 314.157 136.577 320.846 154.184 314.6C146.167 309.829 142.528 305.895 138.741 305.747C131.609 305.452 124.379 307.37 117.15 308.304C111.1 294.189 101.51 283.812 79.5256 273.336C93.0998 292.812 100.674 305.354 117.543 307.813H117.592ZM431.57 169.561C433.783 177.381 427.586 187.464 437.816 193.218C449.62 182.25 449.964 180.971 441.308 174.528C438.357 172.364 434.471 171.528 430.979 170.052C425.569 165.183 420.553 159.774 414.602 155.692C412.389 154.167 408.061 155.74 404.667 155.937C404.962 160.364 403.684 165.921 405.848 168.971C413.618 179.84 422.815 175.02 431.52 169.561H431.57ZM163.873 40.8992C145.282 64.8674 136.052 84.295 136.183 99.1809C157.577 84.1311 163.528 63.6707 163.332 40.309C167.61 37.899 172.774 36.2273 175.971 32.7845C179.217 29.2926 185.562 24.3248 175.332 17.6852C171.299 25.8986 167.61 33.3742 163.922 40.8992H163.873ZM123.297 242.794C122.511 234.482 123.101 225.727 120.642 217.956C118.232 210.48 108.887 208.464 102.002 212.055C95.1163 215.645 93.6408 223.662 98.1164 231.039C103.821 240.433 111.887 244.761 122.855 243.482C119.117 256.024 123.986 265.221 134.757 271.27C137.364 272.746 142.921 272.943 144.692 271.221C147.839 268.172 151.38 262.909 150.839 259.122C149.167 247.81 140.905 243.531 123.347 242.794H123.297ZM347.124 139.51C348.698 147.871 349.288 156.675 352.19 164.544C356.026 175.02 366.797 179.987 371.764 174.922C377.961 168.626 376.83 161.593 372.699 154.757C366.797 144.969 360.453 135.674 346.534 140.101C347.813 119.788 345.698 100.755 326.566 86.8361C316.238 97.4103 311.369 108.083 318.304 121.215C324.304 132.576 331.386 143.15 347.173 139.51H347.124ZM194.169 162.479C195.742 154.019 198.349 145.609 198.398 137.15C198.398 133.264 194.267 127.362 190.578 125.936C187.283 124.657 181.135 127.067 177.988 129.871C173.463 133.855 169.725 139.215 167.02 144.675C161.856 155.003 164.217 163.856 176.07 171.036C181.775 168.184 188.316 164.987 194.808 161.741C193.087 171.332 190.382 180.922 190.185 190.562C190.086 194.251 195.103 199.906 198.988 201.283C202.677 202.611 209.071 200.841 212.317 198.136C216.891 194.3 220.333 188.644 223.088 183.184C228.842 171.774 218.563 158.494 204.841 159.478C201.251 159.724 197.71 161.446 194.169 162.479ZM137.413 167.741C135.396 172.266 133.036 176.692 131.462 181.414C124.773 201.333 128.363 206.546 153.003 213.53C148.97 222.727 150.2 233.449 158.413 236.843C172.676 242.745 178.381 256.909 190.775 267.975C197.661 258.139 203.071 250.417 209.12 241.761C200.12 230.547 192.693 220.612 184.529 211.317C178.135 203.988 169.922 202.022 160.725 206.104C162.692 175.66 161.954 174.43 138.15 167.397C138.495 163.708 139.134 160.02 139.183 156.331C139.232 148.462 137.216 141.133 128.363 139.461C121.232 138.133 113.363 146.101 110.756 155.642C107.707 166.856 114.74 174.036 127.085 171.823C130.626 171.184 133.97 169.118 137.413 167.741ZM339.452 284.796C357.944 274.861 369.207 258.139 380.175 241.22C382.142 238.171 384.65 233.744 383.765 230.891C382.093 225.383 379.437 218.694 375.01 215.792C368.518 211.514 363.354 217.071 360.403 222.973C358.78 226.17 357.157 230.4 357.944 233.597C360.403 243.236 356.764 246.875 347.616 249.236C339.452 251.302 336.304 259.073 336.55 267.09C336.747 273.286 338.763 279.434 339.944 285.582C337.681 284.5 335.419 282.582 333.108 282.484C317.025 281.795 298.877 298.763 298.877 314.6C298.877 316.321 301.631 318.83 303.598 319.567C305.713 320.404 309.598 320.6 310.73 319.321C320.566 308.009 329.96 296.354 339.452 284.796ZM239.859 94.115C244.433 100.902 249.006 107.738 253.826 114.821C279.253 92.295 279.302 92.0986 266.663 70.901C257.417 78.9669 248.367 86.9344 239.367 94.8528C244.236 83.2949 248.957 71.6877 253.974 60.2281C259.384 47.8833 265.925 35.8337 265.089 19.1116C257.515 19.4559 250.039 17.4886 246.203 20.3412C232.58 30.5712 226.038 45.9654 223.383 62.294C221.169 76.1635 229.432 86.049 239.908 94.0657L239.859 94.115ZM69.1482 291.534C56.8527 355.668 56.3609 367.176 64.771 392.456C88.2799 375.931 111.936 360.832 127.035 335.749C107.608 320.945 89.9521 307.469 69.099 291.534H69.1482ZM406.093 532.773V469.279C385.24 458.066 373.584 440.064 362.42 421.473C354.6 408.44 346.436 395.555 337.878 382.964C334.731 378.39 330.009 374.947 322.583 367.619C334.042 409.08 381.847 504.739 406.093 532.724V532.773ZM381.896 306.928C363.305 313.764 348.551 320.797 337.731 336.191C349.092 354.88 357.354 374.111 378.256 388.768C386.027 360.291 385.683 335.257 381.896 306.879V306.928ZM58.6232 479.853C73.6729 455.262 88.821 430.769 103.477 405.981C104.658 404.014 102.444 399.981 101.215 394.325C69.3941 415.178 46.0327 437.556 58.6232 479.853ZM341.173 305.403C375.748 294.484 378.798 291.533 416.274 237.187C420.946 230.4 429.012 223.809 420.405 211.514C407.815 227.301 396.011 242.744 383.47 257.598C369.748 273.828 355.288 289.468 341.173 305.403ZM358.338 97.312C362.42 89.2952 367.191 84.3273 366.256 80.8846C361.731 63.9658 356.075 47.342 349.682 31.0134C348.846 28.8494 341.37 29.2432 335.862 28.2595C335.419 53.5885 335.616 75.9176 358.338 97.312ZM310.336 180.873C328.779 165.872 330.157 157.363 316.484 143.101C310.533 136.904 302.369 137.199 297.352 143.74C286.68 157.708 289.188 164.84 310.336 180.873ZM174.053 87.8687C171.25 87.4261 168.496 86.9834 165.692 86.5899C159.004 96.8199 151.626 106.657 146.069 117.477C144.495 120.526 146.905 127.903 149.905 130.412C152.266 132.379 160.036 131.494 162.397 128.985C168.299 122.837 174.299 115.657 176.857 107.788C178.725 102.083 175.184 94.6067 174.053 87.8687ZM340.878 174.135C328.779 183.627 323.615 191.103 326.665 200.497C328.484 206.005 332.96 211.563 337.78 214.711C340.583 216.58 348.403 215.35 350.518 212.694C354.108 208.218 357.846 200.595 356.321 196.07C353.813 188.644 347.124 182.594 340.878 174.135ZM310.681 268.172C303.795 261.729 299.467 254.991 293.713 253.368C290.368 252.434 282.794 258.68 280.434 263.352C276.302 271.566 277.827 280.467 285.499 286.812C287.073 288.14 291.205 288.927 292.237 287.943C298.139 282.337 303.451 276.09 310.681 268.221V268.172ZM256.039 297.829C242.908 307.468 233.563 314.354 222.891 322.174C246.105 329.502 248.81 330.683 256.531 326.994C259.876 325.42 262.777 319.469 262.876 315.436C263.023 311.059 259.63 306.583 256.039 297.829ZM308.517 30.4233C302.074 19.849 294.057 19.4068 286.729 27.1284C276.548 37.8994 277.63 47.0474 289.827 57.9659C296.123 48.6704 302.32 39.522 308.467 30.374L308.517 30.4233ZM314.517 218.94C312.353 221.055 307.631 223.711 306.057 227.646C302.516 236.351 310.582 248.991 320.615 249.778C324.156 250.073 330.009 245.4 331.534 241.663C335.567 231.728 328.386 221.547 314.517 218.94ZM291.254 112.411C288.795 111.427 284.762 108.378 282.844 109.361C272.171 114.821 266.073 127.215 269.319 137.1C270.105 139.51 275.712 142.707 277.827 141.969C286.827 138.773 292.631 125.592 291.204 112.46L291.254 112.411ZM316.632 47.9817C294.352 74.5895 293.762 76.8026 304.729 92.7377C312.992 78.8191 323.124 66.917 316.632 47.9817ZM389.765 178.61C378.748 194.152 378.748 200.3 390.601 208.169C393.06 209.792 398.028 209.891 400.536 208.415C403.241 206.841 405.897 202.66 405.946 199.562C406.143 188.594 400.585 181.315 389.765 178.561V178.61ZM284.565 184.758C281.811 186.283 278.762 186.873 277.778 188.644C271.138 200.3 271.925 206.939 282.204 213.825C285.254 215.842 292.336 215.694 295.139 213.432C302.074 207.874 301.188 201.038 293.172 190.71C291.057 188.004 287.27 186.578 284.565 184.758ZM99.3951 192.726C100.28 181.856 93.5916 173.249 86.657 173.741C79.4273 174.233 75.3943 178.856 74.755 186.086C73.9681 195.037 80.3617 203.644 86.9521 201.48C92.2145 199.759 96.4442 194.89 99.3951 192.726ZM194.808 43.4567C184.644 56.3426 183.824 68.2283 192.349 79.1141C204.89 69.671 202.923 59.0968 194.808 43.4567ZM373.584 98.0984C366.797 121.362 371.027 132.92 388.683 141.527C395.913 124.018 385.83 114.722 373.584 98.0984ZM210.989 86.2951C205.874 93.7217 201.989 97.0655 201.103 101.099C199.333 109.115 205.579 118.46 211.825 117.231C215.415 116.542 221.071 110.738 220.628 108.033C219.694 101.787 215.563 96.0333 210.94 86.2951H210.989ZM181.037 290.451C175.086 284.008 171.938 278.599 167.266 276.09C162.594 273.582 154.528 280.664 154.135 286.665C153.643 293.894 157.922 299.796 164.315 299.944C168.938 300.042 173.709 294.829 181.037 290.403V290.451ZM272.368 169.266C266.368 163.069 263.171 157.757 258.499 155.544C253.875 153.38 247.531 161.249 249.006 168.085C249.892 172.216 254.515 179.004 256.433 178.709C261.204 177.922 265.433 173.692 272.319 169.266H272.368ZM232.285 123.133C228.35 129.871 224.809 133.559 224.12 137.691C222.989 144.675 229.432 151.609 234.793 150.823C240.154 150.085 245.465 142.117 243.252 136.166C241.728 132.133 237.498 129.084 232.285 123.133ZM213.35 42.3749C217.874 34.9483 221.071 31.3089 222.202 27.1284C222.94 24.3742 221.268 20.4394 219.546 17.7344C218.858 16.6524 214.235 16.4555 213.005 17.5867C210.645 19.7507 207.94 23.194 208.038 26.0465C208.136 30.2271 210.595 34.3581 213.35 42.3749ZM275.27 243.335C274.335 241.564 273.401 239.843 272.466 238.072C270.646 239.302 268.138 240.236 267.253 241.957C266.761 242.892 268.925 245.253 269.859 246.974C271.679 245.744 273.45 244.564 275.27 243.335Z" fill="black"/>
</svg>
