<svg width="695" height="716" viewBox="0 0 695 716" fill="none" xmlns="http://www.w3.org/2000/svg">
<path d="M174.209 443.085C175.487 445.249 176.225 448.151 178.094 449.43C198.751 463.742 218.768 479.382 245.129 481.89C247.588 482.136 249.998 483.12 253.293 483.956C255.064 481.103 257.228 478.202 258.703 474.956C261.851 468.07 264.015 460.693 267.753 454.2C274.441 442.495 284.671 435.609 298.541 435.265C303.557 435.118 308.672 435.265 313.639 435.905C315.459 436.15 316.984 438.413 318.656 439.741C317.869 440.675 317.23 442.249 316.295 442.495C307.787 444.757 299.082 445.987 291.114 450.315C279.015 456.905 269.081 475.792 277.048 493.005C278.524 496.153 281.622 499.743 284.72 500.727C295.491 504.121 306.508 506.826 317.623 509.039C321.066 509.728 325.099 508.301 328.64 507.121C334.886 505.104 340.837 505.645 347.182 506.973C388.691 515.679 429.955 514.842 470.726 502.694C474.12 501.711 476.874 498.612 479.924 496.497L479.333 497.038C514.547 495.563 546.024 482.038 576.812 466.545C582.419 463.742 587.73 459.856 592.304 455.528C606.173 442.397 619.797 429.019 633.125 415.395C642.175 406.1 641.142 392.919 635.24 383.476C627.076 370.443 616.108 359.868 602.583 352.048C590.681 345.163 578.533 344.917 567.074 349.589C560.139 348.999 557.582 344.278 554.385 340.441C548.336 333.211 540.417 329.277 531.122 329.031C520.99 328.736 510.711 328.392 500.678 329.474C487.743 330.851 476.382 336.703 466.792 345.605C461.972 350.032 458.677 355.344 457.644 361.885C455.382 376.64 456.906 389.87 471.71 398.132C473.628 399.214 474.661 402.018 475.743 404.231C476.186 405.165 475.94 406.838 475.399 407.821C474.809 408.854 473.53 409.985 472.448 410.084C468.759 410.428 464.677 411.412 461.431 410.281C439.84 402.51 419.085 406.149 397.888 412.69C386.134 416.33 379.445 425.921 370.1 432.216C367.641 433.888 365.182 433.249 363.608 430.937C362.969 430.003 362.477 428.626 362.674 427.642C363.166 425.183 363.51 422.33 364.985 420.51C368.92 415.641 372.855 410.379 377.871 406.838C385.101 401.674 393.462 398.575 402.413 396.903C414.905 394.591 427.25 391.591 439.644 388.689C440.627 388.443 441.365 386.87 442.84 385.197C442.84 382.542 443.086 378.902 442.84 375.312C441.07 354.409 449.037 338.72 466.448 326.67C480.71 316.834 495.76 311.915 512.925 312.899C516.712 313.145 520.548 313.047 524.384 313.047C537.614 313.047 549.417 316.342 558.811 326.523C563.484 331.589 569.435 332.72 576.222 330.703C586.55 327.555 596.337 330.064 605.829 334.441C608.141 335.523 610.403 336.703 612.715 337.736C627.273 343.983 638.83 353.278 645.667 367.984C647.24 371.328 649.798 374.476 652.601 376.836C653.88 377.918 658.06 377.673 659.093 376.492C662.29 372.705 665.536 368.426 667.11 363.803C670.307 354.163 672.126 344.13 675.077 334.392C679.012 321.26 676.553 309.309 669.962 297.751C666.716 292.046 662.88 286.045 656.634 284.914C643.453 282.504 634.109 273.258 622.797 267.7C604.649 258.749 585.91 258.995 566.975 263.618C553.942 266.815 545.631 276.75 536.925 286.095C535.991 287.078 531.86 286.586 530.679 285.357C529.351 283.98 528.515 280.389 529.351 278.816C540.614 258.257 558.467 247.437 581.533 245.273C592.943 244.191 604.452 244.634 615.567 248.077C620.436 249.552 626.191 251.077 628.699 245.47C631.01 240.207 626.387 235.879 622.944 232.289C604.501 213.009 587.238 192.549 563.975 178.385C556.647 173.909 548.877 168.647 545.63 159.696C545.335 158.909 545.975 157.433 546.614 156.745C547.401 155.958 548.975 155.023 549.762 155.318C555.614 157.63 562.057 159.253 567.025 162.843C590.73 179.959 614.436 197.173 633.666 219.551C637.797 224.371 642.519 228.846 645.863 234.158C654.126 247.29 664.651 258.061 677.094 267.209C688.012 275.225 692.488 286.537 693.914 299.964C697.799 337.146 687.078 370.59 668.241 401.674C657.077 420.117 644.88 437.724 625.256 449.282C613.354 456.266 604.157 467.726 592.501 475.251C563.533 493.94 560.385 494.629 526.351 503.235C515.285 506.039 504.17 508.941 493.203 512.039C490.891 512.679 488.875 514.449 486.76 515.679C482.874 520.4 486.071 525.318 486.317 530.138C487.448 550.352 475.448 564.566 455.628 565.992C444.217 566.828 432.709 566.828 421.348 567.812C417.758 568.107 414.315 570.271 410.921 571.943C410.036 572.386 409.397 574.058 409.249 575.239C409.102 576.271 409.495 577.845 410.233 578.436C424.545 589.305 441.414 595.256 457.595 602.437C475.005 610.158 492.612 617.585 509.875 625.601C515.58 628.257 520.695 632.241 525.909 635.831C531.663 639.815 532.401 647.291 527.482 652.209C511.302 668.39 495.416 684.866 474.071 694.752C466.103 698.441 458.874 703.752 452.874 707.392C444.955 708.277 442.004 703.753 438.217 700.457C423.709 687.719 407.479 678.128 388.986 672.079C357.559 661.751 326.673 649.996 298.098 633.028C295.934 631.749 293.524 630.766 291.213 629.782C283.835 626.585 276.36 626.733 268.982 629.782C265.441 631.208 261.802 632.635 258.752 634.848C232.686 653.734 202.833 665.144 173.176 676.407C145.732 686.834 119.322 698.884 95.2226 715.311C81.6976 711.425 73.7793 700.654 63.8938 693.08C32.6633 669.079 36.4011 668.587 36.106 631.602C36.106 626.487 38.27 621.667 43.4833 619.208C52.7295 614.929 61.8773 610.453 71.271 606.568C95.9112 596.289 120.65 586.354 145.241 576.026C148.634 574.599 151.782 572.042 154.143 569.238C155.225 567.911 155.077 563.533 153.946 562.746C147.749 558.418 141.454 553.943 134.519 551.139C109.682 541.106 87.3044 526.351 63.3528 514.646C50.713 508.498 44.221 498.957 42.2538 485.284C40.8767 475.792 43.8276 466.791 52.5328 463.152C68.9103 456.315 85.5338 449.922 102.403 444.462C106.584 443.085 112.928 444.561 116.863 446.971C140.618 461.922 165.651 474.365 191.226 485.825C195.455 487.743 200.521 490.153 204.898 485.235C199.734 479.284 192.406 476.677 186.062 472.546C166.881 460.053 147.798 447.315 132.453 429.904C124.781 421.248 115.535 414.756 105.6 408.805C91.3372 400.346 79.7795 389.132 69.4513 375.607C56.3198 358.442 42.9915 341.671 31.8764 322.982C21.9908 306.358 16.5316 288.16 8.76082 270.799C6.74436 266.274 6.49845 260.913 5.76072 255.897C5.21972 252.11 5.90833 248.077 4.82632 244.535C-5.74779 209.763 2.85903 176.418 13.3348 143.711C26.5155 102.595 49.877 68.4128 87.0585 44.8544C95.6653 39.3951 104.075 33.6407 112.781 28.3782C118.191 25.083 123.699 21.1976 129.699 19.7222C159.208 12.2956 188.078 1.67222 218.915 0.541023C227.817 0.245928 236.719 0.442622 245.621 0.196709C270.015 -0.541029 293.967 0.19663 315.902 13.1808C321.214 16.3285 327.853 17.509 333.952 19.132C351.559 23.7552 366.412 33.3949 380.379 44.6085C381.265 45.2971 382.052 46.8709 381.953 47.9529C381.658 50.6087 379.543 52.0351 376.74 51.1006C371.969 49.4776 367.149 47.707 362.723 45.2479C346.296 36.1491 330.755 39.0509 315.951 48.7398C310.738 52.1826 306.115 56.7565 301.934 61.4289C294.655 69.5931 296.032 82.8234 304.983 88.1351C327.706 101.709 349.542 116.661 370.936 133.285C374.133 129.793 377.133 127.432 379.051 124.383C391.101 104.808 409.249 98.3649 431.086 99.6928C432.217 99.742 434.135 100.923 434.135 101.513C434.135 103.529 433.938 106.824 432.807 107.316C424.643 110.857 416.135 113.464 407.97 117.005C389.97 124.825 381.265 148.826 391.298 165.352C404.528 187.09 418.938 208.14 440.234 223.239C443.037 225.256 447.562 223.928 449.677 220.092C453.414 213.452 456.513 206.37 460.742 200.074C471.907 183.451 487.448 173.024 507.219 169.581C510.662 168.991 514.548 170.663 518.138 171.549C519.22 171.844 520.99 173.319 520.843 173.958C520.449 176.172 519.859 179.762 518.482 180.205C512.58 182.221 506.383 183.549 500.186 184.631C489.465 186.5 481.497 192.5 475.497 201.107C468.12 211.78 463.989 223.338 463.89 236.765C463.841 247.044 458.136 249.257 448.545 243.847C441.906 240.109 435.758 235.387 428.873 232.191C417.758 227.026 406.544 228.256 396.019 234.355C392.773 236.224 389.527 238.584 387.117 241.437C383.084 246.257 378.855 251.224 376.297 256.88C373.297 263.422 378.609 268.733 381.314 274.34C383.035 277.832 380.281 282.357 376.642 282.504C369.018 282.849 361.395 283.095 353.772 283.34C347.427 283.537 340.985 283.193 334.689 284.078C318.164 286.39 302.278 290.718 288.999 301.587C273.409 314.325 269.671 320.965 262.785 348.36C253.293 356.672 238.489 358.934 227.768 367.885C225.997 369.361 224.866 371.82 223.882 374.033C223.44 375.017 223.637 376.787 224.325 377.623C231.26 386.033 240.26 389.968 251.129 389.181C253.638 388.984 256.293 388.689 258.556 387.706C270.458 382.591 282.95 380.82 295.786 380.771C302.524 380.771 308.082 378.066 312.066 372.459C314.279 369.361 316.787 366.36 318.558 363.016C330.804 339.949 351.952 328.982 375.264 320.867C380.084 319.194 385.052 318.014 389.97 316.785C404.921 313.047 417.413 317.522 427.791 328.539C428.43 329.228 428.725 330.998 428.332 331.834C427.84 332.867 426.217 334.293 425.479 334.097C391.298 324.85 363.166 336.9 337.984 359.082C329.525 366.557 326.525 375.115 331.05 386.329C333.263 391.788 328.197 396.657 322.64 394.788C297.557 386.476 275.032 392.722 253.638 406.051C248.129 409.494 242.473 412.297 235.981 412.395C214.145 412.789 196.931 421.74 183.947 439.446C182.078 442.003 177.16 442.347 173.668 443.725C173.864 441.216 174.11 438.659 174.258 436.15C174.996 424.986 180.701 417.117 190.537 412.346C197.373 409.051 204.554 406.543 211.489 403.543C216.358 401.477 217.046 394.788 212.669 391.198C189.062 371.869 167.717 350.475 149.962 325.539C146.47 320.621 140.372 317.621 135.503 313.686C133.142 295.636 124.289 280.783 112.486 267.454C108.846 263.372 107.862 259.192 108.944 253.782C109.879 249.011 110.666 243.503 109.239 239.076C104.469 224.076 106.043 209.813 109.731 194.714C113.322 179.959 117.502 165.745 123.945 152.023C126.011 147.597 126.601 142.433 127.879 137.613C133.732 132.842 139.634 128.12 145.388 123.202C153.061 116.563 160.438 109.529 168.258 103.086C169.733 101.857 173.028 101.906 175.094 102.546C177.75 103.382 177.701 105.939 175.733 108.644C171.356 114.644 163.979 118.727 163.684 127.334C189.357 172.04 191.865 179.024 200.521 230.273C201.751 230.273 203.423 230.814 204.161 230.174C225.161 213.157 248.719 201.156 274.737 193.976C275.917 193.632 276.95 192.795 278.13 192.254C282.606 190.238 286.196 183.795 284.573 179.762C276.556 159.696 268.589 139.629 260.08 119.759C257.621 114.005 253.883 108.693 249.998 103.677C245.129 97.3814 238.883 94.2336 230.227 94.4795C222.112 94.7254 221.227 93.7419 220.489 86.3153C219.604 76.9215 216.013 69.3472 209.62 62.6584C199.833 52.3301 188.078 45.002 175.488 38.6575C159.553 30.6899 144.208 30.6406 127.879 38.0672C97.1407 52.1334 71.517 72.2491 51.4016 99.3487C50.7622 100.185 50.9098 101.955 51.3032 103.037C51.6475 103.972 52.877 105.201 53.7623 105.25C65.1233 105.939 76.4844 106.529 87.8946 107.021C97.2391 107.464 105.059 111.202 111.945 117.349C118.633 123.35 124.437 130.038 128.42 138.154C122.568 135.99 116.469 134.219 110.912 131.514C104.125 128.17 97.8785 123.792 91.1897 120.3C83.0255 116.021 74.1236 115.087 65.3692 117.497C56.8608 119.809 48.4998 122.76 40.3848 126.252C37.188 127.629 33.7944 130.776 32.4665 133.924C24.3023 153.745 15.4496 173.614 14.5152 195.451C13.8758 210.55 14.7118 225.748 15.0069 240.945C15.0561 244.683 19.9743 246.847 23.4662 244.978C34.5813 239.027 45.5981 232.83 56.9591 227.42C61.3855 225.305 66.5988 224.616 71.517 223.879C73.8285 223.534 76.6811 224.223 78.7959 225.403C80.7632 226.486 82.4846 228.551 83.5174 230.617C84.7469 233.076 83.2714 235.83 80.173 236.027C63.156 237.06 47.9588 241.486 36.5978 255.454C30.5976 262.831 27.6958 270.897 29.6631 280.045C35.1223 305.423 48.0572 326.867 65.3692 345.851C68.7628 349.589 76.2876 350.179 78.7959 346.245C90.5504 327.851 108.305 319.342 128.715 314.916C131.175 314.375 133.683 313.834 136.142 313.293C134.617 319.44 132.699 325.146 126.109 328.047C118.092 331.539 109.977 334.982 102.502 339.458C86.7142 348.999 84.6977 373.295 99.2063 384.509C112.043 394.444 126.011 402.903 139.29 412.297C148.437 418.74 158.028 424.691 161.618 436.692C163.143 441.708 169.241 442.544 174.258 443.233L174.209 443.085ZM250.342 618.814C253.244 617.88 257.179 619.109 258.605 614.978C257.572 614.732 256.146 613.896 255.654 614.289C253.834 615.765 252.359 617.634 250.785 619.306C247.883 620.339 244.932 621.372 242.031 622.405C243.014 622.7 244.293 623.585 244.834 623.241C246.801 621.962 248.523 620.339 250.342 618.814ZM214.538 554.582C213.259 556.697 212.472 559.697 210.554 560.779C199.537 567.025 188.816 574.353 176.963 578.436C140.716 590.928 108.157 611.142 73.4842 626.88C71.2219 627.913 69.5005 629.979 67.4349 631.405C63.2052 634.356 62.8117 640.75 66.7955 644.684C70.3858 648.275 73.8777 651.963 77.7139 655.308C89.4683 665.489 102.747 666.915 116.912 661.456C122.814 659.144 128.47 656.193 134.076 653.193C164.372 637.16 195.16 622.257 227.227 609.961C233.129 607.699 238.735 604.601 244.391 601.699C246.605 600.568 248.523 598.748 250.588 597.371C253.392 595.502 253.933 589.305 250.785 587.583C230.227 576.173 224.424 558.172 226.833 536.138C227.227 532.401 226.686 528.515 226.194 524.777C225.505 519.367 222.407 515.728 217.44 513.367C186.553 498.514 155.716 483.513 124.83 468.611C120.256 466.398 115.83 463.693 111.01 462.266C107.567 461.233 103.092 460.791 99.9933 462.168C93.2062 465.267 86.8126 469.398 80.6648 473.726C79.5336 474.562 79.5336 478.89 80.6156 480.513C82.632 483.562 85.5338 486.268 88.5831 488.382C111.6 504.465 136.486 516.957 162.651 527.138C179.176 533.532 195.259 541.008 211.39 548.336C213.062 549.074 213.505 552.516 214.489 554.68L214.538 554.582ZM405.413 211.583C404.38 207.993 404.036 205.435 402.954 203.32C393.314 185.221 378.609 171.008 366.018 155.171C359.526 147.056 351.657 145.826 345.018 156.941C341.181 163.433 337.886 170.319 335.23 177.401C331.689 186.894 329.181 196.73 325.787 206.271C324.46 209.96 321.017 212.223 316.984 211.977C306.951 211.337 296.967 210.206 286.983 209.468C281.966 209.075 276.753 208.14 271.982 209.124C239.424 216.059 213.8 233.027 196.587 261.995C193.341 267.405 194.57 272.766 200.177 273.799C218.177 277.045 233.817 284.57 247.047 297.21C247.982 298.095 248.965 298.833 249.998 299.62C256.539 304.538 261.359 305.079 266.966 299.718C282.015 285.357 299.475 275.52 319.787 271.291C332.132 268.733 345.804 269.766 356.92 264.75C368.871 259.339 366.756 242.371 375.215 232.732C380.379 226.83 386.429 222.649 393.216 219.157C397.593 216.895 401.626 213.993 405.511 211.534L405.413 211.583ZM488.973 637.799C480.661 629.831 469.989 625.601 459.513 621.618C440.578 614.437 422.43 605.83 405.019 595.502C398.577 591.715 391.347 589.206 384.412 586.255C357.165 574.599 332.82 580.796 310.541 598.649C309.656 599.387 310.197 603.715 311.426 604.945C318.804 612.224 328.443 615.47 337.935 618.962C353.329 624.618 368.723 630.176 383.92 636.274C403.79 644.291 423.463 652.799 443.234 661.062C452.037 664.751 460.644 663.866 468.464 658.603C474.71 654.422 480.661 649.75 486.317 644.832C487.891 643.455 488.038 640.455 489.022 637.799H488.973ZM206.472 363.164C219.899 355.835 231.014 349.835 241.981 343.737C249.703 339.409 252.851 328.637 248.129 320.572C245.031 315.211 241.293 309.702 236.571 305.866C230.817 301.145 224.03 297.062 217.046 294.554C207.652 291.16 196.882 291.062 188.078 286.685C179.275 282.357 172.93 273.504 163.29 269.815C157.438 267.553 151.683 264.848 145.683 263.126C143.913 262.635 140.765 264.208 139.339 265.832C137.863 267.455 136.781 270.504 137.273 272.57C138.355 277.439 139.929 282.357 142.241 286.734C157.831 316.096 178.881 340.933 206.472 363.213V363.164ZM120.699 213.698C120.994 218.518 121.043 224.912 121.879 231.158C122.568 236.273 124.781 241.093 130.191 242.912C143.372 247.486 156.651 251.765 169.881 256.143C174.504 257.667 179.816 254.618 181.242 249.06C183.16 241.732 186.652 234.06 185.816 226.928C182.471 197.665 174.799 169.63 157.29 145.187C156.602 144.203 155.372 143.121 154.29 142.924C152.028 142.58 148.634 141.793 147.503 142.974C128.814 162.155 120.994 185.664 120.699 213.649V213.698ZM259.441 77.9543C272.032 79.233 282.311 72.5442 289.934 58.3305C295.196 48.5432 304.492 40.969 312.016 32.4604C314.574 29.5095 313.836 24.2469 310.393 23.0173C303.262 20.4598 296.18 16.9679 288.852 16.1318C275.032 14.558 260.966 15.2957 247.293 11.5086C243.85 10.525 239.768 11.4102 236.03 11.8037C223.44 13.0825 210.849 14.3612 198.259 16.0826C194.619 16.5744 190.881 17.9516 187.783 19.9189C186.603 20.6567 186.209 25.4274 187.193 26.2143C196.046 33.2966 206.079 39.0016 214.144 46.8216C222.26 54.74 228.407 64.5765 235.44 73.5769C236.227 74.5606 237.112 75.741 238.194 76.1836C241.686 77.5115 245.178 78.987 248.818 79.5772C251.178 79.9707 253.834 78.9379 259.392 78.0526L259.441 77.9543ZM300.213 580.009C296.77 580.157 299.278 580.009 301.787 579.96C310.836 579.567 316.541 575.14 318.066 567.124C319.689 558.418 321.213 549.713 322.689 540.958C324.017 533.237 319.541 526.154 311.328 523.892C294.262 519.17 277.146 514.744 259.982 510.318C255.605 509.186 249.998 512.924 248.031 517.4C242.768 529.45 242.522 541.991 244.342 554.68C245.277 561.222 249.014 566.238 254.474 570.025C266.474 578.288 279.95 580.747 300.213 580.059V580.009ZM310.197 195.353C312.312 194.271 315.459 193.73 316.394 192.009C325.64 174.352 326.574 152.613 343.247 138.547C346.493 135.793 344.329 129.104 340.296 125.366C328.001 113.956 312.902 107.365 297.704 101.07C290.77 98.2175 283.294 96.5452 275.868 95.0206C273.95 94.6271 270.753 96.1518 269.572 97.824C268.392 99.4962 268.097 102.89 268.982 104.71C281.966 130.776 293.77 157.236 299.524 186.008C299.967 188.271 301.787 190.631 303.606 192.205C305.377 193.73 307.934 194.32 310.197 195.353ZM382.002 528.319C373.199 528.319 364.346 528.122 355.542 528.466C353.231 528.564 350.772 529.991 348.805 531.417C345.46 533.778 344.526 537.368 345.214 541.352C345.903 545.286 349.69 548.533 352.985 548.09C356.674 547.549 360.51 547.352 364.051 546.319C388.347 538.991 413.036 534.27 438.562 534.516C442.152 534.516 446.037 533.335 449.234 531.712C450.759 530.925 451.349 527.778 451.792 525.614C451.939 525.023 450.119 523.4 449.086 523.253C444.217 522.613 438.906 520.941 434.479 522.171C417.217 527.089 399.708 528.417 381.953 528.368L382.002 528.319ZM126.06 677.096C130.093 677.391 133.978 678.866 136.732 677.686C160.88 667.407 184.881 656.783 208.685 645.816C213.062 643.799 216.456 639.668 220.145 636.323C220.981 635.536 221.817 634.061 221.669 633.028C221.276 630.421 219.014 628.946 216.456 630.175C187.193 644.291 158.028 658.603 128.863 672.915C127.879 673.407 127.437 674.932 126.011 677.096H126.06ZM67.8283 667.8C66.8447 668.439 65.5168 668.833 64.9758 669.669C64.5331 670.407 64.4839 672.128 65.0249 672.718C70.0415 677.883 75.1565 682.948 80.3697 687.916C82.6813 690.178 84.8944 689.932 86.2223 687.227C86.665 686.293 86.7141 684.768 86.2223 683.834C82.2386 676.063 76.7302 669.915 67.7791 667.8H67.8283ZM75.4023 501.957L75.5991 499.596L72.599 500.53L75.4515 502.006L75.4023 501.957ZM127.437 529.942L127.24 532.155L130.191 531.319L127.437 529.942Z" fill="black"/>
<path d="M461.776 260.077C477.81 261.946 493.351 266.028 503.778 280.635C505.548 283.143 505.056 285.553 502.794 287.078C501.909 287.668 500.433 288.111 499.499 287.767C497.187 286.98 494.777 286.045 492.908 284.57C475.891 271.487 457.497 274.192 439.202 280.537C429.759 283.832 421.004 288.947 411.955 293.226C409.348 294.455 406.643 293.718 405.906 290.816C405.365 288.75 406.201 285.996 407.283 283.979C408.414 281.865 410.332 279.897 412.348 278.52C423.906 270.7 436.693 265.585 449.972 261.552C453.514 260.47 457.399 260.52 461.776 259.979V260.077Z" fill="black"/>
<path d="M571.944 439.889C571.452 445.84 571.452 452.43 566.337 457.053C564.714 458.529 561.91 458.922 559.599 459.316C559.058 459.414 557.681 457.447 557.582 456.365C556.943 448.889 556.402 441.413 556.156 433.888C555.615 417.166 549.222 404.625 532.303 399.215C529.991 398.477 527.631 397.395 525.762 395.821C523.794 394.198 524.04 391.346 526.647 389.772C537.664 383.132 546.369 383.821 554.091 391.444C566.73 403.985 572.386 419.134 571.944 439.889Z" fill="black"/>
<path d="M479.825 496.546C477.366 496.005 474.612 495.907 472.497 494.727C470.432 493.645 467.677 491.53 467.53 489.661C467.235 486.021 468.218 482.136 469.251 478.546C474.219 461.234 471.809 445.889 457.989 433.15C456.267 431.576 454.644 428.921 454.546 426.707C454.448 424.986 456.808 421.642 458.087 421.642C461.677 421.642 466.104 421.937 468.759 424.002C483.022 434.97 489.072 450.02 486.711 467.627C485.383 477.611 481.793 487.3 479.235 497.088L479.825 496.546Z" fill="black"/>
<path d="M485.234 148.974L488.431 148.039L488.038 150.695L485.234 148.974Z" fill="black"/>
<path d="M688.16 535.745L689.832 532.794L691.062 535.991L688.16 535.745Z" fill="black"/>
<path d="M452.037 123.645C451.791 122.76 451.398 121.874 451.496 120.989C451.496 120.694 452.873 120.546 453.611 120.35C453.857 121.235 454.103 122.12 454.348 123.006C453.611 123.202 452.824 123.399 452.086 123.596L452.037 123.645Z" fill="black"/>
<path d="M409.791 74.3636V71.6094L412.889 73.0357L409.791 74.3636Z" fill="black"/>
</svg>
