<svg width="774" height="441" viewBox="0 0 774 441" fill="none" xmlns="http://www.w3.org/2000/svg">
<path d="M140.316 430.052C142.874 398.28 155.858 371.574 161.858 343.638C154.185 337.441 152.71 344.179 150.743 347.769C145.726 356.77 138.054 360.754 128.463 358.294C114.791 354.803 103.429 360.262 91.9699 365.721C69.0512 376.689 46.3296 388.05 21.7386 400.1C15.0007 396.706 7.47565 392.87 0 389.034C3.34437 365.869 7.62317 344.622 9.19699 323.227C10.7216 301.833 9.5416 280.242 9.5416 255.7C47.8051 232.092 92.8061 222.256 135.693 207.698C177.596 193.484 220.335 181.729 264.156 168.401C265.287 164.466 266.763 159.696 267.992 154.925C276.304 122.907 293.026 107.611 325.929 104.07C364.831 99.8893 401.767 108.988 437.62 123.202C448.244 127.432 458.424 132.744 469.048 137.072C520.886 158.417 566.625 143.514 596.38 94.7742C610.298 72.0027 622.938 48.4446 635.725 24.9845C642.07 13.3774 649.791 3.88542 664.349 0C694.153 8.45939 722.974 21.2955 749.188 39.9848C776.385 59.3627 779.091 68.3635 764.139 96.9878C744.122 135.301 724.794 174.106 702.514 211.091C687.514 236.027 669.513 259.634 649.841 281.028C638.283 293.619 621.217 301.587 605.774 310.145C595.987 315.604 584.675 318.358 571.789 323.129C590.33 356.13 608.036 387.705 625.25 418.346C621.856 424.15 620.725 428.527 617.922 430.347C611.823 434.331 604.888 436.986 596.921 440.822C590.871 432.265 585.953 425.182 580.937 418.149C570.707 403.69 561.313 388.493 549.952 374.967C536.427 358.885 518.722 349.491 494.574 348.261C493.049 354.311 492.016 360.065 490.196 365.524C486.114 377.82 472.982 383.082 463.49 375.459C457.736 370.836 453.064 364.491 449.129 358.147C433.293 332.572 410.226 318.801 380.914 314.325C364.585 311.817 348.355 308.522 332.027 306.013C303.846 301.685 276.157 304.833 249.156 313.489C224.614 321.359 207.597 337.392 199.58 362.278C193.727 380.426 188.662 398.87 181.973 416.723C174.497 436.741 169.088 438.314 140.365 430.002L140.316 430.052ZM612.118 97.5779C611.282 98.2173 610.298 98.8077 609.659 99.5946C609.216 100.185 609.167 101.119 608.971 101.857C609.856 100.283 610.741 98.66 611.626 97.037C612.167 96.0042 612.708 94.9713 613.2 93.9385C612.856 95.1189 612.462 96.3483 612.118 97.5287V97.5779ZM596.675 295.193C601.741 292.635 606.807 290.078 611.921 287.521C617.036 285.062 622.151 282.553 627.266 280.094C629.578 279.16 631.988 278.373 634.152 277.193C635.086 276.652 635.479 275.225 636.119 274.193C634.25 274.045 631.496 273.061 630.709 273.897C629.135 275.569 628.643 278.274 627.659 280.537C622.594 283.045 617.479 285.553 612.413 288.062C607.347 290.619 602.282 293.176 597.216 295.734C595.691 296.472 594.167 297.161 593.429 297.505C594.019 297.112 595.396 296.177 596.724 295.242L596.675 295.193ZM421.391 134.514C420.506 134.17 419.62 133.874 418.686 133.53C419.768 133.727 420.85 133.874 421.932 134.071L423.997 136.137C423.997 136.137 421.44 134.465 421.391 134.514ZM680.825 166.089C679.94 166.728 678.809 167.22 678.169 168.056C677.727 168.646 677.875 169.679 677.776 170.565C678.661 168.942 679.497 167.319 680.333 165.646C682.694 160.187 685.006 154.728 687.366 149.318C708.76 129.694 720.564 104.513 727.45 76.6261C711.761 99.5944 695.432 122.218 687.858 149.81C685.497 155.269 683.186 160.679 680.825 166.138V166.089ZM467.327 347.671C467.327 348.753 467.179 349.884 467.425 350.966C467.622 351.802 468.212 352.54 468.655 353.327C468.064 351.606 467.474 349.884 466.884 348.113C465.9 346.097 465.064 343.933 463.835 342.015C463.294 341.179 462.113 340.736 461.228 340.146C461.228 341.867 460.441 344.326 461.277 345.113C462.802 346.49 465.261 346.884 467.327 347.671ZM366.848 272.52C369.799 273.897 372.749 275.274 368.618 273.356C373.044 273.996 369.75 273.503 366.454 273.012C360.012 266.569 352.831 265.487 344.814 271.241C352.142 271.684 359.52 272.077 366.897 272.52H366.848ZM664.792 233.666C685.399 218.468 696.711 197.369 703.252 173.221C705.662 167.86 708.121 162.548 710.531 157.187C729.761 136.235 740.827 116.267 749.582 83.7574C733.204 106.48 717.908 129.743 711.121 157.679C708.662 162.991 706.203 168.351 703.793 173.663C684.563 189.746 671.579 209.813 665.382 234.158C661.743 237.748 658.103 241.289 654.513 244.879C656.037 245.863 657.513 246.847 659.038 247.83C660.956 243.109 662.874 238.338 664.792 233.617V233.666ZM375.405 294.898C360.995 287.718 346.192 287.914 331.093 294.406H375.898C386.373 298.538 396.652 303.554 407.423 306.604C440.276 315.997 473.326 324.604 506.327 333.506C534.263 341.031 556.985 356.229 573.953 379.738C579.854 387.951 585.068 396.706 591.216 404.723C594.265 408.657 594.314 417.067 604.446 414.559C598.888 402.411 593.576 391.001 588.412 379.59C573.609 347.031 548.231 329.031 513.164 322.391C480.851 316.243 448.932 307.833 416.718 301.046C403.144 298.193 389.225 296.915 375.454 294.947L375.405 294.898ZM279.648 186.844C227.614 189.402 181.432 203.173 135.89 219.255C104.708 230.272 73.6254 241.633 42.5425 252.896C30.5913 257.224 23.7551 265.487 23.6076 278.618C23.46 292.635 23.6074 306.653 22.8697 320.621C22.1812 334.244 20.6073 347.819 19.1811 364.541C28.0338 361.934 34.1323 361.048 39.3948 358.491C77.0681 339.949 114.151 320.227 152.218 302.57C197.268 281.668 243.057 262.487 292.731 254.913C299.665 253.831 306.256 250.339 312.797 248.076C301.878 204.206 312.354 186.156 350.962 181.188C359.126 180.155 368.274 182.91 376.389 185.566C384.75 188.32 392.128 193.828 400.439 196.779C404.62 198.303 412.144 198.795 414.21 196.385C421.489 187.975 429.653 188.713 438.555 191.025C461.671 197.025 484.097 191.516 506.524 186.991C510.951 186.106 516.705 185.074 514.443 178.04C477.605 167.515 441.161 156.548 404.324 146.859C385.979 142.039 367.094 138.006 348.257 136.579C310.535 133.727 304.78 139.924 304.78 176.959C286.189 176.418 293.714 157.531 285.698 148.531C283.779 160.679 282.058 171.745 279.697 186.844H279.648ZM666.267 32.5588C661.496 39.3952 657.366 44.1657 654.464 49.625C645.562 66.4454 638.234 84.1508 628.397 100.381C595.79 153.892 556.149 198.648 488.721 206.714C487.245 206.91 486.163 210.403 484.049 213.649C516.804 238.437 556.247 240.846 595.888 247.338C622.004 229.633 641.037 204.845 655.791 176.27C668.579 151.482 681.858 126.94 694.497 102.054C701.826 87.5941 711.318 73.8225 712.695 56.0676C700.35 43.9687 686.874 35.4113 666.366 32.5096L666.267 32.5588ZM336.454 198.746C331.093 204.107 325.683 207.402 323.469 212.124C320.027 219.599 321.895 228.305 328.781 232.633C341.47 240.601 355.29 246.798 367.045 252.945C375.996 247.929 382.193 244.486 387.947 241.24C410.423 268.389 410.276 269.274 441.752 275.668C466.638 280.733 491.918 283.93 517.197 286.635C531.804 288.209 546.903 288.013 560.575 277.045C556.247 275.225 554.034 273.75 551.674 273.405C517.148 268.782 485.77 257.569 456.064 238.24C435.112 224.567 410.079 216.944 386.324 208.042C372.061 202.681 358.487 204.156 351.798 221.419C351.159 223.091 347.913 223.731 343.585 226.092C341.372 217.682 339.355 209.911 336.404 198.795L336.454 198.746ZM158.415 417.854C162.251 417.854 163.825 418.346 164.661 417.756C166.628 416.379 169.137 414.756 169.874 412.69C179.563 386.771 189.056 360.803 198.302 334.785C199.433 331.637 198.744 327.851 198.99 322.637C194.268 324.604 189.596 325.047 188.268 327.408C181.58 339.359 174.399 351.31 170.022 364.196C164.17 381.361 156.595 398.673 158.317 417.854H158.415ZM509.328 303.702C526.296 311.375 543.116 311.424 562.1 306.751C541.493 294.259 540.116 294.111 509.328 303.702ZM334.929 117.989C336.06 117.89 337.191 117.743 338.323 117.644C337.29 116.562 336.404 115.234 335.175 114.546C334.683 114.251 333.404 115.431 332.47 115.972C333.306 116.661 334.142 117.3 334.978 117.989H334.929ZM531.312 252.011L529.689 254.175H532.935L531.362 252.011H531.312Z" fill="black"/>
<path d="M242.023 246.798C239.121 248.617 236.466 251.076 235.728 250.585C233.269 248.962 231.548 246.306 229.531 244.044C231.302 242.863 233.711 240.306 234.695 240.748C237.351 241.978 239.416 244.535 242.023 246.798Z" fill="black"/>
<path d="M102.101 250.782C101.118 251.126 99.9867 251.962 99.1506 251.765C98.3637 251.568 97.8718 250.241 97.2324 249.454C98.8062 248.863 100.331 248.323 101.904 247.732C101.954 248.765 102.052 249.798 102.101 250.831V250.782Z" fill="black"/>
<path d="M202.629 217.78C202.236 218.812 202.088 220.435 201.4 220.78C200.613 221.124 199.285 220.338 198.154 220.042C198.794 218.518 199.433 216.993 200.072 215.419C200.909 216.206 201.793 216.993 202.629 217.78Z" fill="black"/>
<path d="M50.2139 302.816C50.7057 303.554 51.5419 304.341 51.5419 305.079C51.5419 305.816 50.5585 306.456 49.9684 307.144C49.4765 306.407 48.6404 305.62 48.6896 304.882C48.6896 304.145 49.673 303.505 50.2631 302.816H50.2139Z" fill="black"/>
<path d="M559.592 215.075L557.133 215.911L557.477 213.599L559.592 215.075Z" fill="black"/>
</svg>
