<svg width="465" height="463" viewBox="0 0 465 463" fill="none" xmlns="http://www.w3.org/2000/svg">
<path d="M328.305 167.437C328.502 175.011 328.059 182.684 328.994 190.209C329.633 195.422 334.059 201.225 338.584 200.684C352.011 199.061 358.995 208.947 368.29 214.751C372.471 217.357 376.749 219.817 383.094 223.604C378.372 226.26 375.717 227.882 372.913 229.21C371.831 229.751 370.356 229.407 369.175 229.85C356.486 234.571 350.683 248.883 359.88 256.556C379.946 273.229 383.291 294.426 381.176 318.231C380.389 327.084 380.782 336.084 379.454 344.838C378.766 349.56 375.569 353.888 373.503 358.413L374.192 359.052C373.897 341.297 374.094 323.444 373.061 305.738C372.716 299.787 370.011 293.443 366.815 288.229C354.568 268.409 336.125 262.95 314.092 267.13C310.403 267.819 307.059 270.327 303.37 270.819C299.927 271.261 295.206 271.409 292.845 269.491C283.304 261.622 272.287 260.146 260.729 259.999C222.564 259.458 184.989 253.605 147.562 246.719C138.856 245.096 129.905 244.605 121.053 244.457C103.249 244.162 85.4941 244.457 67.6903 244.457C71.1822 240.473 75.5102 238.014 80.8218 237.866C108.659 236.981 136.496 234.719 164.136 241.113C173.923 243.375 184.202 243.67 194.334 244.063C209.531 244.654 224.581 245.342 239.63 248.637C262.106 253.556 284.976 252.326 307.796 251.097C311.091 250.9 313.993 244.998 312.026 242.293C306.075 234.178 299.927 226.161 293.878 218.144C276.713 210.373 260.975 199.16 241.302 197.242C216.121 194.733 190.793 192.668 165.907 188.192C139.447 183.421 112.987 182.979 86.3794 184.061C81.412 184.257 74.92 184.356 71.9199 187.356C62.1327 196.947 49.0503 197.586 37.6401 202.504C33.2629 204.373 28.0988 208.013 26.4266 212.095C18.1641 232.26 13.5902 253.261 19.0494 275.048C21.8035 286.065 25.8365 296.787 29.6726 307.509C30.312 309.28 32.9187 310.312 35.5745 312.477C39.1648 298.607 42.3616 285.131 46.2961 271.901C47.6732 267.278 50.9192 263.245 53.3291 258.966C54.903 272.983 53.4767 286.803 50.034 300.427C46.5912 314.099 46.001 327.969 47.1814 341.937C47.7224 348.675 51.6078 353.642 57.1161 357.282C59.231 358.659 61.4442 360.036 63.8049 360.872C82.9367 367.413 101.97 374.151 122.577 375.086C133.889 375.627 145.152 377.693 156.414 379.463C172.644 382.021 188.776 385.07 205.006 387.676C215.285 389.299 225.171 388.857 233.187 380.545C234.663 379.02 237.761 379.02 241.548 377.84C245.778 381.086 250.401 385.414 255.713 388.562C261.024 391.66 266.975 395.251 272.828 395.644C301.747 397.562 330.961 401.152 358.995 389.742L358.306 389.3C354.618 398.595 347.093 402.726 337.797 404.054C325.944 405.776 320.387 413.35 318.174 424.318C316.698 431.793 315.37 439.318 313.403 446.646C312.469 450.237 310.796 454.024 308.337 456.729C306.026 459.335 302.435 461.057 299.14 462.385C296.927 463.27 291.763 458.303 291.222 455.302C290.533 451.565 289.747 447.827 289.353 444.04C288.714 437.744 288.566 431.35 287.828 425.055C286.353 412.317 280.697 405.726 269.09 404.89C239.876 402.677 211.105 398.054 182.628 391.464C176.481 390.037 170.038 389.841 163.693 389.595C143.381 388.808 123.118 388.021 103.298 382.315C93.6583 379.561 86.281 384.676 82.8875 394.66C79.1988 405.48 76.3954 416.596 72.1658 427.219C70.3953 431.596 66.5591 435.728 62.6245 438.482C59.9687 440.351 55.0013 440.941 52.0504 439.761C49.247 438.629 46.542 434.547 46.001 431.4C45.1649 426.531 45.6076 421.219 46.7388 416.35C48.1159 410.202 50.6733 404.3 52.739 398.3C61.2474 373.463 60.8048 372.036 39.7058 357.872C32.9187 353.298 29.0825 353.593 22.8855 359.347C19.1969 362.741 15.7542 366.38 11.9672 369.577C9.36051 371.791 3.45869 369.676 2.52423 365.987C1.29468 361.216 -0.721772 355.954 0.261866 351.478C2.42587 341.642 5.8686 332.002 9.50806 322.559C13.3442 312.673 13.9344 302.984 11.2786 292.754C8.08179 280.459 5.52433 268.015 2.67178 255.621C-2.24641 234.079 4.34397 215.39 17.6723 198.766C21.5576 193.946 26.6234 189.471 32.1317 186.668C46.9355 179.192 62.4278 173.978 79.5923 174.224C122.823 174.913 166.005 174.716 209.236 175.7C221.826 175.995 234.319 179.192 246.86 180.618C248.581 180.815 251.926 178.552 252.073 177.175C252.319 175.159 250.844 172.257 249.171 170.88C246.319 168.519 242.729 167.093 239.483 165.273C238.253 162.814 239.483 161.683 242.827 160.798C257.09 157.158 258.418 155.486 256.647 143.928C255.86 138.911 254.532 133.993 253.795 128.976C252.368 119.877 253.647 110.779 258.369 103.155C272.287 80.4823 283.894 56.1864 302.239 36.415C314.436 23.2833 327.813 12.0696 344.929 5.28241C363.815 -2.19333 382.209 -1.40643 400.652 5.57749C425.243 14.873 443.292 32.8245 459.572 52.4975C463.162 56.8747 464.736 64.4489 464.342 70.3508C463.064 89.4336 458.736 107.976 448.014 124.304C446.735 126.271 444.129 127.353 442.112 128.878L442.751 129.419C442.997 112.697 451.506 98.0405 454.653 82.007C456.276 73.8427 453.965 67.203 447.916 61.6946C442.948 57.1698 435.473 55.8913 430.554 59.1866C424.308 63.3671 417.767 67.3507 412.406 72.5148C396.029 88.1549 380.143 104.287 364.11 120.222C366.765 107.336 373.208 96.5161 382.75 87.7616C395.783 75.761 409.209 64.2521 422.734 52.7926C431.538 45.366 432.177 37.9887 423.177 31.2999C415.111 25.2996 406.504 19.8404 397.799 14.8238C389.881 10.2499 381.323 10.0038 372.077 11.2825C352.306 13.9876 336.027 22.7422 322.256 36.6116C315.124 43.7923 308.878 51.8581 301.649 58.9404C283.746 76.4986 274.254 98.0897 269.189 122.238C266.631 134.386 269.336 145.158 276.664 154.404C283.697 163.306 291.812 171.47 300.026 179.339C303.468 182.635 308.387 186.274 312.715 186.422C320.879 186.717 319.993 177.618 323.387 172.847C324.813 170.831 326.781 169.208 328.551 167.437H328.305Z" fill="black"/>
<path d="M441.867 128.927C441.621 133.895 442.752 139.452 440.932 143.78C431.686 165.716 422.735 187.799 409.161 207.57C408.57 208.406 406.751 209.045 405.816 208.75C404.833 208.504 403.308 206.636 403.554 206.095C414.325 179.438 424.751 152.584 442.555 129.517L441.916 128.976L441.867 128.927Z" fill="black"/>
<path d="M335.24 153.027C338.24 137.19 347.29 126.665 362.782 121.796C360.225 127.452 357.372 132.96 355.257 138.764C353.634 143.141 355.749 149.535 349.798 151.404C345.224 152.879 340.109 152.535 335.24 153.027Z" fill="black"/>
<path d="M388.208 128.976C386.142 135.321 382.011 139.895 375.568 141.567C374.044 141.961 371.683 139.698 370.011 138.223C369.666 137.927 370.404 135.616 371.191 134.829C376.109 130.009 382.7 130.648 388.798 129.616L388.208 128.927V128.976Z" fill="black"/>
<path d="M373.503 358.413C374.732 371.84 372.273 383.447 358.207 389.3L358.896 389.742C360.42 377.742 364.945 367.217 374.191 359.052L373.503 358.413Z" fill="black"/>
<path d="M327.715 168.47C328.157 161.88 330.42 156.175 335.928 152.142C335.289 158.634 334.01 164.831 327.715 168.47Z" fill="black"/>
<path d="M388.799 129.665C390.717 128.337 392.586 126.911 394.651 125.829C395.143 125.583 396.324 126.518 397.16 126.911C394.209 127.6 391.209 128.288 388.258 128.977L388.848 129.665H388.799Z" fill="black"/>
<path d="M354.961 39.5624C355.404 38.4804 355.699 36.7591 356.338 36.6116C364.305 34.9394 370.453 39.0706 376.355 43.5462C376.994 44.038 376.945 46.1039 376.503 47.1367C376.06 48.1695 374.683 49.5958 373.798 49.5466C365.928 49.3499 359.682 45.858 355.01 39.5135L354.961 39.5624Z" fill="black"/>
<path d="M313.993 136.354C308.288 136.354 304.205 133.403 306.812 131.682C308.73 130.403 311.435 129.468 313.648 129.714C315.812 129.96 317.78 131.829 319.845 133.009C317.878 134.141 315.911 135.223 313.943 136.354H313.993Z" fill="black"/>
<path d="M339.52 95.5324C338.044 97.2046 336.913 99.7131 335.093 100.303C332.487 101.139 330.716 99.1228 331.06 96.2703C331.159 95.3358 332.536 93.762 333.224 93.8604C335.339 94.0571 337.405 94.9422 339.52 95.5324Z" fill="black"/>
<path d="M52.5918 260.097C53.3295 250.113 59.0838 245.145 68.6743 244.014C64.9365 251.047 60.3134 257.097 52.5918 260.097Z" fill="black"/>
<path d="M191.481 301.853C189.464 302.738 187.546 303.82 185.431 304.312C184.644 304.509 183.464 303.23 182.48 302.64C183.71 301.214 184.743 299.541 186.218 298.558C186.907 298.066 188.677 298.558 189.612 299.197C190.448 299.738 190.841 300.967 191.432 301.902L191.481 301.853Z" fill="black"/>
<path d="M239.434 327.674C237.712 326.395 235.991 325.067 234.27 323.788C236.188 322.657 238.106 320.592 239.975 320.69C241.794 320.788 243.467 323.051 245.237 324.379C243.319 325.461 241.401 326.592 239.434 327.674Z" fill="black"/>
<path d="M149.528 337.756C148.84 337.51 147.561 337.215 147.512 336.969C147.512 336.133 148.004 335.346 148.299 334.51C148.987 334.756 150.315 335.051 150.315 335.297C150.315 336.133 149.823 336.969 149.528 337.805V337.756Z" fill="black"/>
<path d="M276.959 305.591L278.533 302.738L279.664 305.837L276.959 305.591Z" fill="black"/>
<path d="M131.529 286.705C130.644 286.95 129.807 287.393 128.971 287.295C128.725 287.295 128.529 285.967 128.332 285.229C129.217 284.983 130.053 284.541 130.939 284.59C131.185 284.59 131.381 285.918 131.578 286.656L131.529 286.705Z" fill="black"/>
</svg>
