<svg width="377" height="545" viewBox="0 0 377 545" fill="none" xmlns="http://www.w3.org/2000/svg">
<path d="M169.344 35.153C175.394 37.6613 180.607 41.4484 183.213 47.4486C186.804 55.5146 190.542 63.7283 192.46 72.286C200.476 108.14 206.083 144.387 208.542 181.176C209.624 197.308 202.69 207.833 189.017 214.768C182.279 218.161 175.098 220.719 168.557 224.408C163.639 227.211 162.705 232.965 163.738 237.834C164.426 241.031 167.721 245.703 170.328 245.998C180.312 247.228 190.542 248.015 200.526 247.081C220.788 245.162 240.806 244.916 261.069 247.523C276.069 249.441 291.463 248.409 306.66 248.31C327.808 248.163 346.301 255.934 363.711 266.852C373.056 272.705 377.384 281.853 376.056 292.87C375.171 300.345 373.843 308.018 371.138 314.952C367.892 323.363 362.235 330.297 352.743 332.757L353.186 333.347C348.219 322.871 346.793 321.838 340.399 323.461C328.104 326.609 315.759 329.461 303.513 332.806C282.463 338.658 260.823 337.232 239.379 338.954C193.64 342.691 147.95 341.757 102.162 340.724C77.8167 340.183 54.308 335.314 31.0941 328.281C26.2251 326.806 21.454 325.182 16.5359 323.904C15.6506 323.658 13.7325 324.641 13.4866 325.428C12.8472 327.543 11.9619 330.298 12.798 332.019C16.2899 339.445 23.3234 343.085 30.5532 345.396C51.2096 351.987 72.2099 356.512 94.145 356.217C144.999 355.528 195.853 355.38 246.658 354.594C255.462 354.446 264.265 352.43 273.02 351.102C289.397 348.593 305.726 346.036 322.3 348.544L321.71 347.905C318.661 350.069 315.906 353.364 312.513 354.249C292.889 359.561 273.069 363.397 252.462 363.348C230.92 363.299 209.329 364.578 187.788 365.857C177.951 366.447 171.607 373.332 171.115 383.316C170.721 390.841 171.213 398.464 172.049 405.989C172.246 407.711 175.64 410.465 177.41 410.416C184.935 410.072 192.46 409.137 199.886 407.809C214.887 405.104 229.74 401.71 244.74 399.104C254.527 397.431 265.741 402.35 267.659 408.694C270.364 417.695 269.725 426.449 262.839 433.531C260.282 436.187 256.741 437.859 253.642 439.974C251.134 435.745 248.724 431.515 246.068 427.384C241.002 419.416 237.166 418.432 227.625 422.859C225.559 423.793 223.248 425.761 222.657 427.728C222.264 429.056 224.33 431.81 225.953 432.892C234.56 438.351 244.298 439.434 254.282 439.286C260.774 446.467 269.183 448.532 278.43 448.335C291.315 448.09 303.414 444.302 315.611 440.614C328.94 436.581 342.121 431.564 356.383 431.564C361.842 431.564 366.22 433.138 369.859 438.843C368.826 451.778 367.793 465.697 366.613 479.566C366.269 483.55 362.236 487.583 359.186 486.649C355.694 485.567 351.268 484.386 349.498 481.779C346.793 477.746 346.104 472.386 344.432 467.664C342.219 461.369 338.481 458.418 333.759 459.156C332.53 459.352 331.251 459.5 330.021 459.795C289.348 469.877 248.232 478.14 208.444 491.469C196.591 495.452 187.935 500.666 187.689 514.978C187.591 521.125 185.033 527.372 182.722 533.224C181.394 536.618 178.689 539.766 175.935 542.274C174.312 543.701 171.213 544.438 169.049 544.045C166.983 543.651 164.033 541.586 163.639 539.815C160.983 527.519 158.77 515.076 156.606 502.682C155.672 497.272 159.902 489.796 165.803 487.288C175.148 483.353 184.738 480.107 194.181 476.32C203.525 472.582 213.854 471.107 221.723 464.369C223.149 461.221 222.559 458.811 219.707 457.877C204.018 452.811 188.329 447.696 172.541 442.975C162.705 440.024 152.475 438.892 142.393 441.597C121.54 447.155 100.735 453.008 80.0299 459.106C73.6854 460.975 68.9148 465.795 66.5541 471.796C63.3081 480.009 61.2916 488.714 58.5374 497.124C56.7668 502.436 51.062 506.027 47.0782 504.699C42.7994 503.272 39.2579 498.354 39.2579 492.846C39.2579 485.222 38.9138 477.501 40.0449 470.074C41.9139 458.024 48.0124 448.729 60.3571 444.794C73.6854 440.565 86.9645 436.335 100.342 432.253C110.08 429.253 119.818 426.4 129.605 423.597C139.687 420.695 143.573 413.416 143.868 403.629C144.065 397.284 144.212 390.89 144.016 384.595C143.622 373.136 136.835 366.152 124.589 365.463C108.113 364.529 91.5876 364.184 75.0624 363.84C58.3898 363.496 42.1104 360.987 26.323 355.823C21.5524 354.249 16.5854 352.331 12.6509 349.331C8.76552 346.38 4.53566 342.347 3.20775 337.921C-2.6449 318.297 -2.20217 296.509 19.2903 284.508C20.3231 283.918 21.7985 283.377 22.8805 283.672C26.3232 284.509 26.9135 286.623 24.8479 289.525C24.1102 290.558 23.4215 291.64 22.8805 292.82C18.5525 302.854 19.4868 308.067 25.8313 312.592C34.2414 318.592 43.2909 323.264 53.5207 324.642C92.5712 329.904 131.769 334.035 171.263 331.773C177.607 331.428 184.05 331.33 190.247 330.297C217.985 325.576 245.871 324.592 273.856 326.068C297.365 327.297 319.251 321.74 340.104 311.46C344.629 309.247 348.809 306.247 352.842 303.198C363.072 295.476 361.842 281.607 350.383 274.869C332.53 264.344 313.152 258.097 292.495 257.753C256.937 257.163 221.329 257.458 185.722 257.507C181.935 257.507 178 257.507 174.361 258.491C164.623 261.048 155.18 265.671 145.344 266.606C135.458 267.54 125.228 263.999 115.195 264.196C105.113 264.344 95.0796 266.704 84.9973 267.983C74.9642 269.311 64.8818 270.492 54.7995 271.77L55.3897 272.459C67.8819 263.016 82.44 259.081 97.4897 256.278C104.916 254.851 112.343 253.081 119.622 250.917C125.671 249.146 129.31 242.654 129.113 236.064C128.966 230.457 126.261 226.277 121.834 223.522C118.687 221.506 114.801 220.67 111.309 219.194C105.506 216.686 99.6532 214.227 93.9481 211.473C82.6363 206.062 76.2921 197.308 76.4397 184.471C76.4889 178.127 76.2428 171.733 76.9314 165.438C83.2758 109.763 96.3581 55.8096 115.539 5.0041C123.703 -1.73391 131.818 0.282766 138.999 0.282766C155.18 0.282766 164.082 8.49615 168.016 24.7756C168.902 28.4643 169.197 32.3004 169.738 36.0875C163.541 29.8413 157.492 23.3492 151 17.349C147.213 13.857 140.622 15.5293 137.475 19.6115C130.294 28.9561 126.999 39.9731 124.54 51.0392C118.982 75.778 113.277 100.566 109.441 125.649C106.391 145.666 105.408 166.077 108.162 186.389C109.293 194.554 114.802 201.242 121.982 202.718C131.917 204.784 141.901 206.702 151.885 208.472C163.59 210.538 174.508 208.128 184.984 202.57C192.607 198.538 196.886 192.291 196.148 184.373C191.82 138.928 188.279 93.3851 171.508 50.2028C169.738 45.5797 169.934 40.2189 169.197 35.2022L169.344 35.153ZM97.0466 121.222C94.1941 129.977 91.1453 137.846 88.9813 145.961C85.3418 159.536 84.6532 173.356 87.6533 187.176C87.85 188.111 89.7681 189.635 90.0632 189.488C91.7353 188.504 94.6367 186.93 94.5383 185.848C93.2104 171.831 94.44 158.159 97.7352 144.486C99.4566 137.256 100.637 129.583 97.0958 121.272L97.0466 121.222Z" fill="black"/>
<path d="M352.841 332.707C346.89 346.626 334.89 348.249 321.906 347.954L322.496 348.593C330.169 338.265 341.087 334.527 353.284 333.297L352.841 332.707Z" fill="black"/>
<path d="M54.9957 271.672C53.3235 273.246 51.7988 275.016 49.9791 276.344C49.5364 276.688 48.1591 275.754 47.2246 275.41C48.8476 271.278 52.4874 272.606 55.5859 272.311L54.9957 271.623V271.672Z" fill="black"/>
</svg>
