<svg width="500" height="609" viewBox="0 0 500 609" fill="none" xmlns="http://www.w3.org/2000/svg">
<path d="M463.775 453.204C446.07 446.269 438.299 437.17 435.889 423.596C434.807 417.35 433.873 411.054 432.643 404.808C430.332 392.758 423.446 384.545 412.577 378.594C399.347 371.364 386.756 362.905 371.559 353.56C348.247 361.626 334.722 385.873 312.738 397.922C290.507 410.12 267.834 421.53 242.506 434.76C239.358 454.04 235.768 475.188 232.424 496.336C227.456 527.715 222.735 559.143 217.62 590.521C216.39 598.095 214.423 605.817 205.325 607.883C198.636 609.407 190.865 600.358 191.357 588.8C192.242 565.93 194.751 543.158 196.324 520.338C197.21 507.058 194.258 502.091 181.815 496.829C140.798 479.467 99.7312 462.351 58.5659 445.334C53.992 443.465 48.8275 442.974 41.5978 441.302C38.6961 448.236 34.8602 454.581 33.3848 461.417C29.7945 477.549 27.8763 494.025 24.0401 510.059C23.1057 513.895 17.5973 518.567 13.6136 519.206C6.38383 520.338 1.56405 514.534 1.36732 507.796C1.12141 496.435 1.6128 484.877 3.38335 473.663C7.95727 444.793 12.6787 415.874 18.7281 387.299C22.0724 371.462 21.8267 359.265 9.62955 345.69C-7.0923 327.001 -1.19037 303.738 20.7939 291.59C32.9911 284.852 46.0737 279.54 59.2053 274.868C90.3374 263.753 121.715 253.326 153.044 242.85C162.684 239.604 172.372 235.964 182.356 234.637C190.717 233.505 199.521 235.424 208.62 236.063C222.538 214.964 229.718 192.093 235.719 168.683C238.817 156.436 242.309 144.239 246.539 132.337C258.834 97.6138 271.622 63.0877 284.163 28.4632C284.606 27.2828 284.802 26.0041 285.196 24.7745C292.77 2.44566 298.426 -1.68533 321.394 0.527878C336.591 2.00335 351.739 4.16712 366.739 7.01971C410.314 15.2824 453.791 24.037 499.432 32.9882C498.694 42.2345 499.482 49.8086 497.318 56.3499C485.12 93.827 472.333 131.107 459.448 168.388C455.71 179.159 453.398 191.799 446.217 199.766C429.545 218.259 430.381 239.358 433.676 260.605C439.135 295.771 446.267 330.641 453.054 365.56C457.628 389.217 463.136 412.727 467.464 436.482C468.251 440.81 465.448 445.777 463.628 453.204H463.775ZM353.018 328.624C324.542 344.756 295.967 360.642 267.736 377.167C263.802 379.479 260.802 384.446 258.982 388.873C257.851 391.627 259.818 395.66 260.359 398.857C263.949 399.054 267.048 400.234 268.671 399.201C292.868 383.315 317.066 367.331 340.87 350.806C348.394 345.592 352.526 337.625 352.624 328.083C357.346 328.624 362.116 329.657 366.838 329.51C368.067 329.51 370.084 325.919 370.084 324.001C370.084 322.87 366.149 320.362 365.166 320.854C360.887 322.968 357.002 326.018 353.018 328.673V328.624ZM307.918 15.4303C301.869 27.0866 295.868 36.6768 291.786 47.0543C281.655 73.0227 272.458 99.2865 262.867 125.452C260.703 131.403 258.146 137.255 256.474 143.354C252.736 157.174 256.572 165.83 269.163 171.043C276.146 173.945 283.622 175.519 290.95 177.634C316.476 185.061 342.001 192.487 367.576 199.816C374.855 201.881 382.133 204.291 389.609 205.422C403.921 207.636 411.348 204.242 416.905 190.815C433.479 151.124 449.906 111.336 465.103 71.1047C472.53 51.3825 466.136 40.3162 443.955 35.2012C414.348 28.3156 384.347 23.1519 354.297 18.4304C339.542 16.1188 324.345 16.414 307.869 15.4303H307.918ZM346.132 304.475C342.493 302.115 338.804 298.574 334.476 297.098C293.655 283.475 252.785 270.146 211.816 256.916C205.816 254.998 199.374 253.277 193.177 253.375C180.586 253.572 167.159 252.588 155.602 256.523C123.24 267.539 91.6162 280.77 59.8447 293.459C58.1725 294.147 57.5818 297.639 55.6145 301.574C62.5 306.197 68.9923 312.739 76.8122 315.394C127.273 332.51 178.029 348.789 228.686 365.266C240.047 368.954 251.457 368.757 261.835 362.56C288.983 346.281 315.984 329.707 342.837 312.935C344.46 311.952 344.608 308.558 346.083 304.475H346.132ZM49.3689 371.413C61.1234 380.463 68.0086 388.676 76.763 392.021C116.994 407.464 157.618 421.727 198.34 435.744C201.537 436.826 206.407 432.99 213.341 430.383C202.324 419.17 193.914 410.661 185.111 401.66C191.406 392.119 196.619 384.201 202.619 375.004C176.209 358.921 148.618 353.658 122.699 344.117C108.141 338.756 95.0097 341.166 82.5175 348.1C72.7303 353.51 64.0251 360.938 49.3197 371.413H49.3689ZM375.936 294.59C386.756 271.573 396.494 252.686 396.986 231.292C367.674 213.635 320.115 204.291 274.228 206.848C268.573 222.734 279.097 235.62 283.179 249.588C286.278 260.064 293.508 266.9 303.787 270.343C326.558 278.016 349.329 285.639 375.887 294.59H375.936ZM198.291 485.959C200.603 475.729 203.603 469.631 202.669 464.221C201.98 460.385 196.57 456.253 192.34 454.384C178.422 448.138 164.159 442.679 149.896 437.22C115.863 424.285 81.7792 411.497 48.188 398.857C40.3681 409.136 41.8929 417.35 49.5652 423.989C54.2867 428.071 60.1397 431.071 65.9432 433.58C96.2884 446.81 126.584 460.04 157.224 472.631C168.881 477.401 181.225 480.451 198.34 485.91L198.291 485.959ZM413.413 344.461C414.347 342.739 416.413 340.035 415.921 339.445C414.593 337.822 412.135 337.034 410.167 335.952C409.184 337.772 408.151 339.543 407.167 341.362C409.233 342.395 411.298 343.428 413.413 344.461ZM21.9743 317.509C21.3841 318.296 20.7447 319.083 20.1545 319.919C21.4825 320.558 22.7614 321.148 24.0893 321.788C24.2861 320.804 24.8761 319.624 24.5318 318.886C24.1875 318.198 22.8595 317.952 21.9743 317.509ZM69.4349 331.28L69.238 333.789L71.894 332.707L69.4349 331.28Z" fill="black"/>
</svg>
