<svg width="353" height="508" viewBox="0 0 353 508" fill="none" xmlns="http://www.w3.org/2000/svg">
<path d="M0 450.43C0.491819 446.004 0.787055 442.168 1.37724 438.43C2.21333 433.069 4.96776 428.643 10.2302 427.118C27.5423 422.15 42.7396 412.707 58.281 404.1C59.904 403.215 60.4942 400.264 61.2811 398.199C61.3302 398.002 59.2645 396.576 58.0841 396.428C54.2971 395.936 50.5098 395.641 46.7228 395.543C41.6571 395.395 36.5422 395.739 31.4273 395.543C21.0007 395.149 15.1485 388.264 17.1158 377.837C18.0011 373.017 20.3126 368.296 22.6242 363.869C24.8865 359.541 32.8044 357.771 35.7061 361.656C43.7228 372.378 54.4941 373.116 66.3469 372.476C79.1834 371.837 91.7246 370.312 103.676 365.394C108.545 363.377 112.381 360.23 113.414 354.672C115.725 342.18 118.086 329.736 120.25 317.195C120.939 313.162 116.856 306.817 113.266 304.457C105.495 299.391 96.8397 297.866 87.8886 297.079C69.4946 295.456 53.9037 286.849 39.1 276.767C28.9685 269.881 24.1489 259.996 23.9522 247.553C23.7063 230.732 28.0339 214.649 32.1652 198.763C35.8046 184.697 46.8706 175.058 59.3137 168.172C69.3468 162.614 80.5112 160.008 92.0198 158.434C119.758 154.745 147.3 149.827 175.481 151.302C182.17 151.647 187.728 148.45 190.531 141.761C194.466 132.367 198.4 122.973 202.187 113.53C205.433 105.464 202.187 99.1689 192.843 96.2179C186.842 94.2998 180.646 92.6768 174.449 91.6439C164.12 89.8734 155.218 85.2502 146.71 79.5451C143.366 77.2827 139.824 69.6594 140.808 66.1674C144.742 52.7406 148.628 39.3629 152.907 26.0345C161.514 -0.671634 163.58 -3.08158 193.63 2.37768C233.565 9.60751 273.107 19.7883 313.781 23.0343C323.765 23.8213 333.552 27.5099 343.29 30.2642C348.749 31.838 351.159 36.6579 351.897 41.8221C353.372 52.052 352.536 62.1836 348.798 71.8726C345.601 80.1844 342.306 88.4963 338.224 96.3655C334.781 103.054 330.208 109.153 326.125 115.497C313.83 117.514 302.075 124.4 288.993 119.432C284.222 117.661 279.452 115.94 274.534 114.612C246.205 106.94 243.942 104.087 233.86 135.466C232.68 139.105 231.303 142.646 229.877 146.187C226.139 155.237 227.466 158.385 238.581 163.057C243.254 165.024 248.369 166.008 252.992 168.074C269.812 175.746 278.173 189.861 278.469 207.518C278.665 220.06 277.288 233.29 273.255 245.093C262.681 276.078 241.189 296.489 208.876 304.358C200.269 306.473 191.269 307.211 182.908 309.965C178.432 311.441 172.826 315.08 171.399 319.064C167.071 330.917 162.055 342.721 162.055 355.852C162.055 363.918 165.399 371.001 173.17 374.05C185.023 378.673 196.974 382.854 209.122 386.69C218.073 389.542 226.581 386.296 235.188 383.837C240.451 382.313 245.32 384.673 248.615 388.903C256.09 398.641 253.68 414.871 243.45 423.036C240.106 425.692 235.926 424.56 233.172 421.855C221.515 410.396 206.564 407.74 191.367 405.871C189.006 405.576 186.055 406.068 184.088 407.347C182.268 408.527 180.055 411.281 180.203 413.101C182.121 432.479 191.465 449.152 199.384 466.513C205.63 480.137 202.482 493.76 194.269 506.105C193.728 506.941 191.908 507.58 190.924 507.335C188.711 506.794 185.121 506.007 184.777 504.679C181.924 493.318 176.219 483.875 168.596 474.923C157.776 462.234 151.53 446.742 145.333 431.348C143.464 426.675 140.71 422.347 138.152 418.019C136.087 414.478 128.464 411.576 124.677 412.904C103.086 420.38 81.4947 427.954 59.9038 435.528C51.4937 438.479 43.2804 443.594 34.7719 444.086C20.5092 444.922 14.6071 451.414 13.6235 464.742C13.5251 466.169 10.1808 467.792 8.11513 468.431C5.31177 469.267 3.19718 467.644 2.21355 464.742C1.82009 463.562 1.18077 462.382 1.03323 461.152C0.590591 457.365 0.295139 453.578 0.0492299 450.43H0ZM154.382 167.533C128.463 166.106 103.331 168.467 78.9372 175.844C70.6746 178.353 62.9528 183.074 55.3296 187.353C49.6245 190.55 48.8382 199.895 53.4121 203.731C55.3302 205.354 57.248 207.026 59.2644 208.551C89.6589 231.667 125.71 238.552 162.252 242.29C184.777 244.602 207.646 242.438 230.319 240.028C247.484 238.159 257.763 228.47 263.566 213.125C265.927 206.879 264.845 200.829 260.664 195.321C252.598 184.648 241.139 179.386 228.893 175.943C204.4 169.106 179.416 165.86 154.431 167.582L154.382 167.533ZM268.632 97.7426C284.469 99.1197 292.485 94.4473 297.698 84.2666C303.502 72.8562 307.436 60.9049 308.272 48.1174C308.42 46.1501 305.961 43.8385 304.485 41.9204C303.748 40.986 302.518 40.199 301.387 39.9531C262.976 31.7396 224.565 23.5262 186.105 15.6078C177.154 13.7388 168.792 19.2473 165.546 28.6411C162.251 38.2317 159.448 47.9699 156.596 57.708C155.415 61.7902 158.71 69.0692 162.694 70.5446C173.367 74.4792 183.99 78.8073 194.957 81.6107C214.581 86.5781 234.5 90.5619 254.32 94.89C260.517 96.2179 266.714 97.4475 268.681 97.841L268.632 97.7426ZM39.6409 230.732C39.6409 241.257 39.2967 246.372 39.7394 251.389C40.182 256.553 42.1985 261.225 46.5265 264.422C55.7235 271.308 65.6087 277.308 76.8713 279.62C102.889 284.98 128.906 291.079 155.218 294.374C186.301 298.26 215.86 292.751 239.959 270.472C242.615 268.012 244.287 264.324 246.156 261.078C246.697 260.094 246.943 258.274 246.402 257.487C245.123 255.717 243.008 252.815 241.68 253.012C220.483 256.405 199.187 256.799 177.793 256.7C171.497 256.7 165.006 258.323 158.858 257.34C122.562 251.438 86.4131 244.798 54.5924 224.486C51.5431 222.519 47.9034 221.289 44.4606 220.06C43.7229 219.814 41.8051 220.748 41.6575 221.437C40.428 226.257 39.5425 231.175 39.6409 230.683V230.732ZM335.569 55.3473C335.175 54.2161 334.979 52.9373 334.388 51.9045C333.798 50.8716 332.814 49.1503 332.126 49.1994C329.863 49.3962 326.372 49.5929 325.634 51.0192C318.011 65.3805 312.797 80.5779 310.141 96.6114C309.895 98.2344 312.207 101.284 313.928 101.874C315.748 102.513 319.289 101.726 320.469 100.251C329.912 88.152 334.388 74.0858 336.06 58.9868C336.208 57.8064 335.765 56.5276 335.618 55.2981L335.569 55.3473Z" fill="black"/>
</svg>
