<svg width="396" height="537" viewBox="0 0 396 537" fill="none" xmlns="http://www.w3.org/2000/svg">
<path d="M395.127 9.63958C395.127 21.4926 396.406 29.116 394.881 36.1983C390.897 54.8384 385.832 73.2328 381.061 91.6763C371.963 126.743 351.158 152.564 319.829 170.762C310.141 176.418 300.993 184.041 293.862 192.648C288.452 199.14 285.698 208.337 283.485 216.747C281.419 224.715 284.96 232.141 292.485 235.978C299.223 239.42 306.895 240.945 313.731 244.191C329.568 251.716 336.06 264.503 333.06 281.471C332.42 285.209 331.682 289.193 329.863 292.39C317.616 314.227 321.354 336.212 327.502 358.885C333.453 380.968 337.88 403.444 342.503 425.871C345.208 438.806 341.421 448.348 324.354 451.348C316.436 434.675 313.829 416.035 308.911 398.428C304.19 381.558 302.96 363.655 299.911 344.179C277.828 348.606 256.139 352.983 233.761 357.507C226.04 376.393 229.729 395.329 231.106 414.067C233.712 449.479 236.27 484.94 238.532 520.4C238.778 523.942 237.45 528.22 235.335 531.023C233.27 533.679 229.237 536.335 226.138 536.237C223.089 536.139 218.072 532.991 217.531 530.384C213.351 510.662 208.58 490.891 206.76 470.873C204.596 446.872 205.334 422.576 204.498 398.428C204.105 387.017 204.154 375.361 201.744 364.344C200.662 359.426 194.613 353.229 189.793 352.147C184.825 351.016 176.366 353.77 173.366 357.754C165.792 367.787 160.53 379.591 154.136 390.559C151.185 395.673 150.939 395.526 133.283 400.985C137.316 380.624 153.054 364.098 147.89 341.671C135.447 333.802 121.676 329.08 103.282 331.293C94.4293 346.884 85.3301 363.459 75.7397 379.738C65.4115 397.247 54.7392 414.609 44.0176 431.872C34.5746 447.119 31.9679 467.726 12.541 475.742C4.37683 466.791 8.99983 459.857 12.4426 453.365C29.8038 420.855 47.5587 388.542 64.9199 355.983C70.7233 345.065 75.7397 333.703 80.6578 323.424C54.0013 304.145 29.4107 286.783 5.40989 268.586C2.1147 266.077 2.01646 259.389 0 253.339C15.7382 236.076 33.4925 223.043 57.3949 219.551C64.9197 218.469 72.3463 216.452 79.6252 214.337C98.0684 209.075 116.118 206.419 135.89 209.37C165.841 213.845 181.432 198.845 182.907 168.942C183.547 156.548 179.612 145.875 169.038 139.383C140.808 122.022 140.611 96.2994 147.84 68.9048C154.333 44.3135 164.267 21.0993 181.727 0C250.483 18.5418 320.174 13.5249 395.029 9.54112L395.127 9.63958ZM28.4759 249.798C39.05 256.536 49.7229 263.225 60.2478 270.061C72.9368 278.324 84.5437 289.488 98.413 294.554C128.119 305.423 158.858 313.489 189.4 321.998C206.367 326.719 224.564 326.375 240.499 335.917C245.466 338.917 252.844 339.261 258.942 338.671C284.714 336.212 311.371 311.276 317.174 285.111C319.338 275.274 315.846 267.504 307.78 262.094C303.649 259.34 298.534 258.061 294.009 255.897C270.598 244.683 264.648 232.683 269.812 207.354C275.222 180.697 289.681 160.876 314.518 149.466C333.65 140.662 349.781 128.612 358.142 108.989C366.061 90.3484 373.094 71.2164 378.602 51.7401C380.717 44.2152 377.618 35.2639 376.536 22.1321C313.436 32.9523 253.287 25.2306 194.613 18.4434C174.202 37.3787 166.382 60.3469 158.169 82.9216C152.267 99.2011 156.546 112.53 171.448 122.465C185.268 131.662 196.678 143.367 205.482 159.499C201.399 169.729 197.072 180.106 193.088 190.681C186.547 208.239 171.743 215.075 155.415 219.354C149.365 220.928 142.677 221.42 136.48 220.682C104.954 216.944 76.6254 229.781 47.3622 237.503C40.5751 239.273 35.1154 245.863 29.0168 250.241C28.5742 252.208 28.1813 254.224 27.7387 256.192C27.9846 254.028 28.1808 251.864 28.4267 249.749L28.4759 249.798ZM50.313 280.291C48.5424 279.848 46.7721 279.455 44.9523 279.012C45.0999 280.045 44.9523 281.668 45.4933 281.914C47.1163 282.652 49.0341 282.898 50.8047 283.34C50.608 282.308 50.4605 281.324 50.2638 280.291H50.313Z" fill="black"/>
<path d="M233.319 213.55C223.631 213.55 217.876 213.944 212.269 213.304C210.745 213.108 209.515 209.862 208.188 207.993C210.253 206.763 212.221 204.845 214.434 204.451C220.581 203.418 226.434 204.009 233.319 213.55Z" fill="black"/>
</svg>
