<svg width="666" height="586" viewBox="0 0 666 586" fill="none" xmlns="http://www.w3.org/2000/svg">
<path d="M551.183 159.638C552.314 140.85 544.396 127.227 526.74 120.882C500.329 111.39 475.492 98.5042 450.065 86.9463C438.556 81.6838 426.015 78.7328 414.212 74.0605C406.293 70.9128 399.654 72.7326 392.473 76.3229C387.506 78.782 383.227 74.3064 383.866 68.1586C384.555 61.7157 385.588 55.1744 392.768 52.7645C402.31 49.5676 411.064 43.5673 421.785 44.1575C432.753 44.7477 441.065 41.7476 447.065 31.2225C451.54 23.3533 456.312 16.4678 454.934 6.87719C454.443 3.28687 459.36 -0.647734 462.508 0.0900038C471.066 2.15567 479.919 3.68033 488.083 6.77882C516.609 17.599 544.494 30.0913 573.315 39.9278C602.382 49.8627 628.891 65.0601 656.875 77.2082C662.58 79.6673 666.613 86.9463 664.941 92.8974C659.088 113.948 659.088 135.539 657.514 157.13C656.531 170.901 652.695 184.574 649.006 197.951C645.563 210.296 642.219 222.346 644.727 235.428C645.318 238.428 642.416 242.265 640.792 245.56C639.022 249.15 637.546 253.626 640.645 256.085C647.481 261.495 638.924 268.282 642.76 272.905C646.449 277.381 645.809 282.201 646.842 287.07C648.268 293.71 648.17 299.562 643.202 304.677C638.53 309.497 636.612 315.596 636.711 322.088C636.907 332.22 635.678 342.991 638.629 352.335C645.416 373.73 643.596 395.075 641.53 416.568C640.104 431.716 637.694 446.766 635.776 461.865C635.235 465.996 633.464 466.488 627.12 464.57C623.579 463.488 619.89 462.799 616.3 461.717C610.841 460.045 608.185 455.618 607.3 450.553C606.464 445.634 606.267 440.47 606.759 435.503C607.448 429.207 609.267 423.06 610.3 416.813C611.136 411.846 605.824 406.338 601.299 407.125C563.823 413.863 526.248 419.863 489.755 431.322C484.984 432.847 479.869 433.486 474.853 434.027C445.786 437.372 417.113 442.88 389.031 451.192C385.391 452.274 381.801 454.045 378.063 454.487C336.258 459.258 296.863 475.291 255.305 481.144C245.075 482.57 235.484 485.571 226.435 490.44C221.664 492.997 218.32 497.03 217.386 502.096C213.943 520.785 211.09 539.622 207.893 558.361C206.811 564.607 205.533 570.755 203.959 576.903C202.877 581.181 196.827 585.362 192.499 585.411C186.843 585.46 179.811 579.509 179.27 573.902C178.925 570.165 178.138 566.082 179.122 562.64C183.499 547.786 182.466 532.245 185.417 517.392C187.876 504.998 184.384 495.85 177.794 485.767C173.318 478.882 169.04 474.505 161.121 472.045C138.104 464.914 109.727 449.274 90.2998 436.388C72.3484 424.486 53.5116 413.813 34.9209 402.944C33.4454 402.059 30.4449 403.436 28.3793 404.223C27.7891 404.469 27.4453 406.436 27.5928 407.518C28.8224 414.945 30.9373 422.322 31.3799 429.798C32.3144 447.061 22.3793 457.979 8.3133 465.75C7.18212 466.389 3.19863 464.324 2.41172 462.652C0.887077 459.356 -0.0473313 455.422 0.00185061 451.782C0.198578 430.142 0.690301 408.551 1.13294 386.911C1.18212 384.353 0.837631 381.697 1.52618 379.287C10.0346 349.483 8.21475 318.793 9.34593 288.349C9.34593 287.07 9.346 285.447 10.0346 284.66C11.6084 282.939 13.5756 280.43 15.4937 280.283C40.7732 278.512 65.7575 274.135 91.037 271.774C130.137 268.086 168.893 260.413 207.795 254.56C235.386 250.429 262.682 244.134 290.667 242.707C297.011 242.363 303.306 241.379 309.552 240.199C346.636 233.117 347.128 232.674 362.128 199.23C364.243 194.508 363.161 189.246 358.833 185.656C355.931 183.246 352.242 181.721 349.488 179.114C345.603 175.475 343.586 170.606 345.062 165.343C347.127 158.064 349.439 150.785 352.439 143.801C355.931 135.637 359.964 127.62 364.39 119.948C366.063 117.046 369.259 114.784 372.21 112.964C374.227 111.685 375.604 118.226 373.882 123.292C370.587 132.932 367.096 142.473 363.948 152.113C361.046 161.064 363.751 167.606 371.571 170.999C390.211 179.164 408.802 187.475 427.589 195.246C451.049 204.984 474.755 214.231 498.313 223.772C506.821 227.215 513.756 224.756 517.297 216.887C523.592 203.017 529.838 189.098 536.182 175.278C539.478 168.097 544.593 162.638 551.576 158.95C551.183 167.852 550.052 176.557 545.872 184.721C541.249 193.771 536.871 202.919 532.691 212.165C531.707 214.329 531.314 217.182 531.806 219.493C532.248 221.657 533.822 224.51 535.642 225.346C538.937 226.871 542.823 227.805 546.511 227.805C562.053 227.756 567.659 223.723 572.922 210.935C580.201 193.23 582.562 174.245 587.726 155.999C588.021 154.917 587.726 153.343 587.135 152.31C586.004 150.195 584.922 147.293 583.004 146.359C577.053 143.457 570.463 142.916 564.905 146.851C559.839 150.441 555.659 155.359 551.085 159.687L551.183 159.638ZM444.114 358.68C437.573 359.417 433.835 360.155 430.048 360.204C426.999 360.204 425.523 358.286 426.113 355.68C426.359 354.598 427.048 353.024 427.884 352.729C437.426 349.384 446.967 346.04 456.656 343.089C463.885 340.876 471.361 339.351 478.64 337.236C482.279 336.203 485.771 334.679 489.214 333.154C490.247 332.711 491.87 331.236 491.722 330.695C491.034 328.383 490.296 325.088 488.575 324.252C461.18 311.022 433.589 298.234 406.146 285.103C386.67 275.758 367.439 266.02 348.111 256.429C339.898 252.347 331.291 250.773 322.241 252.986C291.306 260.413 259.387 260.462 228.205 266.315C203.319 270.938 177.794 272.02 152.957 276.84C124.284 282.398 95.4635 286.234 66.5445 289.923C65.3642 290.07 63.9874 290.808 63.2497 291.693C62.7087 292.382 62.6102 294.349 63.102 294.841C66.7415 298.185 70.2331 302.12 74.512 304.431C103.578 319.973 132.842 335.171 162.007 350.515C182.221 361.139 202.484 371.713 222.55 382.632C229.583 386.468 236.714 388.238 244.436 386.763C279.256 380.074 314.028 373.09 348.849 366.549C352.341 365.91 356.177 367.09 359.816 367.729C360.751 367.926 361.98 369.254 362.177 370.188C362.374 371.27 361.98 373.139 361.144 373.73C358.144 375.894 354.996 379.14 351.701 379.336C319.831 381.402 289.732 392.616 258.452 397.583C254.911 398.124 251.026 400.042 248.419 402.501C234.943 415.24 228.599 431.519 227.074 449.667C226.927 451.241 229.878 454.094 231.796 454.586C235.386 455.52 239.468 455.864 243.058 455.127C264.157 450.799 285.207 445.979 306.257 441.552C353.373 431.617 400.736 422.568 447.36 410.371C455.918 408.108 464.574 405.846 472.885 402.846C476.181 401.665 479.525 398.862 481.443 395.911C489.41 383.861 491.132 369.943 491.87 355.975C491.919 354.794 488.23 352.532 486.066 352.188C470.427 349.63 456.901 361.188 444.016 358.876L444.114 358.68ZM38.4126 303.989C30.0517 300.89 26.4122 303.694 26.1171 310.53C25.7237 319.383 25.9698 328.334 25.0845 337.138C23.7074 351.253 29.5107 361.68 40.2815 369.943C43.2816 372.254 46.3801 374.516 49.5278 376.631C91.5291 405.501 138.744 424.486 184.139 446.864C187.04 448.29 192.008 447.749 195.057 446.225C201.795 442.831 207.992 438.355 214.336 434.126C220.189 430.191 221.615 424.092 221.812 417.551C222.009 410.961 219.894 405.059 215.763 399.993C206.713 388.878 194.565 382.14 182.024 375.795C148.039 358.68 113.76 342.105 80.4634 323.809C65.9055 315.793 50.708 309.792 38.3634 304.038L38.4126 303.989ZM518.133 316.924C521.527 315.055 524.724 314.415 525.56 312.645C534.707 293.119 543.56 273.496 552.364 253.823C554.429 249.199 549.953 244.084 544.199 244.281C539.133 244.478 533.527 243.543 529.15 245.363C515.821 250.97 504.608 246.15 492.854 240.592C475.689 232.428 458.033 225.297 440.672 217.526C385.342 192.787 397.933 197.509 368.178 240.888C365.718 244.478 366.653 248.904 369.997 250.626C382.391 257.019 394.686 263.757 407.326 269.659C434.917 282.545 462.607 295.234 490.493 307.481C499.69 311.514 509.526 314.071 518.182 316.973L518.133 316.924ZM627.317 175.868C627.317 168.196 627.464 159.294 627.169 150.392C627.12 148.72 625.104 147.097 624.022 145.424C623.087 146.211 621.71 146.752 621.317 147.736C616.349 160.769 609.07 173.557 607.201 187.033C604.89 204.296 597.906 218.854 587.873 231.838C573.462 250.429 565.987 271.774 559.101 293.66C556.79 300.989 555.068 308.169 556.642 316.088C557.331 319.432 555.905 323.613 554.282 326.859C552.068 331.383 548.577 335.269 545.921 339.597C541.003 347.564 539.527 355.975 542.92 365.073C544.248 368.615 544.298 372.549 545.232 376.287C546.855 382.976 552.708 387.402 559.2 386.566C565.495 385.779 571.741 384.648 577.987 383.566C617.333 376.435 608.677 382.681 616.939 344.417C618.808 335.81 618.464 326.711 618.759 317.809C619.398 296.169 619.644 274.528 620.382 252.888C620.677 243.986 620.53 234.789 622.792 226.379C627.219 210.099 626.481 193.574 627.267 175.868H627.317ZM475.935 38.1081C473.672 39.0917 471.312 39.8787 469.197 41.059C468.213 41.6 467.475 42.8788 466.885 43.9116C465.262 46.715 465.803 49.4201 468.803 50.207C503.132 59.4533 535.396 73.8146 567.511 88.7169C577.84 93.4876 588.463 97.5206 599.037 101.701C601.349 102.636 604.398 103.914 606.267 103.078C609.464 101.75 612.513 99.242 614.579 96.4385C615.612 95.0614 614.972 91.1268 613.693 89.7005C611.234 86.9955 607.939 84.6839 604.545 83.1593C565.102 65.7978 524.477 51.7316 483.46 38.7475C481.099 38.0097 478.443 38.2556 475.935 38.0097V38.1081ZM593.529 121.227C592.545 119.063 592.102 115.767 590.479 114.98C551.921 95.6024 512.182 79.2247 470.377 68.257C468.016 67.6176 465.312 68.0602 462.853 68.4045C461.721 68.5521 460.344 69.3882 459.754 70.3718C459.312 71.0604 459.656 73.0769 460.246 73.4211C470.033 79.1263 479.673 84.979 489.755 90.1432C519.166 105.193 551.429 113.161 581.626 126.391C583.741 127.325 586.84 127.128 589.004 126.243C590.873 125.456 592.053 122.997 593.578 121.276L593.529 121.227Z" fill="black"/>
</svg>
