<svg width="553" height="588" viewBox="0 0 553 588" fill="none" xmlns="http://www.w3.org/2000/svg">
<path d="M551.704 461.153C547.671 464.891 543.245 469.415 538.326 473.35C532.375 478.121 526.228 482.694 519.785 486.777C467.308 520.024 414.782 553.173 361.124 587.06C352.468 575.108 355.321 563.501 355.026 552.779C353.452 489.973 350.009 484.121 294.974 454.316C263.596 437.299 231.923 421.314 197.692 410.396C184.561 406.215 171.872 399.33 160.363 391.608C145.265 381.477 139.609 366.132 144.085 348.131C146.544 338.294 150.134 328.704 153.478 319.064C160.904 297.67 160.757 276.079 151.806 255.619C124.362 192.911 83.8366 139.498 33.3268 93.562C30.671 91.152 26.5885 90.267 23.0966 88.9391C22.113 88.5948 20.6867 89.3327 18.8178 89.677C9.07979 97.3003 13.1624 107.874 15.0313 117.268C22.4086 154.696 30.6218 191.977 38.245 229.355C45.1305 262.996 50.5898 296.932 58.6556 330.277C64.6066 354.918 73.5082 378.87 81.6724 402.92C90.7711 429.725 109.362 447.48 134.937 459.628C191.25 486.334 247.12 514.024 303.139 541.467C315.68 547.615 328.074 554.157 340.124 561.141C342.632 562.567 343.517 566.846 347.402 573.977C337.763 571.911 331.467 571.764 326.352 569.305C258.826 536.5 191.545 503.204 124.067 470.35C97.4598 457.415 80.0497 437.102 69.0822 409.757C51.3275 365.64 43.9011 319.212 35.2942 272.931C32.0482 255.471 29.4416 237.618 23.6381 220.945C10.9984 184.501 7.40758 146.581 0.964748 108.956C-3.16653 84.5616 5.78489 65.8727 31.4087 54.1181C48.6715 46.1997 67.0654 40.4945 85.3611 35.0353C128.002 22.297 170.446 9.16483 214.513 1.39399C241.76 -3.4259 261.924 4.24694 278.695 24.5101C285.974 33.3138 293.647 42.1173 299.106 52.003C316.369 83.1355 332.845 114.711 349.419 146.237C364.124 174.271 368.354 203.731 362.649 235.06C358.517 257.635 360.78 261.619 379.961 271.357C390.092 276.521 401.158 279.866 411.831 283.948C441.487 295.358 471.193 306.621 500.8 318.13C532.523 330.474 549.934 353.836 551.557 387.674C552.688 411.675 551.753 435.774 551.753 461.005L551.704 461.153ZM166.02 234.913C165.724 234.913 166.757 236.29 165.577 235.356C163.069 230.241 160.511 225.126 158.003 220.011C155.642 215.683 153.281 211.354 150.97 206.977C149.642 208.059 148.314 209.141 146.986 210.273C150.822 213.371 154.609 216.469 158.445 219.568C161.003 224.683 163.56 229.798 166.069 234.913H166.02ZM203.644 251.241C210.923 248.487 218.201 245.733 225.48 242.978C227.792 242.88 230.153 243.126 232.317 242.536C233.448 242.241 234.186 240.47 235.12 239.388C233.989 239.585 232.759 239.487 231.776 239.978C229.71 240.962 227.792 242.29 225.825 243.471C218.546 246.225 211.316 248.979 204.037 251.733C203.004 251.881 201.873 251.831 200.889 252.225C200.152 252.52 199.709 253.405 199.119 254.045C200.594 253.11 202.07 252.176 203.595 251.241H203.644ZM456.094 319.9C455.209 319.457 454.275 319.064 453.39 318.621C454.472 318.916 455.553 319.162 456.635 319.458C472.226 330.425 487.423 341.934 503.555 351.967C509.555 355.705 517.719 355.951 524.9 357.771C524.359 365.296 522.588 372.968 523.621 380.247C525.047 390.133 529.228 399.625 531.047 409.462C533.015 420.036 533.605 430.856 534.835 441.528C538.081 425.052 538.523 408.773 537.933 392.543C537.49 379.755 534.146 367.657 524.359 358.312C509.358 331.753 482.21 326.736 456.045 319.851L456.094 319.9ZM401.503 541.418C395.01 532.713 400.421 526.958 407.06 522.827C430.766 508.122 454.766 493.908 478.718 479.547C488.505 473.694 498.932 468.678 507.932 461.743C516.932 454.808 518.9 445.365 510.391 433.955C502.08 437.053 493.62 439.414 485.899 443.201C464.259 453.775 442.717 464.742 421.421 476.005C388.224 493.563 387.387 495.187 388.42 532.024C388.567 536.795 389.601 541.566 390.535 548.796C395.502 545.107 398.257 543.041 401.06 540.976C401.208 541.123 401.355 541.221 401.503 541.369V541.418ZM118.264 137.335C125.691 127.99 135.625 123.268 146.937 120.071C180.971 110.481 214.906 100.398 248.842 90.4635C257.301 88.0043 265.957 85.939 274.17 82.7913C285.187 78.5616 285.236 73.9875 274.711 59.8721C221.447 84.7092 160.511 86.8737 108.575 111.957C105.181 125.334 112.707 130.793 118.903 136.941C127.805 149.335 136.658 161.729 145.609 174.123C154.953 187.058 167.052 190.452 182.446 186.124C220.365 175.451 258.531 165.566 296.45 154.991C302.253 153.368 307.516 149.63 313.713 146.532C312.287 132.662 310.86 120.564 299.057 113.039C268.859 127.449 173.839 154.745 149.298 156.27C142.773 144.499 132.428 138.187 118.264 137.335ZM348.239 294.571C343.222 279.865 336.73 276.423 326.156 280.21C295.122 291.424 263.793 301.85 232.956 313.654C218.792 319.064 205.07 326.097 192.086 333.917C178.266 342.278 178.511 358.41 191.594 368.64C194.594 370.952 197.791 373.116 201.234 374.788C236.645 391.854 272.105 408.773 307.565 425.79C316.467 430.069 324.533 427.905 332.992 423.921C370.862 406.068 408.978 388.755 446.848 370.804C455.652 366.623 463.668 360.82 471.537 356.049C468.783 346.016 462.586 343.262 456.291 344.59C446.455 346.705 436.963 350.541 427.52 354.229C388.519 369.525 349.763 385.411 310.614 400.363C293.007 407.101 290.548 405.232 279.482 383.542C297.433 368.984 319.762 363.378 340.812 355.263C385.125 338.098 387.387 337.016 403.666 318.425C395.158 319.064 389.06 318.277 383.846 320.097C341.993 334.95 299.942 349.36 258.727 365.886C238.022 374.197 219.972 374.149 198.283 358.902C219.038 338.442 246.826 337.114 270.187 327.228C295.712 316.408 322.959 309.522 348.189 294.62L348.239 294.571ZM365.206 447.234C372.583 460.611 379.666 464.743 389.6 459.775C425.995 441.529 462.291 423.135 498.538 404.593C500.702 403.511 503.112 401.494 503.85 399.379C504.981 396.035 506.162 391.559 504.784 388.903C503.407 386.247 498.784 383.788 495.686 383.887C490.768 384.083 485.702 385.952 481.128 388.018C448.717 402.871 416.355 417.724 384.24 433.167C377.748 436.315 372.387 441.824 365.157 447.234H365.206ZM254.891 37.1005C234.48 28.6903 221.005 30.6087 207.824 34.2482C163.905 46.3963 120.034 58.79 76.3118 71.5283C72.328 72.7087 69.2297 76.8892 65.9837 79.4958C68.0001 82.7419 68.5899 84.6603 69.2785 84.6603C80.8854 85.2504 209.791 52.5439 254.94 37.1005H254.891ZM328.566 182.14C322.172 182.828 316.024 182.632 310.319 184.156C279.63 192.419 248.94 200.927 218.398 209.83C208.71 212.633 199.217 216.518 190.119 220.846C187.906 221.928 187.463 226.798 184.856 233.388C220.316 230.044 251.301 219.715 282.433 210.617C298.024 206.043 312.68 198.272 327.582 191.534C328.664 191.042 328.123 187.058 328.517 182.09L328.566 182.14ZM333.533 235.208C329.796 234.962 325.959 233.683 322.811 234.667C285.236 246.176 247.661 257.93 210.234 269.98C206.89 271.062 204.234 274.406 201.529 277.013C200.889 277.603 201.43 279.423 201.43 280.554C202.316 281.587 203.201 283.358 203.84 283.309C244.366 277.751 280.466 258.422 318.926 246.372C324.336 244.7 332.058 244.798 333.533 235.208ZM359.649 476.743C363.649 499.203 368.567 513.991 374.403 521.106C376.862 501.859 371.944 487.071 359.649 476.743ZM170.987 315.376C173.003 315.326 174.971 315.228 176.987 315.179C177.725 307.998 178.955 300.768 179.102 293.587C179.25 287.489 178.118 281.341 177.528 275.242C176.593 275.39 175.659 275.537 174.725 275.685L170.938 315.425L170.987 315.376ZM160.265 353.098C159.773 373.017 166.019 378.968 181.266 384.329C173.938 373.46 169.364 366.623 160.265 353.098ZM266.498 233.437C267.482 233.437 268.564 233.683 269.351 233.339C269.744 233.191 269.596 231.864 269.695 231.027C268.76 231.027 267.678 230.732 266.842 231.027C266.498 231.175 266.597 232.503 266.498 233.437ZM298.368 170.139L298.811 171.959L300.827 170.877L298.368 170.139Z" fill="black"/>
</svg>
