<svg width="471" height="586" viewBox="0 0 471 586" fill="none" xmlns="http://www.w3.org/2000/svg">
<path d="M85.4713 225.163C75.8316 216.507 67.8642 210.211 60.8803 202.932C48.5357 190.046 47.5517 174.21 67.3228 161.668C76.6674 155.766 88.3238 153.503 100.177 149.175C108.292 133.486 107.111 115.387 109.177 97.9763C111.144 81.5985 111.833 65.0245 114.39 48.7451C116.997 32.3182 126.784 21.4977 143.457 17.0713C180.442 7.28394 217.82 0.447718 256.132 0.00507505C268.969 -0.142472 281.363 2.90696 291.199 11.809C303.249 38.4659 299.511 66.5492 298.724 96.6981C306.2 96.6981 312.2 97.6324 317.807 96.5504C346.283 90.8944 372.989 94.0422 398.514 108.944C422.466 122.912 447.254 135.404 470.566 147.946C472.927 170.767 452.811 175.98 443.417 189.997C442.139 238.589 440.221 288.067 439.778 337.545C439.335 384.514 440.663 431.483 440.564 478.453C440.564 486.961 438.155 495.715 435.548 503.929C434.761 506.339 429.499 508.65 426.253 508.65C423.056 508.65 418.285 506.437 416.957 503.83C414.203 498.322 412.236 492.027 411.695 485.879C410.465 470.681 410.367 455.435 409.58 440.189C408.99 428.926 410.711 417.171 401.613 405.564C378.202 405.023 356.414 416.581 333.545 422.434C308.954 428.729 285.101 437.631 260.854 445.303C237.935 452.582 215.016 459.714 191.556 467.091C183.982 492.961 178.77 517.11 185.262 542.931C189.688 560.538 183.688 575.145 167.949 585.67C150.146 573.473 148.523 556.358 150.293 538.062C153.343 506.438 157.08 474.862 159.49 443.189C161.605 415.401 162.343 387.563 163.818 357.709C156.146 355.988 150.342 353.135 144.932 353.725C133.62 355.004 122.407 357.611 111.39 360.562C63.4871 373.398 65.8478 364.251 49.2735 414.958C43.5684 432.418 30.3381 447.566 19.4689 463.059C17.6492 465.665 9.43598 466.403 6.09161 464.534C2.69805 462.616 -0.40031 456.222 0.042327 452.189C0.878419 444.811 4.12445 437.631 6.82945 430.548C27.4367 377.235 48.2898 323.97 68.897 270.657C74.3562 256.492 79.2251 242.131 85.3728 225.015L85.4713 225.163ZM355.185 323.97C352.873 324.315 350.414 324.265 348.25 325.101C347.218 325.495 346.775 327.462 346.086 328.692C347.217 328.495 348.595 328.692 349.48 328.052C351.398 326.724 353.021 325.052 354.791 323.528C355.873 323.429 357.005 323.527 357.988 323.134C358.775 322.888 359.316 322.101 360.004 321.56C358.431 322.396 356.857 323.183 355.234 324.02L355.185 323.97ZM296.363 213.31C317.069 229.835 338.856 242.622 362.611 251.918C375.448 256.934 384.94 251.524 388.284 237.704C390.989 226.638 392.17 215.178 394.235 203.916C398.072 182.816 406.334 165.111 428.761 157.733C431.663 156.799 433.777 153.405 437.564 149.963C415.924 133.585 393.842 121.387 369.349 114.256C345.447 107.272 321.84 105.6 300.642 123.158C297.544 125.715 291.986 125.42 286.822 126.601C286.822 106.633 287.166 89.025 286.675 71.516C286.33 60.1549 285.691 48.6467 283.478 37.5806C281.658 28.2359 273.1 21.8421 263.559 23.3668C229.722 28.8752 195.983 35.0231 162.441 41.9087C150.342 44.417 143.703 53.5158 140.801 65.959C134.358 93.452 133.03 121.289 133.768 149.372C134.112 161.717 138.637 171.16 150.195 177.258C163.671 184.341 176.556 192.604 189.835 200.128C220.672 217.539 234.935 243.95 232.575 279.067C231.738 291.707 228.984 304.248 227.607 316.838C226.968 322.544 227.509 328.396 227.509 336.511C270.494 329.528 309.839 320.331 348.152 306.756C353.513 304.838 358.087 300.658 365.759 295.789C358.628 289.838 354.447 285.165 349.332 282.264C330.545 271.64 311.118 262.098 292.576 251.081C286.576 247.491 280.231 241.295 278.215 234.95C276.1 228.36 278.314 219.998 279.986 212.719C282.937 200.227 280.969 186.013 293.707 170.668C294.789 188.374 295.576 200.768 296.363 213.359V213.31ZM194.901 374.874C188.753 391.055 188.065 404.285 194.459 419.089C228.591 418.843 258.591 403.007 289.969 394.744C328.774 384.563 368.562 374.972 405.498 356.332C406.776 347.922 408.449 340.545 408.842 333.069C409.088 328.347 407.318 323.577 406.432 318.954C402.4 319.347 399.301 318.658 397.629 319.937C368.12 341.971 333.938 350.48 298.331 356.037C264.494 361.3 230.902 368.284 194.95 374.874H194.901ZM189.048 218.228C161.26 201.506 136.375 186.456 111.439 171.554C108.193 169.586 104.751 167.472 101.111 166.783C92.0127 165.013 83.3562 165.258 79.0282 175.685C80.4052 177.947 81.1433 180.997 83.0122 182.079C108.39 196.539 133.768 210.949 159.441 224.818C167.753 229.294 176.556 228.261 188.999 218.228H189.048ZM127.571 320.429C119.554 304.494 111.931 289.395 102.833 271.296C90.9798 289.69 82.717 306.215 85.3728 327.462C101.406 330.364 114.439 330.069 127.571 320.479V320.429ZM122.21 281.771C130.964 267.41 133.079 265.246 142.03 268.591C149.998 271.542 157.769 275.132 168.638 279.657C169.474 271.296 170.015 265.639 170.851 257.18C153.293 258.459 140.407 244.491 122.161 249.065V281.771H122.21ZM415.826 194.669C413.908 194.571 411.99 194.424 410.072 194.325C408.006 203.965 405.891 213.654 403.826 223.294C405.055 223.589 406.334 223.933 407.564 224.228L415.876 194.669H415.826ZM212.409 303.756C213.491 303.756 214.623 303.707 215.705 303.658V284.526C214.623 284.575 213.491 284.674 212.409 284.723V303.756ZM201.885 346.053C201.147 346.791 200.458 347.578 199.721 348.315C201.245 349.692 202.623 351.512 204.393 352.25C204.984 352.496 206.705 349.939 207.885 348.66C205.869 347.775 203.852 346.938 201.836 346.053H201.885ZM161.015 316.298C160.916 315.314 160.769 314.38 160.671 313.396C159.244 313.839 157.818 314.281 156.392 314.724C157.031 315.511 157.474 316.691 158.261 316.986C158.998 317.281 160.08 316.593 161.015 316.347V316.298ZM131.752 54.4499V51.499C130.916 52.4827 130.129 53.4662 129.293 54.4499H131.752Z" fill="black"/>
</svg>
