<svg width="390" height="455" viewBox="0 0 390 455" fill="none" xmlns="http://www.w3.org/2000/svg">
<path d="M372.039 393.721C377.351 403.311 382.466 412.065 387.089 421.115C390.876 428.542 390.138 436.066 385.023 442.608C381.925 446.591 378.187 450.034 374.45 453.428C371.253 456.33 363.187 454.657 360.875 450.969C359.547 448.805 357.777 446.788 356.941 444.477C345.137 411.574 323.104 384.917 303.627 356.686C298.66 349.456 291.824 343.407 285.43 337.21C277.413 329.439 269.741 329.685 262.954 338.98C244.757 364.014 221.887 384.031 197.395 402.426C180.033 415.459 161.049 425.935 140.589 433.362C104.391 446.592 67.1608 454.166 28.4054 451.313C23.4872 450.969 18.6182 449.051 13.9459 447.28C9.51957 445.559 7.20806 433.312 10.6016 430.312C12.3722 428.738 14.6838 426.919 16.8478 426.771C25.7005 426.23 34.5041 426.574 42.9634 422.591C50.2915 419.148 54.7669 413.443 54.8161 404.885C54.8161 402.327 54.8654 399.77 54.6195 397.262C52.8489 379.556 48.7177 373.801 31.6516 373.851C27.8154 373.851 24.0283 373.851 20.1921 373.506C10.9459 372.67 5.19171 367.014 5.4868 359.391C5.73271 353.538 11.241 347.833 17.9789 347.046C26.8316 346.062 35.7829 345.866 44.5865 344.587C90.8175 337.751 132.671 320.438 169.508 291.421C171.476 289.847 173.689 288.224 174.968 286.109C176.837 283.011 179.001 279.518 179.148 276.076C179.394 271.502 174.722 270.125 171.131 269.436C158.688 267.026 145.999 265.551 133.606 262.846C109.998 257.731 86.7353 250.944 62.9805 247.009C43.3569 243.763 27.0283 235.205 11.4868 223.745C3.56856 217.942 -1.10361 210.761 0.224297 201.171C2.68339 183.613 5.92953 166.153 9.2739 148.693C9.61817 146.873 12.9626 144.218 14.8315 144.316C28.75 145.004 42.865 145.004 56.4884 147.611C80.1941 152.087 103.506 158.677 127.163 163.645C152.147 168.907 176.492 175.989 199.854 186.367C204.428 188.383 209.493 190.007 214.411 190.203C217.707 190.351 221.789 188.433 224.297 186.121C226.953 183.711 228.674 179.924 229.953 176.383C236.839 157.349 244.56 138.66 241.412 117.315C240.379 110.429 244.167 102.511 246.773 95.4285C252.478 79.936 260.888 65.1319 264.38 49.1968C268.856 28.8844 281.643 15.8512 296.054 3.30969C302.841 -2.59221 315.087 -0.428288 318.481 8.42456C322.366 18.5562 328.071 25.6383 337.907 30.4582C346.858 34.8355 354.531 35.3766 362.597 29.0321C364.416 27.6058 367.318 27.2124 369.777 26.9665C379.958 25.9828 389.991 37.0488 387.384 46.8853C384.778 56.6726 381.728 66.4109 378.089 75.8539C367.564 103.15 356.006 130.053 346.121 157.546C333.579 192.318 319.759 226.401 303.431 259.55C299.398 267.764 301.217 274.748 307.808 280.059C313.759 284.83 319.759 289.601 326.104 293.831C346.662 307.602 361.711 326.242 374.892 346.8C380.843 356.096 382.269 365.342 377.646 375.67C375.138 381.376 373.859 387.622 372.039 393.573V393.721ZM313.169 198.023C314.448 196.154 320.398 196.548 316.169 191.925C315.382 194.138 314.595 196.4 313.808 198.613C313.562 200.876 308.3 201.859 312.087 205.204L313.12 198.023H313.169ZM321.038 129.61C329.104 124.2 327.776 115.397 329.054 107.478C330.382 105.855 331.858 104.331 332.989 102.609C333.284 102.167 332.497 101.035 332.202 100.248C331.366 102.855 330.53 105.462 329.694 108.118C322.317 113.774 321.972 121.987 321.628 130.201C320.005 131.824 318.284 133.348 316.907 135.168C316.562 135.611 317.497 136.988 317.792 137.922C321.972 136.398 320.694 132.709 320.989 129.66L321.038 129.61ZM176.345 397.36C186.771 396.77 194.542 391.704 200.001 382.998C200.444 382.261 200.395 380.736 199.903 379.998C199.362 379.261 197.837 378.375 197.149 378.67C187.902 382.408 180.968 388.753 176.836 397.95C164.59 399.081 153.426 402.377 145.803 413.049C135.671 413.049 125.54 412.951 115.408 412.902C118.408 406.557 124.507 404.147 130.458 402.426C151.606 396.229 169.804 385.359 185.689 370.162C191.149 364.998 197.985 361.309 203.886 356.587C221.739 342.275 236.937 325.799 247.757 303.323C243.035 302.339 239.74 301.749 236.445 301.011C231.576 299.929 226.707 298.749 221.838 297.568C218.198 296.683 214.559 295.7 210.625 294.716C198.378 303.766 187.066 314.192 173.935 321.373C146.245 336.521 118.605 352.21 87.6206 360.325C76.5547 363.227 72.9151 369.228 74.5381 379.753C75.6693 387.228 77.0956 394.704 78.9153 402.081C80.2432 407.442 84.5713 410.885 89.7354 411.377C98.4898 412.262 107.392 412.065 116.245 412.311C111.326 418.853 103.998 419.984 96.6699 421.459C89.2926 422.935 82.6532 425.787 78.3252 432.525C79.3088 433.214 80.2432 434.394 81.276 434.444C104.195 435.575 124.753 428.542 143.442 415.656C144.327 415.016 144.671 413.541 145.212 412.459C158.442 413.394 169.557 409.951 176.246 397.409L176.345 397.36ZM122.589 244.845C133.868 250.681 143.458 251.681 151.36 247.845C141.819 243.123 131.884 245.238 122.097 245.484C114.474 236.533 103.949 237.566 93.8665 237.566C91.3091 237.566 86.2436 237.025 88.8994 244.009C99.9653 244.304 111.277 244.599 122.589 244.845ZM244.413 175.153C253.462 169.251 256.216 159.857 258.036 150.07C258.183 149.185 257.249 147.759 256.413 147.119C255.97 146.775 254.298 147.217 253.806 147.857C247.265 155.972 245.839 165.809 245.052 175.744C243.331 178.744 241.511 181.694 239.986 184.744C239.543 185.678 239.445 187.547 239.986 188.088C242.15 190.154 243.527 189.17 243.724 185.629C243.921 182.137 244.117 178.694 244.363 175.202L244.413 175.153ZM327.432 57.9022C326.104 55.2955 325.267 50.5739 322.612 48.9017C314.005 43.59 304.857 39.2129 295.709 34.934C289.611 32.0814 281.84 35.0324 279.725 40.836C271.954 62.3287 264.38 83.8705 256.905 105.462C254.544 112.347 256.265 118.446 261.823 122.38C268.02 126.758 274.364 131.086 281.004 134.676C289.217 139.102 299.988 135.611 303.48 126.905C311.496 106.888 318.825 86.6247 326.3 66.4106C327.136 64.0991 327.038 61.3942 327.481 57.9514L327.432 57.9022ZM40.6027 154.792C27.963 153.808 23.0447 156.366 23.93 158.726C24.8153 160.94 26.0941 163.055 27.422 165.022C28.1106 166.055 29.2907 166.743 30.2251 167.579C31.1596 168.415 32.3894 169.104 32.9304 170.186C34.0616 172.35 36.0287 175.006 35.5369 176.875C34.4549 180.957 30.6187 181.104 26.6842 181.252C17.6839 181.547 12.8641 187.547 15.0773 194.974C17.2905 202.4 21.1757 208.696 27.2251 213.712C31.3072 217.106 38.3403 216.368 39.9141 211.499C42.1765 204.368 43.8487 197.039 45.7668 189.76C47.2914 183.76 51.2259 180.957 56.4884 182.137C70.0626 185.088 83.637 188.137 97.2112 190.941C105.867 192.711 114.671 193.843 123.228 195.908C146.59 201.466 169.902 207.417 193.263 212.926C196.854 213.762 200.739 213.368 204.477 213.171C205.559 213.122 207.526 211.843 207.477 211.204C207.379 208.991 207.083 206.384 205.854 204.663C204.477 202.696 202.214 201.073 200.001 200.04C170.049 186.121 138.671 176.039 106.408 169.842C91.506 166.989 76.8007 163.694 62.1444 159.857C52.4064 157.3 42.5208 155.284 40.5535 154.841L40.6027 154.792ZM78.276 197.826C72.2266 198.515 68.4395 198.958 64.7017 199.4C60.2753 199.941 54.8162 205.942 56.1441 210.073C57.1769 213.417 59.4392 217.008 62.2426 218.926C65.1935 220.893 69.3741 221.287 73.1119 221.877C123.032 229.992 173.541 235.451 220.854 255.075C223.166 256.009 225.772 256.255 228.232 256.747C232.56 257.681 237.429 254.632 240.085 249.271C242.003 245.435 240.921 240.615 237.576 239.435C229.264 236.484 221.051 233.189 212.542 230.877C178.312 221.631 144.032 212.532 109.654 203.777C98.6865 200.974 87.3254 199.499 78.276 197.826ZM247.806 214.007C251.101 219.909 254.495 223.991 255.724 228.713C257.249 234.615 257.003 240.959 257.643 247.107C257.79 248.288 258.233 249.714 259.069 250.55C260.741 252.222 262.61 254.288 264.725 254.878C266.84 255.468 270.036 255.222 271.61 253.944C274.463 251.632 277.266 248.632 278.643 245.337C287.496 224.631 296.496 203.925 304.365 182.826C309.529 168.858 304.513 160.153 289.562 153.021C287.299 151.939 284.889 151.251 282.529 150.414C277.758 148.742 271.659 150.956 269.938 155.48C262.807 174.17 255.823 192.957 247.855 214.057L247.806 214.007ZM22.6512 441.575C35.1434 441.575 42.7174 441.624 50.2422 441.575C53.5374 441.575 55.0623 439.608 54.177 436.46C53.8819 435.427 52.4062 434.05 51.4225 434.05C42.619 433.656 33.8155 433.263 22.602 441.624L22.6512 441.575ZM348.678 105.707L347.252 108.019L349.268 108.413L348.678 105.707ZM63.2263 233.828L60.8657 232.352L60.4229 234.516L63.2263 233.828Z" fill="black"/>
</svg>
