<svg width="568" height="551" viewBox="0 0 568 551" fill="none" xmlns="http://www.w3.org/2000/svg">
<path d="M480.969 293.62C476.936 304.194 472.952 314.768 468.329 326.966C472.51 341.524 484.264 352.983 495.379 364.885C497.789 367.443 495.625 373.099 491.986 373.836C485.789 375.115 479.543 376.197 473.346 377.279C464.887 378.755 460.116 384.017 458.05 392.132C457.41 394.592 456.673 397.051 455.689 399.362C454.115 402.903 449 404.723 446.345 402.903C445.312 402.166 444.034 401.723 443.197 400.788C427.164 383.181 424.508 386.476 406.458 390.116C399.032 391.591 391.556 393.017 384.228 394.985C375.917 397.198 371.588 403.69 372.572 411.904C373.162 416.92 375.277 422.035 374.638 426.806C373.556 435.118 376.211 442.151 380.884 448.102C400.606 473.333 409.901 504.367 427.459 530.778C430.852 535.893 428.295 542.877 422.442 547.352C416.983 551.533 408.917 551.238 405.376 546.123C381.671 511.548 353.49 480.562 327.62 447.659C319.849 437.724 311.046 428.478 301.75 419.92C298.504 416.92 292.012 414.806 287.831 415.789C253.207 423.757 217.108 422.97 183.074 434.036C179.484 435.216 175.697 435.855 171.959 436.446C164.139 437.675 156.663 437.036 151.401 430.101C145.647 422.478 138.663 422.871 131.335 426.953C103.695 442.495 76.1524 458.184 48.6105 473.874C34.3478 482.038 20.1837 490.399 5.87173 498.514C5.03564 499.006 2.82214 498.809 2.47787 498.219C1.2975 496.153 -0.47295 493.448 0.117233 491.629C1.59269 486.858 3.51098 481.989 6.46189 478.054C14.1834 467.726 24.1671 459.955 36.315 455.233C33.3641 459.02 28.987 462.414 33.9544 468.513C58.2503 455.283 82.6936 442.053 107.088 428.724C113.777 425.085 120.219 421.002 126.761 417.117C155.237 400.395 183.664 383.722 212.14 367.049C256.06 341.327 253.453 345.409 284.241 379.443C305.488 402.952 325.21 427.839 345.817 451.938C349.014 455.676 353.194 458.578 357.08 461.627C357.621 462.07 359.391 461.676 360.129 461.086C361.014 460.348 361.9 458.922 361.85 457.889C361.014 446.184 355.752 436.003 350.342 425.97C333.522 394.788 321.57 361.197 303.373 330.654C296.93 319.834 293.143 307.489 287.93 295.882C284.29 287.816 280.504 279.8 276.421 271.93C273.372 266.078 265.011 265.045 260.093 269.422C248.83 279.603 238.011 290.325 226.158 299.866C179.73 337.245 132.81 374.082 86.3825 411.51C78.2675 418.052 69.3164 422.379 59.9718 426.314C73.1526 409.149 89.4319 395.083 105.613 380.968C110.383 376.837 115.449 373.049 119.876 368.574C124.548 363.852 126.466 357.705 125.138 351.163C122.187 336.31 118.498 321.605 115.744 306.702C113.924 296.817 113.236 286.734 112.006 276.75L111.317 277.094C118.203 282.013 118.99 290.03 121.154 297.161C123.318 304.44 124.597 311.965 126.17 319.391C127.252 324.359 127.941 329.425 129.22 334.343C132.859 348.704 139.695 351.114 150.073 341.278C172.205 320.178 195.566 300.554 218.682 280.586C232.502 268.635 250.454 265.094 264.913 254.765C267.618 252.798 272.29 253.192 276.077 253.143C282.421 253.093 288.766 253.536 295.11 253.782C306.176 276.455 317.144 299.177 328.308 321.801C336.079 337.638 344.489 353.18 351.916 369.164C358.408 383.181 369.326 386.329 383.097 383.673C401.687 380.132 420.279 376.689 438.722 372.558C445.853 370.935 456.033 370.344 458.05 362.967C461.05 351.999 448.952 349.54 442.361 344.671C431.246 336.408 419.491 329.031 407.835 321.555C398.294 315.457 388.261 310.047 378.719 303.899C357.473 290.226 336.374 276.357 315.275 262.536C308.882 258.307 302.34 254.618 294.422 254.52C289.701 250.437 285.52 245.519 280.258 242.421C227.928 211.583 175.303 181.238 124.597 147.695C114.072 140.711 103.252 134.121 92.1862 128.022C88.6943 126.104 84.956 128.809 83.0871 132.4C81.9559 134.613 81.5626 137.17 80.8249 139.629L81.5628 138.941C79.9398 137.022 77.4803 135.35 76.8901 133.186C73.8408 122.268 71.2837 111.251 68.5787 100.234C89.7269 80.1675 113.777 65.6587 135.122 47.7071C142.893 41.1658 150.909 34.8705 159.417 29.3129C163.45 26.657 168.811 26.0178 173.582 24.4931C164.041 53.2649 140.679 68.2163 115.99 81.5939C112.892 83.2661 108.515 82.4792 105.023 83.7087C96.5633 86.758 94.5956 99.9882 101.481 105.841C104.334 108.3 107.186 110.907 110.383 112.775C134.236 126.842 154.5 146.761 181.353 156.056C185.927 157.63 189.468 161.909 193.599 164.86C204.911 172.975 216.026 181.287 227.682 188.91C231.715 191.566 236.928 192.746 241.748 193.632C243.42 193.927 246.863 191.763 247.355 190.14C250.601 178.926 249.224 167.713 246.371 156.597C241.06 135.793 235.994 114.989 232.059 93.8403C228.862 76.5773 222.764 59.7569 214.108 44.0676C206.632 30.4933 196.009 23.4602 180.271 24.7389C177.762 24.9357 175.205 25.0339 172.697 25.1814C175.402 21.0009 177.664 16.4271 181.008 12.7384C185.189 8.11525 190.205 4.32806 195.025 0C199.255 1.22956 202.747 2.95093 206.239 3.04929C216.616 3.39357 225.321 6.34468 233.977 12.7384C266.536 36.7395 299.684 60.0028 332.833 83.1678C341.046 88.9222 350.194 93.2995 357.768 97.6767C360.719 97.0865 362.047 97.0371 363.178 96.5453C381.13 88.8236 387.474 88.5777 393.032 110.611C396.081 122.661 402.769 131.071 412.557 137.367C424.262 144.842 436.262 151.925 448.41 158.761C483.674 178.533 519.085 198.058 554.25 217.583C554.119 227.813 558.43 237.289 567.185 246.011C561.217 260.864 551.889 273.586 539.2 284.177L539.79 284.718C540.036 275.324 546.627 268.635 550.168 260.667C551.939 256.684 551.299 252.798 547.955 250.634C545.053 248.765 540.823 247.142 537.676 247.732C530.348 249.159 523.315 252.011 516.134 254.323C517.216 252.011 518.101 249.65 519.331 247.486C524.397 238.683 517.658 231.305 510.281 231.404C496.461 231.551 482.297 230.863 468.969 233.765C449.001 238.093 429.033 239.125 408.868 239.125C413.344 236.814 417.524 233.519 422.246 232.289C440.689 227.519 459.181 222.797 478.411 222.256C484.411 222.059 487.805 219.01 486.379 216.206C485.297 214.092 484.51 211.337 482.69 210.108C452.148 189.5 421.508 169.04 390.72 148.728C380.343 141.892 366.965 138.252 365.588 122.563C365.49 121.383 361.26 119.366 359.342 119.76C353.981 120.792 349.506 119.759 344.883 117.153C318.325 102.103 292.749 85.5286 268.06 67.5278C260.929 62.3144 253.404 57.5437 245.634 53.3632C242.584 51.7402 237.814 51.0022 234.814 52.2318C230.682 53.904 231.961 58.6258 232.896 62.3145C240.076 90.5944 247.503 118.825 254.339 147.203C256.109 154.531 256.699 162.302 256.699 169.877C256.798 196.042 272.88 214.485 287.241 233.568C289.995 237.256 295.701 240.257 300.324 240.699C320.341 242.47 340.407 249.159 360.473 243.503C376.752 238.929 393.179 239.519 409.655 238.584C403.95 244.437 396.474 245.716 388.851 246.503C376.162 247.781 363.965 250.831 352.604 256.782C347.096 259.635 346.014 269.176 350.637 273.012C357.571 278.767 365.097 283.586 374.343 283.783C388.261 284.127 398.146 291.161 406.409 301.44C407.983 303.407 409.311 305.571 410.934 307.538C416.885 314.916 424.508 318.309 434.098 317.965C441.426 317.719 448.804 318.506 455.148 318.752C464.591 309.555 472.755 301.637 480.92 293.718L480.969 293.62ZM493.904 200.714C492.084 199.14 490.215 197.566 488.395 195.993C488.002 196.779 487.608 197.517 487.215 198.304C489.674 198.894 492.084 199.484 494.543 200.026C498.379 205.091 503.789 207.009 509.839 207.649C511.412 209.37 512.839 211.19 514.609 212.665C515.052 213.009 516.429 212.223 517.413 211.977C516.036 207.747 512.249 209.026 509.298 208.337C505.461 203.272 499.855 201.747 493.953 200.763L493.904 200.714ZM280.258 401.034C280.258 399.805 280.75 398.231 280.159 397.395C273.471 388.296 267.028 379.05 259.749 370.492C254.093 363.852 246.568 362.475 239.338 366.41C214.993 379.591 190.747 393.067 166.598 406.592C164.484 407.772 162.074 409.789 161.533 411.904C160.647 415.248 160.549 419.183 161.533 422.478C161.975 424.052 165.516 424.888 167.779 425.724C168.861 426.117 170.287 426.019 171.467 425.724C197.19 419.576 222.912 413.723 249.519 412.199C258.175 411.707 266.683 408.363 275.143 405.854C277.11 405.264 278.536 402.707 280.258 401.034ZM224.534 21.837C223.649 22.3781 221.977 23.2142 222.075 23.4109C222.715 25.329 223.698 27.1488 224.534 28.9686C226.059 28.0341 227.633 27.0996 229.158 26.1651C227.633 24.6897 226.059 23.2633 224.534 21.7878V21.837Z" fill="black"/>
<path d="M481.904 292.538C491.249 277.439 501.036 262.684 517.02 253.536C511.512 272.127 500.003 285.308 481.904 292.538Z" fill="black"/>
<path d="M112.105 276.701C100.006 260.914 96.8094 242.519 96.8585 223.24L96.1699 223.535C107.334 239.618 112.4 257.471 111.465 276.996L112.154 276.652L112.105 276.701Z" fill="black"/>
<path d="M501.724 338.179C503.543 323.67 511.314 313.637 524.692 307.883L524.052 307.341C522.331 321.949 514.856 332.228 500.986 337.589L501.674 338.179H501.724Z" fill="black"/>
<path d="M89.1849 184.73C83.9716 180.549 82.1521 174.746 82.0045 168.401C81.7094 158.515 81.7096 148.679 81.5621 138.793L80.8242 139.482C82.9882 145.04 86.3327 150.45 87.1196 156.204C88.4476 165.795 88.1034 175.631 88.4969 185.32L89.1849 184.681V184.73Z" fill="black"/>
<path d="M96.8589 223.289C92.2358 218.764 90.0229 213.157 89.7278 206.812C89.3835 199.484 89.383 192.107 89.2355 184.729L88.5469 185.369C93.7602 189.549 95.2358 195.353 95.5309 201.599C95.8752 208.927 95.9736 216.256 96.1703 223.584L96.8589 223.289Z" fill="black"/>
<path d="M524.692 307.932C525.036 297.112 529.905 289.194 539.84 284.571L539.249 284.029C539.2 295.046 534.43 303.014 524.102 307.391L524.741 307.932H524.692Z" fill="black"/>
<path d="M501.036 337.638C500.937 339.851 501.035 342.114 500.642 344.228C500.445 345.163 499.068 346.688 498.429 346.54C495.625 346.048 494.494 343.835 496.215 341.523C497.396 339.95 499.855 339.261 501.724 338.179L501.036 337.589V337.638Z" fill="black"/>
</svg>
