<svg width="627" height="597" viewBox="0 0 627 597" fill="none" xmlns="http://www.w3.org/2000/svg">
<path d="M345.134 596.24C341.986 594.125 339.133 591.075 335.69 590.19C330.871 588.961 325.608 589.059 320.543 589.207C311.198 589.502 302.689 587.141 295.853 580.895C271.41 558.517 241.36 543.418 217.654 520.105C213.67 516.17 208.555 516.318 203.44 518.285C153.57 537.417 103.011 554.582 51.9111 570.025C44.7797 572.189 37.0579 572.681 29.5331 573.271C27.4674 573.419 24.2214 571.55 23.3853 569.779C22.5984 568.009 23.5331 564.566 24.9102 562.845C49.452 532.056 74.2887 501.465 98.8305 470.677C103.552 464.726 107.487 458.184 111.569 451.741C114.028 447.856 112.601 441.167 108.667 437.97C98.7813 430.003 89.3876 421.199 78.6168 414.559C56.8292 401.083 37.9924 384.017 18.2705 368.033C0.466654 353.622 -3.27123 334.195 2.53223 312.899C4.59787 305.227 11.2376 300.653 19.2542 298.882C29.4349 296.62 39.5663 296.866 49.3535 300.259C62.5834 304.784 75.7641 309.555 88.6006 315.063C104.536 321.9 120.962 321.801 137.34 319.096C144.57 317.916 151.504 313.637 157.947 309.751C160.849 308.03 164.39 303.554 164.046 300.751C161.587 279.849 169.357 260.766 173.144 240.896C181.702 195.992 189.227 150.892 197.096 105.841C198.424 98.2175 197.834 90.6926 194.784 83.3644C191.883 76.3313 188.391 69.3473 186.768 61.97C179.981 30.8866 199.358 0.098365 235.753 0C248.786 0 260.885 3.04932 272.393 9.04958C289.41 17.8533 305.64 28.1816 319.51 41.215C332.543 53.4122 348.232 57.4944 364.56 59.4617C378.381 61.1339 392.692 61.429 406.463 59.6584C437.94 55.6746 469.219 50.3629 500.499 45.002C507.876 43.7232 515.155 40.6739 522.041 37.5263C545.107 27.0012 569.354 28.034 593.305 31.3785C620.503 35.2147 634.422 65.9046 621.487 90.3483C614.749 103.087 604.519 112.48 593.01 120.596C584.698 126.448 576.092 131.908 567.387 137.121C560.599 141.203 555.632 146.564 551.993 153.548C544.32 168.204 536.107 182.566 528.729 197.369C508.86 237.207 489.236 277.143 469.711 317.178C466.957 322.834 464.793 328.834 463.17 334.884C462.678 336.703 464.252 340.245 465.924 341.277C473.449 345.753 481.613 349.245 489.089 353.868C494.007 356.918 496.614 365.77 494.253 370.984C491.696 376.689 488.843 382.64 484.663 387.066C480.384 391.591 474.384 394.444 469.072 397.887C464.449 400.887 461.94 404.821 462.482 410.526C462.973 416.133 460.563 420.56 455.449 422.724C443.792 427.74 432.038 432.462 420.185 437.036C409.513 441.167 398.643 444.708 387.971 448.84C380.052 451.889 379.217 459.119 385.463 467.578C387.823 470.726 393.086 471.267 395.102 468.414C396.529 466.349 397.463 463.939 398.742 461.775C402.381 455.774 407.299 453.463 410.398 456.02C413.644 458.725 415.464 465.611 414.037 469.988C413.251 472.398 412.562 474.857 411.48 477.169C401.447 498.662 398.643 499.744 416.988 520.794C421.021 525.417 423.234 531.811 425.644 537.614C426.53 539.68 426.529 543.516 425.202 544.795C422.693 547.254 418.956 549.959 415.808 549.811C410.939 549.615 406.168 547.057 401.299 545.582C391.414 542.532 383.102 543.565 376.265 556.697C373.954 561.172 371.102 565.796 370.364 570.665C368.102 585.911 356.642 591.026 344.593 595.797L345.232 596.289L345.134 596.24ZM277.902 436.101C296.738 433.642 315.575 430.347 334.51 429.068C351.232 427.888 367.167 424.248 382.758 418.691C401.889 411.805 420.873 404.477 439.907 397.296C453.137 392.329 464.695 384.558 475.121 375.164C476.548 373.885 477.039 370.394 476.449 368.426C475.81 366.262 473.695 363.705 471.678 363.016C466.957 361.442 461.941 360.213 456.973 360.016C445.563 359.524 434.103 359.918 422.693 359.475C414.627 359.18 407.594 353.376 405.873 346.245C404.398 340.048 403.611 333.703 401.84 327.605C398.102 314.621 400.217 302.62 405.972 290.669C415.906 270.11 425.644 249.405 433.612 227.912C438.432 214.878 445.465 202.534 452.793 190.631C464.351 171.942 479.154 156.45 500.253 148.089C509.696 144.351 519.09 140.367 528.336 136.186C543.386 129.399 558.436 122.514 573.288 115.333C588.682 107.906 599.551 95.4633 608.453 81.3479C612.093 75.5935 611.994 68.6096 608.158 63.1995C597.191 47.707 583.567 37.7722 562.911 43.1822C549.435 46.7234 535.517 47.5595 522.041 52.1335C486.974 64.0356 450.776 70.4785 413.545 69.79C395.742 69.4457 377.938 69.9375 360.134 69.8392C352.511 69.8392 344.74 70.0851 337.313 68.708C331.264 67.6259 325.166 65.0193 319.854 61.7732C314.493 58.478 310.362 53.3138 305.345 49.4284C295.312 41.6576 285.378 33.5917 274.705 26.7553C260.344 17.509 244.36 14.017 227.244 16.3286C211.457 18.4434 199.358 31.8211 199.899 47.9038C200.145 55.3795 201.375 63.1503 203.981 70.1343C208.801 83.2168 214.359 96.1518 220.703 108.546C232.31 131.268 233.343 154.777 227.589 179.024C224.392 192.648 220.064 206.026 217.556 219.747C212.687 246.503 201.129 270.16 187.801 293.521C175.653 314.817 159.078 328.539 134.93 333.261C127.307 334.736 119.831 335.621 112.306 333.556C96.4205 329.129 79.9446 326.719 64.9933 319.096C55.7471 314.375 45.714 312.702 35.4349 312.801C31.6479 312.801 27.8609 313.44 24.0739 314.08C15.2212 315.604 9.46703 327.31 13.7459 334.884C14.9754 337.097 16.1067 339.359 17.533 341.474C30.8121 361.491 50.2388 373.394 72.4691 380.328C84.6662 384.115 96.4204 388.493 108.224 393.263C118.798 397.493 130.11 399.805 141.127 402.903C150.865 405.657 160.75 408.018 170.439 411.018C182.587 414.756 194.44 419.576 206.686 422.92C229.949 429.216 252.966 437.183 277.902 436.052V436.101ZM516.582 160.925C515.549 160.335 514.368 159.056 513.483 159.253C504.434 160.778 496.81 165.352 490.072 171.352C474.777 184.975 461.104 199.976 452.842 219.059C440.743 247.044 428.448 274.881 416.89 303.112C413.103 312.407 417.824 320.277 424.857 326.769C428.497 330.113 433.218 330.752 434.546 327.556C436.513 322.883 438.087 318.063 440.3 313.539C464.154 264.405 486.974 214.731 515.155 167.762C516.287 165.893 516.09 163.188 516.532 160.925H516.582ZM350.691 549.418C352.117 544.106 351.478 538.745 348.084 535.007C330.035 515.138 308.394 500.629 282.525 492.858C279.18 491.825 274.902 492.071 271.557 493.153C265.655 495.071 260.049 498.022 254.491 500.826C249.819 503.186 248.934 510.613 252.868 513.515C267.082 523.843 281.197 534.565 297.821 540.565C308.591 544.45 318.329 549.762 327.92 555.812C331.068 557.779 334.756 558.812 338.248 560.238C341.248 561.468 346.068 559.5 347.839 556.107C348.97 553.943 349.806 551.582 350.74 549.418H350.691ZM172.505 489.415C149.684 491.776 126.127 495.366 104.782 507.711C102.618 508.941 101.044 511.105 99.1256 512.728C96.3222 515.187 95.4863 521.433 98.0437 522.663C100.159 523.695 103.011 525.073 104.929 524.433C119.388 519.712 133.897 514.99 148.062 509.432C157.455 505.744 166.259 500.678 175.259 496.006C176.095 495.563 176.685 493.645 176.489 492.563C176.292 491.678 174.767 491.087 172.554 489.415H172.505ZM348.92 463.742C347.691 463.84 346.363 463.693 345.281 464.135C338.445 466.988 331.559 469.791 325.018 473.136C323.395 473.972 322.559 476.775 321.92 478.792C321.723 479.382 323.198 480.956 324.231 481.497C337.56 487.989 350.888 494.53 364.413 500.58C365.937 501.268 368.839 499.35 370.856 498.17C371.642 497.727 372.282 496.006 372.085 494.973C369.872 482.136 362.937 472.349 352.462 464.873C351.478 464.185 350.15 464.037 348.97 463.644L348.92 463.742ZM214.211 175.778C217.261 165.352 218.785 161.81 219.179 158.171C219.425 156.105 217.801 153.843 217.064 151.679C215.195 153.007 212.441 153.892 211.605 155.663C207.768 163.729 206.982 172.286 209.293 180.992C209.49 181.729 210.768 182.221 211.555 182.811C213.277 178.237 214.998 173.713 214.211 175.778Z" fill="black"/>
</svg>
