<svg width="449" height="644" viewBox="0 0 449 644" fill="none" xmlns="http://www.w3.org/2000/svg">
<path d="M62.8073 298.363C71.5125 279.379 88.5293 269.837 105.694 260.493C104.218 266.591 102.054 272.591 101.415 278.739C100.628 286.362 108.694 293.838 115.678 292.756C120.645 292.018 125.858 291.576 130.383 289.658C138.006 286.411 146.859 285.035 152.269 277.657C147.842 272.837 143.711 268.361 139.482 263.738C141.154 262.902 142.384 261.722 143.367 261.919C156.941 264.82 170.417 268.165 183.992 270.821C190.09 272.001 196.434 271.903 202.68 272.394C210.353 265.017 215.763 271.362 221.96 275.149C225.058 277.018 229.091 277.461 232.78 278.247C238.878 279.526 245.272 274.362 245.617 267.624C246.6 249.721 241.731 245.984 228.649 243.721C207.648 240.082 186.401 237.18 165.794 232.016C150.744 228.278 138.498 231.278 126.842 240.229C129.301 231.77 131.809 223.31 134.711 213.474C143.466 216.13 151.482 218.737 159.646 220.95C166.925 222.917 174.45 224.049 181.68 226.163C200.418 231.672 219.451 227.098 238.337 228.032C240.304 228.131 243.108 225.868 244.387 223.95C250.191 215.294 252.945 205.703 251.764 195.129C251.273 190.948 246.6 185.932 241.78 184.85C231.649 182.588 225.993 185.834 221.517 196.457C220.534 198.769 219.796 201.178 218.664 204.228C215.468 192.916 214.091 180.669 199.877 178.161C189.008 176.243 179.565 178.112 173.909 188.932C168.106 188.096 166.335 182.637 162.892 179.145C160.089 176.341 159.056 172.259 162.154 169.062C168.843 162.029 170.565 153.717 169.63 144.471C168.942 137.782 165.942 132.913 159.892 129.224C154.728 126.077 155.81 121.355 161.614 119.486C165.155 118.355 168.991 116.83 172.532 117.076C177.499 117.421 182.369 120.421 187.238 120.273C211.14 119.536 221.813 108.273 213.599 82.8947C212.025 77.9764 204.894 74.8287 199.189 69.9104C204.008 64.5003 210.058 59.6313 213.353 53.3359C216.55 47.2373 216.894 39.6137 219.796 27.2197C221.616 37.6956 222.206 42.7122 223.436 47.5321C225.649 56.3358 230.862 60.7129 239.37 60.8604C246.994 61.0079 254.666 61.254 262.191 60.3687C277.88 58.5489 278.716 63.5163 295.536 40.5972C296.323 42.958 297.454 45.2699 297.799 47.6798C298.831 54.4178 301.782 59.926 308.373 62.1884C316.734 65.041 325.193 67.8443 333.849 69.4673C346.636 71.8281 358.194 76.4023 368.374 84.419C358.341 83.0419 348.259 82.0092 338.324 80.2386C324.652 77.7795 310.831 71.8284 297.503 72.8612C283.044 73.9924 270.256 66.812 256.239 68.7301C249.993 69.5662 243.502 69.3198 237.403 70.7461C230.911 72.2216 226.337 76.9435 224.32 83.3864C223.189 86.9275 222.796 90.8623 222.796 94.6494C222.796 108.371 228.796 115.945 241.928 119.142C255.355 122.437 266.716 120.47 273.306 105.519C275.126 101.387 275.224 95.682 282.109 93.8623C282.503 99.0756 282.798 104.043 283.29 109.01C283.978 116.142 288.11 120.322 294.848 122.339C300.946 124.158 306.799 125.191 313.438 123.765C319.979 122.339 324.602 128.29 322.734 134.733C320.668 141.766 318.061 148.603 310.094 151.75C306.848 140.832 299.077 133.7 288.454 133.307C275.863 132.864 263.47 131.782 251.125 129.47C248.666 129.028 246.059 129.175 243.502 129.323C240.993 129.421 238.337 129.47 235.927 130.159C230.911 131.585 226.73 134.339 224.861 139.552C221.665 148.356 222.107 157.209 226.337 165.373C227.911 168.423 231.452 171.079 234.747 172.505C243.895 176.44 251.961 173.784 258.355 166.062C261.109 162.717 260.076 156.619 266.42 155.488C267.207 159.275 267.65 163.062 268.781 166.603C271.929 176.439 278.421 181.505 288.257 180.964C291.798 180.768 295.536 179.095 298.684 177.226C301.684 175.456 303.503 175.259 304.782 178.308C305.225 179.439 305.47 180.817 305.323 181.997C304.044 190.653 302.176 199.113 294.799 205.064C293.274 202.9 291.897 200.785 290.372 198.768C285.011 191.834 277.781 190.604 270.011 192.867C262.633 195.031 261.551 201.719 261.305 208.113C261.01 214.409 261.305 220.704 261.846 226.999C262.24 231.475 268.093 235.606 273.306 234.917C278.864 234.13 284.323 232.557 289.88 231.278C292.389 249.574 290.962 255.525 278.126 280.362C277.486 271.853 277.142 264.329 276.208 256.902C275.716 252.771 272.42 249.771 268.584 249.82C265.191 249.82 260.371 251.049 258.649 253.459C248.567 267.919 253.535 289.166 267.945 296.002C280.683 302.052 293.913 306.478 308.176 306.331C318.307 306.232 328.438 305.544 338.57 305.101C332.816 309.872 326.914 314.397 321.504 319.512C320.029 320.889 319.242 324.086 319.635 326.25C320.717 332.545 330.16 341.152 335.471 340.611C345.701 339.578 355.144 336.43 361.538 327.725C362.718 326.102 362.866 322.758 362.03 320.84C357.407 310.413 347.816 307.511 337.636 305.74C336.701 298.461 335.767 291.183 334.832 283.904C353.472 297.085 371.866 310.659 390.9 323.25C406.736 333.775 423.409 343.07 439.59 353.152C442.737 355.12 445.639 357.825 447.754 360.825C448.935 362.448 449.279 366.776 448.197 367.612C427.393 383.99 407.671 402.581 379.44 405.729C375.703 406.122 372.014 407.45 368.374 408.483C356.964 411.581 347.964 417.041 341.374 427.861C333.505 440.796 323.373 452.304 314.176 464.452C310.93 468.731 309.405 473.65 310.93 478.715C313.438 487.224 316.586 495.536 319.487 503.946C332.078 539.898 344.915 575.752 357.112 611.852C359.472 618.885 360.161 626.706 360.21 634.181C360.21 636.985 356.522 640.28 353.817 642.493C351.309 644.559 345.554 642.346 344.128 639.05C339.554 628.624 334.783 618.246 330.898 607.573C317.422 570.588 304.34 533.505 290.962 496.47C289.241 491.7 287.027 487.125 284.618 482.65C282.06 478.027 277.88 475.223 272.716 474.043C271.486 473.748 270.257 473.256 269.027 473.207C222.157 470.699 175.237 468.19 128.317 465.879C120.055 465.485 113.416 468.829 109.727 476.551C93.3494 510.93 77.1683 545.407 60.8399 579.834C55.9709 590.163 51.1508 600.54 45.8884 610.672C42.1506 617.853 35.3146 621.296 27.7405 623.361C23.1666 624.64 16.7732 620.115 16.9208 615.443C17.0191 611.705 16.478 607.475 18.0026 604.327C24.4946 590.556 30.9864 576.736 38.6588 563.654C59.807 527.406 77.6605 489.486 95.661 451.616C97.2349 448.321 97.3821 444.337 98.4149 439.468C94.1853 433.861 89.5127 427.959 85.2339 421.762C75.1024 407.204 64.2824 392.892 63.1021 374.153L62.3648 374.793C72.6438 375.727 82.4309 379.022 90.4967 385.023C101.809 393.482 113.956 399.236 127.285 403.515C131.514 404.843 134.515 409.958 138.056 413.352L138.646 412.663C134.859 413.057 131.023 413.155 127.334 413.893C122.465 414.925 120.842 418.319 122.268 422.106C125.121 429.779 130.088 434.992 138.007 437.254C160.04 443.55 182.319 448.665 205.336 449.354C226.927 449.993 248.518 450.534 270.109 450.681C275.027 450.681 280.044 449.304 284.814 447.829C288.798 446.55 290.077 442.861 289.93 438.829C289.782 435.14 285.995 431.451 282.503 431.894C262.338 434.353 242.124 435.976 221.763 434.451C218.173 434.205 217.091 432.533 219.304 428.992C223.288 428.402 228.157 427.762 232.977 426.877C238.288 425.942 243.748 423.139 243.649 417.827C243.452 403.81 252.453 401.007 263.174 399.581C276.945 397.761 290.766 397.318 308.963 400.073C291.454 405.138 278.224 408.876 265.043 412.811C264.207 413.057 262.978 415.27 263.273 415.712C264.404 417.434 266.076 420.139 267.552 420.139C278.962 420.139 290.372 420.139 301.684 419.106C310.684 418.319 318.75 414.532 324.996 407.745C328.734 392.056 324.947 378.432 316.93 364.514C308.619 350.005 298.044 337.463 287.765 324.626C280.437 315.527 270.797 309.577 259.879 305.347C232.337 294.724 203.96 288.576 174.303 289.412C156.204 289.953 139.826 294.625 124.186 304.757C109.53 314.298 95.0217 324.971 77.2178 328.807C83.4639 321.135 89.8571 313.659 95.7589 305.74C96.8409 304.265 96.743 300.527 95.5626 299.052C93.4478 296.297 89.9557 292.363 87.3982 292.609C78.9389 293.445 70.6273 295.904 62.2663 297.773L63.0042 298.412L62.8073 298.363ZM426.655 364.907C425.524 362.743 424.884 359.792 423.114 358.513C414.95 352.562 406.54 346.955 398.081 341.447C385.982 333.578 374.227 335.545 362.374 342.48C353.03 347.939 352.587 357.382 362.325 363.235C372.063 369.088 382.047 374.645 392.326 379.514C402.359 384.285 418.392 378.777 426.016 368.645C426.704 367.76 426.507 366.186 426.704 364.956L426.655 364.907ZM195.205 168.226C209.173 167.882 215.222 161.685 215.615 149.045C215.714 146.537 215.468 143.93 214.878 141.471C213.648 136.306 210.992 131.585 205.484 130.749C199.385 129.864 192.893 129.618 186.844 130.552C183.647 131.044 179.811 134.142 178.336 137.093C174.844 144.126 174.598 152.045 177.942 159.225C179.369 162.275 182.713 165.029 185.86 166.505C189.156 168.03 193.238 167.882 195.205 168.177V168.226ZM336.849 383.941C336.75 382.072 336.75 387.138 337.34 392.154C338.029 397.958 345.357 403.368 351.062 402.876C360.112 402.04 368.473 399.384 374.719 392.548C375.949 391.22 376.194 386.695 375.211 386.007C363.948 377.99 352.39 370.415 340.833 362.89C339.947 362.349 338.128 362.546 337.144 363.087C336.16 363.628 334.98 365.055 335.029 366.038C335.127 369.727 335.718 373.366 336.849 383.941Z" fill="black"/>
<path d="M161.22 46.4994C166.532 55.0079 171.893 63.5657 177.745 72.9596C174.745 74.9761 171.794 78.6649 168.843 78.6157C160.138 78.4681 151.384 75.9598 142.679 76.1073C136.629 76.2057 130.531 78.8615 124.678 80.9764C120.448 82.501 116.858 89.8782 118.235 93.6652C120.793 100.797 123.694 107.781 126.448 114.863C133.875 133.848 140.564 152.98 138.941 173.833C138.744 176.145 137.219 178.407 136.334 180.669C135.449 180.178 133.826 179.735 133.728 179.095C126.351 134.733 107.956 94.6487 85.9226 55.9913C83.4143 51.614 81.2995 46.9914 79.1355 42.3682C76.9223 37.5975 78.2994 30.0232 82.1847 29.2363C85.5291 28.5477 89.3656 30.3182 92.9559 31.0068L92.5134 30.3674C93.5462 36.5644 93.5949 43.155 95.7097 48.9585C103.972 71.2874 107.858 73.7955 128.514 70.8937C134.76 70.0084 141.154 69.9592 147.351 68.9755C156.056 67.5984 160.089 61.6477 161.171 53.3358C161.515 50.8275 161.663 48.319 161.909 45.8107L161.171 46.4994H161.22Z" fill="black"/>
<path d="M337.194 22.8916C329.62 22.4489 321.947 22.6952 314.57 21.4165C293.421 17.7278 272.519 12.8093 251.322 9.51409C228.747 5.97295 205.829 5.62841 183.303 9.8581C168.5 12.6615 160.385 17.4323 161.319 35.138C161.368 36.4167 161.319 37.6464 161.319 38.9251C161.319 41.4334 161.27 43.9911 161.221 46.4994L161.959 45.8108C159.991 42.8107 156.893 40.0567 156.204 36.8106C153.991 26.3839 147.647 19.6948 138.646 15.0225L139.237 15.7111C142.089 13.3012 144.548 9.90733 147.843 8.67777C154.975 6.02192 162.401 3.26789 169.877 2.72688C205.337 0.316937 240.994 -2.53551 276.257 4.10413C292.34 7.10427 309.455 6.61254 324.259 15.2687C328.538 17.777 332.57 20.826 336.702 23.6294L337.243 22.9901L337.194 22.8916Z" fill="black"/>
<path d="M314.176 214.458C313.733 201.671 315.652 189.522 321.849 177.964C330.21 162.423 337.587 146.34 345.505 130.552C348.948 123.667 353.374 117.667 360.555 114.175C358.145 121.11 356.472 128.438 353.275 134.979C341.373 159.423 328.144 183.227 318.996 208.95C318.258 211.064 315.848 212.638 314.225 214.458H314.176Z" fill="black"/>
<path d="M336.652 23.5309C357.751 21.9571 376.637 29.777 395.474 37.5478C406.687 42.171 408.458 52.0566 399.802 62.0898C397.441 64.8441 393.654 66.3197 390.556 68.3853L391.146 68.9263C391.785 62.7785 392.375 56.5816 393.015 50.5813C387.408 42.5645 379.047 40.1053 370.489 38.138C358.292 35.3838 345.997 33.0722 337.243 22.8423L336.701 23.4817L336.652 23.5309Z" fill="black"/>
<path d="M16.7242 329.25C18.0521 323.151 20.3637 317.495 26.0196 314.102C37.5282 307.167 48.8891 299.74 62.8076 298.363L62.0697 297.724C60.0533 300.625 58.0862 303.527 56.0697 306.429C49.4301 316.02 49.4303 316.659 54.9878 325.02C57.5945 328.906 60.1517 332.84 62.7091 336.726C57.2008 334.414 50.8566 333.135 46.381 329.594C36.1512 321.43 26.3637 323.053 15.9863 328.364L16.7242 329.25Z" fill="black"/>
<path d="M47.1181 366.432C41.6097 364.022 35.3147 362.645 30.7899 359.006C20.3634 350.645 10.7235 341.25 1.08387 332.004C-0.0964927 330.873 -0.391464 327.086 0.592174 325.905C1.62499 324.627 4.87105 324.233 6.78914 324.774C10.2811 325.758 13.4288 327.725 16.7732 329.25L16.0354 328.364C18.6912 338.201 26.7076 343.907 33.0029 350.989C37.6752 356.251 42.2001 361.71 46.7741 367.071L47.1181 366.383V366.432Z" fill="black"/>
<path d="M333.947 283.116C316.881 278.247 311.667 263.492 308.028 249.131C304.979 237.081 305.569 224.097 314.618 213.474C314.618 217.162 314.913 220.9 314.618 224.54C313.438 239.835 317.422 253.755 325.242 266.788C328.389 272.05 331.045 277.657 333.947 283.067V283.116Z" fill="black"/>
<path d="M359.914 115.109C362.472 104.682 365.029 94.2552 367.587 83.8285C371.57 81.517 375.603 79.3041 379.489 76.7958C383.423 74.2875 387.21 71.5327 391.046 68.8769L390.456 68.3359C384.948 86.9761 375.8 103.256 359.865 115.059L359.914 115.109Z" fill="black"/>
<path d="M108.645 23.3344C112.481 17.7276 118.285 16.1044 124.532 15.7109C129.401 15.4158 134.319 15.6125 139.237 15.6125L138.647 14.9238C130.237 24.6128 118.678 22.0556 108.006 22.6458L108.645 23.2852V23.3344Z" fill="black"/>
<path d="M62.856 374.055C56.7575 373.268 51.0028 371.743 47.1174 366.431L46.7734 367.12C52.872 367.661 57.9869 370.219 62.1674 374.743L62.9052 374.104L62.856 374.055Z" fill="black"/>
<path d="M92.9561 31.0069C96.0546 24.1705 102.153 23.3839 108.596 23.3347L107.957 22.6953C104.268 28.2038 98.6614 29.8756 92.5137 30.3675L92.9561 31.0069Z" fill="black"/>
<path d="M176.564 397.417C156.301 398.204 137.76 391.859 119.956 383.104C115.775 381.039 112.677 376.908 109.037 373.76L108.447 374.399C131.317 377.842 152.908 385.219 173.613 395.351C174.597 395.843 175.236 397.122 176.023 398.056L176.564 397.417Z" fill="black"/>
<path d="M176.072 398.056C190.63 397.318 205.188 396.728 223.238 401.105C204.45 403.925 188.909 402.695 176.613 397.417L176.072 398.056Z" fill="black"/>
<path d="M61.7734 336.086C67.1343 333.43 72.5438 330.824 77.9046 328.168C77.1669 330.48 76.8721 332.988 75.6917 335.004C71.8063 341.497 69.6917 341.546 61.7734 336.086Z" fill="black"/>
<path d="M92.7598 366.628C89.317 365.399 85.8253 364.366 82.5301 362.89C81.6941 362.497 80.8577 360.628 81.0545 359.693C81.8414 356.398 84.3004 355.562 86.5628 358.169C88.8743 360.825 90.3499 364.169 92.2188 367.218L92.7598 366.579V366.628Z" fill="black"/>
<path d="M161.27 420.336C153.057 419.549 144.892 418.565 138.45 412.564L137.859 413.253C146.171 413.843 154.975 412.909 160.729 420.975L161.27 420.336Z" fill="black"/>
<path d="M160.68 420.975C164.319 421.074 167.909 421.123 171.549 421.369C172.729 421.467 174.647 421.762 174.844 422.45C175.68 425.155 173.958 426.533 170.762 425.303C167.466 424.025 164.417 422.008 161.27 420.336L160.729 420.975H160.68Z" fill="black"/>
<path d="M109.037 373.76C102.84 373.219 96.6431 372.481 92.7577 366.628L92.2168 367.268C98.7088 367.268 103.873 370.169 108.447 374.399L109.037 373.76Z" fill="black"/>
<path d="M278.616 339.824C277.78 340.218 276.944 341.004 276.157 340.955C275.42 340.857 274.829 339.873 274.141 339.283C274.928 338.89 275.813 338.053 276.55 338.152C277.288 338.25 277.928 339.234 278.567 339.824H278.616Z" fill="black"/>
</svg>
