<svg width="432" height="619" viewBox="0 0 432 619" fill="none" xmlns="http://www.w3.org/2000/svg">
<path d="M314.489 373.964C311.932 378.243 309.915 383.063 306.62 386.703C299.833 394.228 292.308 401.113 285.128 408.343C280.504 413.015 277.849 418.77 277.406 425.311C276.816 434.164 276.766 443.115 276.029 451.968C275.291 460.821 274.061 469.624 272.93 478.428C271.504 489.74 269.93 501.052 268.651 512.364C268.061 517.43 269.045 522.791 267.717 527.562C262.11 547.382 261.569 567.645 261.028 587.958C260.782 597.204 257.34 605.368 251.192 612.156C247.749 615.992 243.028 619.041 237.765 617.811C226.699 615.254 215.732 612.106 204.863 608.614C202.945 608.024 201.125 604.926 200.584 602.614C199.403 597.696 198.518 592.581 198.567 587.564C198.813 562.137 199.207 536.709 199.895 511.331C200.043 505.036 201.272 498.741 202.354 492.494C203.436 486.248 205.551 480.15 206.191 473.854C207.568 460.083 208.256 446.214 209.24 432.688C200.83 424.868 190.551 421.967 180.862 421.573C158.976 420.589 138.418 413.901 117.516 408.933C102.368 405.294 87.3671 404.999 72.1207 406.376C64.5467 407.064 57.7104 413.556 56.6776 421.032C55.989 426.049 55.448 431.115 55.1529 436.18C54.2185 453.886 55.3988 471.789 49.0052 488.953C47.2838 493.576 46.9886 499.036 47.3821 504.052C48.71 522.348 40.8901 538.873 37.89 556.284C36.9064 561.891 26.7257 568.334 19.9877 568.531C11.5776 568.826 2.42997 560.809 1.39715 552.349C-0.27504 538.382 -1.16028 524.119 2.971 510.692C7.5941 495.74 7.9383 480.691 8.43012 465.493C8.97112 447.738 8.72509 429.934 13.84 412.524C15.6106 406.572 15.2664 399.933 15.4631 393.588C16.0533 374.555 15.3648 355.373 22.0044 337.028C22.8405 334.668 23.1354 332.012 23.0862 329.503C22.201 300.141 26.5783 271.321 31.2014 242.5C32.8244 232.516 34.2013 222.433 35.6768 212.449C36.808 204.924 38.5786 197.399 38.8737 189.874C39.5623 173.3 43.3986 157.168 45.1199 140.889C48.2184 111.232 46.9395 116.642 67.9893 95.0505C90.0228 72.4757 112.646 49.9501 139.205 32.146C150.812 24.3752 161.829 15.8174 172.993 7.40721C180.469 1.75122 188.829 -0.461945 198.026 0.0790627C203.092 0.374158 208.453 -0.0684908 213.174 1.45617C232.946 7.89908 253.307 7.70235 273.619 7.45644C295.505 7.16135 316.407 13.4075 337.555 17.2437C352.703 19.9979 367.606 21.5718 382.852 21.9161C394.262 22.2112 405.721 22.8014 417.082 23.7358C427.804 24.6211 432.28 30.6705 431.296 41.5399C430.362 51.6715 429.28 61.7538 428.69 71.8854C428.149 80.8858 426.821 89.6896 422.198 97.5096C415.41 108.92 414.279 121.412 413.541 134.2C413.099 141.774 412.656 149.545 410.541 156.774C407.295 167.939 406.312 179.202 406.213 190.661C406.213 195.727 405.82 200.842 405.623 205.908C405.033 222.286 400.607 238.073 402.426 255.041C404 269.845 400.065 285.288 398.344 300.387C397.606 306.683 396.426 312.929 395.246 319.126C394.557 322.864 392.59 326.553 392.639 330.192C393.131 359.603 383.836 387.834 382.557 417.048C382.213 424.623 381.672 432.344 379.803 439.672C376.901 450.886 375.376 462.1 375.425 473.608C375.475 486.592 371.589 498.642 366.819 510.495C365.245 514.381 358.458 516.643 353.687 514.922C341.342 510.397 336.719 504.642 336.523 492.74C336.08 467.264 336.67 441.984 346.457 417.737C352.753 402.097 352.556 385.473 351.13 368.899C350.835 365.505 346.162 363.39 342.277 364.718C332.785 367.964 324.866 375.686 313.85 374.555C316.505 370.374 318.473 365.407 321.965 362.161C332.145 352.767 343.015 344.111 353.539 335.061C361.163 328.471 369.032 322.077 376.065 314.896C382.754 308.06 383.836 299.404 381.229 290.207C380.344 287.157 374.638 284.797 371.884 286.42C370.802 287.059 369.475 287.305 368.442 287.993C337.998 308.503 312.276 334.815 283.406 357.341C276.521 362.702 270.521 369.538 265.16 376.522C259.848 383.457 254.831 391.08 254.585 400.375C254.536 402.539 256.208 404.9 257.536 406.917C257.93 407.507 260.045 407.704 260.93 407.212C266.487 404.31 272.34 401.802 277.258 398.064C284.242 392.703 290.439 386.309 297.177 380.555C302.095 376.325 307.899 374.014 314.489 374.063V373.964ZM178.452 139.708C177.763 154.856 178.944 170.349 175.993 185.005C172.452 202.465 169.156 219.728 168.714 237.581C168.566 242.647 165.517 246.926 160.55 249.533C153.861 253.074 147.074 256.615 140.828 260.795C112.302 280.026 88.6948 305.06 63.2678 327.93C61.6939 329.356 61.2514 332.159 60.5628 334.422C59.9726 336.389 65.3336 340.717 68.973 341.307C87.7113 344.307 106.351 348.783 125.237 349.865C146.926 351.144 168.025 355.029 189.174 358.915C205.354 361.915 221.338 366.046 237.323 369.981C245.536 371.997 252.176 369.882 258.127 364.177C263.635 358.915 269.684 354.193 274.947 348.734C297.03 325.716 322.063 306.339 347.835 287.797C358.114 280.419 367.95 272.304 378.081 264.681C384.573 259.812 388.311 253.517 388.705 245.401C389.246 233.991 389.639 222.581 389.737 211.17C389.737 209.99 387.475 208.81 385.016 206.351C384.475 212.744 383.983 217.662 383.59 222.581C382.95 230.155 382.508 237.729 381.721 245.254C381.278 249.483 374.835 255.189 371.147 254.795C353.49 252.975 335.883 251.156 318.276 249.139C305.686 247.713 293.144 245.893 280.603 244.319C273.078 243.385 265.258 243.434 257.979 241.516C234.224 235.27 210.519 234.483 186.665 240.336C183.813 241.024 178.845 236.647 178.845 233.598C178.845 228.581 178.501 223.466 179.288 218.548C184.747 185.743 185.042 178.612 178.501 139.659L178.452 139.708ZM367.556 144.184C367.556 136.56 367.704 128.986 367.556 121.363C367.409 114.92 362.638 109.018 356.638 107.444C336.965 102.182 317.046 99.6244 296.587 99.7227C272.586 99.8211 248.339 101.149 225.175 92.3946C222.912 91.5585 220.158 92.0503 217.65 91.9027C209.682 91.4109 202.207 97.1161 201.321 104.493C200.879 108.281 200.436 112.018 200.289 115.806C199.305 136.02 199.207 156.184 194.584 176.202C192.075 186.973 194.141 198.826 194.338 210.236C194.436 214.761 198.813 219.384 203.977 220.663C221.191 224.843 238.159 229.663 256.307 228.827C266.34 228.384 276.816 229.171 286.455 231.778C303.915 236.499 321.621 236.253 339.277 236.647C352.753 236.991 358.015 232.073 359.392 219.482C360.622 208.17 360.769 196.563 363.474 185.596C366.868 171.824 367.458 158.053 367.655 144.135L367.556 144.184ZM173.829 27.6211C164.288 28.113 157.943 32.2444 152.091 37.2118C143.385 44.5892 135.418 53.0485 125.975 59.2947C107.728 71.3444 93.5147 87.5256 78.1208 102.575C73.5469 107.051 74.9733 110.986 78.9079 115.609C83.7277 121.265 78.5143 127.609 78.5143 133.659C78.5143 138.184 81.957 141.626 85.5473 140.151C89.0392 138.675 93.0229 137.938 95.9738 135.774C127.352 112.559 160.058 91.2142 191.436 65.295C198.322 73.1642 208.059 75.8692 217.896 78.3775C243.618 84.968 269.438 90.9683 296.292 90.8699C319.112 90.7716 341.933 91.6077 364.753 91.8044C372.327 91.8536 379.999 91.8044 387.475 90.7224C398.295 89.1486 406.164 82.8531 409.804 72.3773C415.951 54.7699 409.754 46.9008 394.36 46.2123C388.016 45.9172 381.672 45.3269 375.376 45.4744C351.179 46.1138 327.375 43.9498 303.767 38.2446C294.915 36.1297 287.095 33.7691 280.111 27.5721C274.111 22.2604 265.602 21.5225 258.373 23.4898C242.388 27.8179 226.159 29.6868 209.879 32.0968C206.781 32.5394 203.977 36.2282 201.518 38.9332C199.895 40.753 199.354 43.5071 197.977 45.622C194.731 50.6386 189.419 50.737 185.927 45.7204C181.649 39.5726 177.517 33.228 173.78 27.6211H173.829ZM157.746 231.483C158.336 228.63 159.91 223.761 160.205 218.843C161.287 202.367 160.992 185.743 166.796 169.906C166.894 149.643 167.042 129.429 166.943 109.166C166.943 106.018 164.287 104.346 161.336 105.625C155.582 108.084 149.533 110.346 144.566 113.986C133.303 122.199 122.975 131.741 111.614 139.807C99.5149 148.414 92.2851 159.676 89.4326 174.038C88.4489 179.005 86.6786 183.874 85.9901 188.891C81.8588 219.04 77.5797 249.139 71.5795 278.993C70.891 282.485 72.219 286.42 72.9568 290.108C73.5469 293.108 75.76 294.633 78.711 293.994C81.1209 293.502 83.7768 292.813 85.5965 291.289C109.155 271.911 132.565 252.385 157.697 231.483H157.746ZM206.338 412.966C214.404 414.196 221.88 415.573 229.404 416.212C231.421 416.36 234.864 414.589 235.552 412.868C237.814 407.064 239.929 400.917 240.421 394.769C240.667 391.719 238.011 386.85 235.306 385.424C227.536 381.391 219.224 378.096 210.813 375.637C203.584 373.522 195.862 373.178 188.436 371.555C160.058 365.358 131.827 358.57 102.466 358.521C92.5312 358.521 82.6456 355.029 72.6617 353.554C67.7435 352.816 62.6286 352.57 57.6613 352.816C55.3989 352.964 52.5955 354.39 51.2184 356.16C45.7101 363.341 43.2016 371.751 43.0541 380.752C43.0541 382.768 44.9722 386.162 46.7427 386.703C62.3334 391.621 77.924 396.834 94.6458 396.785C108.614 396.785 122.139 399.933 135.91 401.949C159.664 405.392 182.386 415.032 206.338 413.065V412.966ZM208.748 576.351C209.092 581.072 209.437 586.138 209.83 591.204C210.371 597.597 215.338 602.22 222.912 602.417C227.88 602.565 232.946 601.926 237.815 600.794C242.044 599.86 243.372 595.925 243.716 591.991C244.06 588.597 242.585 587.761 239.732 587.909C231.372 588.351 229.65 587.367 229.749 582.548C230.093 567.301 230.585 552.103 231.027 536.906C240.815 507.642 234.716 476.215 243.175 446.705C244.011 443.755 241.405 439.574 239.88 436.18C238.405 432.885 232.995 430.524 230.24 432C228.175 433.082 225.372 434.754 224.88 436.672C220.207 455.066 214.945 473.215 215.338 492.691C215.732 514.233 215.634 535.873 209.83 557.022C208.207 562.973 209.043 569.662 208.748 576.351ZM34.7915 347.652C41.0868 319.47 47.333 297.486 47.4806 274.468C47.4806 270.73 48.3166 266.845 49.5953 263.255C53.4807 252.238 53.7758 240.827 54.4643 229.417C54.8578 223.122 55.0545 216.531 56.9726 210.58C63.3663 190.71 61.9893 170.398 61.6942 150.086C61.6942 149.004 60.8088 147.626 59.9727 146.889C58.3497 145.512 56.0381 146.692 55.9397 149.938C55.5463 169.119 50.9234 187.612 48.1692 206.4C45.8085 222.679 43.546 239.008 40.9885 255.287C38.2343 272.796 38.1851 290.551 33.562 307.961C30.7095 318.782 31.1029 330.487 34.7423 347.553L34.7915 347.652ZM249.766 563.956C250.503 561.596 251.782 559.235 251.881 556.825C252.618 536.611 253.602 516.594 257.93 496.626C260.832 483.248 259.799 468.936 260.192 455.066C260.291 451.476 259.061 447.837 257.881 440.705C255.815 447.099 254.241 450.05 253.995 453.148C253.061 464.46 254.635 476.461 251.487 487.035C244.454 510.692 246.667 534.595 246.225 558.497C246.225 560.268 248.536 562.088 249.766 563.907V563.956ZM395.836 174.874C399.082 163.808 398.344 152.84 397.164 141.971C396.77 138.479 394.705 137.888 392.885 140.446C390.426 150.774 390.475 161.594 392.738 172.414C392.885 173.201 394.361 173.742 395.836 174.874ZM42.9067 438.344C46.2511 423.836 46.9887 414.638 43.1033 403.867C38.4802 414.933 39.1197 424.327 42.9067 438.344ZM36.1196 462.395C32.0375 476.756 31.2995 486.15 34.9882 497.56C39.5129 486.888 38.5295 477.641 36.1196 462.395ZM372.475 37.6544C373.704 37.6052 375.081 37.8512 376.163 37.4086C378.327 36.5233 380.344 35.2445 382.458 34.1133C380.294 33.228 378.131 31.8509 375.868 31.6542C372.18 31.3099 368.442 31.6541 364.753 31.9492C363.622 32.0476 362.196 32.6378 361.605 33.4739C360.425 35.1461 361.802 36.6708 365.097 37.1135C367.556 37.4578 370.015 37.5069 372.524 37.6544H372.475ZM230.732 19.2602C229.798 18.4241 228.962 16.9978 227.978 16.8994C224.339 16.5059 220.601 16.4568 216.961 16.6043C216.027 16.6043 214.256 18.6699 214.355 18.8667C216.715 22.5554 220.65 22.6047 224.29 22.2112C226.503 21.9653 228.568 20.293 230.732 19.2602ZM29.4309 541.824C29.726 539.07 32.9226 535.234 26.7749 534.939C26.7749 537.25 26.7749 539.513 26.7749 541.824H29.4798H29.4309ZM401.689 109.313L403.361 106.313L400.754 105.92L401.689 109.363V109.313Z" fill="black"/>
</svg>
