<svg width="436" height="408" viewBox="0 0 436 408" fill="none" xmlns="http://www.w3.org/2000/svg">
<path d="M390.506 213.642C389.817 218.904 387.997 224.118 383.079 226.184C374.964 229.577 366.505 232.725 357.849 234.249C348.062 235.921 337.881 235.676 327.848 236.315C328.241 238.676 327.848 241.528 329.077 242.758C333.504 247.283 338.668 251.07 343.291 255.447C349.045 260.906 352.537 267.447 351.75 275.759C351.062 283.383 351.504 291.153 349.98 298.58C348.013 308.072 350.275 315.646 355.734 323.466C358.341 327.253 359.374 333.205 358.833 337.926C356.472 356.763 353.177 375.502 350.078 395.519C345.75 398.765 340.832 402.65 335.619 406.191C331.537 408.995 324.75 405.503 324.258 400.486C323.766 395.421 322.93 390.306 323.274 385.338C323.815 377.764 324.454 369.993 326.52 362.714C332.815 340.779 326.323 322.975 310.831 307.187C303.749 299.957 297.06 292.039 291.65 283.432C280.437 265.578 265.24 257.267 243.993 258.693C226.238 259.873 208.386 259.431 190.582 259.972C184.336 260.169 178.63 265.382 177.155 271.579C174.499 282.694 172.531 294.055 169.187 304.924C167.81 309.351 163.63 313.04 160.384 316.778C158.367 319.138 151.285 318.056 150.449 315.253C148.629 309.302 145.777 303.105 146.121 297.154C146.76 285.842 149.416 274.677 151.138 263.414C151.875 258.644 145.137 253.824 140.613 255.89C136.039 258.005 130.481 259.283 127.137 262.677C116.809 273.104 104.218 278.268 90.3489 281.219C86.6111 282.006 82.9224 282.94 79.2338 283.973C71.2663 286.186 65.6596 290.858 64.5284 299.465C61.5775 322.138 52.9214 343.828 53.3148 367.091C53.364 370.731 52.0853 374.764 50.3148 378.01C48.5442 381.207 45.839 384.699 42.6914 386.125C39.6421 387.502 35.3144 387.01 31.97 385.977C30.2978 385.486 28.527 381.846 28.6254 379.731C29.5599 358.14 30.8875 336.598 32.0187 315.056C32.658 303.498 35.0683 292.383 40.3307 281.956C43.921 274.874 48.6917 269.071 57.5936 269.169C62.8561 269.218 67.0365 267.546 71.6596 264.841C82.6763 258.447 94.3813 253.185 107.611 257.66C111.103 245.758 109.038 236.02 106.136 225.396C94.7259 217.281 80.66 216.298 66.8891 214.576C56.8068 213.347 46.4291 213.937 36.4944 212.117C29.2155 210.789 22.1824 207.248 15.5428 203.805C10.7722 201.346 9.34614 196.084 9.00187 190.821L8.46094 191.215C12.1004 192.1 16.1331 192.248 19.3299 193.92C36.5928 202.92 54.987 206.215 74.2663 206.756C88.1357 207.15 102.005 209.117 115.874 210.101C130.973 211.183 146.121 212.314 161.269 212.756C192.844 213.691 224.566 211.625 255.698 219.494C261.748 221.019 268.289 220.97 274.584 221.019C301.142 221.363 327.75 221.167 354.308 221.806C367.341 222.101 379.243 218.708 391.047 214.035L390.456 213.593L390.506 213.642ZM153.99 221.167C150.744 221.413 141.941 221.609 133.235 222.839C129.842 223.331 126.153 225.249 125.612 229.97C125.071 234.594 128.563 240.545 132.891 241.577C135.35 242.168 137.76 243.25 140.219 243.25C165.351 243.446 190.188 248.709 215.566 246.201C233.025 244.479 250.78 245.119 268.092 250.234C275.272 252.348 283.191 252.349 290.027 248.217C291.65 247.234 293.175 243.938 292.732 242.168C291.65 237.25 289.339 232.577 283.732 231.151C280.092 230.216 276.355 229.184 272.666 229.134C239.862 228.593 207.155 226.97 174.646 222.298C169.679 221.609 164.564 221.708 153.941 221.167H153.99ZM322.635 266.464C321.946 264.644 320.963 261.152 319.34 257.955C317.618 254.611 311.667 254.857 309.946 258.103C306.208 264.988 309.798 274.038 316.979 275.907C319.684 276.645 322.733 272.563 322.684 266.464H322.635Z" fill="black"/>
<path d="M9.05093 190.821C6.73938 187.969 2.8049 185.362 2.36226 182.263C-1.03129 158.262 -0.6381 134.163 2.70627 110.162C3.59154 103.62 7.28002 98.0137 12.9851 94.7676C32.8054 83.4556 52.8228 72.3404 72.9874 61.6187C78.4958 58.6677 84.8404 56.9954 90.9389 55.4216C104.857 51.8805 118.136 59.7989 123.3 74.5044C124.579 78.0948 124.874 82.0787 126.596 85.3739C127.629 87.3412 130.333 89.161 132.596 89.702C144.006 92.3578 155.318 91.4232 166.236 87.341C171.302 85.4721 174.843 81.1934 175.679 76.1768C177.106 67.4223 177.548 58.5202 177.892 49.6673C178.286 39.2406 181.482 29.9452 186.499 20.7972C194.811 5.74738 207.008 -1.08905 224.025 0.140509C232.878 0.779881 241.78 1.12423 250.632 2.0587C265.78 3.68172 280.83 6.28818 295.978 7.37019C311.372 8.50139 326.028 12.4854 340.439 17.4036C361.833 24.6826 369.259 35.355 368.817 56.8478C368.522 70.6681 369.702 84.5376 370.39 98.4071C370.587 101.85 376.882 104.26 379.587 101.948C383.374 98.7515 387.309 95.5054 390.505 91.7676C394.932 86.6034 400.342 84.0459 406.933 83.4557C397.49 98.4072 392.03 114.982 387.014 131.753C385.587 136.622 388.587 141.786 393.653 143.262C404.424 146.36 411.703 143.557 415.441 134.753C420.9 122.015 424.097 108.736 423.408 94.8661C423.261 91.9643 419.72 88.423 416.818 86.7016C413.818 84.8819 409.687 84.882 406.047 84.0951C408.998 81.9802 411.654 78.7343 414.9 77.9965C424.786 75.7833 433.392 81.3901 434.425 90.2429C435.015 95.112 435.557 100.276 434.622 105.047C432.95 113.605 430.54 122.015 427.786 130.326C420.359 152.803 412.638 175.23 404.867 197.608C402.359 204.838 398.424 211.084 390.505 213.642L391.096 214.084C393.112 206.805 395.128 199.526 397.194 192.297C399.309 184.821 399.9 177.247 397.588 169.82C396.899 167.607 394.932 165.689 393.211 163.967C391.539 162.344 385.096 164.705 382.932 166.869C377.227 172.624 375.751 180.05 374.128 187.526C371.226 200.559 364.636 205.527 353.226 205.625C330.356 205.822 307.241 207.15 284.764 204.199C260.764 201.051 236.861 199.182 212.762 198.346C205.188 198.051 197.614 196.772 190.138 195.543C153.842 189.493 117.792 181.919 80.6595 183.001C72.0034 183.247 63.0527 181.034 54.5442 178.771C27.6909 171.64 26.4611 169.525 28.5268 142.229C28.9202 137.261 28.5759 132.195 27.8874 127.228C27.5431 124.916 26.0677 122.31 24.2972 120.736C22.6742 119.261 19.7722 117.883 17.8541 118.326C15.8376 118.769 13.5265 121.08 12.7396 123.146C11.4117 126.589 10.772 130.474 10.5753 134.212C9.73916 153.246 9.19859 172.279 8.55923 191.264L9.10016 190.87L9.05093 190.821ZM69.5443 137.753C74.1674 126.638 85.1845 121.474 92.6109 112.916C99.4964 104.998 103.578 96.0463 105.201 85.7671C106.529 77.1602 98.0207 67.7665 89.3155 68.4059C86.8073 68.6026 84.1021 68.4057 81.7906 69.1927C63.8883 75.5864 47.8554 84.9804 34.8222 96.735C36.3468 111.293 37.8221 123.785 38.9041 136.278C39.4943 142.966 42.2489 148.327 47.3146 152.606C48.9868 158.656 49.9703 165.689 57.6427 167.017C78.8893 170.656 99.8901 175.968 121.727 176.165C133.088 176.263 144.448 178.132 155.711 179.804C178.286 183.099 200.663 188.214 223.385 190.034C263.862 193.28 304.683 190.575 345.111 196.477C357.947 198.346 367.243 189.493 368.718 177.001C370.685 160.672 368.669 144.049 373.095 127.818C373.735 125.458 370.095 119.703 367.587 119.064C357.8 116.752 347.717 115.867 337.684 114.441L338.225 115.129C339.602 105.145 341.422 95.2102 342.209 85.177C342.947 75.1437 343.193 65.0124 342.602 54.9791C342.209 48.3887 337.832 42.9785 332.028 40.0767C325.29 36.6831 318.11 33.8796 310.831 32.0107C302.273 29.8467 293.273 29.5026 284.666 27.5844C259.632 22.0268 234.402 21.7809 209.073 23.5514C197.073 24.3875 188.269 32.7486 186.401 45.3885C184.335 59.2088 183.597 73.0781 185.712 87.0459C186.204 90.3903 185.221 93.9316 184.975 96.3907C182.565 97.9154 181.581 99.0466 180.499 99.1942C172.974 99.9319 165.351 101.309 157.925 100.817C132.448 99.1939 110.464 106.473 92.1192 124.376C85.7256 130.622 78.8889 136.278 69.5935 137.704L69.5443 137.753ZM356.717 75.0946C361.341 68.2582 361.587 61.4711 356.816 54.5856C352.537 61.422 352.094 68.2091 356.717 75.0946Z" fill="black"/>
<path d="M283.585 114.588C259.683 113.851 235.731 113.113 211.829 112.375C208.681 112.277 206.763 110.162 208.042 107.26C208.878 105.44 211.878 103.227 213.747 103.375C233.813 104.998 253.879 106.768 273.847 109.178C277.142 109.572 280.044 113.113 283.093 115.228L283.585 114.588Z" fill="black"/>
<path d="M283.092 115.228C301.486 115.228 319.88 115.228 338.274 115.228L337.733 114.539C336.848 115.375 336.11 116.556 335.077 116.998C317.568 124.277 300.305 125.015 283.633 114.637L283.141 115.277L283.092 115.228Z" fill="black"/>
<path d="M46.5762 153.049C52.0845 144.048 59.265 137.606 70.4785 137.114C65.3636 146.704 56.9536 151.327 46.5762 153.049Z" fill="black"/>
</svg>
