<svg width="400" height="669" viewBox="0 0 400 669" fill="none" xmlns="http://www.w3.org/2000/svg">
<path d="M20.9189 273.219C18.7057 277.744 15.6565 282.023 14.3777 286.794C11.9186 296.138 15.0663 304.45 21.755 311.139C25.2961 314.68 29.3782 318.172 33.903 320.188C55.9856 329.828 77.9699 339.37 102.118 343.599C151.3 352.206 200.63 354.173 250.205 348.911C262.796 347.583 275.386 345.665 287.682 342.812C300.026 339.96 312.125 336.271 324.912 335.238C339.077 334.107 352.012 328.353 364.11 321.27C369.471 318.123 374.34 313.696 378.373 308.926C386.931 298.794 383.685 281.777 372.176 275.973C365.438 272.58 358.258 269.629 350.93 267.907C333.617 263.825 316.256 259.3 298.649 257.382C279.616 255.267 268.353 247.939 267.468 227.479C267.173 220.791 261.222 216.512 254.582 215.135C245.926 213.315 237.024 212.577 228.417 210.61C223.106 209.38 220.155 204.757 218.827 199.691C216.466 190.888 216.712 182.035 220.647 173.625C227.926 158.034 238.303 145.787 255.861 141.361C270.96 137.574 284.091 129.95 295.698 119.72C313.945 103.539 320.437 76.3907 311.436 53.4717C307.158 42.5532 300.321 33.6019 289.698 27.8475C276.173 20.5193 262.156 13.8306 246.615 13.7814C217.401 13.7814 188.187 14.4698 159.022 15.7977C151.644 16.142 144.316 19.5355 137.087 21.8471C129.857 24.1587 122.775 26.9621 115.643 29.5688C117.955 25.1915 119.332 19.7323 122.824 16.7322C127.496 12.7484 133.545 9.05989 139.497 7.97787C183.514 0.157852 227.729 -4.80975 271.894 7.19078C280.403 9.50236 288.469 13.5355 296.387 17.5193C305.731 22.2408 312.322 29.9624 317.535 38.9628C341.29 79.5876 319.207 117.704 291.616 135.016C280.895 141.754 268.943 146.476 257.927 152.722C250.107 157.148 243.369 162.952 239.828 171.706C238.155 175.789 239.533 183.953 243.369 185.379C265.058 193.592 279.862 207.413 284.239 231.266C285.419 237.611 291.124 242.087 297.223 244.349C304.305 246.956 311.682 248.923 319.06 250.349C332.781 253.005 346.552 255.218 360.323 257.382C372.274 259.251 381.324 265.793 389.488 274.203C401.833 286.941 402.226 300.712 390.964 315.221C382.898 325.598 372.52 332.73 360.717 337.796C352.552 341.288 344.093 344.14 335.683 346.993C324.568 350.731 319.945 359.485 318.273 369.961C317.289 376.158 317.486 382.65 317.879 388.945C319.306 410.537 321.224 432.029 322.748 453.621C324.175 473.884 324.322 494.196 335.437 512.541C339.323 518.935 334.06 528.034 326.289 530.64C322.748 531.821 318.912 532.362 315.174 532.558C308.731 532.854 301.993 527.837 301.059 522.132C300.223 517.164 299.534 512.099 299.387 507.082C298.747 476.54 298.748 445.997 297.518 415.504C296.879 400.307 294.321 385.159 292.108 370.109C290.977 362.24 283.944 357.567 275.288 357.961C270.222 358.157 265.058 358.206 260.14 359.239C238.893 363.813 217.45 365.879 195.761 366.125C183.465 366.272 178.006 372.322 177.219 385.454C174.612 427.357 172.055 469.211 169.793 511.115C168.366 537.772 167.973 564.429 164.383 591.036C161.874 609.824 163.251 629.153 162.464 648.187C162.268 653.105 161.382 658.417 159.218 662.695C157.792 665.548 153.563 668.401 150.366 668.646C137.087 669.827 123.512 656.793 126.267 645.285C135.759 605.447 139.201 565.068 139.005 524.247C139.005 521.689 139.152 519.132 139.398 516.623C143.529 474.867 147.71 433.161 151.841 391.405C152.235 387.617 152.579 383.83 152.825 380.043C153.317 371.781 148.989 364.453 141.267 362.485C119.135 356.878 96.8558 351.813 74.0846 349.747C68.3795 349.255 61.3465 354.469 59.4775 360.125C57.9037 364.944 55.8381 369.813 55.4446 374.732C52.838 409.11 43.4934 442.259 36.903 475.851C34.6899 487.065 32.9193 498.426 29.8209 509.393C28.5421 513.869 24.6568 517.853 21.3124 521.492C18.4598 524.591 10.5907 524.689 7.00045 522.525C3.31181 520.263 0.114984 513.23 1.19699 509.246C2.18062 505.606 2.67244 501.426 4.83645 498.622C12.8039 488.196 16.5417 476.343 18.7057 463.604C22.1485 443.587 26.4273 423.668 29.9684 403.651C33.0669 386.142 35.6243 368.535 38.3293 350.927C39.5589 342.911 37.9359 335.779 30.8045 330.763C26.624 327.812 22.296 325.106 18.4107 321.86C11.3285 315.958 7.34472 307.942 4.88563 299.286C2.57408 291.22 4.88563 284.039 10.8858 278.482C13.5908 275.973 17.5254 274.842 20.8697 273.121L20.9189 273.219Z" fill="black"/>
<path d="M93.4624 51.6025C91.446 58.9307 89.7738 66.3571 87.3639 73.587C79.9866 95.8175 95.774 127.737 119.135 136C128.726 139.393 138.562 142.049 148.104 145.59C158.973 149.623 170.875 167.821 161.137 184.051C158.678 188.182 154.792 192.264 150.612 194.478C145.103 197.379 138.464 198.068 132.562 200.33C125.332 203.134 119.086 207.413 115.594 214.79C114.512 217.102 113.086 219.266 112.25 221.675C105.856 240.021 94.9871 250.349 73.7405 252.071C56.3793 253.497 39.0672 259.939 24.0176 270.219C26.8209 261.366 31.5424 254.333 40.9853 251.283C46.9855 249.365 52.789 246.07 58.8875 245.136C78.0193 242.234 90.9541 232.594 99.2167 214.79C105.856 200.429 118.053 191.428 133.841 187.445C138.562 186.215 142.841 183.018 147.218 180.51C150.809 178.444 152.481 169.837 149.481 166.837C145.103 162.411 140.677 157.689 135.365 154.738C127.693 150.459 118.791 148.295 111.07 144.115C90.5115 133 79.6423 115.343 78.5111 91.9812C78.216 85.6858 78.6587 79.2922 79.4948 73.046C80.7243 63.7997 85.1999 56.4224 93.4624 51.6025Z" fill="black"/>
</svg>
