<svg width="405" height="542" viewBox="0 0 405 542" fill="none" xmlns="http://www.w3.org/2000/svg">
<path d="M248.127 468.932C248.127 485.457 248.323 502.032 248.028 518.557C247.93 523.574 246.651 528.541 245.815 533.558C245.225 537.05 238.585 541.476 233.962 541.722C226.979 542.116 219.109 538.329 218.372 533.361C217.093 524.607 216.257 515.803 215.568 507C215.027 500.655 215.175 494.31 214.732 487.966C214.29 481.572 209.076 475.719 203.076 474.687C188.076 472.129 173.124 468.539 157.976 467.407C138.746 465.981 120.598 460.03 101.86 456.636C91.8758 454.817 81.8427 452.8 72.1047 449.948C56.4157 445.275 51.645 450.194 49.1367 465.145C46.3825 481.375 42.3988 497.409 38.4643 513.442C36.7921 520.377 28.1852 525.689 20.808 525.344C13.4798 525.049 5.16811 518.902 4.28283 511.819C3.39756 504.344 2.65983 496.474 4.03693 489.244C8.66003 465.588 14.3159 442.128 19.48 418.569C21.3981 409.913 23.2179 401.257 24.8409 392.552C26.4639 383.846 29.2181 375.092 29.0213 366.387C28.7754 356.55 17.8079 353.304 12.8405 346.222C9.25021 341.058 5.2173 335.5 3.98775 329.549C1.62702 318.483 -0.0943525 306.974 0.00401132 295.662C0.348285 258.775 1.62701 221.938 2.51228 185.051C2.70901 177.427 2.31556 169.755 2.90574 162.181C4.03693 148.311 6.74193 134.442 6.84029 120.572C6.93866 107.982 4.18447 95.391 3.15165 82.7511C2.06965 69.8653 3.74183 57.4711 9.74203 45.7165C20.3653 25.0107 39.6446 17.0924 60.7437 25.5026C67.8259 28.306 74.4162 32.3882 81.4984 35.0932C89.1708 38.0442 96.6956 36.6669 102.696 30.9618C106.335 27.519 109.04 23.0927 112.139 19.1089C119.418 9.61668 129.107 3.91139 140.517 1.00962C148.189 -0.95768 155.468 -0.0723106 162.55 3.86229C185.813 16.7481 202.388 36.3227 211.781 60.3237C219.995 81.3247 226.88 103.555 221.175 127.212C218.814 136.999 217.732 147.328 217.634 157.41C217.388 177.034 211.929 194.887 202.584 211.954C197.715 220.856 193.387 230.053 189.305 239.348C188.469 241.217 189.649 244.119 190.387 246.381C191.272 249.086 197.519 250.611 200.568 248.89C202.781 247.709 205.191 246.627 206.912 244.906C212.568 239.102 219.552 236.102 227.421 236.2C245.225 236.446 263.226 235.709 280.734 238.266C310.932 242.693 340.441 250.611 369.36 260.398C375.36 262.415 381.115 265.267 386.623 268.366C393.361 272.202 398.427 277.711 401.623 285.088C405.41 293.892 405.46 302.498 400.64 310.712C390.213 328.467 377.573 344.156 358.442 353.452C354.999 355.124 351.605 356.845 348.409 358.862C343.835 361.714 341.523 366.19 341.031 371.501C340.785 374.01 340.638 376.617 341.031 379.076C344.72 402.88 348.556 426.684 352.294 450.538C354.507 464.801 344.081 475.473 329.769 473.604C325.146 473.014 319.047 468.44 318.604 464.555C317.129 451.964 316.096 439.324 314.522 426.734C313.883 421.619 311.817 416.946 306.604 414.635C290.276 407.356 273.013 403.372 255.455 400.864C253.733 400.618 250.635 402.929 249.799 404.749C248.274 408.093 247.34 411.979 247.291 415.618C247.045 433.422 247.192 451.226 247.192 469.03C247.537 469.03 247.881 469.03 248.225 469.03L248.127 468.932ZM10.0863 277.76C10.5781 277.76 11.0208 277.858 11.5126 277.858C11.5126 286.76 11.2175 295.711 11.5618 304.564C12.1028 317.794 17.4636 329.205 26.0704 339.09C31.2345 344.992 37.579 349.124 45.4481 350.402C66.6947 353.943 88.1872 356.304 109.04 361.272C125.319 365.157 142.287 363.731 157.976 368.305C176.764 373.813 195.551 374.207 214.634 374.453C229.88 374.649 245.077 374.698 260.029 378.879C266.963 380.846 275.177 373.616 276.013 365.944C276.456 362.157 276.8 358.321 276.652 354.534C275.964 335.303 269.422 325.713 251.914 320.696C226.241 313.417 200.617 305.597 173.518 305.203C165.944 305.105 158.075 304.515 150.894 302.4C132.451 296.842 115.729 300.138 99.6957 309.876C97.5317 311.204 95.2202 312.286 93.0562 313.614C81.0558 320.991 68.957 320.499 56.7599 314.204C52.2352 311.892 47.7596 309.482 43.4808 306.679C36.5462 302.154 33.6444 295.367 33.3493 287.252C33.0051 278.104 35.3166 269.595 39.2512 261.48C44.9071 249.775 53.2188 240.184 63.4487 232.364C71.5145 226.167 80.1213 220.659 88.0396 214.363C94.089 209.544 98.9088 203.347 100.286 195.527C103.138 179.1 103.778 162.476 98.2203 146.492C91.9742 128.491 84.892 110.736 78.0557 92.9318C70.6292 73.4555 58.9239 57.127 42.3004 44.4379C38.8085 41.782 32.6116 41.9787 28.0377 45.028C23.6605 47.9298 19.726 51.471 19.7751 57.0286C19.7751 65.8814 21.103 74.7343 20.9063 83.5871C19.9719 120.474 18.7423 157.361 17.3652 194.199C16.9226 206.888 16.0373 219.577 14.9061 232.266C13.529 247.414 11.7093 262.513 10.0863 277.661V277.76ZM202.092 137.934C201.551 120.13 201.945 104.686 195.699 90.4726C189.551 76.6032 182.961 62.8321 175.534 49.602C168.649 37.3555 158.566 27.5682 147.156 19.3055C143.271 16.5021 137.615 16.8956 133.238 20.5351C130.484 22.7975 130.434 27.0272 134.221 29.929C141.648 35.4866 145.976 42.6181 149.271 51.2251C161.271 82.2101 165.009 115.015 170.96 147.279C171.895 152.197 171.6 157.361 171.895 162.427C172.928 180.034 168.108 194.985 152.812 205.265C151.779 205.953 150.894 206.937 149.91 207.724C142.435 213.773 139.336 221.888 139.631 231.184C139.927 239.938 140.763 248.742 141.795 257.447C142.14 260.398 144.796 261.283 147.796 260.595C158.025 258.185 167.272 254.398 170.124 242.84C173.223 230.348 179.174 219.282 186.059 208.511C195.158 194.346 199.437 178.509 200.765 161.886C201.453 153.033 201.748 144.18 202.092 137.934ZM85.974 375.19C71.5145 374.502 66.2029 378.436 63.3995 387.24C61.8748 392.011 60.5469 396.831 59.5141 401.7C58.2354 407.503 62.8585 415.52 68.3177 416.454C84.2526 419.258 100.286 421.717 116.27 424.275C117.45 424.471 118.729 424.078 119.909 423.783C130.484 421.52 140.271 407.208 139.681 395.158C139.435 390.437 135.353 384.584 131.369 383.797C114.204 380.502 97.0399 377.256 85.974 375.141V375.19ZM123.942 248.004C123.942 248.004 123.549 248.004 123.352 248.004C123.352 244.217 123.942 240.283 123.205 236.643C122.516 233.151 120.795 229.708 118.877 226.659C117.106 223.856 109.827 225.528 105.253 230.053C95.3677 239.889 85.2854 249.578 76.1868 260.152C70.4325 266.792 66.1537 274.71 65.1208 283.957C64.5798 288.481 68.2685 294.285 72.9408 295.416C82.187 297.629 91.1381 297.138 97.1875 289.17C102.647 281.989 108.204 275.645 116.713 271.907C119.516 270.677 121.877 266.399 122.713 263.103C123.942 258.283 123.598 253.07 123.942 248.004ZM247.291 258.874C241.29 259.415 239.913 259.267 238.831 259.759C236.815 260.644 234.946 261.923 233.028 263.054C233.962 263.939 234.749 265.415 235.782 265.562C266.963 270.579 297.112 280.957 328.883 283.514C337.441 284.203 345.95 288.088 354.065 291.482C358.983 293.498 361.393 298.662 361.098 303.925C360.802 308.843 359.966 314.155 357.753 318.434C354.36 325.122 349.54 331.074 345.507 337.467C345.31 337.812 346.687 339.73 347.671 340.123C348.704 340.517 350.327 340.369 351.36 339.828C361.884 334.418 369.36 326.106 373.885 315.188C379.246 302.351 373.639 288.727 360.901 284.203C352.589 281.252 344.179 277.661 335.523 276.579C315.358 273.973 296.128 267.677 276.308 263.644C265.193 261.382 253.93 260.005 247.241 258.923L247.291 258.874ZM18.0046 495.392C19.2833 499.032 19.8243 501.491 21.0539 503.606C22.0375 505.376 27.4967 500.753 28.6771 497.015C29.0705 495.786 29.8574 494.704 30.1033 493.474C38.0216 457.473 41.366 420.684 47.6613 384.436C47.858 383.207 47.9564 381.781 47.5629 380.65C46.8252 378.486 45.694 376.469 44.7595 374.354C43.9234 375.289 42.5463 376.174 42.3004 377.256C36.8904 402.044 31.4804 426.881 26.3655 451.718C23.2671 466.62 20.6604 481.621 18.0538 495.392H18.0046ZM182.912 435.882C184.141 436.127 186.551 436.718 189.01 437.111C192.65 437.701 196.338 438.193 200.027 438.586C203.224 438.931 207.207 435.586 207.601 431.652C208.093 426.734 208.289 421.766 208.093 416.897C207.896 412.274 204.109 408.979 201.06 410.405C189.797 415.618 178.485 420.783 167.419 426.389C165.649 427.275 164.862 430.127 163.632 432.094C164.714 432.734 165.698 433.767 166.878 433.914C171.796 434.652 176.764 435.144 182.961 435.832L182.912 435.882ZM329.523 394.371C329.523 394.371 329.375 394.371 329.277 394.371C329.277 386.945 329.326 379.518 329.228 372.141C329.228 371.01 328.392 369.878 327.949 368.747C327.014 370.174 325.244 371.551 325.244 372.977C325.195 386.601 325.391 400.175 325.588 413.799C325.588 414.93 326.375 416.061 326.818 417.192C327.752 415.766 329.375 414.389 329.424 412.913C329.72 406.766 329.572 400.568 329.572 394.371H329.523ZM129.057 70.9472C131.221 69.7668 134.172 69.1275 135.353 67.3077C139.681 60.7172 136.336 52.0119 128.762 48.815C125.713 47.5363 120.844 50.1921 120.106 53.5857C118.926 58.7007 119.024 63.7665 122.664 67.7503C124.139 69.3734 126.893 69.9144 129.107 70.8981L129.057 70.9472ZM231.405 418.028C231.11 412.372 231.061 407.454 230.47 402.585C230.077 399.29 228.257 398.208 226.634 399.634C225.798 400.372 224.962 401.65 224.962 402.683C225.11 412.421 225.405 422.11 225.798 431.799C225.798 432.783 227.126 433.717 227.864 434.652C228.651 433.717 229.929 432.832 230.077 431.75C230.716 426.93 231.061 422.061 231.405 417.979V418.028ZM139.828 194.346C147.55 193.805 151.583 190.362 154.189 181.067C154.681 179.247 152.96 176.788 152.025 174.722C151.927 174.526 149.665 174.87 149.025 175.509C144.992 179.788 141.009 184.165 137.222 188.69C136.631 189.379 136.73 191.149 137.172 192.133C137.615 193.067 138.943 193.608 139.828 194.346Z" fill="black"/>
</svg>
