<svg width="757" height="710" viewBox="0 0 757 710" fill="none" xmlns="http://www.w3.org/2000/svg">
<path d="M0 488.162C0.737729 476.752 0.196701 465.046 2.50825 453.98C6.00017 437.602 6.44286 421.175 6.63959 404.65C6.73795 392.846 8.65603 382.223 18.1481 373.567C21.3941 370.616 22.3778 364.468 22.9679 359.599C24.0499 350.746 22.7221 341.992 20.1646 333.286C11.5578 304.17 14.6562 275.448 24.2466 247.168C25.8205 242.495 28.1812 237.282 31.7223 234.134C44.1162 223.167 57.3953 212.74 73.6745 208.51C88.3799 204.674 103.134 201.084 118.479 199.51C150.054 196.264 181.432 191.1 212.908 187.362C226.778 185.69 240.795 185.591 254.762 184.608C278.812 182.984 302.961 185.149 326.912 179.493C344.814 175.263 360.405 186.722 367.487 205.805C368.766 209.297 370.143 212.789 371.717 216.134C371.815 216.379 374.717 216.035 375.16 215.248C377.766 211.068 380.619 206.838 382.291 202.264C401.177 150.917 423.014 100.8 445.244 50.8802C452.67 34.2565 463.539 20.4363 477.999 9.32103C484.245 4.55033 491.081 1.35346 498.901 0.861632C521.82 -0.663026 544.493 -0.761385 567.018 5.63234C590.232 12.2228 613.888 17.2886 637.299 23.1905C644.676 25.0595 652.103 26.9776 659.234 29.535C667.595 32.5844 675.661 34.5025 684.858 34.9452C705.514 36.0272 724.203 44.1914 740.581 57.274C752.581 66.8646 758.237 79.3569 755.434 94.2593C751.893 112.949 747.27 131.54 742.106 149.885C737.63 165.771 732.909 181.755 726.318 196.854C710.777 232.462 705.859 269.988 703.252 308.154C702.662 317.007 701.236 325.811 700.104 334.614C698.973 343.418 697.301 352.221 696.711 361.074C695.531 378.829 695.039 396.584 690.612 414.044C688.399 422.798 692.875 426.782 703.941 427.274C706.449 427.372 709.006 426.733 711.564 426.831C715.597 426.979 717.121 431.061 713.777 435.192C710.433 439.324 707.531 443.111 709.301 448.619C712.154 457.521 708.564 463.276 700.645 466.964C694.301 469.866 690.809 474.833 689.973 481.572C688.399 494.162 686.629 506.606 683.481 519.049C680.432 531.098 681.956 544.279 680.924 556.919C680.333 564.444 678.71 571.871 677.53 579.346C666.562 591.74 666.464 607.134 664.939 622.381C663.513 636.054 648.365 642.693 635.725 635.709C631.102 633.152 627.364 629.267 627.463 623.807C627.61 612.397 627.61 600.938 629.135 589.675C632.725 563.264 637.398 537 641.086 510.589C641.971 504.441 641.086 497.949 640.201 491.703C639.955 489.982 636.955 487.916 634.84 487.375C632.676 486.834 629.086 487.08 627.807 488.506C623.627 493.179 619.348 498.097 616.79 503.655C613.102 511.72 611.233 520.524 608.085 528.836C604.052 539.509 599.675 550.083 595.15 560.608C592.642 566.461 586.347 569.903 583.888 567.395C580.789 564.297 581.035 560.559 582.264 556.87C588.412 538.82 594.806 520.819 600.757 502.72C601.347 500.851 600.118 497.507 598.593 496.031C597.068 494.605 593.97 493.916 591.855 494.359C588.166 495.097 584.674 496.818 581.133 498.294C578.773 499.277 576.51 500.458 574.297 501.638C569.674 504.097 564.854 504.195 559.641 503.999C552.165 503.753 544.493 504.441 537.165 505.966C512.328 511.081 487.688 516.786 464.13 526.672C448.932 533.066 433.145 538.23 417.604 543.787C401.915 549.394 386.029 553.132 369.209 548.46C367.733 548.066 363.897 550.624 363.553 552.247C360.651 567.149 358.241 582.15 355.782 597.101C355.044 601.626 360.602 608.069 364.684 607.577C378.553 605.905 392.717 605.364 406.193 602.118C421.194 598.528 436.342 597.79 451.392 595.626C473.966 592.38 496.639 588.888 518.328 581.265C530.328 577.035 542.476 573.248 554.575 569.362C556.985 568.575 559.542 568.428 562.002 567.887C565.641 567.1 570.608 570.543 569.871 573.641C569.33 575.904 568.198 579.051 566.477 579.838C538.394 592.281 508.787 599.56 478.786 605.266C458.867 609.053 438.899 612.495 418.538 614.315C400.98 615.938 383.668 620.856 365.815 621.938C358.88 622.381 354.798 627.447 352.88 634.136C348.355 650.071 344.667 666.154 344.027 682.826C343.781 689.073 342.06 695.319 340.732 701.516C339.945 705.254 332.125 710.27 328.683 709.09C320.322 706.237 311.961 703.434 303.895 699.844C297.059 696.843 295.091 692.171 296.321 684.203C297.452 676.679 299.075 669.203 300.354 661.678C301.092 657.497 299.075 653.759 295.534 652.628C289.485 650.71 283.091 649.579 277.337 647.022C248.074 634.136 248.172 634.283 218.909 636.398C211.482 636.939 203.465 636.054 196.383 633.841C180.645 628.873 165.153 623.02 151.284 613.627C109.085 585.052 65.1169 559.526 19.2301 537.344C18.099 536.803 16.9677 536.213 15.7873 535.623C5.40997 530.705 1.18036 521.95 0.836083 510.983C0.590174 503.359 0.836083 495.736 0.836083 488.064C0.639356 488.064 0.393422 488.064 0.196695 488.064L0 488.162ZM676.94 159.229C676.497 156.573 676.153 155.344 676.054 154.065C674.235 133.359 680.628 116.588 699.219 105.62C702.514 103.702 705.711 101.637 709.006 99.7185C711.957 97.9479 717.318 99.7677 718.498 103.014C721.548 111.375 724.45 119.785 727.646 128.097C728.04 129.08 729.564 129.671 730.548 130.458C731.138 129.425 731.974 128.441 732.22 127.31C734.63 116.145 737.089 104.981 739.204 93.7182C741.122 83.685 736.204 72.7173 726.564 68.0941C717.466 63.7169 707.826 60.4217 698.088 57.6675C694.891 56.7822 690.612 58.5527 687.17 59.9298C681.858 62.0447 676.743 61.3069 672.808 58.0117C655.644 43.5028 634.692 37.9944 613.643 32.9778C592.642 27.9612 571.641 22.9937 550.395 19.2067C537.952 16.9935 525.115 16.4033 512.426 16.2558C490.049 16.0591 473.032 25.8956 463.441 46.4538C449.473 76.406 435.998 106.604 422.768 136.9C414.112 156.672 406.144 176.787 398.128 196.805C390.554 215.691 383.668 234.872 375.651 253.512C368.569 269.988 364.536 287.301 360.946 304.662C359.618 311.154 361.635 317.499 367.782 321.138C375.455 325.663 383.422 329.647 391.144 334.073C394.39 335.942 397.783 337.959 400.291 340.664C401.619 342.09 402.16 345.729 401.226 347.303C400.242 348.975 396.554 350.697 394.98 350.057C383.225 345.385 371.766 339.975 360.11 335.057C351.749 331.516 342.798 329.45 334.043 332.45C319.24 337.516 303.944 337.123 288.747 337.959C264.648 339.237 240.303 337.418 216.794 344.992C213.253 346.123 209.22 345.877 205.433 345.877C190.088 345.877 175.186 348.828 160.087 350.844C134.414 354.287 109.971 358.812 89.6094 376.419C85.7241 379.764 80.0681 379.124 75.0516 377.059C69.2481 374.6 63.543 371.747 57.4937 370.124C54.0509 369.239 50.018 370.419 46.2802 370.911C43.4768 371.304 40.7718 377.993 42.444 380.403C44.608 383.502 46.3293 387.387 49.3294 389.256C66.5923 399.978 83.265 412.175 101.757 420.241C133.283 433.963 164.071 449.209 194.564 464.997C222.696 479.555 251.91 485.063 283.14 481.719C289.927 480.981 295.583 478.08 297.649 471.292C300.6 461.603 303.502 451.767 305.075 441.783C307.289 427.667 312.01 414.487 319.043 402.437C325.338 391.617 332.716 381.141 341.322 372.14C348.65 364.468 360.405 366.042 370.192 363.878C393.75 358.714 417.899 357.14 441.653 352.91C476.622 346.664 512.328 345.336 547.395 338.942C560.083 336.631 572.723 337.959 584.97 342.68C593.675 346.074 600.462 351.484 604.101 360.189C606.069 364.861 608.528 369.681 608.97 374.6C611.282 398.502 616.053 422.749 602.823 445.373C602.528 445.914 603.708 448.226 604.249 448.275C606.511 448.275 609.315 448.472 611.036 447.341C619.348 441.881 619.053 431.897 622.544 423.88C629.676 407.601 638.086 391.568 639.955 373.616C641.578 358.074 646.103 343.861 653.923 330.434C661.742 317.007 665.874 302.596 665.333 286.76C665.038 277.956 666.513 269.054 667.398 260.201C668.825 246.332 670.546 232.462 671.923 218.543C673.546 202.116 674.972 185.64 676.399 169.213C676.743 165.426 676.841 161.639 676.989 159.279L676.94 159.229ZM16.5251 455.751C16.5251 473.948 16.3776 489.195 16.6235 504.441C16.7219 511.081 19.5252 516.737 25.5254 520.229C29.9026 522.786 34.3289 525.344 38.8537 527.656C80.7075 549.148 121.332 572.805 160.579 598.823C165.841 602.315 171.448 605.364 177.006 608.462C195.547 618.889 214.335 625.283 234.155 611.315C235.188 610.577 236.467 610.233 237.647 609.84C242.516 608.217 247.237 607.38 252.451 609.151C268.681 614.709 285.108 612.889 301.338 609.102C309.157 607.282 315.6 602.069 317.223 594.15C321.551 573.051 324.945 551.755 328.486 530.508C329.371 525.246 327.404 520.229 323.568 516.688C318.895 512.409 313.387 509.065 308.518 505.032C302.272 499.867 295.141 498.097 287.272 498.294C282.206 498.441 277.091 498.195 272.025 498.638C241.926 501.49 214.187 493.818 187.531 480.44C151.185 462.243 114.397 444.881 78.15 426.487C62.3627 418.47 46.2801 410.601 32.7059 398.748C31.8207 397.961 30.3944 397.764 29.3124 397.174C26.3615 395.502 21.1974 398.207 20.2629 401.847C15.3939 420.536 17.6563 439.717 16.6235 455.702L16.5251 455.751ZM112.676 315.138C111.79 321.335 110.807 327.581 110.069 333.778C109.577 338.008 115.774 343.369 120.25 342.729C121.528 342.533 122.807 342.582 124.037 342.287C154.923 335.696 185.76 328.368 217.679 328.86C221.466 328.909 225.351 328.663 228.991 327.68C252.549 321.581 276.747 322.515 300.747 321.187C309.6 320.696 318.453 320.597 327.256 319.712C333.896 319.023 339.208 315.187 342.404 309.433C345.454 303.973 348.454 298.17 349.88 292.12C352.733 279.825 354.749 267.332 356.716 254.84C358.733 242.151 357.897 229.806 353.667 217.412C347.962 200.739 339.65 194.69 322.879 196.313C306.502 197.887 290.124 199.952 273.746 200.395C235.778 201.477 198.4 210.379 160.284 209.248C159.054 209.248 157.726 209.395 156.546 209.74C140.611 214.166 124.233 215.74 107.856 217.412C105.495 217.658 102.987 219.035 101.167 220.56C99.3474 222.085 96.8391 224.888 97.1834 226.511C98.5113 232.61 101.069 238.462 102.938 244.463C110.069 267.48 117.348 290.448 112.725 315.04L112.676 315.138ZM398.718 453.636H398.177C398.177 459.98 398.177 466.325 398.177 472.719C398.177 476.506 398.177 480.342 398.324 484.129C398.521 491.31 404.57 496.375 411.013 494.015C446.916 480.883 484.54 474.145 521.131 463.669C540.362 458.161 559.444 449.75 580.445 455.456C582.019 455.898 585.806 453.537 586.297 451.767C591.265 434.75 597.413 417.929 594.953 399.683C589.396 358.566 583.986 349.074 538.296 356.107C528.263 357.632 518.279 359.992 508.197 360.533C478.933 362.107 450.359 368.452 421.44 372.14C411.357 373.419 401.374 375.239 391.34 376.665C381.602 378.042 378.947 381.485 383.865 388.322C396.406 405.781 400.291 425.159 398.767 446.062C398.57 448.57 398.767 451.128 398.767 453.685L398.718 453.636ZM98.2654 296.399C101.266 276.53 92.462 257.348 80.1665 239.249C75.3467 232.167 64.3791 230.446 56.4117 234.725C43.1325 241.905 35.7061 253.709 33.8863 267.775C31.8207 283.858 32.165 300.285 31.9682 316.613C31.9682 320.155 33.4437 324.237 35.5093 327.188C44.4604 339.926 56.3625 348.828 71.8056 352.271C80.1665 354.14 89.6094 348.287 92.6587 340.024C97.4785 326.794 99.2982 313.22 98.2654 296.399ZM383.373 453.046C382.783 443.012 382.389 430.373 381.16 417.88C380.225 408.536 374.569 401.552 366.7 396.879C363.7 395.109 359.323 394.125 355.979 394.863C345.896 397.076 337.24 402.043 331.634 411.29C326.322 420.044 322.83 429.389 322.338 439.717C321.846 449.8 321.109 459.734 316.977 469.276C311.125 482.801 317.568 491.31 327.994 497.507C335.667 502.081 343.88 505.179 352.88 505.671C374.668 506.851 381.258 503.556 382.143 482.014C382.488 473.21 382.93 464.407 383.422 453.046H383.373ZM656.824 408.732C656.824 403.027 657.169 400.42 656.726 398.01C656.333 395.748 655.152 393.633 654.316 391.469C652.742 393.24 650.48 394.814 649.693 396.879C645.119 408.535 640.742 420.241 636.758 432.094C636.217 433.766 638.037 437.504 639.66 438.193C641.381 438.93 644.922 437.799 646.299 436.274C649.545 432.635 653.086 428.602 654.513 424.126C656.382 418.274 656.382 411.782 656.824 408.732Z" fill="black"/>
</svg>
