<svg width="586" height="978" viewBox="0 0 586 978" fill="none" xmlns="http://www.w3.org/2000/svg">
<path d="M407.721 614.774C397.737 613.692 389.573 616.987 381.753 621.463C367.441 629.726 353.276 638.185 339.014 646.546C334.636 649.104 330.456 652.251 325.735 653.923C298.98 663.268 277.044 681.22 252.699 694.843C248.322 697.302 244.584 700.893 239.814 704.532C236.617 716.287 232.928 728.386 230.076 740.681C223.436 769.109 218.37 797.881 208.436 825.472C207.157 829.013 206.321 832.849 205.927 836.587C201.649 876.278 187.189 912.918 172.139 949.363C167.762 959.986 162.451 970.167 152.417 976.807C151.434 977.446 149.27 978.085 148.876 977.643C147.352 975.97 144.942 973.462 145.384 971.888C146.614 967.118 148.434 962.298 150.991 958.068C161.516 940.608 171.451 922.853 176.713 902.984C178.681 895.655 180.746 888.327 182.517 880.95C183.697 876.032 183.402 870.523 185.419 866.048C193.927 847.358 196.73 827.243 201.403 807.57C206.124 787.848 212.862 768.568 217.83 748.895C219.649 741.665 219.157 733.845 219.157 726.271C219.157 724.058 217.288 720.222 215.813 719.976C212.37 719.385 207.993 719.435 205.042 721.107C196.878 725.779 192.156 733.353 191.419 742.845C189.107 773.388 181.336 802.946 174.599 832.604C164.123 878.638 148.089 922.804 123.498 963.429C121.58 966.577 118.63 969.134 115.925 971.643C115.187 972.331 112.777 972.626 112.334 972.134C110.908 970.315 108.596 967.56 109.137 966.085C111.744 959.003 114.301 951.625 118.58 945.527C128.171 931.756 133.827 916.411 139.778 900.918C156.254 857.982 165.795 813.324 174.205 768.322C175.828 759.567 177.599 750.862 179.222 742.108C180.058 737.583 175.828 731.878 170.615 731.583C157.729 730.845 145.631 727.845 134.466 721.205C132.155 719.828 126.154 723.123 125.122 726.074C120.892 738.075 116.416 749.977 112.629 762.076C105.547 784.749 88.3827 797.192 68.0214 806.094C63.6442 808.012 58.0375 807.521 53.021 807.57C47.7585 807.57 43.0862 805.701 40.0861 801.127C37.8729 797.782 38.7581 790.405 41.8074 786.765C46.7747 780.962 51.5948 775.06 57.0539 769.748C71.0708 756.174 80.071 739.403 87.7434 721.894C89.7107 717.418 90.4483 712.057 90.3991 707.09C90.3991 703.598 89.0714 698.876 86.5631 696.86C77.7104 689.679 68.3656 683.039 58.726 676.941C45.1026 668.334 34.6762 656.333 32.463 640.988C29.217 618.217 18.2 600.659 3.29786 584.379C1.03549 581.92 0.199483 577.543 0.00275511 574.002C-0.0956087 572.182 2.46198 568.739 4.13417 568.493C13.2328 567.411 21.6427 570.657 29.7577 574.297C41.3647 579.51 52.5783 585.56 64.3328 590.331C75.4479 594.855 88.9728 593.724 98.3173 581.133C100.58 578.084 99.3993 572.625 95.8582 571.985C90.8417 571.051 85.7268 570.756 80.8578 569.526C79.1365 569.084 77.8578 566.772 76.3824 565.297C77.4644 564.657 78.4479 563.772 79.6283 563.378C80.8086 562.936 82.1366 562.837 83.3661 562.788C87.1532 562.641 90.9894 562.788 94.7764 562.493C108.055 561.411 119.761 565.247 130.384 573.215C134.515 576.313 141.352 572.969 142.139 568.198C145.089 550.296 145.778 533.574 133.483 517.491C121.876 502.343 115.433 484.096 110.22 465.555C105.99 450.455 105.35 435.701 108.892 420.405C111.203 410.568 112.531 400.437 113.318 390.354C114.302 377.665 114.597 365.075 117.99 352.582C120.252 344.123 120.449 334.975 120.548 326.122C120.941 270.152 120.548 214.183 121.482 158.213C121.876 133.671 114.892 110.506 110.662 86.8492C108.695 75.9798 101.858 65.8482 96.4484 55.815C89.3662 42.6341 89.1695 27.9285 109.973 19.0264C120.498 14.5016 131.122 10.272 141.745 6.14063C148.729 3.43559 155.713 -2.22039 163.336 0.927291C173.861 5.30454 183.746 11.6983 189.992 21.6823C194.714 29.2072 198.993 37.1256 202.091 45.4374C213.157 75.3404 221.469 105.784 220.78 138.245C220.19 166.18 220.682 193.919 215.616 221.806C212.026 241.528 212.419 262.234 217.239 282.448C219.6 292.235 220.829 302.564 220.682 312.646C220.092 349.385 231.748 383.174 248.273 414.7C264.257 445.095 285.848 472.096 311.668 495.261C319.734 502.49 330.8 503.72 339.948 498.212C363.014 484.342 383.474 467.276 401.18 447.062C406.147 441.406 410.18 434.766 413.869 428.127C422.525 412.536 430.148 396.502 435.361 379.338C438.312 369.599 441.706 360.009 445.197 350.467C451.05 334.286 461.722 322.04 476.428 313.236C487.74 306.498 499.15 302.76 512.675 307.384C519.708 309.793 527.675 310.089 535.25 310.384C549.561 310.925 562.496 316.187 575.48 321.302C580.349 323.22 584.038 327.352 584.481 332.712C585.317 342.746 585.661 352.828 585.661 362.861C585.661 365.075 583.989 368.026 582.169 369.304C577.005 372.944 571.398 375.895 565.89 379.092C546.315 390.453 533.036 406.831 526.643 428.618C524.134 437.127 521.134 445.685 520.151 454.439C516.659 485.572 503.33 512.819 488.428 539.623C481.494 552.067 471.018 561.46 460.886 571.051C452.968 578.576 449.673 587.478 449.919 598.347C450.558 626.234 448.148 654.317 456.313 681.712C458.083 687.712 456.804 694.548 458.427 700.598C461.673 712.844 464.673 725.386 470.034 736.698C481.641 761.141 490.789 767.633 518.38 775.404C524.38 777.076 531.413 775.552 536.135 780.814C537.659 782.536 539.233 785.437 538.84 787.405C536.823 796.946 526.643 805.848 517.593 806.783C498.117 808.898 479.379 805.602 461.968 796.995C449.132 790.651 439.591 780.028 433.738 766.945C429.066 756.567 423.754 745.747 422.475 734.681C419.229 706.991 410.131 680.089 411.409 651.809C411.803 642.907 411.557 634.005 410.967 625.103C410.721 621.561 408.852 618.119 407.77 614.922L407.721 614.774ZM173.369 714.025C179.959 712.008 188.468 709.451 196.878 706.746C217.534 700.155 236.765 691.106 255.503 679.695C294.553 655.94 334.587 633.66 374.867 611.971C397.344 599.872 418.442 585.904 439.591 571.74C453.607 562.346 464.673 550.542 474.608 537.115C489.314 517.294 497.97 495.015 503.576 471.309C507.068 456.505 510.904 441.75 514.298 426.897C518.724 407.421 529.446 392.076 544.889 379.928C550.84 375.206 557.48 371.321 563.628 366.796C572.136 360.451 573.12 347.861 565.447 339.992C561.07 335.516 556.299 330.647 550.742 328.237C536.676 322.187 521.97 318.45 506.281 318.941C483.461 319.679 465.411 332.368 457.247 354.5C452.427 367.632 447.558 380.764 443.771 394.24C439.591 409.142 432.804 422.815 425.18 435.947C416.278 451.341 405.213 464.718 390.507 475.834C371.326 490.293 350.227 502.638 334.538 521.524C332.03 524.524 324.161 523.737 320.521 520.196C308.619 508.688 296.865 497.08 285.11 485.473C264.061 464.669 249.355 439.291 234.207 414.355C227.026 402.503 222.649 389.125 218.911 375.452C214.19 358.14 214.042 340.188 209.911 323.024C206.272 307.924 205.141 292.973 205.091 277.677C204.944 257.316 204.944 236.954 204.944 216.592C204.993 184.771 204.747 152.95 205.386 121.178C205.78 100.423 199.829 80.898 194.37 61.471C191.32 50.6508 184.779 40.7651 179.664 30.5351C178.533 28.3219 176.812 26.3546 175.139 24.3873C166.041 13.5671 156.795 11.3047 144.844 17.6001C132.401 24.1905 128.023 26.4529 135.155 40.6667C145.532 61.4217 149.614 83.8981 152.417 106.62C153.352 114.195 152.565 122.211 154.778 129.294C160.287 146.704 159.697 164.459 159.697 182.263C159.697 220.429 159.401 258.594 159.303 296.76C159.155 343.828 159.697 390.945 158.762 437.963C158.27 464.227 165.598 488.08 176.32 511.392C182.812 525.508 191.37 537.804 204.6 546.607C210.895 550.837 216.6 555.952 222.403 560.919C227.764 565.493 227.617 573.608 222.157 577.199C213.649 582.806 204.944 588.068 196.386 593.577C181.435 603.167 166.484 612.708 151.631 622.397C147.696 624.955 145.63 631.841 147.352 636.021C149.319 640.693 150.745 645.808 153.696 649.792C174.008 677.187 175.484 678.318 206.911 664.055C224.174 656.235 240.355 646.054 257.175 637.152C272.913 628.84 288.799 620.824 304.635 612.758C305.717 612.217 307.045 611.971 308.275 611.676C311.226 610.987 313.292 612.02 313.636 614.774C313.783 615.807 312.898 617.479 311.964 618.02C297.652 626.234 282.651 633.365 269.028 642.562C248.863 656.186 227.026 666.416 205.386 677.088C199.731 679.892 193.78 682.4 187.681 684.023C175.877 687.171 164.762 685.007 155.762 676.449C151.237 672.121 146.86 667.203 143.86 661.743C135.204 646.103 128.22 629.824 128.614 611.233C128.712 605.134 126.843 598.839 125.023 592.888C124.482 591.117 121.04 589.052 119.121 589.199C115.482 589.544 111.744 590.921 108.498 592.74C101.465 596.577 98.9077 603.167 103.088 608.331C115.482 623.676 122.564 640.939 123.597 660.661C123.744 663.17 124.728 665.629 125.417 668.039C129.745 682.941 134.368 697.302 152.024 702.27C159.156 704.286 162.844 713.188 173.32 713.926L173.369 714.025ZM151.68 208.871C151.286 189.887 151.582 174.738 146.811 159.885C144.893 153.983 144.303 147.344 144.598 141.097C145.63 119.162 138.401 98.5053 135.401 77.2093C133.778 65.8973 128.663 55.3723 119.515 47.749C118.236 46.667 115.236 47.4048 113.17 47.7982C112.531 47.8966 111.597 50.0606 111.941 50.8475C122.466 76.9142 128.663 103.866 130.138 131.999C130.482 138.294 132.302 144.442 133.237 150.737C134.368 158.213 136.188 165.738 136.237 173.263C136.433 206.215 137.171 239.118 134.073 272.071C131.466 299.711 128.712 327.45 129.548 355.336C129.892 366.648 129.45 378.501 126.548 389.322C121.531 408.109 121.63 427.045 121.974 445.98C122.613 482.621 140.171 510.95 167.418 534.016C167.91 534.41 169.73 533.967 170.32 533.328C171.057 532.59 171.795 530.918 171.451 530.18C140.269 464.817 143.761 456.111 143.811 417.454C143.811 371.763 144.155 326.122 144.647 280.431C144.745 271.628 144.647 262.382 147.106 254.07C151.926 237.889 152.073 221.56 151.68 208.822V208.871ZM515.921 789.815C503.33 784.011 496.396 781.257 489.855 777.667C485.478 775.257 480.904 772.404 477.854 768.617C457.395 743.534 443.427 715.205 442.443 682.597C441.607 655.94 435.755 630.07 433.886 603.659C433.787 602.331 430.295 600.069 428.721 600.315C426.656 600.61 423.705 602.724 423.262 604.544C418.787 623.234 419.082 642.021 422.869 660.809C424.344 668.236 426.656 675.711 426.508 683.138C426.066 703.745 433.148 722.926 436.443 742.796C439.984 764.043 453.116 779.241 473.133 787.897C485.133 793.11 497.576 792.717 515.97 789.766L515.921 789.815ZM38.2172 595.396C37.2336 596.478 35.4629 597.659 35.6104 598.298C38.8564 610.348 42.8403 622.25 45.6437 634.398C47.7093 643.448 52.1849 650.677 58.5293 657.022C71.3166 669.859 87.1041 677.334 104.367 682.056C107.023 682.794 112.236 678.564 112.236 675.515C112.383 657.366 107.219 640.693 96.6945 626.037C93.1535 621.07 87.8909 616.84 82.4809 613.84C70.3822 607.151 57.7916 601.347 45.2994 595.544C43.2829 594.609 40.4796 595.396 38.2172 595.396ZM68.5623 789.323C69.8411 789.175 71.3166 789.372 72.3002 788.782C81.153 783.47 88.6285 776.339 93.9893 767.682C105.4 749.239 112.088 728.779 117.695 707.926C117.892 707.287 116.072 705.27 115.285 705.319C113.121 705.467 109.58 705.811 109.137 707.09C99.1535 733.403 84.5956 757.108 68.5623 780.077C67.2344 781.995 66.4477 784.454 65.9559 786.765C65.8083 787.405 67.6278 788.438 68.5131 789.274L68.5623 789.323ZM167.27 572.772C167.172 570.953 167.516 568.346 166.779 566.133C166.09 564.165 164.32 561.362 162.746 561.214C160.877 561.018 157.385 562.788 156.893 564.362C153.303 575.969 150.303 587.724 147.303 599.528C147.106 600.265 148.532 601.938 149.516 602.233C150.5 602.577 151.975 601.938 153.008 601.347C164.27 595.347 166.975 584.97 167.27 572.723V572.772ZM184.927 575.527C183.402 577.248 181.877 578.92 180.353 580.642C181.287 581.33 182.222 582.609 183.156 582.56C185.959 582.51 187.533 580.641 187.288 577.789C187.238 577.002 185.763 576.313 184.927 575.576V575.527Z" fill="black"/>
<path d="M34.872 563.28C30.9374 562.64 27.1504 562.542 23.7568 561.263C21.9371 560.575 19.9206 557.919 19.7239 556.001C19.5271 554.033 20.9043 550.787 22.5273 550.05C25.6749 548.525 29.757 547.099 32.9538 547.886C38.8064 549.263 44.4132 552.017 49.8232 554.82C51.2494 555.558 51.7904 558.411 52.233 560.378C52.3314 560.772 50.3642 562.149 49.2822 562.247C44.4132 562.788 39.4951 563.034 34.872 563.378V563.28Z" fill="black"/>
<path d="M518.38 356.32C518.134 361.336 519.413 367.041 517.446 371.32C503.675 401.617 495.953 433.684 487.937 465.8C482.33 488.178 472.69 509.031 454.247 524.327C452.476 525.803 449.87 526.393 447.509 526.885C446.919 527.032 445.05 524.819 445.247 524.229C446.575 520.737 447.558 516.753 450.017 514.146C466.149 496.686 473.625 475.194 479.33 452.865C482.478 440.569 484.74 428.028 487.887 415.683C491.97 399.6 497.38 384.009 505.15 369.304C508.2 363.5 512.429 358.926 518.823 356.762L518.38 356.271V356.32Z" fill="black"/>
<path d="M518.821 356.811C523.395 348.008 528.805 339.893 538.642 336.45C540.265 335.86 543.609 337.138 544.642 338.614C545.576 339.942 545.38 343.434 544.249 344.762C537.462 352.483 528.461 355.729 518.379 356.32L518.821 356.811Z" fill="black"/>
</svg>
