<svg width="674" height="623" viewBox="0 0 674 623" fill="none" xmlns="http://www.w3.org/2000/svg">
<path d="M1.22989 129.505C-4.57358 102.898 10.8695 82.241 32.6571 64.2894C40.8705 57.5022 50.0183 54.3053 60.6416 53.9611C75.0027 53.4692 88.6753 57.2071 101.364 62.8139C117.545 69.9454 133.234 69.8962 149.612 65.0271C165.448 60.3056 181.482 56.3218 197.269 51.4527C205.925 48.7969 212.565 43.2885 217.778 35.3701C224.712 24.845 229.581 12.0576 240.844 5.51628C253.386 -1.76273 268.14 1.13905 282.009 0.49968C284.567 0.401315 287.124 0.499676 289.633 0.302946C319.732 -1.76272 335.077 6.10648 353.766 43.4852C359.422 54.8463 363.897 66.7485 369.307 78.2572C376.93 94.3399 384.8 110.275 389.619 127.538C395.521 148.539 406.095 167.425 416.325 186.508C424.637 201.951 437.178 211.394 454.638 215.132C470.868 218.624 486.901 221.919 503.623 221.673C515.082 221.477 526.493 222.067 537.952 222.362C554.477 222.805 570.904 223.001 587.232 226.69C597.069 228.903 607.446 228.707 617.577 229.395C626.725 229.985 634.84 233.477 642.808 237.461C649.89 241.002 655.152 246.363 658.153 253.691C663.022 265.495 666.956 277.496 667.645 290.431C668.628 309.415 667.645 328.596 672.563 347.335C673.497 350.876 673.35 355.106 672.366 358.647C666.464 379.844 667.596 401.534 667.497 423.125C667.35 455.241 652.251 478.652 626.725 496.505C619.299 501.719 611.184 504.916 602.085 505.948C592.003 507.08 581.871 508.063 571.937 510.08C556.641 513.178 553.887 516.769 552.461 533.392C549.805 564.131 543.411 593.592 524.87 619.216C522.853 621.97 518.033 622.954 514.837 621.036C513.755 620.396 512.771 619.56 511.886 618.675C508 614.789 503.18 612.822 498.065 614.445C470.425 622.954 443.129 620.445 415.292 614.248C389.324 608.494 362.914 604.461 335.962 605.248C318.158 605.74 300.502 603.477 283.19 598.461C268.583 594.231 253.287 592.215 238.729 587.886C226.385 584.198 214.089 582.23 201.302 581.591C174.596 580.263 152.71 568.361 133.529 550.36C101.364 520.113 77.8061 484.8 65.8057 441.765C59.3137 418.551 49.5757 396.271 45.592 372.27C44.9526 368.532 43.4771 364.942 42.1001 361.401C26.6077 321.957 20.5584 280.643 16.132 238.789C14.1155 219.903 11.4105 200.869 6.68908 182.475C2.5578 166.146 1.52498 149.916 1.18071 129.555L1.22989 129.505ZM322.781 130.489C314.814 130.784 307.83 132.948 303.748 140.621C300.551 146.572 300.256 152.818 302.567 158.966C303.256 160.786 306.207 163.097 307.977 162.999C316.879 162.409 325.732 160.982 330.404 151.736C332.765 152.72 335.323 153.31 337.388 154.687C342.749 158.277 343.487 163.835 339.454 167.179C330.601 174.557 321.453 181.147 309.846 183.803C297.502 186.655 285.206 189.902 272.911 193.049C269.419 193.935 266.911 197.869 267.452 201.804C269.271 214.542 272.665 218.772 283.878 214.935C300.699 209.23 317.765 204.361 334.831 199.394C337.142 198.705 340.044 198.853 342.306 199.64C344.274 200.328 345.897 202.394 347.175 204.214C347.667 204.902 347.175 207.066 346.438 207.706C343.585 210.165 340.634 212.673 337.339 214.394C319.338 223.788 301.19 232.838 283.337 242.379C282.354 242.871 282.845 246.658 283.239 248.822C283.387 249.658 285.157 250.839 286.19 250.839C289.928 250.839 293.911 251.035 297.403 249.953C309.551 246.166 321.404 241.592 333.552 237.953C338.273 236.527 343.733 236.133 347.618 240.707C349.831 243.314 345.995 250.003 340.88 252.462C332.863 256.298 324.748 259.937 316.732 263.774C309.896 267.069 303.207 270.512 296.469 274.004C294.403 275.086 294.108 282.266 296.469 284.381C298.141 285.906 301.338 287.676 302.912 287.037C320.47 279.807 337.978 272.331 355.143 264.266C358.045 262.888 359.373 258.216 361.487 255.167C362.176 254.183 363.75 252.511 364.045 252.658C365.766 253.691 368.176 254.822 368.717 256.495C371.127 263.675 373.193 271.053 375.062 278.43C376.242 283.102 370.881 289.299 366.307 287.873C357.356 285.07 349.192 284.824 340.782 289.693C331.978 294.759 322.634 298.841 313.584 303.513C311.371 304.644 308.961 306.169 307.732 308.136C306.6 309.907 306.059 313.104 306.945 314.776C307.977 316.645 310.978 318.711 312.994 318.563C317.912 318.17 322.929 317.088 327.552 315.366C340.585 310.497 352.684 303.071 366.897 301.792C368.52 301.644 370.586 304.251 372.012 305.972C372.602 306.661 372.455 308.972 371.816 309.513C367.045 313.596 362.028 317.383 357.11 321.268C354.454 323.334 353.913 325.252 355.831 326.629C356.766 327.318 358.192 327.514 359.422 327.613C367.291 328.203 374.471 326.531 380.767 321.366C383.57 319.055 388.046 315.268 390.21 316.104C400.882 320.235 413.522 316.006 422.916 322.645C432.309 329.334 438.752 327.957 445.785 319.94C448.097 317.284 451.884 314.776 455.277 314.333C472.048 312.071 487.245 306.907 500.229 295.546C502.344 293.677 507.607 294.119 510.951 295.103C520.788 298.005 530.181 301.841 532.837 313.694C533.034 314.628 537.509 315.858 538.936 315.071C548.821 309.464 557.723 301.988 569.182 299.283C571.691 298.693 578.134 300.906 578.921 303.562C579.56 305.825 579.904 308.923 578.822 310.743C576.166 315.12 572.429 318.956 580.544 321.268C581.773 321.612 583.003 321.957 584.134 322.596C600.61 331.793 603.069 346.204 590.38 359.68C588.659 361.499 586.052 362.581 584.576 364.5C583.249 366.221 582.806 368.68 581.97 370.795C584.134 371.483 586.298 372.369 588.511 372.811C596.429 374.238 598.839 377.238 594.855 381.664C586.839 390.615 586.101 399.468 592.003 409.501C593.282 411.665 594.462 414.223 594.462 416.633C594.462 421.6 594.265 426.715 593.085 431.486C591.56 437.831 587.38 442.798 582.265 446.733C575.232 452.143 567.855 457.159 561.068 462.865C554.772 468.176 553.198 475.603 553.789 483.62C554.28 490.062 560.084 495.718 566.232 495.374C582.806 494.391 598.938 490.8 614.381 484.947C624.512 481.111 630.463 472.553 632.922 462.176C634.398 456.077 635.037 449.634 635.086 443.339C635.529 403.944 635.726 364.499 635.873 325.104C635.873 318.76 636.119 312.268 634.939 306.071C627.758 267.954 612.364 252.216 577.445 253.347C573.609 253.445 569.822 253.544 565.986 253.544C545.624 253.445 525.312 252.806 504.951 253.249C481.786 253.74 459.458 248.134 437.277 243.215C411.358 237.51 391.292 223.149 381.603 196.246C373.045 172.343 361.537 149.572 352.93 125.669C342.995 98.0286 329.421 72.3553 314.863 47.0755C308.076 35.3209 297.059 28.8288 284.469 25.7303C272.075 22.681 259.287 22.3367 246.894 26.4188C245.91 26.7631 244.926 28.0419 244.582 29.0747C243.697 31.6322 245.123 33.5011 248.172 33.2552C255.746 32.6159 263.271 31.2879 270.845 30.7961C273.157 30.6486 276.845 31.4355 277.78 33.0585C282.206 40.5834 287.075 47.5673 293.813 53.2233C295.584 54.6988 297.256 57.6497 297.157 59.8138C297.01 63.3549 296.223 67.4863 294.207 70.2405C292.092 73.0931 288.452 75.4538 285.009 76.5358C272.911 80.3721 260.566 83.4706 248.467 87.2576C246.746 87.7986 245.221 90.7496 244.631 92.8644C243.795 95.8646 248.615 99.3073 252.549 98.5696C259.976 97.1433 267.402 95.6187 274.78 93.7989C286.141 90.9955 297.305 91.389 308.223 95.6187C309.158 95.9629 310.338 97.5368 310.191 98.3729C309.846 100.684 309.404 104.521 308.125 104.865C293.616 109.095 278.862 112.685 264.304 116.767C260.763 117.751 257.173 119.521 254.369 121.833C253.14 122.817 252.697 127.243 253.73 128.177C262.14 135.899 268.976 137.178 276.649 130.391C286.878 121.341 299.469 120.21 311.568 117.407C315.601 116.472 318.502 119.915 320.273 123.456C321.404 125.718 322.043 128.227 322.88 130.587L322.781 130.489ZM520.886 494.784H521.427C521.427 479.537 521.525 464.291 521.427 448.995C521.23 424.158 512.968 401.681 501.164 380.287C497.279 373.254 491.032 368.975 482.77 368.385C463.786 367.008 444.9 364.303 425.965 362.581C400.734 360.27 374.963 358.499 349.88 363.467C318.256 369.713 286.485 367.155 254.861 366.319C231.991 365.729 213.892 351.81 200.564 334.547C188.219 318.612 178.973 300.12 169.481 282.217C152.218 249.707 137.808 215.772 123.299 181.983C119.807 173.868 115.922 165.9 111.988 157.933C111.692 157.343 109.528 157.294 108.348 157.539C107.315 157.785 105.938 158.523 105.545 159.458C102.053 167.278 110.365 173.524 108.594 181.098C108.053 183.311 106.528 185.77 104.709 187.049C102.2 188.77 96.2493 185.623 95.6591 182.77C95.1181 180.311 94.2821 177.803 94.2329 175.343C93.987 167.72 93.7411 160.195 90.1016 153.113C86.708 146.523 89.659 141.653 94.2329 136.293C100.872 128.522 101.02 122.62 95.5608 116.079C88.2819 107.324 81.0029 98.3237 72.4945 90.848C60.9859 80.7164 47.6084 79.3884 33.4932 86.3723C24.788 90.6512 19.3288 97.34 18.0993 106.734C15.9353 123.161 15.0008 139.539 21.7387 155.523C24.1487 161.228 25.4766 167.671 26.1159 173.868C30.3948 214.247 33.2965 254.724 40.182 294.857C44.0673 317.481 48.5921 339.761 55.6743 361.499C64.7237 389.287 74.5601 416.83 82.921 444.864C89.2163 465.963 99.8396 484.554 112.529 502.112C130.824 527.343 153.005 547.655 183.842 556.606C188.711 558.033 193.384 560.148 198.302 561.475C226.483 569.099 254.664 576.673 282.895 584.05C288.993 585.673 295.387 587.69 301.535 587.444C334.536 586.214 366.799 598.411 400.046 592.411C404.767 591.575 410.03 594.133 415.096 594.231C423.948 594.379 433.096 595.067 441.654 593.198C456.753 589.903 471.901 589.755 487.147 589.214C507.951 588.427 511.59 585.821 516.656 566.787C518.919 558.279 520.394 549.377 520.788 540.573C521.427 525.326 520.984 510.08 520.984 494.833L520.886 494.784ZM252.402 219.362C253.287 213.312 246.107 207.558 240.057 209.181C224.27 213.509 210.499 223.592 193.875 225.559C190.433 225.952 188.564 230.821 189.646 234.756C193.039 246.953 197.662 249.56 208.532 245.232C219.057 241.051 229.631 236.871 240.057 232.297C243.451 230.821 246.648 228.51 249.303 225.952C250.926 224.378 251.418 221.575 252.402 219.362ZM174.842 161.622C181.629 160.49 189.793 160.835 196.285 157.638C208.728 151.588 220.188 143.621 231.942 136.293C232.631 135.899 233.024 133.686 232.582 133.047C231.204 131.227 229.483 129.555 227.614 128.276C226.729 127.686 225.057 127.735 223.975 128.079C203.613 135.014 183.252 141.998 162.94 149.129C160.137 150.113 159.497 152.818 160.874 155.621C161.366 156.654 162.251 157.884 163.235 158.228C166.727 159.458 170.366 160.294 174.891 161.572L174.842 161.622ZM221.122 97.0941C196.138 100.242 172.137 108.455 148.382 117.308C145.333 118.439 144.743 120.849 146.415 123.702C147.054 124.735 147.792 125.817 148.726 126.604C153.054 129.997 158.071 130.686 163.038 129.014C181.137 123.013 199.187 116.767 217.188 110.472C219.499 109.636 222.007 108.209 223.385 106.291C224.565 104.717 224.516 102.012 224.417 99.7992C224.417 98.9631 222.598 98.2253 221.171 97.0941H221.122ZM168.596 219.608C160.432 199.836 151.53 177.95 142.284 156.261C141.497 154.392 138.447 153.457 136.48 152.08C135.644 154.293 133.529 156.949 134.119 158.621C142.038 179.573 150.399 200.328 158.661 221.132C159.104 222.264 159.94 223.247 160.53 224.378C163.432 229.838 166.973 232.199 167.612 229.248C168.104 226.936 168.104 224.526 168.596 219.657V219.608ZM265.632 340.646C249.943 336.564 241.533 334.252 233.024 332.285C232.336 332.137 230.663 333.662 230.368 334.646C230.122 335.58 230.762 337.252 231.598 337.941C242.664 347.482 256.435 349.548 270.107 350.335C285.108 351.22 300.207 350.581 315.256 350.286C317.224 350.286 319.191 348.22 321.158 347.138C320.076 346.499 318.994 345.22 317.961 345.269C297.846 345.564 277.731 345.908 265.632 340.646ZM258.599 261.364C258.402 260.233 258.451 258.905 257.91 257.97C257.271 256.937 255.992 255.511 255.107 255.609C241.139 256.986 228.352 261.954 216.253 268.938C213.302 270.61 211.728 276.315 214.089 278.578C215.761 280.201 218.417 282.168 220.384 281.922C234.45 280.053 246.353 273.315 257.271 264.61C258.058 263.97 258.156 262.495 258.599 261.364ZM273.993 290.775C272.222 289.398 270.206 286.644 268.681 286.889C256.238 288.857 245.32 294.316 236.074 302.874C235.139 303.759 235.828 307.694 237.008 309.218C238.385 310.891 241.287 312.464 243.352 312.268C254.812 311.136 264.501 305.923 272.37 297.66C273.747 296.185 273.452 293.136 273.944 290.824L273.993 290.775ZM656.923 333.859C656.923 333.859 657.12 333.859 657.218 333.859C657.218 326.383 657.267 318.907 657.12 311.481C657.12 310.399 655.989 309.317 655.398 308.185C654.759 308.972 653.628 309.759 653.628 310.546C653.333 327.908 653.087 345.318 653.038 362.68C653.038 363.713 654.267 364.795 654.956 365.827C655.595 365.04 656.825 364.303 656.825 363.516C656.972 353.63 656.923 343.695 656.923 333.81V333.859ZM98.9052 83.2247C98.2658 84.1591 96.9379 85.5854 97.1838 86.0281C101.61 93.1595 106.233 100.242 110.955 107.226C111.299 107.767 113.512 107.718 113.561 107.619C114.102 105.406 115.283 102.996 114.742 100.98C112.824 93.7005 108.25 88.0445 102.102 83.7165C101.315 83.1755 99.9872 83.3722 98.9543 83.2247H98.9052ZM559.297 362.581C562.69 357.073 562.1 354.565 558.904 353.729C552.018 351.909 546.362 354.27 542.821 360.368C541.837 362.09 542.132 365.532 543.264 367.106C544.444 368.68 548.133 370.205 549.51 369.516C553.838 367.205 557.625 363.86 559.297 362.581ZM245.812 72.011C252.058 70.9782 257.418 68.1256 261.796 63.5025C262.583 62.6664 263.566 61.0925 263.32 60.2564C262.484 57.6497 260.173 56.7153 257.418 57.8465C252.894 59.7646 248.271 61.6335 244.189 64.2402C242.91 65.0271 242.959 68.224 242.91 70.3388C242.91 70.8307 244.779 71.4209 245.861 71.9619L245.812 72.011ZM143.513 97.4876C148.431 95.7662 154.136 93.8481 159.743 91.684C162.842 90.4545 163.383 88.5364 161.465 86.9134C160.628 86.2248 159.35 85.733 158.268 85.733C152.169 85.733 146.021 86.1756 141.152 90.2578C139.923 91.2906 139.874 93.8973 139.579 95.8646C139.579 96.1597 141.497 96.7007 143.513 97.4876Z" fill="black"/>
</svg>
