<svg width="488" height="546" viewBox="0 0 488 546" fill="none" xmlns="http://www.w3.org/2000/svg">
<path d="M487.183 141.216C486.15 146.822 482.707 159.216 481.92 171.807C480.691 191.333 474.691 209.186 466.674 226.597C462.985 234.613 459.1 242.679 454.379 250.106C444.198 266.238 433.23 281.878 422.951 297.96C419.558 303.272 415.23 309.174 414.984 314.978C414.59 325.257 409.82 331.109 402.098 336.618C393.885 342.471 386.212 349.307 379.032 356.438C376.77 358.701 375.393 363.668 376.081 366.865C383.803 402.867 392.164 438.721 399.983 474.722C403.82 492.428 409.771 508.707 423.394 521.593C427.329 525.282 426.591 531.036 424.722 535.955C422.459 541.955 415.082 546.283 409.623 545.201C404.312 544.168 399.787 541.266 398.262 536.2C389.311 507.084 380.655 477.821 372.048 448.606C365.605 426.72 359.408 404.736 352.72 382.948C352.179 381.177 348.883 380.095 346.67 379.161C346.178 378.915 344.703 380.439 343.965 381.325C343.178 382.259 342.539 383.39 342.096 384.571C337.227 397.998 335.309 411.621 338.555 425.786C339.982 431.934 341.359 438.229 341.703 444.524C341.9 448.115 340.375 452 338.85 455.443C335.949 462.132 324.833 465.378 319.276 460.902C315.44 457.803 311.702 454.016 309.341 449.738C305.013 441.868 303.144 433.114 303.243 424.015C303.341 416.392 303.538 408.769 303.341 401.194C303.193 395.391 296.849 389.686 290.603 389.194C286.816 388.899 282.98 388.604 279.193 388.604C271.57 388.604 263.897 388.801 256.274 388.899C208.862 389.686 162.386 383.882 117.188 369.226C114.778 368.439 112.023 367.357 109.81 367.947C106.318 368.882 102.285 370.308 100.121 372.865C96.9736 376.702 94.8098 381.571 92.9901 386.292C77.4486 426.622 62.1036 467.001 46.6605 507.38C42.5292 518.151 37.4145 528.282 28.365 535.955C23.9878 539.643 15.3317 538.069 11.3972 533.348C5.39699 526.167 4.16751 510.871 12.0858 505.461C32.4963 491.592 41.2014 470.935 48.2344 448.754C55.5133 425.736 63.776 402.965 71.1041 379.948C72.973 374.046 73.3663 367.554 73.7598 361.258C73.8582 359.881 71.0057 358.061 69.2351 356.93C68.5958 356.537 66.481 357.324 65.94 358.111C60.5792 366.717 55.0706 375.226 50.3492 384.128C42.0374 399.867 34.4143 415.998 26.1025 431.737C21.3811 440.639 10.9053 441.819 3.62636 434.835C-0.455742 430.901 -1.48837 424.064 2.59373 421.507C14.0039 414.228 19.0694 403.162 24.1844 391.309C32.742 371.439 42.9229 352.307 52.415 332.88C54.7758 328.011 55.0217 323.191 52.415 318.371C45.2345 304.895 37.9556 291.468 30.9226 277.943C20.8403 258.565 14.2006 238.154 12.3316 216.268C11.6923 208.694 10.3151 201.169 8.88885 193.644C6.28221 179.676 7.11828 165.954 9.47901 151.937C12.4299 134.527 17.6432 117.461 16.512 99.3122C16.1677 93.5086 19.2662 86.9182 22.3646 81.6064C28.8075 70.442 38.2506 61.7859 48.7264 54.3594C54.9725 49.9329 61.7594 46.2934 67.5628 41.4243C89.7931 22.8825 117.089 15.8986 143.795 7.83268C149.746 6.01293 156.386 6.3572 162.73 6.06211C179.255 5.27519 195.78 5.57029 211.961 0.996312C216.683 -0.331616 222.24 -0.282427 227.06 0.84877C249.634 6.16048 272.652 4.93089 295.472 5.81618C309.44 6.35719 323.309 6.55396 337.08 10.2426C346.769 12.8493 357.195 13.2427 367.327 13.587C393.491 14.4231 417.148 23.5711 439.723 35.6208C455.854 44.2277 467.854 57.0152 474.002 74.9176C480.593 94.1972 488.019 113.231 487.38 141.167L487.183 141.216ZM249.388 29.5713C204.781 26.7188 159.976 36.211 115.22 45.9491C105.335 48.1132 95.6458 51.5559 86.1045 55.0971C70.1696 61.0482 57.6281 71.524 47.9393 85.5411C32.2503 108.214 26.1027 133.986 23.201 160.79C22.66 165.758 23.3485 170.971 24.1354 175.988C31.3652 223.4 52.0707 265.401 76.6617 305.83C77.9404 307.944 79.9567 309.813 82.0716 311.092C90.4325 316.158 93.3344 323.732 94.859 333.077C95.5476 337.208 100.367 341.93 104.548 343.946C114.778 348.864 125.647 352.602 136.417 356.438C159.484 364.701 230.994 370.357 249.536 371.882C254.552 372.275 259.717 371.734 264.733 371.046C278.553 369.078 292.423 367.16 306.144 364.603C334.326 359.291 359.507 348.372 378.786 325.994C387.934 315.42 397.819 305.584 405.393 293.632C416.263 276.418 427.575 259.5 439.083 242.728C453.69 221.383 462.543 198.218 467.068 172.594C471.346 148.2 471.346 124.985 465.1 100.984C461.559 87.3116 455.215 78.0653 442.772 72.4093C435.837 69.2617 429.197 65.2779 422.066 62.8188C400.426 55.3922 378.835 47.4738 356.703 41.7686C328.473 34.4404 299.947 27.3089 270.242 29.5713C263.897 30.0632 257.504 29.6206 249.487 29.6206L249.388 29.5713Z" fill="black"/>
<path d="M218.306 313.699C204.339 313.699 190.371 313.552 176.403 313.699C154.517 313.945 133.566 308.437 112.664 303.273C98.3026 299.731 88.171 290.731 83.302 276.075C80.1052 266.484 76.22 257.041 71.7936 247.942C54.0881 211.498 49.2682 172.742 51.7273 132.953C53.2028 108.903 63.6293 88.9842 84.8759 76.0492C93.5319 70.7867 102.286 65.5734 111.532 61.5404C115.86 59.6715 121.418 60.4584 126.385 60.3601C127.369 60.3601 129.14 61.6388 129.238 62.4749C129.484 64.6389 129.877 67.7374 128.697 68.9178C126.041 71.4753 122.746 73.9344 119.254 74.9181C106.614 78.4592 96.7779 86.5743 86.4497 93.9025C75.3838 101.673 69.531 112.789 68.1539 125.97C65.744 148.839 66.5803 171.66 70.8099 194.235C72.4329 202.891 75.2855 211.35 77.6463 219.908C78.5807 223.302 84.2858 224.285 87.1876 221.433C111.483 197.186 140.943 184.792 174.879 180.218C197.552 177.168 220.028 172.742 242.947 174.857C272.013 177.513 301.03 180.611 329.162 189.021C336.392 191.186 343.868 192.858 351.294 194.038C356.655 194.874 360.59 197.432 364.426 200.924C372.836 208.645 381.492 216.121 390.148 223.548C393.837 226.745 401.116 225.81 403.722 221.974C406.575 217.793 409.968 213.76 411.788 209.186C418.231 192.661 424.575 176.037 430.084 159.168C434.608 145.446 433.526 131.626 427.821 118.199C421.28 102.854 413.952 88.2465 398.361 79.6396C395.312 77.9674 393.345 74.2787 391.181 71.3278C390.64 70.59 390.886 68.7702 391.427 67.8358C391.968 66.9013 393.591 65.6718 394.328 65.8685C399.05 67.4915 404.263 68.6227 408.148 71.5245C422.706 82.443 432.789 97.2469 440.068 113.576C447.986 131.33 449.51 149.233 442.92 168.906C432.346 200.432 418.526 230.236 402.886 259.303C394.968 274.009 382.967 285.567 370.574 296.535C366.885 299.781 362.114 302.387 357.393 303.764C344.015 307.65 330.884 313.207 316.67 312.863C300.194 312.47 284.456 319.06 267.587 316.896C251.406 314.83 234.881 315.371 218.503 314.732C218.503 314.388 218.503 314.043 218.503 313.699H218.306Z" fill="black"/>
</svg>
