<svg width="413" height="584" viewBox="0 0 413 584" fill="none" xmlns="http://www.w3.org/2000/svg">
<path d="M363.507 320.225C354.212 321.061 350.277 320.667 346.933 321.897C324.309 330.307 301.882 339.16 279.259 347.62C268.685 351.554 262.34 358.489 261.603 369.997C261.012 378.899 260.963 387.851 259.734 396.605C258.898 402.753 257.57 409.442 254.324 414.557C252.16 417.951 246.455 420.115 242.028 420.656C240.159 420.902 235.93 415.786 235.634 412.835C234.307 400.638 234.11 388.293 231.012 376.194C231.012 430.836 231.208 485.478 230.864 540.12C230.766 552.71 229.044 565.35 227.225 577.794C226.339 583.745 215.519 585.368 211.683 580.203C208.732 576.269 205.289 571.892 204.552 567.318C202.83 556.055 201.945 544.546 201.797 533.136C201.109 478.494 200.765 423.852 200.224 369.26C200.224 366.8 199.24 364.292 198.404 360.259C181.289 344.964 156.697 345.997 135.992 337.144C116.319 328.684 95.3188 323.422 76.7773 317.372C64.0391 324.946 63.4486 335.422 62.219 345.406C56.6123 390.802 51.3012 436.197 45.5961 481.593C44.3174 491.675 42.8419 501.954 39.3991 511.397C37.0384 517.938 31.1854 523.201 27.3984 528.316C14.562 525.66 15.4475 517.053 16.0377 509.873C18.4476 480.757 21.2507 451.641 24.2999 422.574C26.4148 402.36 26.4147 381.359 32.2182 362.178C46.8252 313.733 37.2838 266.665 28.4311 219.4C20.9062 179.415 12.2502 139.676 4.43027 99.7889C2.26626 88.6245 0.791333 77.214 0.0536042 65.8528C-0.339851 59.7542 1.52906 53.5572 2.5127 46.77C27.4479 34.7203 53.9568 30.884 79.7773 25.228C119.516 16.5227 159.599 9.44024 199.535 1.6694C202.043 1.17758 204.552 0.685703 207.06 0.390608C223.339 -1.37996 231.553 2.60401 236.569 17.8014C244.192 40.7205 251.078 63.8855 257.029 87.2963C264.849 118.035 271.488 149.069 278.915 181.186C321.506 194.662 367.835 196.58 409.001 214.778C415.886 239.369 412.247 261.304 401.329 279.748C391.394 296.47 389.427 312.897 390.804 330.75C394.099 373.834 397.935 416.918 401.427 459.952C402.165 468.805 403.296 477.757 402.607 486.511C401.87 495.856 397.197 503.331 384.263 505.643C381.902 499.446 377.82 493.052 377.229 486.363C375.115 462.313 374.623 438.116 372.656 414.016C370.147 383.769 366.803 353.62 363.557 320.422L363.507 320.225ZM36.9893 427C45.5469 416.081 45.7435 404.081 40.481 384.801C39.1531 403.343 38.3171 415.393 37.481 427.492C33.153 436.837 30.2022 446.329 36.9893 456.362V427ZM68.9575 290.469C67.1378 288.895 65.4651 287.223 63.547 285.797C62.6617 285.108 61.3834 284.912 60.2522 284.518C60.9899 285.944 61.334 288.157 62.4652 288.649C64.58 289.584 67.1377 289.535 69.4984 289.928C76.6298 294.994 83.0726 301.929 90.9909 304.732C120.746 315.257 150.894 324.553 181.043 333.848C185.617 335.275 191.223 335.029 195.896 333.848C198.847 333.111 202.24 329.471 203.027 326.471C203.863 323.372 202.388 319.241 200.962 315.995C200.027 313.929 197.666 312.011 195.502 311.028C165.944 297.207 136.287 283.584 107.811 270.452C93.3021 278.42 84.4989 291.354 68.9083 290.518L68.9575 290.469ZM69.1538 167.415C69.6948 170.513 70.2849 173.612 69.6947 170.267C70.9243 173.513 69.8426 170.661 68.7606 167.808C66.99 152.709 64.9241 137.61 63.4978 122.462C62.3174 109.871 61.4324 97.231 61.2848 84.6403C61.1865 74.9022 66.3507 66.7382 75.5477 64.0823C107.221 54.9344 138.943 45.9829 171.059 38.6548C186.453 35.1628 199.24 43.5237 204.208 58.2293C212.323 82.2304 221.027 106.527 224.519 131.413C229.241 164.857 209.519 193.629 178.387 206.761C141.206 222.401 123.303 224.269 82.6296 216.695C80.3181 233.565 78.0069 250.386 75.0068 272.469C84.1546 266.419 88.6793 262.288 93.9909 260.173C100.729 257.517 109.041 253.484 114.992 255.353C130.976 260.419 144.943 255.353 159.599 251.172C180.354 245.27 201.502 240.648 222.208 234.5C264.209 222.057 302.621 235.434 340.688 250.533C352.983 255.402 362.229 263.812 362.672 278.862C362.77 281.469 366.606 283.977 369.41 287.469C393.361 273.108 399.46 253.779 392.722 229.434C370.787 214.138 345.163 217.532 322.293 210.499C305.965 205.482 289.784 204.301 274.98 215.613C273.062 217.089 270.062 218.466 267.898 218.072C262.045 216.941 255.307 216.204 251.078 212.663C248.323 210.351 247.733 202.925 249.11 198.744C253.487 185.662 261.455 173.71 257.57 158.66C247.734 120.544 238.782 82.1813 228.553 44.1632C226.044 34.8677 220.093 26.5561 215.568 17.4082C174.256 23.8511 135.451 29.7034 96.6956 36.0479C80.4164 38.7038 64.1371 41.7535 48.1038 45.6389C41.3167 47.3111 35.169 51.6389 29.0212 54.5898C37.4313 82.4271 44.5628 108.051 53.0712 133.183C57.055 144.987 63.6946 155.906 69.1538 167.267V167.415ZM69.6947 84.4932C73.7768 109.38 77.564 133.036 81.5478 156.644C82.5806 162.89 83.8104 169.136 85.5318 175.235C92.9091 201.597 102.057 207.499 129.746 204.941C149.271 203.171 165.796 193.727 182.912 185.514C202.683 176.021 211.339 158.414 209.667 139.135C207.7 116.757 200.716 94.526 193.732 72.9841C189.06 58.5736 178.781 53.1147 163.583 56.1148C136.287 61.4757 109.336 68.5083 82.3348 75.2955C78.9905 76.1316 76.285 79.5744 69.5963 84.5418L69.6947 84.4932ZM160.829 271.534C167.469 283.338 179.568 287.371 191.863 290.076C213.847 294.896 223.683 308.766 224.815 330.406C224.913 332.422 227.766 334.291 230.421 337.537C248.57 339.701 266.816 334.34 284.915 329.176C323.621 318.061 323.621 317.913 340.688 280.387C341.573 278.37 340.49 275.469 340.146 270.698C333.703 267.108 326.474 262.091 318.556 258.845C265.439 236.86 213.995 248.812 162.993 267.206C162.157 267.501 161.862 269.37 160.829 271.534ZM49.1371 250.533C51.6945 251.123 54.2024 251.714 56.7599 252.304C60.1534 246.107 65.3671 240.254 66.3999 233.713C67.5311 226.581 65.6126 218.614 63.4486 211.433C50.858 169.038 37.874 126.74 24.7424 84.5418C23.808 81.5909 20.3655 79.378 16.431 75.0007C15.5457 81.0993 14.0212 84.8374 14.7097 88.0834C26.0216 142.283 37.5793 196.383 49.0878 250.484L49.1371 250.533Z" fill="black"/>
<path d="M179.519 131.512C177.552 131.708 175.535 132.003 173.567 132.003C173.42 132.003 173.273 129.84 173.125 128.709C175.092 128.512 177.109 128.216 179.076 128.216C179.223 128.216 179.371 130.381 179.519 131.512Z" fill="black"/>
<path d="M165.403 153.545C166.387 153.152 167.469 152.709 168.502 152.267L168.649 157.431C167.567 157.185 166.141 157.234 165.501 156.545C164.96 156.004 165.403 154.578 165.403 153.496V153.545Z" fill="black"/>
<path d="M141.893 148.726C143.172 150.004 144.598 151.185 145.533 152.71C145.828 153.152 144.549 155.316 144.106 155.267C142.385 155.119 140.713 154.431 139.041 153.939C139.975 152.218 140.959 150.496 141.893 148.726Z" fill="black"/>
<path d="M124.041 109.527L123.992 112.183L121.336 110.806L124.041 109.527Z" fill="black"/>
<path d="M213.552 267.501C213.994 268.485 214.88 269.616 214.683 270.452C214.486 271.239 213.109 271.731 212.224 272.37C211.584 270.846 210.995 269.272 210.355 267.747C211.388 267.649 212.47 267.6 213.503 267.501H213.552Z" fill="black"/>
</svg>
