<svg width="547" height="503" viewBox="0 0 547 503" fill="none" xmlns="http://www.w3.org/2000/svg">
<path d="M47.3187 160.563C51.6467 162.875 57.2534 164.154 60.1552 167.646C72.7949 182.695 77.7131 201.188 80.7132 220.172C82.2871 230.206 83.4674 240.19 88.1889 249.485C92.9104 258.781 98.6646 266.994 108.157 271.765C117.157 276.339 126.157 281.306 135.649 284.503C157.339 291.782 179.716 295.667 202.389 299.307C249.112 306.734 296.081 304.275 342.902 306.635C350.476 307.029 358.148 306.34 365.722 305.75C385.198 304.275 402.806 297.733 418.199 285.438C423.068 281.552 428.626 278.503 433.888 275.06C432.511 289.323 422.823 297.586 411.806 304.274C404.232 308.848 395.625 311.652 387.756 315.734C382.887 318.242 380.92 323.062 380.969 328.423C380.969 332.21 381.411 336.046 382.247 339.735C390.264 374.36 397.74 409.132 406.691 443.51C411.314 461.167 411.363 478.626 409.888 496.381C409.74 498.349 407.281 500.365 405.56 501.988C403.691 503.759 397.002 502.332 395.182 499.775C381.215 480.151 364.886 462.101 355.64 439.428C354.263 436.084 350.919 431.952 354.263 429.395C357.706 426.739 360.46 431.116 362.722 433.772C365.181 436.625 367.247 439.969 370.149 442.182C371.673 443.314 374.723 442.773 376.985 442.379C377.772 442.232 378.608 440.362 378.805 439.182C381.018 426.296 378.362 413.952 374.919 401.607C368.427 378.393 362.181 355.08 355.788 331.817C353.771 324.39 346.541 320.8 337.541 322.62C332.279 323.702 327.656 327.833 327.41 332.505C326.869 342.637 326.623 352.769 326.426 362.9C326.082 378.147 326.328 393.393 325.246 408.591C324.901 413.115 321.262 417.591 318.36 421.526C317.426 422.755 313.147 423.247 311.917 422.214C309.163 419.903 306.409 416.755 305.327 413.41C301.688 402.344 296.474 392.361 288.556 383.803C286.048 381.098 282.703 377.655 285.261 374.212C287.966 370.573 291.704 374.409 294.999 375.196C300.064 376.376 303.163 374.606 303.163 370.769C303.163 365.704 304.589 359.753 302.425 355.769C295.835 343.768 287.917 332.505 280.392 321.046C278.916 318.783 272.08 318.685 269.719 320.898C255.85 333.784 242.03 346.817 228.111 359.654C227.423 360.293 224.915 360.392 224.669 359.949C223.488 357.883 221.718 355.228 222.21 353.31C223.095 349.768 225.16 346.375 227.177 343.276C229.931 339.046 233.669 335.358 236.03 330.882C237.653 327.784 238.095 323.8 238.046 320.21C237.997 316.865 230.964 314.062 225.406 314.308C219.8 314.554 214.98 316.964 213.603 322.128C209.668 336.784 204.898 351.342 204.848 366.884C204.848 377.016 203.963 387.196 203.324 397.328C202.684 407.607 195.602 412.722 187.389 416.903C184.487 418.378 179.028 414.738 179.471 411.345C181.585 393.738 184.094 376.13 185.962 358.523C187.29 345.932 188.471 333.292 188.668 320.702C188.815 310.767 175.684 303.783 165.65 307.816C163.388 308.701 160.831 310.226 159.65 312.193C157.093 316.521 154.732 321.193 153.453 326.013C142.191 368.95 131.272 412.033 119.96 454.97C117.698 463.528 114.747 471.987 111.354 480.151C108.157 487.725 100.878 490.824 93.6481 493.48C89.6644 494.955 83.0739 492.447 80.0739 488.66C77.0246 484.823 76.877 478.037 79.7788 474.495C81.4018 472.577 82.7789 470.118 84.8937 468.987C94.6809 463.478 98.2712 454.134 101.025 444.199C109.829 412.378 118.731 380.606 127.289 348.686C131.223 334.03 134.567 319.177 138.404 303.291C134.469 299.996 131.076 296.159 126.846 293.799C119.124 289.421 110.714 286.225 102.943 281.946C88.7791 274.175 80.3198 261.879 76.5327 246.288C75.9426 243.829 75.254 241.321 75.0081 238.813C72.6966 210.238 61.4339 184.81 47.2695 160.465L47.3187 160.563ZM370.247 334.473C370.247 333.194 370.739 331.522 370.149 330.833C368.182 328.571 366.657 329.554 366.657 333.194C366.657 334.276 367.542 335.407 367.985 336.489C368.723 335.801 369.509 335.112 370.247 334.473Z" fill="black"/>
<path d="M509.579 180.433C513.415 172.515 517.252 164.596 521.383 156.039C518.924 153.727 516.612 149.94 513.464 148.956C491.677 142.071 469.693 135.775 447.807 129.234C442.987 127.808 438.069 126.382 433.446 124.316C426.117 121.021 421.002 115.365 419.281 107.446C416.871 96.2819 415.199 84.9698 413.035 73.8054C410.428 60.4769 402.707 50.5419 391.051 44.1974C382.198 39.3775 373.05 34.4103 363.411 31.8528C342.557 26.3444 321.508 21.0819 300.212 18.0326C280.146 15.1308 259.932 12.1305 239.866 10.2124C214.783 7.85164 192.307 17.1472 177.7 39.4761C173.568 45.8206 170.913 53.0994 167.47 59.8866C157.043 80.3957 140.42 93.4785 118.14 98.5443C103.337 101.889 88.1885 103.856 73.0897 105.922C63.0074 107.299 52.6792 106.856 42.7444 108.676C35.4655 110.004 28.4817 113.496 21.5471 116.496C17.1207 118.414 16.6781 126.086 20.711 129.382C25.6292 133.365 30.8916 137.005 35.8098 140.989C41.0722 145.219 43.1379 151.17 44.1707 157.563C31.285 149.497 18.3502 141.48 5.51371 133.365C-1.61767 128.841 -1.81439 119.742 4.82516 114.184C21.006 100.708 39.9902 94.7572 60.5483 92.3473C80.6637 90.0357 100.73 86.937 120.796 84.1336C128.665 83.0024 135.157 79.1171 140.026 72.9201C150.994 59.0015 162.453 45.4271 169.289 28.7051C173.913 17.3931 182.962 10.6058 194.52 7.40897C203.077 5.0482 211.684 2.29407 220.439 1.6547C250.833 -0.558518 281.228 -1.24712 311.425 4.06459C330.114 7.35982 348.558 10.5567 367.788 10.8026C386.329 11.0485 401.182 22.1146 410.527 38.5416C416.133 48.4273 420.461 59.0506 424.986 69.5265C427.986 76.5104 430.052 83.8877 432.904 90.9208C440.085 108.774 452.971 119.447 472.25 122.545C489.759 125.349 507.267 128.398 524.53 132.234C533.334 134.202 540.613 139.316 544.843 148.071C547.007 152.546 546.367 159.727 542.629 161.842C531.662 168.138 520.547 174.236 509.53 180.433H509.579Z" fill="black"/>
<path d="M433.15 275.945C441.954 242.305 461.282 215.697 488.332 194.499C491.037 192.384 495.316 192.188 498.857 191.155C496.103 195.286 493.939 200.008 490.497 203.5C472.053 222.337 456.758 243.337 444.069 266.453C441.905 270.437 436.839 272.847 433.15 275.945Z" fill="black"/>
<path d="M346.542 343.62L345.361 345.981L344.525 343.424L346.542 343.62Z" fill="black"/>
<path d="M189.65 207.287C190.388 206.254 190.929 204.68 191.912 204.287C242.127 184.368 296.473 188.105 341.475 213.238C342.36 213.729 343.245 216.238 342.999 216.484C341.425 217.91 339.556 219.189 337.589 219.976C336.606 220.369 334.983 220.074 333.901 219.533C315.556 210.336 295.588 206.942 275.817 202.614C264.406 200.106 253.439 200.745 241.98 202.221C224.471 204.483 206.765 205.27 189.158 206.697L189.601 207.287H189.65Z" fill="black"/>
<path d="M166.683 214.861C172.044 205.418 180.995 206.844 189.651 207.287L189.209 206.697C183.257 214.468 174.798 214.517 166.191 214.271L166.683 214.91V214.861Z" fill="black"/>
<path d="M166.192 214.271C164.372 215.844 162.651 217.566 160.684 218.894C160.192 219.189 157.979 217.861 157.979 217.812C159.7 213.435 163.438 214.91 166.684 214.91L166.192 214.271Z" fill="black"/>
</svg>
