<svg width="572" height="560" viewBox="0 0 572 560" fill="none" xmlns="http://www.w3.org/2000/svg">
<path d="M181.916 235.885C192.343 235.689 202.081 237.804 212.015 240.607C224.163 244.05 235.672 238.049 239.901 226.983C250.328 199.687 260.705 172.292 270.689 144.799C283.723 108.945 296.805 73.1404 308.953 36.9913C313.281 24.1546 321.298 15.0559 331.036 6.69488C336.003 2.416 341.954 -0.141491 348.446 0.00605613C358.627 0.251969 369.004 -0.0431354 378.84 2.07171C418.579 10.7278 459.007 15.4002 498.893 22.9743C520.288 27.0072 540.6 34.0895 560.469 42.7948C567.256 45.795 571.83 53.8117 571.142 61.4842C570.699 66.5008 570.355 71.7141 568.879 76.4848C564.846 89.8624 560.469 103.191 555.895 116.372C533.321 181.194 512.418 246.558 490.877 311.725C488.467 318.955 486.45 326.332 483.893 333.513C481.09 341.185 481.237 348.218 486.205 355.153C490.729 361.448 492.992 368.727 493.778 376.498C495.746 395.63 501.697 413.779 507.5 431.927C518.714 467.043 529.288 502.356 543.501 536.489C543.993 537.62 544.534 539.046 544.239 540.128C543.551 542.44 542.813 545.096 541.19 546.62C539.518 548.145 536.37 549.571 534.452 549.03C519.796 544.997 505.877 540.62 494.91 528.177C485.811 517.898 473.22 510.766 462.155 502.209C452.121 494.438 442.629 485.782 431.908 479.142C421.727 472.847 418.579 465.027 420.547 453.813C421.088 450.665 414.645 447.026 412.038 448.501C400.923 454.649 389.66 460.6 378.791 467.142C339.544 490.651 300.395 514.357 261.197 538.014C257.951 539.981 254.705 542.047 251.656 544.358C233.213 558.277 212.261 561.031 190.129 557.785C188.015 557.49 185.31 555.572 184.375 553.703C183.391 551.736 183.244 548.096 184.424 546.571C189.933 539.686 195.146 532.112 202.081 526.898C220.524 513.078 236.065 496.208 252.738 480.568C258.148 475.503 265.181 471.371 266.656 463.059C262.083 458.731 257.214 454.698 253.033 450.026C245.41 441.517 238.279 432.566 230.754 423.959C224.901 417.27 219.196 410.434 212.704 404.385C210.294 402.122 205.13 400.106 202.474 401.188C169.326 414.074 136.078 426.714 103.569 441.075C83.8965 449.78 65.5024 461.486 46.5182 471.765C42.0426 474.175 37.6164 476.929 32.7965 478.355C29.4522 479.339 24.6323 479.782 21.9765 478.109C14.5992 473.339 7.81207 467.584 1.22169 461.682C-0.106217 460.502 -0.401333 456.469 0.582305 454.698C2.94304 450.272 5.79568 445.944 9.2876 442.403C29.7473 421.451 50.4527 400.794 70.9616 379.892C78.093 372.662 84.9293 365.137 91.6181 357.465C95.9461 352.546 94.3722 343.989 88.6179 340.939C71.7977 331.988 54.7316 323.381 37.9606 314.381C33.5342 312.02 29.2062 309.02 25.8126 305.38C23.4027 302.823 21.1403 298.642 21.2878 295.298C21.9272 282.756 23.4027 270.215 25.1733 257.722C25.4192 255.952 28.5668 253.591 30.7308 253.247C44.4526 250.837 58.2235 248.279 72.0928 246.952C91.0771 245.132 110.209 244.935 129.193 243.066C146.849 241.345 164.407 238.345 181.965 235.885H181.916ZM253.968 234.705C253.131 241.197 256.918 247.591 263.558 249.509C267.197 250.542 270.984 251.083 274.624 252.214C310.969 263.182 347.905 272.231 381.742 290.478C391.677 295.839 402.939 298.691 413.71 302.478C417.792 303.905 424.186 300.314 425.957 295.79C441.056 256.837 456.302 217.934 471.056 178.883C483.598 145.685 494.713 111.995 507.992 79.1407C517.14 56.5659 513.796 56.9594 494.123 50.1722C467.81 41.1226 441.547 31.5812 413.169 30.5484C405.645 30.2533 398.267 27.4991 390.742 26.663C376.922 25.1383 363.053 23.8103 349.134 23.0726C339.544 22.5316 332.167 27.5974 326.56 35.024C324.298 38.0241 321.937 41.3685 321.101 44.9096C314.461 72.1568 301.576 97.0431 292.28 123.307C279.198 160.341 266.755 197.572 254.017 234.705H253.968ZM226.327 344.972C240.098 343.054 253.918 341.087 267.689 339.218C276.493 338.037 285.296 336.955 294.1 335.873C320.511 332.627 346.971 329.627 373.332 326.037C379.529 325.201 385.529 322.545 391.529 320.528C392.611 320.184 394.333 318.266 394.234 318.119C392.906 316.2 391.677 313.692 389.71 312.807C373.578 305.38 357.446 297.905 341.019 291.216C328.134 285.953 315.051 280.789 301.576 277.297C283.083 272.477 264.984 266.919 247.279 259.739C240.344 256.935 232.672 254.329 225.294 254.28C197.359 253.985 169.227 252.902 141.587 255.755C122.652 257.722 103.815 259.886 84.7817 260.378C77.1585 260.575 69.5846 261.116 62.0106 262.05C59.945 262.296 57.7317 264.264 56.2563 266.034C54.3382 268.247 54.8792 270.953 57.1907 272.871C79.8144 291.708 104.258 307.2 132.39 316.791C147.981 322.102 163.571 327.758 178.522 334.693C193.867 341.825 209.064 347.333 226.327 345.021V344.972ZM442.088 331.693C421.727 334.595 400.431 337.496 379.135 340.742C355.331 344.333 331.626 350.776 307.772 351.268C275.804 352.005 244.967 359.776 213.343 361.743C212.212 361.793 210.589 362.776 210.196 363.711C209.359 365.826 208.081 369.121 209.015 370.203C211.327 373.006 214.474 375.908 217.819 376.842C248.361 385.4 279.149 392.827 310.674 396.712C321.986 398.089 333.2 400.106 344.413 402.221C369.348 406.844 394.234 411.762 419.12 416.434C427.826 418.057 434.908 414.664 437.564 406.991C444.597 386.63 451.285 366.121 457.974 345.612C459.351 341.382 455.613 336.119 450.252 334.201C447.892 333.365 445.433 332.726 441.99 331.644L442.088 331.693ZM451.63 313.446C463.827 313.446 473.368 308.184 478.139 296.232C483.745 282.117 489.549 268.001 493.778 253.443C503.369 220.639 514.582 188.424 526.288 156.308C535.78 130.192 543.993 103.535 552.305 76.9767C553.731 72.4027 553.043 66.9926 552.354 62.1235C552.108 60.1562 549.452 57.4512 547.485 57.0577C544.042 56.3692 539.764 56.1232 536.862 57.6479C533.813 59.2709 531.452 62.9105 529.78 66.1565C517.042 90.9937 507.353 117.11 498.5 143.521C491.221 165.112 483.204 186.457 475.188 207.753C463.187 239.771 450.941 271.641 438.793 303.61C437.514 307.003 440.121 311.528 443.761 312.167C446.269 312.61 448.728 312.954 451.679 313.397L451.63 313.446ZM489.254 450.96C482.073 427.648 471.548 404.532 469.827 378.957C469.729 377.826 468.597 376.793 467.909 375.76C466.974 376.4 465.597 376.842 465.155 377.728C460.187 387.958 456.4 398.581 454.728 409.893C453.794 416.385 450.498 421.697 446.023 426.271C433.777 438.812 435.891 441.616 449.121 453.174C461.466 463.896 473.712 474.765 486.106 485.437C490.877 489.52 495.893 493.307 500.91 497.044C501.598 497.585 503.32 497.585 504.008 497.044C504.844 496.405 505.681 494.782 505.385 493.946C500.172 479.782 494.811 465.715 489.205 450.911L489.254 450.96ZM92.6016 416.09L93.241 416.729C92.4049 417.664 91.6181 418.648 90.7328 419.533C88.4213 421.844 87.9293 424.353 90.1425 425.336C92.159 426.271 95.1591 426.713 97.0772 425.877C122.258 414.762 147.341 403.401 172.276 391.843C173.604 391.204 174.785 386.581 174.047 385.794C165.981 377.629 155.948 372.514 144.882 369.908C141.882 369.17 137.062 370.941 134.751 373.252C120.439 387.269 106.618 401.778 92.6016 416.139V416.09ZM380.267 428.14C377.808 428.582 372.053 428.189 368.119 430.697C352.085 440.829 335.659 450.715 324.396 466.65C324.052 467.142 324.986 469.404 325.33 469.404C327.642 469.404 330.249 469.601 332.167 468.568C352.135 457.649 368.807 440.976 391.234 434.189C392.218 433.894 392.808 432.271 393.595 431.287C392.513 430.648 391.529 429.664 390.398 429.418C387.939 428.877 385.382 428.73 380.217 428.091L380.267 428.14ZM82.1751 394.647L82.3718 394.843C79.716 397.499 77.1094 400.155 74.4536 402.811C72.2404 405.073 71.6993 407.877 73.8633 408.713C75.5847 409.401 78.8307 408.565 80.2078 407.237C90.9295 396.86 101.405 386.187 111.832 375.514C112.52 374.777 113.111 373.006 112.668 372.318C111.291 369.908 108.733 369.416 106.471 371.482C98.2576 379.105 90.241 386.925 82.126 394.647H82.1751ZM248.459 400.991C245.951 401.237 243.541 401.286 241.229 401.827C238.77 402.368 239.754 407.729 243.393 411.221C249.689 417.32 256.082 423.418 262.82 429.025C264.001 430.009 267.148 429.123 269.214 428.484C270.001 428.238 270.64 426.418 270.738 425.238C271.525 412.795 268.968 408.172 259.181 404.483C255.64 403.155 252 402.073 248.508 400.942L248.459 400.991ZM289.182 423.812C289.133 428.878 290.903 432.96 295.133 436.796C296.018 437.583 297.444 438.468 298.477 438.321C305.707 437.386 314.953 426.664 313.92 420.025C313.625 418.107 311.314 415.549 309.445 415.008C306.002 413.975 302.117 413.877 298.477 414.074C293.461 414.319 289.231 419.09 289.182 423.812ZM182.014 360.071C181.473 358.989 181.228 357.563 180.342 356.924C169.473 348.71 157.325 343.103 144.095 339.857C143.308 339.66 141.636 340.988 141.292 341.972C140.997 342.857 141.636 344.579 142.423 345.267C152.948 353.874 164.801 360.022 177.736 364.153C178.572 364.448 180.047 363.711 180.834 363.022C181.522 362.383 181.621 361.153 182.014 360.17V360.071Z" fill="black"/>
</svg>
