<svg width="507" height="553" viewBox="0 0 507 553" fill="none" xmlns="http://www.w3.org/2000/svg">
<path d="M429.292 69.6216C433.128 58.6047 441.292 53.5389 452.604 53.5389C458.948 53.5389 465.391 53.6373 471.539 54.916C476.359 55.8997 481.67 57.8178 485.261 60.9655C501.737 75.4251 510.688 93.721 503.901 115.411C496.327 139.658 487.867 163.855 476.654 186.578C463.719 212.792 451.423 239.301 439.079 265.811C429.341 286.713 416.898 305.845 404.848 325.321C398.602 335.453 389.602 342.044 378.683 346.667C357.338 355.618 335.453 361.323 312.042 360.733C286.615 360.044 261.139 360.29 235.712 359.749C228.138 359.602 220.318 359.208 212.99 357.388C191.645 352.126 170.005 353.208 148.414 353.454C137.348 353.601 132.971 357.438 130.708 369.143C128.052 382.767 123.036 396.194 125.938 410.456C126.134 411.44 127.462 413.014 127.954 412.916C129.085 412.67 130.561 411.735 130.954 410.752C133.905 402.882 139.118 398.112 147.824 397.767C155.447 397.472 163.07 396.98 170.693 396.882C187.218 396.636 203.645 396.144 220.072 393.046C243.679 388.619 265.467 393.98 284.598 409.079C306.533 426.392 328.715 443.409 350.601 460.819C364.814 472.131 373.962 487.476 382.323 503.165C383.7 505.772 382.126 510.543 380.7 513.838C379.028 517.773 374.7 518.756 370.962 517.674C363.388 515.56 356.306 514.133 349.617 520.183C346.863 522.691 343.322 525.248 339.83 525.789C319.813 528.74 300.73 536.659 279.926 535.724C264.729 535.036 249.384 536.069 234.58 540.692C233.351 541.085 232.121 541.479 230.843 541.528C190.218 543.741 150.086 551.659 109.314 552.151C105.527 552.151 101.691 552.004 97.8547 551.758C84.1821 550.922 77.1983 543.839 77.4934 529.576C77.9361 506.707 77.7885 483.837 82.8542 461.213C85.0183 451.475 84.5264 441.048 84.6248 430.966C84.6248 428.064 81.2804 426.096 79.1656 427.523C62.0995 438.933 43.1645 437.999 24.0819 436.228C20.3932 435.884 16.7046 434.359 13.1635 433.08C6.3764 430.621 0.769692 421.867 1.90088 414.883C4.70424 397.325 6.96657 379.668 10.9995 362.356C14.8357 346.077 16.262 329.797 16.4095 313.173C16.4095 308.108 16.016 302.698 17.5407 298.025C22.5081 282.975 19.2621 270.68 7.55677 260.204C5.78622 258.581 4.70419 255.974 3.76974 253.663C-6.26337 229.76 4.55665 196.217 26.4426 182.791C41.9349 173.298 58.4109 167.396 76.9033 167.79C103.609 168.331 130.364 168.528 157.07 168.626C169.759 168.626 182.497 168.331 195.186 167.642C204.727 167.101 211.711 161.593 217.219 154.117C224.892 143.74 229.416 131.837 233.007 119.591C239.499 97.5081 249.335 76.8514 260.45 56.7849C261.434 55.0144 263.991 53.8832 266.057 52.9487C268.122 51.9651 269.598 59.2933 268.073 63.3262C267.631 64.5066 267.385 65.7854 266.893 66.9657C256.811 91.6554 246.925 116.493 236.498 141.035C233.056 149.199 228.728 157.068 223.859 164.495C216.482 175.659 205.858 182.495 192.284 183.479C169.414 185.201 146.594 185.299 123.921 180.479C98.5433 175.069 73.313 176.053 48.722 184.856C43.9514 186.578 39.3774 188.84 34.8035 191.004C20.9834 197.644 14.1963 209.497 11.3929 223.858C9.86831 231.58 10.7044 239.498 15.8193 245.646C22.3113 253.417 29.5902 260.499 36.8691 267.532C38.443 269.057 41.9841 270.04 43.8038 269.303C45.476 268.614 47.1974 265.122 46.9514 263.106C46.017 255.63 43.9022 248.252 42.9186 240.777C42.2792 235.858 41.9349 230.596 42.9677 225.776C46.7547 208.12 56.2468 199.463 74.149 197.299C80.346 196.562 86.7396 197.25 93.0841 197.299C123.626 197.644 154.217 199.365 184.612 197.89C201.333 197.053 217.613 196.857 233.695 200.939C241.22 202.857 245.4 199.463 250.171 194.988C252.286 193.02 256.073 194.201 256.466 196.955C257.45 203.693 259.909 208.956 266.303 212.103C271.073 214.415 277.713 213.579 280.221 210.038C290.648 195.48 298.222 179.397 304.566 162.724C306.091 158.74 304.271 155.052 301.664 152.248C295.615 145.707 289.025 139.707 282.975 133.165C276.779 126.526 273.139 118.312 270.877 109.607C269.942 106.066 269.549 101.689 270.729 98.3442C278.352 76.3104 288.779 56.2439 310.517 44.4401C318.731 39.9645 326.797 37.9481 335.993 41.4892C340.567 43.2598 345.781 43.6532 350.748 44.2926C355.273 44.8828 359.404 38.8825 358.962 33.5708C358.47 28.1607 356.109 23.5376 352.076 20.4391C342.682 13.2584 332.502 8.73364 320.157 12.9142C316.714 14.0945 312.681 13.8486 308.943 13.8486C308.058 13.8486 306.779 12.4223 306.337 11.3895C305.943 10.5042 306.091 8.73364 306.73 8.19263C309.583 5.83187 312.386 2.68419 315.681 1.84809C326.993 -1.0045 338.403 -0.561864 349.519 3.22519C359.699 6.71715 367.667 12.3731 369.339 24.0294C369.88 27.8164 370.863 31.5051 371.65 35.243C374.995 50.7355 384.536 59.2441 400.225 61.8016C410.258 63.4738 419.996 66.5231 429.882 68.9822C428.603 73.8513 428.406 79.4581 425.849 83.4419C403.668 117.525 386.061 154.215 366.24 189.578C356.109 207.628 342.781 222.628 327.485 236.154C321.632 241.318 314.845 244.121 306.976 245.302C283.172 248.99 259.614 254.302 235.269 253.122C230.203 252.876 224.941 252.777 220.072 254.007C206.35 257.499 193.366 256.761 179.251 253.859C163.365 250.564 146.496 251.646 130.315 247.613C125.544 246.433 119.888 246.285 115.265 247.662C103.166 251.302 91.0677 255.335 79.5099 260.499C67.0669 266.057 60.1814 276.877 57.9682 290.058C57.1813 294.73 57.7715 300.779 60.1814 304.714C69.8702 320.452 83.8379 332.994 102.232 334.715C130.02 337.273 157.267 343.863 185.448 343.322C210.727 342.83 235.908 344.06 261.139 349.273C293.992 356.061 326.993 351.536 358.716 340.814C379.618 333.732 398.405 323.305 405.733 299.992C407.258 295.222 410.16 290.845 412.521 286.369C437.849 239.154 456.932 189.676 469.276 137.444C472.129 125.345 473.85 112.361 481.277 101.639C483.638 98.2458 484.179 95.049 481.178 91.8029C479.457 89.934 477.441 88.2618 476.211 86.0977C469.08 73.8513 458.702 68.3428 444.538 69.474C439.472 69.8675 434.357 69.6216 429.292 69.6216ZM115.806 485.263C114.38 511.477 123.429 513.74 145.512 511.231C150.529 510.69 155.496 509.412 160.463 508.526C194.153 502.526 227.744 496.034 262.221 496.329C269.844 496.378 277.565 496.624 284.992 495.296C294.877 493.526 304.517 490.476 314.157 487.624C316.714 486.886 317.796 483.443 315.829 481.328C307.222 472.082 298.369 463.033 289.271 454.229C273.385 438.884 254.893 428.752 232.712 425.211C225.088 423.982 217.859 423.195 210.137 424.326C197.596 426.146 185.005 427.572 172.414 428.605C162.332 429.441 152.102 429.195 141.971 429.785C129.134 430.523 124.413 434.162 121.462 447.884C118.806 460.18 117.626 472.82 115.757 485.312L115.806 485.263ZM358.371 157.953C359.896 158.494 365.158 156.822 367.863 152.199C371.06 146.789 375.388 141.576 376.913 135.674C381.487 118.263 389.061 102.918 402.045 90.2291C405.586 86.7863 403.373 79.8024 398.553 77.54C376.765 67.2608 354.043 59.8343 330.534 54.7685C319.911 52.5061 310.468 55.457 303.681 64.5066C299.894 69.5724 296.205 74.6874 292.714 79.9499C281.156 97.1638 284.107 117.476 300.632 130.264C307.566 135.625 315.14 140.346 323.059 144.084C333.288 148.904 344.158 152.445 358.322 157.904L358.371 157.953ZM86.4937 208.857C77.6902 208.415 70.8539 211.267 65.198 216.923C61.4601 220.661 58.8535 224.497 62.6896 230.055C63.7716 231.629 63.329 234.58 63.034 236.793C62.8864 237.826 61.0666 238.613 60.7715 239.744C60.1814 242.006 59.4437 244.613 59.9847 246.777C60.6732 249.679 65.7389 250.81 70.0178 248.498C89.6905 237.875 110.986 235.711 132.774 236.055C137.84 236.104 142.955 236.154 148.02 236.252C165.775 236.645 183.628 236.252 201.333 237.629C220.367 239.105 238.958 234.432 257.843 235.022C260.843 235.121 262.811 234.235 262.909 231.383C262.909 230.35 261.827 229.071 260.893 228.284C249.778 218.94 237.187 214.464 222.433 214.956C207.235 215.448 191.989 214.759 176.742 214.513C147.627 214.021 118.314 216.136 89.5921 209.005C88.4118 208.71 87.0839 209.005 86.4937 209.005V208.857ZM40.4102 362.012C40.4102 370.422 40.2627 377.996 40.4102 385.57C40.607 393.144 46.7548 401.259 53.6894 401.899C63.6733 402.784 73.7556 402.931 83.7396 402.833C85.8544 402.833 89.2479 400.866 89.8381 399.095C94.5104 384.783 100.56 370.569 98.0514 355.077C97.5596 351.978 94.3628 348.093 91.4119 346.863C79.7066 341.945 68.444 336.338 58.5092 328.322C57.5256 327.535 56.3452 327.092 55.2632 326.453C51.7221 324.387 44.1481 328.272 43.5579 332.748C42.3283 342.732 41.2956 352.815 40.3119 362.012H40.4102ZM296.599 233.94C305.353 235.022 312.435 231.58 317.452 226.071C329.256 213.087 340.125 199.168 351.338 185.594C352.125 184.659 352.519 183.381 353.207 182.299C356.256 177.43 354.879 171.626 350.158 169.806C344.256 167.544 338.403 165.282 332.403 163.363C324.288 160.757 317.895 163.609 314.255 172.167C307.32 188.397 300.042 204.332 290.5 219.235C289.861 220.268 289.861 221.645 289.369 222.825C287.795 226.661 292.664 233.694 296.55 233.94H296.599Z" fill="black"/>
</svg>
