<svg width="389" height="536" viewBox="0 0 389 536" fill="none" xmlns="http://www.w3.org/2000/svg">
<path d="M169.085 358C163.036 364.443 158.856 371.279 152.757 375.017C129.346 389.28 121.625 410.625 121.871 436.593C122.018 449.282 120.838 461.971 120.199 474.66C119.953 479.726 120.297 484.94 119.018 489.76C116.117 500.678 101.755 508.351 91.8698 504.908C80.7547 501.022 73.5742 488.432 77.312 477.464C79.3285 471.612 82.1319 465.119 86.5582 461.185C97.2799 451.741 98.903 439.79 99.8374 426.806C101.067 410.428 103.378 394.149 105.444 375.902C92.3617 371.476 82.7712 376.296 70.5741 384.706C68.115 402.461 65.41 422.478 62.5574 442.446C59.3606 464.972 56.5572 487.596 52.5243 510.023C50.2127 522.958 39.7862 530.09 27.9826 529.155C12.8345 527.926 0.686653 516.662 0.0472887 502.793C-0.493712 490.645 3.48994 480.071 13.1788 472.546C19.0806 467.972 25.9661 464.627 34.7697 459.266C35.8025 438.806 37.278 417.363 37.7206 395.968C38.0649 380.181 44.6553 370.886 59.2623 363.705C81.0991 352.983 103.624 344.819 126.838 338.13C156.446 329.572 156.396 329.425 154.577 293.718C132.445 283.538 110.166 272.373 84.7385 267.75C66.0494 264.356 47.7537 257.962 32.6057 245.322C14.0149 229.781 9.68692 213.255 18.9331 191.222C20.2119 188.222 24.1956 186.353 28.917 182.221C29.8023 187.386 31.3269 190.632 30.6875 193.435C24.9824 218.961 28.3761 229.584 49.5735 240.257C71.2135 251.225 94.1815 259.094 118.576 261.307C152.757 264.356 186.988 267.16 221.218 269.57C255.793 271.98 289.876 266.619 323.566 260.373C335.615 258.159 348.009 252.061 357.649 244.487C364.879 238.782 369.6 228.305 372.502 219.01C376.24 207.009 367.879 195.894 355.091 194.665C345.108 193.73 334.828 194.665 324.746 195.353C291.794 197.714 258.892 201.501 225.94 202.485C192.89 203.468 159.79 201.944 126.74 201.206C110.264 200.862 93.5913 200.567 77.3612 189.206C76.5252 183.255 74.2628 175.877 74.7546 168.696C76.2301 145.876 78.4433 123.104 80.9024 100.332C83.9516 72.5935 87.296 44.9037 91.1814 17.2631C92.0174 11.4596 95.6568 6.04945 98.1651 0C110.756 3.24605 121.33 6.98437 132.248 8.45985C143.511 9.98451 155.118 9.64004 166.577 9.49249C209.857 8.9023 253.039 9.19725 296.073 15.4926C308.074 17.2632 320.812 13.8699 334.435 12.7387C344.96 20.7555 342.157 32.0182 340.878 43.3793C336.894 78.7415 333.255 114.153 330.009 149.564C329.32 156.892 331.091 164.418 331.583 170.123C342.157 181.73 354.747 177.156 365.518 179.713C380.027 183.156 387.256 191.32 388.634 206.124C391.339 235.388 371.272 261.996 339.452 269.717C324.648 273.308 309.451 276.308 294.303 277.046C264.597 278.521 236.957 286.095 209.365 300.554C205.234 313.883 199.726 327.949 205.726 344.966C223.677 350.229 241.924 355.098 259.826 361C285.696 369.459 291.647 373.246 293.86 408.609C294.401 417.412 291.843 426.363 292.139 435.216C292.827 456.512 288.253 478.645 301.237 498.318C303.155 501.219 303.008 505.695 303.155 509.433C303.598 518.581 302.909 527.483 293.86 532.795C284.515 538.254 276.351 534.319 269.564 528.122C261.154 520.449 254.76 513.367 240.498 514.203C218.464 515.531 207.005 500.531 213.497 479.874C219.349 461.185 220.776 442.741 220.825 423.609C220.825 409.985 216.398 399.116 206.464 389.771C199.136 382.837 193.431 374.132 186.053 367.295C181.725 363.311 175.528 361.344 169.085 357.901V358ZM102.641 183.106C120.69 184.484 134.412 186.451 148.134 186.451C181.184 186.402 214.185 185.025 246.94 191.615C254.268 193.091 262.187 192.549 269.712 191.713C300.106 188.369 309.401 178.287 310.779 147.843C311.123 140.269 310.729 132.596 310.533 124.973C310.139 110.858 297.45 104.759 286.975 105.989C282.007 106.579 276.843 107.759 272.318 109.972C251.957 119.809 230.366 120.448 208.874 117.448C183.742 113.956 158.905 108.595 133.92 104.218C126.838 102.989 119.608 102.3 111.002 101.169C105.051 127.875 104.067 152.811 102.641 183.058V183.106ZM230.76 95.9551C230.858 96.6929 230.907 97.431 231.005 98.1687C251.023 95.5129 271.433 94.3321 291.007 89.7581C311.664 84.9382 317.467 75.0036 317.271 53.806C317.123 37.5266 310.68 30.5919 294.401 29.9034C272.909 28.9689 251.367 28.4275 229.874 27.6405C201.988 26.6569 174.102 24.8867 146.216 24.9359C127.232 24.9359 120.936 30.9849 117.248 48.4939C115.969 54.6417 115.428 61.085 115.477 67.3804C115.526 80.1679 123.641 89.3651 136.084 90.2504C167.659 92.4144 199.234 94.1354 230.809 96.0044L230.76 95.9551ZM265.285 481.104C266.515 453.512 267.843 431.134 268.236 408.756C268.335 404.379 265.384 399.51 262.679 395.624C259.187 390.608 247.777 392.034 247.039 397.493C243.301 425.626 237.301 454.348 265.236 481.104H265.285ZM22.9168 484.792C21.7857 487.743 18.3922 492.219 18.9824 496.055C20.1627 503.58 24.5891 510.81 33.3926 510.023C36.6878 509.728 41.5568 503.777 41.9502 499.94C42.9339 491.088 33.2942 482.973 22.9168 484.743V484.792ZM246.645 494.481C240.645 489.022 237.891 485.186 234.252 483.858C232.481 483.218 226.53 487.547 226.727 489.12C227.218 493.252 229.137 498.514 232.284 500.481C234.202 501.711 239.416 497.727 246.695 494.53L246.645 494.481ZM97.034 470.726C93.4437 476.284 89.3617 480.464 90.1486 481.743C92.3126 485.383 96.4439 487.842 99.8374 490.743C101.903 488.186 106.083 484.989 105.542 483.169C104.411 479.234 100.87 475.989 97.034 470.677V470.726ZM294.253 516.909C291.647 512.63 290.565 508.646 288.106 507.465C285.45 506.138 280.925 506.334 278.318 507.859C274.679 509.974 277.433 517.794 282.597 518.974C285.548 519.663 289.04 517.942 294.253 516.909Z" fill="black"/>
</svg>
