<svg width="534" height="825" viewBox="0 0 534 825" fill="none" xmlns="http://www.w3.org/2000/svg">
<path d="M65.8673 523.215C64.4902 531.035 62.2772 542.249 60.5559 553.512C59.3755 560.988 58.7853 568.611 58.0968 576.185C57.9984 577.267 58.7364 578.792 59.6217 579.48C61.1955 580.71 63.015 579.48 63.7036 576.185C66.507 562.512 69.1137 548.79 71.8187 535.117C74.2778 522.674 76.8845 510.28 79.2452 497.788C80.0813 493.411 76.7368 486.574 72.9498 484.853C63.7036 480.623 54.2605 476.738 45.0635 472.41C39.3092 469.705 33.5548 466.852 28.3907 463.262C17.2264 455.589 11.0792 445.064 11.0792 431.096C11.0792 411.03 17.5219 393.767 31.8338 379.455C48.3589 362.93 67.7857 351.027 90.1143 344.339C107.131 339.224 124.394 334.551 141.755 330.715C158.133 327.125 174.658 329.436 191.085 332.141C218.627 336.666 246.415 340.256 272.874 349.847C277.301 351.421 283.498 347.732 285.219 343.257C289.35 332.535 292.744 321.715 293.285 310.058C294.81 277.008 301.498 244.596 306.023 211.939C310.007 183.069 318.22 154.642 317.334 125.132C317.236 122.575 317.089 119.919 317.728 117.509C323.581 95.2291 324.859 72.4576 326.089 49.6369C326.581 40.0955 333.319 33.3083 343.352 32.3739C373.795 29.4229 403.452 22.2915 433.257 15.9961C450.618 12.3074 467.684 7.04484 484.848 2.27413C496.209 -0.873549 507.374 -0.824316 518.636 2.86437C535.506 8.422 535.899 14.5206 530.932 28.636C528.866 34.5379 524.931 39.8004 522.226 45.5548C520.112 50.0796 517.652 54.8011 517.111 59.621C514.603 81.3596 506.439 101.525 499.652 121.984C483.225 171.462 465.52 220.546 448.404 269.778C445.503 278.188 443.093 286.746 440.338 295.205C432.863 318.173 426.027 341.338 417.666 363.962C408.321 389.242 401.534 414.67 402.124 441.917C402.616 464.787 401.977 487.706 401.632 510.625C401.337 533.495 401.583 556.364 396.714 579.038C394.353 590.104 394.747 601.809 394.698 613.269C394.452 660.336 394.157 707.453 394.698 754.521C394.895 773.456 397.206 792.342 398.485 811.277C398.632 813.736 398.878 816.491 397.944 818.606C397.058 820.671 394.845 823.475 393.025 823.671C384.222 824.507 375.32 825.294 366.566 824.507C361.893 824.114 357.073 821.114 352.942 818.409C336.81 807.785 323.482 793.818 312.121 778.571C292.301 751.816 267.956 729.388 245.529 705.191C229.791 688.223 210.561 675.73 192.216 662.107C185.724 657.287 177.51 657.877 171.018 662.992C138.017 688.862 104.82 714.486 72.212 740.848C60.5067 750.34 48.1126 759.488 42.5059 774.882C37.8828 787.621 28.9811 786.145 22.4399 778.276C16.6856 771.39 10.2921 765.439 3.50499 759.685C0.554073 757.177 -1.36388 753.635 1.19358 749.652C6.80032 740.995 9.55434 731.7 11.4724 721.421C18.2104 685.223 26.571 649.319 33.8991 613.219C39.2107 587.054 43.6866 560.742 48.949 534.626C51.2114 523.461 54.3097 512.444 57.4574 501.477C57.9492 499.804 60.8512 498.821 62.6217 497.542C63.3595 498.575 64.687 499.559 64.7362 500.641C65.228 506.936 65.4739 513.28 65.9658 523.166L65.8673 523.215ZM80.0317 466.901C66.6051 454.016 48.0145 448.458 34.7846 435.228C32.6206 433.064 30.2108 434.146 29.3747 437.244C29.0796 438.376 29.1778 439.949 29.768 440.884C42.0143 458.589 59.2282 466.41 80.4256 466.41C84.8027 473.344 92.0322 476.344 99.1636 478.558C123.459 485.984 148.149 491.591 173.871 488.689C175.052 488.542 176.133 487.706 177.264 487.214C175.937 486.033 174.756 484.115 173.232 483.82C162.067 481.656 150.854 479.935 139.689 477.918C119.771 474.328 99.9012 470.59 80.0317 466.951V466.901ZM369.123 464.787H371.14C371.14 432.965 371.189 401.144 371.14 369.323C371.14 360.421 370.746 351.519 370.058 342.666C369.96 341.043 367.746 339.519 366.516 337.945C365.582 338.732 364.156 339.322 363.812 340.306C346.893 392.292 330.171 444.277 320.827 498.28C319.204 507.723 315.663 510.182 304.793 509.592C299.728 509.297 294.219 507.133 289.793 508.559C274.743 513.477 259.497 511.313 244.299 511.756C239.234 511.903 234.119 511.756 229.053 512.002C217.741 512.494 213.118 516.772 210.659 527.297C203.085 559.758 203.331 592.858 202.003 625.909C201.364 641.598 207.462 652.86 219.315 661.91C232.447 671.943 244.496 683.108 256.3 694.764C273.465 711.634 286.203 732.782 306.515 746.701C311.531 750.144 314.581 756.439 318.466 761.505C325.401 770.603 332.139 779.899 339.319 788.752C341.582 791.555 345.024 793.572 348.122 795.588C349.008 796.178 351.417 796.031 351.713 795.441C352.893 793.277 354.123 790.817 354.27 788.457C355.352 768.144 354.762 747.586 357.615 727.519C360.172 709.765 360.959 692.157 361.5 674.353C362.189 651.483 361.844 628.367 365.09 605.793C367.795 586.759 368.926 567.873 369.074 548.79C369.271 520.805 369.123 492.771 369.123 464.787ZM406.01 287.09C404.337 294.467 403.649 296.927 403.206 299.435C403.01 300.664 403.009 302.042 403.354 303.222C403.649 304.353 404.682 306.37 405.075 306.271C407.19 305.878 410.485 305.484 410.977 304.156C426.027 266.483 439.552 228.12 455.979 191.086C474.127 150.215 484.553 107.082 497.931 64.7851C498.669 62.4736 498.176 59.7685 498.275 57.2602C498.422 54.6535 494.193 49.1943 491.537 48.9484C486.52 48.5057 481.307 47.3254 476.438 48.1123C450.175 52.4895 424.06 57.5553 398.337 64.5392C388.009 67.3426 381.025 73.638 376.5 83.9171C368.189 102.705 364.402 122.525 360.074 142.346C350.385 186.955 340.205 231.415 330.762 276.073C323.434 310.796 317.138 345.716 309.957 380.439C306.613 396.57 302.383 412.506 298.301 428.49C293.284 448.114 287.973 467.639 282.858 487.263C281.973 490.607 285.907 494.345 289.891 494.591C296.924 495.034 302.875 492.378 305.482 486.181C309.417 476.885 312.81 467.196 315.072 457.36C327.22 405.423 344.926 355.109 359.582 303.911C361.303 297.812 362.926 291.615 365.484 285.811C368.041 280.057 371.435 274.647 374.927 269.384C379.009 263.286 388.107 260.777 395.386 263.138C402.714 265.548 407.927 273.171 407.091 280.696C406.698 284.483 405.764 288.172 406.01 286.943V287.09ZM168.953 352.109C157.543 352.109 146.083 351.519 134.722 352.208C104.475 354.028 78.4579 366.471 55.49 385.554C51.7522 388.652 49.2935 393.521 46.7361 397.849C41.8179 406.21 42.6047 416.096 49.0967 422.391C54.5067 427.654 60.2606 432.72 66.5559 436.851C81.6056 446.638 98.4259 452.983 115.886 456.229C155.723 463.655 195.216 473.148 235.988 474.525C239.529 474.623 243.316 476.246 246.414 478.164C248.185 479.246 249.71 482.345 249.562 484.41C249.464 486.181 246.906 489.181 245.283 489.28C233.922 490.017 222.512 490.017 211.151 490.509C208.79 490.607 206.479 491.837 204.118 492.575C206.085 496.263 209.774 495.575 212.921 495.771C220.545 496.165 228.119 496.362 235.742 496.46C257.234 496.657 259.89 494.886 265.989 475.705C267.907 469.705 268.989 463.409 270.612 457.311C277.497 431.392 278.53 404.784 280.546 378.275C281.038 371.635 277.202 365.93 270.268 364.553C259.103 362.29 247.349 362.143 236.726 358.552C214.496 351.126 191.823 351.224 168.953 352.208V352.109ZM194.183 537.282C194.183 537.773 194.282 530.15 194.183 522.527C194.036 513.625 189.117 507.133 181.052 506.788C159.461 505.805 138.165 502.854 117.164 497.936C115.935 497.64 114.656 497.837 113.377 497.739C104.377 497.05 97.8359 500.493 95.7211 508.559C88.2946 536.741 80.0317 564.824 74.5234 593.399C65.8674 638.155 59.0802 683.255 51.7029 728.208C51.3586 730.323 52.9821 732.88 54.0641 735.044C54.2609 735.438 56.769 735.192 57.6543 734.553C89.1799 709.076 120.656 683.501 152.133 657.877C154.1 656.254 156.116 654.68 157.789 652.762C172.396 635.548 187.15 619.17 189.954 594.53C191.823 578.103 193.249 561.775 194.282 537.232L194.183 537.282ZM355.746 80.8679C354.91 77.13 354.959 72.8511 353.041 69.9493C351.172 67.1459 347.237 64.2442 344.139 64.195C341.188 64.1458 336.516 67.0967 335.532 69.7525C333.417 75.5069 332.04 82.0482 332.384 88.1468C334.45 121.296 324.417 153.215 322.548 185.922C315.22 211.497 317.089 238.547 310.105 264.22C309.465 266.532 310.056 269.286 310.449 271.745C310.646 272.876 311.728 273.86 312.416 274.942C313.252 274.352 314.629 273.909 314.826 273.122C330.712 217.251 341.877 160.347 353.385 103.492C354.861 96.1144 354.959 88.442 355.746 80.8679ZM48.0143 644.795C47.2273 644.204 46.1948 642.926 45.8013 643.073C44.7193 643.565 43.4403 644.499 43.0961 645.532C31.9318 677.993 28.4892 712.125 21.7021 745.52C21.4561 746.602 21.9974 748.029 22.5384 749.061C23.0794 750.143 24.3579 751.963 24.8498 751.816C27.0138 751.225 30.5548 750.389 30.899 748.963C39.3583 717.142 42.9488 684.386 48.8998 652.073C49.3424 649.762 48.3585 647.155 48.0143 644.745V644.795ZM370.402 789.883C370.697 792.637 371.041 796.277 371.631 799.916C371.828 801.047 372.271 802.572 373.107 803.113C374.976 804.392 377.386 806.261 379.156 805.867C380.878 805.474 382.992 802.818 383.337 800.851C384.665 793.178 382.009 786.342 377.386 780.342C376.747 779.505 375.025 778.817 374.091 779.063C373.205 779.26 372.32 780.735 371.976 781.817C371.337 784.129 371.041 786.588 370.402 789.883ZM407.682 39.161C402.026 39.8004 395.78 40.3906 389.534 41.2759C388.698 41.3743 388.009 42.7022 387.272 43.4891C388.354 44.0793 389.484 45.2105 390.566 45.2105C396.862 45.2597 403.206 45.3088 409.501 44.8662C411.469 44.7187 413.338 42.8989 415.207 41.8661C412.895 41.03 410.632 40.243 407.682 39.161Z" fill="black"/>
</svg>
