<svg width="369" height="530" viewBox="0 0 369 530" fill="none" xmlns="http://www.w3.org/2000/svg">
<path d="M56.9353 169.646C53.3942 164.531 48.2302 159.908 46.6072 154.252C35.4921 115.103 42.4756 79.1506 68.3945 47.5755C79.0669 34.5913 92.3953 25.0988 110.248 24.5578L109.806 23.9184C107.199 31.099 104.691 37.9848 108.97 45.7065C120.085 65.773 128.151 87.0197 133.118 109.496C141.381 146.678 147.184 184.057 147.823 222.222C147.971 229.698 148.708 237.371 150.626 244.551C151.364 247.207 156.233 250.207 159.332 250.355C162.43 250.502 165.824 247.502 168.923 245.535C169.808 244.994 170.152 243.371 170.398 242.141C174.873 219.763 179.496 197.385 179.595 174.466C179.791 141.514 179.004 108.562 179.595 75.6093C179.939 56.1822 175.119 37.9847 169.906 19.6888C167.89 12.6557 162.332 10.0492 155.594 9.45901C150.528 9.01637 145.463 8.81962 140.397 8.52453L141.085 9.21286C144.036 7.14719 146.741 3.95042 149.987 3.1635C169.266 -1.50884 188.743 -0.574368 208.022 3.1635C211.268 3.80288 213.973 7.04903 216.973 9.1147C208.12 9.31143 199.317 9.40956 190.464 9.80302C185.841 9.99975 180.775 15.8035 181.267 20.1808C183.923 44.0343 185.448 68.0843 189.776 91.5936C194.251 115.693 193.267 139.498 190.907 163.4C188.448 188.533 184.562 213.517 181.365 238.6C180.677 243.814 184.021 248.732 188.792 250.207C194.644 251.978 199.907 247.355 201.087 239.485C205.563 209.533 209.055 179.385 214.809 149.629C221.301 116.136 229.809 83.0358 237.482 49.7884C242.548 27.9022 241.81 26.2792 221.744 13.4917C219.629 12.1638 217.957 10.1965 216.039 8.57346C238.318 7.0488 256.81 15.5084 272.598 30.5582C275.106 32.9681 276.385 36.706 278.205 39.8045C273.286 38.575 268.417 37.247 263.499 36.1158C255.188 34.1485 250.319 36.5092 248.794 43.3455C238.859 86.6262 227.449 129.563 219.58 173.286C215.989 193.254 213.038 213.32 210.383 233.436C209.399 241.01 210.973 248.584 214.908 255.47C217.809 260.536 225.137 264.47 230.941 263.683C237.236 262.798 243.679 257.486 244.711 252.125C245.449 248.388 246.63 244.601 246.433 240.912C245.548 220.108 251.4 200.631 257.794 181.352C264.188 162.072 271.319 143.039 278.499 124.054C281.254 116.824 285.73 110.627 293.746 108.119C290.304 117.562 287.106 127.103 283.368 136.448C270.729 168.122 260.155 200.336 256.761 234.518C256.565 236.633 258.138 239.977 259.86 240.912C261.483 241.797 265.122 241.01 266.696 239.633C281.057 226.993 291.09 210.96 300.582 194.582C316.369 167.236 320.55 137.874 315.976 106.938C314.648 97.9873 308.747 94.2988 300.484 93.3151C302.402 78.1669 300.435 64.4941 287.992 53.6248C283.565 49.7886 280.811 44.0834 277.319 39.2144C280.959 40.198 285.336 40.1488 288.139 42.2637C309.435 58.1988 323.206 78.8553 324.387 106.053C325.075 122.48 324.14 139.006 323.993 155.531C323.894 165.908 320.796 175.597 316.222 184.696C309.435 198.27 302.058 211.599 294.877 225.026C289.762 234.567 290.844 239.19 299.599 243.469C302.992 245.141 306.779 246.076 310.124 247.896C314.55 250.257 319.075 252.765 322.96 255.913C332.059 263.339 338.698 272.339 339.387 284.733C339.731 290.98 340.518 297.226 341.305 303.423C341.403 304.308 342.78 305.538 343.665 305.636C344.797 305.734 346.568 305.193 347.109 304.308C360.781 282.373 358.568 257.585 341.059 242.387C333.485 235.797 324.73 230.485 316.665 224.485C315.829 223.845 315.731 222.222 315.288 221.042C317.501 220.255 320.403 218.189 321.829 218.927C330.78 223.55 339.534 228.616 348.092 233.928C362.355 242.781 367.863 256.748 368.65 272.634C370.077 302.537 349.666 331.457 319.763 342.424C318.288 342.965 315.484 340.556 313.615 339.129C312.927 338.588 312.632 336.621 313.025 335.686C314.501 332.293 316.173 328.899 318.14 325.752C320.845 321.473 324.386 317.686 326.747 313.21C333.879 299.636 332.895 285.963 324.337 273.618C314.255 259.06 300.091 251.683 281.893 253.748C275.057 254.535 270.188 258.027 267.433 266.142C269.647 269.487 272.106 273.864 275.205 277.7C288.779 294.373 288.434 312.62 281.598 331.555C279.877 336.277 276.631 340.506 275.057 345.228C273.09 351.13 271.418 357.327 270.926 363.524C268.86 388.115 273.68 411.526 284.598 433.609C289.614 443.79 292.959 455.102 301.812 462.872C305.648 466.217 310.419 468.283 315.829 466.463C322.272 464.299 326.6 459.872 328.026 453.282C328.518 451.069 328.075 447.921 326.796 446.15C322.37 440.003 316.763 434.642 312.829 428.248C310.321 424.166 310.074 418.756 308.796 413.985L308.107 414.575C310.419 415.51 313.271 415.854 314.993 417.428C326.255 427.658 337.321 438.084 348.387 448.511C351.043 451.019 350.453 455.643 347.109 458.151C328.764 471.676 310.763 485.595 291.238 497.595C256.663 518.842 219.53 529.023 179.054 529.121C153.43 529.171 128.348 526.957 103.757 519.481C82.6083 513.039 64.1652 502.022 49.0663 486.037C43.0661 479.644 38.295 471.922 33.8687 464.299C29.4915 456.676 26.2458 448.413 23.0981 441.675C14.4421 438.183 9.57268 443.839 3.62167 445.265C2.7364 445.462 1.26106 444.675 0.670879 443.937C0.0806962 443.15 -0.214275 441.577 0.17918 440.691C3.52355 433.265 10.8517 430.166 16.8027 425.543C38.7378 408.723 53.4434 387.082 60.6239 360.278C63.9683 347.884 62.296 343.113 50.0989 335.293C45.8201 332.539 41.246 330.227 37.0164 327.424C20.2945 316.259 10.6549 300.472 6.32692 280.946C3.72028 269.142 4.70423 257.831 10.9503 247.847C16.262 239.338 23.0486 231.518 30.1308 224.386C34.508 219.96 40.656 217.796 47.6398 219.468C53.7384 220.944 60.0333 221.731 66.3286 222.026C68.1975 222.124 70.4109 219.714 72.0339 218.042C72.6732 217.403 72.624 215.14 71.9846 214.402C60.7712 201.418 53.5906 187.057 56.0005 169.302C62.6893 170.679 67.0175 174.909 69.7717 180.958C75.4768 193.5 80.198 206.681 89.8377 216.96C91.2148 218.435 94.5591 219.222 96.5264 218.681C98.4445 218.189 101.15 215.534 101.15 213.862C101.15 203.877 102.33 193.352 99.7725 183.958C92.7887 158.433 82.6079 133.989 68.296 111.513C66.9681 109.447 65.0994 107.381 62.9846 106.348C61.0173 105.365 58.0663 104.922 56.099 105.66C54.0333 106.447 51.8201 108.66 51.1316 110.726C48.0331 120.562 48.9678 130.645 50.7383 140.579C52.5089 150.465 54.7219 160.252 56.7384 170.089L56.9353 169.646ZM25.508 268.11C40.8527 259.945 52.7549 245.289 71.7883 243.912C75.477 243.666 78.4771 240.715 79.2148 236.485C79.805 232.944 73.6572 229.649 67.4603 230.633C61.2634 231.567 54.9189 232.403 49.0171 234.371C32.7379 239.83 23.59 250.404 26.1966 268.601C24.0326 271.11 21.3767 273.323 19.9996 276.176C19.3111 277.553 20.983 280.11 21.5732 282.127C22.8027 280.897 24.9175 279.815 25.1634 278.389C25.7536 275.045 25.5081 271.552 25.6064 268.11H25.508ZM124.117 237.125C135.478 233.141 139.364 224.436 138.429 213.32C136.659 191.926 135.331 170.482 132.282 149.236C127.364 115.3 118.314 82.4948 101.395 52.2476C95.9853 42.5586 87.7722 41.5258 80.0998 49.5426C71.2962 58.6905 62.8369 68.0353 60.9679 80.9703C61.5581 82.5441 61.8043 83.9212 62.4929 84.9048C88.0675 118.742 105.281 156.121 112.068 198.27C114.281 211.845 116.986 225.714 124.855 237.666C121.265 242.928 118.117 248.338 119.347 255.175C119.937 258.617 123.97 262.159 127.462 261.962C130.511 261.814 134.2 256.699 132.823 253.699C130.216 248.043 127.068 242.633 124.117 237.125ZM116.937 420.576L117.576 421.116C116.544 407.099 117.478 393.378 122.642 380C123.921 376.656 123.921 372.475 123.331 368.885C123.036 367.065 120.331 364.704 118.363 364.261C116.347 363.819 112.904 364.803 111.822 366.327C109.018 370.36 106.117 374.885 105.035 379.606C98.7401 407.444 84.8213 431.248 67.2141 453.184C64.8534 456.134 62.4433 459.085 60.2301 462.135C56.4431 467.447 56.64 475.512 61.0172 479.595C79.7555 497.103 99.6742 512.301 126.823 513.727C133.118 514.071 139.364 515.301 145.561 516.531C184.317 524.449 220.957 515.744 257.056 502.76C263.155 500.546 267.581 495.923 269.991 489.677C276.532 490.415 282.483 488.939 288.09 485.496C293.205 482.398 295.615 477.234 293.451 473.053C291.73 469.66 289.959 466.315 287.992 463.069C271.417 435.38 261.04 405.968 261.827 373.213C261.925 369.475 261.089 365.688 260.548 361.95C260.007 358.114 253.958 354.032 248.941 354.032C239.055 354.032 231.678 360.524 231.236 369.721C230.547 383.738 231.777 397.607 236.055 410.936C243.679 435.035 250.958 459.331 267.237 479.644C269.45 482.398 269.598 486.726 270.68 490.316C262.171 489.923 256.761 485.005 252.876 478.021C239.351 453.577 227.744 428.445 223.908 400.312C222.531 390.377 219.58 380.59 216.776 370.852C215.301 365.737 211.317 362.294 205.809 361.901C198.235 361.409 190.661 361.114 183.087 361.311C138.479 362.393 143.348 356.294 127.413 401.001C124.904 408.034 124.117 416.001 116.888 420.526L116.937 420.576ZM178.513 321.178C177.873 317.686 176.545 307.652 174.037 297.964C170.742 285.127 160.217 280.553 148.512 278.34C138.135 276.372 132.036 283.061 126.479 290.242C118.314 300.865 115.904 313.062 117.626 326.194C118.511 332.686 121.265 338.146 126.331 342.523C134.446 349.507 143.593 352.556 154.364 351.818C169.217 350.786 178.07 342.277 178.414 321.227L178.513 321.178ZM97.5596 364.852C95.8382 361.655 94.3623 357.425 91.5589 355.851C87.4277 353.491 82.2144 352.949 77.3945 351.966C76.6076 351.818 74.8865 353.048 74.5914 353.982C67.0666 376.902 57.1813 398.542 43.5087 418.608C39.5742 424.412 39.6232 433.068 38.3936 440.494C38.0002 442.806 38.8857 445.56 39.8693 447.823C40.853 450.036 42.4754 452.003 44.1967 453.774C46.2624 455.889 51.5743 454.757 54.2793 451.855C76.4603 428.15 89.8871 399.82 97.4611 368.54C97.7562 367.36 98.1006 365.786 97.5596 364.852ZM240.334 277.061C237.875 277.504 234.629 277.11 233.154 278.586C230.744 280.897 227.203 285.274 227.99 287.242C234.63 303.472 239.253 320.194 242.548 337.359C243.089 340.064 248.499 341.883 252.286 340.9C269.155 336.473 279.533 320.096 275.746 303.964C271.565 286.012 260.253 277.454 240.334 277.11V277.061ZM53.8368 318.866C56.0992 318.128 59.7384 318.03 60.3778 316.554C69.0338 297.029 77.4441 277.454 95.6414 264.323C96.7726 263.486 96.6743 259.355 95.6907 257.535C94.6578 255.617 92.0508 253.847 89.7885 253.355C76.5094 250.207 65.1483 255.421 54.1316 262.011C42.3279 269.093 37.0166 280.11 35.4428 293.193C34.1641 303.669 42.4266 314.931 53.7876 318.866H53.8368ZM186.873 318.276C186.48 318.276 186.087 318.276 185.644 318.276C186.087 325.801 186.333 333.375 187.021 340.851C187.562 346.851 194.497 351.572 201.038 350.245C205.907 349.212 210.875 347.933 215.448 345.916C221.695 343.162 224.99 337.556 225.383 330.965C225.728 324.719 225.678 318.227 224.449 312.177C222.039 300.423 215.005 291.766 204.038 286.504C196.759 283.012 187.415 287.832 187.021 295.603C186.677 303.128 186.923 310.751 186.923 318.276H186.873ZM115.413 281.389C111.675 279.766 107.986 276.569 105.232 277.258C80.444 283.455 69.3781 308.243 81.2801 330.326C82.4113 332.391 84.6735 334.014 86.6408 335.49C90.0835 338.047 98.9367 336.129 100.019 332.539C105.134 315.767 110.101 298.996 115.363 281.438L115.413 281.389Z" fill="black"/>
<path d="M308.992 413.641C306.041 411.526 301.861 410.001 300.386 407.099C291.975 390.328 287.057 372.524 287.696 353.539C287.795 351.228 289.221 348.916 290.451 346.801C290.992 345.867 292.369 345.129 293.451 344.932C294.385 344.785 296.401 345.67 296.352 345.916C293.992 364.95 301.025 382.065 306.828 399.525C308.353 404.05 307.861 409.263 308.304 414.182L308.992 413.591V413.641Z" fill="black"/>
<path d="M192.137 376.409C192.678 381.672 193.464 386.344 193.612 391.016C193.907 402.427 194.055 413.837 194.055 425.247C194.055 443.248 196.366 460.659 205.022 476.84C207.285 481.069 205.366 487.07 202.858 486.332C200.596 485.693 197.448 484.414 196.809 482.643C184.366 448.904 176.251 414.722 187.513 378.918C187.759 378.081 189.677 377.737 192.137 376.458V376.409Z" fill="black"/>
<path d="M155.642 395.099C146.74 418.608 147.379 442.166 156.035 465.676C157.757 470.397 159.625 475.168 160.511 480.037C160.806 481.611 158.346 483.873 156.773 485.447C156.33 485.89 153.724 485.152 153.379 484.414C140.74 457.069 137.838 428.543 144.773 399.427C146.74 391.164 147.281 381.623 154.56 375.278C155.396 374.54 156.97 373.803 157.855 374.098C158.888 374.393 160.413 376.065 160.265 376.803C158.937 382.951 157.265 389 155.691 395.148L155.642 395.099Z" fill="black"/>
<path d="M116.936 420.575C116.936 439.461 116.936 458.347 116.789 477.184C116.789 478.217 115.461 479.25 114.625 480.43C113.297 478.955 110.887 477.528 110.887 476.102C110.838 462.282 110.691 448.412 111.674 434.641C112.019 430.018 115.51 425.592 117.576 421.116L116.936 420.575Z" fill="black"/>
</svg>
