<svg width="688" height="715" viewBox="0 0 688 715" fill="none" xmlns="http://www.w3.org/2000/svg">
<path d="M389.032 714.153C381.556 712.874 377.523 707.759 373.146 703.333C364.982 695.168 356.228 687.447 345.309 683.66C333.948 679.676 327.358 670.43 319.587 662.954C315.701 664.675 312.062 667.872 308.964 667.43C296.471 665.708 284.077 662.856 271.044 660.347C267.946 656.659 264.208 653.117 261.552 648.888C255.847 639.838 248.617 633.395 237.551 631.969C235.141 631.674 232.584 630.494 230.568 629.067C224.371 624.788 218.912 618.591 212.124 616.231C205.288 613.821 196.829 616.231 189.698 614.312C182.615 612.394 175.631 608.509 169.828 603.935C161.91 597.689 155.86 589.033 147.696 583.18C136.433 575.114 131.515 564.343 129.351 551.457C129.302 551.113 127.876 550.965 126.548 550.572C125.318 557.998 124.089 565.376 122.859 572.704C116.416 571.573 110.367 570.983 104.613 569.36C96.4979 567.048 89.9074 568.327 83.9564 574.622C81.2514 577.475 76.7266 578.36 73.4314 576.048C60.9392 567.343 48.4962 558.539 36.5942 549.047C28.3317 542.408 23.856 533.26 24.1511 522.341C24.3478 514.718 24.1512 506.996 25.2332 499.471C28.6268 475.618 31.8726 451.715 36.4465 428.107C38.9056 415.468 39.3975 402.926 39.8893 390.237C40.3811 377.794 36.4467 369.187 25.5283 361.564C6.49489 348.186 0.150417 328.267 0.00287107 304.954C-0.193857 278.15 9.74074 255.378 23.2166 233.492C28.6266 224.689 36.9385 218.442 46.0863 213.77C51.7422 210.918 57.6934 208.508 63.7427 206.639C98.957 195.818 134.122 184.654 169.582 174.768C199.042 166.555 228.404 158.194 255.65 144.226C268.241 137.783 279.258 136.947 291.258 145.21C297.012 149.144 304.144 144.57 305.226 137.685C305.619 135.176 306.504 132.668 306.406 130.209C305.472 106.601 313.931 85.1086 322.685 64.0585C332.079 41.5821 346.047 21.8106 365.179 6.17059C371.277 1.15397 378.556 -1.74774 386.474 1.15402C399.95 6.07228 413.869 6.71168 427.885 6.41659C438.263 6.21986 448.001 7.69533 457.345 12.7119C466.346 17.5318 476.281 19.3024 486.363 21.3189C518.774 27.6634 550.889 36.0736 581.431 48.6644C601.547 56.927 621.957 63.4191 643.155 67.698C645.663 68.1898 648.171 68.4849 650.679 69.0751C674.631 74.9278 683.631 93.9615 681.025 115.061C679.647 126.373 676.893 137.488 674.434 148.652C667.008 182.096 664.598 216.524 653.679 249.231C651.122 256.952 653.237 264.28 658.499 270.576C666.664 280.462 673.057 291.331 677.729 303.331C681.566 313.168 682.795 322.906 679.353 333.087C676.107 342.727 673.057 352.415 670.008 362.104C668.877 365.646 671.287 368.154 676.451 368.744C678.959 369.039 681.566 368.744 683.976 369.383C687.025 370.22 687.861 376.613 686.189 379.22C680.926 387.237 671.926 389.598 664.45 394.122C657.565 398.303 652.942 403.565 651.81 411.976C648.909 433.321 642.958 454.174 643.401 476.11C643.548 484.766 639.712 493.471 638.728 502.275C637.45 513.439 634.302 524.849 639.712 535.128C646.499 535.128 652.696 535.03 658.942 535.276C659.827 535.276 661.057 536.899 661.401 538.03C661.696 539.063 661.499 540.883 660.762 541.571C649.696 552.047 637.056 560.31 623.629 567.54C595.694 582.639 567.906 597.984 539.922 612.886C497.183 635.608 456.903 662.167 417.459 690.053C407.229 697.283 398.229 706.382 389.032 714.3V714.153ZM239.027 174.817C231.01 178.801 222.649 181.408 213.649 182.195C200.911 183.326 188.96 187.211 177.599 193.113C178.828 195.425 179.369 198.081 181.041 199.409C198.796 213.229 208.141 232.509 215.813 252.821C218.026 258.723 219.649 264.871 221.813 270.822C224.272 277.412 230.42 280.609 236.863 278.691C256.29 272.937 275.717 267.231 295.045 261.28C302.226 259.067 309.898 257.592 315.357 251.641C321.603 252.231 328.194 251.739 333.997 253.657C347.129 257.985 359.916 263.494 372.802 268.559C379.835 271.314 386.769 274.215 393.802 276.97C396.212 277.904 402.065 274.363 402.901 271.56C403.983 267.969 405.557 264.379 405.803 260.739C406.59 249.427 406.393 238.017 407.573 226.754C408.065 222.082 410.967 217.606 413.032 213.131C413.426 212.245 415.295 211.459 416.328 211.606C417.311 211.754 418.885 213.327 418.787 214.114C417.557 225.23 415 236.345 414.803 247.46C414.213 290.642 411.409 281.642 445.935 297.38C450.509 299.446 455.28 301.02 460.05 302.594C466.149 304.61 473.28 300.43 474.461 294.282C477.608 278.248 480.313 262.067 484.15 246.181C486.461 236.492 489.461 226.607 498.855 220.705C499.494 232.213 497.773 243.329 494.183 254.346C490.691 265.215 488.92 276.527 492.314 287.839C492.855 289.56 496.101 291.675 497.92 291.478C501.56 291.183 505.839 290.396 508.495 288.134C519.511 278.74 531.807 273.674 546.463 273.281C554.873 273.035 560.529 266.74 562.693 259.215C567.218 243.476 571.693 227.59 574.152 211.459C576.316 197.491 579.956 184.113 585.464 171.424C595.055 149.439 603.17 126.717 615.515 105.913C618.023 101.732 619.203 96.5681 620.236 91.6991C621.81 84.5184 617.039 75.4688 610.744 72.6162C589.005 62.7797 573.907 66.2717 561.365 84.7643C555.709 93.1253 550.545 101.88 545.922 110.88C535.545 131.193 526.839 152.194 520.151 174.08C516.462 186.179 512.282 198.13 507.511 209.835C505.691 214.213 501.462 217.606 498.314 221.393C497.625 211.163 498.953 201.376 502.15 191.49C516.216 148.062 532.397 105.618 555.414 66.0258C557.529 62.4355 556.053 57.5172 552.561 56.386C527.233 48.4677 501.904 40.5 475.395 37.2047L475.936 37.6966C462.559 26.8273 447.362 21.9582 430.099 24.0239C425.082 24.6141 419.672 25.8928 415.541 22.1549C405.803 13.3512 394.196 15.7612 382.982 16.1546C377.818 16.3514 372.949 18.1712 369.9 22.696C362.867 33.221 355.637 43.5986 349.244 54.5171C335.62 77.6329 328.194 103.355 319.734 128.537C318.21 133.062 318.702 138.472 318.997 143.39C319.292 148.357 322.095 153.669 321.013 158.194C318.554 168.67 319.538 178.359 324.063 187.703C333.948 208.016 331.145 227 318.751 245.198C317.374 247.263 316.685 249.772 315.652 252.132C310.636 248.001 307.439 242.64 307.341 236.148C307.193 224.984 307.488 213.77 307.833 202.606C308.226 190.457 303.062 181.064 293.963 173.44C292.045 171.867 290.274 170.145 288.307 168.571C277.536 160.014 265.831 158.243 253.585 164.735C248.224 167.588 243.502 171.719 238.486 175.309L238.978 174.768L239.027 174.817ZM391.589 312.381L392.032 312.922C392.376 311.692 392.819 310.512 393.065 309.282C394.491 301.61 393.655 298.167 389.524 296.495C383.671 294.183 377.868 291.38 371.769 290.2C363.359 288.577 354.703 288.282 346.145 287.445C347.129 276.97 345.948 273.969 340.145 272.15C336.555 271.068 332.866 270.133 329.128 269.887C326.718 269.69 324.21 270.822 321.751 271.314C303.013 275.002 285.504 282.33 267.553 288.527C254.421 293.052 240.699 295.954 227.617 300.528C208.485 307.168 189.599 314.545 170.713 321.873C163.631 324.627 156.746 327.873 150.057 331.365C148.09 332.398 145.876 335.251 145.876 337.218C145.876 339.923 148.876 340.858 151.827 340.169C154.286 339.628 156.844 338.644 159.254 338.792C161.516 338.94 163.926 340.022 165.943 341.251C168.451 342.874 167.812 348.038 164.566 351.186C161.861 353.842 158.614 355.907 155.811 358.465C152.86 361.121 154.139 365.547 157.926 367.269C173.025 374.203 189.501 376.122 205.485 379.712C208.878 380.499 213.01 378.974 216.551 377.794C222.157 375.925 226.977 377.204 229.338 382.22C232.879 389.598 237.502 394.319 245.962 395.844C271.241 400.516 294.307 410.303 314.718 426.288C322.636 432.534 331.538 437.55 340.096 442.961C346.735 447.141 353.031 445.272 355.244 438.436C360.703 421.615 367.539 405.139 368.523 387.138C369.162 375.531 373.048 364.859 378.261 354.579C383.572 344.153 390.114 335.939 402.803 332.792C412.295 330.431 422.721 328.365 430.246 320.742C430.984 320.004 431.181 318.332 431.033 317.201C430.886 316.266 430.049 314.938 429.164 314.643C416.918 310.119 404.081 314.348 391.638 312.283L391.589 312.381ZM405.95 472.667C405.95 465.043 406.147 457.371 405.95 449.748C405.557 437.452 410.377 427.517 419.18 419.304C422.869 415.861 426.656 412.369 430.689 409.369C432.607 407.943 435.312 407.5 437.722 406.762C440.279 405.926 445.689 408.582 446.919 411.926C447.706 414.041 447.902 417.681 446.624 418.91C442.197 423.337 437.033 427.025 432.214 431.058C424.787 437.305 422.18 445.862 425.771 454.961C427.59 459.584 430.64 463.765 433.492 467.896C435.853 471.29 443.869 472.765 447.46 470.798C449.673 469.568 452.132 468.535 453.903 466.814C480.215 441.78 483.559 405.533 462.165 377.548C459.116 373.564 455.624 369.679 451.69 366.58C443.083 359.744 432.951 357.875 423.017 362.498C416.279 365.646 410.032 370.466 404.524 375.581C399.901 379.81 396.753 385.614 392.819 390.581C387.95 396.68 384.753 403.418 384.065 411.336C382.196 432.829 374.867 453.633 375.949 475.519C367.343 522.981 358.982 570.491 349.932 617.854C347.522 630.444 345.457 642.887 346.342 655.675C346.686 660.888 348.26 666.003 352.539 669.053C359.719 674.168 367.293 678.791 375.015 683.07C376.146 683.709 380.179 681.594 380.917 679.922C386.179 667.921 382.343 654.839 385.097 642.396C392.868 607.673 399.409 572.753 399.901 536.997C399.95 533.21 400.147 529.227 401.327 525.686C407.032 508.373 405.754 490.471 405.999 472.716L405.95 472.667ZM101.17 326.25C101.17 310.069 101.662 296.151 101.022 282.232C100.481 270.527 95.0224 260.346 87.7435 251.296C80.6613 242.542 67.1363 239.148 56.9556 243.476C52.2833 245.444 47.7583 247.706 43.1844 249.919C25.1838 258.575 14.9542 281.986 18.7412 301.266C21.1019 313.217 27.7415 321.972 39.6927 325.955C45.8404 328.021 54.0537 323.545 54.0537 317.594C54.0537 310.119 53.1193 302.692 52.8734 295.216C52.8734 294.282 54.3487 292.511 55.1848 292.462C57.4472 292.315 60.1033 292.265 61.923 293.347C63.9887 294.528 65.759 296.741 66.8901 298.856C72.4969 309.528 72.8903 320.545 69.0542 331.906C64.6278 345.087 59.2671 358.121 56.6113 371.695C51.9882 395.204 47.2666 418.763 47.5617 443.059C47.6601 453.043 45.0043 463.076 43.9223 473.109C42.5944 485.651 41.2172 498.242 40.4795 510.832C39.8893 520.767 44.9059 528.046 54.0537 531.538C69.6444 537.539 76.1364 541.326 79.2841 519.636C82.3334 498.291 85.4318 477.093 85.4318 455.502C85.4318 439.026 87.94 422.845 90.8909 406.565C95.8583 379.269 103.629 352.219 101.219 326.201L101.17 326.25ZM552.808 384.581C552.463 389.647 552.512 394.811 551.627 399.729C550.938 403.319 549.07 406.762 547.447 410.156C546.955 411.139 545.676 411.975 544.545 412.369C542.086 413.254 539.676 411.976 539.922 409.074C540.364 404.057 542.086 399.188 542.824 394.172C544.84 381.04 541.496 369.679 534.315 358.121C524.282 342.038 509.872 332.841 493.396 325.464C481.74 320.25 471.215 322.168 460.837 328.66C456.018 331.661 454.345 338.005 457.788 341.399C460.493 344.054 463.198 346.71 466.1 349.12C483.953 363.728 493.15 382.171 492.461 405.582C492.117 416.992 492.806 428.452 493.101 439.862C493.199 443.108 498.609 447.239 501.167 446.108C534.709 431.009 568.251 415.91 601.793 400.762C606.071 398.844 608.727 393.188 608.235 388.171C604.793 354.826 589.104 328.07 564.267 306.331C561.611 304.02 557.381 301.905 554.185 302.299C547.742 303.086 541.742 302.446 535.397 301.659C530.676 301.069 525.512 302.987 520.741 304.413C511.593 307.118 509.872 311.643 515.626 317.201C521.085 322.513 526.79 327.578 532.2 332.988C546.316 347.251 553.643 364.269 552.857 384.532L552.808 384.581ZM275.717 571.376C275.717 556.769 276.012 550.424 275.618 544.129C275.225 537.489 271.585 532.325 266.569 528.046C259.733 522.193 252.06 517.964 243.503 515.111C238.83 513.537 233.223 516.882 232.633 522.292C231.797 529.817 231.502 537.44 230.469 544.965C230.027 548.014 227.715 549.195 225.994 548.063C225.059 547.473 224.125 546.096 224.026 545.014C223.239 534.932 222.846 524.8 221.961 514.718C221.371 508.078 218.321 502.471 212.469 499.127C207.01 496.029 201.255 493.323 195.402 491.209C193.73 490.618 190.583 492.389 189.058 494.012C187.435 495.684 186.55 498.34 185.96 500.701C184.484 506.799 183.599 512.996 182.074 519.046C181.337 521.997 178.73 522.833 175.877 521.554C174.845 521.112 173.861 520.177 173.271 519.193C167.861 509.75 171.156 499.373 170.271 489.389C169.484 480.979 165.205 475.323 157.729 471.929C154.287 470.355 150.745 468.978 147.155 467.798C140.712 465.732 134.122 469.962 133.188 476.601C131.958 485.307 131.122 494.061 129.45 502.717C129.155 504.291 125.663 506.357 123.843 506.209C122.023 506.062 119.81 503.652 118.925 501.684C117.941 499.52 117.794 496.668 118.138 494.258C118.826 489.291 120.351 484.421 121.089 479.405C121.826 474.487 122.171 469.47 122.318 464.453C122.417 460.224 115.728 454.223 112.088 455.109C108.055 456.092 105.547 459.289 104.76 462.978C102.006 475.421 101.022 488.012 102.596 500.701C103.236 505.963 106.039 510.242 110.121 513.39C120.351 521.259 132.45 525.145 144.598 528.883C162.844 534.489 180.205 541.571 195.058 554.457C202.534 560.949 212.124 565.327 221.223 569.655C232.633 575.065 244.535 579.491 256.29 584.213C258.601 585.147 261.208 585.245 263.667 585.885C267.897 587.016 274.536 582.492 275.028 578.114C275.618 573.098 276.159 568.081 275.815 571.278L275.717 571.376ZM505.249 568.474C505.544 573.639 506.183 587.459 507.117 601.328C507.413 605.706 514.839 609.345 519.069 607.23C529.151 602.066 539.332 597 549.168 591.393C556.25 587.409 559.693 580.868 559.89 572.606C560.234 560.015 559.644 547.227 561.463 534.833C564.414 514.914 569.48 495.34 572.677 475.47C574.251 465.634 573.71 455.404 573.808 445.371C573.808 440.649 567.267 436.419 562.988 438.091C557.135 440.403 551.332 442.862 545.529 445.42C517.937 457.469 514.2 453.436 513.314 488.504C513.167 493.52 513.462 498.93 511.79 503.504C505.15 521.849 506.921 540.981 505.249 568.524V568.474ZM635.876 421.91C635.876 422.402 635.63 418.615 635.335 414.828C635.089 411.779 629.63 409.074 626.285 410.5C619.302 413.5 612.367 416.599 605.481 419.796C598.202 423.14 593.481 428.501 591.022 436.321C582.71 463.027 579.169 490.668 575.923 518.259C574.005 534.588 573.415 551.015 568.742 566.95C567.611 570.884 571.497 575.311 574.693 574.474C588.415 570.835 600.317 563.753 611.334 555.048C616.498 550.966 619.203 545.359 620.482 538.916C627.613 502.914 630.171 466.224 635.925 430.026C636.122 428.796 635.925 427.517 635.925 421.96L635.876 421.91ZM666.959 108.913C667.155 110.487 666.713 106.7 666.27 102.962C665.434 95.3386 656.335 90.4695 648.958 93.5188C640.302 97.0599 634.203 103.208 630.072 111.372C622.006 127.307 616.596 144.078 613.498 161.686C609.121 186.572 604.399 211.409 599.874 236.246C598.645 242.984 601.989 249.231 608.334 251.198C614.334 253.067 620.482 254.542 626.679 255.723C630.957 256.51 634.105 253.608 635.925 250.362C638.335 245.985 641.089 241.214 641.482 236.394C642.859 219.77 648.761 204.425 653.04 188.589C658.647 167.883 662.532 146.734 666.86 125.684C667.598 122.045 666.959 118.11 666.959 108.962V108.913ZM499.199 513.095C499.199 504.291 499.199 495.438 499.199 486.635C499.199 481.569 499.839 475.224 495.511 472.667C490.642 469.814 486.461 474.683 482.822 478.175C478.297 482.552 473.28 486.536 469.297 491.356C466.198 495.143 462.657 499.865 462.362 504.34C461.034 523.276 452.673 540.981 453.312 560.212C453.755 572.852 452.231 585.245 448.493 597.541C444.411 611.017 445.197 624.936 447.165 638.805C447.804 643.133 454.739 646.429 459.116 644.117C465.755 640.576 472.592 637.231 478.789 633.002C486.412 627.788 490.937 620.362 491.33 610.82C491.871 598.23 490.494 585.147 493.543 573.147C498.609 553.129 497.724 533.112 499.199 512.997V513.095ZM445.837 538.375C445.247 527.505 445.345 519.833 444.263 512.357C443.279 505.619 438.607 501.242 432.312 498.684C426.263 496.225 418.098 500.061 417.164 505.767C416.721 508.275 415.934 510.783 415.885 513.292C415.541 531.145 414.115 548.801 409.098 566.114C407.377 572.114 407.475 578.704 407.377 585.049C407.082 600.345 405.95 615.394 402.508 630.444C399.999 641.461 400.343 653.167 399.753 664.577C399.655 666.938 400.983 669.397 401.721 671.807C402.606 674.659 404.819 676.528 407.623 675.496C431.377 666.544 436.836 659.511 437.279 637.576C437.476 626.116 437.181 614.657 437.673 603.197C438.066 594.344 439.05 585.491 440.23 576.688C442.05 562.867 444.263 549.096 445.886 538.375H445.837ZM623.482 383.401C625.351 383.401 626.924 383.892 627.859 383.351C645.958 372.679 657.663 356.793 664.5 337.218C667.008 330.037 667.155 322.365 665.139 314.889C664.942 314.152 663.614 313.07 663.024 313.217C661.991 313.414 660.958 314.299 660.319 315.184C659.532 316.168 659.385 317.594 658.598 318.529C655.352 322.365 652.253 322.218 650.63 318.135C647.335 309.971 644.483 301.659 640.941 293.593C634.646 279.232 621.859 272.691 607.35 275.937C604.891 276.478 602.432 277.117 600.022 277.855C595.202 279.281 590.383 280.806 585.612 282.38C578.874 284.593 575.972 292.019 580.202 297.134C589.891 308.741 599.432 320.398 605.58 334.464C608.58 341.399 612.367 348.038 614.924 355.121C618.268 364.465 620.777 374.154 623.58 383.499L623.482 383.401ZM312.8 446.944C309.996 448.371 306.8 448.912 305.914 450.633C303.701 455.01 301.537 459.83 301.045 464.65C299.619 478.47 299.471 492.34 295.684 505.963C292.537 517.324 295.34 522.981 304.931 527.948C312.751 532.03 320.866 535.571 329.03 538.965C334.784 541.375 342.752 536.801 343.637 530.8C345.801 515.8 346.932 500.652 351.555 486.094C352.637 482.7 351.85 478.569 351.26 474.88C350.867 472.519 349.785 469.421 348.014 468.29C336.309 460.863 324.308 453.879 312.8 446.944ZM238.732 465.88C238.732 470.847 238.683 474.634 238.732 478.421C238.879 486.635 242.273 492.979 249.503 497.16C252.798 499.078 255.995 501.094 259.437 502.766C273.897 509.849 282.897 512.062 284.963 491.405C285.848 482.7 289.438 474.241 290.52 465.486C291.602 456.781 291.553 447.879 290.914 439.124C290.668 435.829 288.061 431.894 285.356 429.78C277.143 423.386 267.651 419.648 257.077 421.665C253.683 422.304 249.503 424.37 247.781 427.124C244.486 432.337 241.781 438.337 240.551 444.387C239.027 451.764 239.224 459.486 238.781 465.929L238.732 465.88ZM211.584 286.954C209.174 267.969 202.78 254.1 195.452 240.673C186.747 224.689 174.599 211.95 158.024 203.737C152.024 200.786 145.778 199.556 139.63 202.015C134.368 204.13 127.433 203.491 124.138 210.524C142.68 216.426 153.401 229.951 160.926 246.919C166.139 258.674 170.369 270.477 170.025 283.609C169.926 287.347 170.517 291.282 171.844 294.724C172.533 296.495 175.976 298.856 177.402 298.413C188.222 295.167 198.845 291.282 211.584 286.855V286.954ZM117.892 307.315C118.285 311.938 118.531 314.447 118.679 316.955C118.876 320.25 123.892 322.857 127.433 321.086C136.384 316.611 145.581 312.479 154.041 307.118C159.549 303.626 162.205 297.233 161.369 290.642C159.205 272.986 154.385 256.411 142.581 242.247C129.696 226.803 112.974 219.77 93.7436 217.36C92.8583 217.262 91.4811 218.639 90.8909 219.623C90.3499 220.557 90.0548 222.672 90.5466 223.066C103.481 233.197 115.531 243.476 119.023 261.133C120.99 271.117 123.449 280.56 120.499 290.741C118.777 296.692 118.531 303.085 117.941 307.266L117.892 307.315ZM297.553 546.687C291.111 549.883 288.258 555.638 287.373 561.884C286.143 570.589 285.897 579.442 285.75 588.197C285.651 594.935 288.799 600.689 294.848 603.64C305.914 609.05 316.833 620.805 329.325 614.903C342.948 608.509 336.948 592.721 338.178 580.77C338.571 577.081 337.932 573.196 337.44 569.458C336.751 564.196 334.046 560.163 329.374 557.458C319.439 551.703 308.816 547.916 297.553 546.588V546.687ZM230.666 437.895C230.666 430.911 230.568 429.632 230.666 428.353C231.502 416.697 226.092 408.975 215.616 404.5C212.125 403.024 208.534 401.696 204.944 400.418C201.845 399.336 196.239 401.991 195.402 404.844C192.599 414.582 189.501 424.271 187.189 434.157C186.058 439.026 186.009 444.239 186.009 449.305C186.058 458.846 189.894 466.421 198.501 471.339C215.715 481.175 221.518 480.142 225.797 462.191C228.158 452.354 229.732 442.321 230.568 437.895H230.666ZM139.286 425.894C139.237 424.665 139.04 431.009 140.073 437.108C140.663 440.6 142.434 444.682 145.089 446.895C150.844 451.715 157.533 455.305 165.402 455.896C169.582 456.191 175.828 451.813 176.468 447.535C178.435 433.911 180.402 420.287 182.271 406.615C183.107 400.467 179.222 393.581 173.418 391.614C149.909 383.548 140.417 379.515 139.286 414.631C139.286 415.91 139.286 417.14 139.286 425.943V425.894ZM109.138 403.024C109.58 410.008 109.777 417.582 110.711 425.009C110.957 427.075 113.269 429.042 114.941 430.763C116.613 432.534 123.253 430.862 125.023 428.157C127.04 425.009 130.187 421.714 130.286 418.418C130.679 405.926 130.138 393.385 129.548 380.892C129.45 378.679 127.384 376.515 126.105 374.4C124.482 371.547 118.728 369.383 116.318 371.056C114.4 372.384 111.793 374.253 111.547 376.171C110.367 384.876 109.875 393.68 109.088 403.024H109.138ZM589.202 219.033C588.956 216.868 587.432 214.803 586.497 212.688C585.464 214.803 583.891 216.77 583.497 218.983C582.858 222.525 582.661 228.23 586.202 228.328C589.546 228.426 589.645 222.574 589.202 219.033Z" fill="black"/>
<path d="M475.396 37.2539C475.347 39.713 476.035 42.4181 475.101 44.533C466.986 63.5174 458.723 82.4526 450.215 101.289C449.329 103.257 446.674 104.437 444.805 106.011L445.346 106.454C445.936 84.7151 453.461 65.0913 464.576 46.8446C466.937 42.9591 472.101 40.7459 475.937 37.7458L475.396 37.2539Z" fill="black"/>
<path d="M356.177 198.966C361.046 214.114 361.686 227.885 359.669 241.607C359.177 244.804 357.112 245.935 354.013 244.656C352.931 244.214 351.751 243.328 351.259 242.345C350.177 240.181 349.341 237.82 348.751 235.459C348.456 234.279 348.603 232.902 348.898 231.672C351.308 220.754 353.767 209.835 356.226 198.966H356.177Z" fill="black"/>
<path d="M444.854 105.962C444.657 108.126 444.608 110.339 444.214 112.503C444.017 113.487 443.181 115.208 442.64 115.208C439.886 115.159 438.903 113.241 440.624 110.733C441.804 109.011 443.772 107.831 445.395 106.405L444.854 105.962Z" fill="black"/>
<path d="M238.535 175.358C243.306 176.686 248.863 176.883 252.749 179.49C272.766 192.966 283.586 212.442 287.078 236.099C287.225 237.033 286.291 238.46 285.455 239.197C283.389 240.919 280.537 240.722 279.553 238.115C271.733 217.705 259.683 200.196 244.535 184.605C242.027 181.998 240.847 178.113 239.076 174.817L238.584 175.358H238.535Z" fill="black"/>
</svg>
