<svg width="308" height="485" viewBox="0 0 308 485" fill="none" xmlns="http://www.w3.org/2000/svg">
<path d="M147.644 31.8702C201.449 28.329 250.385 8.70531 303.649 0C305.321 6.68882 307.977 12.4922 307.928 18.2465C307.731 41.1164 307.043 64.0352 305.813 86.8559C302.174 155.416 297.698 223.977 294.501 292.538C292.534 334.49 292.386 376.492 291.206 418.445C290.911 428.429 291.452 439.003 279.993 447.462C275.665 443.626 269.959 440.478 267.304 435.708C264.402 430.396 264.057 423.609 262.926 417.363C259.877 400.378 249.041 385.034 230.417 371.328C208.039 378.951 184.235 387.017 161.267 394.886C153.251 411.215 155.71 426.609 155.611 441.659C155.513 453.069 156.005 464.529 155.365 475.939C155.169 479.038 151.824 484.3 149.759 484.349C145.332 484.497 138.053 483.119 136.824 480.316C129.84 463.742 114.544 456.315 101.806 446.085C81.1007 429.412 60.1985 412.986 37.9191 395.329C29.0171 405.411 21.4431 414.067 10.5247 426.412C2.01623 396.608 8.85265 371.426 7.27883 346.786C5.75419 322.687 5.70506 298.488 4.57388 274.389C3.39352 249.109 1.623 223.829 0 196.287C5.1641 186.893 17.361 186.451 28.0827 183.303C58.5755 174.352 89.019 165.253 119.61 156.597C132.742 152.859 137.906 144.203 137.906 131.219C137.906 110.857 137.906 90.4959 138.447 70.1343C138.742 57.642 136.676 44.4117 147.644 31.8702ZM44.7554 234.699C40.9684 246.011 36.0009 254.076 36.0009 262.093C36.0501 291.308 37.2796 320.522 39.0501 349.688C41.0666 382.296 65.1167 398.87 96.6915 390.312C104.069 388.296 111.299 385.935 118.577 383.673C129.643 380.23 135.398 372.262 135.939 361.147C136.676 344.671 136.086 328.096 137.021 311.62C138.103 292.783 129.889 280.144 113.61 271.635C92.3143 260.52 71.2153 248.913 44.7554 234.748V234.699ZM265.976 364.295C270.353 330.211 270.992 301.39 269.074 272.52C268.779 268.093 265.238 263.913 262.139 257.372C244.09 260.962 226.778 263.372 210.007 267.946C184.875 274.832 178.973 299.817 198.203 316.736C214.285 330.851 231.106 344.13 247.975 357.311C251.516 360.065 256.68 360.803 265.976 364.295ZM35.6569 200.566C61.5757 230.321 100.282 252.601 135.152 259.389C145.48 245.814 138.004 230.469 138.25 216.058C138.496 201.353 137.021 186.598 136.037 166.138C101.856 177.45 69.3957 184.582 35.6569 200.566ZM220.728 126.202C240.352 98.463 255.057 71.8061 265.14 38.362C232.778 41.4113 206.269 49.6251 180.891 62.0683C190.235 91.9713 197.121 103.234 220.728 126.251V126.202ZM171.743 258.257C209.22 254.421 238.68 251.028 266.172 232.437C255.549 204.944 233.811 198.009 210.105 192.746C191.908 210.55 183.694 231.305 171.743 258.257ZM277.14 75.1504C272.566 77.0685 269.271 77.3637 268.385 78.9376C256.188 100.922 244.336 123.104 231.696 146.613C241.827 161.269 250.68 174.942 260.516 187.779C262.73 190.68 268.533 190.877 274.041 192.795C283.337 152.17 284.812 114.201 277.14 75.1504ZM203.17 158.367C203.466 150.302 205.236 145.088 203.564 141.547C194.121 121.48 184.235 112.037 164.317 102.889V138.645C170.612 140.514 176.809 141.498 182.12 144.203C188.416 147.4 193.973 152.072 203.17 158.367ZM158.857 373.443C176.317 368.77 188.514 366.213 200.17 361.983C203.564 360.754 207.744 354.016 207.006 351.016C206.023 347.327 200.072 342.163 196.629 342.409C189.35 342.9 182.17 348.556 175.186 348.163C169.235 347.818 163.628 341.868 156.595 337.638C157.284 348.114 157.874 357.901 158.907 373.443H158.857ZM167.366 212.468C169.53 211.681 172.628 211.485 173.71 209.96C177.792 203.812 181.874 197.517 184.825 190.779C190.53 177.942 186.744 173.467 167.218 168.499C162.923 184.271 162.972 198.927 167.366 212.468ZM103.134 408.657C111.544 431.97 119.61 439.495 130.775 432.265C129.84 425.183 128.807 417.068 127.578 407.625C118.184 408.018 110.954 408.362 103.085 408.707L103.134 408.657ZM163.726 300.505C165.153 296.374 166.628 293.325 167.022 290.177C167.12 289.341 163.972 288.062 162.3 286.98C161.218 289.193 159.349 291.357 159.3 293.57C159.3 295.39 161.513 297.21 163.726 300.505Z" fill="black"/>
</svg>
