<svg width="405" height="646" viewBox="0 0 405 646" fill="none" xmlns="http://www.w3.org/2000/svg">
<path d="M174.996 602.593C174.996 598.757 174.947 594.97 174.996 591.134C175.291 573.576 173.471 565.51 151.93 564.575C144.061 564.231 137.077 561.673 130.093 558.575C111.551 550.263 92.9113 542.148 74.2713 534.033C66.6973 530.738 61.976 533.197 60.894 541.115C60.0087 547.41 59.4679 553.755 58.5826 560.001C57.8941 564.674 53.7625 568.018 50.9099 566.542C47.1721 564.624 45.3034 561.083 45.5493 557.444C46.0903 549.968 47.7133 542.591 48.5985 535.115C48.6969 534.377 47.0247 532.852 46.0902 532.754C45.0574 532.656 43.1392 533.59 42.8933 534.475C41.1719 540.476 39.5984 546.574 38.3197 552.673C36.9918 558.87 36.7459 565.362 34.631 571.215C33.4999 574.264 29.8111 577.313 26.5651 578.543C17.2206 582.133 4.63012 575.936 1.48248 566.788C0.695571 564.428 -0.533977 561.427 0.252934 559.46C7.77777 540.181 5.61347 519.229 11.0235 499.556C12.6957 493.506 12.9905 487.014 13.2364 480.67C14.1217 459.079 14.3678 437.488 20.2205 416.388C22.1878 409.208 21.5974 401.24 21.8925 393.617C22.4827 377.091 22.7291 360.714 26.7128 344.385C29.0736 334.647 28.9258 324.171 28.9258 314.039C28.975 253.004 28.8272 191.968 28.6796 130.884C28.6304 105.456 28.3357 80.029 28.4341 54.6016C28.4341 46.4865 32.1715 40.0928 39.1062 35.568C63.9922 19.1902 91.6816 10.5341 120.896 6.20603C133.437 4.33709 146.126 3.15671 158.668 1.2386C176.717 -1.51563 194.177 0.254945 211.047 7.23886C216.112 9.35371 219.358 13.2391 219.85 18.6492C220.538 26.2233 220.834 33.8466 220.932 41.4699C221.276 69.4548 221.522 97.4396 221.817 125.424C221.866 130.49 221.276 135.753 222.26 140.671C228.014 169.541 227.768 198.756 228.112 227.97C228.112 230.478 228.604 233.085 229.342 235.495C230.916 240.512 233.818 244.889 238.736 246.807C248.179 250.496 257.769 254.037 267.507 256.84C280.934 260.726 294.557 263.873 308.132 267.267C339.264 274.988 367.936 288.612 395.724 304.252C402.708 308.187 406.151 315.318 403.545 323.778C398.233 341.041 399.019 359.091 395.626 376.403C390.019 405.175 391.052 434.684 384.019 463.21C382.199 470.538 382.003 478.358 382.052 485.932C382.15 509.048 375.756 531.131 372.412 553.755C371.674 558.722 364.396 561.132 360.412 557.935C356.477 554.739 352.248 551.788 348.854 548.05C346.444 545.394 345.165 541.656 343.542 538.312C343.001 537.23 343.001 535.853 342.804 534.574C340.788 520.95 346.149 506.54 338.476 493.506C326.033 487.309 313.64 481.014 301.147 474.915C296.574 472.702 291.951 470.341 287.032 469.21C282.212 468.079 276.606 466.997 272.081 468.325C256.293 473.046 240.752 478.653 225.26 484.408C220.293 486.227 217.341 490.949 216.161 495.966C215.03 500.884 214.784 505.999 214.44 511.065C213.161 528.77 212.128 546.378 208.391 563.985C205.243 578.69 206.915 594.38 206.079 609.577C205.587 618.381 204.849 627.283 203.226 635.939C202.243 641.152 197.767 644.349 192.554 645.48C186.997 646.71 178.685 641.89 177.308 636.529C176.029 631.66 174.996 626.643 174.652 621.676C174.209 615.331 174.553 608.987 174.553 602.593H175.143H174.996ZM211.391 150.016H211.145C211.145 141.114 212.915 131.769 210.8 123.408C204.849 99.5544 206.226 75.4058 205.734 51.3064C205.587 43.7323 204.948 36.0598 203.522 28.6333C202.538 23.5183 198.407 20.0755 193.292 18.3049C184.587 15.354 175.734 15.7966 166.881 16.9278C151.782 18.8459 136.634 20.6657 121.584 22.9773C100.141 26.2233 79.1405 31.3383 59.6645 41.2732C51.2052 45.6012 45.746 52.29 45.5 62.2741C44.959 82.6357 44.1228 102.997 44.1228 123.31C44.1228 169.099 44.7623 214.937 44.8607 260.726C44.8607 274.693 45.4999 289.005 42.844 302.58C39.1062 321.466 38.516 340.45 37.3357 359.435C36.8439 367.058 36.9914 374.927 34.8766 382.108C30.4502 397.06 30.0568 412.159 30.0076 427.454C30.0076 435.078 30.9914 443.144 28.8765 450.275C21.2042 475.997 24.8434 503.54 15.7448 529.016C14.1218 533.492 15.253 539.099 15.794 544.115C16.0399 546.279 17.7616 548.443 19.2371 550.263C20.6142 551.935 26.6141 546.82 27.0076 543.23C27.9912 534.426 28.8274 525.573 29.5159 516.77C30.352 506.687 30.3027 496.457 31.8766 486.473C36.8931 453.865 43.1882 421.454 44.5653 388.403C44.9095 379.551 45.8934 370.648 47.8115 362.042C51.5985 345.27 58.2875 341.68 75.2061 346.156C78.8456 347.139 82.5342 348.123 86.2228 348.861C87.3048 349.057 88.7309 348.615 89.7145 348.025C91.9769 346.598 91.7312 344.434 88.7311 342.713C78.8948 337.057 68.8124 331.696 59.1235 325.794C58.1399 325.204 58.7301 321.466 59.1728 319.253C59.3695 318.318 61.0906 316.941 61.9759 317.089C66.8941 317.777 72.3531 317.728 76.5335 319.941C98.026 331.302 121.142 338.532 143.864 346.598C167.815 355.107 192.013 363.025 214.047 376.059C218.67 378.813 223.834 378.714 228.752 376.895C266.966 362.828 305.132 348.762 343.247 334.548C352.74 331.007 362.084 326.974 371.281 322.696C373.199 321.81 374.33 318.859 375.314 316.646C375.56 316.105 374.134 314.384 373.15 313.695C357.117 303.121 339.952 295.202 321.41 289.94C290.819 281.284 260.425 271.988 230.031 262.742C219.358 259.496 212.424 252.61 212.178 240.807C211.883 226.79 209.866 213.068 208.194 199.198C206.571 185.673 210.161 171.558 211.391 157.639C211.636 155.131 211.391 152.573 211.391 150.016ZM66.9925 475.014C67.4352 475.063 67.8287 475.112 68.2713 475.161C68.2713 482.735 68.0255 490.31 68.3698 497.884C68.6157 503.146 71.3208 507.425 75.8455 510.327C90.3542 519.721 104.617 525.131 121.584 514.458C131.076 508.507 142.536 505.753 153.012 501.326C159.995 498.375 166.832 495.08 173.57 491.637C179.324 488.687 180.603 478.555 175.045 476.047C162.75 470.489 158.57 461.144 159.504 448.603C160.34 437.291 160.389 425.782 162.75 414.765C165.996 399.469 161.324 393.715 148.241 389.19C137.519 385.452 127.339 380.141 116.617 376.354C107.125 372.96 97.2888 370.599 87.5508 367.894C85.1901 367.255 78.9436 371.288 78.5501 373.649C77.5173 379.846 76.3865 385.993 75.7963 392.24C74.6159 404.83 74.1241 417.47 72.747 430.012C71.124 445.062 68.9106 460.013 66.9433 475.014H66.9925ZM350.526 416.782C350.526 407.929 350.526 399.125 350.526 390.272C350.477 381.911 346.1 378.272 339.116 380.387C327.066 384.026 314.968 387.321 302.967 391.059C277.786 398.978 252.605 406.994 227.572 415.306C225.752 415.896 224.178 418.995 223.637 421.159C222.702 424.897 223.194 429.028 226.834 431.143C231.113 433.651 235.736 435.717 240.457 437.291C267.901 446.488 295.443 455.488 322.935 464.489C326.526 465.669 330.165 466.653 333.804 467.587C339.805 469.161 346.985 464.538 347.576 458.095C348.805 444.324 349.543 430.504 350.526 416.733V416.782ZM181.439 530C181.193 524.983 181.046 521.245 180.898 517.458C180.652 511.36 176.57 508.212 170.963 509.491C156.11 512.884 142.29 518.786 129.699 527.393C127.191 529.115 127.191 532.164 130.093 533.59C143.618 540.279 157.291 546.624 170.914 553.017C173.373 554.148 179.324 550.361 179.619 547.558C180.308 541.312 180.898 535.066 181.439 530ZM358.739 481.309C358.739 497.244 358.592 504.818 358.887 512.393C358.936 513.72 361.15 514.95 362.33 516.229C362.92 515.147 363.904 514.114 364.002 512.983C365.33 501.72 365.772 490.26 367.936 479.194C374.084 448.258 374.183 416.585 379.789 385.6C380.478 381.911 380.183 378.026 380.232 374.288C380.232 373.058 380.379 371.534 379.74 370.599C378.56 368.829 376.838 366.025 375.363 366.074C373.297 366.074 369.855 368.042 369.51 369.665C367.986 376.993 366.953 384.42 366.461 391.895C365.232 409.503 364.74 427.159 363.215 444.717C361.887 459.718 359.527 474.67 358.641 481.358L358.739 481.309ZM203.964 461.341C203.964 451.259 204.013 441.176 203.866 431.094C203.866 430.012 202.636 428.93 201.997 427.848C201.308 428.684 200.03 429.471 199.981 430.356C199.243 444.176 199.144 458.046 197.816 471.768C196.39 486.768 193.783 501.622 191.718 516.573C191.57 517.803 191.718 519.13 191.964 520.36C192.161 521.59 192.357 523.065 193.095 523.852C194.472 525.278 195.997 524.147 197.325 521.049C205.538 501.818 203.571 481.408 203.915 461.341H203.964ZM341.231 352.008C322.738 359.041 302.918 366.517 283.098 374.14C282.114 374.534 281.573 376.059 280.835 377.091C283.049 377.927 285.655 379.993 287.426 379.452C306.459 373.403 325.394 367.009 344.28 360.615C348.706 359.091 352.002 354.32 349.788 353.533C347.575 352.746 345.165 352.697 341.182 352.008H341.231ZM59.6645 446.931C59.1235 435.815 59.0743 430.799 58.4841 425.88C58.2874 424.356 56.6641 423.028 55.6804 421.602C55.1886 422.733 54.3529 423.815 54.2546 424.946C52.7299 441.029 52.1889 457.21 47.5167 472.948C45.7953 478.653 46.9752 485.244 47.0244 491.441C47.0244 492.523 48.2539 493.556 48.8933 494.638C49.7294 493.801 51.1562 493.113 51.3038 492.129C54.6973 475.112 61.1891 458.587 59.6645 446.881V446.931ZM138.405 359.091C133.88 360.123 131.569 360.664 129.257 361.205C130.241 362.927 130.831 365.681 132.306 366.271C149.717 373.354 167.176 380.239 184.783 386.78C186.16 387.321 188.619 385.059 190.537 384.124C189.8 383.092 189.308 381.567 188.324 381.124C171.16 373.452 153.946 365.927 138.405 359.091ZM183.062 432.422C184.242 425.044 185.521 418.897 185.963 412.7C186.062 411.618 182.963 409.995 181.094 409.158C180.455 408.863 178.537 409.994 178.193 410.831C174.012 421.7 175.291 433.061 175.635 444.324C175.684 445.898 177.898 447.422 179.078 448.996C179.865 448.062 181.193 447.226 181.34 446.193C182.127 441.225 182.619 436.209 183.012 432.471L183.062 432.422Z" fill="black"/>
<path d="M197.964 178.935C197.964 189.067 197.964 199.248 197.964 209.379C197.964 218.281 197.964 227.183 201.899 235.495C204.997 241.987 202.538 247.791 199.833 253.545C197.029 259.496 193.095 264.562 186.111 265.349C164.471 267.857 144.306 275.825 123.896 282.464C106.879 288.022 89.2719 290.137 72.009 294.121C67.7794 295.104 61.7299 290.137 61.4348 285.268C60.5003 270.12 59.4185 254.922 59.1726 239.774C58.8284 219.511 59.4678 199.248 53.7627 179.378C52.0414 173.378 52.2376 166.836 51.9917 160.492C51.3031 144.311 56.4673 136.343 71.1727 131.966C83.3207 128.326 95.4684 124.293 107.911 122.326C130.388 118.785 152.421 111.604 175.586 113.473C179.324 113.768 183.062 114.309 186.799 114.9C191.078 115.539 193.587 118.932 194.767 122.277C196.439 126.949 197.325 132.113 197.423 137.13C197.767 151.098 197.521 165.016 197.521 178.984H197.915L197.964 178.935ZM181.636 191.182C181.636 181.05 181.734 170.918 181.636 160.787C181.537 154.491 181.144 148.147 180.652 141.852C180.16 135.802 174.061 130.49 167.717 130.244C165.209 130.146 162.602 129.703 160.143 130.048C138.896 133.048 117.65 136.196 96.4031 139.442C93.944 139.835 91.6327 141.114 89.2719 141.999C71.9599 148.344 67.8779 154.196 68.4681 173.378C68.714 182.23 68.4677 191.378 70.5826 199.838C75.0089 217.298 75.0087 234.954 75.3038 252.66C75.4022 258.906 76.1401 265.25 77.3697 271.349C77.714 272.972 81.3043 275.431 82.9273 275.136C97.731 272.038 112.879 269.628 127.093 264.759C190.439 243.118 180.701 261.709 181.636 191.231V191.182Z" fill="black"/>
</svg>
