<svg width="695" height="824" viewBox="0 0 695 824" fill="none" xmlns="http://www.w3.org/2000/svg">
<path d="M388.647 802.948C378.86 800.587 372.959 794.833 372.959 784.308C372.959 755.044 373.106 725.78 373.253 696.517C373.352 674.877 373.696 653.236 373.549 631.645C373.499 620.579 367.991 613.595 358.007 613.939C321.416 615.267 288.021 603.119 254.38 591.315C227.97 582.069 201.756 572.331 176.624 559.888C158.328 550.838 140.328 541.592 124.835 527.968C119.032 522.903 113.868 525.657 110.868 533.821C107.671 542.33 106.392 551.084 106.638 560.035C107.081 579.413 101.425 597.758 97.3429 616.349C94.0477 631.448 86.9163 645.023 77.5717 657.22C75.3585 660.073 71.6701 661.843 68.5224 663.86C65.6207 665.729 58.8823 664.647 58.243 661.892C55.7347 651.171 48.8 644.531 39.7997 639.022C32.2257 634.399 25.0456 629.088 18.111 623.53C10.832 617.726 9.2086 610.005 13.9792 603.611C16.1924 600.611 18.7505 597.365 19.4882 593.873C27.8983 555.707 31.7343 509.672 29.767 472.589C29.226 462.261 27.2093 452.473 19.0451 444.899C9.0612 435.653 5.6676 423.947 5.47087 410.521C5.32333 400.389 3.11043 390.356 2.07761 380.224C1.14315 371.42 0.208481 362.518 0.0117529 353.666C-0.184975 345.895 2.07758 338.665 7.58596 332.665C16.1928 323.271 24.4551 313.631 33.1111 304.286C40.8818 295.827 49.1444 287.859 59.5217 282.597C68.7679 277.924 76.2929 271.137 82.9816 263.366C85.5391 260.415 86.9654 256.924 84.8505 252.94C79.4897 242.857 71.9648 233.267 69.3581 222.496C65.5219 206.561 58.9811 194.658 43.9315 186.986C35.7181 182.805 32.0294 173.953 30.9474 164.706C27.4063 134.262 27.7505 103.769 30.308 73.276C30.5047 70.7677 31.2918 68.3085 31.7344 65.8002C37.3412 35.4546 56.4235 16.3227 83.7687 4.81395C105.015 -4.13727 133 -1.72734 152.967 21.6344C157.295 26.651 159.459 32.6512 157.836 39.2909C154.148 54.0456 149.918 68.702 146.476 83.506C144.41 92.3588 145.492 101.212 149.328 109.622C156.213 124.721 163.492 139.426 176.329 150.738C184.395 157.821 193.051 162.395 203.871 161.509C219.068 160.28 234.413 159.542 249.364 157.034C281.136 151.673 312.612 151.82 343.941 159.395C369.909 165.641 396.024 171.346 421.648 178.723C454.698 188.265 486.913 200.167 516.717 217.725C519.865 219.594 521.684 225.988 519.323 227.168C517.159 228.25 514.75 229.332 512.389 229.529C509.93 229.775 507.225 229.43 504.864 228.594C492.864 224.463 480.322 221.315 469.06 215.659C443.878 202.921 416.976 195.691 390.074 187.92C349.351 176.117 307.596 174.494 265.791 173.166C254.479 172.821 243.118 175.33 231.757 176.658C230.626 176.805 228.658 178.084 228.708 178.527C229.052 180.592 229.446 183.642 230.872 184.429C258.856 199.823 287.48 213.397 320.186 215.168C323.973 215.364 327.809 216.004 331.449 217.086C374.286 229.824 419.14 231.644 462.519 241.529C475.945 244.579 490.356 243.3 504.323 243.743C514.504 244.087 524.684 243.792 534.865 244.087C547.947 244.48 559.849 243.152 569.292 232.037C573.128 227.512 580.063 225.545 585.621 222.447C616.114 205.479 659.837 220.774 676.608 247.874C681.378 255.596 684.624 263.957 682.706 273.203C679.657 288.105 679.165 303.499 673.46 317.91C670.558 325.287 671.689 332.96 677.591 339.157C679.362 341.026 681.083 342.845 682.952 344.616C695.591 356.862 697.805 372.552 690.526 386.765C680.886 405.553 679.165 425.767 674.984 445.44C670.41 466.982 663.869 487.344 650.541 504.853C640.016 518.673 636.131 534.411 634.655 551.035C633.77 561.166 633.967 571.396 632.983 581.528C631.852 592.889 630.179 604.201 628.261 615.464C623.638 642.465 619.606 642.908 592.162 641.973C583.063 641.678 574.653 639.416 566.735 634.94C560.833 631.596 556.751 627.12 555.866 620.333C554.931 612.808 554.439 605.234 553.357 597.758C552.964 594.955 550.505 593.824 547.456 594.365C544.948 594.807 542.39 595.053 540.079 595.939C517.553 604.545 495.274 613.989 470.634 615.218C465.076 615.513 459.617 622.497 458.83 628.596C458.191 633.612 457.452 638.678 457.256 643.744C456.862 655.154 457.354 666.515 453.026 677.582C450.764 683.336 450.863 690.074 450.42 696.369C449.092 714.124 447.616 731.781 445.059 749.437C442.55 766.946 443.878 784.996 443.239 802.751C443.042 807.768 442.846 813.178 440.878 817.653C439.649 820.506 435.173 823.703 432.173 823.703C419.435 823.555 407.238 819.817 395.533 814.997C390.467 812.932 389.434 807.227 388.205 802.259C395.68 801.571 404.336 802.997 410.337 799.653C418.402 795.128 411.468 785.931 412.107 778.848C412.648 772.602 411.566 765.963 413.091 760.011C417.91 741.42 417.271 722.534 418.206 703.648C419.189 683.533 419.189 663.319 423.96 643.449C425.091 638.727 424.796 633.268 423.517 628.596C422.681 625.546 419.337 622.054 416.337 621.022C411.763 619.448 406.5 619.546 401.533 619.546C396.959 619.546 391.401 624.858 390.86 628.793C390.368 632.53 389.484 636.268 389.434 640.006C389.139 694.254 388.942 748.503 388.746 802.751L388.647 802.948ZM319.301 512.722C319.498 502.59 317.825 492.016 320.186 482.425C326.973 455.031 325.793 426.997 329.039 399.356C329.481 395.667 326.383 392.225 322.399 391.634C319.891 391.241 317.383 390.798 314.874 390.749C304.497 390.503 300.366 393.208 297.317 401.668C292.989 413.668 289.89 425.816 289.792 438.751C289.693 453.949 288.759 469.146 285.316 484.098C283.447 492.262 287.775 499.787 294.955 502.738C303.169 506.131 311.53 509.082 319.842 512.279C321.711 513.951 323.334 516.115 325.547 517.148C346.449 526.837 368.827 530.87 391.402 534.067C395.582 534.657 396.123 533.969 393.074 526.493C390.861 521.083 390.713 516.411 395.73 513.509C405.517 507.804 409.156 499.197 410.386 488.475C411.665 477.212 414.32 466.048 415.697 454.785C417.665 438.456 419.189 422.128 420.517 405.75C420.665 403.881 418.304 400.34 416.632 400.045C402.96 397.586 389.188 395.618 375.466 393.7C367.155 392.569 357.318 398.913 354.81 407.373C353.04 413.373 351.712 419.619 351.121 425.865C348.662 451.145 342.515 475.638 335.924 500.082C333.514 508.935 327.613 512.131 319.35 512.771L319.301 512.722ZM426.96 381.65C445.157 380.667 461.732 382.29 477.962 377.568C488.831 374.421 501.913 378.306 511.012 370.781C521.93 361.731 516.766 346.878 520.209 334.878C521.979 328.779 523.16 322.533 524.488 316.336C525.57 311.369 526.553 306.401 527.488 301.385C528.176 297.696 525.225 293.269 521.881 292.974C515.536 292.433 509.241 291.696 502.897 291.597C466.109 290.81 429.517 290.22 392.778 285.105C343.449 278.269 295.251 268.186 248.774 250.628C230.97 243.89 212.871 237.152 196.445 227.709C178.936 217.627 162.951 204.79 146.82 192.445C127.491 177.69 112.393 158.755 97.2937 139.918C96.7035 139.181 94.7856 138.885 93.7528 139.181C92.9167 139.426 91.9822 140.853 91.8838 141.836C89.3755 164.46 91.7855 187.625 84.5065 209.807C83.4737 213.004 84.6541 217.676 86.3262 220.824C100.245 246.792 117.065 270.547 141.016 288.4C176.87 315.106 215.675 336.747 256.594 354.452C268.152 359.469 280.546 363.207 292.939 365.617C314.088 369.699 335.039 375.355 356.925 374.371C363.171 374.076 369.712 375.207 375.712 376.978C393.123 382.093 410.878 381.798 426.96 381.65ZM450.616 600.562C466.502 598.299 481.946 597.562 496.553 593.676C526.603 585.659 553.653 571.79 570.817 544.297C575.883 536.133 580.801 531.411 591.031 529.985C599.834 528.755 604.949 519.558 609.818 512.082C614.884 504.361 621.18 498.705 630.524 496.491C638.442 494.623 644 489.065 647 481.786C652.312 468.9 656.935 455.768 661.755 442.686C662.148 441.555 661.951 440.128 661.755 438.899C661.509 437.718 661.164 435.85 660.427 435.604C658.41 434.915 655.164 433.882 654.18 434.817C634.262 454.342 614.884 474.458 594.72 493.786C569.588 517.886 539.882 534.559 506.881 545.625C495.815 549.314 484.651 551.084 473.142 549.855C465.617 549.068 457.944 545.969 450.666 546.756C443.485 547.543 436.845 552.363 429.714 554.724C426.222 555.855 422.14 556.199 418.5 555.658C399.713 552.756 380.975 549.56 362.237 546.264C320.678 538.985 282.119 522.165 242.724 508.148C215.232 498.361 188.182 487.294 161.132 476.327C147.017 470.622 132.754 464.965 119.622 457.441C90.9003 441.063 63.5059 422.619 40.2428 398.766C34.9312 393.307 29.3732 388.093 23.8156 382.929C22.9795 382.191 20.9142 381.454 20.4224 381.896C18.8977 383.323 16.5862 385.388 16.783 386.913C17.9633 395.667 20.3242 404.323 21.2587 413.078C22.439 423.996 28.1932 431.669 35.9148 438.8C50.8661 452.572 66.6533 465.211 83.0308 477.36C110.524 497.77 137.328 519.214 166.739 536.919C177.608 543.461 188.723 549.707 200.33 554.773C235.298 570.019 272.037 580.249 308.038 592.594C313.94 594.611 320.481 595.201 326.777 595.594C336.908 596.234 347.089 596.184 357.269 596.381C375.024 596.725 392.779 595.939 410.189 601.054C416.681 602.972 422.435 600.07 427.55 595.643C432.026 591.758 436.698 592.889 441.37 595.84C444.469 597.807 447.961 599.185 450.813 600.562H450.616ZM613.507 321.205C620.195 320.713 625.311 320.762 630.278 319.828C647.688 316.484 660.476 307.237 667.115 290.22C672.673 275.957 669.968 262.776 659.099 251.809C650.787 243.448 641.541 237.25 629.196 236.857C624.13 236.709 619.015 236.021 614.048 235.086C607.457 233.857 601.408 235.087 595.604 237.988C591.08 240.251 586.555 242.661 582.276 245.366C565.751 255.842 547.702 261.252 528.176 260.563C501.569 259.678 474.765 261.94 448.453 255.055C441.174 253.136 433.305 253.628 425.681 252.792C416.829 251.809 407.927 251.268 399.271 249.399C367.007 242.415 335.088 233.562 302.136 230.07C298.399 229.676 294.759 228.201 291.12 227.021C262.152 217.381 233.675 206.61 206.281 192.888C188.871 184.183 173.968 172.871 160.295 159.444C149.18 148.525 140.721 135.935 136.442 120.983C133.295 110.015 131.278 98.7525 128.672 87.6864C127.836 84.0469 126.803 80.4566 125.819 76.8663C124.983 73.9154 118.885 72.4399 115.885 74.6531C113.868 76.1286 111.114 77.6533 110.475 79.6697C104.819 97.3263 105.015 114.835 114.655 131.164C124.393 147.591 134.672 163.772 151.836 173.805C175.591 197.659 204.067 214.036 235.396 225.594C266.381 237.005 296.53 251.071 329.285 256.973C351.761 261.006 374.581 263.268 396.762 268.481C420.616 274.088 444.567 274.728 468.716 274.924C487.798 275.072 506.881 275.515 525.963 275.465C536.341 275.465 546.078 277.777 555.767 281.121C563.489 283.777 569.244 288.007 571.555 296.122C574.654 307.04 582.916 312.795 592.851 316.139C599.982 318.549 607.556 319.779 613.507 321.205ZM119.475 341.714C119.475 341.714 119.278 341.714 119.179 341.714C119.179 329.025 119.672 316.287 118.934 303.647C118.639 298.925 115.983 294.105 113.524 289.827C112.59 288.204 109.146 287.023 107.081 287.318C105.261 287.564 102.31 290.122 102.31 291.696C102.31 297.991 104.72 304.631 103.441 310.483C98.4741 333.009 99.4086 355.977 97.3922 378.699C97.1463 381.159 96.31 383.667 95.4248 386.028C95.0313 387.159 93.9985 388.142 93.0149 388.929C92.1296 389.667 90.9984 390.208 89.8672 390.602C87.113 391.585 84.5555 390.454 84.3096 387.355C82.3423 363.305 82.4899 339.304 86.1786 315.352C86.9655 310.385 87.2606 305.368 87.5066 300.352C87.7525 296.024 80.5719 291.204 76.4406 292.925C72.9487 294.351 69.1614 295.532 66.3089 297.794C53.1773 308.073 43.0955 321.107 33.6034 334.681C21.3571 352.19 20.7174 355.043 35.7671 374.765C39.5541 379.732 44.62 383.864 49.4398 387.897C57.2597 394.389 66.1614 399.7 73.1945 406.93C100.736 435.112 137.082 447.653 171.607 463.441C176.181 465.556 185.821 459.801 186.51 454.588C187.69 445.834 188.723 436.981 189.166 428.177C190.149 407.914 188.575 387.208 192.117 367.387C195.117 350.469 191.231 340.485 176.083 333.894C170.28 331.386 164.624 328.533 158.87 325.976C155.328 324.402 147.951 328.976 147.361 333.353C146.525 339.599 145.64 345.944 145.443 352.239C144.951 367.486 145.098 382.732 144.508 397.93C144.311 403.045 141.557 407.619 137.229 410.766C134.18 413.029 130.984 415.144 127.688 417.013C118.688 422.128 111.655 420.996 103.736 413.324C99.8509 409.586 99.0153 402.258 103.048 400.045C115.885 393.061 120.065 382.191 119.475 368.371C119.131 359.518 119.426 350.616 119.426 341.714H119.475ZM480.519 497.77C480.519 506.082 480.372 512.427 480.519 518.722C480.814 528.559 486.323 532.837 495.028 530.477C530.094 521.034 560.341 502.934 586.457 478.294C606.67 459.162 626.097 439.095 644.737 418.439C654.82 407.274 662.689 394.044 671.001 381.404C674.542 375.994 675.279 369.453 672.083 363.305C671.001 361.19 669.181 359.272 667.263 357.846C665.246 356.321 660.033 359.961 659.049 363.551C657.082 370.879 655.558 378.306 653.246 385.536C650.836 393.061 645.721 398.913 638.885 402.553C632.245 406.094 625.212 409.488 617.982 411.307C605.736 414.357 593.195 416.275 580.703 418.291C577.014 418.882 573.079 418.734 569.391 418.045C549.521 414.406 529.062 412.144 513.52 396.995C512.635 396.159 511.356 395.717 510.274 395.077C506.339 392.766 498.224 395.176 497.241 399.11C495.027 407.668 492.52 416.127 490.897 424.783C486.323 449.621 479.29 474.113 480.421 497.77H480.519ZM534.472 358.879C533.734 366.355 532.898 373.83 532.21 381.306C531.521 388.536 535.111 393.946 541.357 395.323C565.112 400.487 588.965 399.307 612.671 395.225C618.77 394.192 624.77 391.585 630.376 388.88C633.524 387.356 636.868 384.503 638.344 381.404C643.262 371.174 646.95 360.453 646.655 348.796C646.508 344.124 642.18 338.419 637.655 338.124C628.901 337.583 620.097 336.943 611.294 336.993C589.703 337.091 572.047 329.32 558.866 311.959C555.964 308.172 553.997 302.122 548.095 303.008C540.128 304.237 541.013 312.254 539.045 317.762C534.275 330.992 534.078 344.911 534.472 358.879ZM472.06 433.292C473.289 424.587 474.519 415.931 475.699 407.225C476.092 404.176 472.453 399.553 468.912 399.356C462.715 398.963 456.371 398.471 450.272 399.208C443.485 400.045 438.665 404.766 437.387 411.357C435.223 422.423 434.387 433.784 432.567 444.948C429.37 464.769 425.681 484.491 422.583 504.361C421.747 509.623 424.451 514.689 429.025 517.148C435.616 520.64 442.747 523.247 449.878 525.509C456.125 527.526 462.617 522.706 463.109 515.869C465.027 488.229 466.502 460.588 472.109 433.39L472.06 433.292ZM237.167 438.21C235.298 453.408 233.527 464.67 232.839 476.032C232.642 479.228 235.052 483.95 237.708 485.622C244.053 489.557 251.184 492.36 258.168 495.164C262.496 496.885 269.676 492.95 270.365 488.868C271.201 483.901 272.234 478.933 272.529 473.966C273.66 456.359 273.906 438.751 278.43 421.341C280.89 411.799 280.152 401.274 279.808 391.192C279.562 384.306 274.595 379.831 268.25 377.667C264.709 376.437 260.873 375.994 257.135 375.65C252.463 375.207 246.216 378.945 244.692 382.585C240.315 393.208 237.216 404.078 237.118 415.635C237.02 424.488 237.118 433.341 237.118 438.309L237.167 438.21ZM65.7679 549.412H66.7027C66.7027 534.116 66.801 518.87 66.6535 503.574C66.6043 498.508 66.3583 493.393 65.3747 488.426C64.096 481.786 59.7188 477.015 53.6694 474.31C52.0956 473.622 47.866 474.95 47.6201 475.933C46.2922 482.032 45.4068 488.327 45.0625 494.573C44.2756 507.263 44.7674 520.099 43.1444 532.641C40.1935 555.265 36.062 577.79 32.4717 600.316C31.6356 605.628 33.1115 610.644 36.6034 614.48C40.8822 619.104 45.8495 623.087 50.6694 627.12C53.3744 629.383 59.276 627.858 60.3088 624.661C62.2761 618.71 65.2272 612.661 65.4239 606.562C66.0633 587.479 65.6695 568.396 65.6695 549.314L65.7679 549.412ZM76.3914 126.295C76.0471 126.295 75.7523 126.295 75.408 126.246C75.8998 112.425 76.4405 98.605 76.8831 84.7847C76.9815 81.8337 72.9487 78.2434 69.0141 78.1943C64.0467 78.1451 59.0792 78.4402 54.1119 78.8828C49.7347 79.2763 47.1284 82.8666 46.5382 86.3093C42.3086 111.343 43.2425 136.426 47.2263 161.411C48.2591 167.805 52.0464 172.969 57.358 176.756C59.3745 178.182 61.7351 179.117 64.0467 180.051C66.6533 181.133 72.7522 177.789 72.9489 175.084C74.1785 158.854 75.2602 142.574 76.3914 126.295ZM91.3429 56.308C105.311 61.3738 117.213 56.5539 128.819 51.8816C140.377 47.2584 141.656 32.1102 131.82 24.3886C125.524 19.4703 118.737 17.1588 110.868 17.503C104.376 17.7981 97.2935 19.2244 94.6377 25.2247C89.7687 36.2907 80.7688 38.5531 70.4898 40.2253C66.9979 40.7663 63.5547 43.0287 60.7513 45.3403C59.2266 46.619 58.1448 49.7175 58.4891 51.734C58.8826 53.8489 60.8006 56.6523 62.7187 57.3901C66.1122 58.718 70.0959 59.3573 73.7354 59.0623C79.9323 58.6196 86.0805 57.1933 91.3921 56.3572L91.3429 56.308ZM617.638 570.167C617.638 562.986 617.884 555.461 617.491 547.936C617.392 545.723 615.72 543.412 614.442 541.395C613.261 539.575 607.457 541.346 604.31 544.444C600.769 547.986 596.933 551.379 593.982 555.412C591.867 558.314 589.162 562.445 589.752 565.396C592.408 578.282 586.211 590.283 586.998 602.775C587.293 607.644 588.375 612.857 590.736 617.038C592.309 619.792 596.49 621.71 599.883 622.645C603.769 623.776 607.408 621.317 609.326 618.022C611.786 613.743 614.491 609.07 615.081 604.349C616.556 593.135 616.852 581.823 617.638 570.118V570.167ZM91.3429 545.576C90.7527 535.542 89.9653 521.673 89.0309 507.804C88.9817 506.918 87.4079 506.131 86.5718 505.295C85.7357 506.23 84.2111 507.164 84.1619 508.148C81.8504 534.756 81.7523 561.412 83.8179 588.02C83.9163 589.25 84.211 590.529 84.7029 591.709C85.1455 592.742 85.9324 593.578 86.5226 594.561C87.2111 593.479 88.3915 592.447 88.4407 591.315C89.4244 577.348 90.2117 563.38 91.3429 545.526V545.576ZM205.592 386.077C205.986 393.897 206.281 401.471 206.822 408.996C206.92 410.078 208.051 411.111 208.691 412.143C209.33 411.061 210.461 409.98 210.511 408.848C210.855 393.798 211.101 378.699 211.199 363.65C211.199 362.666 209.822 361.633 209.035 360.649C208.346 361.682 207.068 362.666 206.97 363.797C206.33 371.322 205.937 378.847 205.494 386.077H205.592Z" fill="black"/>
</svg>
