<svg width="495" height="490" viewBox="0 0 495 490" fill="none" xmlns="http://www.w3.org/2000/svg">
<path d="M236.495 344.25C204.182 361.858 173.099 379.071 141.82 395.793C111.573 411.974 81.1296 427.91 50.6368 443.599C42.7677 447.632 34.3576 450.583 26.0459 453.78C21.5703 455.501 15.1273 452.255 13.6027 447.927C12.1273 443.796 14.3896 436.615 17.8815 434.303C18.9635 433.615 19.9965 432.877 21.0785 432.238C74.8835 400.859 128.688 369.53 182.444 338.102C186.821 335.545 190.854 332.446 194.986 329.446C199.166 326.397 201.183 319.167 198.773 316.069C195.527 311.839 191.346 309.331 185.789 309.626C184.559 309.675 183.133 309.626 182.1 310.118C161.788 320.495 141.623 331.168 121.213 341.398C107.639 348.185 93.8184 354.529 79.9491 360.825C75.9161 362.644 69.8668 359.005 67.6536 354.234C65.342 349.218 65.6861 344.054 68.6862 339.775C70.7518 336.824 74.0963 334.217 77.3915 332.643C93.4248 324.971 109.803 317.839 125.787 310.118C133.754 306.281 141.427 301.658 148.951 296.986C156.427 292.314 155.984 284.051 148.115 278.493C141.869 274.116 135.574 269.837 129.131 265.706C123.77 262.312 118.164 259.263 112.754 255.968C91.0644 242.688 69.3256 229.508 49.7021 213.13C40.9477 205.802 31.751 198.965 20.4883 195.473C16.9472 194.391 13.5534 192.375 10.4058 190.309C0.520203 183.964 -2.77491 170.931 2.48755 160.062C9.27465 145.995 19.16 142.258 33.6687 147.864C42.669 151.356 48.7185 157.111 50.3907 166.849C51.03 170.587 51.4727 174.423 52.2104 178.161C53.2432 183.374 55.9484 187.702 60.424 190.506C73.3096 198.473 85.4578 207.867 99.3763 213.031C112.754 207.916 117.524 196.113 117.868 185.391C118.704 155.881 123.967 127.503 132.967 99.5672C133.066 73.107 138.82 46.3025 128.049 20.4816C127.557 19.3504 127.754 17.9736 127.557 16.744C126.869 11.3831 131.393 4.10389 136.901 1.44804C142.066 -1.06027 147.131 -0.174904 151.164 3.07114C157.017 7.79266 161.247 15.5634 167.739 18.0717C178.214 22.1539 189.92 23.1867 201.183 25.1048C206.15 25.9409 211.314 26.1378 216.38 26.187C251.987 26.4329 287.595 26.6296 323.203 26.7772C333.924 26.8263 343.318 24.4165 348.63 13.6947C349.712 11.5307 351.778 9.76001 353.646 8.03862C356.942 4.94013 363.581 4.54662 367.86 6.75983C372.778 9.3665 376.27 13.8914 375.828 18.8096C374.696 31.3511 371.745 43.7451 370.27 56.2374C368.499 71.1889 362.647 85.7961 368.303 101.387C369.778 105.469 366.827 111.125 366.09 116.092C363.286 134.929 360.384 153.767 357.778 172.603C355.22 190.949 359.745 207.867 369.335 223.458C370.466 225.278 373.516 225.966 376.86 227.835C395.598 218.884 414.976 209.49 434.55 200.342C444.288 195.768 450.043 188.44 454.469 178.554C460.568 164.832 474.486 161.734 485.503 169.947C495.536 177.423 497.798 193.948 489.29 203.982C486.29 207.523 480.929 211.064 476.65 211.064C461.994 211.064 449.207 215.982 437.108 223.163C406.517 241.311 376.123 259.853 345.777 278.444C341.449 281.1 337.662 284.592 333.728 287.789C329.596 291.133 329.547 298.461 333.728 300.822C344.793 307.068 355.81 313.364 367.171 319.118C379.811 325.512 390.877 333.824 400.861 343.759C407.009 349.857 405.828 357.136 397.861 362.792C391.074 367.563 383.893 369.776 376.762 364.464C353.204 346.906 327.186 333.528 301.12 320.298C292.267 315.774 284.202 316.659 276.087 322.217C269.742 326.545 268.169 333.578 273.923 337.611C296.743 353.693 316.219 374.252 341.548 387.039C348.237 390.433 353.99 395.794 360.089 400.368C385.418 419.549 410.501 438.976 438.387 454.517C444.928 458.157 450.436 463.715 455.994 468.83C460.863 473.305 460.519 480.978 455.847 485.994C452.256 489.831 446.305 490.912 442.075 487.814C418.616 470.502 392.795 456.337 371.844 435.533C353.646 417.483 330.875 405.483 309.776 391.416C291.825 379.465 273.333 368.301 256.119 355.169C250.266 350.693 243.135 347.841 236.692 344.349L236.495 344.25ZM317.399 279.182C314.891 280.411 312.432 281.641 309.924 282.871C310.809 283.067 312.186 283.756 312.58 283.411C314.154 281.985 315.432 280.215 316.809 278.542C318.629 276.674 323.35 280.313 323.35 275.05C321.383 276.428 319.367 277.805 317.399 279.182ZM141.722 378.383C139.607 378.875 137.492 379.268 135.426 380.006C134.984 380.154 134.689 382.121 134.787 382.17C139.066 383.891 140.098 380.744 141.23 377.793C147.918 378.383 153.673 377.006 157.214 370.563C167.837 369.776 176.001 365.497 179.936 355.021C192.87 355.562 204.084 352.808 210.084 339.725C213.33 339.578 217.216 341.004 218.593 336.381C218.593 336.283 216.232 335.053 215.789 335.397C213.871 336.824 212.298 338.693 210.576 340.414C198.674 341.84 188.445 346.513 180.477 355.759C170.641 357.628 161.739 360.874 157.657 371.251C151.165 371.055 145.46 372.678 141.673 378.481L141.722 378.383ZM355.024 233.393C351.679 218.884 349.269 207.769 346.466 196.752C343.22 184.161 337.219 178.554 325.022 179.735C305.792 181.604 286.906 179.489 267.971 177.669C231.38 174.177 194.543 175.112 157.951 171.472C155.542 171.226 152.837 171.915 150.525 172.8C148.213 173.685 145.361 174.964 144.328 176.882C137.147 190.309 130.36 203.932 123.573 217.556C121.754 221.196 125.442 228.524 129.869 229.852C135.918 231.671 142.017 233.54 148.263 234.623C188.592 241.656 229.315 241.852 270.037 240.131C275.054 239.934 279.972 238.606 286.071 237.623C289.169 232.458 292.12 226.901 295.759 221.835C298.661 217.753 302.202 214.015 305.989 210.769C307.366 209.588 310.416 210.179 312.678 210.376C313.17 210.376 314.006 212.54 313.76 213.425C313.071 215.835 311.94 218.097 310.907 220.359C306.874 229.163 309.629 232.557 317.94 232.754C329.154 232.999 340.318 233.147 355.024 233.393ZM277.611 163.652C282.677 163.652 287.792 163.701 292.858 163.652C303.038 163.505 313.17 163.505 323.301 162.964C330.678 162.57 337.859 155.094 337.367 147.619C336.777 138.864 335.498 130.011 333.384 121.503C332.154 116.437 327.383 113.043 322.022 112.797C308.055 112.109 294.087 112.01 280.168 111.666C248.446 110.928 216.527 113.683 185.051 107.879C160.558 103.354 156.083 107.781 156.427 133.011C156.427 135.569 156.722 138.077 156.968 140.586C157.755 149.143 162.919 155.193 171.28 155.586C206.79 157.258 241.709 166.898 277.562 163.652H277.611ZM144.525 115.748C145.705 114.617 147.181 113.929 147.426 112.896C148.017 110.437 148.312 107.879 148.214 105.371C147.918 92.4849 156.083 88.5011 164.64 90.2716C194.739 96.4686 225.282 95.0424 255.725 95.5342C261.922 95.6326 268.119 94.3047 273.234 93.7637C281.546 82.2058 289.809 72.7136 292.317 59.6803C292.71 57.5654 298.268 56.2866 301.563 54.9586C303.776 54.0242 306.333 53.8768 308.546 52.9423C309.481 52.5488 310.612 50.7781 310.415 49.9911C309.874 47.9255 308.743 44.4829 307.563 44.3353C297.481 43.3025 287.3 41.9254 277.267 42.5156C246.725 44.237 216.577 42.6139 186.477 36.8595C179.1 35.4332 171.28 35.9744 163.706 36.1219C154.165 36.3679 147.328 42.5155 145.263 52.2044C144.476 55.9423 143.591 59.6804 143.345 63.4674C142.902 71.0415 142.164 78.7629 142.853 86.2879C143.787 96.026 139.853 106.158 144.426 115.748H144.525ZM220.314 294.478C221.396 293.543 223.265 292.51 223.118 291.92C222.429 288.379 222.331 283.362 220.068 281.739C204.674 270.968 188.74 260.935 172.903 250.754C172.018 250.164 170.247 250.115 169.264 250.607C167.247 251.59 165.329 252.869 163.804 254.443C163.313 254.935 163.805 257.246 164.542 257.935C180.477 272.345 197.887 284.69 217.019 294.428C218.003 294.92 219.429 294.478 220.314 294.478ZM318.924 248.344C303.038 250.017 287.202 253.361 273.529 263.148C272.004 264.23 270.628 268.165 271.365 269.395C273.185 272.296 276.037 275.001 279.087 276.575C280.906 277.51 284.25 276.969 286.316 275.887C298.513 269.493 310.563 262.755 322.563 256.017C323.448 255.525 324.482 253.361 324.187 252.967C322.908 251.394 321.137 250.164 318.973 248.344H318.924ZM355.859 75.4187C355.663 72.9104 355.466 70.4512 355.22 67.9429C354.876 64.5985 349.367 61.9918 346.712 63.9591C337.662 70.5988 328.514 77.0907 324.678 88.4027C323.695 91.3536 324.875 93.813 327.924 94.1573C332.744 94.6983 337.761 95.2883 342.531 94.649C350.007 93.6653 353.745 89.6817 354.974 82.8453C355.417 80.3862 355.515 77.8779 355.81 75.4187H355.859ZM296.596 95.0917C299.842 94.1081 304.514 94.1571 306.53 91.8455C318.236 78.7138 329.4 65.0902 340.613 51.565C341.302 50.7781 341.695 49.0567 341.302 48.1714C340.023 45.4172 337.367 44.5811 335.056 46.6468C321.826 58.303 308.694 70.1562 295.759 82.1567C294.087 83.7306 292.808 86.5338 292.808 88.7962C292.808 90.6652 294.923 92.5342 296.596 95.0917ZM255.676 318.528C262.414 318.725 267.972 316.019 271.955 310.708C272.939 309.38 272.25 306.576 271.808 304.56C271.66 303.97 269.643 303.478 268.512 303.527C261.774 303.773 256.709 307.216 252.824 312.479C252.233 313.315 252.332 315.085 252.824 316.118C253.315 317.151 254.692 317.741 255.725 318.528H255.676ZM352.171 124.257L350.745 126.667L352.909 127.06L352.22 124.257H352.171Z" fill="black"/>
<path d="M285.43 217.703C283.709 220.458 282.037 223.458 280.021 226.163C279.43 226.95 276.971 227.491 276.774 227.196C275.545 225.376 273.381 222.277 274.02 221.441C276.086 218.736 279.086 216.769 281.939 214.752C282.185 214.605 283.709 216.179 285.43 217.703Z" fill="black"/>
</svg>
