<svg width="476" height="638" viewBox="0 0 476 638" fill="none" xmlns="http://www.w3.org/2000/svg">
<path d="M430.145 438.518C409.489 455.732 386.766 447.125 361.782 441.715C367.29 467.585 371.618 488.438 376.192 509.243C382.193 536.539 388.537 563.786 394.242 591.132C395.767 598.46 396.259 606.083 396.259 613.608C396.259 620.002 386.373 624.871 382.193 620.493C376.291 614.198 370.536 607.313 366.651 599.689C363.257 593.05 362.569 585.033 360.7 577.656C359.126 571.508 357.749 565.262 356.028 559.163C353.077 548.49 346.388 541.851 335.322 539.146C323.863 536.342 320.715 547.015 314.715 552.179C303.157 542.933 293.714 532.211 281.861 526.604C259.779 516.128 236.466 511.161 211.974 522.03C189.104 532.162 161.759 531.227 142.382 550.802C139.136 554.097 130.725 552.819 124.725 552.77C108.839 552.524 97.9213 559.409 92.6096 574.409C89.2161 584 86.3142 593.738 83.2649 603.427C80.9534 610.706 78.9863 618.084 76.3796 625.265C73.5271 632.986 68.4613 638.396 59.4118 637.462C52.8214 636.773 48.4935 628.461 50.8542 619.067C55.7724 599.345 61.5265 579.771 66.9857 560.196C73.4286 536.933 80.3633 513.718 86.1668 490.307C88.1833 482.094 87.593 473.192 87.9373 467.684C80.0682 454.109 62.2643 462.323 58.4281 444.814C85.0355 438.764 112.922 453.814 142.332 441.715C130.332 433.354 119.955 436.256 110.512 435.272C101.659 434.387 92.6095 433.305 83.8551 434.288C64.084 436.502 53.6084 428.338 47.1163 409.501C33.4438 369.712 21.1974 329.727 13.8201 288.217C10.0823 267.068 4.72146 246.165 0 224.623C9.83638 211.442 23.9024 206.377 38.4111 197.967C29.1157 226.984 28.2305 227.378 35.411 254.723C46.3786 296.479 58.6741 337.842 70.4778 379.745C90.3472 380.335 93.0523 356.383 111.397 353.187C111.397 367.351 100.331 373.401 94.4785 382.303C88.2816 391.697 81.8879 400.943 76.527 408.812C80.0681 419.239 86.9043 418.846 93.0521 419.387C99.3965 419.928 105.741 419.976 112.135 420.222C209.859 423.96 307.485 431.288 405.406 427.501C415.292 427.108 425.62 426.813 430.194 438.617L430.145 438.518ZM45.5425 349.941C45.6409 352.351 45.3456 354.81 45.985 357.072C46.2801 358.252 48.1982 358.941 49.3785 359.875C49.231 358.695 49.3786 357.367 48.8868 356.383C47.8048 354.269 46.3785 352.351 45.0997 350.334C42.2964 340.596 39.4932 330.809 36.739 321.022C36.0505 317.775 35.4109 314.53 36.247 318.612C34.4273 314.825 35.8045 317.726 37.2307 320.628C40.0341 330.366 42.8376 340.154 45.641 349.941H45.5425ZM166.579 461.044C175.038 470.93 177.301 475.995 181.039 477.52C195.105 483.324 209.613 488.045 224.073 492.963C246.401 500.538 266.763 493.209 286.337 483.52C289.878 481.75 292.583 475.455 292.977 471.028C293.714 463.602 287.96 459.224 281.173 458.88C245.811 457.306 210.449 455.978 166.53 461.044H166.579ZM330.847 466.602C329.617 466.848 327.699 466.7 327.306 467.389C318.65 483.717 320.273 500.193 327.699 516.276C328.634 518.342 333.847 518.44 337.191 519.473C340.273 502.029 338.158 484.406 330.847 466.602ZM203.662 507.423C194.859 495.226 183.498 494.832 172.727 493.406C166.776 492.619 160.923 499.013 162.448 505.554C163.382 509.538 166.923 515.145 170.268 515.932C181.383 518.686 192.055 516.079 203.613 507.374L203.662 507.423ZM128.217 487.16C113.266 496.16 109.332 508.652 109.577 522.325C109.577 524.784 113.905 528.916 116.364 529.014C119.168 529.162 124.332 525.965 124.676 523.653C126.496 511.554 127.184 499.308 128.217 487.11V487.16ZM221.81 439.895C221.318 439.158 220.925 437.781 220.335 437.732C217.974 437.486 215.564 437.584 213.203 437.584C213.794 438.764 214.384 440.977 214.974 440.977C217.237 440.977 219.499 440.289 221.761 439.895H221.81ZM291.649 507.03C291.354 505.948 291.206 503.931 290.813 503.882C288.649 503.636 286.435 503.882 284.222 503.931C284.566 505.702 284.96 507.423 285.304 509.194C287.419 508.456 289.534 507.767 291.649 507.03ZM177.793 440.043L180.252 439.404L178.432 438.223L177.842 440.092L177.793 440.043Z" fill="black"/>
<path d="M372.257 184.884C356.913 138.899 342.256 96.9952 329.174 54.6491C324.502 39.5009 317.125 29.8611 301.091 28.1889C263.32 24.2051 225.548 20.2704 187.776 16.3849C173.267 14.8603 163.431 22.1883 156.693 34.0413C148.529 48.4026 140.562 62.8136 133.184 77.6175C124.135 95.8151 116.167 114.553 107.019 132.652C103.97 138.702 102.298 147.555 91.0354 146.669C91.0354 143.079 89.8549 138.948 91.232 135.997C108.446 99.2086 125.758 62.4201 143.709 25.9759C153.005 7.13899 167.907 -2.3535 190.088 0.49909C235.434 6.25344 280.927 11.1226 326.371 16.5326C331.289 17.1228 336.01 19.1393 342.01 20.8607C342.896 70.3383 361.438 114.701 377.914 159.654C382.487 172.097 388.586 181.737 401.029 188.081C420.21 197.918 438.555 209.328 457.145 220.247C463.588 224.034 469.687 228.362 474.605 231.558C478.244 247.051 473.228 258.904 468.851 270.757C459.998 294.561 451.44 318.514 441.702 341.974C431.964 365.434 423.161 388.943 422.57 414.862C399.603 409.107 391.881 402.124 377.864 375.024C391.094 371.237 394.586 390.615 407.176 387.27C422.128 360.515 454.194 275.626 460.686 245.231C455.67 232.444 442.735 229.001 431.964 222.755C421.046 216.41 410.275 209.869 400.045 203.77C386.422 207.852 386.766 219.46 384.159 228.657C375.405 259.15 367.585 289.938 358.782 320.432C356.716 327.563 352.585 334.301 348.207 340.399C346.88 342.268 341.617 341.334 334.879 341.974C340.634 328.891 345.994 318.12 350.076 306.906C354.404 295.004 357.798 282.708 361.044 270.462C364.29 258.363 366.848 246.117 370.192 231.903C359.798 239.412 348.847 255.822 337.338 281.134C329.076 299.381 320.862 317.677 311.665 338.088C307.436 337.203 299.272 337.891 296.468 334.301C293.567 330.612 293.665 321.612 296.173 316.988C310.977 290.332 327.01 264.413 342.355 238.051C353.126 219.509 363.454 200.672 372.208 185.081L372.257 184.884Z" fill="black"/>
<path d="M79.3792 185.474C72.4937 184.737 66.7394 184.097 60.8867 183.507C61.0834 172.146 69.2477 167.965 76.9693 163.982C85.6253 159.555 94.9205 162.309 100.134 170.572C102.79 174.851 104.757 179.572 106.823 184.196C124.725 224.82 142.676 265.396 160.382 306.119C162.841 311.824 165.005 317.972 165.546 324.071C166.136 330.907 162.201 337.694 155.168 337.596C142.725 337.498 130.036 336.121 117.938 333.367C110.019 331.596 106.823 323.628 105.249 315.808C97.4782 277.249 89.6582 238.739 81.8875 200.18C80.9039 195.36 80.2153 190.491 79.3792 185.474ZM149.316 320.579C131.413 288.315 123.003 254.969 101.609 227.23C104.609 250.985 108.052 274.495 114.003 297.66C115.282 302.529 115.626 308.283 118.528 311.972C122.167 316.693 127.528 320.874 132.987 323.038C136.578 324.464 141.692 321.906 149.266 320.579H149.316Z" fill="black"/>
<path d="M227.859 230.476C228.499 229.542 229.138 228.656 229.778 227.722C231.204 228.902 232.778 229.984 234.007 231.361C234.204 231.558 232.925 233.132 232.335 234.017C230.859 232.837 229.384 231.607 227.909 230.427L227.859 230.476Z" fill="black"/>
<path d="M257.171 345.809C256.827 346.891 256.483 347.973 256.139 349.006C254.86 347.777 253.63 346.596 252.352 345.367C253.237 344.58 254.073 343.842 254.958 343.055C255.696 343.94 256.434 344.875 257.171 345.76V345.809Z" fill="black"/>
<path d="M218.072 410.829L216.646 413.239L215.613 410.632L218.072 410.829Z" fill="black"/>
<path d="M291.894 223.492L291.796 226.001L289.238 224.722L291.894 223.492Z" fill="black"/>
</svg>
