<svg width="988" height="475" viewBox="0 0 988 475" fill="none" xmlns="http://www.w3.org/2000/svg">
<path d="M79.9709 337.813C75.0036 338.945 69.9378 339.584 65.1672 341.256C41.2647 349.617 23.1165 339.928 7.23073 323.059C3.24699 318.829 3.64076 310.173 8.16549 305.697C10.8705 303.041 13.7718 300.484 16.9686 298.467C22.9197 294.68 25.8711 289.32 25.4776 282.582C24.9858 273.729 24.1985 264.827 22.6247 256.121C20.8541 246.137 18.6905 236.104 15.592 226.464C9.29673 206.841 6.68985 187.167 9.19812 166.462C10.7228 153.92 9.34548 141.231 6.54211 128.591C3.24692 113.787 2.01764 98.4915 0.0503599 83.3924C-0.589005 78.6709 4.96858 74.2936 10.5261 75.0806C14.3131 75.6216 18.0512 76.4084 21.789 77.1461C28.7236 78.4741 32.4611 82.8022 34.9202 89.3435C36.9366 94.7535 40.1829 95.688 43.183 93.3765C79.135 65.8343 120.497 50.4401 163.432 37.3575C196.384 27.3243 230.123 21.2256 263.223 12.2744C265.682 11.635 268.141 10.553 270.6 10.4054C297.257 8.97915 323.52 3.27408 350.078 1.74942C380.522 0.02803 411.359 -1.10322 441.655 1.70019C471.803 4.50359 502.395 7.65121 531.461 17.9304C537.461 20.0452 543.609 21.8159 549.806 23.1438C586.348 31.1606 619.644 46.4562 650.186 67.8998C663.711 77.392 676.941 87.4253 690.908 96.1798C715.352 111.476 732.861 132.772 747.025 157.412C750.074 162.724 754.353 167.347 758.288 172.068C758.731 172.609 761.632 172.167 761.829 171.626C763.993 165.822 765.813 159.871 767.829 154.018C771.911 141.969 781.551 137.887 790.649 145.854C799.355 153.527 808.552 155.248 818.831 152.543C829.897 149.69 840.717 145.903 851.635 142.362C865.308 137.887 879.472 137.444 893.194 140.198C914.342 144.428 935.637 149.149 953.884 161.74C960.523 166.314 967.114 167.888 975.328 166.855C982.803 165.921 988.656 174.429 987.574 182.446C986.148 193.069 981.623 201.775 972.475 207.824C971.393 208.513 970.41 209.349 969.229 209.841C937.31 223.071 904.703 235.416 869.537 230.448C841.159 226.464 815.339 215.743 803.584 185.741C803.142 184.659 801.617 182.938 801.076 183.135C798.814 183.823 795.518 184.61 794.879 186.282C785.977 208.709 777.026 231.137 769.009 253.908C762.714 271.909 757.501 290.303 748.993 307.517C744.419 316.763 746.287 324.436 753.763 331.469C756.37 333.928 757.993 337.715 759.518 341.109C762.468 347.699 757.009 357.536 749.386 358.618C744.517 359.306 738.959 359.847 734.533 358.224C720.909 353.208 711.122 343.174 704.433 330.535C703.106 328.026 705.761 323.551 706.302 319.96C706.696 317.403 704.827 315.681 701.68 316.37C686.04 319.665 676.547 332.502 680.433 346.666C686.531 368.897 690.269 391.324 691.302 414.341C691.745 423.735 695.827 431.309 703.008 437.457C707.827 441.539 712.205 446.212 716.483 450.884C722.041 456.933 719.385 466.475 711.073 469.18C703.892 471.541 696.466 473.902 689.039 474.344C673.35 475.279 659.039 469.721 645.711 461.901C635.973 456.196 635.579 444.392 644.579 436.572C646.498 434.9 648.907 433.818 650.825 432.195C652.743 430.572 654.711 428.801 655.94 426.686C657.17 424.571 658.449 421.768 658.006 419.555C652.744 392.16 647.432 364.766 641.383 337.518C640.792 334.912 635.776 331.764 632.579 331.469C625.054 330.78 617.185 330.485 609.857 332.01C552.265 344.404 493.886 346.519 435.261 345.437C423.802 345.24 412.342 345.437 400.883 344.797C390.751 344.256 380.669 342.978 370.537 341.797C365.472 341.207 360.455 339.387 355.488 339.584C323.421 340.715 292.24 333.485 260.764 329.649C226.582 325.518 193.532 315.78 160.924 304.861C154.875 302.845 149.022 300.336 143.071 298.123C139.481 296.795 134.513 298.369 133.186 301.418C128.218 313.075 123.054 324.682 118.677 336.584C115.185 346.125 113.169 356.208 109.628 365.749C103.283 382.865 99.3484 399.833 107.414 417.588C109.136 421.424 103.824 427.965 99.4468 428.9C83.02 432.539 66.5441 431.851 50.2157 428.9C45.4942 428.014 40.9206 424.867 37.0352 421.768C31.8711 417.686 28.6745 412.03 29.8057 405.144C30.9368 398.21 35.6091 393.98 42.0519 392.013C46.8717 390.537 51.9862 389.947 56.9536 388.816C68.2162 386.258 74.61 378.34 76.774 367.864C78.7905 357.978 78.6431 347.699 79.43 337.568C91.6271 322.223 95.1682 303.484 99.6437 285.188C100.332 282.434 97.7254 277.516 95.168 275.499C85.1841 267.778 74.6595 260.695 64.1345 253.711C61.5771 251.99 58.5279 253.318 58.1345 256.072C54.9868 276.68 56.2653 296.5 69.5444 313.862C75.0528 321.042 79.1349 328.764 80.0202 337.912L79.9709 337.813ZM652.498 93.1797C650.334 90.0812 648.76 86.0974 645.858 84.1301C636.464 77.7364 626.726 71.8837 616.792 66.3261C615.365 65.5392 611.726 66.9654 610.348 68.4409C608.922 69.9656 608.234 73.0148 608.529 75.1789C608.824 77.4905 610.152 80.4414 612.021 81.6218C619.448 86.3925 627.169 90.7206 634.939 94.9011C641.333 98.3439 647.137 95.0978 652.94 92.5895C652.94 103.016 652.94 113.443 652.891 123.87C640.153 123.23 631.988 130.067 625.693 140.247C623.824 143.248 624.07 148.166 626.628 150.576C628.398 152.248 630.316 153.92 632.48 155.1C641.579 160.215 650.383 155.937 651.367 145.707C652.055 138.28 652.055 130.804 652.301 123.329C655.498 125.394 659.039 127.066 661.744 129.575C668.531 135.821 675.072 135.723 682.105 130.116C682.991 129.427 685.253 128.985 685.597 129.427C686.876 131.149 688.646 133.411 688.4 135.182C687.416 141.231 683.089 146.395 684.515 153.281C686.237 161.593 694.548 166.265 701.237 161.888C705.466 159.133 709.548 156.133 713.532 152.986C718.106 149.445 718.893 143.789 715.598 139.756C704.286 125.984 672.957 101.737 656.236 93.8682C655.154 93.3272 653.776 93.4257 652.498 93.2289V93.1797ZM134.317 192.676C133.924 191.495 133.727 190.217 133.137 189.184C125.907 175.56 113.071 166.511 104.218 154.461C95.2668 142.264 88.6763 128.345 77.6596 117.574C74.0693 114.033 70.5282 110.344 66.5936 107.197C63.5443 104.836 59.7081 104 56.1179 106.361C39.1009 117.623 37.4775 130.214 51.396 143.543C55.0354 147.035 59.1181 150.084 63.0034 153.281C71.7578 160.56 80.6103 167.691 89.2172 175.069C95.9551 180.823 102.251 187.069 109.038 192.774C115.235 197.938 122.661 199.217 130.481 197.889C133.629 197.348 134.858 195.43 134.268 192.627L134.317 192.676ZM144.793 145.559C146.023 145.215 151.924 143.592 157.728 141.674C158.466 141.428 159.007 139.411 158.908 138.231C158.81 137.198 157.679 135.329 157.088 135.378C149.76 135.673 142.481 136.411 135.153 136.706C134.218 136.706 132.842 135.477 132.35 134.444C131.858 133.509 131.956 131.985 132.35 130.952C135.153 124.656 141.842 123.279 146.858 119.689C151.973 116 151.285 106.213 145.924 103.754C143.662 102.721 141.35 101.639 138.94 101.147C135.251 100.41 131.415 100.311 127.726 99.6718C123.448 98.8849 121.775 94.6059 124.726 91.7534C127.431 89.1467 130.579 87.0318 133.333 84.4743C136.53 81.4742 137.464 76.6052 135.104 74.7855C133.235 73.3592 130.432 71.5394 128.563 71.9328C113.906 75.3264 99.3484 79.0644 86.4627 87.3762C82.5773 89.8845 81.2006 96.5733 84.3974 100.705C94.4797 113.492 103.234 127.165 116.12 137.788C123.595 143.936 130.678 147.084 144.793 145.51V145.559ZM450.458 237.432C455.622 237.235 468.213 236.793 480.803 236.202C481.59 236.202 482.377 235.022 483.115 234.432C482.131 233.694 481.197 232.415 480.066 232.268C471.311 231.038 462.164 231.235 453.803 228.677C429.359 221.153 403.441 224.448 378.948 217.366C373.095 215.644 365.865 215.349 360.16 217.169C343.635 222.48 328.045 217.857 312.011 215.152C297.06 212.644 281.961 211.316 266.862 209.644C260.567 208.955 254.272 208.365 247.977 208.119C244.189 207.972 240.402 208.513 236.664 209.004C235.484 209.152 233.418 210.529 233.517 210.677C234.254 212.644 234.845 215.3 236.37 216.234C246.55 222.53 258.206 222.284 269.518 222.185C308.815 221.792 347.225 232.563 386.571 231.383C389.03 231.284 391.686 231.776 394.047 232.563C409.981 237.924 426.506 236.94 450.409 237.481L450.458 237.432ZM722.041 188.495C724.352 188.25 727.647 186.872 728.877 187.954C732.664 191.2 730.057 194.889 727.746 197.742C722.631 204.086 720.467 210.873 723.024 218.792C723.418 219.972 723.762 221.251 724.303 222.333C730.549 234.629 728.975 246.334 722.975 258.482C718.647 267.286 716.139 277.024 712.991 286.369C712.942 286.565 714.86 288.041 715.696 287.942C721.156 287.057 724.451 283.024 726.861 278.647C737.238 259.712 742.55 238.858 748.943 218.448C750.025 215.005 750.173 210.824 749.386 207.283C746.681 195.037 744.123 182.692 737.189 171.773C733.303 165.724 727.303 163.068 721.303 166.117C716.828 168.38 712.401 170.888 708.221 173.642C702.515 177.38 701.925 183.233 706.253 190.118C708.516 193.758 711.565 194.741 715.746 192.676C717.959 191.594 719.975 189.922 722.09 188.495H722.041ZM414.359 15.8648C404.178 16.3074 394.047 16.6516 383.915 17.3402C381.505 17.4877 379.145 18.8158 376.931 19.8978C376.046 20.3404 375.407 21.6192 375.013 22.652C373.882 25.6029 374.817 27.8653 377.718 28.8981C390.112 33.4229 402.653 32.9311 415.047 29.0949C421.638 27.0292 427.146 27.1767 432.605 31.9966C435.359 34.4066 438.999 36.5214 442.491 37.21C456.262 39.915 470.23 40.997 484.148 38.4395C486.46 37.9969 488.574 36.1771 490.541 34.7016C491.427 34.0131 491.919 32.6851 492.46 31.6031C493.689 28.9964 492.853 26.2915 489.754 25.7505C464.77 21.5208 440.179 14.045 414.408 15.8648H414.359ZM52.6748 191.889C58.429 191.545 63.4952 191.348 68.5118 190.856C71.6102 190.561 73.135 188.692 72.889 185.938C72.7907 184.757 72.6428 183.282 71.9543 182.495C60.9375 170.347 50.0681 158.051 36.0513 149.199C32.7561 147.084 24.6412 151.461 23.9527 155.445C22.1821 165.871 25.4773 175.511 29.461 184.708C30.6906 187.512 35.0189 189.823 38.3633 190.659C43.1831 191.889 48.3468 191.594 52.724 191.889H52.6748ZM432.064 107.836C438.949 107.836 442.737 107.836 446.475 107.836C457.147 107.836 461.918 100.901 464.967 91.9501C466.639 87.0811 463.885 80.1463 459.557 79.9004C449.524 79.261 439.491 78.6216 429.409 78.6708C420.605 78.6708 416.08 84.7202 413.129 92.196C410.375 99.1307 413.621 105.869 420.064 106.606C425.081 107.147 430.097 107.639 432.015 107.836H432.064ZM244.14 106.705C247.042 106.311 254.517 105.77 261.747 104.246C265.239 103.508 268.485 101.098 271.682 99.229C274.977 97.2617 277.19 89.2451 274.731 85.8023C272.764 83.0973 269.518 80.1463 266.42 79.6545C255.305 77.8348 243.944 77.6871 233.173 81.1299C230.222 82.0644 227.32 85.9991 226.238 89.1959C223.189 98.2455 229.877 106.557 244.14 106.705ZM512.182 85.7531C502.935 84.5727 498.017 83.5891 493.099 83.4415C490.886 83.3431 487.886 84.2285 486.46 85.8023C481.295 91.3599 477.41 97.9996 479.23 105.82C479.918 108.82 483.262 112.607 486.164 113.443C491.968 115.066 498.362 115.558 504.411 115.213C514.493 114.672 525.116 101.196 523.739 91.6058C523.592 90.573 522.805 89.0975 522.018 88.8024C517.444 87.2285 512.723 85.9499 512.231 85.8023L512.182 85.7531ZM561.019 93.7206C545.281 92.6386 538.592 97.016 533.576 110.59C531.805 115.459 533.625 121.115 538.592 123.329C543.068 125.345 547.937 126.722 552.806 127.558C555.019 127.952 557.97 126.919 559.888 125.591C567.462 120.23 571.692 112.558 573.069 103.557C573.364 101.639 571.495 98.5406 569.724 97.3602C566.675 95.3929 562.938 94.5076 561.019 93.7699V93.7206ZM372.849 102.131C380.817 102.721 384.506 103.115 388.243 103.262C393.162 103.459 398.375 96.524 398.571 89.7369C398.719 84.7202 394.833 79.2119 390.309 79.0643C381.653 78.7201 372.947 78.1299 364.39 79.0643C357.504 79.7529 354.013 85.458 353.127 92.0484C352.832 94.0649 354.111 97.9013 355.488 98.2947C362.521 100.36 369.8 101.59 372.899 102.229L372.849 102.131ZM430.343 146.789C435.409 145.707 441.605 144.92 447.409 142.952C451.54 141.575 451.983 137.1 451.442 133.411C451.147 131.247 449.672 128.198 447.901 127.361C435.999 121.902 423.703 121.066 411.457 126.378C409.391 127.263 407.867 129.771 406.391 131.739C403.637 135.427 406.342 143.69 410.473 144.28C416.67 145.166 422.916 145.854 430.343 146.789ZM528.018 253.859C523.444 254.547 519.214 254.203 516.263 255.925C513.509 257.548 510.854 261.286 510.313 264.433C508.936 272.794 515.379 279.876 522.805 278.794C530.133 277.712 537.51 276.532 544.592 274.466C548.084 273.483 550.593 270.138 550.396 265.909C550.199 262.122 549.166 258.04 545.281 256.908C539.428 255.236 533.231 254.695 527.969 253.761L528.018 253.859ZM369.8 116.836C365.079 117.132 362.619 117.181 360.16 117.427C358.931 117.525 357.652 117.771 356.521 118.263C353.078 119.738 349.979 121.509 349.094 125.689C348.012 130.608 350.619 135.87 355.488 137.444C361.39 139.362 367.341 141.083 373.341 142.756C374.472 143.051 376.046 143.198 376.981 142.657C380.03 140.887 383.669 139.313 385.587 136.608C388.44 132.673 390.801 127.755 387.899 122.788C386.817 120.869 384.456 119 382.341 118.509C377.521 117.377 372.554 117.132 369.8 116.787V116.836ZM554.134 46.3578C553.445 44.243 553.396 41.0954 551.92 40.1117C541.248 33.0294 529.1 29.685 516.51 28.4063C514.542 28.2095 511.542 30.1769 510.46 31.9966C509.329 33.8656 509.821 36.8165 509.919 39.2265C509.969 40.3577 510.509 41.7839 511.345 42.5708C522.214 53.0467 534.805 56.9321 549.363 51.768C551.379 51.0794 552.609 48.2269 554.232 46.3088L554.134 46.3578ZM252.845 47.5383C245.862 48.2269 238.386 48.3743 231.156 49.899C227.959 50.5876 224.812 53.4894 222.549 56.1453C221.271 57.6699 220.927 61.0144 221.664 62.9325C222.353 64.8014 225.057 67.2605 226.828 67.2113C241.632 66.7687 255.944 62.834 270.354 59.7355C273.403 59.0961 274.584 56.4895 273.108 53.8337C272.026 51.9647 270.059 49.7515 268.141 49.3088C263.321 48.2268 258.354 48.0793 252.944 47.5383H252.845ZM318.012 76.9494C312.749 77.8838 306.454 78.1298 300.896 80.343C298.29 81.3758 295.732 86.0974 295.732 89.1467C295.732 92.196 298.191 96.8192 300.847 98.0487C310.093 102.377 319.93 101.934 329.668 99.0324C333.897 97.7537 336.75 92.5895 336.356 87.2287C336.012 82.9006 333.16 80.5397 329.766 79.261C326.372 77.9822 322.585 77.8347 318.012 76.9986V76.9494ZM167.318 100.557C166.63 106.361 172.974 112.951 178.876 112.803C187.876 112.558 196.089 109.902 203.516 104.934C207.008 102.573 207.352 98.5406 206.368 94.8519C205.778 92.6387 204.303 89.786 202.483 88.9499C191.762 84.2284 176.908 87.9171 168.301 97.1142C167.564 97.9012 167.662 99.3767 167.367 100.557H167.318ZM542.33 322.173C548.97 320.747 555.068 319.567 561.167 318.14C564.167 317.452 565.2 311.058 562.79 308.304C561.167 306.435 559.642 303.878 557.527 303.091C546.363 298.861 535.199 299.107 524.576 304.812C522.707 305.796 520.936 308.894 520.985 310.96C520.985 313.075 522.805 316.37 524.625 317.108C530.379 319.321 536.477 320.6 542.33 322.173ZM244.288 272.401C242.862 270.729 241.042 266.941 238.14 265.417C225.795 258.925 214.041 260.892 203.024 269.105C200.319 271.171 199.827 273.138 202.336 275.45C211.237 283.467 222.894 283.909 233.714 286.467C238.927 287.696 245.862 279.385 244.239 272.45L244.288 272.401ZM287.027 292.861C294.01 292.074 300.306 291.68 306.454 290.451C308.323 290.057 310.142 287.5 311.224 285.532C312.601 282.975 311.569 280.27 308.667 279.385C300.257 276.827 291.748 274.466 283.19 272.499C274.829 270.581 268.436 274.319 263.764 280.958C262.534 282.778 262.534 285.631 262.485 287.992C262.485 288.68 264.256 289.811 265.289 289.959C272.715 291.041 280.19 291.926 287.027 292.811V292.861ZM423.753 160.658C418.047 161.789 413.08 162.281 408.506 163.855C406.785 164.445 405.703 167.396 404.719 169.462C404.326 170.298 404.621 172.118 405.26 172.757C414.801 182.2 426.162 185.987 438.999 181.266C441.409 180.38 442.933 175.462 443.622 172.118C443.966 170.298 442.196 166.757 440.475 166.068C434.917 163.707 429.015 162.281 423.703 160.658H423.753ZM253.78 138.231C259.583 137.493 264.846 137.641 269.371 135.87C272.223 134.739 275.617 130.706 275.715 127.853C275.814 125.001 272.764 120.181 270.059 119.345C258.649 115.755 247.681 117.722 238.681 126.034C237.353 127.263 237.599 130.46 237.599 132.722C237.599 133.559 238.976 134.886 239.96 135.132C244.73 136.362 249.599 137.296 253.829 138.231H253.78ZM580.004 130.804C580.299 131.64 580.348 133.214 581.135 133.854C587.528 139.018 594.66 139.756 602.185 136.805C607.103 134.886 610.349 131.05 611.431 125.935C612.611 120.476 609.611 116.296 605.627 113.049C601.889 110 594.807 109.557 591.709 112.705C587.381 117.033 583.791 122.05 580.053 126.968C579.463 127.706 579.954 129.28 579.954 130.804H580.004ZM418.49 275.647C421.785 275.303 424.294 275.057 426.753 274.712C431.671 274.073 435.95 269.302 435.999 264.581C435.999 259.908 431.868 255.482 426.753 254.4C420.457 253.121 414.015 252.531 408.506 255.875C405.703 257.548 403.047 261.777 402.949 264.876C402.9 267.827 405.654 271.909 408.359 273.63C411.26 275.499 415.539 275.155 418.441 275.647H418.49ZM471.901 276.385C476.475 275.844 478.935 275.647 481.394 275.303C486.017 274.663 490.64 269.548 490.492 265.22C490.345 260.843 485.771 255.974 481.147 255.236C473.77 254.056 466.442 253.22 459.655 257.4C455.966 259.662 455.278 263.253 456.114 266.941C456.606 269.105 458.131 271.86 459.95 272.696C464.328 274.663 469.147 275.598 471.951 276.385H471.901ZM161.514 76.7528C173.121 78.0807 184.089 75.769 194.27 69.7195C195.302 69.0802 196.581 68.0966 196.827 67.0146C197.319 64.7522 197.516 62.3422 197.22 60.0798C197.122 59.1945 195.401 57.8666 194.368 57.8175C180.204 56.9322 166.925 60.3749 154.334 66.6702C153.695 67.0145 153.547 68.8343 153.596 69.9655C153.694 71.0967 153.99 72.6706 154.776 73.2116C156.793 74.6379 159.154 75.5723 161.514 76.8018V76.7528ZM363.603 171.675C363.603 171.675 363.603 171.527 363.652 171.478C366.112 172.019 368.521 172.609 370.98 173.101C372.21 173.347 373.44 173.249 374.669 173.446C378.259 173.888 381.899 170.986 382.538 167.101C383.227 162.92 381.112 158.986 377.964 157.805C368.226 154.215 358.439 154.264 348.553 156.871C345.652 157.658 344.078 159.92 345.012 162.625C345.701 164.691 347.274 167.298 349.045 167.986C353.668 169.708 358.685 170.495 363.554 171.675H363.603ZM498.361 142.854C497.328 139.657 497.23 136.46 495.706 135.28C491.87 132.329 487.541 129.87 483.066 128.099C477.803 125.984 472.935 128.542 471.115 133.559C468.607 140.493 470.279 147.723 474.951 150.231C480.755 153.379 487.001 154.117 492.656 150.92C495.411 149.346 496.738 145.264 498.41 142.854H498.361ZM481.147 321.485C487.541 320.895 492.509 320.846 497.279 319.764C499.001 319.37 501.214 316.665 501.362 314.845C501.509 313.026 499.739 309.73 498.214 309.337C486.164 306.189 474.017 306.533 461.967 309.681C458.967 310.468 457.934 312.485 459.114 315.435C459.508 316.419 460.245 317.845 461.032 317.993C468.164 319.37 475.344 320.501 481.147 321.436V321.485ZM328.733 128.296C329.126 122.787 326.028 117.968 320.962 117.672C314.913 117.328 308.716 117.525 302.667 118.115C298.29 118.558 295.978 126.722 298.88 130.263C305.273 138.083 316.29 140.001 325.34 134.395C327.061 133.313 327.651 130.362 328.733 128.247V128.296ZM314.667 62.1946C322.241 60.7683 329.569 59.7356 336.7 57.8667C338.274 57.4732 339.209 54.0304 339.996 51.8664C340.192 51.3254 338.864 49.6532 337.979 49.4073C325.782 45.9153 313.536 45.6201 301.388 49.7515C298.535 50.7351 297.551 52.8992 298.535 55.8502C298.879 56.883 299.568 58.3093 300.404 58.5552C305.076 59.9323 309.847 61.0142 314.667 62.1946ZM672.711 173.888C671.433 167.642 662.776 164.347 658.399 168.822C653.333 174.036 648.76 179.79 644.186 185.446C642.268 187.807 644.677 192.332 649.104 193.463C652.399 194.299 657.023 195.233 659.383 193.61C664.301 190.266 668.334 185.544 672.121 180.872C673.351 179.397 672.564 176.298 672.711 173.888ZM314.421 30.7671C327.75 30.7671 332.815 30.9146 337.832 30.7178C340.291 30.6195 342.75 29.931 345.16 29.2424C348.062 28.4555 349.832 26.2915 348.898 23.6848C348.209 21.8158 346.193 19.4551 344.373 19.0616C330.209 16.0123 316.979 20.1437 303.896 24.9636C302.913 25.3078 302.126 26.8817 301.83 28.0129C301.732 28.5047 303.208 29.8818 304.044 29.9801C310.241 30.5703 316.487 30.9639 314.421 30.8163V30.7671ZM669.023 234.973C666.269 236.645 663.071 238.416 660.12 240.53C659.334 241.071 658.596 242.891 658.891 243.678C662.727 253.22 668.679 260.745 679.056 263.794C681.958 264.63 686.925 259.761 686.384 256.712C685.007 249.236 682.056 242.449 676.203 237.432C674.58 236.006 671.826 235.858 669.023 234.973ZM570.954 229.858C581.626 231.333 585.364 232.268 589.053 232.219C590.873 232.219 592.643 230.301 594.463 229.219C592.889 227.546 591.61 224.89 589.742 224.399C578.872 221.595 567.954 218.989 556.888 216.923C553.494 216.284 549.658 217.513 546.117 218.202C545.379 218.349 544.445 219.825 544.396 220.71C544.298 221.841 544.691 223.513 545.478 224.153C555.167 231.628 566.97 229.219 570.954 229.809V229.858ZM372.997 204.185C374.226 204.135 375.849 204.48 376.685 203.89C378.407 202.562 379.931 200.791 381.062 198.922C381.505 198.184 381.062 196.217 380.374 195.578C371.472 187.364 360.701 185.397 349.143 187.364C347.373 187.659 344.963 190.315 344.766 192.135C344.52 194.053 346.144 197.594 347.619 198.037C355.98 200.496 364.537 202.217 372.997 204.185ZM383.718 46.8989C378.604 47.6859 374.669 47.735 371.177 49.0137C369.406 49.6531 367.439 52.5549 367.439 54.3746C367.439 56.2436 369.554 59.342 371.226 59.7355C381.062 62.2438 391.096 63.8669 400.834 59.2438C401.817 58.752 403.243 57.4239 403.096 56.6862C402.702 54.473 402.063 50.9319 400.735 50.5384C394.784 48.7186 388.587 47.8334 383.669 46.8497L383.718 46.8989ZM528.363 139.854C527.674 140.001 526.395 140.198 525.166 140.444C519.854 141.477 516.706 145.953 517.198 151.461C517.592 155.986 520.936 157.855 524.526 159.133C526.887 159.97 529.494 160.265 532.002 160.265C539.527 160.363 544.297 155.396 543.56 148.658C543.068 144.231 538.494 140.493 532.691 139.854C531.412 139.706 530.133 139.854 528.313 139.854H528.363ZM527.674 185.79C526.887 183.626 526.69 180.675 525.116 179.397C522.411 177.134 519.018 175.511 515.673 174.232C510.017 172.118 503.181 176.593 502.148 182.692C501.214 188.397 505.739 194.692 511.788 196.217C519.657 198.135 526.985 193.315 527.625 185.79H527.674ZM220.828 179.052C216.008 179.249 210.205 184.61 211.533 188.495C212.615 191.643 215.123 195.332 217.976 196.66C223.73 199.316 230.222 199.561 235.14 194.594C236.37 193.315 236.419 189.774 235.632 187.807C233.124 181.167 227.418 179.2 220.828 179.102V179.052ZM60.249 207.972C58.2325 209.3 54.7403 210.726 52.6255 213.283C51.4943 214.611 51.9867 218.497 53.1671 220.267C55.8721 224.3 59.0686 228.186 62.7573 231.333C65.659 233.792 69.5934 233.645 72.9869 231.432C76.4296 229.169 77.8563 225.677 77.0694 221.841C75.4464 213.874 69.6427 209.005 60.249 208.021V207.972ZM175.039 266.204C177.794 264.532 182.024 262.122 186.007 259.515C188.958 257.548 188.073 252.088 184.925 250.219C174.892 244.367 166.039 247.859 157.432 253.416C154.777 255.138 154.432 257.499 156.547 259.515C161.17 263.941 166.777 266.056 175.039 266.253V266.204ZM314.027 262.072C319.29 261.04 325.438 260.056 331.438 258.531C334.291 257.794 335.323 255.236 334.537 252.334C334.241 251.252 333.75 249.826 332.914 249.383C321.848 243.58 311.224 244.022 301.486 252.383C300.7 253.072 300.453 254.744 300.552 255.925C300.65 256.859 301.388 258.285 302.224 258.581C305.716 259.81 309.355 260.745 314.077 262.122L314.027 262.072ZM383.374 258.187C381.898 255.58 380.915 251.154 378.309 249.777C371.423 246.186 363.062 249.482 358.931 256.22C356.914 259.466 358.193 264.531 361.193 266.007C367.292 269.056 373.341 269.106 378.849 265.171C380.669 263.892 381.505 261.138 383.374 258.138V258.187ZM576.659 255.039C568.79 254.892 565.888 259.121 567.954 264.974C570.659 272.597 574.643 275.45 581.725 274.516C585.905 273.975 588.414 271.22 589.102 267.286C589.791 263.45 589.102 259.466 585.315 257.597C582.118 255.974 578.331 255.482 576.61 255.039H576.659ZM631.989 259.761C626.48 260.941 620.382 261.826 614.627 263.695C613.25 264.138 612.611 267.679 612.168 269.892C612.021 270.581 613.496 272.056 614.529 272.45C624.611 276.089 634.005 274.122 642.858 268.712C643.743 268.171 644.333 266.696 644.481 265.614C644.579 264.777 643.989 263.154 643.301 262.958C639.858 261.777 636.267 260.99 631.989 259.81V259.761ZM443.327 62.3422C454.491 62.3422 458.18 62.3422 461.869 62.3422C463.098 62.3422 464.377 62.2439 465.508 61.8505C466.639 61.457 467.623 60.5716 468.656 59.9323C467.131 58.506 465.852 56.1452 464.131 55.7517C454.589 53.4893 444.95 51.6697 435.31 49.8499C431.425 49.1122 427.146 52.8992 428.326 56.096C429.064 58.0633 430.835 60.7683 432.507 61.1126C438.507 62.2438 444.655 62.5389 443.327 62.3914V62.3422ZM130.284 244.662C133.53 243.58 135.94 242.94 138.202 242.006C141.989 240.432 143.268 234.973 140.563 232.71C135.645 228.579 130.235 224.841 123.694 226.218C120.595 226.858 117.054 230.005 115.677 232.907C113.956 236.596 117.152 240.039 120.398 241.76C123.595 243.432 127.431 243.924 130.235 244.711L130.284 244.662ZM289.486 191.987C289.191 190.856 289.24 189.282 288.502 188.692C281.469 182.741 272.813 181.413 264.059 180.872C263.075 180.823 261.157 181.905 261.108 182.643C260.813 184.807 260.37 187.905 261.551 189.086C267.994 195.725 276.01 199.02 285.355 197.102C287.027 196.758 288.158 193.807 289.535 192.037L289.486 191.987ZM198.45 138.575C201.844 137.788 205.385 137.1 208.827 136.165C211.778 135.329 212.812 133.214 211.779 130.362C211.434 129.329 210.746 128.149 209.861 127.657C201.746 123.329 193.63 123.673 185.663 128.001C184.876 128.443 184.04 130.116 184.335 130.854C185.122 132.919 186.007 135.772 187.63 136.46C190.876 137.837 194.663 137.936 198.499 138.624L198.45 138.575ZM585.708 161.248C585.757 160.166 586.299 158.789 585.807 158.002C582.61 152.445 572.872 148.756 566.872 150.871C565.888 151.215 565.003 152.445 564.413 153.478C561.068 159.379 564.019 166.019 570.462 167.298C578.184 168.773 583.298 166.757 585.659 161.298L585.708 161.248ZM156.596 169.806C161.613 168.576 166.58 167.74 171.105 165.921C172.433 165.38 172.875 161.986 173.121 159.871C173.22 159.133 171.499 157.56 170.515 157.461C160.236 156.084 150.695 158.248 142.038 164.101C141.596 164.396 141.743 166.708 141.94 166.757C146.76 167.888 151.58 168.872 156.596 169.855V169.806ZM262.682 153.232C258.157 153.723 254.419 154.018 250.78 154.658C249.698 154.855 248.321 155.937 247.977 156.92C247.681 157.756 248.37 159.527 249.206 160.068C256.731 164.789 265.092 166.56 273.846 166.953C277.732 167.101 282.109 163.658 280.928 160.609C280.141 158.543 278.42 155.887 276.6 155.396C271.879 154.117 266.813 153.822 262.682 153.281V153.232ZM486.263 177.134C485.181 175.118 484.59 171.921 483.016 171.282C475.836 168.331 468.656 168.035 462.409 173.937C459.704 176.495 459.704 182.348 462.803 183.38C467.475 184.905 472.246 186.233 477.066 186.922C481.394 187.512 484.935 183.331 486.312 177.183L486.263 177.134ZM175.482 184.561C171.941 184.954 169.285 184.758 167.121 185.692C165.301 186.479 162.842 188.741 162.99 190.217C163.138 192.233 165.007 194.988 166.826 195.873C172.531 198.578 178.826 199.266 184.876 197.151C186.646 196.561 188.811 193.905 188.811 192.135C188.811 190.217 187.04 187.266 185.27 186.528C181.974 185.151 178.138 185.003 175.532 184.512L175.482 184.561ZM427.294 209.988C430.54 208.906 432.999 208.513 434.917 207.283C436.983 206.004 433.589 201.185 429.212 198.971C422.474 195.578 415.686 192.627 407.965 194.987C406.883 195.332 405.26 196.66 405.309 197.397C405.457 199.611 405.801 203.201 407.08 203.693C413.916 206.299 421.097 208.119 427.294 209.988ZM694.892 207.332C693.515 204.529 692.63 200.889 690.417 198.43C686.826 194.397 682.203 194.496 677.482 197.693C673.055 200.693 672.465 206.791 676.203 210.086C680.187 213.578 684.81 214.611 689.63 212.792C691.499 212.054 692.778 209.644 694.942 207.332H694.892ZM277.436 243.383C277.092 242.498 277.043 241.268 276.403 240.776C275.469 240.039 274.19 239.448 273.01 239.448C265.534 239.252 258.01 238.957 250.534 239.399C249.108 239.498 246.747 242.793 246.894 244.465C247.042 246.432 249.009 249.137 250.829 249.974C259.632 253.957 267.944 252.531 275.371 246.383C276.256 245.645 276.797 244.416 277.436 243.432V243.383ZM92.3649 243.629C91.5288 244.563 90.2993 245.35 89.955 246.383C89.5616 247.465 89.512 249.187 90.1513 250.072C94.7253 256.416 101.267 260.105 108.447 262.81C111.349 263.892 113.464 263.056 114.349 260.203C114.693 259.072 114.742 257.4 114.103 256.515C108.742 249.088 101.759 244.268 92.3649 243.629ZM625.939 178.118C626.038 176.839 626.579 175.364 626.087 174.38C622.251 166.019 615.365 162.822 608.185 166.363C606.365 167.249 605.381 170.249 604.496 172.462C604.25 173.15 605.381 174.97 606.316 175.413C610.693 177.577 615.119 179.938 619.792 181.216C621.415 181.659 623.874 179.2 625.939 178.118ZM209.073 167.642C211.533 167.298 214.287 167.642 216.254 166.462C217.975 165.478 219.844 162.822 219.746 161.002C219.697 159.281 217.483 156.871 215.664 156.084C210.942 154.019 205.827 154.51 201.647 157.412C200.122 158.445 199.729 161.445 199.385 163.609C199.286 164.298 200.91 165.625 201.942 165.97C204.205 166.757 206.663 167.101 209.024 167.642H209.073ZM588.315 61.1126C587.184 51.8171 577.642 46.7514 569.675 51.6696C568.003 52.7025 566.183 56.1944 566.724 57.7682C568.888 64.1128 577.446 68.2933 584.626 66.5719C586.2 66.1785 587.135 63.0307 588.315 61.1126ZM315.7 154.412C313.88 154.953 310.241 155.494 307.339 157.265C305.863 158.15 305.519 161.248 305.224 163.462C305.126 164.199 306.601 165.478 307.585 166.019C312.11 168.429 316.93 168.38 321.258 165.921C322.979 164.937 324.405 162.33 324.799 160.265C325.389 157.412 321.553 154.756 315.7 154.461V154.412ZM565.938 192.676C566.626 187.561 562.839 182.544 558.019 182.151C553.248 181.757 548.822 185.741 548.182 190.955C547.789 194.447 550.396 197.742 554.478 198.775C560.134 200.201 565.249 197.496 565.938 192.676ZM508.935 221.89C511.935 220.611 514.444 219.972 516.313 218.546C518.28 217.021 514.493 211.267 510.411 210.431C506.919 209.693 503.132 209.89 499.542 210.086C498.608 210.136 496.886 211.808 496.985 212.546C497.28 214.759 497.673 218.005 499.197 218.841C502.296 220.612 506.083 221.054 508.985 221.89H508.935ZM358.636 292.025C356.423 292.32 361.292 291.779 366.112 290.992C367.095 290.844 368.127 289.615 368.619 288.582C368.816 288.139 367.931 286.565 367.243 286.369C357.701 283.664 348.111 283.221 338.668 286.664C337.782 287.008 336.553 288.975 336.799 289.369C337.782 290.992 339.209 293.402 340.635 293.5C344.225 293.795 347.914 293.008 358.587 292.025H358.636ZM400.44 314.009C408.31 314.009 413.424 314.108 418.49 313.911C419.621 313.911 420.703 312.878 421.785 312.288C420.359 311.107 419.031 309.681 417.457 308.845C416.424 308.304 414.949 308.501 413.719 308.501C409.883 308.452 406.047 308.206 402.26 308.501C399.85 308.697 397.292 309.337 395.128 310.419C392.964 311.501 397.293 313.862 400.49 314.009H400.44ZM156.892 278.549C150.301 274.909 144.694 269.942 136.678 270.286C135.596 270.286 134.317 270.974 133.579 271.712C133.137 272.155 133.137 273.876 133.579 274.221C139.432 278.844 145.776 282.582 153.645 281.942C154.531 281.893 155.269 280.319 156.941 278.499L156.892 278.549ZM220.041 237.579C219.549 236.547 219.254 234.973 218.517 234.678C215.172 233.497 211.778 232.219 208.286 231.874C206.122 231.628 203.762 232.907 201.499 233.547C202.876 235.366 203.958 237.875 205.778 238.809C208.877 240.383 212.418 241.465 215.861 241.711C217.139 241.809 218.615 239.055 220.041 237.579ZM472.639 208.759C472.442 207.627 472.59 206.103 471.901 205.365C468.262 201.381 461.967 201.234 458.869 205.119C458.229 205.906 458.032 207.578 458.425 208.464C460.098 212.3 463.639 213.431 467.278 212.644C469.246 212.251 470.868 210.087 472.59 208.759H472.639ZM593.676 193.217C591.856 195.233 588.955 197.25 587.873 200.004C586.643 203.152 590.381 206.545 594.414 206.349C596.627 206.25 598.938 205.562 601.004 204.627C604.348 203.103 604.545 197.693 601.25 195.824C599.332 194.692 596.971 194.299 593.676 193.168V193.217Z" fill="black"/>
</svg>
