<svg width="250" height="548" viewBox="0 0 250 548" fill="none" xmlns="http://www.w3.org/2000/svg">
<path d="M82.52 429.365C74.3067 437.185 66.3392 445.349 57.7323 452.726C54.0929 455.874 49.1747 458.726 44.5516 459.317C34.0759 460.644 28.2724 466.301 26.7969 476.088C24.2887 492.417 22.6657 508.843 20.2066 525.172C19.4689 530.041 18.0918 535.303 15.2884 539.14C13.6162 541.451 8.10784 542.927 5.30447 541.943C2.74701 541.058 -0.744921 535.156 0.140354 533.484C9.09146 516.073 14.1572 497.58 11.7964 478.301C10.5177 467.776 10.862 458.874 15.1409 449.038C18.5836 441.168 18.9771 431.775 19.764 422.922C21.7312 401.429 21.5837 379.69 26.5019 358.443C28.2724 350.721 26.5018 343.295 21.7804 336.754C17.2556 330.508 13.8621 323.819 13.0752 315.9C11.6489 301.293 13.8621 287.62 25.1248 277.341C39.4859 264.209 39.6826 248.471 34.7644 231.749C32.2561 223.24 28.1249 215.224 25.4198 206.715C19.6656 188.567 12.8293 170.517 9.18981 151.926C3.73061 124.138 3.82895 96.4481 17.1573 69.9879C27.1904 50.0689 41.3548 34.2813 59.8963 22.2808C95.1106 -0.441553 133.669 -4.57291 173.654 4.42749C201.491 10.6737 220.918 29.609 233.263 54.2986C249.788 87.1525 254.558 121.875 243.099 157.975C234.59 184.78 224.705 210.846 207.786 233.716C203.999 238.831 200.95 244.438 197.704 249.897C193.671 256.734 193.917 261.898 198.638 267.259C201.147 270.111 204.098 272.571 206.803 275.276C219.147 287.67 219.836 302.326 214.327 317.671C212.213 323.573 208.918 329.18 205.229 334.295C198.884 343.147 197.016 352.689 198.54 363.214C201.589 384.608 204.344 406.052 207.737 427.397C210.737 446.234 215.065 464.874 217.574 483.711C219.59 498.81 219.984 514.106 220.721 529.352C220.918 533.041 220.082 537.025 218.754 540.517C217.426 543.96 215.213 547.255 210.737 547.55C206.311 547.845 200.114 543.32 199.573 539.14C198.934 534.123 198.393 529.107 198.147 524.041C197.409 510.073 197.261 496.056 196.13 482.137C194.901 467.333 190.671 463.399 175.425 459.71C170.605 458.53 164.26 457.989 161.654 454.693C142.62 430.987 117.046 427.594 89.3563 429.856C86.8481 430.053 84.2906 429.954 81.7331 430.053C82.5692 427.741 83.3561 425.331 84.2906 423.069C86.6513 417.61 84.6349 413.38 80.1593 410.429C75.0444 407.085 69.5852 403.937 63.044 406.298C62.0603 406.642 61.0767 408.118 60.8308 409.2C58.5193 420.413 61.3226 429.463 75.0444 429.168C77.5527 429.118 80.0118 429.266 82.52 429.365ZM219.246 184.288C227.705 178.681 226.77 169.927 226.918 161.566C234.049 156.402 235.377 149.811 231.689 141.696C226.426 147.893 228.492 155.27 227.557 162.107C219.983 168.009 220.721 176.714 219.885 184.927C218.606 186.796 217.377 188.665 216.098 190.583C216.737 190.78 217.377 190.928 217.967 191.124C218.41 188.862 218.803 186.6 219.246 184.386V184.288ZM120.144 211.732C128.21 208.043 134.899 204.059 142.128 202.043C146.653 200.764 152.112 201.895 156.932 202.83C161.408 203.666 164.9 209.863 164.555 214.683C164.113 221.47 158.998 227.765 152.998 227.618C147.784 227.519 148.768 222.798 148.03 219.158C147.096 214.486 142.866 213.158 139.915 215.962C129.194 226.241 128.8 236.126 138.637 245.225C150.539 256.242 165.785 255.258 175.277 243.651C187.671 228.405 191.114 212.519 182.261 194.223C176.654 182.714 170.752 171.648 161.309 162.746C150.145 152.27 139.965 141.106 134.112 126.449C131.85 120.793 124.62 120.449 122.407 125.711C117.439 137.712 109.226 147.254 100.865 156.893C90.881 168.402 80.9954 180.009 71.7 192.059C64.6178 201.207 60.0439 211.584 59.8963 223.585C59.7488 236.323 70.1262 247.783 83.6021 248.619C85.9628 248.766 88.9629 248.176 90.6843 246.75C94.5204 243.553 98.3075 240.012 101.062 235.93C105.734 229.093 102.832 220.142 95.209 217.142C91.7171 215.765 87.8809 215.273 84.2414 214.191C81.3889 213.355 80.1593 210.896 81.9299 208.436C83.2578 206.617 86.2087 204.551 88.0776 204.846C98.0124 206.568 107.849 208.978 120.095 211.683L120.144 211.732ZM36.2891 159.746C37.4203 164.271 39.6334 174.107 42.486 183.698C43.8139 188.124 44.1582 194.666 50.7977 194.223C53.9454 194.026 57.4372 191.075 59.7488 188.468C72.1918 174.205 84.3398 159.647 96.4877 145.089C100.521 140.269 104.898 135.548 108.095 130.187C118.374 112.826 122.21 95.1694 108.636 77.4145C107.111 75.398 106.177 72.9878 104.603 71.0205C95.3566 59.3643 83.4053 53.5607 68.3556 54.3968C59.4537 54.8886 51.8797 63.594 53.0109 72.5944C53.6994 78.0045 56.7487 81.6931 61.6669 83.9555C74.2083 89.7591 76.3231 100.235 74.4542 112.481C73.2247 120.4 69.3393 126.794 62.3554 130.777C56.8962 133.925 51.0436 136.384 45.2893 139.04C38.7481 142.089 36.3874 147.5 36.3382 159.795L36.2891 159.746ZM199.868 187.387C200.852 186.845 202.278 186.6 202.819 185.763C212.065 171.796 216.344 156.057 218.311 139.729C218.705 136.532 216 132.991 214.819 129.794C205.278 130.236 196.425 131.466 187.769 130.777C177.195 129.941 168.539 124.482 163.572 114.793C161.998 111.695 161.359 107.367 162.195 104.022C164.113 96.0545 169.031 90.6937 179.015 90.8412C179.999 95.5135 180.54 100.579 182.113 105.252C185.605 115.58 198.245 119.465 206.655 112.973C215.41 106.186 218.754 97.0382 217.033 86.218C215.508 76.6766 209.655 70.5288 200.901 66.7909C191.212 62.6595 181.179 62.8071 171.097 64.3318C155.85 66.5942 143.997 79.5783 142.424 95.3167C140.604 113.957 145.129 130.63 159.145 143.565C173.162 156.5 184.72 171.402 196.327 186.304C196.966 187.091 198.688 187.091 199.868 187.436V187.387ZM109.668 412.888C122.111 405.855 130.767 400.888 139.423 396.068C144.932 393.019 150.785 390.461 155.949 386.92C158.85 384.904 161.064 381.461 162.883 378.264C167.064 370.985 161.998 361.886 153.981 361.837C150.194 361.837 146.407 361.689 142.669 362.034C123.833 363.755 105.095 366.558 86.2578 361.492C82.8151 360.558 78.733 361.689 74.9952 362.181C69.8311 362.87 63.3391 371.772 62.1587 379.493C61.5194 383.723 64.4703 389.969 68.7491 392.183C82.1758 399.117 95.7008 405.855 109.668 412.937V412.888ZM131.358 71.5617C137.85 67.8239 141.538 60.9873 146.948 56.2658C153.932 50.1179 162.687 48.2493 170.998 45.1508C174.49 43.872 175.621 37.8716 172.67 35.7567C167.556 32.1664 162.588 27.2481 156.834 25.871C140.604 21.9856 124.079 22.2316 107.8 26.8547C102.931 28.2318 99.8321 35.511 102.832 39.0029C111.931 49.4788 121.128 59.9055 131.308 71.5617H131.358ZM186.097 378.362C184.622 379.395 183.048 379.936 182.9 380.674C180.441 395.527 177.933 410.38 176.064 425.282C175.621 428.725 177.539 432.512 178.769 436.004C180.097 439.742 186.343 442.939 187.819 440.873C189.146 439.004 191.261 436.791 191.163 434.824C190.474 419.676 189.491 404.576 188.31 389.477C188.015 385.789 186.884 382.198 186.097 378.313V378.362ZM56.8471 102.448C56.6504 98.071 51.7813 94.2839 46.5189 94.4314C37.0759 94.7757 30.8299 99.9401 31.8135 106.629C32.8463 113.465 40.8138 120.4 46.9123 119.761C52.4699 119.22 57.1914 110.908 56.8471 102.448ZM89.7498 345.262C111.587 354.164 116.16 354.214 141.243 348.853C135.243 345.164 128.899 346.541 122.849 346.246C117.882 346 112.914 346.344 107.947 346.197C101.898 346 95.7992 345.607 89.7498 345.262ZM38.9449 388.15C36.2891 406.298 34.5185 417.265 33.3381 428.282C33.2398 429.364 36.4366 431.037 38.3547 431.922C38.9449 432.217 40.7646 431.184 41.2564 430.299C42.3876 428.135 43.7155 425.725 43.8139 423.413C44.2074 413.626 46.8632 403.642 38.9449 388.15ZM60.3882 339.213C59.8964 338.082 59.6996 336.36 58.8143 335.918C52.2731 332.377 45.6828 329.032 38.994 325.835C38.3547 325.54 36.6333 326.573 36.0432 327.458C35.5513 328.196 35.4529 329.917 35.9939 330.557C41.699 337.737 49.0271 341.918 58.3717 341.918C59.0603 341.918 59.7488 340.147 60.4373 339.213H60.3882ZM154.375 411.954C146.358 411.314 139.374 416.577 139.522 421.938C139.62 425.332 143.309 428.381 147.539 428.577C153.686 428.873 158.113 425.971 158.014 420.463C157.965 417.364 155.506 414.364 154.375 411.905V411.954ZM119.161 241.93C118.57 240.897 118.226 239.52 117.341 238.93C115.226 237.503 111.242 241.979 111.488 246.307C111.587 247.783 113.947 249.258 115.521 250.439C115.816 250.635 117.783 249.504 118.029 248.717C118.669 246.553 118.767 244.241 119.111 241.979L119.161 241.93ZM49.5682 363.656C49.0764 362.771 48.7321 361.689 47.9943 361.05C47.7484 360.853 45.8795 361.837 45.8795 362.132C46.0763 364.148 46.6172 366.066 47.0599 368.034C47.7976 367.64 48.9288 367.394 49.2239 366.755C49.6665 365.87 49.4698 364.64 49.5682 363.608V363.656ZM192.048 313.835L193.13 316.441L194.311 313.835H192.097H192.048Z" fill="black"/>
</svg>
