<svg width="392" height="500" viewBox="0 0 392 500" fill="none" xmlns="http://www.w3.org/2000/svg">
<path d="M108.423 328.101C110.832 323.822 112.554 318.904 115.849 315.362C120.964 309.805 127.603 305.673 132.62 300.017C134.685 297.706 135.62 292.296 134.342 289.542C130.161 280.394 124.701 271.787 120.226 263.868C103.799 257.229 88.2088 251.819 73.4051 244.786C43.9943 230.719 25.0099 208.341 20.977 174.897C19.895 166.093 17.0423 157.437 16.5505 148.585C15.321 125.715 13.2557 102.992 7.69812 80.6636C6.51775 75.8437 6.07466 70.5811 10.3043 66.499C20.1407 85.9261 21.9113 89.1722 22.0096 112.927C22.108 133.535 26.7313 153.257 30.174 173.225C34.7971 200.079 49.8468 219.506 73.2574 232.982C88.7989 241.933 104.488 249.851 122.882 251.474C131.636 252.261 140.243 254.917 148.948 256.491C149.883 256.639 151.555 255.557 152.047 254.622C152.44 253.934 151.85 251.917 151.112 251.524C143.44 247.146 135.718 242.917 127.948 238.736C104.291 225.998 82.5526 210.702 63.9127 191.177C53.9288 180.75 47.8795 168.848 44.9286 154.585C38.0431 121.042 31.2068 87.4999 28.9444 53.2197C28.551 47.2686 25.0593 41.3667 22.4035 35.7599C20.1903 31.186 13.0585 30.9891 9.71414 35.3664C7.45178 38.2682 6.02593 41.7602 4.00948 45.3013C-2.28581 38.0223 -0.0727899 30.8907 3.2224 24.2511C6.41922 17.8082 17.8783 15.2509 23.1899 19.8741C27.9114 23.9562 32.4855 28.5792 35.6823 33.7925C40.3054 41.2682 46.7975 43.8259 54.8142 43.8259C61.1586 43.8259 67.5522 43.629 73.7983 42.7438C87.6184 40.7765 101.537 39.1044 115.111 35.8584C127.358 32.9566 139.112 27.9891 151.211 24.448C153.03 23.907 156.67 25.4808 157.703 27.153C160.9 32.5139 164.391 38.0715 165.719 44.0226C169.801 62.6135 172.605 81.4995 176.49 100.189C178.802 111.353 181.654 122.518 185.343 133.338C190.065 147.208 199.458 157.634 213.377 162.798C226.459 167.618 239.738 172.389 253.312 175.389C280.51 181.389 307.068 191.226 335.593 189.505C337.462 190.882 339.282 192.21 341.151 193.587C341.397 192.947 341.643 192.259 341.889 191.619C339.577 191.128 337.266 190.636 335.003 190.144C330.675 187.685 326.593 184.488 321.97 182.963C305.101 177.356 287.789 172.979 271.116 166.88C249.476 159.011 228.967 148.83 213.13 131.322C195.622 111.944 184.408 89.7131 182.982 63.1054C182.49 54.2525 182.54 45.252 181.015 36.5467C178.949 24.7429 173.539 15.1524 160.506 11.7588C156.375 10.6768 155.096 5.06992 157.703 3.05343C159.621 1.57796 162.129 -0.0942233 164.293 0.00414177C167.933 0.200872 172.408 0.692877 174.917 2.95527C179.54 7.0866 183.621 12.2015 186.621 17.6116C188.982 21.8904 189.671 27.2512 190.605 32.2186C193.163 45.9406 196.212 59.6625 197.687 73.4828C200.933 104.074 218.885 124.288 242.984 140.469C261.181 152.667 281.887 159.011 302.642 165.159C318.478 169.831 334.266 174.504 350.053 179.274C364.808 183.75 378.185 190.931 389.497 201.308C391.611 203.275 391.808 208.145 391.513 211.538C391.366 213.505 388.612 215.424 386.841 217.145C386.005 217.932 384.579 218.522 383.398 218.571C352.414 220.391 324.675 234.261 295.314 241.982C282.674 245.327 275.887 252.704 273.674 265.492C273.133 268.639 269.198 271.147 266.788 273.951C266.69 272.721 266.641 271.442 266.493 270.213C264.575 252.95 260.198 249.704 245.542 254.966C242.05 256.245 238.558 258.016 235.755 260.327C234.23 261.606 233.148 264.705 233.541 266.672C233.935 268.738 235.951 271.197 237.918 272.082C247.558 276.41 257.64 273.803 267.526 273.115C265.362 282.902 251.787 288.165 255.525 299.722C258.574 309.067 269.592 309.559 276.821 314.477C302.396 331.888 323.987 353.135 336.971 381.808C341.643 392.136 345.676 402.809 348.971 413.678C349.709 416.187 346.906 421.007 344.397 423.072C339.381 427.204 329.348 427.203 326.741 423.859C324.43 420.908 322.118 417.859 320.446 414.564C305.396 384.907 286.559 357.955 262.411 334.888C258.821 331.445 254.345 328.839 250.214 325.986C247.115 323.871 240.968 324.363 239.984 326.773C239.05 329.035 237.525 331.642 237.968 333.757C241.312 349.889 245.247 365.922 248.591 382.054C249.87 388.202 250.509 394.546 250.705 400.792C250.951 408.17 245.197 414.367 236.836 416.679C230.295 418.498 223.459 415.154 221.786 408.809C220.213 402.858 219.229 396.76 216.475 383.48C213.672 404.481 214.901 418.006 216.475 431.679C217.901 444.221 219.18 456.959 218.59 469.55C217.753 488.534 207.967 497.19 186.523 499.699C184.999 499.895 181.556 496.649 181.654 495.174C184.753 448.254 184.507 401.284 183.474 354.315C183.277 346.102 185.687 339.708 192.425 334.79C192.966 334.396 191.785 329.724 190.359 328.937C175.605 320.773 158.982 320.084 142.85 316.149C134.489 325.15 127.063 333.757 118.948 341.626C115.456 345.02 110.586 346.938 106.357 349.544L106.947 350.134C107.881 344.282 108.767 338.429 109.701 332.576C110.882 330.707 110.439 329.183 108.472 328.002L108.423 328.101ZM313.118 372.464C313.806 378.365 314.937 384.021 320.15 387.759C320.839 388.251 322.315 388.3 322.954 387.858C323.643 387.366 324.282 385.89 324.036 385.152C321.921 379.546 318.478 375.021 312.478 373.004C311.839 367.103 310.954 361.299 305.642 357.512C304.953 357.02 303.478 356.873 302.79 357.266C302.052 357.709 301.314 359.184 301.56 359.873C303.527 365.726 307.708 369.66 313.118 372.414V372.464ZM175.162 281.132C176.736 282.558 178.261 284.132 179.982 285.361C180.425 285.656 181.605 284.87 182.49 284.574C179.884 283.64 177.228 282.705 174.621 281.771C167.637 273.262 157.063 272.771 147.571 270.016C146.932 269.82 145.26 271.246 145.014 272.131C144.768 273.016 145.407 274.639 146.194 275.23C154.85 282.066 165.424 279.656 175.211 281.082L175.162 281.132ZM92.34 197.079C98.4877 196.783 102.373 197.128 106.013 196.341C133.112 190.537 160.162 184.537 187.212 178.488C188.343 178.242 189.622 177.258 190.212 176.274C191.442 174.258 192.474 172.094 193.064 169.832C193.36 168.799 192.72 167.126 191.933 166.29C179.294 153.06 174.179 136.043 168.08 119.469C164.834 110.567 160.604 108.206 150.423 109.583C122.98 113.37 95.5365 117.255 68.093 121.387C57.273 123.01 52.7487 129.158 53.1422 139.437C53.6832 153.798 57.5683 166.684 68.2407 177.012C72.7655 181.389 76.5527 186.553 81.3725 190.636C85.012 193.734 89.7333 195.603 92.34 197.029V197.079ZM184.211 247.196C186.375 246.802 188.933 246.605 191.343 245.867C227.787 234.752 264.181 223.637 300.576 212.423C301.756 212.079 303.281 211.587 303.921 210.702C305.199 208.784 306.97 206.325 306.675 204.407C306.379 202.439 304.117 199.636 302.199 199.193C281.247 194.128 259.657 192.111 239.148 184.783C234.771 183.209 229.115 184.635 224.196 185.521C200.491 189.8 176.736 194.275 153.129 198.997C145.702 200.472 138.423 202.981 131.145 205.194C128.735 205.931 126.276 206.915 124.357 208.44C122.489 209.915 119.882 212.423 120.079 214.194C120.521 217.588 121.849 221.916 124.357 223.735C141.079 235.834 160.949 240.802 180.179 247.146C181.31 247.54 182.687 247.146 184.261 247.146L184.211 247.196ZM145.653 41.465C116.685 45.4487 86.7826 49.482 56.88 53.7117C45.8633 55.2855 38.5346 64.5808 40.3051 75.0567C41.7806 83.762 43.8465 92.369 46.0596 100.878C48.0269 108.402 55.7486 113.468 63.421 112.189C83.3397 108.943 103.209 105.402 123.079 101.91C131.784 100.386 140.44 98.7627 149.096 96.943C155.145 95.6642 160.211 89.4182 159.867 83.2212C159.375 74.4175 158.785 65.6137 157.26 56.9576C156.178 50.7114 152.735 45.2523 145.702 41.416L145.653 41.465ZM187.31 296.329C178.556 296.673 167.392 297.116 156.227 297.755C155.49 297.755 154.457 299.28 154.309 300.214C154.162 301.395 154.358 303.067 155.145 303.805C156.965 305.477 159.031 307.395 161.293 307.936C182.245 312.904 203.294 314.33 224.393 308.575C225.475 308.28 226.508 307.1 227.148 306.067C227.787 305.083 228.131 303.755 228.082 302.624C228.082 301.641 227.541 300.116 226.852 299.821C214.852 294.608 202.065 298.64 187.31 296.329ZM201.868 390.907C200.983 391.743 199.458 392.481 199.36 393.415C196.015 419.58 197.688 446.188 191.884 472.156C191.441 474.222 193.015 476.878 193.999 479.091C194.49 480.124 195.868 481.55 196.704 481.501C198.966 481.354 201.721 481.108 203.196 479.681C204.868 478.108 206.196 475.304 206.147 473.042C205.606 446.631 204.819 420.22 203.983 393.809C203.983 392.776 202.557 391.792 201.868 390.907ZM231.771 374.48C228.525 381.956 229.312 389.185 232.508 396.317C232.902 397.202 234.77 398.432 235.213 398.186C237.082 397.202 240.23 395.53 240.083 394.399C239.345 387.021 238.115 379.693 231.721 374.529L231.771 374.48ZM224.393 342.118C225.279 341.675 227 341.183 226.951 340.839C226.656 338.527 226.065 336.265 225.524 334.003C224.639 334.445 222.918 334.937 222.967 335.282C223.262 337.593 223.852 339.855 224.393 342.118Z" fill="black"/>
<path d="M106.257 349.692C104.684 354.364 104.044 359.627 101.438 363.66C86.4863 387.021 74.3874 411.662 65.0429 437.778C62.5346 444.762 58.4527 451.254 54.8132 457.795C52.0591 462.664 45.4193 464.336 37.9928 462.418C34.5993 461.533 31.2551 457.156 32.042 454.106C36.4684 436.056 38.7799 417.023 53.4852 403.301C53.2885 410.875 53.0918 418.449 52.8951 426.072C51.1245 429.318 49.0587 432.466 47.7307 435.859C46.5012 439.105 47.9772 440.925 50.7314 440.04C51.4199 439.843 51.764 437.827 51.8132 436.647C52.0591 432.909 52.1081 429.22 52.2065 425.482C61.9445 420.269 65.0428 410.137 69.8626 401.383C76.6005 389.136 82.7485 376.595 89.7323 364.496C93.5685 357.856 98.7817 352.2 106.847 350.38L106.257 349.79V349.692Z" fill="black"/>
<path d="M80.191 357.315C74.7318 368.185 69.6164 379.202 63.7145 389.825C60.8128 394.989 56.4849 399.317 52.7963 404.039C52.5996 390.219 57.9111 378.267 65.5835 367.201C69.1738 362.037 74.24 359.037 80.191 357.315Z" fill="black"/>
<path d="M109.603 332.724C100.849 339.904 92.0454 347.036 83.291 354.217C85.1599 339.265 91.4551 328.593 108.374 328.15C110.341 329.33 110.734 330.855 109.603 332.724Z" fill="black"/>
</svg>
