<svg width="770" height="566" viewBox="0 0 770 566" fill="none" xmlns="http://www.w3.org/2000/svg">
<path d="M129.201 92.2454C133.578 83.5401 142.234 80.4417 150.202 76.7039C180.104 62.6377 210.597 49.8009 239.958 34.751C266.222 21.275 293.763 11.9303 321.994 4.25781C340.683 -0.85717 359.962 -1.29965 378.75 2.58577C397.39 6.42201 415.734 11.8322 433.981 17.439C443.67 20.4391 453.015 24.7179 462.064 29.3411C493.836 45.4729 525.509 61.6047 555.411 81.1793C605.429 113.886 656.087 145.608 706.646 177.43C719.531 185.545 733.253 192.283 746.532 199.758C752.04 202.857 757.598 205.955 762.811 209.595C771.27 215.448 771.615 225.038 763.549 232.317C755.975 239.105 747.86 245.301 740.286 252.089C729.859 261.433 719.384 270.68 709.596 280.614C674.776 316.026 639.758 351.044 594.855 374.061C592.593 375.192 590.625 376.816 588.56 378.291C585.166 380.701 582.559 387.734 584.035 392.013C589.051 406.423 594.019 420.834 599.626 435.048C612.61 468.197 625.987 501.149 639.021 534.298C640.889 538.97 641.824 544.085 642.857 549.053C643.939 554.414 642.217 559.233 638.233 562.774C634.25 566.266 624.167 566.021 620.233 562.529C608.724 552.2 599.921 539.905 594.757 525.396C581.035 487.132 567.658 448.72 554.083 410.358C551.772 403.817 545.919 400.374 539.083 401.899C532.886 403.276 526.787 405.046 520.738 406.964C516.311 408.391 512.918 414.194 513.508 419.211C514.689 429.244 516.557 439.277 517.049 449.36C517.197 452.458 514.443 456.59 511.787 458.803C505.492 464.164 490.983 459.836 489.507 452.262C487.786 443.605 487.048 434.752 485.77 425.998C484.638 418.08 477.31 412.178 469.195 414.489C435.752 423.982 400.832 419.703 366.995 425.703C350.962 428.555 333.994 428.752 317.715 423.883C315.305 423.145 312.748 422.555 310.24 422.506C288.403 422.359 267.353 417.981 246.696 411.096C241.975 409.522 236.073 412.768 234.401 417.588C231.843 424.769 229.926 432.146 227.221 439.228C224.516 446.31 221.761 453.54 217.827 459.934C216.204 462.59 211.63 464.065 208.138 464.705C204.154 465.443 198.646 458.852 198.646 454.426C198.646 451.917 198.055 449.262 198.646 446.852C200.121 440.704 201.793 434.507 203.957 428.556C218.466 388.57 215.515 391.472 183.301 366.34C181.383 364.864 178.776 364.323 175.284 362.897C173.219 365.209 170.022 367.422 168.792 370.471C150.3 416.555 135.398 463.869 121.135 511.379C117.889 522.199 111.25 528.789 101.266 532.724C100.135 533.167 98.7574 533.019 97.4787 533.314C92.6096 534.347 86.9042 529.38 87.2977 524.806C88.4288 511.871 93.5438 500.264 98.4128 488.509C117.102 443.9 132.889 398.21 146.906 351.929C149.808 342.289 147.792 334.617 141.005 327.535C122.512 308.255 104.069 288.926 85.7733 269.499C83.2159 266.794 81.3468 263.45 79.4779 260.204C79.1336 259.614 80.0682 257.99 80.8059 257.253C81.5436 256.515 83.2649 255.531 83.7567 255.827C89.0192 259.22 95.2652 261.925 99.003 266.598C120.545 293.648 148.382 314.255 172.333 338.797C191.17 358.077 213.105 373.324 235.188 388.324C257.762 403.669 282.894 412.227 310.24 413.211C353.471 414.784 396.652 414.194 439.686 408.391C462.359 405.341 485.032 402.686 507.41 397.669C511.148 396.833 515.131 396.931 518.673 395.751C563.379 380.357 606.61 362.012 642.217 329.65C661.054 312.534 679.841 295.32 697.645 277.172C713.727 260.794 730.646 245.547 748.204 230.842C753.86 226.12 752.975 218.792 746.434 215.054C672.513 172.561 602.724 123.427 529.935 79.1138C496.098 58.5555 460.589 41.5383 423.997 26.8327C408.702 20.6849 392.717 16.5536 376.241 13.8977C358.241 10.9959 340.732 11.3896 323.322 15.9143C302.419 21.3244 281.763 27.4229 262.041 36.6692C225.253 54.0307 187.924 70.3101 150.89 87.1305C143.808 90.3274 136.529 92.1964 128.709 91.7537L129.152 92.3439L129.201 92.2454Z" fill="black"/>
<path d="M373.192 282.582C373.094 273.237 377.324 265.319 382.143 257.794C391.881 242.695 405.702 234.973 423.948 236.105C430.292 236.498 436.784 236.596 442.883 238.17C468.753 244.81 494.524 251.843 520.246 259.073C528.41 261.384 532.935 267.581 533.378 275.893C534.115 288.582 534.017 301.321 534.657 314.01C534.755 315.682 537.509 318.731 538.542 318.534C540.656 318.19 543.066 316.37 544.198 314.452C546.116 311.255 548.575 307.419 548.329 304.026C547.64 293.992 546.263 284.598 554.87 276.287C557.821 273.434 557.231 266.745 558.018 261.778C559.149 254.499 555.214 246.581 560.624 239.695C564.952 246.728 562.936 254.499 563.428 261.925C563.92 269.549 564.215 277.221 563.821 284.795C563.575 289.812 562.788 295.074 560.969 299.698C553.542 318.731 544.689 337.027 530.525 352.224C525.213 357.93 519.115 362.405 511.491 364.373C489.31 370.078 467.228 375.439 443.866 374.799C410.816 373.865 377.668 374.504 344.618 373.914C311.272 373.324 279.156 364.963 247.139 356.749C231.843 352.815 220.335 342.437 212.121 328.863C203.564 314.747 195.252 300.534 186.547 285.926C191.711 257.843 184.825 228.432 192.301 194.742C195.203 203.3 197.17 206.694 197.416 210.186C198.006 220.317 197.957 230.547 198.105 240.728C198.4 262.712 203.662 283.664 212.367 303.632C222.548 326.945 239.761 343.47 264.352 350.7C296.37 360.094 329.125 363.438 362.421 359.258C363.602 359.11 364.684 358.126 366.454 357.241C367.143 352.864 367.93 348.093 368.668 343.322C369.7 342.535 371.028 340.912 371.668 341.158C377.569 343.421 383.569 345.585 389.127 348.536C415.144 362.553 442.883 362.356 471.015 358.913C477.704 358.077 483.163 353.897 485.671 347.847C494.868 325.568 503.622 303.042 512.229 280.517C514.738 273.877 511.245 267.926 504.065 266.057C478.195 259.417 452.375 252.63 426.358 246.63C414.308 243.826 403.636 248.4 395.324 257.351C391.045 261.975 388.045 267.778 383.815 272.5C380.52 276.139 376.29 278.893 372.454 282.041L373.094 282.582H373.192ZM524.23 298.173C521.033 299.452 517.836 299.697 517 301.222C508.59 316.469 501.901 332.404 499.344 349.765C499.196 350.7 500.081 352.421 500.917 352.766C502.983 353.651 505.688 354.979 507.41 354.29C514.689 351.487 519.853 345.978 522.263 338.552C526.492 325.371 527.377 311.993 524.279 298.124L524.23 298.173Z" fill="black"/>
<path d="M2.45976 160.265C8.65668 168.872 13.9688 177.036 20.1165 184.512C27.2971 193.266 35.2645 201.382 42.8385 209.792C49.5764 217.268 56.4617 224.645 62.9045 232.366C63.9865 233.694 63.0522 236.695 63.0522 238.957C60.9374 238.662 57.9864 239.105 56.8552 237.924C41.2154 221.497 25.4771 205.169 10.6241 188.102C5.8043 182.594 3.14845 175.118 0.148355 168.282C-0.540192 166.659 1.32858 163.905 2.45976 160.216V160.265Z" fill="black"/>
<path d="M51.5421 121.804C42.6894 133.411 29.1157 136.657 16.4268 141.379C15.7874 141.625 14.0658 140.346 13.7215 139.412C13.3773 138.576 13.8688 136.854 14.6065 136.313C25.5249 127.509 37.5258 121.607 52.0344 122.444L51.4929 121.804H51.5421Z" fill="black"/>
<path d="M91.0366 107.541C101.266 96.18 113.808 90.6716 129.202 92.2454L128.759 91.6553C118.284 102.377 105.693 107.787 90.5449 106.951L91.0366 107.541Z" fill="black"/>
<path d="M357.946 320.797C357.749 305.944 363.799 293.55 373.192 282.533L372.553 281.992C373.537 297.14 369.455 310.321 357.307 320.256L357.946 320.748V320.797Z" fill="black"/>
<path d="M52.0845 122.444C62.8553 111.673 75.4947 105.82 91.0362 107.541L90.5445 106.951C80.1179 118.657 66.3959 121.706 51.543 121.804L52.0845 122.444Z" fill="black"/>
<path d="M97.2326 179.643C94.6259 181.708 92.8061 184.118 91.5765 183.872C89.6584 183.479 87.2485 181.512 86.6583 179.692C86.2157 178.266 88.2322 176.101 89.1667 174.232C91.7241 175.954 94.3308 177.675 97.2326 179.593V179.643Z" fill="black"/>
<path d="M371.275 72.6708C370.538 71.9822 369.161 71.2937 369.161 70.556C369.062 67.4575 370.587 66.7196 372.948 68.6378C373.686 69.228 373.784 70.556 374.177 71.5397C373.194 71.8839 372.259 72.2773 371.275 72.6215V72.6708Z" fill="black"/>
<path d="M241.189 95.2947C240.353 95.4422 239.172 95.9833 238.68 95.639C238.041 95.1964 237.402 93.8684 237.648 93.1306C238.484 90.4256 240.106 90.1307 241.631 92.4423C242.025 93.0325 241.385 94.311 241.238 95.2947H241.189Z" fill="black"/>
<path d="M357.308 320.305C357.209 323.403 358.783 327.092 354.455 328.666C354.406 328.666 353.078 326.502 353.373 326.059C354.652 324.19 356.373 322.567 357.898 320.846L357.258 320.354L357.308 320.305Z" fill="black"/>
</svg>
