<svg width="461" height="549" viewBox="0 0 461 549" fill="none" xmlns="http://www.w3.org/2000/svg">
<path d="M60.4627 76.8019C59.479 67.5064 57.9053 53.6861 56.8233 39.915C56.6757 37.9969 59.0365 34.4558 60.7087 34.0623C79.2502 30.0785 97.8409 25.9964 116.579 23.0946C145.4 18.5698 174.368 15.127 203.189 10.5039C225.714 6.86438 248.534 4.99545 270.912 0.175561C274.256 -0.562177 278.191 1.20839 281.781 2.09368C282.667 2.33959 283.749 3.66752 283.896 4.65117C284.093 5.78237 283.699 7.3562 282.962 8.24149C279.568 12.3236 274.896 14.7828 269.732 14.6844C245.338 14.3401 221.976 21.324 198.123 24.5209C178.008 27.2259 158.04 30.4228 137.728 32.095C125.235 33.1278 112.94 37.3084 100.595 40.2101C97.2508 40.9971 96.6115 43.3086 98.5296 46.2104C99.2181 47.2432 100.054 48.5712 101.038 48.8662C105.808 50.1942 111.022 52.8992 115.448 52.0139C155.335 44.3415 196.303 43.5054 235.747 33.0295C244.256 30.7671 253.502 31.3573 262.207 29.7343C275.929 27.1768 289.601 24.3242 299.684 12.9138C301.749 10.6023 306.569 9.86451 310.11 9.81533C319.356 9.76615 327.275 19.6518 324.963 27.9145C322.897 35.2427 320.586 42.5709 318.077 49.7515C313.799 62.0472 313.454 74.6871 314.241 87.4253C314.832 97.2618 319.897 103.115 330.324 105.918C342.619 109.213 354.866 112.656 367.21 115.607C377.047 117.968 387.031 120.919 397.015 121.361C416.392 122.197 434.393 128.493 452.836 133.116C457.607 134.296 461.246 140.592 460.115 144.92C447.229 194.791 443.983 216.038 442.311 260.695C442.016 268.22 443.59 276.139 439.262 282.975C438.278 284.5 435.18 284.942 432.966 285.336C432.278 285.434 430.753 283.762 430.458 282.68C429.819 280.319 428.983 277.565 429.573 275.352C437.639 244.022 434.589 212.201 434.442 180.479C434.442 179.495 433.016 178.364 432.032 177.675C431.737 177.479 429.917 178.659 429.77 179.347C428.983 184.266 428.098 189.233 427.901 194.25C427.212 213.283 426.77 232.219 422.491 251.056C419.737 263.253 420.671 276.335 420.228 289.024C419.933 297.877 422.245 300.386 433.606 303.681C440.737 305.747 443.049 308.156 442.95 313.37C442.557 342.633 442.36 371.848 441.426 401.111C441.18 408.587 439.065 416.112 437.147 423.44C435.819 428.408 432.721 432.588 427.655 434.654C417.081 438.933 406.507 443.408 395.785 447.245C392.391 448.474 388.063 449.015 384.67 448.032C363.915 442.08 342.816 436.769 323.684 426.44C315.914 422.26 306.815 418.276 301.848 411.587C293.88 400.866 285.568 401.8 275.437 405.784C273.076 406.718 270.519 407.259 268.207 408.243C245.682 417.932 222.468 423.489 197.68 421.571C191.188 421.08 185.188 426.834 184.795 433.129C184.155 443.261 183.811 453.442 183.565 463.573C183.024 485.164 182.68 506.805 182.04 528.445C181.844 534.986 176.975 540.741 170.925 542.265C163.548 544.134 156.121 545.905 148.695 547.577C143.531 548.708 138.564 548.069 134.383 544.528C104.431 518.805 69.0204 500.46 39.6096 473.951C32.0356 467.114 23.1337 462.344 13.494 458.507C1.19853 453.589 -2.39176 447.54 1.49361 434.998C6.51017 418.768 6.16585 402.439 6.21503 385.914C6.46094 301.959 6.75614 218.005 7.24796 134.001C7.29714 122.591 8.08406 111.131 9.41198 99.8193C9.75625 96.7208 13.1005 93.6715 15.6088 91.1632C18.0679 88.7041 21.4615 92.0485 22.0025 97.7045C22.5927 104.049 22.7401 110.394 23.5762 116.689C23.8713 119.05 25.396 121.312 26.724 123.427C27.3141 124.361 28.5437 125.198 29.6749 125.493C41.7736 128.739 58.0036 119.197 58.8397 108.18C59.5283 99.3275 59.725 90.4255 60.3644 76.9495L60.4627 76.8019ZM404.441 366.831C394.162 366.684 384.817 370.323 375.129 373.127C354.669 379.078 335.34 388.767 314.094 392.259C312.52 392.504 310.504 395.898 310.504 397.865C310.504 399.882 312.127 402.636 313.897 403.816C335.931 419.211 360.571 427.965 386.981 432.096C389.686 432.539 394.752 428.703 395.195 425.653C398.195 405.833 401.146 386.012 404.146 366.143C408.228 369.438 411.179 373.471 411.376 378.881C411.867 391.521 412.064 404.21 412.9 416.85C412.999 418.473 415.999 421.03 417.72 421.079C419.737 421.178 421.999 419.161 423.917 417.735C424.802 417.047 425.491 415.62 425.589 414.489C426.573 401.898 427.999 389.258 428.196 376.619C428.393 363.831 436.999 352.519 433.95 339.387C433.704 338.305 432.671 336.732 431.835 336.682C430.802 336.584 428.884 337.568 428.638 338.404C425.097 351.781 413.736 358.372 404.49 366.782L404.441 366.831ZM15.6088 343.961C15.3629 343.961 15.117 343.961 14.8711 343.961C14.8711 366.88 15.3137 389.799 14.6743 412.669C14.2809 426.539 19.445 436.965 29.1338 446.359C56.774 473.164 88.9882 493.427 121.842 512.854C124.448 514.379 127.35 512.756 127.744 509.903C128.826 501.099 129.268 492.247 130.399 483.492C131.039 478.574 132.121 473.557 133.94 468.934C134.58 467.311 137.875 466.573 140.137 465.786C140.531 465.639 142.154 467.409 142.252 468.344C143.088 478.426 143.629 488.509 144.367 498.591C144.859 504.887 145.351 511.231 146.138 517.526C146.679 521.953 152.384 525.101 157.892 524.756C162.417 524.461 165.515 521.461 165.958 518.018C169.106 495.394 171.712 472.721 174.319 450.048C174.909 445.031 174.565 439.867 174.565 434.801C174.614 427.178 174.466 419.506 174.712 411.882C175.647 382.717 172.499 353.257 181.352 324.682C182.434 321.141 182.09 317.108 182.09 313.321C182.09 290.402 182.188 267.483 181.893 244.613C181.844 239.596 180.565 234.629 179.729 229.661C179.237 226.71 174.663 223.612 170.974 223.563C164.532 223.464 157.056 228.333 156.564 233.694C155.138 248.892 153.515 264.04 153.072 279.286C152.384 303.435 152.679 327.633 152.433 351.831C152.335 359.454 153.22 367.471 151.302 374.651C146.334 393.291 145.793 412.325 143.974 431.26C143.875 432.293 142.055 434.113 141.81 434.015C140.088 433.178 137.285 431.998 137.236 430.768C135.908 404.112 134.777 377.405 140.58 350.994C141.662 346.027 142.842 340.961 142.941 335.945C143.433 305.402 143.679 274.86 143.728 244.318C143.728 239.252 141.711 234.629 137.728 230.842C121.153 215.005 103.743 200.348 85.1029 186.922C70.5942 176.495 56.0856 166.314 39.708 159.133C37.3965 158.101 34.8881 157.461 32.5274 156.625C29.9699 155.74 23.8223 159.33 23.5272 162.084C21.3632 180.97 19.1992 199.906 17.2319 218.841C16.986 221.3 17.4285 223.956 18.0679 226.366C21.609 238.957 20.8221 251.301 17.7728 264.04C15.7072 272.548 15.7563 281.696 15.6088 290.549C15.3137 308.353 15.5105 326.206 15.5105 344.011L15.6088 343.961ZM305.192 67.0146C304.602 61.1127 304.208 53.5386 302.88 46.0628C302.536 44.1447 299.683 41.5872 297.618 41.1938C292.749 40.3085 287.536 39.7675 282.667 40.4069C271.355 41.8823 260.24 44.489 248.928 46.0628C223.796 49.5056 198.467 51.5713 173.581 56.2436C158.531 59.047 143.629 61.4078 128.383 62.1455C111.317 62.9816 109.35 64.9981 105.317 81.3267C102.563 92.4419 99.2672 103.41 101.825 115.115C102.267 117.132 100.644 119.738 99.5623 121.902C99.1689 122.689 97.5459 123.23 96.5131 123.23C95.4311 123.23 93.5621 122.64 93.3654 121.902C92.3326 118.312 91.2014 114.574 91.1031 110.885C90.7588 98.1963 90.8572 85.5072 90.6604 72.769C90.5621 67.4081 87.9555 62.9324 83.6275 59.9815C81.7585 58.7027 78.7584 58.1126 76.6436 58.6044C74.5779 59.0962 71.6762 61.0635 71.2827 62.8833C67.3482 80.4906 68.5286 98.2455 71.2827 115.804C71.9713 120.378 75.7091 124.804 78.9059 128.542C81.2666 131.345 84.9062 133.214 88.2013 135.083C114.71 150.133 141.219 165.232 167.925 179.938C176.876 184.856 185.631 189.873 192.762 197.348C196.598 201.381 198.762 206.545 196.598 211.169C189.27 226.956 190.795 243.432 191.582 259.908C192.024 269.253 198.467 274.86 206.484 272.647C233.435 265.368 260.338 257.892 287.241 250.318C292.601 248.793 295.552 244.514 296.487 239.301C297.372 234.333 297.815 229.219 297.864 224.153C298.159 197.447 298.11 170.741 298.454 144.084C298.7 126.427 296.388 108.721 303.421 91.4091C306.126 84.7203 304.7 76.3593 305.29 67.0146H305.192ZM190.401 317.206C190.401 330.19 190.155 336.535 190.451 342.879C190.795 349.519 193.647 355.077 199.5 358.667C202.746 360.683 206.14 362.454 209.287 364.52C224.189 374.307 239.387 375.586 256.354 369.044C291.864 355.372 327.865 342.879 363.62 329.698C374.292 325.764 384.768 321.239 395.293 316.862C400.015 314.894 400.802 306.976 396.572 304.124C376.506 290.5 354.669 280.27 332.537 270.827C319.553 265.269 306.126 264.089 291.667 266.401C276.617 268.81 261.666 270.925 247.01 275.499C236.141 278.893 224.829 280.713 213.714 283.368C210.025 284.254 206.287 285.139 202.795 286.516C197.828 288.483 193.992 292.32 192.959 297.385C191.237 306.042 190.598 314.944 190.303 317.157L190.401 317.206ZM419.048 193.61C419.048 193.61 418.605 193.61 418.359 193.61C418.359 187.315 418.704 180.97 418.261 174.675C417.72 166.167 412.408 160.412 404.785 158.051C378.276 149.74 351.62 141.969 324.963 134.05C320.094 132.624 314.881 136.46 314.241 141.723C310.553 171.97 312.717 202.316 312.569 232.612C312.52 244.465 319.307 251.006 329.34 255.384C350.144 264.532 370.899 273.876 391.703 283.024C393.965 284.057 396.474 284.549 398.883 285.287C401.441 286.074 406.851 282.68 407.785 279.631C408.867 276.04 410.589 272.45 410.785 268.81C411.622 249.826 412.9 230.989 417.622 212.496C419.146 206.496 418.605 199.955 418.999 193.61H419.048ZM409.064 336.977C409.261 333.387 405.031 330.092 401.293 330.485C388.555 331.912 376.85 336.83 365.145 341.601C353.39 346.42 342.373 353.601 330.225 356.601C301.749 363.585 275.83 377.651 247.551 385.078C242.878 386.307 238.501 389.554 234.616 392.603C233.14 393.734 232.304 397.521 233.042 399.193C233.829 400.915 236.927 402.489 239.042 402.538C242.731 402.636 246.616 401.948 250.157 400.816C270.715 394.324 291.273 387.734 311.684 380.897C336.963 372.438 362.243 364.028 387.276 354.978C394.26 352.47 400.605 347.945 406.851 343.765C408.425 342.732 408.375 339.338 409.064 336.977ZM53.9215 139.756C52.5936 141.182 51.3149 141.92 51.1181 142.903C50.8722 144.034 51.1182 145.953 51.9051 146.494C80.7748 166.56 110.923 184.856 137.482 208.168C138.416 208.955 139.596 209.546 140.728 210.037C149.285 213.677 157.695 213.874 166.105 209.447C169.401 207.726 171.27 202.021 168.958 199.857C166.204 197.348 163.794 194.299 160.646 192.479C142.154 181.708 123.662 170.986 104.874 160.756C91.595 153.576 77.9716 147.035 64.299 140.69C61.2005 139.264 57.1184 140.001 53.9708 139.805L53.9215 139.756Z" fill="black"/>
</svg>
