<svg width="402" height="523" viewBox="0 0 402 523" fill="none" xmlns="http://www.w3.org/2000/svg">
<path d="M172.533 421.819C172.533 409.13 172.729 396.441 172.434 383.752C172.287 378.293 168.549 374.555 164.074 371.85C156.205 367.128 147.548 365.653 138.45 365.948C132.991 366.095 128.22 368.309 125.416 372.637C121.334 379.03 117.843 385.867 114.892 392.851C101.17 425.655 87.5958 458.559 74.3659 491.56C69.9395 502.577 63.5457 511.43 53.5617 518.02C46.5287 522.643 41.5121 523.529 36.2988 519.496C32.4627 516.545 31.7742 511.971 34.2333 505.626C45.25 477.15 58.6767 449.755 72.1034 422.36C81.5955 402.982 90.2516 383.162 99.2027 363.538C100.58 360.489 98.2189 355.275 95.0713 353.849C93.9401 353.308 92.9073 352.423 91.7269 352.128C71.3165 347.455 55.0863 334.668 38.1678 323.553C24.2001 314.405 12.7901 302.109 6.34722 286.42C-7.1778 253.418 2.01912 224.204 23.4624 197.99C28.9708 191.252 36.6433 186.137 43.873 181.022C56.3161 172.218 69.005 163.709 81.989 155.643C103.777 142.167 116.121 122.79 121.875 97.9032C125.072 84.1813 127.876 70.6068 128.122 56.5898C128.417 39.917 132.449 23.9326 136.532 7.94833C137.663 3.5219 143.811 -0.806144 148.385 0.128324C183.55 7.21061 219.403 3.22679 254.814 6.47284C262.388 7.16139 270.011 7.40736 277.487 8.68611C288.209 10.5059 291.356 15.9159 289.291 27.3754C287.913 34.8511 287.028 42.4745 285.061 49.8519C281.028 64.9509 281.422 80.0007 283.979 95.1981C285.651 105.182 287.225 115.265 287.864 125.396C288.602 136.315 293.52 144.872 301.144 151.955C308.57 158.889 316.439 165.332 324.21 171.874C329.079 175.956 334.931 179.202 338.817 184.022C351.702 200.301 367.391 212.744 386.425 220.958C391.441 223.122 393.901 227.647 395.425 232.614C396.163 235.024 396.163 237.68 396.753 240.139C403.737 267.927 403.639 268.517 395.671 291.879C393.163 299.306 389.228 305.601 384.015 311.306C369.359 327.438 353.227 341.603 333.112 350.701C328.489 352.816 323.964 355.177 319.488 357.538C304.34 365.554 302.029 371.407 308.963 388.523C317.619 409.77 324.603 431.459 330.358 453.64C333.899 467.116 339.161 480.15 343.538 493.429C345.506 499.429 348.063 505.479 348.702 511.676C348.997 514.578 346.243 519.397 343.588 520.627C340.883 521.856 335.669 520.922 333.21 518.906C329.472 515.856 326.62 511.331 324.21 506.954C307.095 475.576 294.11 442.476 283.487 408.442C271.241 369.292 270.995 372.391 232.781 373.178C228.994 373.276 225.157 373.67 221.42 374.407C216.059 375.44 212.616 379.129 210.206 383.801C206.026 391.916 204.796 400.72 204.403 409.671C203.812 423.639 203.665 437.656 202.829 451.575C202.386 459.247 200.37 466.92 195.107 472.674C192.845 475.133 188.32 476.953 185.074 476.658C181.877 476.363 178.041 473.608 176.123 470.805C174.107 467.903 173.32 463.674 173.221 459.985C172.877 447.296 173.074 434.557 173.074 421.868C172.828 421.868 172.631 421.868 172.385 421.868L172.533 421.819ZM272.962 83.05C272.667 83.05 272.323 83.05 272.028 83.05C272.028 66.5247 272.126 49.9994 271.979 33.5232C271.979 28.9001 266.077 23.3424 261.945 23.8343C246.896 25.5556 231.797 26.8836 217.436 32.392C207.895 44.0975 210.846 59.0489 207.304 72.3282C204.403 83.1976 205.337 95.0506 204.304 106.461C203.173 119.101 201.304 131.692 200.517 144.331C199.288 164.595 198.353 184.907 198.058 205.219C198.009 209.892 199.73 216.04 202.927 219.138C214.239 230.057 221.321 243.287 227.469 257.353C229.78 262.615 234.945 264.189 240.109 264.337C246.404 264.484 252.995 264.583 259.044 263.156C272.618 259.96 285.995 255.73 299.471 252.041C308.029 249.73 316.587 247.369 325.292 245.648C326.669 245.352 328.882 247.91 330.259 249.582C330.751 250.221 330.259 252.73 329.62 253.074C315.111 260.894 300.406 268.616 284.176 272.108C254.322 278.501 224.321 283.026 193.435 282.288C155.762 281.403 120.744 271.517 86.8088 256.418C83.5136 254.943 80.5136 251.992 78.3004 249.09C77.1692 247.615 77.7103 244.565 78.0545 242.352C78.1529 241.565 80.12 240.385 81.0053 240.532C84.694 241.221 88.3825 242.205 91.9728 243.385C105.252 247.664 118.433 252.287 131.81 256.369C138.499 258.386 146.073 255.877 148.04 250.025C151.926 238.368 159.795 230.696 169.582 224.253C176.271 219.876 180.304 213.63 181.287 205.515C184.189 181.563 189.55 157.906 188.96 133.511C188.468 114.428 189.894 95.5424 193.927 76.6563C196.829 63.1803 195.845 48.819 196.288 34.8512C196.484 28.7525 190.681 22.0637 184.681 21.7686C175.877 21.3751 166.926 21.1784 158.172 22.1621C153.106 22.7031 148.926 26.736 147.204 31.7526C145.581 36.4742 144.007 41.6384 144.155 46.5566C144.696 67.2133 136.974 86.542 135.105 106.805C134.761 110.494 133.384 114.33 131.663 117.625C121.433 136.905 109.678 154.709 90.2023 166.365C76.0379 174.874 63.0048 185.202 48.8405 193.711C31.1842 204.285 23.315 221.45 16.1836 239.254C14.8065 242.696 14.6588 246.729 14.4621 250.467C13.3309 273.239 27.2986 300.24 46.7746 311.798C58.775 318.929 71.2181 325.471 83.7595 331.618C115.039 346.963 148.925 353.111 183.009 356.259C208.239 358.571 233.863 356.8 259.339 356.751C272.175 356.751 284.422 353.849 296.766 350.308C315.455 344.898 331.587 335.11 347.916 325.126C361.391 316.913 371.228 305.945 379.638 292.814C386.966 281.403 389.031 269.255 387.605 256.369C387.064 251.549 384.999 246.434 382.244 242.401C374.916 231.778 365.523 223.269 353.719 217.712C335.177 209.006 318.751 197.104 302.865 184.218C283.881 168.874 273.208 149.692 273.11 125.052C273.061 111.035 273.11 97.0671 273.11 83.05H272.962ZM185.074 264.878C187.533 264.583 189.993 264.337 192.402 263.894C201.993 262.222 205.878 251.943 199.878 244.074C194.37 236.795 184.779 234.876 176.762 239.45C170.959 242.746 167.713 247.762 167.762 254.5C167.762 259.664 174.156 264.238 181.337 264.632C182.566 264.681 183.796 264.779 185.025 264.829L185.074 264.878Z" fill="black"/>
</svg>
