<svg width="671" height="887" viewBox="0 0 671 887" fill="none" xmlns="http://www.w3.org/2000/svg">
<path d="M350.981 0.000310199C362.441 0.000310199 373.9 0.000310199 385.31 0.000310199C402.426 -0.0488723 417.623 5.75463 432.082 14.4108C443.247 21.0996 452.1 29.8541 458.641 41.166C471.477 63.3474 480.379 86.955 487.363 111.595C505.658 176.369 517.609 242.667 533.79 307.932C536.249 317.768 539.741 327.605 540.577 337.589C542.053 354.705 548.889 369.754 557.447 383.771C567.333 399.953 577.71 415.888 591.235 429.708C607.17 446.036 622.269 463.3 636.679 481.005C650.45 497.924 660.336 517.056 663.877 539.041C665.106 546.566 666.287 554.091 668.106 561.468C670.959 572.78 672.139 584.436 668.893 595.453C664.073 611.683 663.68 628.11 663.827 644.586C663.975 665.095 660.04 684.965 656.302 704.982C653.056 722.295 643.909 735.574 629.99 745.509C611.35 758.837 591.825 770.69 570.283 779.101C559.66 783.281 549.086 787.757 538.905 792.97C502.56 811.561 464.69 826.266 426.18 839.497C414.18 843.628 402.13 847.759 390.081 851.841C356.391 863.35 322.161 872.843 287.537 881.253C263.536 887.105 239.781 887.548 215.633 886.515C197.976 885.777 184.304 877.859 173.927 863.399C145.008 823.119 116.335 782.74 89.8749 740.787C76.9892 720.377 64.6936 699.572 51.562 679.358C43.2502 666.62 34.5452 653.98 24.7089 642.373C14.5774 630.422 8.38037 616.749 2.47854 602.634C-0.61992 595.207 -1.1121 587.485 2.72409 580.502C13.4457 561.074 14.9706 539.188 19.4953 518.187C21.9052 507.072 22.8396 495.711 26.2332 484.645C28.4464 477.563 28.25 469.595 28.3975 462.021C28.7418 446.774 28.4464 431.479 28.6923 416.232C28.7906 408.609 28.1018 400.592 30.2658 393.46C37.4464 369.853 36.0695 345.655 36.6597 321.556C37.004 307.588 38.1353 293.817 40.4961 279.898C43.447 262.487 43.447 244.487 44.1847 226.732C44.8732 210.256 44.0369 193.73 49.4469 177.648C51.4142 171.795 51.1193 165.106 51.4635 158.761C52.2504 144.794 53.1851 131.023 56.5786 117.251C59.2836 106.333 58.3982 94.5291 59.431 83.168C60.0212 76.6759 62.7263 70.9214 66.9559 66.0032C83.3335 46.8712 104.088 34.6247 128.876 31.5754C163.008 27.3457 196.157 18.5421 229.896 12.5418C242.437 10.3286 254.733 7.57443 267.52 7.0826C271.307 6.93506 275.34 7.13183 278.881 6.04981C302.439 -1.03247 326.735 0.344588 350.834 0.000310199H350.981ZM655.663 598.994C655.663 586.158 656.106 572.14 655.467 558.173C655.122 550.648 654.138 542.68 651.237 535.844C641.794 513.564 631.613 491.727 613.514 474.562C593.153 455.283 574.759 434.282 558.381 411.412C546.381 394.69 536.643 377.378 532.315 356.869C525.233 323.326 517.462 289.931 509.151 256.635C502.708 230.765 499.806 204.059 490.264 178.926C488.936 175.434 488.592 171.5 488.002 167.713C484.412 143.761 477.084 120.694 470.297 97.5784C467.1 86.6107 462.969 75.8398 458.1 65.5115C448.067 44.1662 434 25.8702 410.294 19.2798C393.278 14.5091 375.474 12.5418 357.965 9.4925C355.555 9.04986 352.752 9.29585 350.391 10.0336C329.341 16.5257 307.504 14.7059 286.012 16.4765C275.929 17.3126 265.799 18.3945 255.864 20.3618C212.289 28.9687 168.812 38.0676 125.286 46.7729C113.875 49.0845 103.498 53.7076 93.6122 59.6095C88.0054 62.9539 83.2844 67.4295 81.1204 73.5281C76.4481 86.6598 72.4151 100.038 68.1363 113.317C68.5297 138.843 64.9885 163.975 60.0704 188.959C59.5785 191.419 59.8242 194.025 59.775 196.583C59.4307 211.879 58.7918 226.978 54.7589 241.978C52.4966 250.388 52.8898 259.635 52.6438 268.537C52.152 283.783 52.2999 299.079 51.7097 314.326C51.3654 323.179 51.2176 332.327 49.0044 340.786C45.7092 353.278 45.1191 365.869 44.7749 378.607C44.5781 384.952 44.824 391.641 42.8567 397.493C37.004 414.806 36.709 432.659 37.3483 450.365C38.4795 482.432 29.5283 513.367 28.5938 545.189C28.4463 550.107 26.0856 554.976 24.3642 559.747C22.1511 565.698 19.2495 571.403 17.1347 577.403C13.1509 588.666 13.2985 600.027 18.4134 610.847C21.6594 617.683 25.1021 624.815 30.0203 630.422C56.3818 660.128 77.2842 693.424 95.8749 728.295C98.875 733.902 102.465 739.164 106.055 744.378C119.826 764.247 133.794 783.969 147.516 803.839C154.746 814.315 161.287 825.283 168.959 835.365C175.845 844.464 183.271 853.317 191.484 861.235C205.009 874.269 221.633 880.958 240.371 877.17C271.504 870.875 302.881 865.613 333.03 855.088C345.03 850.907 356.834 845.694 369.178 842.939C404.147 835.267 437.394 822.726 470.248 809.004C509.003 792.823 547.512 776.248 585.087 757.362C602.448 748.657 617.105 736.853 631.417 724.213C642.581 714.327 648.679 702.572 647.794 687.326C647.45 681.03 647.302 674.292 649.073 668.341C655.86 645.963 654.188 622.946 655.663 598.994Z" fill="black"/>
<path d="M128.236 99.4961C112.99 125.464 109.056 154.531 106.842 183.549C104.924 208.829 106.105 234.354 106.154 259.733C106.154 264.798 106.154 270.11 107.679 274.832C113.482 293.423 112.35 312.604 112.646 331.588C113.187 363.36 113.285 395.132 113.679 426.904C114.072 460.742 122.63 492.169 141.909 520.252C154.106 538.057 166.943 555.418 179.632 572.878C186.321 582.124 192.96 591.469 200.337 600.125C208.551 609.765 216.912 619.454 226.355 627.815C242.978 642.52 261.864 651.176 285.225 649.504C304.16 648.127 323.39 650.439 341.784 643.799C367.261 643.061 391.704 635.585 417.032 632.979C445.804 629.979 474.723 623.929 501.035 610.404C508.855 606.371 515.938 600.912 523.217 595.944C532.414 589.649 540.332 581.239 551.545 578.189C552.086 578.042 554.004 580.108 553.857 580.845C553.414 583.255 552.775 585.96 551.299 587.829C539.348 603.125 522.528 612.666 506.888 623.29C498.773 628.798 488.297 631.897 478.461 633.717C444.869 639.963 411.918 650.242 377.244 650.537C370.998 650.586 364.801 652.603 358.555 653.635C349.801 655.111 341.096 657.029 332.292 657.718C320.882 658.652 309.668 659.931 298.406 662.439C268.7 669.029 243.224 658.652 221.092 639.619C206.682 627.224 193.747 613.158 182.583 597.518C170.779 580.993 158.385 564.91 146.188 548.68C129.22 526.105 116.728 501.317 109.4 473.972C108.416 470.283 106.498 466.594 106.596 462.955C107.137 432.363 97.8422 402.805 98.2848 372.115C98.7766 336.556 97.7439 300.948 97.2029 265.389C97.1046 257.765 96.7108 250.142 95.6288 242.617C93.514 227.469 92.6781 212.616 95.8749 197.369C97.9406 187.582 97.3501 177.106 97.3993 166.974C97.4976 147.498 103.498 129.547 111.023 111.939C114.318 104.218 120.417 100.234 128.876 99.9878L128.335 99.5452L128.236 99.4961Z" fill="black"/>
</svg>
