<svg width="342" height="460" viewBox="0 0 342 460" fill="none" xmlns="http://www.w3.org/2000/svg">
<path d="M36.6022 122.187C32.766 118.991 27.5529 116.581 25.3397 112.548C11.7163 88.0547 9.9949 61.693 16.0935 34.8885C20.1264 17.232 31.4874 5.87091 49.7831 2.72323C58.5375 1.24775 67.4393 -0.178478 76.2921 0.018252C100.44 0.55926 124.49 1.59188 148.59 4.10018C180.164 7.39541 211.346 13.8383 243.166 15.4121C255.658 16.0515 268.249 19.7403 280.151 23.8224C287.086 26.1832 293.283 31.3965 298.939 36.3639C307.004 43.4462 310.152 53.086 310.103 63.7586C310.005 78.1199 306.365 91.7926 298.791 103.646C284.823 125.433 267.561 143.877 241.101 150.713C236.232 151.992 231.412 153.714 226.69 155.435C223.641 156.566 220.493 164.189 220.936 168.714C221.428 174.173 225.215 179.239 229.69 179.977C234.707 180.764 239.724 181.797 244.789 181.797C267.905 181.797 289.938 188.781 312.464 192.568C319.644 193.748 326.431 198.371 332.825 202.404C335.727 204.224 338.235 208.109 339.12 211.552C342.071 222.716 343.301 234.225 338.923 245.242C335.235 254.538 329.038 262.8 330.317 273.866C330.612 276.473 326.48 280.063 323.726 282.424C320.874 284.834 317.333 286.752 313.792 287.982C288.168 296.933 288.905 300.917 289.102 327.869C289.2 338.05 289.84 348.23 289.151 358.362C288.856 363.182 286.84 368.346 284.233 372.428C282.463 375.182 278.135 377.937 275.134 377.74C272.233 377.592 267.659 374.1 267.069 371.346C265.151 362.739 264.56 353.837 263.872 344.984C263.183 336.131 263.183 327.229 262.495 318.327C261.905 310.458 255.314 305.048 246.56 305.589C241.543 305.884 236.576 307.065 231.658 308.343C227.428 309.475 222.903 315.721 222.805 319.754C222.756 322.311 222.215 324.967 222.805 327.377C227.871 348.722 225.756 370.363 226.346 391.954C226.887 412.217 228.805 432.48 229.789 452.743C229.887 454.809 227.822 457.17 226.444 459.137C224.92 461.252 218.477 459.186 216.608 455.94C214.1 451.563 210.952 447.333 209.624 442.562C207.559 435.283 206.132 427.709 205.64 420.184C203.526 387.183 201.214 354.182 206.722 321.229C207.854 314.54 202.296 309.77 194.82 310.163C193.542 310.212 192.263 310.311 191.034 310.458C187.247 310.852 183.459 311.393 179.623 311.589C137.524 313.704 134.819 308.442 132.999 355.608C132.851 359.149 130.835 362.936 128.769 365.985C127.687 367.608 124.785 368.248 122.621 368.739C121.687 368.936 119.867 367.903 119.425 366.969C117.261 362.444 114.31 357.919 113.769 353.149C112.441 341.837 112.441 330.328 111.654 318.918C111.211 312.966 105.555 307.802 98.9158 306.77C89.6696 305.294 82.4399 308.589 80.3742 315.917C78.3578 323.246 76.3413 330.672 75.5544 338.197C74.2265 350.837 74.1773 363.625 72.997 376.264C72.4068 382.461 72.21 389.691 68.9148 394.462C61.3899 405.479 61.4392 418.758 56.0291 430.168C54.5537 433.316 51.111 435.677 48.2092 437.89C45.8977 439.661 39.0614 436.218 39.1106 433.611C39.2089 429.824 38.6679 425.89 39.5532 422.299C47.4223 391.462 51.652 359.936 56.8161 328.656C57.8489 322.409 58.0455 316.016 58.0947 309.671C58.1439 301.359 54.1603 294.966 46.8321 291.178C40.045 287.687 32.6186 285.375 26.0774 281.49C14.5688 274.653 6.74879 264.718 6.4537 250.751C6.15861 237.963 4.093 225.618 0.65027 213.323C-1.6121 205.355 2.2733 198.224 8.5194 193.158C16.5361 186.666 25.4381 182.043 36.2581 181.895C45.1108 181.748 54.0127 181.452 62.8163 180.518C68.2263 179.977 71.9641 176.042 73.8822 171.124C76.6856 163.894 74.5215 152.976 69.6525 149.926C63.2096 145.893 56.3243 142.648 49.9306 138.615C43.3894 134.532 37.6351 129.516 35.8645 121.401C46.8813 120.958 53.816 130.696 63.7507 132.663C65.7672 133.057 68.8164 131.926 70.2919 130.45C71.8165 128.827 72.7017 125.974 72.7017 123.614C72.6034 115.351 66.1607 110.236 62.2261 103.793C54.898 91.7435 55.7341 79.5955 63.1114 67.8408C69.6034 57.4141 80.1775 56.7256 88.1942 65.3817C97.6863 75.71 101.276 87.2187 95.9648 100.4C92.6205 108.711 89.4236 116.777 89.9154 126.073C90.4564 136.303 95.3255 142.598 105.555 144.369C115.539 146.139 125.769 147.025 135.507 149.779C151.786 154.402 168.164 154.451 184.689 153.074C195.607 152.189 201.165 147.074 201.509 136.352C201.706 130.155 200.919 123.761 199.296 117.81C198.017 113.039 194.28 108.957 192.558 104.285C189.017 94.3993 196.739 79.8905 206.968 76.4478C213.51 74.2346 219.805 75.6115 224.772 79.9888C229.789 84.366 232.395 90.4157 230.231 97.1045C228.313 103.105 225.018 108.662 223.1 114.663C221.575 119.433 221.034 124.499 220.493 129.516C219.952 134.483 225.707 139.45 230.281 138.713C243.019 136.549 254.97 131.926 265.544 124.745C282.905 112.892 295.053 97.0061 299.48 75.8576C301.103 67.9884 300.021 60.611 296.381 53.6762C290.283 41.9708 281.528 33.3146 268.2 29.8718C237.314 21.9042 205.542 18.9535 174.115 15.9533C138.802 12.5597 102.949 14.3302 67.3409 13.9859C60.9965 13.9367 54.6028 14.4285 48.3075 15.1663C38.7171 16.2974 31.9791 21.5602 27.9954 30.413C19.782 48.6105 18.7984 67.2014 24.7986 86.1858C28.6348 98.2355 32.717 110.236 36.7007 122.237L36.6022 122.187ZM58.4882 251.095C64.0458 248.046 69.9967 244.996 71.6197 238.307C74.669 226.012 75.7511 213.47 73.833 200.781C73.1936 196.453 68.3737 191.781 63.6523 190.994C54.7504 189.567 45.7009 189.371 37.8318 194.141C22.2411 203.486 17.8148 217.552 32.6677 231.028C41.0287 238.652 52.9307 241.652 59.2752 251.832C53.0291 251.046 46.7338 250.357 40.5369 249.373C38.0778 248.98 35.7662 247.652 33.2579 247.16C29.3725 246.373 24.9953 246.964 23.6674 250.751C22.5362 253.997 22.8805 258.423 24.2084 261.669C27.2577 268.997 33.6022 273.424 40.6352 276.67C45.2583 278.785 49.8322 280.949 55.0454 278.44C59.7177 276.178 62.6687 269.587 61.5867 262.013C61.0457 258.325 59.4719 254.734 58.3899 251.095H58.4882ZM204.608 253.505C201.558 179.141 208.788 195.469 148.934 184.944C139.048 183.223 128.769 183.469 118.638 183.567C100.145 183.715 93.2598 189.666 90.2597 207.126C88.7842 215.831 87.653 224.635 86.2268 233.389C84.0136 246.865 87.1613 253.702 103.342 257.587C120.556 261.718 138.065 264.473 155.377 268.063C159.016 268.801 162.557 270.227 165.951 271.702C166.639 271.998 166.983 274.063 166.787 275.145C166.59 276.129 165.557 277.653 164.672 277.752C161.082 278.293 157.295 279.03 153.754 278.539C133.786 275.588 113.916 272.047 93.8993 269.44C91.1943 269.096 87.1612 272.292 85.1447 274.948C82.4889 278.44 84.9481 286.506 88.44 288.474C90.604 289.703 92.7189 291.277 95.0796 292.015C99.8994 293.539 104.768 295.408 109.736 295.654C133.736 296.933 157.737 297.769 181.787 298.556C185.525 298.654 189.263 297.72 193.001 297.13C197.181 296.49 202.591 291.129 202.837 286.9C203.673 273.03 204.313 259.161 204.608 253.505ZM242.871 271.505C249.609 265.063 257.478 264.325 264.462 261.669C275.085 257.636 286.102 254.488 296.578 250.062C308.48 245.045 318.021 236.881 324.464 225.372C327.218 220.405 325.054 211.306 319.89 208.749C315.414 206.486 310.89 203.88 306.07 202.748C288.856 198.715 271.495 194.928 254.134 191.633C247.986 190.502 241.494 190.994 235.199 191.092C226.936 191.191 220.051 197.043 220.198 205.011C220.592 231.57 221.379 258.128 222.264 284.686C222.461 290.637 228.854 295.605 235.543 295.802C239.33 295.9 243.412 296.786 246.855 295.704C264.954 290.146 282.905 284.195 300.807 278.047C302.873 277.309 304.644 274.702 305.775 272.538C306.906 270.424 307.988 267.423 307.299 265.505C306.66 263.735 303.217 261.522 301.545 261.866C285.512 265.407 269.675 269.637 253.642 273.129C250.593 273.817 247.052 272.194 242.92 271.505H242.871ZM196.296 172.009C190.788 169.845 188.525 168.124 186.361 168.222C159.705 169.747 133.441 167.78 107.621 160.452C105.359 159.812 102.408 160.107 100.293 161.14C98.3256 162.074 96.0632 164.386 95.8665 166.304C95.6206 168.222 97.342 171.665 98.965 172.255C103.539 173.878 108.555 175.206 113.375 175.255C137.327 175.452 161.328 175.255 185.279 175.059C187.64 175.059 190.001 173.78 196.296 172.009Z" fill="black"/>
</svg>
