<svg width="520" height="528" viewBox="0 0 520 528" fill="none" xmlns="http://www.w3.org/2000/svg">
<path d="M296.074 75.9681C318.648 88.9523 336.944 100.461 356.076 110.248C384.651 124.806 415.439 132.626 447.21 136.315C453.456 137.053 460.096 137.348 466.096 135.971C482.867 132.085 498.704 135.479 515.967 140.25C517.196 144.479 519.802 149.201 519.802 153.923C519.802 180.579 520.737 207.138 516.901 233.795C513.114 260.157 511.885 286.912 517.934 313.372C518.77 317.012 519.213 321.045 518.524 324.635C514.147 348.488 514.491 372.637 513.261 396.687C512.819 405.196 509.524 411.442 499.933 411.836C493.982 412.082 491.228 415.672 489.015 420.59C487.54 423.984 485.572 427.377 483.014 429.984C481.982 431.017 477.063 430.476 476.768 429.64C469.194 408.196 459.014 387.933 447.801 367.079C444.653 367.62 440.915 367.62 437.718 368.899C434.275 370.325 431.03 372.588 428.128 374.998C408.652 391.277 389.175 407.655 369.896 424.181C367.043 426.59 364.978 429.935 362.765 432.541C358.584 446.558 359.617 460.674 358.879 474.543C358.191 487.282 356.666 499.725 352.24 511.873C348.109 523.136 340.043 527.267 328.878 527.759C321.55 528.054 315.009 524.66 313.976 518.857C311.566 505.135 309.255 491.413 307.632 477.593C306.599 468.789 306.943 459.838 306.5 450.936C306.058 442.575 301.828 436.378 294.205 433.181C281.319 427.771 268.581 421.475 255.155 418.033C217.973 408.54 183.841 391.277 148.283 377.801C123.347 368.358 97.9696 360.145 72.7393 351.538C68.1654 349.964 61.673 353.604 60.6894 358.276C58.9188 366.932 56.8533 375.637 56.4598 384.392C55.5745 403.425 56.1156 422.508 55.2795 441.542C53.9024 471.297 40.4757 480.052 12.7862 469.92C6.34342 467.559 1.9169 463.281 1.57263 456.149C0.0479874 423.148 -1.96828 390.097 4.22864 357.341C6.39265 345.98 6.7861 334.914 5.45819 323.356C3.29419 304.47 2.45807 285.486 6.04835 266.55C9.58945 247.615 8.60564 228.68 5.26127 209.745C3.93336 202.269 2.85157 194.695 2.40894 187.121C2.01548 180.481 4.32705 173.546 10.4256 170.939C29.6557 162.677 32.2623 149.644 25.6719 131.151C20.9996 118.118 18.8357 104.051 16.5241 90.2804C13.1306 69.8204 17.7048 61.7545 36.5415 55.2624C54.5421 49.0654 72.7392 43.2618 91.0841 38.2452C113.118 32.2941 135.495 27.6709 157.578 21.9165C180.89 15.8179 204.005 8.9323 227.268 2.4894C230.908 1.45656 234.646 0.768055 238.384 0.0795002C242.367 -0.658238 248.761 3.86652 249.893 8.34213C251.122 13.2604 252.598 18.1787 252.942 23.1953C253.729 34.6057 253.433 46.0654 254.466 57.4757C255.056 63.6727 257.269 69.722 259.187 75.7222C260.663 80.3454 266.959 83.9358 271.336 82.8538C276.254 81.6242 281.024 79.8536 285.893 78.4764C289.484 77.4436 293.172 76.7059 296.074 76.0173V75.9681ZM146.168 361.817C141.938 356.8 136.184 355.128 129.987 354.439C120.495 345.587 108.74 342.144 96.2478 340.718C95.4117 340.619 93.9367 341.947 93.5924 342.882C93.3465 343.521 94.2319 345.046 94.9696 345.636C105.544 353.899 118.134 353.456 130.528 353.8C134.807 358.669 140.807 359.899 146.708 361.178C152.758 368.654 161.021 369.096 169.627 368.604C179.415 380.211 192.398 384.195 207.006 384.293C216.399 397.376 230.859 398.065 244.876 399.884C247.876 401.704 250.876 403.622 253.974 405.245C254.909 405.737 256.335 405.737 257.417 405.442C258.302 405.196 259.04 404.163 259.827 403.475C258.204 402.442 256.679 400.769 254.958 400.573C251.466 400.13 247.876 400.524 244.335 400.573C234.745 387.933 221.416 384.539 206.465 384.982C196.923 372.834 183.841 369.096 169.136 369.243C163.086 361.719 154.578 361.817 146.118 361.817H146.168ZM256.975 136.512C249.204 118.511 245.564 100.264 245.958 80.6897C246.253 64.3119 243.745 47.7866 241.581 31.458C240.302 21.769 231.646 16.8508 221.662 18.6214C170.316 27.7694 120.2 42.1307 69.7393 54.9181C66.0506 55.8526 62.4599 57.1312 58.8697 58.4591C51.5416 61.2133 47.1643 67.9021 47.0659 76.2632C46.7708 99.379 52.8697 121.56 57.8863 143.791C60.1486 153.824 65.9025 162.677 74.7061 168.579C92.6083 180.678 110.707 192.531 128.855 204.187C139.233 210.827 150.496 210.925 161.857 206.745C184.53 198.383 207.251 190.121 229.728 181.317C236.711 178.612 243.007 174.284 249.794 170.644C252.302 158.742 254.614 147.627 256.925 136.512H256.975ZM83.9037 303.437C87.2972 301.076 90.1003 298.371 93.4447 296.945C100.429 293.945 107.953 292.175 114.789 288.879C121.429 285.683 131.462 283.223 130.724 274.666C130.085 267.042 120.396 264.534 113.708 261.239C110.314 259.567 106.724 257.944 103.084 257.157C99.4447 256.37 95.2641 255.583 91.9198 256.665C64.4271 265.764 61.1813 262.272 62.0666 295.322C62.1158 297.88 62.2636 300.388 62.362 302.945C62.7554 311.503 67.6733 317.405 74.9522 320.504C84.2476 324.537 93.9854 327.438 103.625 330.586C132.593 339.931 161.955 348.095 190.431 358.768C226.088 372.096 260.958 387.392 296.172 401.802C302.418 404.36 309.747 400.819 310.976 394.425C315.944 369.194 313.189 343.865 311.616 318.586C311.271 313.274 306.943 309.093 301.828 308.208C286.828 305.552 271.779 302.503 256.63 301.814C227.269 300.437 198.743 294.929 170.611 287.158C157.578 283.567 146.02 284.994 133.774 290.453C119.953 296.65 105.396 301.273 90.9856 306.142C89.3134 306.684 86.7562 304.618 83.8545 303.437H83.9037ZM305.468 292.42C307.435 292.322 316.337 292.224 325.19 291.437C334.78 290.601 341.715 285.191 346.043 276.78C347.125 274.715 347.863 271.567 346.978 269.747C346.142 268.026 342.748 266.108 340.977 266.452C297.402 275.502 254.958 265.37 212.318 259.124C206.121 258.239 199.776 256.173 194.317 253.124C161.168 234.434 124.872 221.499 95.2644 196.465C82.723 185.842 68.2141 177.579 54.4432 168.48C49.9184 165.48 44.8529 165.53 39.9348 167.644C36.4428 169.12 32.9511 170.743 29.6559 172.612C20.9507 177.481 19.3275 184.907 25.7703 190.908C31.3279 196.072 36.8365 201.531 43.1809 205.662C64.4767 219.581 85.2808 234.533 107.855 246.091C131.512 258.239 156.151 269.846 181.677 276.535C219.744 286.469 258.991 291.732 305.517 292.47L305.468 292.42ZM458.964 239.746C458.964 223.122 459.26 215.499 458.866 207.925C458.473 200.006 452.374 194.006 444.013 193.514C399.553 190.809 355.83 183.973 313.435 169.808C312.255 169.415 310.927 169.366 309.697 169.071C306.451 168.382 300.746 171.432 300.697 174.284C300.501 184.367 300.156 194.449 300.55 204.531C300.796 209.892 304.632 213.679 309.206 216.286C312.501 218.155 315.944 219.926 319.583 221.008C359.666 232.959 399.799 244.812 439.98 256.517C443.472 257.55 447.456 257.796 451.095 257.353C453.161 257.107 456.21 254.894 456.604 253.074C458.325 245.795 459.21 238.271 458.964 239.746ZM294.599 91.1164C286.435 93.9198 277.975 96.3789 269.86 99.6741C264.155 101.986 262.532 110.593 265.483 116.15C271.68 127.856 281.369 136.463 292.582 142.168C320.96 156.578 350.42 168.284 382.831 170.251C394.192 170.94 405.799 171.185 416.865 173.448C435.308 177.235 452.177 174.137 468.26 165.234C471.162 163.611 474.85 161.546 470.276 156.037C406.094 152.742 348.256 128.643 294.5 91.0672L294.599 91.1164ZM361.535 332.406C361.88 334.275 362.273 339.34 363.797 344.013C364.289 345.537 368.47 347.505 369.7 346.816C400.143 330.881 429.308 313.028 451.981 286.518C452.817 285.535 451.538 280.764 450.26 280.272C430.095 272.748 409.832 265.419 389.422 258.485C384.11 256.665 379.683 259.566 376.241 263.796C369.699 271.862 364.83 280.42 364.388 291.191C363.896 303.88 362.666 316.471 361.535 332.307V332.406ZM9.24529 421.918C9.24529 429.345 9.14693 435.689 9.24529 442.034C9.4912 453.001 17.8027 459.739 29.8522 459.002C36.8852 458.559 42.0003 452.903 40.4265 446.313C34.2295 420.197 31.2787 394.032 36.2461 367.227C37.6232 359.899 36.689 352.03 35.8529 344.505C31.3773 304.126 29.0164 263.747 33.787 223.221C34.1805 219.925 31.7214 216.138 30.1476 212.745C28.5246 209.253 22.7214 206.941 20.5574 208.761C18.7868 210.236 17.4097 212.253 16.1801 214.269C15.5899 215.253 15.6392 216.728 15.6392 218.007C15.4425 252.238 15.3932 286.42 14.9998 320.651C14.7539 342.193 14.2621 363.735 13.1801 385.228C12.5407 397.868 10.524 410.409 9.24529 421.918ZM337.781 407.311C337.781 407.311 337.387 407.311 337.19 407.311C337.19 380.801 337.387 354.243 336.994 327.733C336.944 323.012 334.387 318.29 332.715 313.667C332.469 313.028 330.649 312.782 329.518 312.782C328.387 312.782 326.714 312.782 326.222 313.52C324.796 315.487 322.829 317.848 322.829 320.012C322.485 379.326 322.288 438.689 322.239 498.003C322.239 500.315 323.764 502.676 324.846 504.84C325.338 505.823 326.714 507.25 327.452 507.151C329.714 506.758 333.305 506.217 333.747 504.889C335.616 499.036 337.485 492.888 337.584 486.839C337.977 460.33 337.731 433.771 337.731 407.262L337.781 407.311ZM166.922 219.975C177.3 230.647 188.71 235.467 201.202 237.877C204.743 238.566 208.875 237.877 212.318 236.648C224.269 232.516 236.072 227.942 247.925 223.467C257.86 219.729 260.269 211.909 259.778 202.22C259.237 191.891 254.466 187.465 245.859 190.268C224.17 197.302 202.481 204.285 180.939 211.712C176.415 213.286 172.48 216.63 166.922 220.024V219.975ZM307.632 255.73C315.108 254.747 328.78 252.927 342.354 250.96C342.895 250.861 343.535 248.992 343.535 247.91C343.535 246.828 343.19 245.107 342.453 244.763C325.682 235.959 307.484 231.139 289.385 226.172C287.074 225.532 284.27 225.729 281.909 226.368C267.401 230.352 252.647 233.697 240.007 242.5C239.417 242.894 239.318 244.615 239.613 245.5C240.007 246.582 240.843 247.861 241.827 248.353C260.909 257.058 281.369 254.206 307.632 255.829V255.73ZM451.932 322.471C428.521 339.537 405.11 356.505 381.798 373.67C376.732 377.408 371.962 381.588 367.338 385.867C365.568 387.49 363.945 389.802 363.355 392.064C362.814 394.228 362.962 397.228 364.191 398.901C364.929 399.884 369.159 399.933 370.241 398.851C385.536 383.703 402.75 371.063 420.504 358.964C433.931 349.817 446.768 339.734 451.932 322.471ZM67.9682 251.943C70.0338 250.714 73.0344 249.976 73.9688 248.156C74.8541 246.386 74.5097 242.795 73.1818 241.369C70.821 238.762 67.5261 236.549 64.2309 235.369C62.7555 234.877 58.8207 236.943 58.4272 238.517C56.8042 244.861 61.6729 251.206 67.9682 251.943ZM500.425 198.187C504.95 192.334 504.163 186.678 500.769 180.924C497.572 186.531 498.408 192.187 500.425 198.187ZM472.441 357.587C472.047 356.554 471.653 355.522 471.26 354.489C470.62 355.325 469.588 356.112 469.391 357.046C468.653 360.145 469.686 361.62 471.654 360.637C472.293 360.341 472.195 358.62 472.441 357.587ZM71.1159 333.242C70.2306 333.439 68.706 333.537 68.6076 333.881C68.1649 336.242 69.3945 336.783 71.7061 335.258C71.8536 335.16 71.3126 333.931 71.1159 333.193V333.242Z" fill="black"/>
</svg>
